<?xml version="1.0" encoding="utf-8" standalone="no"?>
<!DOCTYPE svg PUBLIC "-//W3C//DTD SVG 1.1//EN"
  "http://www.w3.org/Graphics/SVG/1.1/DTD/svg11.dtd">
<svg xmlns:xlink="http://www.w3.org/1999/xlink" width="711.727916pt" height="280.474375pt" viewBox="0 0 711.727916 280.474375" xmlns="http://www.w3.org/2000/svg" version="1.1">
 <metadata>
  <rdf:RDF xmlns:dc="http://purl.org/dc/elements/1.1/" xmlns:cc="http://creativecommons.org/ns#" xmlns:rdf="http://www.w3.org/1999/02/22-rdf-syntax-ns#">
   <cc:Work>
    <dc:type rdf:resource="http://purl.org/dc/dcmitype/StillImage"/>
    <dc:date>2026-02-26T17:03:41.648220</dc:date>
    <dc:format>image/svg+xml</dc:format>
    <dc:creator>
     <cc:Agent>
      <dc:title>Matplotlib v3.10.8, https://matplotlib.org/</dc:title>
     </cc:Agent>
    </dc:creator>
   </cc:Work>
  </rdf:RDF>
 </metadata>
 <defs>
  <style type="text/css">*{stroke-linejoin: round; stroke-linecap: butt}</style>
 </defs>
 <g id="figure_1">
  <g id="patch_1">
   <path d="M 0 280.474375 
L 711.727916 280.474375 
L 711.727916 0 
L 0 0 
z
" style="fill: #ffffff"/>
  </g>
  <g id="axes_1">
   <g id="patch_2">
    <path d="M 45.478125 242.918125 
L 704.527916 242.918125 
L 704.527916 22.318125 
L 45.478125 22.318125 
z
" style="fill: #ffffff"/>
   </g>
   <g id="matplotlib.axis_1">
    <g id="xtick_1">
     <g id="line2d_1">
      <path d="M 75.193152 242.918125 
L 75.193152 22.318125 
" clip-path="url(#pd26dfc67a7)" style="fill: none; stroke-dasharray: 1.85,0.8; stroke-dashoffset: 0; stroke: #b0b0b0; stroke-opacity: 0.6; stroke-width: 0.5"/>
     </g>
     <g id="line2d_2">
      <defs>
       <path id="ma5afbabcb3" d="M 0 0 
L 0 3.5 
" style="stroke: #000000; stroke-width: 0.8"/>
      </defs>
      <g>
       <use xlink:href="#ma5afbabcb3" x="75.193152" y="242.918125" style="stroke: #000000; stroke-width: 0.8"/>
      </g>
     </g>
     <g id="text_1">
      <!-- 0 -->
      <g transform="translate(72.011902 257.516563) scale(0.1 -0.1)">
       <defs>
        <path id="DejaVuSans-30" d="M 2034 4250 
Q 1547 4250 1301 3770 
Q 1056 3291 1056 2328 
Q 1056 1369 1301 889 
Q 1547 409 2034 409 
Q 2525 409 2770 889 
Q 3016 1369 3016 2328 
Q 3016 3291 2770 3770 
Q 2525 4250 2034 4250 
z
M 2034 4750 
Q 2819 4750 3233 4129 
Q 3647 3509 3647 2328 
Q 3647 1150 3233 529 
Q 2819 -91 2034 -91 
Q 1250 -91 836 529 
Q 422 1150 422 2328 
Q 422 3509 836 4129 
Q 1250 4750 2034 4750 
z
" transform="scale(0.015625)"/>
       </defs>
       <use xlink:href="#DejaVuSans-30"/>
      </g>
     </g>
    </g>
    <g id="xtick_2">
     <g id="line2d_3">
      <path d="M 196.084228 242.918125 
L 196.084228 22.318125 
" clip-path="url(#pd26dfc67a7)" style="fill: none; stroke-dasharray: 1.85,0.8; stroke-dashoffset: 0; stroke: #b0b0b0; stroke-opacity: 0.6; stroke-width: 0.5"/>
     </g>
     <g id="line2d_4">
      <g>
       <use xlink:href="#ma5afbabcb3" x="196.084228" y="242.918125" style="stroke: #000000; stroke-width: 0.8"/>
      </g>
     </g>
     <g id="text_2">
      <!-- 500 -->
      <g transform="translate(186.540478 257.516563) scale(0.1 -0.1)">
       <defs>
        <path id="DejaVuSans-35" d="M 691 4666 
L 3169 4666 
L 3169 4134 
L 1269 4134 
L 1269 2991 
Q 1406 3038 1543 3061 
Q 1681 3084 1819 3084 
Q 2600 3084 3056 2656 
Q 3513 2228 3513 1497 
Q 3513 744 3044 326 
Q 2575 -91 1722 -91 
Q 1428 -91 1123 -41 
Q 819 9 494 109 
L 494 744 
Q 775 591 1075 516 
Q 1375 441 1709 441 
Q 2250 441 2565 725 
Q 2881 1009 2881 1497 
Q 2881 1984 2565 2268 
Q 2250 2553 1709 2553 
Q 1456 2553 1204 2497 
Q 953 2441 691 2322 
L 691 4666 
z
" transform="scale(0.015625)"/>
       </defs>
       <use xlink:href="#DejaVuSans-35"/>
       <use xlink:href="#DejaVuSans-30" transform="translate(63.623047 0)"/>
       <use xlink:href="#DejaVuSans-30" transform="translate(127.246094 0)"/>
      </g>
     </g>
    </g>
    <g id="xtick_3">
     <g id="line2d_5">
      <path d="M 316.975304 242.918125 
L 316.975304 22.318125 
" clip-path="url(#pd26dfc67a7)" style="fill: none; stroke-dasharray: 1.85,0.8; stroke-dashoffset: 0; stroke: #b0b0b0; stroke-opacity: 0.6; stroke-width: 0.5"/>
     </g>
     <g id="line2d_6">
      <g>
       <use xlink:href="#ma5afbabcb3" x="316.975304" y="242.918125" style="stroke: #000000; stroke-width: 0.8"/>
      </g>
     </g>
     <g id="text_3">
      <!-- 1000 -->
      <g transform="translate(304.250304 257.516563) scale(0.1 -0.1)">
       <defs>
        <path id="DejaVuSans-31" d="M 794 531 
L 1825 531 
L 1825 4091 
L 703 3866 
L 703 4441 
L 1819 4666 
L 2450 4666 
L 2450 531 
L 3481 531 
L 3481 0 
L 794 0 
L 794 531 
z
" transform="scale(0.015625)"/>
       </defs>
       <use xlink:href="#DejaVuSans-31"/>
       <use xlink:href="#DejaVuSans-30" transform="translate(63.623047 0)"/>
       <use xlink:href="#DejaVuSans-30" transform="translate(127.246094 0)"/>
       <use xlink:href="#DejaVuSans-30" transform="translate(190.869141 0)"/>
      </g>
     </g>
    </g>
    <g id="xtick_4">
     <g id="line2d_7">
      <path d="M 437.86638 242.918125 
L 437.86638 22.318125 
" clip-path="url(#pd26dfc67a7)" style="fill: none; stroke-dasharray: 1.85,0.8; stroke-dashoffset: 0; stroke: #b0b0b0; stroke-opacity: 0.6; stroke-width: 0.5"/>
     </g>
     <g id="line2d_8">
      <g>
       <use xlink:href="#ma5afbabcb3" x="437.86638" y="242.918125" style="stroke: #000000; stroke-width: 0.8"/>
      </g>
     </g>
     <g id="text_4">
      <!-- 1500 -->
      <g transform="translate(425.14138 257.516563) scale(0.1 -0.1)">
       <use xlink:href="#DejaVuSans-31"/>
       <use xlink:href="#DejaVuSans-35" transform="translate(63.623047 0)"/>
       <use xlink:href="#DejaVuSans-30" transform="translate(127.246094 0)"/>
       <use xlink:href="#DejaVuSans-30" transform="translate(190.869141 0)"/>
      </g>
     </g>
    </g>
    <g id="xtick_5">
     <g id="line2d_9">
      <path d="M 558.757456 242.918125 
L 558.757456 22.318125 
" clip-path="url(#pd26dfc67a7)" style="fill: none; stroke-dasharray: 1.85,0.8; stroke-dashoffset: 0; stroke: #b0b0b0; stroke-opacity: 0.6; stroke-width: 0.5"/>
     </g>
     <g id="line2d_10">
      <g>
       <use xlink:href="#ma5afbabcb3" x="558.757456" y="242.918125" style="stroke: #000000; stroke-width: 0.8"/>
      </g>
     </g>
     <g id="text_5">
      <!-- 2000 -->
      <g transform="translate(546.032456 257.516563) scale(0.1 -0.1)">
       <defs>
        <path id="DejaVuSans-32" d="M 1228 531 
L 3431 531 
L 3431 0 
L 469 0 
L 469 531 
Q 828 903 1448 1529 
Q 2069 2156 2228 2338 
Q 2531 2678 2651 2914 
Q 2772 3150 2772 3378 
Q 2772 3750 2511 3984 
Q 2250 4219 1831 4219 
Q 1534 4219 1204 4116 
Q 875 4013 500 3803 
L 500 4441 
Q 881 4594 1212 4672 
Q 1544 4750 1819 4750 
Q 2544 4750 2975 4387 
Q 3406 4025 3406 3419 
Q 3406 3131 3298 2873 
Q 3191 2616 2906 2266 
Q 2828 2175 2409 1742 
Q 1991 1309 1228 531 
z
" transform="scale(0.015625)"/>
       </defs>
       <use xlink:href="#DejaVuSans-32"/>
       <use xlink:href="#DejaVuSans-30" transform="translate(63.623047 0)"/>
       <use xlink:href="#DejaVuSans-30" transform="translate(127.246094 0)"/>
       <use xlink:href="#DejaVuSans-30" transform="translate(190.869141 0)"/>
      </g>
     </g>
    </g>
    <g id="xtick_6">
     <g id="line2d_11">
      <path d="M 679.648532 242.918125 
L 679.648532 22.318125 
" clip-path="url(#pd26dfc67a7)" style="fill: none; stroke-dasharray: 1.85,0.8; stroke-dashoffset: 0; stroke: #b0b0b0; stroke-opacity: 0.6; stroke-width: 0.5"/>
     </g>
     <g id="line2d_12">
      <g>
       <use xlink:href="#ma5afbabcb3" x="679.648532" y="242.918125" style="stroke: #000000; stroke-width: 0.8"/>
      </g>
     </g>
     <g id="text_6">
      <!-- 2500 -->
      <g transform="translate(666.923532 257.516563) scale(0.1 -0.1)">
       <use xlink:href="#DejaVuSans-32"/>
       <use xlink:href="#DejaVuSans-35" transform="translate(63.623047 0)"/>
       <use xlink:href="#DejaVuSans-30" transform="translate(127.246094 0)"/>
       <use xlink:href="#DejaVuSans-30" transform="translate(190.869141 0)"/>
      </g>
     </g>
    </g>
    <g id="text_7">
     <!-- Rank (1 = highest) -->
     <g transform="translate(327.931145 271.194687) scale(0.1 -0.1)">
      <defs>
       <path id="DejaVuSans-52" d="M 2841 2188 
Q 3044 2119 3236 1894 
Q 3428 1669 3622 1275 
L 4263 0 
L 3584 0 
L 2988 1197 
Q 2756 1666 2539 1819 
Q 2322 1972 1947 1972 
L 1259 1972 
L 1259 0 
L 628 0 
L 628 4666 
L 2053 4666 
Q 2853 4666 3247 4331 
Q 3641 3997 3641 3322 
Q 3641 2881 3436 2590 
Q 3231 2300 2841 2188 
z
M 1259 4147 
L 1259 2491 
L 2053 2491 
Q 2509 2491 2742 2702 
Q 2975 2913 2975 3322 
Q 2975 3731 2742 3939 
Q 2509 4147 2053 4147 
L 1259 4147 
z
" transform="scale(0.015625)"/>
       <path id="DejaVuSans-61" d="M 2194 1759 
Q 1497 1759 1228 1600 
Q 959 1441 959 1056 
Q 959 750 1161 570 
Q 1363 391 1709 391 
Q 2188 391 2477 730 
Q 2766 1069 2766 1631 
L 2766 1759 
L 2194 1759 
z
M 3341 1997 
L 3341 0 
L 2766 0 
L 2766 531 
Q 2569 213 2275 61 
Q 1981 -91 1556 -91 
Q 1019 -91 701 211 
Q 384 513 384 1019 
Q 384 1609 779 1909 
Q 1175 2209 1959 2209 
L 2766 2209 
L 2766 2266 
Q 2766 2663 2505 2880 
Q 2244 3097 1772 3097 
Q 1472 3097 1187 3025 
Q 903 2953 641 2809 
L 641 3341 
Q 956 3463 1253 3523 
Q 1550 3584 1831 3584 
Q 2591 3584 2966 3190 
Q 3341 2797 3341 1997 
z
" transform="scale(0.015625)"/>
       <path id="DejaVuSans-6e" d="M 3513 2113 
L 3513 0 
L 2938 0 
L 2938 2094 
Q 2938 2591 2744 2837 
Q 2550 3084 2163 3084 
Q 1697 3084 1428 2787 
Q 1159 2491 1159 1978 
L 1159 0 
L 581 0 
L 581 3500 
L 1159 3500 
L 1159 2956 
Q 1366 3272 1645 3428 
Q 1925 3584 2291 3584 
Q 2894 3584 3203 3211 
Q 3513 2838 3513 2113 
z
" transform="scale(0.015625)"/>
       <path id="DejaVuSans-6b" d="M 581 4863 
L 1159 4863 
L 1159 1991 
L 2875 3500 
L 3609 3500 
L 1753 1863 
L 3688 0 
L 2938 0 
L 1159 1709 
L 1159 0 
L 581 0 
L 581 4863 
z
" transform="scale(0.015625)"/>
       <path id="DejaVuSans-20" transform="scale(0.015625)"/>
       <path id="DejaVuSans-28" d="M 1984 4856 
Q 1566 4138 1362 3434 
Q 1159 2731 1159 2009 
Q 1159 1288 1364 580 
Q 1569 -128 1984 -844 
L 1484 -844 
Q 1016 -109 783 600 
Q 550 1309 550 2009 
Q 550 2706 781 3412 
Q 1013 4119 1484 4856 
L 1984 4856 
z
" transform="scale(0.015625)"/>
       <path id="DejaVuSans-3d" d="M 678 2906 
L 4684 2906 
L 4684 2381 
L 678 2381 
L 678 2906 
z
M 678 1631 
L 4684 1631 
L 4684 1100 
L 678 1100 
L 678 1631 
z
" transform="scale(0.015625)"/>
       <path id="DejaVuSans-68" d="M 3513 2113 
L 3513 0 
L 2938 0 
L 2938 2094 
Q 2938 2591 2744 2837 
Q 2550 3084 2163 3084 
Q 1697 3084 1428 2787 
Q 1159 2491 1159 1978 
L 1159 0 
L 581 0 
L 581 4863 
L 1159 4863 
L 1159 2956 
Q 1366 3272 1645 3428 
Q 1925 3584 2291 3584 
Q 2894 3584 3203 3211 
Q 3513 2838 3513 2113 
z
" transform="scale(0.015625)"/>
       <path id="DejaVuSans-69" d="M 603 3500 
L 1178 3500 
L 1178 0 
L 603 0 
L 603 3500 
z
M 603 4863 
L 1178 4863 
L 1178 4134 
L 603 4134 
L 603 4863 
z
" transform="scale(0.015625)"/>
       <path id="DejaVuSans-67" d="M 2906 1791 
Q 2906 2416 2648 2759 
Q 2391 3103 1925 3103 
Q 1463 3103 1205 2759 
Q 947 2416 947 1791 
Q 947 1169 1205 825 
Q 1463 481 1925 481 
Q 2391 481 2648 825 
Q 2906 1169 2906 1791 
z
M 3481 434 
Q 3481 -459 3084 -895 
Q 2688 -1331 1869 -1331 
Q 1566 -1331 1297 -1286 
Q 1028 -1241 775 -1147 
L 775 -588 
Q 1028 -725 1275 -790 
Q 1522 -856 1778 -856 
Q 2344 -856 2625 -561 
Q 2906 -266 2906 331 
L 2906 616 
Q 2728 306 2450 153 
Q 2172 0 1784 0 
Q 1141 0 747 490 
Q 353 981 353 1791 
Q 353 2603 747 3093 
Q 1141 3584 1784 3584 
Q 2172 3584 2450 3431 
Q 2728 3278 2906 2969 
L 2906 3500 
L 3481 3500 
L 3481 434 
z
" transform="scale(0.015625)"/>
       <path id="DejaVuSans-65" d="M 3597 1894 
L 3597 1613 
L 953 1613 
Q 991 1019 1311 708 
Q 1631 397 2203 397 
Q 2534 397 2845 478 
Q 3156 559 3463 722 
L 3463 178 
Q 3153 47 2828 -22 
Q 2503 -91 2169 -91 
Q 1331 -91 842 396 
Q 353 884 353 1716 
Q 353 2575 817 3079 
Q 1281 3584 2069 3584 
Q 2775 3584 3186 3129 
Q 3597 2675 3597 1894 
z
M 3022 2063 
Q 3016 2534 2758 2815 
Q 2500 3097 2075 3097 
Q 1594 3097 1305 2825 
Q 1016 2553 972 2059 
L 3022 2063 
z
" transform="scale(0.015625)"/>
       <path id="DejaVuSans-73" d="M 2834 3397 
L 2834 2853 
Q 2591 2978 2328 3040 
Q 2066 3103 1784 3103 
Q 1356 3103 1142 2972 
Q 928 2841 928 2578 
Q 928 2378 1081 2264 
Q 1234 2150 1697 2047 
L 1894 2003 
Q 2506 1872 2764 1633 
Q 3022 1394 3022 966 
Q 3022 478 2636 193 
Q 2250 -91 1575 -91 
Q 1294 -91 989 -36 
Q 684 19 347 128 
L 347 722 
Q 666 556 975 473 
Q 1284 391 1588 391 
Q 1994 391 2212 530 
Q 2431 669 2431 922 
Q 2431 1156 2273 1281 
Q 2116 1406 1581 1522 
L 1381 1569 
Q 847 1681 609 1914 
Q 372 2147 372 2553 
Q 372 3047 722 3315 
Q 1072 3584 1716 3584 
Q 2034 3584 2315 3537 
Q 2597 3491 2834 3397 
z
" transform="scale(0.015625)"/>
       <path id="DejaVuSans-74" d="M 1172 4494 
L 1172 3500 
L 2356 3500 
L 2356 3053 
L 1172 3053 
L 1172 1153 
Q 1172 725 1289 603 
Q 1406 481 1766 481 
L 2356 481 
L 2356 0 
L 1766 0 
Q 1100 0 847 248 
Q 594 497 594 1153 
L 594 3053 
L 172 3053 
L 172 3500 
L 594 3500 
L 594 4494 
L 1172 4494 
z
" transform="scale(0.015625)"/>
       <path id="DejaVuSans-29" d="M 513 4856 
L 1013 4856 
Q 1481 4119 1714 3412 
Q 1947 2706 1947 2009 
Q 1947 1309 1714 600 
Q 1481 -109 1013 -844 
L 513 -844 
Q 928 -128 1133 580 
Q 1338 1288 1338 2009 
Q 1338 2731 1133 3434 
Q 928 4138 513 4856 
z
" transform="scale(0.015625)"/>
      </defs>
      <use xlink:href="#DejaVuSans-52"/>
      <use xlink:href="#DejaVuSans-61" transform="translate(67.232422 0)"/>
      <use xlink:href="#DejaVuSans-6e" transform="translate(128.511719 0)"/>
      <use xlink:href="#DejaVuSans-6b" transform="translate(191.890625 0)"/>
      <use xlink:href="#DejaVuSans-20" transform="translate(249.800781 0)"/>
      <use xlink:href="#DejaVuSans-28" transform="translate(281.587891 0)"/>
      <use xlink:href="#DejaVuSans-31" transform="translate(320.601562 0)"/>
      <use xlink:href="#DejaVuSans-20" transform="translate(384.224609 0)"/>
      <use xlink:href="#DejaVuSans-3d" transform="translate(416.011719 0)"/>
      <use xlink:href="#DejaVuSans-20" transform="translate(499.800781 0)"/>
      <use xlink:href="#DejaVuSans-68" transform="translate(531.587891 0)"/>
      <use xlink:href="#DejaVuSans-69" transform="translate(594.966797 0)"/>
      <use xlink:href="#DejaVuSans-67" transform="translate(622.75 0)"/>
      <use xlink:href="#DejaVuSans-68" transform="translate(686.226562 0)"/>
      <use xlink:href="#DejaVuSans-65" transform="translate(749.605469 0)"/>
      <use xlink:href="#DejaVuSans-73" transform="translate(811.128906 0)"/>
      <use xlink:href="#DejaVuSans-74" transform="translate(863.228516 0)"/>
      <use xlink:href="#DejaVuSans-29" transform="translate(902.4375 0)"/>
     </g>
    </g>
   </g>
   <g id="matplotlib.axis_2">
    <g id="ytick_1">
     <g id="line2d_13">
      <path d="M 45.478125 228.746938 
L 704.527916 228.746938 
" clip-path="url(#pd26dfc67a7)" style="fill: none; stroke-dasharray: 1.85,0.8; stroke-dashoffset: 0; stroke: #b0b0b0; stroke-opacity: 0.6; stroke-width: 0.5"/>
     </g>
     <g id="line2d_14">
      <defs>
       <path id="maf75a76467" d="M 0 0 
L -3.5 0 
" style="stroke: #000000; stroke-width: 0.8"/>
      </defs>
      <g>
       <use xlink:href="#maf75a76467" x="45.478125" y="228.746938" style="stroke: #000000; stroke-width: 0.8"/>
      </g>
     </g>
     <g id="text_8">
      <!-- $\mathdefault{10^{0}}$ -->
      <g transform="translate(20.878125 232.546157) scale(0.1 -0.1)">
       <use xlink:href="#DejaVuSans-31" transform="translate(0 0.765625)"/>
       <use xlink:href="#DejaVuSans-30" transform="translate(63.623047 0.765625)"/>
       <use xlink:href="#DejaVuSans-30" transform="translate(128.203125 39.046875) scale(0.7)"/>
      </g>
     </g>
    </g>
    <g id="ytick_2">
     <g id="line2d_15">
      <path d="M 45.478125 193.978591 
L 704.527916 193.978591 
" clip-path="url(#pd26dfc67a7)" style="fill: none; stroke-dasharray: 1.85,0.8; stroke-dashoffset: 0; stroke: #b0b0b0; stroke-opacity: 0.6; stroke-width: 0.5"/>
     </g>
     <g id="line2d_16">
      <g>
       <use xlink:href="#maf75a76467" x="45.478125" y="193.978591" style="stroke: #000000; stroke-width: 0.8"/>
      </g>
     </g>
     <g id="text_9">
      <!-- $\mathdefault{10^{1}}$ -->
      <g transform="translate(20.878125 197.77781) scale(0.1 -0.1)">
       <use xlink:href="#DejaVuSans-31" transform="translate(0 0.684375)"/>
       <use xlink:href="#DejaVuSans-30" transform="translate(63.623047 0.684375)"/>
       <use xlink:href="#DejaVuSans-31" transform="translate(128.203125 38.965625) scale(0.7)"/>
      </g>
     </g>
    </g>
    <g id="ytick_3">
     <g id="line2d_17">
      <path d="M 45.478125 159.210244 
L 704.527916 159.210244 
" clip-path="url(#pd26dfc67a7)" style="fill: none; stroke-dasharray: 1.85,0.8; stroke-dashoffset: 0; stroke: #b0b0b0; stroke-opacity: 0.6; stroke-width: 0.5"/>
     </g>
     <g id="line2d_18">
      <g>
       <use xlink:href="#maf75a76467" x="45.478125" y="159.210244" style="stroke: #000000; stroke-width: 0.8"/>
      </g>
     </g>
     <g id="text_10">
      <!-- $\mathdefault{10^{2}}$ -->
      <g transform="translate(20.878125 163.009463) scale(0.1 -0.1)">
       <use xlink:href="#DejaVuSans-31" transform="translate(0 0.765625)"/>
       <use xlink:href="#DejaVuSans-30" transform="translate(63.623047 0.765625)"/>
       <use xlink:href="#DejaVuSans-32" transform="translate(128.203125 39.046875) scale(0.7)"/>
      </g>
     </g>
    </g>
    <g id="ytick_4">
     <g id="line2d_19">
      <path d="M 45.478125 124.441897 
L 704.527916 124.441897 
" clip-path="url(#pd26dfc67a7)" style="fill: none; stroke-dasharray: 1.85,0.8; stroke-dashoffset: 0; stroke: #b0b0b0; stroke-opacity: 0.6; stroke-width: 0.5"/>
     </g>
     <g id="line2d_20">
      <g>
       <use xlink:href="#maf75a76467" x="45.478125" y="124.441897" style="stroke: #000000; stroke-width: 0.8"/>
      </g>
     </g>
     <g id="text_11">
      <!-- $\mathdefault{10^{3}}$ -->
      <g transform="translate(20.878125 128.241116) scale(0.1 -0.1)">
       <defs>
        <path id="DejaVuSans-33" d="M 2597 2516 
Q 3050 2419 3304 2112 
Q 3559 1806 3559 1356 
Q 3559 666 3084 287 
Q 2609 -91 1734 -91 
Q 1441 -91 1130 -33 
Q 819 25 488 141 
L 488 750 
Q 750 597 1062 519 
Q 1375 441 1716 441 
Q 2309 441 2620 675 
Q 2931 909 2931 1356 
Q 2931 1769 2642 2001 
Q 2353 2234 1838 2234 
L 1294 2234 
L 1294 2753 
L 1863 2753 
Q 2328 2753 2575 2939 
Q 2822 3125 2822 3475 
Q 2822 3834 2567 4026 
Q 2313 4219 1838 4219 
Q 1578 4219 1281 4162 
Q 984 4106 628 3988 
L 628 4550 
Q 988 4650 1302 4700 
Q 1616 4750 1894 4750 
Q 2613 4750 3031 4423 
Q 3450 4097 3450 3541 
Q 3450 3153 3228 2886 
Q 3006 2619 2597 2516 
z
" transform="scale(0.015625)"/>
       </defs>
       <use xlink:href="#DejaVuSans-31" transform="translate(0 0.765625)"/>
       <use xlink:href="#DejaVuSans-30" transform="translate(63.623047 0.765625)"/>
       <use xlink:href="#DejaVuSans-33" transform="translate(128.203125 39.046875) scale(0.7)"/>
      </g>
     </g>
    </g>
    <g id="ytick_5">
     <g id="line2d_21">
      <path d="M 45.478125 89.67355 
L 704.527916 89.67355 
" clip-path="url(#pd26dfc67a7)" style="fill: none; stroke-dasharray: 1.85,0.8; stroke-dashoffset: 0; stroke: #b0b0b0; stroke-opacity: 0.6; stroke-width: 0.5"/>
     </g>
     <g id="line2d_22">
      <g>
       <use xlink:href="#maf75a76467" x="45.478125" y="89.67355" style="stroke: #000000; stroke-width: 0.8"/>
      </g>
     </g>
     <g id="text_12">
      <!-- $\mathdefault{10^{4}}$ -->
      <g transform="translate(20.878125 93.472769) scale(0.1 -0.1)">
       <defs>
        <path id="DejaVuSans-34" d="M 2419 4116 
L 825 1625 
L 2419 1625 
L 2419 4116 
z
M 2253 4666 
L 3047 4666 
L 3047 1625 
L 3713 1625 
L 3713 1100 
L 3047 1100 
L 3047 0 
L 2419 0 
L 2419 1100 
L 313 1100 
L 313 1709 
L 2253 4666 
z
" transform="scale(0.015625)"/>
       </defs>
       <use xlink:href="#DejaVuSans-31" transform="translate(0 0.684375)"/>
       <use xlink:href="#DejaVuSans-30" transform="translate(63.623047 0.684375)"/>
       <use xlink:href="#DejaVuSans-34" transform="translate(128.203125 38.965625) scale(0.7)"/>
      </g>
     </g>
    </g>
    <g id="ytick_6">
     <g id="line2d_23">
      <path d="M 45.478125 54.905204 
L 704.527916 54.905204 
" clip-path="url(#pd26dfc67a7)" style="fill: none; stroke-dasharray: 1.85,0.8; stroke-dashoffset: 0; stroke: #b0b0b0; stroke-opacity: 0.6; stroke-width: 0.5"/>
     </g>
     <g id="line2d_24">
      <g>
       <use xlink:href="#maf75a76467" x="45.478125" y="54.905204" style="stroke: #000000; stroke-width: 0.8"/>
      </g>
     </g>
     <g id="text_13">
      <!-- $\mathdefault{10^{5}}$ -->
      <g transform="translate(20.878125 58.704422) scale(0.1 -0.1)">
       <use xlink:href="#DejaVuSans-31" transform="translate(0 0.684375)"/>
       <use xlink:href="#DejaVuSans-30" transform="translate(63.623047 0.684375)"/>
       <use xlink:href="#DejaVuSans-35" transform="translate(128.203125 38.965625) scale(0.7)"/>
      </g>
     </g>
    </g>
    <g id="ytick_7">
     <g id="line2d_25">
      <path d="M 45.478125 242.582654 
L 704.527916 242.582654 
" clip-path="url(#pd26dfc67a7)" style="fill: none; stroke-dasharray: 1.85,0.8; stroke-dashoffset: 0; stroke: #b0b0b0; stroke-opacity: 0.6; stroke-width: 0.5"/>
     </g>
     <g id="line2d_26">
      <defs>
       <path id="m9eb4f82fe5" d="M 0 0 
L -2 0 
" style="stroke: #000000; stroke-width: 0.6"/>
      </defs>
      <g>
       <use xlink:href="#m9eb4f82fe5" x="45.478125" y="242.582654" style="stroke: #000000; stroke-width: 0.6"/>
      </g>
     </g>
    </g>
    <g id="ytick_8">
     <g id="line2d_27">
      <path d="M 45.478125 239.213253 
L 704.527916 239.213253 
" clip-path="url(#pd26dfc67a7)" style="fill: none; stroke-dasharray: 1.85,0.8; stroke-dashoffset: 0; stroke: #b0b0b0; stroke-opacity: 0.6; stroke-width: 0.5"/>
     </g>
     <g id="line2d_28">
      <g>
       <use xlink:href="#m9eb4f82fe5" x="45.478125" y="239.213253" style="stroke: #000000; stroke-width: 0.6"/>
      </g>
     </g>
    </g>
    <g id="ytick_9">
     <g id="line2d_29">
      <path d="M 45.478125 236.460252 
L 704.527916 236.460252 
" clip-path="url(#pd26dfc67a7)" style="fill: none; stroke-dasharray: 1.85,0.8; stroke-dashoffset: 0; stroke: #b0b0b0; stroke-opacity: 0.6; stroke-width: 0.5"/>
     </g>
     <g id="line2d_30">
      <g>
       <use xlink:href="#m9eb4f82fe5" x="45.478125" y="236.460252" style="stroke: #000000; stroke-width: 0.6"/>
      </g>
     </g>
    </g>
    <g id="ytick_10">
     <g id="line2d_31">
      <path d="M 45.478125 234.132623 
L 704.527916 234.132623 
" clip-path="url(#pd26dfc67a7)" style="fill: none; stroke-dasharray: 1.85,0.8; stroke-dashoffset: 0; stroke: #b0b0b0; stroke-opacity: 0.6; stroke-width: 0.5"/>
     </g>
     <g id="line2d_32">
      <g>
       <use xlink:href="#m9eb4f82fe5" x="45.478125" y="234.132623" style="stroke: #000000; stroke-width: 0.6"/>
      </g>
     </g>
    </g>
    <g id="ytick_11">
     <g id="line2d_33">
      <path d="M 45.478125 232.116339 
L 704.527916 232.116339 
" clip-path="url(#pd26dfc67a7)" style="fill: none; stroke-dasharray: 1.85,0.8; stroke-dashoffset: 0; stroke: #b0b0b0; stroke-opacity: 0.6; stroke-width: 0.5"/>
     </g>
     <g id="line2d_34">
      <g>
       <use xlink:href="#m9eb4f82fe5" x="45.478125" y="232.116339" style="stroke: #000000; stroke-width: 0.6"/>
      </g>
     </g>
    </g>
    <g id="ytick_12">
     <g id="line2d_35">
      <path d="M 45.478125 230.33785 
L 704.527916 230.33785 
" clip-path="url(#pd26dfc67a7)" style="fill: none; stroke-dasharray: 1.85,0.8; stroke-dashoffset: 0; stroke: #b0b0b0; stroke-opacity: 0.6; stroke-width: 0.5"/>
     </g>
     <g id="line2d_36">
      <g>
       <use xlink:href="#m9eb4f82fe5" x="45.478125" y="230.33785" style="stroke: #000000; stroke-width: 0.6"/>
      </g>
     </g>
    </g>
    <g id="ytick_13">
     <g id="line2d_37">
      <path d="M 45.478125 218.280623 
L 704.527916 218.280623 
" clip-path="url(#pd26dfc67a7)" style="fill: none; stroke-dasharray: 1.85,0.8; stroke-dashoffset: 0; stroke: #b0b0b0; stroke-opacity: 0.6; stroke-width: 0.5"/>
     </g>
     <g id="line2d_38">
      <g>
       <use xlink:href="#m9eb4f82fe5" x="45.478125" y="218.280623" style="stroke: #000000; stroke-width: 0.6"/>
      </g>
     </g>
    </g>
    <g id="ytick_14">
     <g id="line2d_39">
      <path d="M 45.478125 212.158221 
L 704.527916 212.158221 
" clip-path="url(#pd26dfc67a7)" style="fill: none; stroke-dasharray: 1.85,0.8; stroke-dashoffset: 0; stroke: #b0b0b0; stroke-opacity: 0.6; stroke-width: 0.5"/>
     </g>
     <g id="line2d_40">
      <g>
       <use xlink:href="#m9eb4f82fe5" x="45.478125" y="212.158221" style="stroke: #000000; stroke-width: 0.6"/>
      </g>
     </g>
    </g>
    <g id="ytick_15">
     <g id="line2d_41">
      <path d="M 45.478125 207.814307 
L 704.527916 207.814307 
" clip-path="url(#pd26dfc67a7)" style="fill: none; stroke-dasharray: 1.85,0.8; stroke-dashoffset: 0; stroke: #b0b0b0; stroke-opacity: 0.6; stroke-width: 0.5"/>
     </g>
     <g id="line2d_42">
      <g>
       <use xlink:href="#m9eb4f82fe5" x="45.478125" y="207.814307" style="stroke: #000000; stroke-width: 0.6"/>
      </g>
     </g>
    </g>
    <g id="ytick_16">
     <g id="line2d_43">
      <path d="M 45.478125 204.444906 
L 704.527916 204.444906 
" clip-path="url(#pd26dfc67a7)" style="fill: none; stroke-dasharray: 1.85,0.8; stroke-dashoffset: 0; stroke: #b0b0b0; stroke-opacity: 0.6; stroke-width: 0.5"/>
     </g>
     <g id="line2d_44">
      <g>
       <use xlink:href="#m9eb4f82fe5" x="45.478125" y="204.444906" style="stroke: #000000; stroke-width: 0.6"/>
      </g>
     </g>
    </g>
    <g id="ytick_17">
     <g id="line2d_45">
      <path d="M 45.478125 201.691905 
L 704.527916 201.691905 
" clip-path="url(#pd26dfc67a7)" style="fill: none; stroke-dasharray: 1.85,0.8; stroke-dashoffset: 0; stroke: #b0b0b0; stroke-opacity: 0.6; stroke-width: 0.5"/>
     </g>
     <g id="line2d_46">
      <g>
       <use xlink:href="#m9eb4f82fe5" x="45.478125" y="201.691905" style="stroke: #000000; stroke-width: 0.6"/>
      </g>
     </g>
    </g>
    <g id="ytick_18">
     <g id="line2d_47">
      <path d="M 45.478125 199.364276 
L 704.527916 199.364276 
" clip-path="url(#pd26dfc67a7)" style="fill: none; stroke-dasharray: 1.85,0.8; stroke-dashoffset: 0; stroke: #b0b0b0; stroke-opacity: 0.6; stroke-width: 0.5"/>
     </g>
     <g id="line2d_48">
      <g>
       <use xlink:href="#m9eb4f82fe5" x="45.478125" y="199.364276" style="stroke: #000000; stroke-width: 0.6"/>
      </g>
     </g>
    </g>
    <g id="ytick_19">
     <g id="line2d_49">
      <path d="M 45.478125 197.347992 
L 704.527916 197.347992 
" clip-path="url(#pd26dfc67a7)" style="fill: none; stroke-dasharray: 1.85,0.8; stroke-dashoffset: 0; stroke: #b0b0b0; stroke-opacity: 0.6; stroke-width: 0.5"/>
     </g>
     <g id="line2d_50">
      <g>
       <use xlink:href="#m9eb4f82fe5" x="45.478125" y="197.347992" style="stroke: #000000; stroke-width: 0.6"/>
      </g>
     </g>
    </g>
    <g id="ytick_20">
     <g id="line2d_51">
      <path d="M 45.478125 195.569503 
L 704.527916 195.569503 
" clip-path="url(#pd26dfc67a7)" style="fill: none; stroke-dasharray: 1.85,0.8; stroke-dashoffset: 0; stroke: #b0b0b0; stroke-opacity: 0.6; stroke-width: 0.5"/>
     </g>
     <g id="line2d_52">
      <g>
       <use xlink:href="#m9eb4f82fe5" x="45.478125" y="195.569503" style="stroke: #000000; stroke-width: 0.6"/>
      </g>
     </g>
    </g>
    <g id="ytick_21">
     <g id="line2d_53">
      <path d="M 45.478125 183.512276 
L 704.527916 183.512276 
" clip-path="url(#pd26dfc67a7)" style="fill: none; stroke-dasharray: 1.85,0.8; stroke-dashoffset: 0; stroke: #b0b0b0; stroke-opacity: 0.6; stroke-width: 0.5"/>
     </g>
     <g id="line2d_54">
      <g>
       <use xlink:href="#m9eb4f82fe5" x="45.478125" y="183.512276" style="stroke: #000000; stroke-width: 0.6"/>
      </g>
     </g>
    </g>
    <g id="ytick_22">
     <g id="line2d_55">
      <path d="M 45.478125 177.389874 
L 704.527916 177.389874 
" clip-path="url(#pd26dfc67a7)" style="fill: none; stroke-dasharray: 1.85,0.8; stroke-dashoffset: 0; stroke: #b0b0b0; stroke-opacity: 0.6; stroke-width: 0.5"/>
     </g>
     <g id="line2d_56">
      <g>
       <use xlink:href="#m9eb4f82fe5" x="45.478125" y="177.389874" style="stroke: #000000; stroke-width: 0.6"/>
      </g>
     </g>
    </g>
    <g id="ytick_23">
     <g id="line2d_57">
      <path d="M 45.478125 173.04596 
L 704.527916 173.04596 
" clip-path="url(#pd26dfc67a7)" style="fill: none; stroke-dasharray: 1.85,0.8; stroke-dashoffset: 0; stroke: #b0b0b0; stroke-opacity: 0.6; stroke-width: 0.5"/>
     </g>
     <g id="line2d_58">
      <g>
       <use xlink:href="#m9eb4f82fe5" x="45.478125" y="173.04596" style="stroke: #000000; stroke-width: 0.6"/>
      </g>
     </g>
    </g>
    <g id="ytick_24">
     <g id="line2d_59">
      <path d="M 45.478125 169.676559 
L 704.527916 169.676559 
" clip-path="url(#pd26dfc67a7)" style="fill: none; stroke-dasharray: 1.85,0.8; stroke-dashoffset: 0; stroke: #b0b0b0; stroke-opacity: 0.6; stroke-width: 0.5"/>
     </g>
     <g id="line2d_60">
      <g>
       <use xlink:href="#m9eb4f82fe5" x="45.478125" y="169.676559" style="stroke: #000000; stroke-width: 0.6"/>
      </g>
     </g>
    </g>
    <g id="ytick_25">
     <g id="line2d_61">
      <path d="M 45.478125 166.923558 
L 704.527916 166.923558 
" clip-path="url(#pd26dfc67a7)" style="fill: none; stroke-dasharray: 1.85,0.8; stroke-dashoffset: 0; stroke: #b0b0b0; stroke-opacity: 0.6; stroke-width: 0.5"/>
     </g>
     <g id="line2d_62">
      <g>
       <use xlink:href="#m9eb4f82fe5" x="45.478125" y="166.923558" style="stroke: #000000; stroke-width: 0.6"/>
      </g>
     </g>
    </g>
    <g id="ytick_26">
     <g id="line2d_63">
      <path d="M 45.478125 164.595929 
L 704.527916 164.595929 
" clip-path="url(#pd26dfc67a7)" style="fill: none; stroke-dasharray: 1.85,0.8; stroke-dashoffset: 0; stroke: #b0b0b0; stroke-opacity: 0.6; stroke-width: 0.5"/>
     </g>
     <g id="line2d_64">
      <g>
       <use xlink:href="#m9eb4f82fe5" x="45.478125" y="164.595929" style="stroke: #000000; stroke-width: 0.6"/>
      </g>
     </g>
    </g>
    <g id="ytick_27">
     <g id="line2d_65">
      <path d="M 45.478125 162.579645 
L 704.527916 162.579645 
" clip-path="url(#pd26dfc67a7)" style="fill: none; stroke-dasharray: 1.85,0.8; stroke-dashoffset: 0; stroke: #b0b0b0; stroke-opacity: 0.6; stroke-width: 0.5"/>
     </g>
     <g id="line2d_66">
      <g>
       <use xlink:href="#m9eb4f82fe5" x="45.478125" y="162.579645" style="stroke: #000000; stroke-width: 0.6"/>
      </g>
     </g>
    </g>
    <g id="ytick_28">
     <g id="line2d_67">
      <path d="M 45.478125 160.801156 
L 704.527916 160.801156 
" clip-path="url(#pd26dfc67a7)" style="fill: none; stroke-dasharray: 1.85,0.8; stroke-dashoffset: 0; stroke: #b0b0b0; stroke-opacity: 0.6; stroke-width: 0.5"/>
     </g>
     <g id="line2d_68">
      <g>
       <use xlink:href="#m9eb4f82fe5" x="45.478125" y="160.801156" style="stroke: #000000; stroke-width: 0.6"/>
      </g>
     </g>
    </g>
    <g id="ytick_29">
     <g id="line2d_69">
      <path d="M 45.478125 148.743929 
L 704.527916 148.743929 
" clip-path="url(#pd26dfc67a7)" style="fill: none; stroke-dasharray: 1.85,0.8; stroke-dashoffset: 0; stroke: #b0b0b0; stroke-opacity: 0.6; stroke-width: 0.5"/>
     </g>
     <g id="line2d_70">
      <g>
       <use xlink:href="#m9eb4f82fe5" x="45.478125" y="148.743929" style="stroke: #000000; stroke-width: 0.6"/>
      </g>
     </g>
    </g>
    <g id="ytick_30">
     <g id="line2d_71">
      <path d="M 45.478125 142.621527 
L 704.527916 142.621527 
" clip-path="url(#pd26dfc67a7)" style="fill: none; stroke-dasharray: 1.85,0.8; stroke-dashoffset: 0; stroke: #b0b0b0; stroke-opacity: 0.6; stroke-width: 0.5"/>
     </g>
     <g id="line2d_72">
      <g>
       <use xlink:href="#m9eb4f82fe5" x="45.478125" y="142.621527" style="stroke: #000000; stroke-width: 0.6"/>
      </g>
     </g>
    </g>
    <g id="ytick_31">
     <g id="line2d_73">
      <path d="M 45.478125 138.277614 
L 704.527916 138.277614 
" clip-path="url(#pd26dfc67a7)" style="fill: none; stroke-dasharray: 1.85,0.8; stroke-dashoffset: 0; stroke: #b0b0b0; stroke-opacity: 0.6; stroke-width: 0.5"/>
     </g>
     <g id="line2d_74">
      <g>
       <use xlink:href="#m9eb4f82fe5" x="45.478125" y="138.277614" style="stroke: #000000; stroke-width: 0.6"/>
      </g>
     </g>
    </g>
    <g id="ytick_32">
     <g id="line2d_75">
      <path d="M 45.478125 134.908213 
L 704.527916 134.908213 
" clip-path="url(#pd26dfc67a7)" style="fill: none; stroke-dasharray: 1.85,0.8; stroke-dashoffset: 0; stroke: #b0b0b0; stroke-opacity: 0.6; stroke-width: 0.5"/>
     </g>
     <g id="line2d_76">
      <g>
       <use xlink:href="#m9eb4f82fe5" x="45.478125" y="134.908213" style="stroke: #000000; stroke-width: 0.6"/>
      </g>
     </g>
    </g>
    <g id="ytick_33">
     <g id="line2d_77">
      <path d="M 45.478125 132.155212 
L 704.527916 132.155212 
" clip-path="url(#pd26dfc67a7)" style="fill: none; stroke-dasharray: 1.85,0.8; stroke-dashoffset: 0; stroke: #b0b0b0; stroke-opacity: 0.6; stroke-width: 0.5"/>
     </g>
     <g id="line2d_78">
      <g>
       <use xlink:href="#m9eb4f82fe5" x="45.478125" y="132.155212" style="stroke: #000000; stroke-width: 0.6"/>
      </g>
     </g>
    </g>
    <g id="ytick_34">
     <g id="line2d_79">
      <path d="M 45.478125 129.827582 
L 704.527916 129.827582 
" clip-path="url(#pd26dfc67a7)" style="fill: none; stroke-dasharray: 1.85,0.8; stroke-dashoffset: 0; stroke: #b0b0b0; stroke-opacity: 0.6; stroke-width: 0.5"/>
     </g>
     <g id="line2d_80">
      <g>
       <use xlink:href="#m9eb4f82fe5" x="45.478125" y="129.827582" style="stroke: #000000; stroke-width: 0.6"/>
      </g>
     </g>
    </g>
    <g id="ytick_35">
     <g id="line2d_81">
      <path d="M 45.478125 127.811298 
L 704.527916 127.811298 
" clip-path="url(#pd26dfc67a7)" style="fill: none; stroke-dasharray: 1.85,0.8; stroke-dashoffset: 0; stroke: #b0b0b0; stroke-opacity: 0.6; stroke-width: 0.5"/>
     </g>
     <g id="line2d_82">
      <g>
       <use xlink:href="#m9eb4f82fe5" x="45.478125" y="127.811298" style="stroke: #000000; stroke-width: 0.6"/>
      </g>
     </g>
    </g>
    <g id="ytick_36">
     <g id="line2d_83">
      <path d="M 45.478125 126.03281 
L 704.527916 126.03281 
" clip-path="url(#pd26dfc67a7)" style="fill: none; stroke-dasharray: 1.85,0.8; stroke-dashoffset: 0; stroke: #b0b0b0; stroke-opacity: 0.6; stroke-width: 0.5"/>
     </g>
     <g id="line2d_84">
      <g>
       <use xlink:href="#m9eb4f82fe5" x="45.478125" y="126.03281" style="stroke: #000000; stroke-width: 0.6"/>
      </g>
     </g>
    </g>
    <g id="ytick_37">
     <g id="line2d_85">
      <path d="M 45.478125 113.975582 
L 704.527916 113.975582 
" clip-path="url(#pd26dfc67a7)" style="fill: none; stroke-dasharray: 1.85,0.8; stroke-dashoffset: 0; stroke: #b0b0b0; stroke-opacity: 0.6; stroke-width: 0.5"/>
     </g>
     <g id="line2d_86">
      <g>
       <use xlink:href="#m9eb4f82fe5" x="45.478125" y="113.975582" style="stroke: #000000; stroke-width: 0.6"/>
      </g>
     </g>
    </g>
    <g id="ytick_38">
     <g id="line2d_87">
      <path d="M 45.478125 107.85318 
L 704.527916 107.85318 
" clip-path="url(#pd26dfc67a7)" style="fill: none; stroke-dasharray: 1.85,0.8; stroke-dashoffset: 0; stroke: #b0b0b0; stroke-opacity: 0.6; stroke-width: 0.5"/>
     </g>
     <g id="line2d_88">
      <g>
       <use xlink:href="#m9eb4f82fe5" x="45.478125" y="107.85318" style="stroke: #000000; stroke-width: 0.6"/>
      </g>
     </g>
    </g>
    <g id="ytick_39">
     <g id="line2d_89">
      <path d="M 45.478125 103.509267 
L 704.527916 103.509267 
" clip-path="url(#pd26dfc67a7)" style="fill: none; stroke-dasharray: 1.85,0.8; stroke-dashoffset: 0; stroke: #b0b0b0; stroke-opacity: 0.6; stroke-width: 0.5"/>
     </g>
     <g id="line2d_90">
      <g>
       <use xlink:href="#m9eb4f82fe5" x="45.478125" y="103.509267" style="stroke: #000000; stroke-width: 0.6"/>
      </g>
     </g>
    </g>
    <g id="ytick_40">
     <g id="line2d_91">
      <path d="M 45.478125 100.139866 
L 704.527916 100.139866 
" clip-path="url(#pd26dfc67a7)" style="fill: none; stroke-dasharray: 1.85,0.8; stroke-dashoffset: 0; stroke: #b0b0b0; stroke-opacity: 0.6; stroke-width: 0.5"/>
     </g>
     <g id="line2d_92">
      <g>
       <use xlink:href="#m9eb4f82fe5" x="45.478125" y="100.139866" style="stroke: #000000; stroke-width: 0.6"/>
      </g>
     </g>
    </g>
    <g id="ytick_41">
     <g id="line2d_93">
      <path d="M 45.478125 97.386865 
L 704.527916 97.386865 
" clip-path="url(#pd26dfc67a7)" style="fill: none; stroke-dasharray: 1.85,0.8; stroke-dashoffset: 0; stroke: #b0b0b0; stroke-opacity: 0.6; stroke-width: 0.5"/>
     </g>
     <g id="line2d_94">
      <g>
       <use xlink:href="#m9eb4f82fe5" x="45.478125" y="97.386865" style="stroke: #000000; stroke-width: 0.6"/>
      </g>
     </g>
    </g>
    <g id="ytick_42">
     <g id="line2d_95">
      <path d="M 45.478125 95.059236 
L 704.527916 95.059236 
" clip-path="url(#pd26dfc67a7)" style="fill: none; stroke-dasharray: 1.85,0.8; stroke-dashoffset: 0; stroke: #b0b0b0; stroke-opacity: 0.6; stroke-width: 0.5"/>
     </g>
     <g id="line2d_96">
      <g>
       <use xlink:href="#m9eb4f82fe5" x="45.478125" y="95.059236" style="stroke: #000000; stroke-width: 0.6"/>
      </g>
     </g>
    </g>
    <g id="ytick_43">
     <g id="line2d_97">
      <path d="M 45.478125 93.042951 
L 704.527916 93.042951 
" clip-path="url(#pd26dfc67a7)" style="fill: none; stroke-dasharray: 1.85,0.8; stroke-dashoffset: 0; stroke: #b0b0b0; stroke-opacity: 0.6; stroke-width: 0.5"/>
     </g>
     <g id="line2d_98">
      <g>
       <use xlink:href="#m9eb4f82fe5" x="45.478125" y="93.042951" style="stroke: #000000; stroke-width: 0.6"/>
      </g>
     </g>
    </g>
    <g id="ytick_44">
     <g id="line2d_99">
      <path d="M 45.478125 91.264463 
L 704.527916 91.264463 
" clip-path="url(#pd26dfc67a7)" style="fill: none; stroke-dasharray: 1.85,0.8; stroke-dashoffset: 0; stroke: #b0b0b0; stroke-opacity: 0.6; stroke-width: 0.5"/>
     </g>
     <g id="line2d_100">
      <g>
       <use xlink:href="#m9eb4f82fe5" x="45.478125" y="91.264463" style="stroke: #000000; stroke-width: 0.6"/>
      </g>
     </g>
    </g>
    <g id="ytick_45">
     <g id="line2d_101">
      <path d="M 45.478125 79.207235 
L 704.527916 79.207235 
" clip-path="url(#pd26dfc67a7)" style="fill: none; stroke-dasharray: 1.85,0.8; stroke-dashoffset: 0; stroke: #b0b0b0; stroke-opacity: 0.6; stroke-width: 0.5"/>
     </g>
     <g id="line2d_102">
      <g>
       <use xlink:href="#m9eb4f82fe5" x="45.478125" y="79.207235" style="stroke: #000000; stroke-width: 0.6"/>
      </g>
     </g>
    </g>
    <g id="ytick_46">
     <g id="line2d_103">
      <path d="M 45.478125 73.084833 
L 704.527916 73.084833 
" clip-path="url(#pd26dfc67a7)" style="fill: none; stroke-dasharray: 1.85,0.8; stroke-dashoffset: 0; stroke: #b0b0b0; stroke-opacity: 0.6; stroke-width: 0.5"/>
     </g>
     <g id="line2d_104">
      <g>
       <use xlink:href="#m9eb4f82fe5" x="45.478125" y="73.084833" style="stroke: #000000; stroke-width: 0.6"/>
      </g>
     </g>
    </g>
    <g id="ytick_47">
     <g id="line2d_105">
      <path d="M 45.478125 68.74092 
L 704.527916 68.74092 
" clip-path="url(#pd26dfc67a7)" style="fill: none; stroke-dasharray: 1.85,0.8; stroke-dashoffset: 0; stroke: #b0b0b0; stroke-opacity: 0.6; stroke-width: 0.5"/>
     </g>
     <g id="line2d_106">
      <g>
       <use xlink:href="#m9eb4f82fe5" x="45.478125" y="68.74092" style="stroke: #000000; stroke-width: 0.6"/>
      </g>
     </g>
    </g>
    <g id="ytick_48">
     <g id="line2d_107">
      <path d="M 45.478125 65.371519 
L 704.527916 65.371519 
" clip-path="url(#pd26dfc67a7)" style="fill: none; stroke-dasharray: 1.85,0.8; stroke-dashoffset: 0; stroke: #b0b0b0; stroke-opacity: 0.6; stroke-width: 0.5"/>
     </g>
     <g id="line2d_108">
      <g>
       <use xlink:href="#m9eb4f82fe5" x="45.478125" y="65.371519" style="stroke: #000000; stroke-width: 0.6"/>
      </g>
     </g>
    </g>
    <g id="ytick_49">
     <g id="line2d_109">
      <path d="M 45.478125 62.618518 
L 704.527916 62.618518 
" clip-path="url(#pd26dfc67a7)" style="fill: none; stroke-dasharray: 1.85,0.8; stroke-dashoffset: 0; stroke: #b0b0b0; stroke-opacity: 0.6; stroke-width: 0.5"/>
     </g>
     <g id="line2d_110">
      <g>
       <use xlink:href="#m9eb4f82fe5" x="45.478125" y="62.618518" style="stroke: #000000; stroke-width: 0.6"/>
      </g>
     </g>
    </g>
    <g id="ytick_50">
     <g id="line2d_111">
      <path d="M 45.478125 60.290889 
L 704.527916 60.290889 
" clip-path="url(#pd26dfc67a7)" style="fill: none; stroke-dasharray: 1.85,0.8; stroke-dashoffset: 0; stroke: #b0b0b0; stroke-opacity: 0.6; stroke-width: 0.5"/>
     </g>
     <g id="line2d_112">
      <g>
       <use xlink:href="#m9eb4f82fe5" x="45.478125" y="60.290889" style="stroke: #000000; stroke-width: 0.6"/>
      </g>
     </g>
    </g>
    <g id="ytick_51">
     <g id="line2d_113">
      <path d="M 45.478125 58.274605 
L 704.527916 58.274605 
" clip-path="url(#pd26dfc67a7)" style="fill: none; stroke-dasharray: 1.85,0.8; stroke-dashoffset: 0; stroke: #b0b0b0; stroke-opacity: 0.6; stroke-width: 0.5"/>
     </g>
     <g id="line2d_114">
      <g>
       <use xlink:href="#m9eb4f82fe5" x="45.478125" y="58.274605" style="stroke: #000000; stroke-width: 0.6"/>
      </g>
     </g>
    </g>
    <g id="ytick_52">
     <g id="line2d_115">
      <path d="M 45.478125 56.496116 
L 704.527916 56.496116 
" clip-path="url(#pd26dfc67a7)" style="fill: none; stroke-dasharray: 1.85,0.8; stroke-dashoffset: 0; stroke: #b0b0b0; stroke-opacity: 0.6; stroke-width: 0.5"/>
     </g>
     <g id="line2d_116">
      <g>
       <use xlink:href="#m9eb4f82fe5" x="45.478125" y="56.496116" style="stroke: #000000; stroke-width: 0.6"/>
      </g>
     </g>
    </g>
    <g id="ytick_53">
     <g id="line2d_117">
      <path d="M 45.478125 44.438888 
L 704.527916 44.438888 
" clip-path="url(#pd26dfc67a7)" style="fill: none; stroke-dasharray: 1.85,0.8; stroke-dashoffset: 0; stroke: #b0b0b0; stroke-opacity: 0.6; stroke-width: 0.5"/>
     </g>
     <g id="line2d_118">
      <g>
       <use xlink:href="#m9eb4f82fe5" x="45.478125" y="44.438888" style="stroke: #000000; stroke-width: 0.6"/>
      </g>
     </g>
    </g>
    <g id="ytick_54">
     <g id="line2d_119">
      <path d="M 45.478125 38.316486 
L 704.527916 38.316486 
" clip-path="url(#pd26dfc67a7)" style="fill: none; stroke-dasharray: 1.85,0.8; stroke-dashoffset: 0; stroke: #b0b0b0; stroke-opacity: 0.6; stroke-width: 0.5"/>
     </g>
     <g id="line2d_120">
      <g>
       <use xlink:href="#m9eb4f82fe5" x="45.478125" y="38.316486" style="stroke: #000000; stroke-width: 0.6"/>
      </g>
     </g>
    </g>
    <g id="ytick_55">
     <g id="line2d_121">
      <path d="M 45.478125 33.972573 
L 704.527916 33.972573 
" clip-path="url(#pd26dfc67a7)" style="fill: none; stroke-dasharray: 1.85,0.8; stroke-dashoffset: 0; stroke: #b0b0b0; stroke-opacity: 0.6; stroke-width: 0.5"/>
     </g>
     <g id="line2d_122">
      <g>
       <use xlink:href="#m9eb4f82fe5" x="45.478125" y="33.972573" style="stroke: #000000; stroke-width: 0.6"/>
      </g>
     </g>
    </g>
    <g id="ytick_56">
     <g id="line2d_123">
      <path d="M 45.478125 30.603172 
L 704.527916 30.603172 
" clip-path="url(#pd26dfc67a7)" style="fill: none; stroke-dasharray: 1.85,0.8; stroke-dashoffset: 0; stroke: #b0b0b0; stroke-opacity: 0.6; stroke-width: 0.5"/>
     </g>
     <g id="line2d_124">
      <g>
       <use xlink:href="#m9eb4f82fe5" x="45.478125" y="30.603172" style="stroke: #000000; stroke-width: 0.6"/>
      </g>
     </g>
    </g>
    <g id="ytick_57">
     <g id="line2d_125">
      <path d="M 45.478125 27.850171 
L 704.527916 27.850171 
" clip-path="url(#pd26dfc67a7)" style="fill: none; stroke-dasharray: 1.85,0.8; stroke-dashoffset: 0; stroke: #b0b0b0; stroke-opacity: 0.6; stroke-width: 0.5"/>
     </g>
     <g id="line2d_126">
      <g>
       <use xlink:href="#m9eb4f82fe5" x="45.478125" y="27.850171" style="stroke: #000000; stroke-width: 0.6"/>
      </g>
     </g>
    </g>
    <g id="ytick_58">
     <g id="line2d_127">
      <path d="M 45.478125 25.522542 
L 704.527916 25.522542 
" clip-path="url(#pd26dfc67a7)" style="fill: none; stroke-dasharray: 1.85,0.8; stroke-dashoffset: 0; stroke: #b0b0b0; stroke-opacity: 0.6; stroke-width: 0.5"/>
     </g>
     <g id="line2d_128">
      <g>
       <use xlink:href="#m9eb4f82fe5" x="45.478125" y="25.522542" style="stroke: #000000; stroke-width: 0.6"/>
      </g>
     </g>
    </g>
    <g id="ytick_59">
     <g id="line2d_129">
      <path d="M 45.478125 23.506258 
L 704.527916 23.506258 
" clip-path="url(#pd26dfc67a7)" style="fill: none; stroke-dasharray: 1.85,0.8; stroke-dashoffset: 0; stroke: #b0b0b0; stroke-opacity: 0.6; stroke-width: 0.5"/>
     </g>
     <g id="line2d_130">
      <g>
       <use xlink:href="#m9eb4f82fe5" x="45.478125" y="23.506258" style="stroke: #000000; stroke-width: 0.6"/>
      </g>
     </g>
    </g>
    <g id="text_14">
     <!-- Value (log) -->
     <g transform="translate(14.798438 159.462656) rotate(-90) scale(0.1 -0.1)">
      <defs>
       <path id="DejaVuSans-56" d="M 1831 0 
L 50 4666 
L 709 4666 
L 2188 738 
L 3669 4666 
L 4325 4666 
L 2547 0 
L 1831 0 
z
" transform="scale(0.015625)"/>
       <path id="DejaVuSans-6c" d="M 603 4863 
L 1178 4863 
L 1178 0 
L 603 0 
L 603 4863 
z
" transform="scale(0.015625)"/>
       <path id="DejaVuSans-75" d="M 544 1381 
L 544 3500 
L 1119 3500 
L 1119 1403 
Q 1119 906 1312 657 
Q 1506 409 1894 409 
Q 2359 409 2629 706 
Q 2900 1003 2900 1516 
L 2900 3500 
L 3475 3500 
L 3475 0 
L 2900 0 
L 2900 538 
Q 2691 219 2414 64 
Q 2138 -91 1772 -91 
Q 1169 -91 856 284 
Q 544 659 544 1381 
z
M 1991 3584 
L 1991 3584 
z
" transform="scale(0.015625)"/>
       <path id="DejaVuSans-6f" d="M 1959 3097 
Q 1497 3097 1228 2736 
Q 959 2375 959 1747 
Q 959 1119 1226 758 
Q 1494 397 1959 397 
Q 2419 397 2687 759 
Q 2956 1122 2956 1747 
Q 2956 2369 2687 2733 
Q 2419 3097 1959 3097 
z
M 1959 3584 
Q 2709 3584 3137 3096 
Q 3566 2609 3566 1747 
Q 3566 888 3137 398 
Q 2709 -91 1959 -91 
Q 1206 -91 779 398 
Q 353 888 353 1747 
Q 353 2609 779 3096 
Q 1206 3584 1959 3584 
z
" transform="scale(0.015625)"/>
      </defs>
      <use xlink:href="#DejaVuSans-56"/>
      <use xlink:href="#DejaVuSans-61" transform="translate(60.658203 0)"/>
      <use xlink:href="#DejaVuSans-6c" transform="translate(121.9375 0)"/>
      <use xlink:href="#DejaVuSans-75" transform="translate(149.720703 0)"/>
      <use xlink:href="#DejaVuSans-65" transform="translate(213.099609 0)"/>
      <use xlink:href="#DejaVuSans-20" transform="translate(274.623047 0)"/>
      <use xlink:href="#DejaVuSans-28" transform="translate(306.410156 0)"/>
      <use xlink:href="#DejaVuSans-6c" transform="translate(345.423828 0)"/>
      <use xlink:href="#DejaVuSans-6f" transform="translate(373.207031 0)"/>
      <use xlink:href="#DejaVuSans-67" transform="translate(434.388672 0)"/>
      <use xlink:href="#DejaVuSans-29" transform="translate(497.865234 0)"/>
     </g>
    </g>
   </g>
   <g id="line2d_131">
    <path d="M 75.434934 83.28276 
L 75.918498 84.839758 
L 76.16028 86.754115 
L 76.402062 89.826833 
L 76.643844 90.893249 
L 76.885627 98.045267 
L 77.610973 102.672219 
L 77.852755 102.718718 
L 78.578102 104.439551 
L 78.819884 105.672951 
L 79.061666 105.751572 
L 79.303448 106.501214 
L 79.54523 106.677117 
L 79.787012 107.69795 
L 80.270577 107.858214 
L 80.512359 108.46958 
L 80.754141 108.728695 
L 80.995923 108.739366 
L 81.479487 109.967571 
L 81.72127 110.031393 
L 82.446616 111.053658 
L 82.688398 111.832429 
L 82.93018 111.884927 
L 83.171963 112.096763 
L 83.413745 112.729838 
L 83.655527 112.87654 
L 83.897309 113.289282 
L 84.139091 113.368849 
L 84.380873 113.632223 
L 86.798695 114.326931 
L 87.282259 114.74215 
L 87.765823 114.750095 
L 88.007606 115.457833 
L 88.249388 115.466164 
L 88.49117 115.726727 
L 89.458299 115.845891 
L 89.700081 115.940184 
L 90.425427 117.120169 
L 91.150774 117.449152 
L 92.117902 117.650038 
L 92.843249 117.81464 
L 93.085031 118.109566 
L 94.293942 118.522179 
L 94.777506 118.686308 
L 95.019288 119.051683 
L 95.26107 119.062253 
L 95.986417 119.469509 
L 96.228199 119.523923 
L 96.711763 120.272637 
L 97.43711 120.714384 
L 97.920674 120.844708 
L 98.404238 120.964168 
L 98.887802 121.402224 
L 100.580278 121.638648 
L 101.305624 122.161799 
L 102.03097 122.357817 
L 102.272753 122.397328 
L 102.514535 122.649993 
L 103.239881 122.744156 
L 104.20701 122.893323 
L 104.690574 123.321811 
L 104.932356 123.335837 
L 105.415921 123.505181 
L 105.899485 123.576306 
L 106.141267 123.748384 
L 107.350178 123.878742 
L 107.59196 124.18736 
L 108.317306 124.366587 
L 108.800871 124.381619 
L 109.284435 124.654787 
L 109.526217 124.654787 
L 110.009781 124.995513 
L 110.493346 125.137147 
L 110.735128 125.408359 
L 110.97691 125.424465 
L 111.460474 125.684531 
L 111.944039 125.783222 
L 112.185821 125.799734 
L 112.669385 126.016041 
L 113.152949 126.083226 
L 114.36186 126.337864 
L 114.603642 126.354994 
L 115.328989 126.949272 
L 116.054335 127.128605 
L 117.263246 127.255418 
L 117.505028 127.438447 
L 119.92285 127.811298 
L 120.164632 128.116353 
L 120.406414 128.154922 
L 120.889978 128.447372 
L 127.659879 129.444213 
L 128.385225 129.507435 
L 130.803047 130.044848 
L 131.044829 130.066748 
L 131.528393 130.287507 
L 133.220868 130.579407 
L 133.46265 130.784848 
L 134.187997 130.87706 
L 135.396907 131.063191 
L 135.63869 131.22796 
L 137.572947 131.466506 
L 138.056511 131.587208 
L 138.540075 131.660095 
L 139.02364 131.757828 
L 139.748986 131.856198 
L 140.474333 131.980068 
L 140.957897 132.155212 
L 141.925026 132.205628 
L 142.650372 132.357895 
L 144.342847 132.460266 
L 144.826411 132.667115 
L 145.79354 132.876836 
L 146.760669 133.143152 
L 147.002451 133.414249 
L 148.453144 133.690302 
L 150.145619 133.914837 
L 150.629183 134.114082 
L 151.35453 134.171496 
L 153.772351 134.66853 
L 154.014133 134.66853 
L 154.497697 134.787896 
L 155.706608 135.029496 
L 156.190173 135.090505 
L 156.673737 135.151761 
L 157.399083 135.399303 
L 157.882648 135.493188 
L 158.366212 135.682726 
L 161.751162 136.036516 
L 162.234726 136.069093 
L 162.960073 136.266049 
L 164.410766 136.365498 
L 164.89433 136.432164 
L 165.619676 136.633945 
L 166.103241 136.735855 
L 166.345023 136.90725 
L 169.971755 137.469164 
L 170.45532 137.576891 
L 176.499873 138.391288 
L 177.950566 138.467549 
L 184.236902 139.373409 
L 185.687595 139.45481 
L 186.654724 139.536651 
L 187.621852 139.618938 
L 195.358881 140.865425 
L 196.809574 140.955304 
L 201.645217 141.789242 
L 203.09591 141.88481 
L 205.997296 142.371939 
L 207.689771 142.47128 
L 210.591157 142.978029 
L 213.250761 143.081452 
L 214.701453 143.290448 
L 215.910364 143.39604 
L 217.119275 143.555827 
L 217.844621 143.609467 
L 218.328186 143.717323 
L 219.537096 143.825954 
L 220.262443 143.880564 
L 221.713136 143.990381 
L 223.163829 144.212439 
L 224.130957 144.268468 
L 225.098086 144.381153 
L 225.339868 144.381153 
L 226.065215 144.609077 
L 227.032343 144.6666 
L 227.515907 144.724342 
L 228.241254 144.782307 
L 229.450165 145.016415 
L 230.417293 145.075514 
L 230.900858 145.134845 
L 232.109768 145.19441 
L 232.593333 145.254211 
L 233.076897 145.31425 
L 233.560461 145.374528 
L 235.011154 145.435048 
L 235.252936 145.618077 
L 236.945411 145.679583 
L 237.428976 145.74134 
L 238.396104 145.803352 
L 238.879669 145.865618 
L 239.363233 145.928143 
L 240.088579 146.053975 
L 241.539272 146.117286 
L 242.264619 146.24471 
L 243.231747 146.308828 
L 243.47353 146.437886 
L 243.957094 146.502831 
L 244.440658 146.568057 
L 245.166005 146.633565 
L 245.891351 146.765441 
L 246.85848 146.831814 
L 247.342044 146.898479 
L 248.550955 146.96544 
L 249.276301 147.10026 
L 250.24343 147.168124 
L 250.726994 147.236294 
L 252.177687 147.304774 
L 252.661251 147.373565 
L 253.144816 147.442671 
L 253.62838 147.512095 
L 255.079073 147.58184 
L 255.804419 147.722303 
L 256.771548 147.793028 
L 257.255112 147.864086 
L 257.738677 147.935479 
L 258.222241 148.007212 
L 258.705805 148.079287 
L 259.431152 148.224478 
L 260.156498 148.2976 
L 260.881845 148.444915 
L 262.57432 148.519115 
L 263.299666 148.668618 
L 264.508577 148.743929 
L 264.992141 148.819617 
L 265.95927 148.895686 
L 266.684616 149.048984 
L 267.16818 149.048984 
L 267.409963 149.203854 
L 268.377091 149.281889 
L 268.860656 149.360329 
L 269.827784 149.439179 
L 270.069566 149.598124 
L 271.278477 149.678229 
L 271.762041 149.758761 
L 272.72917 149.839725 
L 273.212734 149.921125 
L 273.938081 150.002966 
L 274.905209 150.251186 
L 276.355902 150.334841 
L 276.839467 150.418962 
L 277.564813 150.503555 
L 278.048377 150.588624 
L 279.740852 150.674175 
L 280.224417 150.760213 
L 281.191545 150.846744 
L 281.67511 150.933775 
L 283.125803 151.021309 
L 283.851149 151.197916 
L 284.818278 151.287 
L 285.301842 151.376613 
L 286.994317 151.466761 
L 287.477881 151.55745 
L 288.686792 151.648687 
L 289.895703 152.01925 
L 291.104614 152.11333 
L 291.588178 152.207999 
L 293.280653 152.303266 
L 294.005999 152.495621 
L 296.182039 152.592726 
L 296.665603 152.690459 
L 297.632732 152.788828 
L 298.116296 152.887843 
L 299.325207 152.987512 
L 299.808771 153.087842 
L 301.259464 153.188844 
L 301.98481 153.392897 
L 303.919068 153.495967 
L 304.402632 153.599746 
L 306.095107 153.704242 
L 306.578671 153.809467 
L 308.271146 153.91543 
L 308.996493 154.129614 
L 310.447186 154.237856 
L 311.172532 154.456696 
L 312.381443 154.567317 
L 313.106789 154.79102 
L 313.348572 154.79102 
L 313.832136 154.904127 
L 315.766393 154.904127 
L 316.249957 155.018088 
L 316.975304 155.018088 
L 317.458868 155.132915 
L 317.70065 155.132915 
L 318.184215 155.248622 
L 318.425997 155.248622 
L 318.909561 155.365223 
L 319.634908 155.365223 
L 320.118472 155.482731 
L 320.843818 155.482731 
L 321.327383 155.60116 
L 321.810947 155.60116 
L 322.294511 155.720526 
L 323.503422 155.720526 
L 324.228768 155.962127 
L 324.470551 155.962127 
L 324.954115 156.084392 
L 325.195897 156.084392 
L 325.679461 156.207656 
L 325.921243 156.207656 
L 326.404808 156.331934 
L 326.888372 156.331934 
L 327.130154 156.457243 
L 328.822629 156.457243 
L 329.064411 156.583601 
L 330.03154 156.583601 
L 330.273322 156.711026 
L 330.756887 156.711026 
L 330.998669 156.839534 
L 331.724015 156.839534 
L 331.965797 156.969146 
L 332.449362 156.969146 
L 332.691144 157.099881 
L 333.900055 157.099881 
L 334.141837 157.231757 
L 334.625401 157.231757 
L 334.867183 157.364794 
L 336.076094 157.364794 
L 336.317876 157.499015 
L 337.526787 157.499015 
L 337.768569 157.634439 
L 339.702826 157.634439 
L 339.944608 157.771089 
L 340.911737 157.771089 
L 341.153519 157.908987 
L 342.36243 157.908987 
L 342.604212 158.048155 
L 343.329558 158.048155 
L 343.571341 158.188619 
L 345.263816 158.188619 
L 345.505598 158.330401 
L 347.439855 158.330401 
L 347.681637 158.473527 
L 348.648766 158.473527 
L 348.890548 158.618023 
L 350.099459 158.618023 
L 350.341241 158.763915 
L 351.066587 158.763915 
L 351.308369 158.91123 
L 351.791934 158.91123 
L 352.033716 159.059997 
L 353.484409 159.059997 
L 353.967973 159.362001 
L 355.418666 159.362001 
L 355.660448 159.515299 
L 357.111141 159.515299 
L 357.352923 159.670169 
L 358.320052 159.670169 
L 358.561834 159.826644 
L 359.045398 159.826644 
L 359.287181 159.984758 
L 360.496091 159.984758 
L 360.737873 160.144544 
L 361.705002 160.144544 
L 361.946784 160.30604 
L 362.188566 160.30604 
L 362.430348 160.469282 
L 363.155695 160.469282 
L 363.397477 160.634307 
L 364.364606 160.634307 
L 364.606388 160.801156 
L 364.84817 160.801156 
L 365.089952 160.96987 
L 365.573516 160.96987 
L 365.815299 161.14049 
L 366.540645 161.14049 
L 366.782427 161.31306 
L 368.23312 161.31306 
L 368.474902 161.487625 
L 370.167377 161.487625 
L 370.40916 161.664231 
L 370.892724 161.664231 
L 371.134506 161.842928 
L 373.552327 161.842928 
L 373.79411 162.023765 
L 375.486585 162.023765 
L 375.728367 162.206794 
L 377.17906 162.206794 
L 377.420842 162.392069 
L 380.322228 162.392069 
L 380.56401 162.579645 
L 381.772921 162.579645 
L 382.014703 162.769581 
L 383.707178 162.769581 
L 383.94896 162.961936 
L 385.641435 162.961936 
L 385.883217 163.156774 
L 386.608564 163.156774 
L 386.850346 163.354159 
L 388.301039 163.354159 
L 388.542821 163.554158 
L 389.993514 163.554158 
L 390.235296 163.756841 
L 391.444207 163.756841 
L 391.685989 163.962282 
L 393.136682 163.962282 
L 393.378464 164.170557 
L 393.620246 164.170557 
L 393.862028 164.381746 
L 394.829157 164.381746 
L 395.070939 164.595929 
L 396.763414 164.595929 
L 397.005196 164.813195 
L 398.697671 164.813195 
L 398.939453 165.033632 
L 400.873711 165.033632 
L 401.115493 165.257336 
L 402.566186 165.257336 
L 402.807968 165.484403 
L 404.742225 165.484403 
L 404.984007 165.714937 
L 407.160047 165.714937 
L 407.401829 165.949046 
L 409.336086 165.949046 
L 409.577868 166.186842 
L 411.028561 166.186842 
L 411.270343 166.428442 
L 413.446383 166.428442 
L 413.688165 166.673971 
L 415.138858 166.673971 
L 415.38064 166.923558 
L 416.589551 166.923558 
L 416.831333 167.177341 
L 419.007372 167.177341 
L 419.249154 167.435462 
L 420.941629 167.435462 
L 421.183412 167.698072 
L 423.359451 167.698072 
L 423.601233 167.96533 
L 425.777272 167.96533 
L 426.019055 168.237404 
L 428.436876 168.237404 
L 428.678658 168.514471 
L 431.09648 168.514471 
L 431.338262 168.796716 
L 433.756083 168.796716 
L 433.997866 169.084338 
L 436.657469 169.084338 
L 436.899251 169.377546 
L 440.042419 169.377546 
L 440.284202 169.676559 
L 441.976677 169.676559 
L 442.218459 169.981614 
L 444.394498 169.981614 
L 444.63628 170.292959 
L 447.295884 170.292959 
L 447.537666 170.61086 
L 450.922616 170.61086 
L 451.164398 170.935597 
L 454.065784 170.935597 
L 454.307566 171.267472 
L 456.96717 171.267472 
L 457.208952 171.606805 
L 458.417863 171.606805 
L 458.659645 171.95394 
L 461.802813 171.95394 
L 462.044595 172.309244 
L 466.154892 172.309244 
L 466.396674 172.673109 
L 468.330931 172.673109 
L 468.572713 173.04596 
L 470.506971 173.04596 
L 470.748753 173.428252 
L 473.408356 173.428252 
L 473.650139 173.820474 
L 475.100831 173.820474 
L 475.342614 174.223156 
L 477.035089 174.223156 
L 477.276871 174.636873 
L 479.211128 174.636873 
L 479.45291 175.062245 
L 481.870732 175.062245 
L 482.112514 175.499948 
L 483.563207 175.499948 
L 483.804989 175.950719 
L 486.464593 175.950719 
L 486.706375 176.415361 
L 490.816671 176.415361 
L 491.058454 176.894757 
L 493.234493 176.894757 
L 493.476275 177.389874 
L 495.894097 177.389874 
L 496.135879 177.901777 
L 500.487957 177.901777 
L 500.72974 178.431646 
L 504.356472 178.431646 
L 504.598254 178.980786 
L 506.774293 178.980786 
L 507.016076 179.550654 
L 509.433897 179.550654 
L 509.675679 180.142875 
L 514.027758 180.142875 
L 514.26954 180.759275 
L 517.896272 180.759275 
L 518.138055 181.401912 
L 520.555876 181.401912 
L 520.797658 182.073121 
L 523.940826 182.073121 
L 524.182608 182.775559 
L 528.051123 182.775559 
L 528.292905 183.512276 
L 532.886766 183.512276 
L 533.128548 184.286789 
L 536.75528 184.286789 
L 536.997062 185.103188 
L 539.898448 185.103188 
L 540.14023 185.966263 
L 545.217656 185.966263 
L 545.459438 186.881677 
L 548.602606 186.881677 
L 548.844388 187.856189 
L 553.196467 187.856189 
L 553.438249 188.897961 
L 557.548545 188.897961 
L 557.790328 190.016969 
L 562.867753 190.016969 
L 563.109535 191.22559 
L 569.395871 191.22559 
L 569.637653 192.539436 
L 574.231514 192.539436 
L 574.473296 193.978591 
L 580.759632 193.978591 
L 581.001414 195.569503 
L 586.804186 195.569503 
L 587.045968 197.347992 
L 592.365175 197.347992 
L 592.606958 199.364276 
L 598.167947 199.364276 
L 598.409729 201.691905 
L 604.937847 201.691905 
L 605.179629 204.444906 
L 611.465965 204.444906 
L 611.707748 207.814307 
L 620.170123 207.814307 
L 620.411905 212.158221 
L 632.25923 212.158221 
L 632.501013 218.280623 
L 646.282595 218.280623 
L 646.524377 228.746938 
L 674.571107 228.746938 
L 674.571107 228.746938 
" clip-path="url(#pd26dfc67a7)" style="fill: none; stroke: #1f77b4; stroke-width: 1.5; stroke-linecap: square"/>
   </g>
   <g id="line2d_132">
    <path d="M 75.434934 32.345398 
L 75.676716 32.706453 
L 75.918498 41.368688 
L 76.402062 42.090757 
L 76.643844 43.348328 
L 76.885627 43.534686 
L 77.127409 44.519817 
L 77.369191 44.656491 
L 77.610973 47.915552 
L 77.852755 54.128216 
L 78.094537 55.974987 
L 79.061666 58.813685 
L 79.303448 60.330017 
L 80.270577 62.629338 
L 81.237705 64.517404 
L 81.72127 64.788328 
L 81.963052 64.994293 
L 82.204834 65.662433 
L 82.446616 65.833253 
L 83.171963 67.737905 
L 83.655527 67.87663 
L 83.897309 68.548345 
L 84.380873 68.73038 
L 84.622655 69.400581 
L 85.589784 70.430925 
L 87.040477 71.000143 
L 87.282259 71.172793 
L 87.524041 71.175703 
L 89.458299 73.769446 
L 89.700081 73.813545 
L 90.183645 74.184212 
L 90.425427 74.212589 
L 90.908991 75.27792 
L 91.634338 75.549744 
L 91.87612 75.869867 
L 93.085031 76.071627 
L 93.568595 76.254005 
L 94.777506 76.450994 
L 95.744634 76.924677 
L 96.228199 77.368381 
L 97.43711 77.633988 
L 97.920674 77.728386 
L 98.162456 78.020448 
L 98.404238 78.027505 
L 99.613149 79.00628 
L 100.580278 79.310081 
L 100.82206 79.544187 
L 101.547406 79.781791 
L 101.789188 79.943848 
L 102.514535 80.042683 
L 102.756317 80.073315 
L 102.998099 80.228965 
L 103.723445 80.373898 
L 105.174138 80.984236 
L 105.657703 81.151875 
L 106.141267 81.233514 
L 106.383049 81.43248 
L 106.866613 81.500048 
L 107.350178 81.706242 
L 109.526217 82.144433 
L 109.767999 82.322683 
L 110.009781 82.332913 
L 110.251564 82.492849 
L 110.493346 82.494942 
L 111.944039 83.420988 
L 112.911167 83.546307 
L 113.394732 83.616389 
L 113.636514 84.03991 
L 113.878296 84.058127 
L 114.120078 84.550431 
L 114.603642 84.71229 
L 115.570771 84.94342 
L 115.812553 85.011627 
L 116.054335 85.22481 
L 116.779682 85.281926 
L 118.230375 85.938701 
L 118.955721 86.091194 
L 119.439285 86.343763 
L 121.13176 86.684223 
L 121.857107 86.789663 
L 122.340671 86.865624 
L 122.582453 87.0611 
L 122.824236 87.084691 
L 123.066018 87.294532 
L 125.000275 87.476945 
L 125.483839 87.611386 
L 129.835918 88.844676 
L 130.561264 88.963908 
L 130.803047 89.176218 
L 132.495522 89.402364 
L 132.979086 89.553563 
L 133.704432 89.630051 
L 135.63869 90.20788 
L 137.572947 90.521148 
L 138.056511 90.576559 
L 138.298293 90.829589 
L 140.23255 91.023492 
L 140.716115 91.180107 
L 140.957897 91.181342 
L 141.199679 91.366157 
L 146.277104 92.349799 
L 148.694926 92.765678 
L 149.662054 92.851014 
L 150.629183 93.012179 
L 153.047005 93.361475 
L 155.706608 93.900563 
L 156.673737 94.02425 
L 157.640865 94.237828 
L 158.366212 94.281651 
L 158.849776 94.424037 
L 160.300469 94.546684 
L 161.751162 94.947288 
L 161.992944 94.966871 
L 162.234726 95.302127 
L 163.685419 95.473441 
L 164.168984 95.594088 
L 168.27928 96.174481 
L 168.521062 96.36738 
L 169.488191 96.54201 
L 169.729973 96.699025 
L 169.971755 96.703595 
L 170.213537 96.851763 
L 170.938884 96.920319 
L 171.906012 97.217046 
L 174.565616 97.634557 
L 176.016309 97.791215 
L 176.741655 97.979821 
L 177.708784 98.077425 
L 178.192348 98.1996 
L 178.917695 98.305725 
L 179.401259 98.481362 
L 180.126606 98.750705 
L 181.577299 98.819503 
L 183.027991 99.081707 
L 184.720467 99.285885 
L 185.445813 99.357029 
L 188.830763 99.782933 
L 189.797892 99.934374 
L 190.523238 100.057105 
L 191.490367 100.165345 
L 192.215713 100.33852 
L 193.182842 100.401963 
L 193.908188 100.603683 
L 197.051356 100.876598 
L 197.534921 101.01648 
L 198.502049 101.088919 
L 198.985614 101.275297 
L 200.194524 101.395621 
L 206.239078 102.169478 
L 207.447989 102.340678 
L 207.931553 102.455747 
L 211.558285 102.805337 
L 212.283632 103.224767 
L 214.217889 103.507342 
L 216.393928 103.731118 
L 217.361057 103.934285 
L 219.053532 104.093064 
L 220.746007 104.5264 
L 228.483036 105.767346 
L 229.208383 105.987522 
L 231.384422 106.319786 
L 232.351551 106.636152 
L 233.560461 106.705126 
L 234.285808 106.891461 
L 234.769372 106.983264 
L 237.91254 107.339663 
L 238.879669 107.464722 
L 239.363233 107.61216 
L 240.813926 107.746501 
L 241.055708 107.881594 
L 242.264619 108.005496 
L 243.231747 108.1663 
L 244.68244 108.287856 
L 247.825608 108.569368 
L 248.550955 108.65304 
L 249.034519 108.753571 
L 250.001648 108.850635 
L 250.726994 108.972157 
L 252.419469 109.096743 
L 254.595509 109.439395 
L 255.320855 109.484917 
L 256.046201 109.600708 
L 257.255112 109.713637 
L 258.705805 110.095427 
L 259.914716 110.177982 
L 261.365409 110.379166 
L 262.57432 110.455515 
L 266.684616 110.828323 
L 267.893527 110.982589 
L 270.069566 111.313136 
L 271.036695 111.376372 
L 271.520259 111.457437 
L 273.454516 111.566591 
L 273.938081 111.655289 
L 274.421645 111.859377 
L 276.597684 112.132872 
L 277.081249 112.331574 
L 278.773724 112.558681 
L 279.257288 112.701778 
L 279.982635 112.82958 
L 281.916892 113.167347 
L 282.88402 113.267222 
L 283.367585 113.488626 
L 285.06006 113.708207 
L 286.027188 113.853168 
L 286.510753 113.890509 
L 286.752535 114.079371 
L 287.477881 114.111714 
L 287.961446 114.282717 
L 289.170356 114.517454 
L 290.379267 114.674073 
L 291.588178 114.748506 
L 293.038871 114.940836 
L 294.973128 115.104617 
L 297.149167 115.374031 
L 298.358078 115.489348 
L 301.501246 115.659222 
L 301.743028 115.795643 
L 302.226593 115.806889 
L 302.710157 115.952744 
L 305.611543 116.290935 
L 307.304018 116.430191 
L 310.205404 116.851815 
L 310.93075 116.974158 
L 311.414314 117.043934 
L 311.897879 117.053465 
L 312.381443 117.291756 
L 322.294511 118.141864 
L 322.536293 118.14475 
L 323.019858 118.272658 
L 324.712333 118.418977 
L 325.195897 118.51249 
L 329.547976 118.876766 
L 330.273322 119.000732 
L 331.724015 119.187012 
L 333.41649 119.307543 
L 334.383619 119.448666 
L 335.350747 119.567158 
L 337.526787 119.780884 
L 338.252133 119.880015 
L 341.878866 120.114565 
L 342.36243 120.276074 
L 343.087776 120.36088 
L 344.538469 120.609289 
L 346.472726 120.833051 
L 352.759062 121.649437 
L 353.484409 121.858585 
L 354.209755 121.93155 
L 354.69332 122.006796 
L 358.320052 122.379008 
L 361.46322 122.83538 
L 362.430348 122.955048 
L 364.606388 123.176145 
L 364.84817 123.410538 
L 365.815299 123.525205 
L 367.265992 123.672285 
L 368.23312 123.91282 
L 374.035892 124.571707 
L 374.519456 124.65004 
L 376.211931 124.873362 
L 376.937278 125.048391 
L 380.322228 125.231995 
L 382.014703 125.508496 
L 384.674307 125.807996 
L 386.124999 126.045062 
L 386.850346 126.161706 
L 387.575692 126.439211 
L 389.50995 126.584336 
L 389.993514 126.711379 
L 397.005196 127.693228 
L 397.488761 127.769831 
L 398.697671 127.939052 
L 399.423018 128.027059 
L 401.840839 128.295566 
L 403.775097 128.505165 
L 404.016879 128.654512 
L 405.709354 128.821286 
L 406.918265 129.016271 
L 409.094304 129.240755 
L 409.577868 129.469891 
L 411.028561 129.622121 
L 417.314897 130.461519 
L 421.908758 131.08873 
L 422.392322 131.185419 
L 423.843015 131.37637 
L 425.777272 131.499483 
L 426.502619 131.586481 
L 436.899251 132.734955 
L 437.86638 132.952259 
L 447.537666 134.012708 
L 448.263013 134.099191 
L 449.230141 134.231727 
L 457.934299 135.66049 
L 458.659645 135.762408 
L 460.35212 136.09194 
L 460.835684 136.202085 
L 461.319249 136.397794 
L 466.396674 136.877287 
L 466.880238 137.059355 
L 468.330931 137.150869 
L 468.814496 137.311125 
L 470.506971 137.54629 
L 471.474099 137.658194 
L 472.199446 137.758162 
L 472.441228 137.904762 
L 473.650139 137.989707 
L 474.859049 138.42632 
L 478.485782 138.852782 
L 479.45291 138.943641 
L 480.178257 139.036638 
L 480.420039 139.219948 
L 487.431721 140.410833 
L 488.882414 140.705421 
L 489.607761 140.74093 
L 489.849543 140.887396 
L 490.816671 141.00949 
L 492.025582 141.24427 
L 492.750929 141.351239 
L 492.992711 141.356793 
L 493.234493 141.580628 
L 493.718057 141.64324 
L 494.201622 141.778766 
L 495.16875 142.005127 
L 495.410532 142.237386 
L 498.070136 142.627568 
L 498.311918 142.786 
L 499.520829 142.934288 
L 501.455086 143.1694 
L 501.93865 143.282558 
L 502.180433 143.305186 
L 502.422215 143.45922 
L 503.631125 143.585306 
L 505.081818 143.90082 
L 506.774293 144.131565 
L 509.192115 144.622863 
L 509.433897 144.802066 
L 510.159244 144.828839 
L 510.401026 144.951673 
L 510.88459 145.515307 
L 512.335283 145.658643 
L 512.818847 145.801487 
L 515.236669 146.226806 
L 515.478451 146.405518 
L 518.621619 146.92322 
L 519.105183 147.06374 
L 520.797658 147.376323 
L 521.281223 147.547625 
L 522.248351 147.665961 
L 522.973698 147.828515 
L 524.424391 148.0533 
L 524.907955 148.223748 
L 525.633301 148.338703 
L 528.051123 148.804449 
L 528.534687 149.184408 
L 529.501816 149.454998 
L 529.98538 149.586145 
L 530.227162 149.607714 
L 530.468944 149.775727 
L 531.194291 149.826741 
L 531.436073 150.030072 
L 531.677855 150.030894 
L 531.919637 150.201215 
L 532.403202 150.34743 
L 533.128548 150.586918 
L 534.337459 150.875409 
L 534.821023 151.100527 
L 535.062805 151.307564 
L 535.304587 151.318304 
L 535.788152 151.525647 
L 537.480627 151.990204 
L 538.205973 152.230808 
L 538.93132 152.326219 
L 539.656666 152.432836 
L 540.382013 152.53827 
L 541.590923 152.788828 
L 542.074488 152.959538 
L 542.31627 152.961534 
L 543.041616 153.231467 
L 543.283398 153.256895 
L 543.525181 153.64668 
L 544.975873 153.749399 
L 545.459438 154.067187 
L 546.910131 154.386322 
L 547.151913 154.716831 
L 547.635477 154.889375 
L 549.08617 155.002082 
L 549.811517 155.144446 
L 550.536863 155.227729 
L 551.503992 155.372248 
L 551.745774 155.565534 
L 552.47112 155.632105 
L 552.712902 155.807058 
L 554.163595 156.10036 
L 558.515674 157.135374 
L 558.757456 157.364794 
L 558.999238 157.431756 
L 559.24102 157.74366 
L 560.449931 158.290568 
L 560.933496 158.408953 
L 563.109535 158.914191 
L 563.834881 159.007762 
L 564.80201 159.282897 
L 565.527356 159.362001 
L 565.769139 159.524547 
L 566.010921 159.526088 
L 566.494485 159.891271 
L 566.978049 159.997478 
L 569.879435 161.01745 
L 570.362999 161.231706 
L 570.846564 161.522781 
L 572.055475 162.111342 
L 572.297257 162.115002 
L 572.780821 162.438745 
L 573.989732 162.589085 
L 574.95686 163.219657 
L 575.682207 163.314475 
L 576.165771 163.554158 
L 576.649335 163.604574 
L 577.1329 163.793615 
L 577.616464 164.258897 
L 578.100028 164.296915 
L 578.583593 164.649953 
L 579.067157 164.760765 
L 579.550721 164.918603 
L 580.034286 165.046962 
L 581.001414 165.14507 
L 581.968543 165.613069 
L 582.693889 165.752152 
L 583.177454 165.996307 
L 583.661018 166.067476 
L 583.9028 166.307159 
L 585.111711 166.447938 
L 585.353493 166.624545 
L 585.837057 166.624545 
L 586.320622 166.898413 
L 587.28775 167.075316 
L 588.013097 167.40945 
L 588.496661 167.42245 
L 589.705572 168.182596 
L 590.189136 168.303438 
L 590.6727 168.833799 
L 590.914482 168.968631 
L 591.156265 169.377546 
L 591.639829 169.442823 
L 593.090522 170.058851 
L 593.574086 170.058851 
L 594.782997 170.772355 
L 595.024779 171.064162 
L 595.750125 171.267472 
L 596.23369 171.267472 
L 596.717254 171.814127 
L 597.200818 171.852447 
L 597.442601 171.989097 
L 597.684383 172.395775 
L 598.167947 172.669427 
L 599.135076 172.869573 
L 599.376858 173.061068 
L 599.61864 173.064847 
L 600.102204 173.228253 
L 600.343986 173.243544 
L 600.827551 173.682034 
L 601.794679 174.020473 
L 602.036461 174.020473 
L 602.278244 174.239489 
L 602.520026 174.899189 
L 602.761808 175.140101 
L 603.245372 175.227081 
L 603.487154 175.499948 
L 603.970719 175.517723 
L 604.696065 175.859481 
L 604.937847 176.139496 
L 605.421412 176.1859 
L 605.904976 177.09086 
L 606.872104 177.155146 
L 607.355669 177.389874 
L 608.322797 177.541631 
L 608.56458 177.736072 
L 609.048144 179.702411 
L 609.531708 179.790662 
L 609.77349 180.142875 
L 610.740619 180.239823 
L 611.465965 180.64645 
L 611.707748 181.362573 
L 612.191312 181.434773 
L 612.916658 182.710984 
L 613.15844 183.007421 
L 614.125569 183.213262 
L 614.367351 184.486788 
L 614.609133 185.052939 
L 615.33448 185.702122 
L 615.818044 186.126995 
L 616.059826 186.14496 
L 616.301608 187.419636 
L 616.785173 187.735872 
L 617.268737 187.856189 
L 618.477648 188.109972 
L 618.71943 188.483079 
L 618.961212 189.170035 
L 619.202994 189.280252 
L 619.444776 189.993757 
L 619.928341 190.192209 
L 620.411905 190.310176 
L 621.862598 190.345747 
L 622.10438 190.60919 
L 622.346162 191.351948 
L 622.829727 191.351948 
L 623.071509 192.000103 
L 623.313291 192.186686 
L 623.796855 192.200102 
L 624.038637 193.070285 
L 624.280419 193.241874 
L 624.522202 193.635232 
L 625.247548 193.679577 
L 625.48933 193.753777 
L 625.731112 194.130348 
L 626.214677 196.012142 
L 627.181805 196.450353 
L 627.423587 197.730283 
L 627.66537 198.322504 
L 627.907152 199.801979 
L 628.632498 200.025683 
L 628.87428 200.812062 
L 629.116063 200.955188 
L 629.357845 200.955188 
L 629.599627 201.075505 
L 629.841409 201.591575 
L 630.083191 201.818263 
L 630.324973 201.818263 
L 630.566755 201.945688 
L 631.292102 201.99696 
L 631.533884 203.143649 
L 631.775666 203.622151 
L 632.501013 204.205224 
L 632.984577 204.264788 
L 633.226359 204.596663 
L 633.468141 205.540702 
L 634.193488 210.446991 
L 634.43527 210.719065 
L 634.677052 214.612208 
L 634.918834 214.612208 
L 635.160616 217.688402 
L 635.402398 218.662914 
L 635.885963 218.662914 
L 636.127745 220.73461 
L 636.369527 220.73461 
L 636.611309 220.913307 
L 636.853091 220.913307 
L 637.094874 221.185381 
L 637.336656 231.200925 
L 637.578438 231.200925 
L 637.82022 231.379622 
L 638.062002 232.890852 
L 638.06234 281.474375 
L 638.06234 281.474375 
" clip-path="url(#pd26dfc67a7)" style="fill: none; stroke: #ff7f0e; stroke-width: 1.5; stroke-linecap: square"/>
   </g>
   <g id="line2d_133">
    <path d="M 45.478125 159.210244 
L 704.527916 159.210244 
" clip-path="url(#pd26dfc67a7)" style="fill: none; stroke-dasharray: 3.7,1.6; stroke-dashoffset: 0; stroke: #ff0000"/>
   </g>
   <g id="patch_3">
    <path d="M 45.478125 242.918125 
L 45.478125 22.318125 
" style="fill: none; stroke: #000000; stroke-width: 0.8; stroke-linejoin: miter; stroke-linecap: square"/>
   </g>
   <g id="patch_4">
    <path d="M 704.527916 242.918125 
L 704.527916 22.318125 
" style="fill: none; stroke: #000000; stroke-width: 0.8; stroke-linejoin: miter; stroke-linecap: square"/>
   </g>
   <g id="patch_5">
    <path d="M 45.478125 242.918125 
L 704.527916 242.918125 
" style="fill: none; stroke: #000000; stroke-width: 0.8; stroke-linejoin: miter; stroke-linecap: square"/>
   </g>
   <g id="patch_6">
    <path d="M 45.478125 22.318125 
L 704.527916 22.318125 
" style="fill: none; stroke: #000000; stroke-width: 0.8; stroke-linejoin: miter; stroke-linecap: square"/>
   </g>
   <g id="text_15">
    <!-- Count vs Total Sales Distribution by Product Family (Train) -->
    <g transform="translate(201.74552 16.318125) scale(0.12 -0.12)">
     <defs>
      <path id="DejaVuSans-43" d="M 4122 4306 
L 4122 3641 
Q 3803 3938 3442 4084 
Q 3081 4231 2675 4231 
Q 1875 4231 1450 3742 
Q 1025 3253 1025 2328 
Q 1025 1406 1450 917 
Q 1875 428 2675 428 
Q 3081 428 3442 575 
Q 3803 722 4122 1019 
L 4122 359 
Q 3791 134 3420 21 
Q 3050 -91 2638 -91 
Q 1578 -91 968 557 
Q 359 1206 359 2328 
Q 359 3453 968 4101 
Q 1578 4750 2638 4750 
Q 3056 4750 3426 4639 
Q 3797 4528 4122 4306 
z
" transform="scale(0.015625)"/>
      <path id="DejaVuSans-76" d="M 191 3500 
L 800 3500 
L 1894 563 
L 2988 3500 
L 3597 3500 
L 2284 0 
L 1503 0 
L 191 3500 
z
" transform="scale(0.015625)"/>
      <path id="DejaVuSans-54" d="M -19 4666 
L 3928 4666 
L 3928 4134 
L 2272 4134 
L 2272 0 
L 1638 0 
L 1638 4134 
L -19 4134 
L -19 4666 
z
" transform="scale(0.015625)"/>
      <path id="DejaVuSans-53" d="M 3425 4513 
L 3425 3897 
Q 3066 4069 2747 4153 
Q 2428 4238 2131 4238 
Q 1616 4238 1336 4038 
Q 1056 3838 1056 3469 
Q 1056 3159 1242 3001 
Q 1428 2844 1947 2747 
L 2328 2669 
Q 3034 2534 3370 2195 
Q 3706 1856 3706 1288 
Q 3706 609 3251 259 
Q 2797 -91 1919 -91 
Q 1588 -91 1214 -16 
Q 841 59 441 206 
L 441 856 
Q 825 641 1194 531 
Q 1563 422 1919 422 
Q 2459 422 2753 634 
Q 3047 847 3047 1241 
Q 3047 1584 2836 1778 
Q 2625 1972 2144 2069 
L 1759 2144 
Q 1053 2284 737 2584 
Q 422 2884 422 3419 
Q 422 4038 858 4394 
Q 1294 4750 2059 4750 
Q 2388 4750 2728 4690 
Q 3069 4631 3425 4513 
z
" transform="scale(0.015625)"/>
      <path id="DejaVuSans-44" d="M 1259 4147 
L 1259 519 
L 2022 519 
Q 2988 519 3436 956 
Q 3884 1394 3884 2338 
Q 3884 3275 3436 3711 
Q 2988 4147 2022 4147 
L 1259 4147 
z
M 628 4666 
L 1925 4666 
Q 3281 4666 3915 4102 
Q 4550 3538 4550 2338 
Q 4550 1131 3912 565 
Q 3275 0 1925 0 
L 628 0 
L 628 4666 
z
" transform="scale(0.015625)"/>
      <path id="DejaVuSans-72" d="M 2631 2963 
Q 2534 3019 2420 3045 
Q 2306 3072 2169 3072 
Q 1681 3072 1420 2755 
Q 1159 2438 1159 1844 
L 1159 0 
L 581 0 
L 581 3500 
L 1159 3500 
L 1159 2956 
Q 1341 3275 1631 3429 
Q 1922 3584 2338 3584 
Q 2397 3584 2469 3576 
Q 2541 3569 2628 3553 
L 2631 2963 
z
" transform="scale(0.015625)"/>
      <path id="DejaVuSans-62" d="M 3116 1747 
Q 3116 2381 2855 2742 
Q 2594 3103 2138 3103 
Q 1681 3103 1420 2742 
Q 1159 2381 1159 1747 
Q 1159 1113 1420 752 
Q 1681 391 2138 391 
Q 2594 391 2855 752 
Q 3116 1113 3116 1747 
z
M 1159 2969 
Q 1341 3281 1617 3432 
Q 1894 3584 2278 3584 
Q 2916 3584 3314 3078 
Q 3713 2572 3713 1747 
Q 3713 922 3314 415 
Q 2916 -91 2278 -91 
Q 1894 -91 1617 61 
Q 1341 213 1159 525 
L 1159 0 
L 581 0 
L 581 4863 
L 1159 4863 
L 1159 2969 
z
" transform="scale(0.015625)"/>
      <path id="DejaVuSans-79" d="M 2059 -325 
Q 1816 -950 1584 -1140 
Q 1353 -1331 966 -1331 
L 506 -1331 
L 506 -850 
L 844 -850 
Q 1081 -850 1212 -737 
Q 1344 -625 1503 -206 
L 1606 56 
L 191 3500 
L 800 3500 
L 1894 763 
L 2988 3500 
L 3597 3500 
L 2059 -325 
z
" transform="scale(0.015625)"/>
      <path id="DejaVuSans-50" d="M 1259 4147 
L 1259 2394 
L 2053 2394 
Q 2494 2394 2734 2622 
Q 2975 2850 2975 3272 
Q 2975 3691 2734 3919 
Q 2494 4147 2053 4147 
L 1259 4147 
z
M 628 4666 
L 2053 4666 
Q 2838 4666 3239 4311 
Q 3641 3956 3641 3272 
Q 3641 2581 3239 2228 
Q 2838 1875 2053 1875 
L 1259 1875 
L 1259 0 
L 628 0 
L 628 4666 
z
" transform="scale(0.015625)"/>
      <path id="DejaVuSans-64" d="M 2906 2969 
L 2906 4863 
L 3481 4863 
L 3481 0 
L 2906 0 
L 2906 525 
Q 2725 213 2448 61 
Q 2172 -91 1784 -91 
Q 1150 -91 751 415 
Q 353 922 353 1747 
Q 353 2572 751 3078 
Q 1150 3584 1784 3584 
Q 2172 3584 2448 3432 
Q 2725 3281 2906 2969 
z
M 947 1747 
Q 947 1113 1208 752 
Q 1469 391 1925 391 
Q 2381 391 2643 752 
Q 2906 1113 2906 1747 
Q 2906 2381 2643 2742 
Q 2381 3103 1925 3103 
Q 1469 3103 1208 2742 
Q 947 2381 947 1747 
z
" transform="scale(0.015625)"/>
      <path id="DejaVuSans-63" d="M 3122 3366 
L 3122 2828 
Q 2878 2963 2633 3030 
Q 2388 3097 2138 3097 
Q 1578 3097 1268 2742 
Q 959 2388 959 1747 
Q 959 1106 1268 751 
Q 1578 397 2138 397 
Q 2388 397 2633 464 
Q 2878 531 3122 666 
L 3122 134 
Q 2881 22 2623 -34 
Q 2366 -91 2075 -91 
Q 1284 -91 818 406 
Q 353 903 353 1747 
Q 353 2603 823 3093 
Q 1294 3584 2113 3584 
Q 2378 3584 2631 3529 
Q 2884 3475 3122 3366 
z
" transform="scale(0.015625)"/>
      <path id="DejaVuSans-46" d="M 628 4666 
L 3309 4666 
L 3309 4134 
L 1259 4134 
L 1259 2759 
L 3109 2759 
L 3109 2228 
L 1259 2228 
L 1259 0 
L 628 0 
L 628 4666 
z
" transform="scale(0.015625)"/>
      <path id="DejaVuSans-6d" d="M 3328 2828 
Q 3544 3216 3844 3400 
Q 4144 3584 4550 3584 
Q 5097 3584 5394 3201 
Q 5691 2819 5691 2113 
L 5691 0 
L 5113 0 
L 5113 2094 
Q 5113 2597 4934 2840 
Q 4756 3084 4391 3084 
Q 3944 3084 3684 2787 
Q 3425 2491 3425 1978 
L 3425 0 
L 2847 0 
L 2847 2094 
Q 2847 2600 2669 2842 
Q 2491 3084 2119 3084 
Q 1678 3084 1418 2786 
Q 1159 2488 1159 1978 
L 1159 0 
L 581 0 
L 581 3500 
L 1159 3500 
L 1159 2956 
Q 1356 3278 1631 3431 
Q 1906 3584 2284 3584 
Q 2666 3584 2933 3390 
Q 3200 3197 3328 2828 
z
" transform="scale(0.015625)"/>
     </defs>
     <use xlink:href="#DejaVuSans-43"/>
     <use xlink:href="#DejaVuSans-6f" transform="translate(69.824219 0)"/>
     <use xlink:href="#DejaVuSans-75" transform="translate(131.005859 0)"/>
     <use xlink:href="#DejaVuSans-6e" transform="translate(194.384766 0)"/>
     <use xlink:href="#DejaVuSans-74" transform="translate(257.763672 0)"/>
     <use xlink:href="#DejaVuSans-20" transform="translate(296.972656 0)"/>
     <use xlink:href="#DejaVuSans-76" transform="translate(328.759766 0)"/>
     <use xlink:href="#DejaVuSans-73" transform="translate(387.939453 0)"/>
     <use xlink:href="#DejaVuSans-20" transform="translate(440.039062 0)"/>
     <use xlink:href="#DejaVuSans-54" transform="translate(471.826172 0)"/>
     <use xlink:href="#DejaVuSans-6f" transform="translate(515.910156 0)"/>
     <use xlink:href="#DejaVuSans-74" transform="translate(577.091797 0)"/>
     <use xlink:href="#DejaVuSans-61" transform="translate(616.300781 0)"/>
     <use xlink:href="#DejaVuSans-6c" transform="translate(677.580078 0)"/>
     <use xlink:href="#DejaVuSans-20" transform="translate(705.363281 0)"/>
     <use xlink:href="#DejaVuSans-53" transform="translate(737.150391 0)"/>
     <use xlink:href="#DejaVuSans-61" transform="translate(800.626953 0)"/>
     <use xlink:href="#DejaVuSans-6c" transform="translate(861.90625 0)"/>
     <use xlink:href="#DejaVuSans-65" transform="translate(889.689453 0)"/>
     <use xlink:href="#DejaVuSans-73" transform="translate(951.212891 0)"/>
     <use xlink:href="#DejaVuSans-20" transform="translate(1003.3125 0)"/>
     <use xlink:href="#DejaVuSans-44" transform="translate(1035.099609 0)"/>
     <use xlink:href="#DejaVuSans-69" transform="translate(1112.101562 0)"/>
     <use xlink:href="#DejaVuSans-73" transform="translate(1139.884766 0)"/>
     <use xlink:href="#DejaVuSans-74" transform="translate(1191.984375 0)"/>
     <use xlink:href="#DejaVuSans-72" transform="translate(1231.193359 0)"/>
     <use xlink:href="#DejaVuSans-69" transform="translate(1272.306641 0)"/>
     <use xlink:href="#DejaVuSans-62" transform="translate(1300.089844 0)"/>
     <use xlink:href="#DejaVuSans-75" transform="translate(1363.566406 0)"/>
     <use xlink:href="#DejaVuSans-74" transform="translate(1426.945312 0)"/>
     <use xlink:href="#DejaVuSans-69" transform="translate(1466.154297 0)"/>
     <use xlink:href="#DejaVuSans-6f" transform="translate(1493.9375 0)"/>
     <use xlink:href="#DejaVuSans-6e" transform="translate(1555.119141 0)"/>
     <use xlink:href="#DejaVuSans-20" transform="translate(1618.498047 0)"/>
     <use xlink:href="#DejaVuSans-62" transform="translate(1650.285156 0)"/>
     <use xlink:href="#DejaVuSans-79" transform="translate(1713.761719 0)"/>
     <use xlink:href="#DejaVuSans-20" transform="translate(1772.941406 0)"/>
     <use xlink:href="#DejaVuSans-50" transform="translate(1804.728516 0)"/>
     <use xlink:href="#DejaVuSans-72" transform="translate(1863.28125 0)"/>
     <use xlink:href="#DejaVuSans-6f" transform="translate(1902.144531 0)"/>
     <use xlink:href="#DejaVuSans-64" transform="translate(1963.326172 0)"/>
     <use xlink:href="#DejaVuSans-75" transform="translate(2026.802734 0)"/>
     <use xlink:href="#DejaVuSans-63" transform="translate(2090.181641 0)"/>
     <use xlink:href="#DejaVuSans-74" transform="translate(2145.162109 0)"/>
     <use xlink:href="#DejaVuSans-20" transform="translate(2184.371094 0)"/>
     <use xlink:href="#DejaVuSans-46" transform="translate(2216.158203 0)"/>
     <use xlink:href="#DejaVuSans-61" transform="translate(2264.552734 0)"/>
     <use xlink:href="#DejaVuSans-6d" transform="translate(2325.832031 0)"/>
     <use xlink:href="#DejaVuSans-69" transform="translate(2423.244141 0)"/>
     <use xlink:href="#DejaVuSans-6c" transform="translate(2451.027344 0)"/>
     <use xlink:href="#DejaVuSans-79" transform="translate(2478.810547 0)"/>
     <use xlink:href="#DejaVuSans-20" transform="translate(2537.990234 0)"/>
     <use xlink:href="#DejaVuSans-28" transform="translate(2569.777344 0)"/>
     <use xlink:href="#DejaVuSans-54" transform="translate(2608.791016 0)"/>
     <use xlink:href="#DejaVuSans-72" transform="translate(2655.125 0)"/>
     <use xlink:href="#DejaVuSans-61" transform="translate(2696.238281 0)"/>
     <use xlink:href="#DejaVuSans-69" transform="translate(2757.517578 0)"/>
     <use xlink:href="#DejaVuSans-6e" transform="translate(2785.300781 0)"/>
     <use xlink:href="#DejaVuSans-29" transform="translate(2848.679688 0)"/>
    </g>
   </g>
   <g id="legend_1">
    <g id="patch_7">
     <path d="M 483.793541 74.3525 
L 697.527916 74.3525 
Q 699.527916 74.3525 699.527916 72.3525 
L 699.527916 29.318125 
Q 699.527916 27.318125 697.527916 27.318125 
L 483.793541 27.318125 
Q 481.793541 27.318125 481.793541 29.318125 
L 481.793541 72.3525 
Q 481.793541 74.3525 483.793541 74.3525 
z
" style="fill: #ffffff; opacity: 0.8; stroke: #cccccc; stroke-linejoin: miter"/>
    </g>
    <g id="line2d_134">
     <path d="M 485.793541 35.416563 
L 495.793541 35.416563 
L 505.793541 35.416563 
" style="fill: none; stroke: #1f77b4; stroke-width: 1.5; stroke-linecap: square"/>
    </g>
    <g id="text_16">
     <!-- Count per product family (train) -->
     <g transform="translate(513.793541 38.916563) scale(0.1 -0.1)">
      <defs>
       <path id="DejaVuSans-70" d="M 1159 525 
L 1159 -1331 
L 581 -1331 
L 581 3500 
L 1159 3500 
L 1159 2969 
Q 1341 3281 1617 3432 
Q 1894 3584 2278 3584 
Q 2916 3584 3314 3078 
Q 3713 2572 3713 1747 
Q 3713 922 3314 415 
Q 2916 -91 2278 -91 
Q 1894 -91 1617 61 
Q 1341 213 1159 525 
z
M 3116 1747 
Q 3116 2381 2855 2742 
Q 2594 3103 2138 3103 
Q 1681 3103 1420 2742 
Q 1159 2381 1159 1747 
Q 1159 1113 1420 752 
Q 1681 391 2138 391 
Q 2594 391 2855 752 
Q 3116 1113 3116 1747 
z
" transform="scale(0.015625)"/>
       <path id="DejaVuSans-66" d="M 2375 4863 
L 2375 4384 
L 1825 4384 
Q 1516 4384 1395 4259 
Q 1275 4134 1275 3809 
L 1275 3500 
L 2222 3500 
L 2222 3053 
L 1275 3053 
L 1275 0 
L 697 0 
L 697 3053 
L 147 3053 
L 147 3500 
L 697 3500 
L 697 3744 
Q 697 4328 969 4595 
Q 1241 4863 1831 4863 
L 2375 4863 
z
" transform="scale(0.015625)"/>
      </defs>
      <use xlink:href="#DejaVuSans-43"/>
      <use xlink:href="#DejaVuSans-6f" transform="translate(69.824219 0)"/>
      <use xlink:href="#DejaVuSans-75" transform="translate(131.005859 0)"/>
      <use xlink:href="#DejaVuSans-6e" transform="translate(194.384766 0)"/>
      <use xlink:href="#DejaVuSans-74" transform="translate(257.763672 0)"/>
      <use xlink:href="#DejaVuSans-20" transform="translate(296.972656 0)"/>
      <use xlink:href="#DejaVuSans-70" transform="translate(328.759766 0)"/>
      <use xlink:href="#DejaVuSans-65" transform="translate(392.236328 0)"/>
      <use xlink:href="#DejaVuSans-72" transform="translate(453.759766 0)"/>
      <use xlink:href="#DejaVuSans-20" transform="translate(494.873047 0)"/>
      <use xlink:href="#DejaVuSans-70" transform="translate(526.660156 0)"/>
      <use xlink:href="#DejaVuSans-72" transform="translate(590.136719 0)"/>
      <use xlink:href="#DejaVuSans-6f" transform="translate(629 0)"/>
      <use xlink:href="#DejaVuSans-64" transform="translate(690.181641 0)"/>
      <use xlink:href="#DejaVuSans-75" transform="translate(753.658203 0)"/>
      <use xlink:href="#DejaVuSans-63" transform="translate(817.037109 0)"/>
      <use xlink:href="#DejaVuSans-74" transform="translate(872.017578 0)"/>
      <use xlink:href="#DejaVuSans-20" transform="translate(911.226562 0)"/>
      <use xlink:href="#DejaVuSans-66" transform="translate(943.013672 0)"/>
      <use xlink:href="#DejaVuSans-61" transform="translate(978.21875 0)"/>
      <use xlink:href="#DejaVuSans-6d" transform="translate(1039.498047 0)"/>
      <use xlink:href="#DejaVuSans-69" transform="translate(1136.910156 0)"/>
      <use xlink:href="#DejaVuSans-6c" transform="translate(1164.693359 0)"/>
      <use xlink:href="#DejaVuSans-79" transform="translate(1192.476562 0)"/>
      <use xlink:href="#DejaVuSans-20" transform="translate(1251.65625 0)"/>
      <use xlink:href="#DejaVuSans-28" transform="translate(1283.443359 0)"/>
      <use xlink:href="#DejaVuSans-74" transform="translate(1322.457031 0)"/>
      <use xlink:href="#DejaVuSans-72" transform="translate(1361.666016 0)"/>
      <use xlink:href="#DejaVuSans-61" transform="translate(1402.779297 0)"/>
      <use xlink:href="#DejaVuSans-69" transform="translate(1464.058594 0)"/>
      <use xlink:href="#DejaVuSans-6e" transform="translate(1491.841797 0)"/>
      <use xlink:href="#DejaVuSans-29" transform="translate(1555.220703 0)"/>
     </g>
    </g>
    <g id="line2d_135">
     <path d="M 485.793541 50.094688 
L 495.793541 50.094688 
L 505.793541 50.094688 
" style="fill: none; stroke: #ff7f0e; stroke-width: 1.5; stroke-linecap: square"/>
    </g>
    <g id="text_17">
     <!-- Total sales per product family (train) -->
     <g transform="translate(513.793541 53.594688) scale(0.1 -0.1)">
      <use xlink:href="#DejaVuSans-54"/>
      <use xlink:href="#DejaVuSans-6f" transform="translate(44.083984 0)"/>
      <use xlink:href="#DejaVuSans-74" transform="translate(105.265625 0)"/>
      <use xlink:href="#DejaVuSans-61" transform="translate(144.474609 0)"/>
      <use xlink:href="#DejaVuSans-6c" transform="translate(205.753906 0)"/>
      <use xlink:href="#DejaVuSans-20" transform="translate(233.537109 0)"/>
      <use xlink:href="#DejaVuSans-73" transform="translate(265.324219 0)"/>
      <use xlink:href="#DejaVuSans-61" transform="translate(317.423828 0)"/>
      <use xlink:href="#DejaVuSans-6c" transform="translate(378.703125 0)"/>
      <use xlink:href="#DejaVuSans-65" transform="translate(406.486328 0)"/>
      <use xlink:href="#DejaVuSans-73" transform="translate(468.009766 0)"/>
      <use xlink:href="#DejaVuSans-20" transform="translate(520.109375 0)"/>
      <use xlink:href="#DejaVuSans-70" transform="translate(551.896484 0)"/>
      <use xlink:href="#DejaVuSans-65" transform="translate(615.373047 0)"/>
      <use xlink:href="#DejaVuSans-72" transform="translate(676.896484 0)"/>
      <use xlink:href="#DejaVuSans-20" transform="translate(718.009766 0)"/>
      <use xlink:href="#DejaVuSans-70" transform="translate(749.796875 0)"/>
      <use xlink:href="#DejaVuSans-72" transform="translate(813.273438 0)"/>
      <use xlink:href="#DejaVuSans-6f" transform="translate(852.136719 0)"/>
      <use xlink:href="#DejaVuSans-64" transform="translate(913.318359 0)"/>
      <use xlink:href="#DejaVuSans-75" transform="translate(976.794922 0)"/>
      <use xlink:href="#DejaVuSans-63" transform="translate(1040.173828 0)"/>
      <use xlink:href="#DejaVuSans-74" transform="translate(1095.154297 0)"/>
      <use xlink:href="#DejaVuSans-20" transform="translate(1134.363281 0)"/>
      <use xlink:href="#DejaVuSans-66" transform="translate(1166.150391 0)"/>
      <use xlink:href="#DejaVuSans-61" transform="translate(1201.355469 0)"/>
      <use xlink:href="#DejaVuSans-6d" transform="translate(1262.634766 0)"/>
      <use xlink:href="#DejaVuSans-69" transform="translate(1360.046875 0)"/>
      <use xlink:href="#DejaVuSans-6c" transform="translate(1387.830078 0)"/>
      <use xlink:href="#DejaVuSans-79" transform="translate(1415.613281 0)"/>
      <use xlink:href="#DejaVuSans-20" transform="translate(1474.792969 0)"/>
      <use xlink:href="#DejaVuSans-28" transform="translate(1506.580078 0)"/>
      <use xlink:href="#DejaVuSans-74" transform="translate(1545.59375 0)"/>
      <use xlink:href="#DejaVuSans-72" transform="translate(1584.802734 0)"/>
      <use xlink:href="#DejaVuSans-61" transform="translate(1625.916016 0)"/>
      <use xlink:href="#DejaVuSans-69" transform="translate(1687.195312 0)"/>
      <use xlink:href="#DejaVuSans-6e" transform="translate(1714.978516 0)"/>
      <use xlink:href="#DejaVuSans-29" transform="translate(1778.357422 0)"/>
     </g>
    </g>
    <g id="line2d_136">
     <path d="M 485.793541 64.772813 
L 495.793541 64.772813 
L 505.793541 64.772813 
" style="fill: none; stroke-dasharray: 3.7,1.6; stroke-dashoffset: 0; stroke: #ff0000"/>
    </g>
    <g id="text_18">
     <!-- Cutoff sales = 100 -->
     <g transform="translate(513.793541 68.272813) scale(0.1 -0.1)">
      <use xlink:href="#DejaVuSans-43"/>
      <use xlink:href="#DejaVuSans-75" transform="translate(69.824219 0)"/>
      <use xlink:href="#DejaVuSans-74" transform="translate(133.203125 0)"/>
      <use xlink:href="#DejaVuSans-6f" transform="translate(172.412109 0)"/>
      <use xlink:href="#DejaVuSans-66" transform="translate(233.59375 0)"/>
      <use xlink:href="#DejaVuSans-66" transform="translate(268.798828 0)"/>
      <use xlink:href="#DejaVuSans-20" transform="translate(304.003906 0)"/>
      <use xlink:href="#DejaVuSans-73" transform="translate(335.791016 0)"/>
      <use xlink:href="#DejaVuSans-61" transform="translate(387.890625 0)"/>
      <use xlink:href="#DejaVuSans-6c" transform="translate(449.169922 0)"/>
      <use xlink:href="#DejaVuSans-65" transform="translate(476.953125 0)"/>
      <use xlink:href="#DejaVuSans-73" transform="translate(538.476562 0)"/>
      <use xlink:href="#DejaVuSans-20" transform="translate(590.576172 0)"/>
      <use xlink:href="#DejaVuSans-3d" transform="translate(622.363281 0)"/>
      <use xlink:href="#DejaVuSans-20" transform="translate(706.152344 0)"/>
      <use xlink:href="#DejaVuSans-31" transform="translate(737.939453 0)"/>
      <use xlink:href="#DejaVuSans-30" transform="translate(801.5625 0)"/>
      <use xlink:href="#DejaVuSans-30" transform="translate(865.185547 0)"/>
     </g>
    </g>
   </g>
  </g>
 </g>
 <defs>
  <clipPath id="pd26dfc67a7">
   <rect x="45.478125" y="22.318125" width="659.049791" height="220.6"/>
  </clipPath>
 </defs>
</svg>
