<?xml version="1.0" encoding="utf-8" standalone="no"?>
<!DOCTYPE svg PUBLIC "-//W3C//DTD SVG 1.1//EN"
  "http://www.w3.org/Graphics/SVG/1.1/DTD/svg11.dtd">
<svg xmlns:xlink="http://www.w3.org/1999/xlink" width="996.723906pt" height="348.651094pt" viewBox="0 0 996.723906 348.651094" xmlns="http://www.w3.org/2000/svg" version="1.1">
 <metadata>
  <rdf:RDF xmlns:dc="http://purl.org/dc/elements/1.1/" xmlns:cc="http://creativecommons.org/ns#" xmlns:rdf="http://www.w3.org/1999/02/22-rdf-syntax-ns#">
   <cc:Work>
    <dc:type rdf:resource="http://purl.org/dc/dcmitype/StillImage"/>
    <dc:date>2026-03-17T14:01:35.631207</dc:date>
    <dc:format>image/svg+xml</dc:format>
    <dc:creator>
     <cc:Agent>
      <dc:title>Matplotlib v3.10.8, https://matplotlib.org/</dc:title>
     </cc:Agent>
    </dc:creator>
   </cc:Work>
  </rdf:RDF>
 </metadata>
 <defs>
  <style type="text/css">*{stroke-linejoin: round; stroke-linecap: butt}</style>
 </defs>
 <g id="figure_1">
  <g id="patch_1">
   <path d="M 0 348.651094 
L 996.723906 348.651094 
L 996.723906 0 
L 0 0 
z
" style="fill: #ffffff"/>
  </g>
  <g id="axes_1">
   <g id="patch_2">
    <path d="M 62.546406 306.916875 
L 989.523906 306.916875 
L 989.523906 21.935625 
L 62.546406 21.935625 
z
" style="fill: #ffffff"/>
   </g>
   <g id="matplotlib.axis_1">
    <g id="xtick_1">
     <g id="line2d_1">
      <path d="M 72.622249 306.916875 
L 72.622249 21.935625 
" clip-path="url(#p6bb8a676c7)" style="fill: none; stroke: #cccccc; stroke-linecap: round"/>
     </g>
     <g id="text_1">
      <!-- 2011-06 -->
      <g style="fill: #262626" transform="translate(52.845452 324.290469) scale(0.11 -0.11)">
       <defs>
        <path id="ArialMT-32" d="M 3222 541 
L 3222 0 
L 194 0 
Q 188 203 259 391 
Q 375 700 629 1000 
Q 884 1300 1366 1694 
Q 2113 2306 2375 2664 
Q 2638 3022 2638 3341 
Q 2638 3675 2398 3904 
Q 2159 4134 1775 4134 
Q 1369 4134 1125 3890 
Q 881 3647 878 3216 
L 300 3275 
Q 359 3922 746 4261 
Q 1134 4600 1788 4600 
Q 2447 4600 2831 4234 
Q 3216 3869 3216 3328 
Q 3216 3053 3103 2787 
Q 2991 2522 2730 2228 
Q 2469 1934 1863 1422 
Q 1356 997 1212 845 
Q 1069 694 975 541 
L 3222 541 
z
" transform="scale(0.015625)"/>
        <path id="ArialMT-30" d="M 266 2259 
Q 266 3072 433 3567 
Q 600 4063 929 4331 
Q 1259 4600 1759 4600 
Q 2128 4600 2406 4451 
Q 2684 4303 2865 4023 
Q 3047 3744 3150 3342 
Q 3253 2941 3253 2259 
Q 3253 1453 3087 958 
Q 2922 463 2592 192 
Q 2263 -78 1759 -78 
Q 1097 -78 719 397 
Q 266 969 266 2259 
z
M 844 2259 
Q 844 1131 1108 757 
Q 1372 384 1759 384 
Q 2147 384 2411 759 
Q 2675 1134 2675 2259 
Q 2675 3391 2411 3762 
Q 2147 4134 1753 4134 
Q 1366 4134 1134 3806 
Q 844 3388 844 2259 
z
" transform="scale(0.015625)"/>
        <path id="ArialMT-31" d="M 2384 0 
L 1822 0 
L 1822 3584 
Q 1619 3391 1289 3197 
Q 959 3003 697 2906 
L 697 3450 
Q 1169 3672 1522 3987 
Q 1875 4303 2022 4600 
L 2384 4600 
L 2384 0 
z
" transform="scale(0.015625)"/>
        <path id="ArialMT-2d" d="M 203 1375 
L 203 1941 
L 1931 1941 
L 1931 1375 
L 203 1375 
z
" transform="scale(0.015625)"/>
        <path id="ArialMT-36" d="M 3184 3459 
L 2625 3416 
Q 2550 3747 2413 3897 
Q 2184 4138 1850 4138 
Q 1581 4138 1378 3988 
Q 1113 3794 959 3422 
Q 806 3050 800 2363 
Q 1003 2672 1297 2822 
Q 1591 2972 1913 2972 
Q 2475 2972 2870 2558 
Q 3266 2144 3266 1488 
Q 3266 1056 3080 686 
Q 2894 316 2569 119 
Q 2244 -78 1831 -78 
Q 1128 -78 684 439 
Q 241 956 241 2144 
Q 241 3472 731 4075 
Q 1159 4600 1884 4600 
Q 2425 4600 2770 4297 
Q 3116 3994 3184 3459 
z
M 888 1484 
Q 888 1194 1011 928 
Q 1134 663 1356 523 
Q 1578 384 1822 384 
Q 2178 384 2434 671 
Q 2691 959 2691 1453 
Q 2691 1928 2437 2201 
Q 2184 2475 1800 2475 
Q 1419 2475 1153 2201 
Q 888 1928 888 1484 
z
" transform="scale(0.015625)"/>
       </defs>
       <use xlink:href="#ArialMT-32"/>
       <use xlink:href="#ArialMT-30" transform="translate(55.615234 0)"/>
       <use xlink:href="#ArialMT-31" transform="translate(111.230469 0)"/>
       <use xlink:href="#ArialMT-31" transform="translate(159.470703 0)"/>
       <use xlink:href="#ArialMT-2d" transform="translate(215.085938 0)"/>
       <use xlink:href="#ArialMT-30" transform="translate(248.386719 0)"/>
       <use xlink:href="#ArialMT-36" transform="translate(304.001953 0)"/>
      </g>
     </g>
    </g>
    <g id="xtick_2">
     <g id="line2d_2">
      <path d="M 210.020099 306.916875 
L 210.020099 21.935625 
" clip-path="url(#p6bb8a676c7)" style="fill: none; stroke: #cccccc; stroke-linecap: round"/>
     </g>
     <g id="text_2">
      <!-- 2011-07 -->
      <g style="fill: #262626" transform="translate(190.243303 324.290469) scale(0.11 -0.11)">
       <defs>
        <path id="ArialMT-37" d="M 303 3981 
L 303 4522 
L 3269 4522 
L 3269 4084 
Q 2831 3619 2401 2847 
Q 1972 2075 1738 1259 
Q 1569 684 1522 0 
L 944 0 
Q 953 541 1156 1306 
Q 1359 2072 1739 2783 
Q 2119 3494 2547 3981 
L 303 3981 
z
" transform="scale(0.015625)"/>
       </defs>
       <use xlink:href="#ArialMT-32"/>
       <use xlink:href="#ArialMT-30" transform="translate(55.615234 0)"/>
       <use xlink:href="#ArialMT-31" transform="translate(111.230469 0)"/>
       <use xlink:href="#ArialMT-31" transform="translate(159.470703 0)"/>
       <use xlink:href="#ArialMT-2d" transform="translate(215.085938 0)"/>
       <use xlink:href="#ArialMT-30" transform="translate(248.386719 0)"/>
       <use xlink:href="#ArialMT-37" transform="translate(304.001953 0)"/>
      </g>
     </g>
    </g>
    <g id="xtick_3">
     <g id="line2d_3">
      <path d="M 351.997879 306.916875 
L 351.997879 21.935625 
" clip-path="url(#p6bb8a676c7)" style="fill: none; stroke: #cccccc; stroke-linecap: round"/>
     </g>
     <g id="text_3">
      <!-- 2011-08 -->
      <g style="fill: #262626" transform="translate(332.221082 324.290469) scale(0.11 -0.11)">
       <defs>
        <path id="ArialMT-38" d="M 1131 2484 
Q 781 2613 612 2850 
Q 444 3088 444 3419 
Q 444 3919 803 4259 
Q 1163 4600 1759 4600 
Q 2359 4600 2725 4251 
Q 3091 3903 3091 3403 
Q 3091 3084 2923 2848 
Q 2756 2613 2416 2484 
Q 2838 2347 3058 2040 
Q 3278 1734 3278 1309 
Q 3278 722 2862 322 
Q 2447 -78 1769 -78 
Q 1091 -78 675 323 
Q 259 725 259 1325 
Q 259 1772 486 2073 
Q 713 2375 1131 2484 
z
M 1019 3438 
Q 1019 3113 1228 2906 
Q 1438 2700 1772 2700 
Q 2097 2700 2305 2904 
Q 2513 3109 2513 3406 
Q 2513 3716 2298 3927 
Q 2084 4138 1766 4138 
Q 1444 4138 1231 3931 
Q 1019 3725 1019 3438 
z
M 838 1322 
Q 838 1081 952 856 
Q 1066 631 1291 507 
Q 1516 384 1775 384 
Q 2178 384 2440 643 
Q 2703 903 2703 1303 
Q 2703 1709 2433 1975 
Q 2163 2241 1756 2241 
Q 1359 2241 1098 1978 
Q 838 1716 838 1322 
z
" transform="scale(0.015625)"/>
       </defs>
       <use xlink:href="#ArialMT-32"/>
       <use xlink:href="#ArialMT-30" transform="translate(55.615234 0)"/>
       <use xlink:href="#ArialMT-31" transform="translate(111.230469 0)"/>
       <use xlink:href="#ArialMT-31" transform="translate(159.470703 0)"/>
       <use xlink:href="#ArialMT-2d" transform="translate(215.085938 0)"/>
       <use xlink:href="#ArialMT-30" transform="translate(248.386719 0)"/>
       <use xlink:href="#ArialMT-38" transform="translate(304.001953 0)"/>
      </g>
     </g>
    </g>
    <g id="xtick_4">
     <g id="line2d_4">
      <path d="M 493.975658 306.916875 
L 493.975658 21.935625 
" clip-path="url(#p6bb8a676c7)" style="fill: none; stroke: #cccccc; stroke-linecap: round"/>
     </g>
     <g id="text_4">
      <!-- 2011-09 -->
      <g style="fill: #262626" transform="translate(474.198861 324.290469) scale(0.11 -0.11)">
       <defs>
        <path id="ArialMT-39" d="M 350 1059 
L 891 1109 
Q 959 728 1153 556 
Q 1347 384 1650 384 
Q 1909 384 2104 503 
Q 2300 622 2425 820 
Q 2550 1019 2634 1356 
Q 2719 1694 2719 2044 
Q 2719 2081 2716 2156 
Q 2547 1888 2255 1720 
Q 1963 1553 1622 1553 
Q 1053 1553 659 1965 
Q 266 2378 266 3053 
Q 266 3750 677 4175 
Q 1088 4600 1706 4600 
Q 2153 4600 2523 4359 
Q 2894 4119 3086 3673 
Q 3278 3228 3278 2384 
Q 3278 1506 3087 986 
Q 2897 466 2520 194 
Q 2144 -78 1638 -78 
Q 1100 -78 759 220 
Q 419 519 350 1059 
z
M 2653 3081 
Q 2653 3566 2395 3850 
Q 2138 4134 1775 4134 
Q 1400 4134 1122 3828 
Q 844 3522 844 3034 
Q 844 2597 1108 2323 
Q 1372 2050 1759 2050 
Q 2150 2050 2401 2323 
Q 2653 2597 2653 3081 
z
" transform="scale(0.015625)"/>
       </defs>
       <use xlink:href="#ArialMT-32"/>
       <use xlink:href="#ArialMT-30" transform="translate(55.615234 0)"/>
       <use xlink:href="#ArialMT-31" transform="translate(111.230469 0)"/>
       <use xlink:href="#ArialMT-31" transform="translate(159.470703 0)"/>
       <use xlink:href="#ArialMT-2d" transform="translate(215.085938 0)"/>
       <use xlink:href="#ArialMT-30" transform="translate(248.386719 0)"/>
       <use xlink:href="#ArialMT-39" transform="translate(304.001953 0)"/>
      </g>
     </g>
    </g>
    <g id="xtick_5">
     <g id="line2d_5">
      <path d="M 631.373509 306.916875 
L 631.373509 21.935625 
" clip-path="url(#p6bb8a676c7)" style="fill: none; stroke: #cccccc; stroke-linecap: round"/>
     </g>
     <g id="text_5">
      <!-- 2011-10 -->
      <g style="fill: #262626" transform="translate(611.596712 324.290469) scale(0.11 -0.11)">
       <use xlink:href="#ArialMT-32"/>
       <use xlink:href="#ArialMT-30" transform="translate(55.615234 0)"/>
       <use xlink:href="#ArialMT-31" transform="translate(111.230469 0)"/>
       <use xlink:href="#ArialMT-31" transform="translate(159.470703 0)"/>
       <use xlink:href="#ArialMT-2d" transform="translate(215.085938 0)"/>
       <use xlink:href="#ArialMT-31" transform="translate(248.386719 0)"/>
       <use xlink:href="#ArialMT-30" transform="translate(304.001953 0)"/>
      </g>
     </g>
    </g>
    <g id="xtick_6">
     <g id="line2d_6">
      <path d="M 773.351288 306.916875 
L 773.351288 21.935625 
" clip-path="url(#p6bb8a676c7)" style="fill: none; stroke: #cccccc; stroke-linecap: round"/>
     </g>
     <g id="text_6">
      <!-- 2011-11 -->
      <g style="fill: #262626" transform="translate(753.980116 324.290469) scale(0.11 -0.11)">
       <use xlink:href="#ArialMT-32"/>
       <use xlink:href="#ArialMT-30" transform="translate(55.615234 0)"/>
       <use xlink:href="#ArialMT-31" transform="translate(111.230469 0)"/>
       <use xlink:href="#ArialMT-31" transform="translate(159.470703 0)"/>
       <use xlink:href="#ArialMT-2d" transform="translate(215.085938 0)"/>
       <use xlink:href="#ArialMT-31" transform="translate(248.386719 0)"/>
       <use xlink:href="#ArialMT-31" transform="translate(296.626953 0)"/>
      </g>
     </g>
    </g>
    <g id="xtick_7">
     <g id="line2d_7">
      <path d="M 910.749138 306.916875 
L 910.749138 21.935625 
" clip-path="url(#p6bb8a676c7)" style="fill: none; stroke: #cccccc; stroke-linecap: round"/>
     </g>
     <g id="text_7">
      <!-- 2011-12 -->
      <g style="fill: #262626" transform="translate(890.972342 324.290469) scale(0.11 -0.11)">
       <use xlink:href="#ArialMT-32"/>
       <use xlink:href="#ArialMT-30" transform="translate(55.615234 0)"/>
       <use xlink:href="#ArialMT-31" transform="translate(111.230469 0)"/>
       <use xlink:href="#ArialMT-31" transform="translate(159.470703 0)"/>
       <use xlink:href="#ArialMT-2d" transform="translate(215.085938 0)"/>
       <use xlink:href="#ArialMT-31" transform="translate(248.386719 0)"/>
       <use xlink:href="#ArialMT-32" transform="translate(304.001953 0)"/>
      </g>
     </g>
    </g>
    <g id="text_8">
     <!-- Date -->
     <g style="fill: #262626" transform="translate(513.362031 339.066094) scale(0.12 -0.12)">
      <defs>
       <path id="ArialMT-44" d="M 494 0 
L 494 4581 
L 2072 4581 
Q 2606 4581 2888 4516 
Q 3281 4425 3559 4188 
Q 3922 3881 4101 3404 
Q 4281 2928 4281 2316 
Q 4281 1794 4159 1391 
Q 4038 988 3847 723 
Q 3656 459 3429 307 
Q 3203 156 2883 78 
Q 2563 0 2147 0 
L 494 0 
z
M 1100 541 
L 2078 541 
Q 2531 541 2789 625 
Q 3047 709 3200 863 
Q 3416 1078 3536 1442 
Q 3656 1806 3656 2325 
Q 3656 3044 3420 3430 
Q 3184 3816 2847 3947 
Q 2603 4041 2063 4041 
L 1100 4041 
L 1100 541 
z
" transform="scale(0.015625)"/>
       <path id="ArialMT-61" d="M 2588 409 
Q 2275 144 1986 34 
Q 1697 -75 1366 -75 
Q 819 -75 525 192 
Q 231 459 231 875 
Q 231 1119 342 1320 
Q 453 1522 633 1644 
Q 813 1766 1038 1828 
Q 1203 1872 1538 1913 
Q 2219 1994 2541 2106 
Q 2544 2222 2544 2253 
Q 2544 2597 2384 2738 
Q 2169 2928 1744 2928 
Q 1347 2928 1158 2789 
Q 969 2650 878 2297 
L 328 2372 
Q 403 2725 575 2942 
Q 747 3159 1072 3276 
Q 1397 3394 1825 3394 
Q 2250 3394 2515 3294 
Q 2781 3194 2906 3042 
Q 3031 2891 3081 2659 
Q 3109 2516 3109 2141 
L 3109 1391 
Q 3109 606 3145 398 
Q 3181 191 3288 0 
L 2700 0 
Q 2613 175 2588 409 
z
M 2541 1666 
Q 2234 1541 1622 1453 
Q 1275 1403 1131 1340 
Q 988 1278 909 1158 
Q 831 1038 831 891 
Q 831 666 1001 516 
Q 1172 366 1500 366 
Q 1825 366 2078 508 
Q 2331 650 2450 897 
Q 2541 1088 2541 1459 
L 2541 1666 
z
" transform="scale(0.015625)"/>
       <path id="ArialMT-74" d="M 1650 503 
L 1731 6 
Q 1494 -44 1306 -44 
Q 1000 -44 831 53 
Q 663 150 594 308 
Q 525 466 525 972 
L 525 2881 
L 113 2881 
L 113 3319 
L 525 3319 
L 525 4141 
L 1084 4478 
L 1084 3319 
L 1650 3319 
L 1650 2881 
L 1084 2881 
L 1084 941 
Q 1084 700 1114 631 
Q 1144 563 1211 522 
Q 1278 481 1403 481 
Q 1497 481 1650 503 
z
" transform="scale(0.015625)"/>
       <path id="ArialMT-65" d="M 2694 1069 
L 3275 997 
Q 3138 488 2766 206 
Q 2394 -75 1816 -75 
Q 1088 -75 661 373 
Q 234 822 234 1631 
Q 234 2469 665 2931 
Q 1097 3394 1784 3394 
Q 2450 3394 2872 2941 
Q 3294 2488 3294 1666 
Q 3294 1616 3291 1516 
L 816 1516 
Q 847 969 1125 678 
Q 1403 388 1819 388 
Q 2128 388 2347 550 
Q 2566 713 2694 1069 
z
M 847 1978 
L 2700 1978 
Q 2663 2397 2488 2606 
Q 2219 2931 1791 2931 
Q 1403 2931 1139 2672 
Q 875 2413 847 1978 
z
" transform="scale(0.015625)"/>
      </defs>
      <use xlink:href="#ArialMT-44"/>
      <use xlink:href="#ArialMT-61" transform="translate(72.216797 0)"/>
      <use xlink:href="#ArialMT-74" transform="translate(127.832031 0)"/>
      <use xlink:href="#ArialMT-65" transform="translate(155.615234 0)"/>
     </g>
    </g>
   </g>
   <g id="matplotlib.axis_2">
    <g id="ytick_1">
     <g id="line2d_8">
      <path d="M 62.546406 293.963182 
L 989.523906 293.963182 
" clip-path="url(#p6bb8a676c7)" style="fill: none; stroke: #cccccc; stroke-linecap: round"/>
     </g>
     <g id="text_9">
      <!-- 0 -->
      <g style="fill: #262626" transform="translate(46.929375 297.899979) scale(0.11 -0.11)">
       <use xlink:href="#ArialMT-30"/>
      </g>
     </g>
    </g>
    <g id="ytick_2">
     <g id="line2d_9">
      <path d="M 62.546406 256.119308 
L 989.523906 256.119308 
" clip-path="url(#p6bb8a676c7)" style="fill: none; stroke: #cccccc; stroke-linecap: round"/>
     </g>
     <g id="text_10">
      <!-- 2000 -->
      <g style="fill: #262626" transform="translate(28.578281 260.056105) scale(0.11 -0.11)">
       <use xlink:href="#ArialMT-32"/>
       <use xlink:href="#ArialMT-30" transform="translate(55.615234 0)"/>
       <use xlink:href="#ArialMT-30" transform="translate(111.230469 0)"/>
       <use xlink:href="#ArialMT-30" transform="translate(166.845703 0)"/>
      </g>
     </g>
    </g>
    <g id="ytick_3">
     <g id="line2d_10">
      <path d="M 62.546406 218.275434 
L 989.523906 218.275434 
" clip-path="url(#p6bb8a676c7)" style="fill: none; stroke: #cccccc; stroke-linecap: round"/>
     </g>
     <g id="text_11">
      <!-- 4000 -->
      <g style="fill: #262626" transform="translate(28.578281 222.212231) scale(0.11 -0.11)">
       <defs>
        <path id="ArialMT-34" d="M 2069 0 
L 2069 1097 
L 81 1097 
L 81 1613 
L 2172 4581 
L 2631 4581 
L 2631 1613 
L 3250 1613 
L 3250 1097 
L 2631 1097 
L 2631 0 
L 2069 0 
z
M 2069 1613 
L 2069 3678 
L 634 1613 
L 2069 1613 
z
" transform="scale(0.015625)"/>
       </defs>
       <use xlink:href="#ArialMT-34"/>
       <use xlink:href="#ArialMT-30" transform="translate(55.615234 0)"/>
       <use xlink:href="#ArialMT-30" transform="translate(111.230469 0)"/>
       <use xlink:href="#ArialMT-30" transform="translate(166.845703 0)"/>
      </g>
     </g>
    </g>
    <g id="ytick_4">
     <g id="line2d_11">
      <path d="M 62.546406 180.43156 
L 989.523906 180.43156 
" clip-path="url(#p6bb8a676c7)" style="fill: none; stroke: #cccccc; stroke-linecap: round"/>
     </g>
     <g id="text_12">
      <!-- 6000 -->
      <g style="fill: #262626" transform="translate(28.578281 184.368357) scale(0.11 -0.11)">
       <use xlink:href="#ArialMT-36"/>
       <use xlink:href="#ArialMT-30" transform="translate(55.615234 0)"/>
       <use xlink:href="#ArialMT-30" transform="translate(111.230469 0)"/>
       <use xlink:href="#ArialMT-30" transform="translate(166.845703 0)"/>
      </g>
     </g>
    </g>
    <g id="ytick_5">
     <g id="line2d_12">
      <path d="M 62.546406 142.587686 
L 989.523906 142.587686 
" clip-path="url(#p6bb8a676c7)" style="fill: none; stroke: #cccccc; stroke-linecap: round"/>
     </g>
     <g id="text_13">
      <!-- 8000 -->
      <g style="fill: #262626" transform="translate(28.578281 146.524482) scale(0.11 -0.11)">
       <use xlink:href="#ArialMT-38"/>
       <use xlink:href="#ArialMT-30" transform="translate(55.615234 0)"/>
       <use xlink:href="#ArialMT-30" transform="translate(111.230469 0)"/>
       <use xlink:href="#ArialMT-30" transform="translate(166.845703 0)"/>
      </g>
     </g>
    </g>
    <g id="ytick_6">
     <g id="line2d_13">
      <path d="M 62.546406 104.743812 
L 989.523906 104.743812 
" clip-path="url(#p6bb8a676c7)" style="fill: none; stroke: #cccccc; stroke-linecap: round"/>
     </g>
     <g id="text_14">
      <!-- 10000 -->
      <g style="fill: #262626" transform="translate(22.46125 108.680608) scale(0.11 -0.11)">
       <use xlink:href="#ArialMT-31"/>
       <use xlink:href="#ArialMT-30" transform="translate(55.615234 0)"/>
       <use xlink:href="#ArialMT-30" transform="translate(111.230469 0)"/>
       <use xlink:href="#ArialMT-30" transform="translate(166.845703 0)"/>
       <use xlink:href="#ArialMT-30" transform="translate(222.460938 0)"/>
      </g>
     </g>
    </g>
    <g id="ytick_7">
     <g id="line2d_14">
      <path d="M 62.546406 66.899937 
L 989.523906 66.899937 
" clip-path="url(#p6bb8a676c7)" style="fill: none; stroke: #cccccc; stroke-linecap: round"/>
     </g>
     <g id="text_15">
      <!-- 12000 -->
      <g style="fill: #262626" transform="translate(22.46125 70.836734) scale(0.11 -0.11)">
       <use xlink:href="#ArialMT-31"/>
       <use xlink:href="#ArialMT-32" transform="translate(55.615234 0)"/>
       <use xlink:href="#ArialMT-30" transform="translate(111.230469 0)"/>
       <use xlink:href="#ArialMT-30" transform="translate(166.845703 0)"/>
       <use xlink:href="#ArialMT-30" transform="translate(222.460938 0)"/>
      </g>
     </g>
    </g>
    <g id="ytick_8">
     <g id="line2d_15">
      <path d="M 62.546406 29.056063 
L 989.523906 29.056063 
" clip-path="url(#p6bb8a676c7)" style="fill: none; stroke: #cccccc; stroke-linecap: round"/>
     </g>
     <g id="text_16">
      <!-- 14000 -->
      <g style="fill: #262626" transform="translate(22.46125 32.99286) scale(0.11 -0.11)">
       <use xlink:href="#ArialMT-31"/>
       <use xlink:href="#ArialMT-34" transform="translate(55.615234 0)"/>
       <use xlink:href="#ArialMT-30" transform="translate(111.230469 0)"/>
       <use xlink:href="#ArialMT-30" transform="translate(166.845703 0)"/>
       <use xlink:href="#ArialMT-30" transform="translate(222.460938 0)"/>
      </g>
     </g>
    </g>
    <g id="text_17">
     <!-- Cluster daily total_sales -->
     <g style="fill: #262626" transform="translate(15.935625 227.78625) rotate(-90) scale(0.12 -0.12)">
      <defs>
       <path id="ArialMT-43" d="M 3763 1606 
L 4369 1453 
Q 4178 706 3683 314 
Q 3188 -78 2472 -78 
Q 1731 -78 1267 223 
Q 803 525 561 1097 
Q 319 1669 319 2325 
Q 319 3041 592 3573 
Q 866 4106 1370 4382 
Q 1875 4659 2481 4659 
Q 3169 4659 3637 4309 
Q 4106 3959 4291 3325 
L 3694 3184 
Q 3534 3684 3231 3912 
Q 2928 4141 2469 4141 
Q 1941 4141 1586 3887 
Q 1231 3634 1087 3207 
Q 944 2781 944 2328 
Q 944 1744 1114 1308 
Q 1284 872 1643 656 
Q 2003 441 2422 441 
Q 2931 441 3284 734 
Q 3638 1028 3763 1606 
z
" transform="scale(0.015625)"/>
       <path id="ArialMT-6c" d="M 409 0 
L 409 4581 
L 972 4581 
L 972 0 
L 409 0 
z
" transform="scale(0.015625)"/>
       <path id="ArialMT-75" d="M 2597 0 
L 2597 488 
Q 2209 -75 1544 -75 
Q 1250 -75 995 37 
Q 741 150 617 320 
Q 494 491 444 738 
Q 409 903 409 1263 
L 409 3319 
L 972 3319 
L 972 1478 
Q 972 1038 1006 884 
Q 1059 663 1231 536 
Q 1403 409 1656 409 
Q 1909 409 2131 539 
Q 2353 669 2445 892 
Q 2538 1116 2538 1541 
L 2538 3319 
L 3100 3319 
L 3100 0 
L 2597 0 
z
" transform="scale(0.015625)"/>
       <path id="ArialMT-73" d="M 197 991 
L 753 1078 
Q 800 744 1014 566 
Q 1228 388 1613 388 
Q 2000 388 2187 545 
Q 2375 703 2375 916 
Q 2375 1106 2209 1216 
Q 2094 1291 1634 1406 
Q 1016 1563 777 1677 
Q 538 1791 414 1992 
Q 291 2194 291 2438 
Q 291 2659 392 2848 
Q 494 3038 669 3163 
Q 800 3259 1026 3326 
Q 1253 3394 1513 3394 
Q 1903 3394 2198 3281 
Q 2494 3169 2634 2976 
Q 2775 2784 2828 2463 
L 2278 2388 
Q 2241 2644 2061 2787 
Q 1881 2931 1553 2931 
Q 1166 2931 1000 2803 
Q 834 2675 834 2503 
Q 834 2394 903 2306 
Q 972 2216 1119 2156 
Q 1203 2125 1616 2013 
Q 2213 1853 2448 1751 
Q 2684 1650 2818 1456 
Q 2953 1263 2953 975 
Q 2953 694 2789 445 
Q 2625 197 2315 61 
Q 2006 -75 1616 -75 
Q 969 -75 630 194 
Q 291 463 197 991 
z
" transform="scale(0.015625)"/>
       <path id="ArialMT-72" d="M 416 0 
L 416 3319 
L 922 3319 
L 922 2816 
Q 1116 3169 1280 3281 
Q 1444 3394 1641 3394 
Q 1925 3394 2219 3213 
L 2025 2691 
Q 1819 2813 1613 2813 
Q 1428 2813 1281 2702 
Q 1134 2591 1072 2394 
Q 978 2094 978 1738 
L 978 0 
L 416 0 
z
" transform="scale(0.015625)"/>
       <path id="ArialMT-20" transform="scale(0.015625)"/>
       <path id="ArialMT-64" d="M 2575 0 
L 2575 419 
Q 2259 -75 1647 -75 
Q 1250 -75 917 144 
Q 584 363 401 755 
Q 219 1147 219 1656 
Q 219 2153 384 2558 
Q 550 2963 881 3178 
Q 1213 3394 1622 3394 
Q 1922 3394 2156 3267 
Q 2391 3141 2538 2938 
L 2538 4581 
L 3097 4581 
L 3097 0 
L 2575 0 
z
M 797 1656 
Q 797 1019 1065 703 
Q 1334 388 1700 388 
Q 2069 388 2326 689 
Q 2584 991 2584 1609 
Q 2584 2291 2321 2609 
Q 2059 2928 1675 2928 
Q 1300 2928 1048 2622 
Q 797 2316 797 1656 
z
" transform="scale(0.015625)"/>
       <path id="ArialMT-69" d="M 425 3934 
L 425 4581 
L 988 4581 
L 988 3934 
L 425 3934 
z
M 425 0 
L 425 3319 
L 988 3319 
L 988 0 
L 425 0 
z
" transform="scale(0.015625)"/>
       <path id="ArialMT-79" d="M 397 -1278 
L 334 -750 
Q 519 -800 656 -800 
Q 844 -800 956 -737 
Q 1069 -675 1141 -563 
Q 1194 -478 1313 -144 
Q 1328 -97 1363 -6 
L 103 3319 
L 709 3319 
L 1400 1397 
Q 1534 1031 1641 628 
Q 1738 1016 1872 1384 
L 2581 3319 
L 3144 3319 
L 1881 -56 
Q 1678 -603 1566 -809 
Q 1416 -1088 1222 -1217 
Q 1028 -1347 759 -1347 
Q 597 -1347 397 -1278 
z
" transform="scale(0.015625)"/>
       <path id="ArialMT-6f" d="M 213 1659 
Q 213 2581 725 3025 
Q 1153 3394 1769 3394 
Q 2453 3394 2887 2945 
Q 3322 2497 3322 1706 
Q 3322 1066 3130 698 
Q 2938 331 2570 128 
Q 2203 -75 1769 -75 
Q 1072 -75 642 372 
Q 213 819 213 1659 
z
M 791 1659 
Q 791 1022 1069 705 
Q 1347 388 1769 388 
Q 2188 388 2466 706 
Q 2744 1025 2744 1678 
Q 2744 2294 2464 2611 
Q 2184 2928 1769 2928 
Q 1347 2928 1069 2612 
Q 791 2297 791 1659 
z
" transform="scale(0.015625)"/>
       <path id="ArialMT-5f" d="M -97 -1272 
L -97 -866 
L 3631 -866 
L 3631 -1272 
L -97 -1272 
z
" transform="scale(0.015625)"/>
      </defs>
      <use xlink:href="#ArialMT-43"/>
      <use xlink:href="#ArialMT-6c" transform="translate(72.216797 0)"/>
      <use xlink:href="#ArialMT-75" transform="translate(94.433594 0)"/>
      <use xlink:href="#ArialMT-73" transform="translate(150.048828 0)"/>
      <use xlink:href="#ArialMT-74" transform="translate(200.048828 0)"/>
      <use xlink:href="#ArialMT-65" transform="translate(227.832031 0)"/>
      <use xlink:href="#ArialMT-72" transform="translate(283.447266 0)"/>
      <use xlink:href="#ArialMT-20" transform="translate(316.748047 0)"/>
      <use xlink:href="#ArialMT-64" transform="translate(344.53125 0)"/>
      <use xlink:href="#ArialMT-61" transform="translate(400.146484 0)"/>
      <use xlink:href="#ArialMT-69" transform="translate(455.761719 0)"/>
      <use xlink:href="#ArialMT-6c" transform="translate(477.978516 0)"/>
      <use xlink:href="#ArialMT-79" transform="translate(500.195312 0)"/>
      <use xlink:href="#ArialMT-20" transform="translate(550.195312 0)"/>
      <use xlink:href="#ArialMT-74" transform="translate(577.978516 0)"/>
      <use xlink:href="#ArialMT-6f" transform="translate(605.761719 0)"/>
      <use xlink:href="#ArialMT-74" transform="translate(661.376953 0)"/>
      <use xlink:href="#ArialMT-61" transform="translate(689.160156 0)"/>
      <use xlink:href="#ArialMT-6c" transform="translate(744.775391 0)"/>
      <use xlink:href="#ArialMT-5f" transform="translate(766.992188 0)"/>
      <use xlink:href="#ArialMT-73" transform="translate(822.607422 0)"/>
      <use xlink:href="#ArialMT-61" transform="translate(872.607422 0)"/>
      <use xlink:href="#ArialMT-6c" transform="translate(928.222656 0)"/>
      <use xlink:href="#ArialMT-65" transform="translate(950.439453 0)"/>
      <use xlink:href="#ArialMT-73" transform="translate(1006.054688 0)"/>
     </g>
    </g>
   </g>
   <g id="FillBetweenPolyCollection_1">
    <defs>
     <path id="m0b3a7a649c" d="M 104.681747 -130.367822 
L 104.681747 -54.687912 
L 109.261676 -54.687912 
L 113.841604 -54.687912 
L 118.421532 -54.687912 
L 123.001461 -54.687912 
L 127.581389 -54.687912 
L 132.161317 -54.687912 
L 136.741246 -54.687912 
L 141.321174 -54.687912 
L 145.901102 -54.687912 
L 150.481031 -54.687912 
L 155.060959 -54.687912 
L 159.640887 -54.687912 
L 164.220816 -54.687912 
L 168.800744 -54.687912 
L 173.380673 -54.687912 
L 177.960601 -54.687912 
L 182.540529 -54.687912 
L 187.120458 -54.687912 
L 191.700386 -54.687912 
L 196.280314 -54.687912 
L 200.860243 -54.687912 
L 205.440171 -54.687912 
L 210.020099 -54.687912 
L 214.600028 -54.687912 
L 219.179956 -54.687912 
L 223.759885 -54.687912 
L 228.339813 -54.687912 
L 232.919741 -54.687912 
L 237.49967 -54.687912 
L 242.079598 -54.687912 
L 246.659526 -54.687912 
L 251.239455 -54.687912 
L 255.819383 -54.687912 
L 260.399311 -54.687912 
L 264.97924 -54.687912 
L 269.559168 -54.687912 
L 274.139096 -54.687912 
L 278.719025 -54.687912 
L 283.298953 -54.687912 
L 287.878882 -54.687912 
L 292.45881 -54.687912 
L 297.038738 -54.687912 
L 301.618667 -54.687912 
L 306.198595 -54.687912 
L 310.778523 -54.687912 
L 315.358452 -54.687912 
L 319.93838 -54.687912 
L 324.518308 -54.687912 
L 329.098237 -54.687912 
L 333.678165 -54.687912 
L 338.258094 -54.687912 
L 342.838022 -54.687912 
L 347.41795 -54.687912 
L 351.997879 -54.687912 
L 356.577807 -54.687912 
L 361.157735 -54.687912 
L 365.737664 -54.687912 
L 370.317592 -54.687912 
L 374.89752 -54.687912 
L 379.477449 -54.687912 
L 384.057377 -54.687912 
L 388.637305 -54.687912 
L 393.217234 -54.687912 
L 397.797162 -54.687912 
L 402.377091 -54.687912 
L 406.957019 -54.687912 
L 411.536947 -54.687912 
L 416.116876 -54.687912 
L 420.696804 -54.687912 
L 425.276732 -54.687912 
L 429.856661 -54.687912 
L 434.436589 -54.687912 
L 439.016517 -54.687912 
L 443.596446 -54.687912 
L 448.176374 -54.687912 
L 452.756302 -54.687912 
L 457.336231 -54.687912 
L 461.916159 -54.687912 
L 466.496088 -54.687912 
L 471.076016 -54.687912 
L 475.655944 -54.687912 
L 480.235873 -54.687912 
L 484.815801 -54.687912 
L 489.395729 -54.687912 
L 493.975658 -54.687912 
L 498.555586 -54.687912 
L 503.135514 -54.687912 
L 507.715443 -54.687912 
L 512.295371 -54.687912 
L 516.8753 -54.687912 
L 521.455228 -54.687912 
L 526.035156 -54.687912 
L 530.615085 -54.687912 
L 535.195013 -54.687912 
L 539.774941 -54.687912 
L 544.35487 -54.687912 
L 548.934798 -54.687912 
L 553.514726 -54.687912 
L 558.094655 -54.687912 
L 562.674583 -54.687912 
L 567.254511 -54.687912 
L 571.83444 -54.687912 
L 576.414368 -54.687912 
L 580.994297 -54.687912 
L 585.574225 -54.687912 
L 590.154153 -54.687912 
L 594.734082 -54.687912 
L 599.31401 -54.687912 
L 603.893938 -54.687912 
L 608.473867 -54.687912 
L 613.053795 -54.687912 
L 617.633723 -54.687912 
L 622.213652 -54.687912 
L 626.79358 -54.687912 
L 631.373509 -54.687912 
L 635.953437 -54.687912 
L 640.533365 -54.687912 
L 645.113294 -54.687912 
L 649.693222 -54.687912 
L 654.27315 -54.687912 
L 658.853079 -54.687912 
L 663.433007 -54.687912 
L 668.012935 -54.687912 
L 672.592864 -54.687912 
L 677.172792 -54.687912 
L 681.75272 -54.687912 
L 686.332649 -54.687912 
L 690.912577 -54.687912 
L 695.492506 -54.687912 
L 700.072434 -54.687912 
L 704.652362 -54.687912 
L 709.232291 -54.687912 
L 713.812219 -54.687912 
L 718.392147 -54.687912 
L 722.972076 -54.687912 
L 727.552004 -54.687912 
L 732.131932 -54.687912 
L 736.711861 -54.687912 
L 741.291789 -54.687912 
L 745.871718 -54.687912 
L 750.451646 -54.687912 
L 755.031574 -54.687912 
L 759.611503 -54.687912 
L 764.191431 -54.687912 
L 768.771359 -54.687912 
L 773.351288 -54.687912 
L 777.931216 -54.687912 
L 782.511144 -54.687912 
L 787.091073 -54.687912 
L 791.671001 -54.687912 
L 796.250929 -54.687912 
L 800.830858 -54.687912 
L 805.410786 -54.687912 
L 809.990715 -54.687912 
L 814.570643 -54.687912 
L 819.150571 -54.687912 
L 823.7305 -54.687912 
L 828.310428 -54.687912 
L 832.890356 -54.687912 
L 837.470285 -54.687912 
L 842.050213 -54.687912 
L 846.630141 -54.687912 
L 851.21007 -54.687912 
L 855.789998 -54.687912 
L 860.369927 -54.687912 
L 864.949855 -54.687912 
L 869.529783 -54.687912 
L 874.109712 -54.687912 
L 878.68964 -54.687912 
L 883.269568 -54.687912 
L 887.849497 -54.687912 
L 892.429425 -54.687912 
L 897.009353 -54.687912 
L 901.589282 -54.687912 
L 906.16921 -54.687912 
L 910.749138 -54.687912 
L 915.329067 -54.687912 
L 919.908995 -54.687912 
L 924.488924 -54.687912 
L 929.068852 -54.687912 
L 933.64878 -54.687912 
L 938.228709 -54.687912 
L 942.808637 -54.687912 
L 947.388565 -54.687912 
L 947.388565 -130.695833 
L 947.388565 -130.695833 
L 942.808637 -126.641636 
L 938.228709 -126.719604 
L 933.64878 -126.686341 
L 929.068852 -125.811209 
L 924.488924 -125.963051 
L 919.908995 -125.940037 
L 915.329067 -126.089051 
L 910.749138 -126.197079 
L 906.16921 -126.350028 
L 901.589282 -126.372097 
L 897.009353 -126.463669 
L 892.429425 -126.635697 
L 887.849497 -126.619511 
L 883.269568 -126.774084 
L 878.68964 -126.83586 
L 874.109712 -126.189594 
L 869.529783 -126.005251 
L 864.949855 -126.165247 
L 860.369927 -126.343765 
L 855.789998 -126.334285 
L 851.21007 -126.512283 
L 846.630141 -126.62643 
L 842.050213 -126.396079 
L 837.470285 -126.327682 
L 832.890356 -126.020188 
L 828.310428 -126.203103 
L 823.7305 -126.201663 
L 819.150571 -126.223858 
L 814.570643 -125.96423 
L 809.990715 -126.036737 
L 805.410786 -126.113901 
L 800.830858 -126.257716 
L 796.250929 -126.451866 
L 791.671001 -126.461371 
L 787.091073 -122.423512 
L 782.511144 -122.547966 
L 777.931216 -122.592148 
L 773.351288 -122.783147 
L 768.771359 -122.602078 
L 764.191431 -122.782163 
L 759.611503 -122.78485 
L 755.031574 -122.974629 
L 750.451646 -123.101328 
L 745.871718 -123.156108 
L 741.291789 -123.324894 
L 736.711861 -123.292628 
L 732.131932 -123.48803 
L 727.552004 -123.501595 
L 722.972076 -122.969312 
L 718.392147 -123.179403 
L 713.812219 -123.331639 
L 709.232291 -122.93522 
L 704.652362 -123.068856 
L 700.072434 -123.271463 
L 695.492506 -123.296844 
L 690.912577 -123.514587 
L 686.332649 -123.733535 
L 681.75272 -123.957337 
L 677.172792 -124.070755 
L 672.592864 -124.015484 
L 668.012935 -124.234367 
L 663.433007 -124.270371 
L 658.853079 -124.386839 
L 654.27315 -124.508582 
L 649.693222 -123.912893 
L 645.113294 -124.044047 
L 640.533365 -105.353504 
L 635.953437 -105.506891 
L 631.373509 -105.419618 
L 626.79358 -105.58351 
L 622.213652 -105.61426 
L 617.633723 -105.766164 
L 613.053795 -105.9339 
L 608.473867 -106.112238 
L 603.893938 -106.231537 
L 599.31401 -106.151118 
L 594.734082 -106.335575 
L 590.154153 -106.341425 
L 585.574225 -106.360978 
L 580.994297 -106.534585 
L 576.414368 -106.712955 
L 571.83444 -106.842552 
L 567.254511 -106.761848 
L 562.674583 -106.95065 
L 558.094655 -107.151633 
L 553.514726 -107.314387 
L 548.934798 -107.485018 
L 544.35487 -107.696121 
L 539.774941 -107.910366 
L 535.195013 -107.836353 
L 530.615085 -108.053091 
L 526.035156 -108.271831 
L 521.455228 -108.485782 
L 516.8753 -108.663103 
L 512.295371 -108.827079 
L 507.715443 -109.01082 
L 503.135514 -108.936344 
L 498.555586 -108.912202 
L 493.975658 -109.10765 
L 489.395729 -109.260621 
L 484.815801 -109.323927 
L 480.235873 -109.25347 
L 475.655944 -109.436552 
L 471.076016 -109.353293 
L 466.496088 -109.518522 
L 461.916159 -109.769923 
L 457.336231 -109.442632 
L 452.756302 -109.725005 
L 448.176374 -109.99923 
L 443.596446 -110.212328 
L 439.016517 -110.121386 
L 434.436589 -110.358312 
L 429.856661 -110.657323 
L 425.276732 -110.934783 
L 420.696804 -111.256644 
L 416.116876 -111.57593 
L 411.536947 -111.589319 
L 406.957019 -111.476636 
L 402.377091 -111.820625 
L 397.797162 -111.686398 
L 393.217234 -111.979088 
L 388.637305 -112.233676 
L 384.057377 -112.60265 
L 379.477449 -112.850738 
L 374.89752 -112.723355 
L 370.317592 -112.96746 
L 365.737664 -113.123611 
L 361.157735 -113.541289 
L 356.577807 -113.834077 
L 351.997879 -114.216319 
L 347.41795 -114.660506 
L 342.838022 -114.538674 
L 338.258094 -114.90202 
L 333.678165 -112.157862 
L 329.098237 -112.512942 
L 324.518308 -112.991481 
L 319.93838 -113.477697 
L 315.358452 -113.827735 
L 310.778523 -113.696436 
L 306.198595 -114.236675 
L 301.618667 -114.747959 
L 297.038738 -114.815629 
L 292.45881 -115.13825 
L 287.878882 -115.740576 
L 283.298953 -116.378099 
L 278.719025 -116.320361 
L 274.139096 -116.999542 
L 269.559168 -117.698245 
L 264.97924 -118.438691 
L 260.399311 -119.192896 
L 255.819383 -119.997795 
L 251.239455 -120.59374 
L 246.659526 -120.60137 
L 242.079598 -121.497669 
L 237.49967 -122.462853 
L 232.919741 -123.356765 
L 228.339813 -123.727937 
L 223.759885 -124.672181 
L 219.179956 -125.578086 
L 214.600028 -125.79189 
L 210.020099 -126.458421 
L 205.440171 -127.708146 
L 200.860243 -128.757529 
L 196.280314 -130.352052 
L 191.700386 -131.990023 
L 187.120458 -133.431243 
L 182.540529 -133.936948 
L 177.960601 -135.98633 
L 173.380673 -138.361372 
L 168.800744 -141.052565 
L 164.220816 -143.776399 
L 159.640887 -147.118472 
L 155.060959 -150.841986 
L 150.481031 -152.673563 
L 145.901102 -155.296258 
L 141.321174 -161.353124 
L 136.741246 -168.501353 
L 132.161317 -130.367822 
L 127.581389 -130.367822 
L 123.001461 -130.367822 
L 118.421532 -130.367822 
L 113.841604 -130.367822 
L 109.261676 -130.367822 
L 104.681747 -130.367822 
z
" style="stroke: #ff7f0e; stroke-opacity: 0.16"/>
    </defs>
    <g clip-path="url(#p6bb8a676c7)">
     <use xlink:href="#m0b3a7a649c" x="0" y="348.651094" style="fill: #ff7f0e; fill-opacity: 0.16; stroke: #ff7f0e; stroke-opacity: 0.16"/>
    </g>
   </g>
   <g id="FillBetweenPolyCollection_2">
    <defs>
     <path id="md4b2956859" d="M 104.681747 -131.595329 
L 104.681747 -54.687912 
L 109.261676 -54.687912 
L 113.841604 -54.687912 
L 118.421532 -54.687912 
L 123.001461 -54.687912 
L 127.581389 -54.687912 
L 132.161317 -54.687912 
L 136.741246 -54.687912 
L 141.321174 -54.687912 
L 145.901102 -54.687912 
L 150.481031 -54.687912 
L 155.060959 -54.687912 
L 159.640887 -54.687912 
L 164.220816 -54.687912 
L 168.800744 -54.687912 
L 173.380673 -54.687912 
L 177.960601 -54.687912 
L 182.540529 -54.687912 
L 187.120458 -54.687912 
L 191.700386 -54.687912 
L 196.280314 -54.687912 
L 200.860243 -54.687912 
L 205.440171 -54.687912 
L 210.020099 -54.687912 
L 214.600028 -54.687912 
L 219.179956 -54.687912 
L 223.759885 -54.687912 
L 228.339813 -54.687912 
L 232.919741 -54.687912 
L 237.49967 -54.687912 
L 242.079598 -54.687912 
L 246.659526 -54.687912 
L 251.239455 -54.687912 
L 255.819383 -54.687912 
L 260.399311 -54.687912 
L 264.97924 -54.687912 
L 269.559168 -54.687912 
L 274.139096 -54.687912 
L 278.719025 -54.687912 
L 283.298953 -54.687912 
L 287.878882 -54.687912 
L 292.45881 -54.687912 
L 297.038738 -54.687912 
L 301.618667 -54.687912 
L 306.198595 -54.687912 
L 310.778523 -54.687912 
L 315.358452 -54.687912 
L 319.93838 -54.687912 
L 324.518308 -54.687912 
L 329.098237 -54.687912 
L 333.678165 -54.687912 
L 338.258094 -54.687912 
L 342.838022 -54.687912 
L 347.41795 -54.687912 
L 351.997879 -54.687912 
L 356.577807 -54.687912 
L 361.157735 -54.687912 
L 365.737664 -54.687912 
L 370.317592 -54.687912 
L 374.89752 -54.687912 
L 379.477449 -54.687912 
L 384.057377 -54.687912 
L 388.637305 -54.687912 
L 393.217234 -54.687912 
L 397.797162 -54.687912 
L 402.377091 -54.687912 
L 406.957019 -54.687912 
L 411.536947 -54.687912 
L 416.116876 -54.687912 
L 420.696804 -54.687912 
L 425.276732 -54.687912 
L 429.856661 -54.687912 
L 434.436589 -54.687912 
L 439.016517 -54.687912 
L 443.596446 -54.687912 
L 448.176374 -54.687912 
L 452.756302 -54.687912 
L 457.336231 -54.687912 
L 461.916159 -54.687912 
L 466.496088 -54.687912 
L 471.076016 -54.687912 
L 475.655944 -54.687912 
L 480.235873 -54.687912 
L 484.815801 -56.093853 
L 489.395729 -54.687912 
L 493.975658 -54.687912 
L 498.555586 -54.687912 
L 503.135514 -54.687912 
L 507.715443 -54.687912 
L 512.295371 -54.687912 
L 516.8753 -54.687912 
L 521.455228 -54.687912 
L 526.035156 -54.687912 
L 530.615085 -54.687912 
L 535.195013 -54.687912 
L 539.774941 -54.687912 
L 544.35487 -54.687912 
L 548.934798 -54.687912 
L 553.514726 -54.687912 
L 558.094655 -54.687912 
L 562.674583 -54.687912 
L 567.254511 -54.687912 
L 571.83444 -54.687912 
L 576.414368 -54.687912 
L 580.994297 -54.687912 
L 585.574225 -54.687912 
L 590.154153 -54.687912 
L 594.734082 -54.687912 
L 599.31401 -54.687912 
L 603.893938 -54.687912 
L 608.473867 -54.687912 
L 613.053795 -54.687912 
L 617.633723 -55.097118 
L 622.213652 -54.687912 
L 626.79358 -54.687912 
L 631.373509 -54.687912 
L 635.953437 -54.687912 
L 640.533365 -54.824789 
L 645.113294 -54.687912 
L 649.693222 -54.687912 
L 654.27315 -54.687912 
L 658.853079 -54.687912 
L 663.433007 -54.687912 
L 668.012935 -54.687912 
L 672.592864 -54.687912 
L 677.172792 -54.687912 
L 681.75272 -54.687912 
L 686.332649 -54.687912 
L 690.912577 -54.687912 
L 695.492506 -54.687912 
L 700.072434 -54.687912 
L 704.652362 -54.687912 
L 709.232291 -54.687912 
L 713.812219 -54.687912 
L 718.392147 -54.687912 
L 722.972076 -54.687912 
L 727.552004 -54.687912 
L 732.131932 -54.687912 
L 736.711861 -54.687912 
L 741.291789 -54.687912 
L 745.871718 -54.687912 
L 750.451646 -54.687912 
L 755.031574 -54.687912 
L 759.611503 -54.687912 
L 764.191431 -54.687912 
L 768.771359 -54.687912 
L 773.351288 -54.687912 
L 777.931216 -54.687912 
L 782.511144 -54.687912 
L 787.091073 -54.687912 
L 791.671001 -54.687912 
L 796.250929 -54.687912 
L 800.830858 -54.687912 
L 805.410786 -54.687912 
L 809.990715 -54.687912 
L 814.570643 -54.687912 
L 819.150571 -54.687912 
L 823.7305 -54.687912 
L 828.310428 -54.687912 
L 832.890356 -54.687912 
L 837.470285 -54.687912 
L 842.050213 -54.687912 
L 846.630141 -54.687912 
L 851.21007 -54.687912 
L 855.789998 -54.687912 
L 860.369927 -54.687912 
L 864.949855 -54.687912 
L 869.529783 -54.687912 
L 874.109712 -54.687912 
L 878.68964 -54.687912 
L 883.269568 -54.687912 
L 887.849497 -54.687912 
L 892.429425 -54.687912 
L 897.009353 -54.687912 
L 901.589282 -54.687912 
L 906.16921 -54.687912 
L 910.749138 -54.687912 
L 915.329067 -54.687912 
L 919.908995 -54.687912 
L 924.488924 -54.687912 
L 929.068852 -63.907522 
L 933.64878 -54.730229 
L 938.228709 -54.687912 
L 942.808637 -65.843955 
L 947.388565 -54.687912 
L 947.388565 -132.657638 
L 947.388565 -132.657638 
L 942.808637 -162.295497 
L 938.228709 -133.178009 
L 933.64878 -151.654977 
L 929.068852 -160.486997 
L 924.488924 -128.569917 
L 919.908995 -103.157291 
L 915.329067 -137.040817 
L 910.749138 -148.852567 
L 906.16921 -138.455121 
L 901.589282 -144.129669 
L 897.009353 -140.659807 
L 892.429425 -129.465829 
L 887.849497 -104.034787 
L 883.269568 -135.014388 
L 878.68964 -146.12025 
L 874.109712 -138.726531 
L 869.529783 -142.248237 
L 864.949855 -133.568632 
L 860.369927 -133.213453 
L 855.789998 -104.343996 
L 851.21007 -131.351957 
L 846.630141 -141.188643 
L 842.050213 -143.477368 
L 837.470285 -144.333123 
L 832.890356 -141.195407 
L 828.310428 -128.986775 
L 823.7305 -104.948945 
L 819.150571 -140.457853 
L 814.570643 -137.760687 
L 809.990715 -136.00839 
L 805.410786 -142.880238 
L 800.830858 -125.659681 
L 796.250929 -129.239958 
L 791.671001 -105.743071 
L 787.091073 -130.955312 
L 782.511144 -132.420595 
L 777.931216 -128.695601 
L 773.351288 -121.490688 
L 768.771359 -136.863229 
L 764.191431 -123.561587 
L 759.611503 -102.54187 
L 755.031574 -117.064786 
L 750.451646 -127.951376 
L 745.871718 -128.57543 
L 741.291789 -126.792551 
L 736.711861 -134.510889 
L 732.131932 -124.858043 
L 727.552004 -103.495282 
L 722.972076 -117.046627 
L 718.392147 -126.586162 
L 713.812219 -130.943331 
L 709.232291 -127.230691 
L 704.652362 -130.217412 
L 700.072434 -120.992067 
L 695.492506 -103.280196 
L 690.912577 -124.006171 
L 686.332649 -127.90066 
L 681.75272 -126.380401 
L 677.172792 -124.592721 
L 672.592864 -133.047233 
L 668.012935 -121.321732 
L 663.433007 -104.329786 
L 658.853079 -126.008595 
L 654.27315 -129.47324 
L 649.693222 -128.914999 
L 645.113294 -130.623314 
L 640.533365 -114.277521 
L 635.953437 -99.544692 
L 631.373509 -84.621491 
L 626.79358 -100.142451 
L 622.213652 -113.925889 
L 617.633723 -115.6508 
L 613.053795 -109.155328 
L 608.473867 -107.155603 
L 603.893938 -102.589526 
L 599.31401 -85.396795 
L 594.734082 -104.613685 
L 590.154153 -108.244656 
L 585.574225 -114.121572 
L 580.994297 -100.993439 
L 576.414368 -96.795398 
L 571.83444 -98.936276 
L 567.254511 -86.210503 
L 562.674583 -99.921029 
L 558.094655 -107.935619 
L 553.514726 -105.143815 
L 548.934798 -106.101255 
L 544.35487 -104.28397 
L 539.774941 -103.007238 
L 535.195013 -87.208397 
L 530.615085 -102.46676 
L 526.035156 -104.888793 
L 521.455228 -106.597151 
L 516.8753 -98.610225 
L 512.295371 -107.516067 
L 507.715443 -101.16752 
L 503.135514 -88.293345 
L 498.555586 -111.505192 
L 493.975658 -104.796366 
L 489.395729 -103.577917 
L 484.815801 -124.266028 
L 480.235873 -88.931244 
L 475.655944 -102.65976 
L 471.076016 -89.238784 
L 466.496088 -98.099644 
L 461.916159 -107.278596 
L 457.336231 -107.263274 
L 452.756302 -104.241412 
L 448.176374 -102.859969 
L 443.596446 -102.56454 
L 439.016517 -90.015471 
L 434.436589 -97.721078 
L 429.856661 -104.370138 
L 425.276732 -106.764285 
L 420.696804 -106.926022 
L 416.116876 -104.095074 
L 411.536947 -96.742636 
L 406.957019 -91.655542 
L 402.377091 -108.917012 
L 397.797162 -115.595739 
L 393.217234 -111.72936 
L 388.637305 -103.780177 
L 384.057377 -112.096408 
L 379.477449 -100.983137 
L 374.89752 -93.161086 
L 370.317592 -106.278943 
L 365.737664 -114.385962 
L 361.157735 -113.547368 
L 356.577807 -111.226502 
L 351.997879 -110.453393 
L 347.41795 -110.325376 
L 342.838022 -95.091925 
L 338.258094 -109.799658 
L 333.678165 -112.292647 
L 329.098237 -110.404369 
L 324.518308 -109.35762 
L 319.93838 -118.014511 
L 315.358452 -105.268878 
L 310.778523 -93.687178 
L 306.198595 -117.559468 
L 301.618667 -114.826475 
L 297.038738 -124.210803 
L 292.45881 -109.316056 
L 287.878882 -122.159796 
L 283.298953 -110.146913 
L 278.719025 -96.206545 
L 274.139096 -119.102895 
L 269.559168 -122.853627 
L 264.97924 -119.979579 
L 260.399311 -125.508044 
L 255.819383 -122.109819 
L 251.239455 -112.056272 
L 246.659526 -100.379722 
L 242.079598 -122.408942 
L 237.49967 -132.793544 
L 232.919741 -135.017618 
L 228.339813 -136.158032 
L 223.759885 -134.053342 
L 219.179956 -112.755283 
L 214.600028 -106.109316 
L 210.020099 -115.705512 
L 205.440171 -136.057438 
L 200.860243 -141.671408 
L 196.280314 -121.135646 
L 191.700386 -130.834675 
L 187.120458 -126.79471 
L 182.540529 -114.934897 
L 177.960601 -130.415943 
L 173.380673 -139.843706 
L 168.800744 -138.210439 
L 164.220816 -145.666584 
L 159.640887 -148.261567 
L 155.060959 -146.002153 
L 150.481031 -133.287348 
L 145.901102 -142.944869 
L 141.321174 -163.594766 
L 136.741246 -172.946482 
L 132.161317 -128.101014 
L 127.581389 -128.322582 
L 123.001461 -118.65097 
L 118.421532 -105.421369 
L 113.841604 -118.277682 
L 109.261676 -132.360536 
L 104.681747 -131.595329 
z
" style="stroke: #2ca02c; stroke-opacity: 0.16"/>
    </defs>
    <g clip-path="url(#p6bb8a676c7)">
     <use xlink:href="#md4b2956859" x="0" y="348.651094" style="fill: #2ca02c; fill-opacity: 0.16; stroke: #2ca02c; stroke-opacity: 0.16"/>
    </g>
   </g>
   <g id="line2d_16">
    <path d="M 104.681747 277.526074 
L 109.261676 227.784653 
L 113.841604 280.79692 
L 118.421532 293.963182 
L 123.001461 280.31441 
L 127.581389 270.196283 
L 132.161317 146.296385 
L 136.741246 266.142447 
L 141.321174 259.49536 
L 145.901102 288.538452 
L 150.481031 293.963182 
L 155.060959 271.79443 
L 159.640887 269.160685 
L 164.220816 251.019467 
L 168.800744 264.273906 
L 173.380673 267.937382 
L 177.960601 272.284319 
L 182.540529 293.963182 
L 187.120458 281.951536 
L 191.700386 274.181054 
L 196.280314 263.834728 
L 200.860243 248.971168 
L 205.440171 255.4086 
L 210.020099 286.873132 
L 214.600028 293.963182 
L 219.179956 281.969701 
L 223.759885 255.918168 
L 228.339813 243.596959 
L 232.919741 256.367185 
L 237.49967 265.481882 
L 242.079598 270.368851 
L 246.659526 293.963182 
L 251.239455 282.184844 
L 255.819383 265.394274 
L 260.399311 263.196491 
L 264.97924 266.644824 
L 269.559168 264.0862 
L 274.139096 268.673445 
L 278.719025 293.963182 
L 283.298953 267.34645 
L 287.878882 271.443428 
L 292.45881 251.327138 
L 297.038738 244.476261 
L 301.618667 259.937376 
L 306.198595 266.375376 
L 310.778523 293.963182 
L 315.358452 253.961829 
L 319.93838 263.616558 
L 324.518308 265.109688 
L 329.098237 278.636224 
L 333.678165 204.622121 
L 338.258094 277.998744 
L 342.838022 293.963182 
L 347.41795 270.185119 
L 351.997879 275.740978 
L 356.577807 253.553682 
L 361.157735 267.503502 
L 365.737664 248.236807 
L 370.317592 281.283592 
L 374.89752 293.963182 
L 379.477449 281.301 
L 384.057377 270.660438 
L 388.637305 280.408074 
L 393.217234 277.678584 
L 397.797162 240.829247 
L 402.377091 269.479141 
L 406.957019 293.963182 
L 411.536947 290.395261 
L 416.116876 272.260098 
L 420.696804 267.44333 
L 425.276732 276.114686 
L 429.856661 272.423395 
L 434.436589 278.829795 
L 439.016517 293.963182 
L 443.596446 280.551502 
L 448.176374 273.928067 
L 452.756302 269.449245 
L 457.336231 236.857911 
L 461.916159 275.234816 
L 466.496088 282.44748 
L 471.076016 293.963182 
L 475.655944 281.327869 
L 480.235873 293.963182 
L 484.815801 250.880202 
L 489.395729 283.156296 
L 493.975658 259.675875 
L 498.555586 246.988338 
L 503.135514 293.963182 
L 507.715443 280.009956 
L 512.295371 257.845367 
L 516.8753 279.987818 
L 521.455228 275.130556 
L 526.035156 266.147556 
L 530.615085 266.575759 
L 535.195013 293.963182 
L 539.774941 271.933317 
L 544.35487 268.069079 
L 548.934798 260.981678 
L 553.514726 260.319032 
L 558.094655 272.08526 
L 562.674583 264.80618 
L 567.254511 293.963182 
L 571.83444 281.861089 
L 576.414368 275.777119 
L 580.994297 276.218568 
L 585.574225 251.05769 
L 590.154153 250.127487 
L 594.734082 269.417267 
L 599.31401 293.963182 
L 603.893938 258.309333 
L 608.473867 269.386802 
L 613.053795 265.58671 
L 617.633723 262.841515 
L 622.213652 251.873036 
L 626.79358 265.956444 
L 631.373509 293.963182 
L 635.953437 275.405303 
L 640.533365 34.889318 
L 645.113294 248.086567 
L 649.693222 213.112962 
L 654.27315 246.569406 
L 658.853079 246.092195 
L 663.433007 293.963182 
L 668.012935 274.465072 
L 672.592864 234.652559 
L 677.172792 246.173181 
L 681.75272 263.481077 
L 686.332649 271.146353 
L 690.912577 270.534607 
L 695.492506 293.963182 
L 700.072434 259.590916 
L 704.652362 249.327846 
L 709.232291 218.213937 
L 713.812219 251.118051 
L 718.392147 265.579519 
L 722.972076 212.09042 
L 727.552004 293.963182 
L 732.131932 272.945451 
L 736.711861 235.159478 
L 741.291789 254.117178 
L 745.871718 241.356412 
L 750.451646 248.368125 
L 755.031574 259.884395 
L 759.611503 293.963182 
L 764.191431 258.053697 
L 768.771359 225.969661 
L 773.351288 263.869355 
L 777.931216 240.48203 
L 782.511144 248.702855 
L 787.091073 127.529419 
L 791.671001 293.963182 
L 796.250929 260.528308 
L 800.830858 248.805601 
L 805.410786 240.814488 
L 809.990715 240.284863 
L 814.570643 217.51761 
L 819.150571 235.179346 
L 823.7305 293.963182 
L 828.310428 258.797897 
L 832.890356 214.365783 
L 837.470285 227.808495 
L 842.050213 217.504554 
L 846.630141 244.011728 
L 851.21007 267.798684 
L 855.789998 293.963182 
L 860.369927 259.959326 
L 864.949855 253.161998 
L 869.529783 219.679441 
L 874.109712 197.010393 
L 878.68964 237.507123 
L 883.269568 251.372361 
L 887.849497 293.963182 
L 892.429425 265.300232 
L 897.009353 241.403907 
L 901.589282 233.745442 
L 906.16921 252.342489 
L 910.749138 243.742847 
L 915.329067 251.797727 
L 919.908995 293.963182 
L 924.488924 270.481058 
L 929.068852 185.828853 
L 933.64878 228.0471 
L 938.228709 239.197987 
L 942.808637 103.430251 
L 947.388565 250.006765 
L 947.388565 250.006765 
" clip-path="url(#p6bb8a676c7)" style="fill: none; stroke: #1f77b4; stroke-width: 2.2; stroke-linecap: round"/>
   </g>
   <g id="line2d_17">
    <path d="M 104.681747 281.712633 
L 947.388565 281.712633 
L 947.388565 281.712633 
" clip-path="url(#p6bb8a676c7)" style="fill: none; stroke: #ff7f0e; stroke-width: 1.8; stroke-linecap: round"/>
   </g>
   <g id="line2d_18">
    <path d="M 104.681747 267.789221 
L 109.261676 267.024014 
L 113.841604 281.106868 
L 118.421532 293.963182 
L 123.001461 280.73358 
L 127.581389 271.061969 
L 132.161317 271.283536 
L 136.741246 269.624565 
L 141.321174 272.981441 
L 145.901102 288.060848 
L 150.481031 293.963182 
L 155.060959 277.909119 
L 159.640887 272.351463 
L 164.220816 272.17576 
L 168.800744 277.023342 
L 173.380673 272.974205 
L 177.960601 280.395216 
L 182.540529 293.963182 
L 187.120458 280.634714 
L 191.700386 275.286265 
L 196.280314 283.655162 
L 200.860243 261.815293 
L 205.440171 266.109389 
L 210.020099 285.233129 
L 214.600028 293.963182 
L 219.179956 286.42798 
L 223.759885 264.169276 
L 228.339813 261.109832 
L 232.919741 261.412362 
L 237.49967 262.821217 
L 242.079598 272.630211 
L 246.659526 293.963182 
L 251.239455 281.672975 
L 255.819383 271.041877 
L 260.399311 266.980815 
L 264.97924 271.896106 
L 269.559168 268.417481 
L 274.139096 271.597592 
L 278.719025 293.963182 
L 283.298953 279.561659 
L 287.878882 267.036423 
L 292.45881 279.563829 
L 297.038738 264.636711 
L 301.618667 273.688683 
L 306.198595 270.515435 
L 310.778523 293.963182 
L 315.358452 282.03154 
L 319.93838 269.261954 
L 324.518308 277.51841 
L 329.098237 276.083056 
L 333.678165 273.946267 
L 338.258094 279.591024 
L 342.838022 293.963182 
L 347.41795 278.428198 
L 351.997879 277.922016 
L 356.577807 276.829451 
L 361.157735 274.31365 
L 365.737664 273.131162 
L 370.317592 281.092365 
L 374.89752 293.963182 
L 379.477449 285.894861 
L 384.057377 274.48314 
L 388.637305 282.514604 
L 393.217234 274.30521 
L 397.797162 270.272384 
L 402.377091 276.986269 
L 406.957019 293.963182 
L 411.536947 288.66489 
L 416.116876 281.131597 
L 420.696804 278.030779 
L 425.276732 277.93003 
L 429.856661 280.106744 
L 434.436589 286.504063 
L 439.016517 293.963182 
L 443.596446 281.231647 
L 448.176374 280.747634 
L 452.756302 279.135229 
L 457.336231 275.88475 
L 461.916159 276.295499 
L 466.496088 285.295985 
L 471.076016 293.963182 
L 475.655944 280.38143 
L 480.235873 293.963182 
L 484.815801 258.471153 
L 489.395729 278.954074 
L 493.975658 277.64394 
L 498.555586 270.795379 
L 503.135514 293.963182 
L 507.715443 280.945639 
L 512.295371 274.445309 
L 516.8753 283.204764 
L 521.455228 275.052193 
L 526.035156 276.626869 
L 530.615085 278.872208 
L 535.195013 293.963182 
L 539.774941 278.036971 
L 544.35487 276.592859 
L 548.934798 274.607293 
L 553.514726 275.415368 
L 558.094655 272.486721 
L 562.674583 280.381188 
L 567.254511 293.963182 
L 571.83444 281.125142 
L 576.414368 283.162486 
L 580.994297 278.812718 
L 585.574225 265.554301 
L 590.154153 271.30535 
L 594.734082 274.885387 
L 599.31401 293.963182 
L 603.893938 276.669488 
L 608.473867 272.019338 
L 613.053795 269.900176 
L 617.633723 263.277135 
L 622.213652 264.902453 
L 626.79358 278.56438 
L 631.373509 293.963182 
L 640.533365 264.099939 
L 645.113294 267.674293 
L 649.693222 269.200686 
L 654.27315 269.112041 
L 658.853079 272.413395 
L 663.433007 293.963182 
L 668.012935 276.804652 
L 672.592864 264.900003 
L 677.172792 273.274659 
L 681.75272 271.371621 
L 686.332649 269.659109 
L 690.912577 273.408449 
L 695.492506 293.963182 
L 700.072434 276.098269 
L 704.652362 266.696407 
L 709.232291 269.511734 
L 713.812219 266.107916 
L 718.392147 270.287223 
L 722.972076 279.658798 
L 727.552004 293.963182 
L 732.131932 272.458918 
L 736.711861 262.668941 
L 741.291789 270.285679 
L 745.871718 268.334567 
L 750.451646 268.853762 
L 755.031574 279.591482 
L 759.611503 293.963182 
L 764.191431 272.814326 
L 768.771359 259.34938 
L 773.351288 274.688268 
L 777.931216 267.320585 
L 782.511144 263.496246 
L 787.091073 264.803846 
L 791.671001 293.963182 
L 796.250929 270.33657 
L 800.830858 273.749999 
L 805.410786 256.399597 
L 809.990715 263.107713 
L 814.570643 261.216221 
L 819.150571 258.58981 
L 823.7305 293.963182 
L 828.310428 269.806609 
L 832.890356 257.440016 
L 837.470285 254.362343 
L 842.050213 255.104183 
L 846.630141 257.378421 
L 851.21007 267.060809 
L 855.789998 293.963182 
L 860.369927 264.983884 
L 864.949855 264.494189 
L 869.529783 255.666345 
L 874.109712 259.161155 
L 878.68964 252.169534 
L 883.269568 263.128568 
L 887.849497 293.963182 
L 892.429425 268.429667 
L 897.009353 257.116789 
L 901.589282 253.505872 
L 906.16921 259.048308 
L 910.749138 248.521485 
L 915.329067 260.211535 
L 919.908995 293.963182 
L 924.488924 268.454086 
L 929.068852 236.453834 
L 933.64878 245.458491 
L 938.228709 263.804826 
L 942.808637 234.581368 
L 947.388565 267.00176 
L 947.388565 267.00176 
" clip-path="url(#p6bb8a676c7)" style="fill: none; stroke: #2ca02c; stroke-width: 1.8; stroke-linecap: round"/>
   </g>
   <g id="patch_3">
    <path d="M 62.546406 306.916875 
L 62.546406 21.935625 
" style="fill: none; stroke: #cccccc; stroke-width: 1.25; stroke-linejoin: miter; stroke-linecap: square"/>
   </g>
   <g id="patch_4">
    <path d="M 989.523906 306.916875 
L 989.523906 21.935625 
" style="fill: none; stroke: #cccccc; stroke-width: 1.25; stroke-linejoin: miter; stroke-linecap: square"/>
   </g>
   <g id="patch_5">
    <path d="M 62.546406 306.916875 
L 989.523906 306.916875 
" style="fill: none; stroke: #cccccc; stroke-width: 1.25; stroke-linejoin: miter; stroke-linecap: square"/>
   </g>
   <g id="patch_6">
    <path d="M 62.546406 21.935625 
L 989.523906 21.935625 
" style="fill: none; stroke: #cccccc; stroke-width: 1.25; stroke-linejoin: miter; stroke-linecap: square"/>
   </g>
   <g id="text_18">
    <!-- C3 Test Daily Aggregate: Actual vs Prediction with 95% Intervals -->
    <g style="fill: #262626" transform="translate(342.885156 15.935625) scale(0.12 -0.12)">
     <defs>
      <path id="Arial-BoldMT-43" d="M 3397 1684 
L 4294 1400 
Q 4088 650 3608 286 
Q 3128 -78 2391 -78 
Q 1478 -78 890 545 
Q 303 1169 303 2250 
Q 303 3394 893 4026 
Q 1484 4659 2447 4659 
Q 3288 4659 3813 4163 
Q 4125 3869 4281 3319 
L 3366 3100 
Q 3284 3456 3026 3662 
Q 2769 3869 2400 3869 
Q 1891 3869 1573 3503 
Q 1256 3138 1256 2319 
Q 1256 1450 1568 1081 
Q 1881 713 2381 713 
Q 2750 713 3015 947 
Q 3281 1181 3397 1684 
z
" transform="scale(0.015625)"/>
      <path id="Arial-BoldMT-33" d="M 241 1216 
L 1091 1319 
Q 1131 994 1309 822 
Q 1488 650 1741 650 
Q 2013 650 2198 856 
Q 2384 1063 2384 1413 
Q 2384 1744 2206 1937 
Q 2028 2131 1772 2131 
Q 1603 2131 1369 2066 
L 1466 2781 
Q 1822 2772 2009 2936 
Q 2197 3100 2197 3372 
Q 2197 3603 2059 3740 
Q 1922 3878 1694 3878 
Q 1469 3878 1309 3722 
Q 1150 3566 1116 3266 
L 306 3403 
Q 391 3819 561 4067 
Q 731 4316 1036 4458 
Q 1341 4600 1719 4600 
Q 2366 4600 2756 4188 
Q 3078 3850 3078 3425 
Q 3078 2822 2419 2463 
Q 2813 2378 3048 2084 
Q 3284 1791 3284 1375 
Q 3284 772 2843 347 
Q 2403 -78 1747 -78 
Q 1125 -78 715 280 
Q 306 638 241 1216 
z
" transform="scale(0.015625)"/>
      <path id="Arial-BoldMT-20" transform="scale(0.015625)"/>
      <path id="Arial-BoldMT-54" d="M 1497 0 
L 1497 3806 
L 138 3806 
L 138 4581 
L 3778 4581 
L 3778 3806 
L 2422 3806 
L 2422 0 
L 1497 0 
z
" transform="scale(0.015625)"/>
      <path id="Arial-BoldMT-65" d="M 2381 1056 
L 3256 909 
Q 3088 428 2723 176 
Q 2359 -75 1813 -75 
Q 947 -75 531 491 
Q 203 944 203 1634 
Q 203 2459 634 2926 
Q 1066 3394 1725 3394 
Q 2466 3394 2894 2905 
Q 3322 2416 3303 1406 
L 1103 1406 
Q 1113 1016 1316 798 
Q 1519 581 1822 581 
Q 2028 581 2168 693 
Q 2309 806 2381 1056 
z
M 2431 1944 
Q 2422 2325 2234 2523 
Q 2047 2722 1778 2722 
Q 1491 2722 1303 2513 
Q 1116 2303 1119 1944 
L 2431 1944 
z
" transform="scale(0.015625)"/>
      <path id="Arial-BoldMT-73" d="M 150 947 
L 1031 1081 
Q 1088 825 1259 692 
Q 1431 559 1741 559 
Q 2081 559 2253 684 
Q 2369 772 2369 919 
Q 2369 1019 2306 1084 
Q 2241 1147 2013 1200 
Q 950 1434 666 1628 
Q 272 1897 272 2375 
Q 272 2806 612 3100 
Q 953 3394 1669 3394 
Q 2350 3394 2681 3172 
Q 3013 2950 3138 2516 
L 2309 2363 
Q 2256 2556 2107 2659 
Q 1959 2763 1684 2763 
Q 1338 2763 1188 2666 
Q 1088 2597 1088 2488 
Q 1088 2394 1175 2328 
Q 1294 2241 1995 2081 
Q 2697 1922 2975 1691 
Q 3250 1456 3250 1038 
Q 3250 581 2869 253 
Q 2488 -75 1741 -75 
Q 1063 -75 667 200 
Q 272 475 150 947 
z
" transform="scale(0.015625)"/>
      <path id="Arial-BoldMT-74" d="M 1981 3319 
L 1981 2619 
L 1381 2619 
L 1381 1281 
Q 1381 875 1398 808 
Q 1416 741 1477 697 
Q 1538 653 1625 653 
Q 1747 653 1978 738 
L 2053 56 
Q 1747 -75 1359 -75 
Q 1122 -75 931 4 
Q 741 84 652 211 
Q 563 338 528 553 
Q 500 706 500 1172 
L 500 2619 
L 97 2619 
L 97 3319 
L 500 3319 
L 500 3978 
L 1381 4491 
L 1381 3319 
L 1981 3319 
z
" transform="scale(0.015625)"/>
      <path id="Arial-BoldMT-44" d="M 463 4581 
L 2153 4581 
Q 2725 4581 3025 4494 
Q 3428 4375 3715 4072 
Q 4003 3769 4153 3330 
Q 4303 2891 4303 2247 
Q 4303 1681 4163 1272 
Q 3991 772 3672 463 
Q 3431 228 3022 97 
Q 2716 0 2203 0 
L 463 0 
L 463 4581 
z
M 1388 3806 
L 1388 772 
L 2078 772 
Q 2466 772 2638 816 
Q 2863 872 3011 1006 
Q 3159 1141 3253 1448 
Q 3347 1756 3347 2288 
Q 3347 2819 3253 3103 
Q 3159 3388 2990 3547 
Q 2822 3706 2563 3763 
Q 2369 3806 1803 3806 
L 1388 3806 
z
" transform="scale(0.015625)"/>
      <path id="Arial-BoldMT-61" d="M 1116 2306 
L 319 2450 
Q 453 2931 781 3162 
Q 1109 3394 1756 3394 
Q 2344 3394 2631 3255 
Q 2919 3116 3036 2902 
Q 3153 2688 3153 2116 
L 3144 1091 
Q 3144 653 3186 445 
Q 3228 238 3344 0 
L 2475 0 
Q 2441 88 2391 259 
Q 2369 338 2359 363 
Q 2134 144 1878 34 
Q 1622 -75 1331 -75 
Q 819 -75 523 203 
Q 228 481 228 906 
Q 228 1188 362 1408 
Q 497 1628 739 1745 
Q 981 1863 1438 1950 
Q 2053 2066 2291 2166 
L 2291 2253 
Q 2291 2506 2166 2614 
Q 2041 2722 1694 2722 
Q 1459 2722 1328 2630 
Q 1197 2538 1116 2306 
z
M 2291 1594 
Q 2122 1538 1756 1459 
Q 1391 1381 1278 1306 
Q 1106 1184 1106 997 
Q 1106 813 1243 678 
Q 1381 544 1594 544 
Q 1831 544 2047 700 
Q 2206 819 2256 991 
Q 2291 1103 2291 1419 
L 2291 1594 
z
" transform="scale(0.015625)"/>
      <path id="Arial-BoldMT-69" d="M 459 3769 
L 459 4581 
L 1338 4581 
L 1338 3769 
L 459 3769 
z
M 459 0 
L 459 3319 
L 1338 3319 
L 1338 0 
L 459 0 
z
" transform="scale(0.015625)"/>
      <path id="Arial-BoldMT-6c" d="M 459 0 
L 459 4581 
L 1338 4581 
L 1338 0 
L 459 0 
z
" transform="scale(0.015625)"/>
      <path id="Arial-BoldMT-79" d="M 44 3319 
L 978 3319 
L 1772 963 
L 2547 3319 
L 3456 3319 
L 2284 125 
L 2075 -453 
Q 1959 -744 1854 -897 
Q 1750 -1050 1614 -1145 
Q 1478 -1241 1279 -1294 
Q 1081 -1347 831 -1347 
Q 578 -1347 334 -1294 
L 256 -606 
Q 463 -647 628 -647 
Q 934 -647 1081 -467 
Q 1228 -288 1306 -9 
L 44 3319 
z
" transform="scale(0.015625)"/>
      <path id="Arial-BoldMT-41" d="M 4597 0 
L 3591 0 
L 3191 1041 
L 1359 1041 
L 981 0 
L 0 0 
L 1784 4581 
L 2763 4581 
L 4597 0 
z
M 2894 1813 
L 2263 3513 
L 1644 1813 
L 2894 1813 
z
" transform="scale(0.015625)"/>
      <path id="Arial-BoldMT-67" d="M 378 -219 
L 1381 -341 
Q 1406 -516 1497 -581 
Q 1622 -675 1891 -675 
Q 2234 -675 2406 -572 
Q 2522 -503 2581 -350 
Q 2622 -241 2622 53 
L 2622 538 
Q 2228 0 1628 0 
Q 959 0 569 566 
Q 263 1013 263 1678 
Q 263 2513 664 2953 
Q 1066 3394 1663 3394 
Q 2278 3394 2678 2853 
L 2678 3319 
L 3500 3319 
L 3500 341 
Q 3500 -247 3403 -537 
Q 3306 -828 3131 -993 
Q 2956 -1159 2664 -1253 
Q 2372 -1347 1925 -1347 
Q 1081 -1347 728 -1058 
Q 375 -769 375 -325 
Q 375 -281 378 -219 
z
M 1163 1728 
Q 1163 1200 1367 954 
Q 1572 709 1872 709 
Q 2194 709 2416 961 
Q 2638 1213 2638 1706 
Q 2638 2222 2425 2472 
Q 2213 2722 1888 2722 
Q 1572 2722 1367 2476 
Q 1163 2231 1163 1728 
z
" transform="scale(0.015625)"/>
      <path id="Arial-BoldMT-72" d="M 1300 0 
L 422 0 
L 422 3319 
L 1238 3319 
L 1238 2847 
Q 1447 3181 1614 3287 
Q 1781 3394 1994 3394 
Q 2294 3394 2572 3228 
L 2300 2463 
Q 2078 2606 1888 2606 
Q 1703 2606 1575 2504 
Q 1447 2403 1373 2137 
Q 1300 1872 1300 1025 
L 1300 0 
z
" transform="scale(0.015625)"/>
      <path id="Arial-BoldMT-3a" d="M 628 2441 
L 628 3319 
L 1506 3319 
L 1506 2441 
L 628 2441 
z
M 628 0 
L 628 878 
L 1506 878 
L 1506 0 
L 628 0 
z
" transform="scale(0.015625)"/>
      <path id="Arial-BoldMT-63" d="M 3353 2338 
L 2488 2181 
Q 2444 2441 2289 2572 
Q 2134 2703 1888 2703 
Q 1559 2703 1364 2476 
Q 1169 2250 1169 1719 
Q 1169 1128 1367 884 
Q 1566 641 1900 641 
Q 2150 641 2309 783 
Q 2469 925 2534 1272 
L 3397 1125 
Q 3263 531 2881 228 
Q 2500 -75 1859 -75 
Q 1131 -75 698 384 
Q 266 844 266 1656 
Q 266 2478 700 2936 
Q 1134 3394 1875 3394 
Q 2481 3394 2839 3133 
Q 3197 2872 3353 2338 
z
" transform="scale(0.015625)"/>
      <path id="Arial-BoldMT-75" d="M 2644 0 
L 2644 497 
Q 2463 231 2167 78 
Q 1872 -75 1544 -75 
Q 1209 -75 943 72 
Q 678 219 559 484 
Q 441 750 441 1219 
L 441 3319 
L 1319 3319 
L 1319 1794 
Q 1319 1094 1367 936 
Q 1416 778 1544 686 
Q 1672 594 1869 594 
Q 2094 594 2272 717 
Q 2450 841 2515 1023 
Q 2581 1206 2581 1919 
L 2581 3319 
L 3459 3319 
L 3459 0 
L 2644 0 
z
" transform="scale(0.015625)"/>
      <path id="Arial-BoldMT-76" d="M 1372 0 
L 34 3319 
L 956 3319 
L 1581 1625 
L 1763 1059 
Q 1834 1275 1853 1344 
Q 1897 1484 1947 1625 
L 2578 3319 
L 3481 3319 
L 2163 0 
L 1372 0 
z
" transform="scale(0.015625)"/>
      <path id="Arial-BoldMT-50" d="M 466 0 
L 466 4581 
L 1950 4581 
Q 2794 4581 3050 4513 
Q 3444 4409 3709 4064 
Q 3975 3719 3975 3172 
Q 3975 2750 3822 2462 
Q 3669 2175 3433 2011 
Q 3197 1847 2953 1794 
Q 2622 1728 1994 1728 
L 1391 1728 
L 1391 0 
L 466 0 
z
M 1391 3806 
L 1391 2506 
L 1897 2506 
Q 2444 2506 2628 2578 
Q 2813 2650 2917 2803 
Q 3022 2956 3022 3159 
Q 3022 3409 2875 3571 
Q 2728 3734 2503 3775 
Q 2338 3806 1838 3806 
L 1391 3806 
z
" transform="scale(0.015625)"/>
      <path id="Arial-BoldMT-64" d="M 3503 0 
L 2688 0 
L 2688 488 
Q 2484 203 2207 64 
Q 1931 -75 1650 -75 
Q 1078 -75 670 386 
Q 263 847 263 1672 
Q 263 2516 659 2955 
Q 1056 3394 1663 3394 
Q 2219 3394 2625 2931 
L 2625 4581 
L 3503 4581 
L 3503 0 
z
M 1159 1731 
Q 1159 1200 1306 963 
Q 1519 619 1900 619 
Q 2203 619 2415 876 
Q 2628 1134 2628 1647 
Q 2628 2219 2422 2470 
Q 2216 2722 1894 2722 
Q 1581 2722 1370 2473 
Q 1159 2225 1159 1731 
z
" transform="scale(0.015625)"/>
      <path id="Arial-BoldMT-6f" d="M 256 1706 
Q 256 2144 472 2553 
Q 688 2963 1083 3178 
Q 1478 3394 1966 3394 
Q 2719 3394 3200 2905 
Q 3681 2416 3681 1669 
Q 3681 916 3195 420 
Q 2709 -75 1972 -75 
Q 1516 -75 1102 131 
Q 688 338 472 736 
Q 256 1134 256 1706 
z
M 1156 1659 
Q 1156 1166 1390 903 
Q 1625 641 1969 641 
Q 2313 641 2545 903 
Q 2778 1166 2778 1666 
Q 2778 2153 2545 2415 
Q 2313 2678 1969 2678 
Q 1625 2678 1390 2415 
Q 1156 2153 1156 1659 
z
" transform="scale(0.015625)"/>
      <path id="Arial-BoldMT-6e" d="M 3478 0 
L 2600 0 
L 2600 1694 
Q 2600 2231 2544 2389 
Q 2488 2547 2361 2634 
Q 2234 2722 2056 2722 
Q 1828 2722 1647 2597 
Q 1466 2472 1398 2265 
Q 1331 2059 1331 1503 
L 1331 0 
L 453 0 
L 453 3319 
L 1269 3319 
L 1269 2831 
Q 1703 3394 2363 3394 
Q 2653 3394 2893 3289 
Q 3134 3184 3257 3021 
Q 3381 2859 3429 2653 
Q 3478 2447 3478 2063 
L 3478 0 
z
" transform="scale(0.015625)"/>
      <path id="Arial-BoldMT-77" d="M 1078 0 
L 28 3319 
L 881 3319 
L 1503 1144 
L 2075 3319 
L 2922 3319 
L 3475 1144 
L 4109 3319 
L 4975 3319 
L 3909 0 
L 3066 0 
L 2494 2134 
L 1931 0 
L 1078 0 
z
" transform="scale(0.015625)"/>
      <path id="Arial-BoldMT-68" d="M 1334 4581 
L 1334 2897 
Q 1759 3394 2350 3394 
Q 2653 3394 2897 3281 
Q 3141 3169 3264 2994 
Q 3388 2819 3433 2606 
Q 3478 2394 3478 1947 
L 3478 0 
L 2600 0 
L 2600 1753 
Q 2600 2275 2550 2415 
Q 2500 2556 2373 2639 
Q 2247 2722 2056 2722 
Q 1838 2722 1666 2615 
Q 1494 2509 1414 2295 
Q 1334 2081 1334 1663 
L 1334 0 
L 456 0 
L 456 4581 
L 1334 4581 
z
" transform="scale(0.015625)"/>
      <path id="Arial-BoldMT-39" d="M 291 1059 
L 1141 1153 
Q 1172 894 1303 769 
Q 1434 644 1650 644 
Q 1922 644 2112 894 
Q 2303 1144 2356 1931 
Q 2025 1547 1528 1547 
Q 988 1547 595 1964 
Q 203 2381 203 3050 
Q 203 3747 617 4173 
Q 1031 4600 1672 4600 
Q 2369 4600 2816 4061 
Q 3263 3522 3263 2288 
Q 3263 1031 2797 475 
Q 2331 -81 1584 -81 
Q 1047 -81 715 205 
Q 384 491 291 1059 
z
M 2278 2978 
Q 2278 3403 2083 3637 
Q 1888 3872 1631 3872 
Q 1388 3872 1227 3680 
Q 1066 3488 1066 3050 
Q 1066 2606 1241 2398 
Q 1416 2191 1678 2191 
Q 1931 2191 2104 2391 
Q 2278 2591 2278 2978 
z
" transform="scale(0.015625)"/>
      <path id="Arial-BoldMT-35" d="M 284 1178 
L 1159 1269 
Q 1197 972 1381 798 
Q 1566 625 1806 625 
Q 2081 625 2272 848 
Q 2463 1072 2463 1522 
Q 2463 1944 2273 2155 
Q 2084 2366 1781 2366 
Q 1403 2366 1103 2031 
L 391 2134 
L 841 4519 
L 3163 4519 
L 3163 3697 
L 1506 3697 
L 1369 2919 
Q 1663 3066 1969 3066 
Q 2553 3066 2959 2641 
Q 3366 2216 3366 1538 
Q 3366 972 3038 528 
Q 2591 -78 1797 -78 
Q 1163 -78 763 262 
Q 363 603 284 1178 
z
" transform="scale(0.015625)"/>
      <path id="Arial-BoldMT-25" d="M 278 3450 
Q 278 4066 548 4362 
Q 819 4659 1281 4659 
Q 1759 4659 2029 4364 
Q 2300 4069 2300 3450 
Q 2300 2834 2029 2537 
Q 1759 2241 1297 2241 
Q 819 2241 548 2536 
Q 278 2831 278 3450 
z
M 963 3456 
Q 963 3009 1066 2856 
Q 1144 2744 1281 2744 
Q 1422 2744 1500 2856 
Q 1600 3009 1600 3456 
Q 1600 3903 1500 4053 
Q 1422 4169 1281 4169 
Q 1144 4169 1066 4056 
Q 963 3903 963 3456 
z
M 1950 -175 
L 1300 -175 
L 3741 4659 
L 4372 4659 
L 1950 -175 
z
M 3369 1028 
Q 3369 1644 3639 1941 
Q 3909 2238 4378 2238 
Q 4850 2238 5120 1941 
Q 5391 1644 5391 1028 
Q 5391 409 5120 112 
Q 4850 -184 4388 -184 
Q 3909 -184 3639 112 
Q 3369 409 3369 1028 
z
M 4053 1031 
Q 4053 584 4156 434 
Q 4234 319 4372 319 
Q 4513 319 4588 431 
Q 4691 584 4691 1031 
Q 4691 1478 4591 1631 
Q 4513 1744 4372 1744 
Q 4231 1744 4156 1631 
Q 4053 1478 4053 1031 
z
" transform="scale(0.015625)"/>
      <path id="Arial-BoldMT-49" d="M 438 0 
L 438 4581 
L 1363 4581 
L 1363 0 
L 438 0 
z
" transform="scale(0.015625)"/>
     </defs>
     <use xlink:href="#Arial-BoldMT-43"/>
     <use xlink:href="#Arial-BoldMT-33" transform="translate(72.216797 0)"/>
     <use xlink:href="#Arial-BoldMT-20" transform="translate(127.832031 0)"/>
     <use xlink:href="#Arial-BoldMT-54" transform="translate(155.615234 0)"/>
     <use xlink:href="#Arial-BoldMT-65" transform="translate(209.324219 0)"/>
     <use xlink:href="#Arial-BoldMT-73" transform="translate(264.939453 0)"/>
     <use xlink:href="#Arial-BoldMT-74" transform="translate(320.554688 0)"/>
     <use xlink:href="#Arial-BoldMT-20" transform="translate(353.855469 0)"/>
     <use xlink:href="#Arial-BoldMT-44" transform="translate(381.638672 0)"/>
     <use xlink:href="#Arial-BoldMT-61" transform="translate(453.855469 0)"/>
     <use xlink:href="#Arial-BoldMT-69" transform="translate(509.470703 0)"/>
     <use xlink:href="#Arial-BoldMT-6c" transform="translate(537.253906 0)"/>
     <use xlink:href="#Arial-BoldMT-79" transform="translate(565.037109 0)"/>
     <use xlink:href="#Arial-BoldMT-20" transform="translate(620.652344 0)"/>
     <use xlink:href="#Arial-BoldMT-41" transform="translate(644.685547 0)"/>
     <use xlink:href="#Arial-BoldMT-67" transform="translate(716.902344 0)"/>
     <use xlink:href="#Arial-BoldMT-67" transform="translate(777.986328 0)"/>
     <use xlink:href="#Arial-BoldMT-72" transform="translate(839.070312 0)"/>
     <use xlink:href="#Arial-BoldMT-65" transform="translate(877.986328 0)"/>
     <use xlink:href="#Arial-BoldMT-67" transform="translate(933.601562 0)"/>
     <use xlink:href="#Arial-BoldMT-61" transform="translate(994.685547 0)"/>
     <use xlink:href="#Arial-BoldMT-74" transform="translate(1050.300781 0)"/>
     <use xlink:href="#Arial-BoldMT-65" transform="translate(1083.601562 0)"/>
     <use xlink:href="#Arial-BoldMT-3a" transform="translate(1139.216797 0)"/>
     <use xlink:href="#Arial-BoldMT-20" transform="translate(1172.517578 0)"/>
     <use xlink:href="#Arial-BoldMT-41" transform="translate(1196.550781 0)"/>
     <use xlink:href="#Arial-BoldMT-63" transform="translate(1268.767578 0)"/>
     <use xlink:href="#Arial-BoldMT-74" transform="translate(1324.382812 0)"/>
     <use xlink:href="#Arial-BoldMT-75" transform="translate(1357.683594 0)"/>
     <use xlink:href="#Arial-BoldMT-61" transform="translate(1418.767578 0)"/>
     <use xlink:href="#Arial-BoldMT-6c" transform="translate(1474.382812 0)"/>
     <use xlink:href="#Arial-BoldMT-20" transform="translate(1502.166016 0)"/>
     <use xlink:href="#Arial-BoldMT-76" transform="translate(1529.949219 0)"/>
     <use xlink:href="#Arial-BoldMT-73" transform="translate(1585.564453 0)"/>
     <use xlink:href="#Arial-BoldMT-20" transform="translate(1641.179688 0)"/>
     <use xlink:href="#Arial-BoldMT-50" transform="translate(1668.962891 0)"/>
     <use xlink:href="#Arial-BoldMT-72" transform="translate(1735.662109 0)"/>
     <use xlink:href="#Arial-BoldMT-65" transform="translate(1774.578125 0)"/>
     <use xlink:href="#Arial-BoldMT-64" transform="translate(1830.193359 0)"/>
     <use xlink:href="#Arial-BoldMT-69" transform="translate(1891.277344 0)"/>
     <use xlink:href="#Arial-BoldMT-63" transform="translate(1919.060547 0)"/>
     <use xlink:href="#Arial-BoldMT-74" transform="translate(1974.675781 0)"/>
     <use xlink:href="#Arial-BoldMT-69" transform="translate(2007.976562 0)"/>
     <use xlink:href="#Arial-BoldMT-6f" transform="translate(2035.759766 0)"/>
     <use xlink:href="#Arial-BoldMT-6e" transform="translate(2096.84375 0)"/>
     <use xlink:href="#Arial-BoldMT-20" transform="translate(2157.927734 0)"/>
     <use xlink:href="#Arial-BoldMT-77" transform="translate(2185.710938 0)"/>
     <use xlink:href="#Arial-BoldMT-69" transform="translate(2263.494141 0)"/>
     <use xlink:href="#Arial-BoldMT-74" transform="translate(2291.277344 0)"/>
     <use xlink:href="#Arial-BoldMT-68" transform="translate(2324.578125 0)"/>
     <use xlink:href="#Arial-BoldMT-20" transform="translate(2385.662109 0)"/>
     <use xlink:href="#Arial-BoldMT-39" transform="translate(2413.445312 0)"/>
     <use xlink:href="#Arial-BoldMT-35" transform="translate(2469.060547 0)"/>
     <use xlink:href="#Arial-BoldMT-25" transform="translate(2524.675781 0)"/>
     <use xlink:href="#Arial-BoldMT-20" transform="translate(2613.591797 0)"/>
     <use xlink:href="#Arial-BoldMT-49" transform="translate(2641.375 0)"/>
     <use xlink:href="#Arial-BoldMT-6e" transform="translate(2669.158203 0)"/>
     <use xlink:href="#Arial-BoldMT-74" transform="translate(2730.242188 0)"/>
     <use xlink:href="#Arial-BoldMT-65" transform="translate(2763.542969 0)"/>
     <use xlink:href="#Arial-BoldMT-72" transform="translate(2819.158203 0)"/>
     <use xlink:href="#Arial-BoldMT-76" transform="translate(2858.074219 0)"/>
     <use xlink:href="#Arial-BoldMT-61" transform="translate(2913.689453 0)"/>
     <use xlink:href="#Arial-BoldMT-6c" transform="translate(2969.304688 0)"/>
     <use xlink:href="#Arial-BoldMT-73" transform="translate(2997.087891 0)"/>
    </g>
   </g>
   <g id="legend_1">
    <g id="patch_7">
     <path d="M 70.246406 109.060781 
L 269.267344 109.060781 
Q 271.467344 109.060781 271.467344 106.860781 
L 271.467344 29.635625 
Q 271.467344 27.435625 269.267344 27.435625 
L 70.246406 27.435625 
Q 68.046406 27.435625 68.046406 29.635625 
L 68.046406 106.860781 
Q 68.046406 109.060781 70.246406 109.060781 
z
" style="fill: #ffffff; opacity: 0.8; stroke: #cccccc; stroke-linejoin: miter"/>
    </g>
    <g id="line2d_19">
     <path d="M 72.446406 35.859219 
L 83.446406 35.859219 
L 94.446406 35.859219 
" style="fill: none; stroke: #1f77b4; stroke-width: 2.2; stroke-linecap: round"/>
    </g>
    <g id="text_19">
     <!-- Actual -->
     <g style="fill: #262626" transform="translate(103.246406 39.709219) scale(0.11 -0.11)">
      <defs>
       <path id="ArialMT-41" d="M -9 0 
L 1750 4581 
L 2403 4581 
L 4278 0 
L 3588 0 
L 3053 1388 
L 1138 1388 
L 634 0 
L -9 0 
z
M 1313 1881 
L 2866 1881 
L 2388 3150 
Q 2169 3728 2063 4100 
Q 1975 3659 1816 3225 
L 1313 1881 
z
" transform="scale(0.015625)"/>
       <path id="ArialMT-63" d="M 2588 1216 
L 3141 1144 
Q 3050 572 2676 248 
Q 2303 -75 1759 -75 
Q 1078 -75 664 370 
Q 250 816 250 1647 
Q 250 2184 428 2587 
Q 606 2991 970 3192 
Q 1334 3394 1763 3394 
Q 2303 3394 2647 3120 
Q 2991 2847 3088 2344 
L 2541 2259 
Q 2463 2594 2264 2762 
Q 2066 2931 1784 2931 
Q 1359 2931 1093 2626 
Q 828 2322 828 1663 
Q 828 994 1084 691 
Q 1341 388 1753 388 
Q 2084 388 2306 591 
Q 2528 794 2588 1216 
z
" transform="scale(0.015625)"/>
      </defs>
      <use xlink:href="#ArialMT-41"/>
      <use xlink:href="#ArialMT-63" transform="translate(66.699219 0)"/>
      <use xlink:href="#ArialMT-74" transform="translate(116.699219 0)"/>
      <use xlink:href="#ArialMT-75" transform="translate(144.482422 0)"/>
      <use xlink:href="#ArialMT-61" transform="translate(200.097656 0)"/>
      <use xlink:href="#ArialMT-6c" transform="translate(255.712891 0)"/>
     </g>
    </g>
    <g id="line2d_20">
     <path d="M 72.446406 51.553125 
L 83.446406 51.553125 
L 94.446406 51.553125 
" style="fill: none; stroke: #ff7f0e; stroke-width: 1.8; stroke-linecap: round"/>
    </g>
    <g id="text_20">
     <!-- Baseline Forecast (ADIDA) -->
     <g style="fill: #262626" transform="translate(103.246406 55.403125) scale(0.11 -0.11)">
      <defs>
       <path id="ArialMT-42" d="M 469 0 
L 469 4581 
L 2188 4581 
Q 2713 4581 3030 4442 
Q 3347 4303 3526 4014 
Q 3706 3725 3706 3409 
Q 3706 3116 3547 2856 
Q 3388 2597 3066 2438 
Q 3481 2316 3704 2022 
Q 3928 1728 3928 1328 
Q 3928 1006 3792 729 
Q 3656 453 3456 303 
Q 3256 153 2954 76 
Q 2653 0 2216 0 
L 469 0 
z
M 1075 2656 
L 2066 2656 
Q 2469 2656 2644 2709 
Q 2875 2778 2992 2937 
Q 3109 3097 3109 3338 
Q 3109 3566 3000 3739 
Q 2891 3913 2687 3977 
Q 2484 4041 1991 4041 
L 1075 4041 
L 1075 2656 
z
M 1075 541 
L 2216 541 
Q 2509 541 2628 563 
Q 2838 600 2978 687 
Q 3119 775 3209 942 
Q 3300 1109 3300 1328 
Q 3300 1584 3169 1773 
Q 3038 1963 2805 2039 
Q 2572 2116 2134 2116 
L 1075 2116 
L 1075 541 
z
" transform="scale(0.015625)"/>
       <path id="ArialMT-6e" d="M 422 0 
L 422 3319 
L 928 3319 
L 928 2847 
Q 1294 3394 1984 3394 
Q 2284 3394 2536 3286 
Q 2788 3178 2913 3003 
Q 3038 2828 3088 2588 
Q 3119 2431 3119 2041 
L 3119 0 
L 2556 0 
L 2556 2019 
Q 2556 2363 2490 2533 
Q 2425 2703 2258 2804 
Q 2091 2906 1866 2906 
Q 1506 2906 1245 2678 
Q 984 2450 984 1813 
L 984 0 
L 422 0 
z
" transform="scale(0.015625)"/>
       <path id="ArialMT-46" d="M 525 0 
L 525 4581 
L 3616 4581 
L 3616 4041 
L 1131 4041 
L 1131 2622 
L 3281 2622 
L 3281 2081 
L 1131 2081 
L 1131 0 
L 525 0 
z
" transform="scale(0.015625)"/>
       <path id="ArialMT-28" d="M 1497 -1347 
Q 1031 -759 709 28 
Q 388 816 388 1659 
Q 388 2403 628 3084 
Q 909 3875 1497 4659 
L 1900 4659 
Q 1522 4009 1400 3731 
Q 1209 3300 1100 2831 
Q 966 2247 966 1656 
Q 966 153 1900 -1347 
L 1497 -1347 
z
" transform="scale(0.015625)"/>
       <path id="ArialMT-49" d="M 597 0 
L 597 4581 
L 1203 4581 
L 1203 0 
L 597 0 
z
" transform="scale(0.015625)"/>
       <path id="ArialMT-29" d="M 791 -1347 
L 388 -1347 
Q 1322 153 1322 1656 
Q 1322 2244 1188 2822 
Q 1081 3291 891 3722 
Q 769 4003 388 4659 
L 791 4659 
Q 1378 3875 1659 3084 
Q 1900 2403 1900 1659 
Q 1900 816 1576 28 
Q 1253 -759 791 -1347 
z
" transform="scale(0.015625)"/>
      </defs>
      <use xlink:href="#ArialMT-42"/>
      <use xlink:href="#ArialMT-61" transform="translate(66.699219 0)"/>
      <use xlink:href="#ArialMT-73" transform="translate(122.314453 0)"/>
      <use xlink:href="#ArialMT-65" transform="translate(172.314453 0)"/>
      <use xlink:href="#ArialMT-6c" transform="translate(227.929688 0)"/>
      <use xlink:href="#ArialMT-69" transform="translate(250.146484 0)"/>
      <use xlink:href="#ArialMT-6e" transform="translate(272.363281 0)"/>
      <use xlink:href="#ArialMT-65" transform="translate(327.978516 0)"/>
      <use xlink:href="#ArialMT-20" transform="translate(383.59375 0)"/>
      <use xlink:href="#ArialMT-46" transform="translate(411.376953 0)"/>
      <use xlink:href="#ArialMT-6f" transform="translate(472.460938 0)"/>
      <use xlink:href="#ArialMT-72" transform="translate(528.076172 0)"/>
      <use xlink:href="#ArialMT-65" transform="translate(561.376953 0)"/>
      <use xlink:href="#ArialMT-63" transform="translate(616.992188 0)"/>
      <use xlink:href="#ArialMT-61" transform="translate(666.992188 0)"/>
      <use xlink:href="#ArialMT-73" transform="translate(722.607422 0)"/>
      <use xlink:href="#ArialMT-74" transform="translate(772.607422 0)"/>
      <use xlink:href="#ArialMT-20" transform="translate(800.390625 0)"/>
      <use xlink:href="#ArialMT-28" transform="translate(828.173828 0)"/>
      <use xlink:href="#ArialMT-41" transform="translate(861.474609 0)"/>
      <use xlink:href="#ArialMT-44" transform="translate(928.173828 0)"/>
      <use xlink:href="#ArialMT-49" transform="translate(1000.390625 0)"/>
      <use xlink:href="#ArialMT-44" transform="translate(1028.173828 0)"/>
      <use xlink:href="#ArialMT-41" transform="translate(1100.390625 0)"/>
      <use xlink:href="#ArialMT-29" transform="translate(1167.089844 0)"/>
     </g>
    </g>
    <g id="patch_8">
     <path d="M 72.446406 71.091875 
L 94.446406 71.091875 
L 94.446406 63.391875 
L 72.446406 63.391875 
z
" style="fill: #ff7f0e; fill-opacity: 0.16; stroke: #ff7f0e; stroke-opacity: 0.16; stroke-linejoin: miter"/>
    </g>
    <g id="text_21">
     <!-- Baseline 95% interval -->
     <g style="fill: #262626" transform="translate(103.246406 71.091875) scale(0.11 -0.11)">
      <defs>
       <path id="ArialMT-35" d="M 266 1200 
L 856 1250 
Q 922 819 1161 601 
Q 1400 384 1738 384 
Q 2144 384 2425 690 
Q 2706 997 2706 1503 
Q 2706 1984 2436 2262 
Q 2166 2541 1728 2541 
Q 1456 2541 1237 2417 
Q 1019 2294 894 2097 
L 366 2166 
L 809 4519 
L 3088 4519 
L 3088 3981 
L 1259 3981 
L 1013 2750 
Q 1425 3038 1878 3038 
Q 2478 3038 2890 2622 
Q 3303 2206 3303 1553 
Q 3303 931 2941 478 
Q 2500 -78 1738 -78 
Q 1113 -78 717 272 
Q 322 622 266 1200 
z
" transform="scale(0.015625)"/>
       <path id="ArialMT-25" d="M 372 3481 
Q 372 3972 619 4315 
Q 866 4659 1334 4659 
Q 1766 4659 2048 4351 
Q 2331 4044 2331 3447 
Q 2331 2866 2045 2552 
Q 1759 2238 1341 2238 
Q 925 2238 648 2547 
Q 372 2856 372 3481 
z
M 1350 4272 
Q 1141 4272 1002 4090 
Q 863 3909 863 3425 
Q 863 2984 1003 2804 
Q 1144 2625 1350 2625 
Q 1563 2625 1702 2806 
Q 1841 2988 1841 3469 
Q 1841 3913 1700 4092 
Q 1559 4272 1350 4272 
z
M 1353 -169 
L 3859 4659 
L 4316 4659 
L 1819 -169 
L 1353 -169 
z
M 3334 1075 
Q 3334 1569 3581 1911 
Q 3828 2253 4300 2253 
Q 4731 2253 5014 1945 
Q 5297 1638 5297 1041 
Q 5297 459 5011 145 
Q 4725 -169 4303 -169 
Q 3888 -169 3611 142 
Q 3334 453 3334 1075 
z
M 4316 1866 
Q 4103 1866 3964 1684 
Q 3825 1503 3825 1019 
Q 3825 581 3965 400 
Q 4106 219 4313 219 
Q 4528 219 4667 400 
Q 4806 581 4806 1063 
Q 4806 1506 4665 1686 
Q 4525 1866 4316 1866 
z
" transform="scale(0.015625)"/>
       <path id="ArialMT-76" d="M 1344 0 
L 81 3319 
L 675 3319 
L 1388 1331 
Q 1503 1009 1600 663 
Q 1675 925 1809 1294 
L 2547 3319 
L 3125 3319 
L 1869 0 
L 1344 0 
z
" transform="scale(0.015625)"/>
      </defs>
      <use xlink:href="#ArialMT-42"/>
      <use xlink:href="#ArialMT-61" transform="translate(66.699219 0)"/>
      <use xlink:href="#ArialMT-73" transform="translate(122.314453 0)"/>
      <use xlink:href="#ArialMT-65" transform="translate(172.314453 0)"/>
      <use xlink:href="#ArialMT-6c" transform="translate(227.929688 0)"/>
      <use xlink:href="#ArialMT-69" transform="translate(250.146484 0)"/>
      <use xlink:href="#ArialMT-6e" transform="translate(272.363281 0)"/>
      <use xlink:href="#ArialMT-65" transform="translate(327.978516 0)"/>
      <use xlink:href="#ArialMT-20" transform="translate(383.59375 0)"/>
      <use xlink:href="#ArialMT-39" transform="translate(411.376953 0)"/>
      <use xlink:href="#ArialMT-35" transform="translate(466.992188 0)"/>
      <use xlink:href="#ArialMT-25" transform="translate(522.607422 0)"/>
      <use xlink:href="#ArialMT-20" transform="translate(611.523438 0)"/>
      <use xlink:href="#ArialMT-69" transform="translate(639.306641 0)"/>
      <use xlink:href="#ArialMT-6e" transform="translate(661.523438 0)"/>
      <use xlink:href="#ArialMT-74" transform="translate(717.138672 0)"/>
      <use xlink:href="#ArialMT-65" transform="translate(744.921875 0)"/>
      <use xlink:href="#ArialMT-72" transform="translate(800.537109 0)"/>
      <use xlink:href="#ArialMT-76" transform="translate(833.837891 0)"/>
      <use xlink:href="#ArialMT-61" transform="translate(883.837891 0)"/>
      <use xlink:href="#ArialMT-6c" transform="translate(939.453125 0)"/>
     </g>
    </g>
    <g id="line2d_21">
     <path d="M 72.446406 82.935781 
L 83.446406 82.935781 
L 94.446406 82.935781 
" style="fill: none; stroke: #2ca02c; stroke-width: 1.8; stroke-linecap: round"/>
    </g>
    <g id="text_22">
     <!-- Model Forecast (Two-stage HGB) -->
     <g style="fill: #262626" transform="translate(103.246406 86.785781) scale(0.11 -0.11)">
      <defs>
       <path id="ArialMT-4d" d="M 475 0 
L 475 4581 
L 1388 4581 
L 2472 1338 
Q 2622 884 2691 659 
Q 2769 909 2934 1394 
L 4031 4581 
L 4847 4581 
L 4847 0 
L 4263 0 
L 4263 3834 
L 2931 0 
L 2384 0 
L 1059 3900 
L 1059 0 
L 475 0 
z
" transform="scale(0.015625)"/>
       <path id="ArialMT-54" d="M 1659 0 
L 1659 4041 
L 150 4041 
L 150 4581 
L 3781 4581 
L 3781 4041 
L 2266 4041 
L 2266 0 
L 1659 0 
z
" transform="scale(0.015625)"/>
       <path id="ArialMT-77" d="M 1034 0 
L 19 3319 
L 600 3319 
L 1128 1403 
L 1325 691 
Q 1338 744 1497 1375 
L 2025 3319 
L 2603 3319 
L 3100 1394 
L 3266 759 
L 3456 1400 
L 4025 3319 
L 4572 3319 
L 3534 0 
L 2950 0 
L 2422 1988 
L 2294 2553 
L 1622 0 
L 1034 0 
z
" transform="scale(0.015625)"/>
       <path id="ArialMT-67" d="M 319 -275 
L 866 -356 
Q 900 -609 1056 -725 
Q 1266 -881 1628 -881 
Q 2019 -881 2231 -725 
Q 2444 -569 2519 -288 
Q 2563 -116 2559 434 
Q 2191 0 1641 0 
Q 956 0 581 494 
Q 206 988 206 1678 
Q 206 2153 378 2554 
Q 550 2956 876 3175 
Q 1203 3394 1644 3394 
Q 2231 3394 2613 2919 
L 2613 3319 
L 3131 3319 
L 3131 450 
Q 3131 -325 2973 -648 
Q 2816 -972 2473 -1159 
Q 2131 -1347 1631 -1347 
Q 1038 -1347 672 -1080 
Q 306 -813 319 -275 
z
M 784 1719 
Q 784 1066 1043 766 
Q 1303 466 1694 466 
Q 2081 466 2343 764 
Q 2606 1063 2606 1700 
Q 2606 2309 2336 2618 
Q 2066 2928 1684 2928 
Q 1309 2928 1046 2623 
Q 784 2319 784 1719 
z
" transform="scale(0.015625)"/>
       <path id="ArialMT-48" d="M 513 0 
L 513 4581 
L 1119 4581 
L 1119 2700 
L 3500 2700 
L 3500 4581 
L 4106 4581 
L 4106 0 
L 3500 0 
L 3500 2159 
L 1119 2159 
L 1119 0 
L 513 0 
z
" transform="scale(0.015625)"/>
       <path id="ArialMT-47" d="M 2638 1797 
L 2638 2334 
L 4578 2338 
L 4578 638 
Q 4131 281 3656 101 
Q 3181 -78 2681 -78 
Q 2006 -78 1454 211 
Q 903 500 622 1047 
Q 341 1594 341 2269 
Q 341 2938 620 3517 
Q 900 4097 1425 4378 
Q 1950 4659 2634 4659 
Q 3131 4659 3532 4498 
Q 3934 4338 4162 4050 
Q 4391 3763 4509 3300 
L 3963 3150 
Q 3859 3500 3706 3700 
Q 3553 3900 3268 4020 
Q 2984 4141 2638 4141 
Q 2222 4141 1919 4014 
Q 1616 3888 1430 3681 
Q 1244 3475 1141 3228 
Q 966 2803 966 2306 
Q 966 1694 1177 1281 
Q 1388 869 1791 669 
Q 2194 469 2647 469 
Q 3041 469 3416 620 
Q 3791 772 3984 944 
L 3984 1797 
L 2638 1797 
z
" transform="scale(0.015625)"/>
      </defs>
      <use xlink:href="#ArialMT-4d"/>
      <use xlink:href="#ArialMT-6f" transform="translate(83.300781 0)"/>
      <use xlink:href="#ArialMT-64" transform="translate(138.916016 0)"/>
      <use xlink:href="#ArialMT-65" transform="translate(194.53125 0)"/>
      <use xlink:href="#ArialMT-6c" transform="translate(250.146484 0)"/>
      <use xlink:href="#ArialMT-20" transform="translate(272.363281 0)"/>
      <use xlink:href="#ArialMT-46" transform="translate(300.146484 0)"/>
      <use xlink:href="#ArialMT-6f" transform="translate(361.230469 0)"/>
      <use xlink:href="#ArialMT-72" transform="translate(416.845703 0)"/>
      <use xlink:href="#ArialMT-65" transform="translate(450.146484 0)"/>
      <use xlink:href="#ArialMT-63" transform="translate(505.761719 0)"/>
      <use xlink:href="#ArialMT-61" transform="translate(555.761719 0)"/>
      <use xlink:href="#ArialMT-73" transform="translate(611.376953 0)"/>
      <use xlink:href="#ArialMT-74" transform="translate(661.376953 0)"/>
      <use xlink:href="#ArialMT-20" transform="translate(689.160156 0)"/>
      <use xlink:href="#ArialMT-28" transform="translate(716.943359 0)"/>
      <use xlink:href="#ArialMT-54" transform="translate(750.244141 0)"/>
      <use xlink:href="#ArialMT-77" transform="translate(805.828125 0)"/>
      <use xlink:href="#ArialMT-6f" transform="translate(878.044922 0)"/>
      <use xlink:href="#ArialMT-2d" transform="translate(933.660156 0)"/>
      <use xlink:href="#ArialMT-73" transform="translate(966.960938 0)"/>
      <use xlink:href="#ArialMT-74" transform="translate(1016.960938 0)"/>
      <use xlink:href="#ArialMT-61" transform="translate(1044.744141 0)"/>
      <use xlink:href="#ArialMT-67" transform="translate(1100.359375 0)"/>
      <use xlink:href="#ArialMT-65" transform="translate(1155.974609 0)"/>
      <use xlink:href="#ArialMT-20" transform="translate(1211.589844 0)"/>
      <use xlink:href="#ArialMT-48" transform="translate(1239.373047 0)"/>
      <use xlink:href="#ArialMT-47" transform="translate(1311.589844 0)"/>
      <use xlink:href="#ArialMT-42" transform="translate(1389.373047 0)"/>
      <use xlink:href="#ArialMT-29" transform="translate(1456.072266 0)"/>
     </g>
    </g>
    <g id="patch_9">
     <path d="M 72.446406 102.474531 
L 94.446406 102.474531 
L 94.446406 94.774531 
L 72.446406 94.774531 
z
" style="fill: #2ca02c; fill-opacity: 0.16; stroke: #2ca02c; stroke-opacity: 0.16; stroke-linejoin: miter"/>
    </g>
    <g id="text_23">
     <!-- Model 95% interval -->
     <g style="fill: #262626" transform="translate(103.246406 102.474531) scale(0.11 -0.11)">
      <use xlink:href="#ArialMT-4d"/>
      <use xlink:href="#ArialMT-6f" transform="translate(83.300781 0)"/>
      <use xlink:href="#ArialMT-64" transform="translate(138.916016 0)"/>
      <use xlink:href="#ArialMT-65" transform="translate(194.53125 0)"/>
      <use xlink:href="#ArialMT-6c" transform="translate(250.146484 0)"/>
      <use xlink:href="#ArialMT-20" transform="translate(272.363281 0)"/>
      <use xlink:href="#ArialMT-39" transform="translate(300.146484 0)"/>
      <use xlink:href="#ArialMT-35" transform="translate(355.761719 0)"/>
      <use xlink:href="#ArialMT-25" transform="translate(411.376953 0)"/>
      <use xlink:href="#ArialMT-20" transform="translate(500.292969 0)"/>
      <use xlink:href="#ArialMT-69" transform="translate(528.076172 0)"/>
      <use xlink:href="#ArialMT-6e" transform="translate(550.292969 0)"/>
      <use xlink:href="#ArialMT-74" transform="translate(605.908203 0)"/>
      <use xlink:href="#ArialMT-65" transform="translate(633.691406 0)"/>
      <use xlink:href="#ArialMT-72" transform="translate(689.306641 0)"/>
      <use xlink:href="#ArialMT-76" transform="translate(722.607422 0)"/>
      <use xlink:href="#ArialMT-61" transform="translate(772.607422 0)"/>
      <use xlink:href="#ArialMT-6c" transform="translate(828.222656 0)"/>
     </g>
    </g>
   </g>
  </g>
 </g>
 <defs>
  <clipPath id="p6bb8a676c7">
   <rect x="62.546406" y="21.935625" width="926.9775" height="284.98125"/>
  </clipPath>
 </defs>
</svg>
