<?xml version="1.0" encoding="utf-8" standalone="no"?>
<!DOCTYPE svg PUBLIC "-//W3C//DTD SVG 1.1//EN"
  "http://www.w3.org/Graphics/SVG/1.1/DTD/svg11.dtd">
<svg xmlns:xlink="http://www.w3.org/1999/xlink" width="996.722812pt" height="348.589219pt" viewBox="0 0 996.722812 348.589219" xmlns="http://www.w3.org/2000/svg" version="1.1">
 <metadata>
  <rdf:RDF xmlns:dc="http://purl.org/dc/elements/1.1/" xmlns:cc="http://creativecommons.org/ns#" xmlns:rdf="http://www.w3.org/1999/02/22-rdf-syntax-ns#">
   <cc:Work>
    <dc:type rdf:resource="http://purl.org/dc/dcmitype/StillImage"/>
    <dc:date>2026-03-17T14:01:37.747144</dc:date>
    <dc:format>image/svg+xml</dc:format>
    <dc:creator>
     <cc:Agent>
      <dc:title>Matplotlib v3.10.8, https://matplotlib.org/</dc:title>
     </cc:Agent>
    </dc:creator>
   </cc:Work>
  </rdf:RDF>
 </metadata>
 <defs>
  <style type="text/css">*{stroke-linejoin: round; stroke-linecap: butt}</style>
 </defs>
 <g id="figure_1">
  <g id="patch_1">
   <path d="M 0 348.589219 
L 996.722812 348.589219 
L 996.722812 0 
L 0 0 
z
" style="fill: #ffffff"/>
  </g>
  <g id="axes_1">
   <g id="patch_2">
    <path d="M 59.339063 306.714375 
L 989.522812 306.714375 
L 989.522812 21.935625 
L 59.339063 21.935625 
z
" style="fill: #ffffff"/>
   </g>
   <g id="matplotlib.axis_1">
    <g id="xtick_1">
     <g id="line2d_1">
      <path d="M 101.620142 306.714375 
L 101.620142 21.935625 
" clip-path="url(#pcee2430666)" style="fill: none; stroke: #cccccc; stroke-linecap: round"/>
     </g>
     <g id="text_1">
      <!-- 0 -->
      <g style="fill: #262626" transform="translate(98.561626 324.087969) scale(0.11 -0.11)">
       <defs>
        <path id="ArialMT-30" d="M 266 2259 
Q 266 3072 433 3567 
Q 600 4063 929 4331 
Q 1259 4600 1759 4600 
Q 2128 4600 2406 4451 
Q 2684 4303 2865 4023 
Q 3047 3744 3150 3342 
Q 3253 2941 3253 2259 
Q 3253 1453 3087 958 
Q 2922 463 2592 192 
Q 2263 -78 1759 -78 
Q 1097 -78 719 397 
Q 266 969 266 2259 
z
M 844 2259 
Q 844 1131 1108 757 
Q 1372 384 1759 384 
Q 2147 384 2411 759 
Q 2675 1134 2675 2259 
Q 2675 3391 2411 3762 
Q 2147 4134 1753 4134 
Q 1366 4134 1134 3806 
Q 844 3388 844 2259 
z
" transform="scale(0.015625)"/>
       </defs>
       <use xlink:href="#ArialMT-30"/>
      </g>
     </g>
    </g>
    <g id="xtick_2">
     <g id="line2d_2">
      <path d="M 270.913754 306.714375 
L 270.913754 21.935625 
" clip-path="url(#pcee2430666)" style="fill: none; stroke: #cccccc; stroke-linecap: round"/>
     </g>
     <g id="text_2">
      <!-- 200 -->
      <g style="fill: #262626" transform="translate(261.738207 324.087969) scale(0.11 -0.11)">
       <defs>
        <path id="ArialMT-32" d="M 3222 541 
L 3222 0 
L 194 0 
Q 188 203 259 391 
Q 375 700 629 1000 
Q 884 1300 1366 1694 
Q 2113 2306 2375 2664 
Q 2638 3022 2638 3341 
Q 2638 3675 2398 3904 
Q 2159 4134 1775 4134 
Q 1369 4134 1125 3890 
Q 881 3647 878 3216 
L 300 3275 
Q 359 3922 746 4261 
Q 1134 4600 1788 4600 
Q 2447 4600 2831 4234 
Q 3216 3869 3216 3328 
Q 3216 3053 3103 2787 
Q 2991 2522 2730 2228 
Q 2469 1934 1863 1422 
Q 1356 997 1212 845 
Q 1069 694 975 541 
L 3222 541 
z
" transform="scale(0.015625)"/>
       </defs>
       <use xlink:href="#ArialMT-32"/>
       <use xlink:href="#ArialMT-30" transform="translate(55.615234 0)"/>
       <use xlink:href="#ArialMT-30" transform="translate(111.230469 0)"/>
      </g>
     </g>
    </g>
    <g id="xtick_3">
     <g id="line2d_3">
      <path d="M 440.207366 306.714375 
L 440.207366 21.935625 
" clip-path="url(#pcee2430666)" style="fill: none; stroke: #cccccc; stroke-linecap: round"/>
     </g>
     <g id="text_3">
      <!-- 400 -->
      <g style="fill: #262626" transform="translate(431.031819 324.087969) scale(0.11 -0.11)">
       <defs>
        <path id="ArialMT-34" d="M 2069 0 
L 2069 1097 
L 81 1097 
L 81 1613 
L 2172 4581 
L 2631 4581 
L 2631 1613 
L 3250 1613 
L 3250 1097 
L 2631 1097 
L 2631 0 
L 2069 0 
z
M 2069 1613 
L 2069 3678 
L 634 1613 
L 2069 1613 
z
" transform="scale(0.015625)"/>
       </defs>
       <use xlink:href="#ArialMT-34"/>
       <use xlink:href="#ArialMT-30" transform="translate(55.615234 0)"/>
       <use xlink:href="#ArialMT-30" transform="translate(111.230469 0)"/>
      </g>
     </g>
    </g>
    <g id="xtick_4">
     <g id="line2d_4">
      <path d="M 609.500977 306.714375 
L 609.500977 21.935625 
" clip-path="url(#pcee2430666)" style="fill: none; stroke: #cccccc; stroke-linecap: round"/>
     </g>
     <g id="text_4">
      <!-- 600 -->
      <g style="fill: #262626" transform="translate(600.325431 324.087969) scale(0.11 -0.11)">
       <defs>
        <path id="ArialMT-36" d="M 3184 3459 
L 2625 3416 
Q 2550 3747 2413 3897 
Q 2184 4138 1850 4138 
Q 1581 4138 1378 3988 
Q 1113 3794 959 3422 
Q 806 3050 800 2363 
Q 1003 2672 1297 2822 
Q 1591 2972 1913 2972 
Q 2475 2972 2870 2558 
Q 3266 2144 3266 1488 
Q 3266 1056 3080 686 
Q 2894 316 2569 119 
Q 2244 -78 1831 -78 
Q 1128 -78 684 439 
Q 241 956 241 2144 
Q 241 3472 731 4075 
Q 1159 4600 1884 4600 
Q 2425 4600 2770 4297 
Q 3116 3994 3184 3459 
z
M 888 1484 
Q 888 1194 1011 928 
Q 1134 663 1356 523 
Q 1578 384 1822 384 
Q 2178 384 2434 671 
Q 2691 959 2691 1453 
Q 2691 1928 2437 2201 
Q 2184 2475 1800 2475 
Q 1419 2475 1153 2201 
Q 888 1928 888 1484 
z
" transform="scale(0.015625)"/>
       </defs>
       <use xlink:href="#ArialMT-36"/>
       <use xlink:href="#ArialMT-30" transform="translate(55.615234 0)"/>
       <use xlink:href="#ArialMT-30" transform="translate(111.230469 0)"/>
      </g>
     </g>
    </g>
    <g id="xtick_5">
     <g id="line2d_5">
      <path d="M 778.794589 306.714375 
L 778.794589 21.935625 
" clip-path="url(#pcee2430666)" style="fill: none; stroke: #cccccc; stroke-linecap: round"/>
     </g>
     <g id="text_5">
      <!-- 800 -->
      <g style="fill: #262626" transform="translate(769.619042 324.087969) scale(0.11 -0.11)">
       <defs>
        <path id="ArialMT-38" d="M 1131 2484 
Q 781 2613 612 2850 
Q 444 3088 444 3419 
Q 444 3919 803 4259 
Q 1163 4600 1759 4600 
Q 2359 4600 2725 4251 
Q 3091 3903 3091 3403 
Q 3091 3084 2923 2848 
Q 2756 2613 2416 2484 
Q 2838 2347 3058 2040 
Q 3278 1734 3278 1309 
Q 3278 722 2862 322 
Q 2447 -78 1769 -78 
Q 1091 -78 675 323 
Q 259 725 259 1325 
Q 259 1772 486 2073 
Q 713 2375 1131 2484 
z
M 1019 3438 
Q 1019 3113 1228 2906 
Q 1438 2700 1772 2700 
Q 2097 2700 2305 2904 
Q 2513 3109 2513 3406 
Q 2513 3716 2298 3927 
Q 2084 4138 1766 4138 
Q 1444 4138 1231 3931 
Q 1019 3725 1019 3438 
z
M 838 1322 
Q 838 1081 952 856 
Q 1066 631 1291 507 
Q 1516 384 1775 384 
Q 2178 384 2440 643 
Q 2703 903 2703 1303 
Q 2703 1709 2433 1975 
Q 2163 2241 1756 2241 
Q 1359 2241 1098 1978 
Q 838 1716 838 1322 
z
" transform="scale(0.015625)"/>
       </defs>
       <use xlink:href="#ArialMT-38"/>
       <use xlink:href="#ArialMT-30" transform="translate(55.615234 0)"/>
       <use xlink:href="#ArialMT-30" transform="translate(111.230469 0)"/>
      </g>
     </g>
    </g>
    <g id="xtick_6">
     <g id="line2d_6">
      <path d="M 948.088201 306.714375 
L 948.088201 21.935625 
" clip-path="url(#pcee2430666)" style="fill: none; stroke: #cccccc; stroke-linecap: round"/>
     </g>
     <g id="text_6">
      <!-- 1000 -->
      <g style="fill: #262626" transform="translate(935.854139 324.087969) scale(0.11 -0.11)">
       <defs>
        <path id="ArialMT-31" d="M 2384 0 
L 1822 0 
L 1822 3584 
Q 1619 3391 1289 3197 
Q 959 3003 697 2906 
L 697 3450 
Q 1169 3672 1522 3987 
Q 1875 4303 2022 4600 
L 2384 4600 
L 2384 0 
z
" transform="scale(0.015625)"/>
       </defs>
       <use xlink:href="#ArialMT-31"/>
       <use xlink:href="#ArialMT-30" transform="translate(55.615234 0)"/>
       <use xlink:href="#ArialMT-30" transform="translate(111.230469 0)"/>
       <use xlink:href="#ArialMT-30" transform="translate(166.845703 0)"/>
      </g>
     </g>
    </g>
    <g id="text_7">
     <!-- days_since_last_sale -->
     <g style="fill: #262626" transform="translate(467.399063 338.863594) scale(0.12 -0.12)">
      <defs>
       <path id="ArialMT-64" d="M 2575 0 
L 2575 419 
Q 2259 -75 1647 -75 
Q 1250 -75 917 144 
Q 584 363 401 755 
Q 219 1147 219 1656 
Q 219 2153 384 2558 
Q 550 2963 881 3178 
Q 1213 3394 1622 3394 
Q 1922 3394 2156 3267 
Q 2391 3141 2538 2938 
L 2538 4581 
L 3097 4581 
L 3097 0 
L 2575 0 
z
M 797 1656 
Q 797 1019 1065 703 
Q 1334 388 1700 388 
Q 2069 388 2326 689 
Q 2584 991 2584 1609 
Q 2584 2291 2321 2609 
Q 2059 2928 1675 2928 
Q 1300 2928 1048 2622 
Q 797 2316 797 1656 
z
" transform="scale(0.015625)"/>
       <path id="ArialMT-61" d="M 2588 409 
Q 2275 144 1986 34 
Q 1697 -75 1366 -75 
Q 819 -75 525 192 
Q 231 459 231 875 
Q 231 1119 342 1320 
Q 453 1522 633 1644 
Q 813 1766 1038 1828 
Q 1203 1872 1538 1913 
Q 2219 1994 2541 2106 
Q 2544 2222 2544 2253 
Q 2544 2597 2384 2738 
Q 2169 2928 1744 2928 
Q 1347 2928 1158 2789 
Q 969 2650 878 2297 
L 328 2372 
Q 403 2725 575 2942 
Q 747 3159 1072 3276 
Q 1397 3394 1825 3394 
Q 2250 3394 2515 3294 
Q 2781 3194 2906 3042 
Q 3031 2891 3081 2659 
Q 3109 2516 3109 2141 
L 3109 1391 
Q 3109 606 3145 398 
Q 3181 191 3288 0 
L 2700 0 
Q 2613 175 2588 409 
z
M 2541 1666 
Q 2234 1541 1622 1453 
Q 1275 1403 1131 1340 
Q 988 1278 909 1158 
Q 831 1038 831 891 
Q 831 666 1001 516 
Q 1172 366 1500 366 
Q 1825 366 2078 508 
Q 2331 650 2450 897 
Q 2541 1088 2541 1459 
L 2541 1666 
z
" transform="scale(0.015625)"/>
       <path id="ArialMT-79" d="M 397 -1278 
L 334 -750 
Q 519 -800 656 -800 
Q 844 -800 956 -737 
Q 1069 -675 1141 -563 
Q 1194 -478 1313 -144 
Q 1328 -97 1363 -6 
L 103 3319 
L 709 3319 
L 1400 1397 
Q 1534 1031 1641 628 
Q 1738 1016 1872 1384 
L 2581 3319 
L 3144 3319 
L 1881 -56 
Q 1678 -603 1566 -809 
Q 1416 -1088 1222 -1217 
Q 1028 -1347 759 -1347 
Q 597 -1347 397 -1278 
z
" transform="scale(0.015625)"/>
       <path id="ArialMT-73" d="M 197 991 
L 753 1078 
Q 800 744 1014 566 
Q 1228 388 1613 388 
Q 2000 388 2187 545 
Q 2375 703 2375 916 
Q 2375 1106 2209 1216 
Q 2094 1291 1634 1406 
Q 1016 1563 777 1677 
Q 538 1791 414 1992 
Q 291 2194 291 2438 
Q 291 2659 392 2848 
Q 494 3038 669 3163 
Q 800 3259 1026 3326 
Q 1253 3394 1513 3394 
Q 1903 3394 2198 3281 
Q 2494 3169 2634 2976 
Q 2775 2784 2828 2463 
L 2278 2388 
Q 2241 2644 2061 2787 
Q 1881 2931 1553 2931 
Q 1166 2931 1000 2803 
Q 834 2675 834 2503 
Q 834 2394 903 2306 
Q 972 2216 1119 2156 
Q 1203 2125 1616 2013 
Q 2213 1853 2448 1751 
Q 2684 1650 2818 1456 
Q 2953 1263 2953 975 
Q 2953 694 2789 445 
Q 2625 197 2315 61 
Q 2006 -75 1616 -75 
Q 969 -75 630 194 
Q 291 463 197 991 
z
" transform="scale(0.015625)"/>
       <path id="ArialMT-5f" d="M -97 -1272 
L -97 -866 
L 3631 -866 
L 3631 -1272 
L -97 -1272 
z
" transform="scale(0.015625)"/>
       <path id="ArialMT-69" d="M 425 3934 
L 425 4581 
L 988 4581 
L 988 3934 
L 425 3934 
z
M 425 0 
L 425 3319 
L 988 3319 
L 988 0 
L 425 0 
z
" transform="scale(0.015625)"/>
       <path id="ArialMT-6e" d="M 422 0 
L 422 3319 
L 928 3319 
L 928 2847 
Q 1294 3394 1984 3394 
Q 2284 3394 2536 3286 
Q 2788 3178 2913 3003 
Q 3038 2828 3088 2588 
Q 3119 2431 3119 2041 
L 3119 0 
L 2556 0 
L 2556 2019 
Q 2556 2363 2490 2533 
Q 2425 2703 2258 2804 
Q 2091 2906 1866 2906 
Q 1506 2906 1245 2678 
Q 984 2450 984 1813 
L 984 0 
L 422 0 
z
" transform="scale(0.015625)"/>
       <path id="ArialMT-63" d="M 2588 1216 
L 3141 1144 
Q 3050 572 2676 248 
Q 2303 -75 1759 -75 
Q 1078 -75 664 370 
Q 250 816 250 1647 
Q 250 2184 428 2587 
Q 606 2991 970 3192 
Q 1334 3394 1763 3394 
Q 2303 3394 2647 3120 
Q 2991 2847 3088 2344 
L 2541 2259 
Q 2463 2594 2264 2762 
Q 2066 2931 1784 2931 
Q 1359 2931 1093 2626 
Q 828 2322 828 1663 
Q 828 994 1084 691 
Q 1341 388 1753 388 
Q 2084 388 2306 591 
Q 2528 794 2588 1216 
z
" transform="scale(0.015625)"/>
       <path id="ArialMT-65" d="M 2694 1069 
L 3275 997 
Q 3138 488 2766 206 
Q 2394 -75 1816 -75 
Q 1088 -75 661 373 
Q 234 822 234 1631 
Q 234 2469 665 2931 
Q 1097 3394 1784 3394 
Q 2450 3394 2872 2941 
Q 3294 2488 3294 1666 
Q 3294 1616 3291 1516 
L 816 1516 
Q 847 969 1125 678 
Q 1403 388 1819 388 
Q 2128 388 2347 550 
Q 2566 713 2694 1069 
z
M 847 1978 
L 2700 1978 
Q 2663 2397 2488 2606 
Q 2219 2931 1791 2931 
Q 1403 2931 1139 2672 
Q 875 2413 847 1978 
z
" transform="scale(0.015625)"/>
       <path id="ArialMT-6c" d="M 409 0 
L 409 4581 
L 972 4581 
L 972 0 
L 409 0 
z
" transform="scale(0.015625)"/>
       <path id="ArialMT-74" d="M 1650 503 
L 1731 6 
Q 1494 -44 1306 -44 
Q 1000 -44 831 53 
Q 663 150 594 308 
Q 525 466 525 972 
L 525 2881 
L 113 2881 
L 113 3319 
L 525 3319 
L 525 4141 
L 1084 4478 
L 1084 3319 
L 1650 3319 
L 1650 2881 
L 1084 2881 
L 1084 941 
Q 1084 700 1114 631 
Q 1144 563 1211 522 
Q 1278 481 1403 481 
Q 1497 481 1650 503 
z
" transform="scale(0.015625)"/>
      </defs>
      <use xlink:href="#ArialMT-64"/>
      <use xlink:href="#ArialMT-61" transform="translate(55.615234 0)"/>
      <use xlink:href="#ArialMT-79" transform="translate(111.230469 0)"/>
      <use xlink:href="#ArialMT-73" transform="translate(161.230469 0)"/>
      <use xlink:href="#ArialMT-5f" transform="translate(211.230469 0)"/>
      <use xlink:href="#ArialMT-73" transform="translate(266.845703 0)"/>
      <use xlink:href="#ArialMT-69" transform="translate(316.845703 0)"/>
      <use xlink:href="#ArialMT-6e" transform="translate(339.0625 0)"/>
      <use xlink:href="#ArialMT-63" transform="translate(394.677734 0)"/>
      <use xlink:href="#ArialMT-65" transform="translate(444.677734 0)"/>
      <use xlink:href="#ArialMT-5f" transform="translate(500.292969 0)"/>
      <use xlink:href="#ArialMT-6c" transform="translate(555.908203 0)"/>
      <use xlink:href="#ArialMT-61" transform="translate(578.125 0)"/>
      <use xlink:href="#ArialMT-73" transform="translate(633.740234 0)"/>
      <use xlink:href="#ArialMT-74" transform="translate(683.740234 0)"/>
      <use xlink:href="#ArialMT-5f" transform="translate(711.523438 0)"/>
      <use xlink:href="#ArialMT-73" transform="translate(767.138672 0)"/>
      <use xlink:href="#ArialMT-61" transform="translate(817.138672 0)"/>
      <use xlink:href="#ArialMT-6c" transform="translate(872.753906 0)"/>
      <use xlink:href="#ArialMT-65" transform="translate(894.970703 0)"/>
     </g>
    </g>
   </g>
   <g id="matplotlib.axis_2">
    <g id="ytick_1">
     <g id="line2d_7">
      <path d="M 59.339063 306.714375 
L 989.522812 306.714375 
" clip-path="url(#pcee2430666)" style="fill: none; stroke: #cccccc; stroke-linecap: round"/>
     </g>
     <g id="text_8">
      <!-- 0.000 -->
      <g style="fill: #262626" transform="translate(22.315 310.651172) scale(0.11 -0.11)">
       <defs>
        <path id="ArialMT-2e" d="M 581 0 
L 581 641 
L 1222 641 
L 1222 0 
L 581 0 
z
" transform="scale(0.015625)"/>
       </defs>
       <use xlink:href="#ArialMT-30"/>
       <use xlink:href="#ArialMT-2e" transform="translate(55.615234 0)"/>
       <use xlink:href="#ArialMT-30" transform="translate(83.398438 0)"/>
       <use xlink:href="#ArialMT-30" transform="translate(139.013672 0)"/>
       <use xlink:href="#ArialMT-30" transform="translate(194.628906 0)"/>
      </g>
     </g>
    </g>
    <g id="ytick_2">
     <g id="line2d_8">
      <path d="M 59.339063 262.827525 
L 989.522812 262.827525 
" clip-path="url(#pcee2430666)" style="fill: none; stroke: #cccccc; stroke-linecap: round"/>
     </g>
     <g id="text_9">
      <!-- 0.002 -->
      <g style="fill: #262626" transform="translate(22.315 266.764322) scale(0.11 -0.11)">
       <use xlink:href="#ArialMT-30"/>
       <use xlink:href="#ArialMT-2e" transform="translate(55.615234 0)"/>
       <use xlink:href="#ArialMT-30" transform="translate(83.398438 0)"/>
       <use xlink:href="#ArialMT-30" transform="translate(139.013672 0)"/>
       <use xlink:href="#ArialMT-32" transform="translate(194.628906 0)"/>
      </g>
     </g>
    </g>
    <g id="ytick_3">
     <g id="line2d_9">
      <path d="M 59.339063 218.940675 
L 989.522812 218.940675 
" clip-path="url(#pcee2430666)" style="fill: none; stroke: #cccccc; stroke-linecap: round"/>
     </g>
     <g id="text_10">
      <!-- 0.004 -->
      <g style="fill: #262626" transform="translate(22.315 222.877472) scale(0.11 -0.11)">
       <use xlink:href="#ArialMT-30"/>
       <use xlink:href="#ArialMT-2e" transform="translate(55.615234 0)"/>
       <use xlink:href="#ArialMT-30" transform="translate(83.398438 0)"/>
       <use xlink:href="#ArialMT-30" transform="translate(139.013672 0)"/>
       <use xlink:href="#ArialMT-34" transform="translate(194.628906 0)"/>
      </g>
     </g>
    </g>
    <g id="ytick_4">
     <g id="line2d_10">
      <path d="M 59.339063 175.053826 
L 989.522812 175.053826 
" clip-path="url(#pcee2430666)" style="fill: none; stroke: #cccccc; stroke-linecap: round"/>
     </g>
     <g id="text_11">
      <!-- 0.006 -->
      <g style="fill: #262626" transform="translate(22.315 178.990622) scale(0.11 -0.11)">
       <use xlink:href="#ArialMT-30"/>
       <use xlink:href="#ArialMT-2e" transform="translate(55.615234 0)"/>
       <use xlink:href="#ArialMT-30" transform="translate(83.398438 0)"/>
       <use xlink:href="#ArialMT-30" transform="translate(139.013672 0)"/>
       <use xlink:href="#ArialMT-36" transform="translate(194.628906 0)"/>
      </g>
     </g>
    </g>
    <g id="ytick_5">
     <g id="line2d_11">
      <path d="M 59.339063 131.166976 
L 989.522812 131.166976 
" clip-path="url(#pcee2430666)" style="fill: none; stroke: #cccccc; stroke-linecap: round"/>
     </g>
     <g id="text_12">
      <!-- 0.008 -->
      <g style="fill: #262626" transform="translate(22.315 135.103773) scale(0.11 -0.11)">
       <use xlink:href="#ArialMT-30"/>
       <use xlink:href="#ArialMT-2e" transform="translate(55.615234 0)"/>
       <use xlink:href="#ArialMT-30" transform="translate(83.398438 0)"/>
       <use xlink:href="#ArialMT-30" transform="translate(139.013672 0)"/>
       <use xlink:href="#ArialMT-38" transform="translate(194.628906 0)"/>
      </g>
     </g>
    </g>
    <g id="ytick_6">
     <g id="line2d_12">
      <path d="M 59.339063 87.280126 
L 989.522812 87.280126 
" clip-path="url(#pcee2430666)" style="fill: none; stroke: #cccccc; stroke-linecap: round"/>
     </g>
     <g id="text_13">
      <!-- 0.010 -->
      <g style="fill: #262626" transform="translate(22.315 91.216923) scale(0.11 -0.11)">
       <use xlink:href="#ArialMT-30"/>
       <use xlink:href="#ArialMT-2e" transform="translate(55.615234 0)"/>
       <use xlink:href="#ArialMT-30" transform="translate(83.398438 0)"/>
       <use xlink:href="#ArialMT-31" transform="translate(139.013672 0)"/>
       <use xlink:href="#ArialMT-30" transform="translate(194.628906 0)"/>
      </g>
     </g>
    </g>
    <g id="ytick_7">
     <g id="line2d_13">
      <path d="M 59.339063 43.393276 
L 989.522812 43.393276 
" clip-path="url(#pcee2430666)" style="fill: none; stroke: #cccccc; stroke-linecap: round"/>
     </g>
     <g id="text_14">
      <!-- 0.012 -->
      <g style="fill: #262626" transform="translate(22.315 47.330073) scale(0.11 -0.11)">
       <use xlink:href="#ArialMT-30"/>
       <use xlink:href="#ArialMT-2e" transform="translate(55.615234 0)"/>
       <use xlink:href="#ArialMT-30" transform="translate(83.398438 0)"/>
       <use xlink:href="#ArialMT-31" transform="translate(139.013672 0)"/>
       <use xlink:href="#ArialMT-32" transform="translate(194.628906 0)"/>
      </g>
     </g>
    </g>
    <g id="text_15">
     <!-- Density -->
     <g style="fill: #262626" transform="translate(15.789375 184.33125) rotate(-90) scale(0.12 -0.12)">
      <defs>
       <path id="ArialMT-44" d="M 494 0 
L 494 4581 
L 2072 4581 
Q 2606 4581 2888 4516 
Q 3281 4425 3559 4188 
Q 3922 3881 4101 3404 
Q 4281 2928 4281 2316 
Q 4281 1794 4159 1391 
Q 4038 988 3847 723 
Q 3656 459 3429 307 
Q 3203 156 2883 78 
Q 2563 0 2147 0 
L 494 0 
z
M 1100 541 
L 2078 541 
Q 2531 541 2789 625 
Q 3047 709 3200 863 
Q 3416 1078 3536 1442 
Q 3656 1806 3656 2325 
Q 3656 3044 3420 3430 
Q 3184 3816 2847 3947 
Q 2603 4041 2063 4041 
L 1100 4041 
L 1100 541 
z
" transform="scale(0.015625)"/>
      </defs>
      <use xlink:href="#ArialMT-44"/>
      <use xlink:href="#ArialMT-65" transform="translate(72.216797 0)"/>
      <use xlink:href="#ArialMT-6e" transform="translate(127.832031 0)"/>
      <use xlink:href="#ArialMT-73" transform="translate(183.447266 0)"/>
      <use xlink:href="#ArialMT-69" transform="translate(233.447266 0)"/>
      <use xlink:href="#ArialMT-74" transform="translate(255.664062 0)"/>
      <use xlink:href="#ArialMT-79" transform="translate(283.447266 0)"/>
     </g>
    </g>
   </g>
   <g id="FillBetweenPolyCollection_1">
    <defs>
     <path id="m14c74eea35" d="M 101.620142 -298.376159 
L 101.620142 -41.874844 
L 105.869497 -41.874844 
L 110.118852 -41.874844 
L 114.368206 -41.874844 
L 118.617561 -41.874844 
L 122.866916 -41.874844 
L 127.11627 -41.874844 
L 131.365625 -41.874844 
L 135.61498 -41.874844 
L 139.864335 -41.874844 
L 144.113689 -41.874844 
L 148.363044 -41.874844 
L 152.612399 -41.874844 
L 156.861754 -41.874844 
L 161.111108 -41.874844 
L 165.360463 -41.874844 
L 169.609818 -41.874844 
L 173.859172 -41.874844 
L 178.108527 -41.874844 
L 182.357882 -41.874844 
L 186.607237 -41.874844 
L 190.856591 -41.874844 
L 195.105946 -41.874844 
L 199.355301 -41.874844 
L 203.604656 -41.874844 
L 207.85401 -41.874844 
L 212.103365 -41.874844 
L 216.35272 -41.874844 
L 220.602074 -41.874844 
L 224.851429 -41.874844 
L 229.100784 -41.874844 
L 233.350139 -41.874844 
L 237.599493 -41.874844 
L 241.848848 -41.874844 
L 246.098203 -41.874844 
L 250.347558 -41.874844 
L 254.596912 -41.874844 
L 258.846267 -41.874844 
L 263.095622 -41.874844 
L 267.344976 -41.874844 
L 271.594331 -41.874844 
L 275.843686 -41.874844 
L 280.093041 -41.874844 
L 284.342395 -41.874844 
L 288.59175 -41.874844 
L 292.841105 -41.874844 
L 297.09046 -41.874844 
L 301.339814 -41.874844 
L 305.589169 -41.874844 
L 309.838524 -41.874844 
L 314.087878 -41.874844 
L 318.337233 -41.874844 
L 322.586588 -41.874844 
L 326.835943 -41.874844 
L 331.085297 -41.874844 
L 335.334652 -41.874844 
L 339.584007 -41.874844 
L 343.833362 -41.874844 
L 348.082716 -41.874844 
L 352.332071 -41.874844 
L 356.581426 -41.874844 
L 360.83078 -41.874844 
L 365.080135 -41.874844 
L 369.32949 -41.874844 
L 373.578845 -41.874844 
L 377.828199 -41.874844 
L 382.077554 -41.874844 
L 386.326909 -41.874844 
L 390.576264 -41.874844 
L 394.825618 -41.874844 
L 399.074973 -41.874844 
L 403.324328 -41.874844 
L 407.573682 -41.874844 
L 411.823037 -41.874844 
L 416.072392 -41.874844 
L 420.321747 -41.874844 
L 424.571101 -41.874844 
L 428.820456 -41.874844 
L 433.069811 -41.874844 
L 437.319166 -41.874844 
L 441.56852 -41.874844 
L 445.817875 -41.874844 
L 450.06723 -41.874844 
L 454.316584 -41.874844 
L 458.565939 -41.874844 
L 462.815294 -41.874844 
L 467.064649 -41.874844 
L 471.314003 -41.874844 
L 475.563358 -41.874844 
L 479.812713 -41.874844 
L 484.062068 -41.874844 
L 488.311422 -41.874844 
L 492.560777 -41.874844 
L 496.810132 -41.874844 
L 501.059486 -41.874844 
L 505.308841 -41.874844 
L 509.558196 -41.874844 
L 513.807551 -41.874844 
L 518.056905 -41.874844 
L 522.30626 -41.874844 
L 526.555615 -41.874844 
L 530.80497 -41.874844 
L 535.054324 -41.874844 
L 539.303679 -41.874844 
L 543.553034 -41.874844 
L 547.802389 -41.874844 
L 552.051743 -41.874844 
L 556.301098 -41.874844 
L 560.550453 -41.874844 
L 564.799807 -41.874844 
L 569.049162 -41.874844 
L 573.298517 -41.874844 
L 577.547872 -41.874844 
L 581.797226 -41.874844 
L 586.046581 -41.874844 
L 590.295936 -41.874844 
L 594.545291 -41.874844 
L 598.794645 -41.874844 
L 603.044 -41.874844 
L 607.293355 -41.874844 
L 611.542709 -41.874844 
L 615.792064 -41.874844 
L 620.041419 -41.874844 
L 624.290774 -41.874844 
L 628.540128 -41.874844 
L 632.789483 -41.874844 
L 637.038838 -41.874844 
L 641.288193 -41.874844 
L 645.537547 -41.874844 
L 649.786902 -41.874844 
L 654.036257 -41.874844 
L 658.285611 -41.874844 
L 662.534966 -41.874844 
L 666.784321 -41.874844 
L 671.033676 -41.874844 
L 675.28303 -41.874844 
L 679.532385 -41.874844 
L 683.78174 -41.874844 
L 688.031095 -41.874844 
L 692.280449 -41.874844 
L 696.529804 -41.874844 
L 700.779159 -41.874844 
L 705.028513 -41.874844 
L 709.277868 -41.874844 
L 713.527223 -41.874844 
L 717.776578 -41.874844 
L 722.025932 -41.874844 
L 726.275287 -41.874844 
L 730.524642 -41.874844 
L 734.773997 -41.874844 
L 739.023351 -41.874844 
L 743.272706 -41.874844 
L 747.522061 -41.874844 
L 751.771415 -41.874844 
L 756.02077 -41.874844 
L 760.270125 -41.874844 
L 764.51948 -41.874844 
L 768.768834 -41.874844 
L 773.018189 -41.874844 
L 777.267544 -41.874844 
L 781.516899 -41.874844 
L 785.766253 -41.874844 
L 790.015608 -41.874844 
L 794.264963 -41.874844 
L 798.514317 -41.874844 
L 802.763672 -41.874844 
L 807.013027 -41.874844 
L 811.262382 -41.874844 
L 815.511736 -41.874844 
L 819.761091 -41.874844 
L 824.010446 -41.874844 
L 828.259801 -41.874844 
L 832.509155 -41.874844 
L 836.75851 -41.874844 
L 841.007865 -41.874844 
L 845.257219 -41.874844 
L 849.506574 -41.874844 
L 853.755929 -41.874844 
L 858.005284 -41.874844 
L 862.254638 -41.874844 
L 866.503993 -41.874844 
L 870.753348 -41.874844 
L 875.002703 -41.874844 
L 879.252057 -41.874844 
L 883.501412 -41.874844 
L 887.750767 -41.874844 
L 892.000121 -41.874844 
L 896.249476 -41.874844 
L 900.498831 -41.874844 
L 904.748186 -41.874844 
L 908.99754 -41.874844 
L 913.246895 -41.874844 
L 917.49625 -41.874844 
L 921.745605 -41.874844 
L 925.994959 -41.874844 
L 930.244314 -41.874844 
L 934.493669 -41.874844 
L 938.743023 -41.874844 
L 942.992378 -41.874844 
L 947.241733 -41.874844 
L 947.241733 -75.176864 
L 947.241733 -75.176864 
L 942.992378 -74.241902 
L 938.743023 -71.591584 
L 934.493669 -67.64781 
L 930.244314 -62.989934 
L 925.994959 -58.21615 
L 921.745605 -53.821487 
L 917.49625 -50.125155 
L 913.246895 -47.257047 
L 908.99754 -45.191612 
L 904.748186 -43.805635 
L 900.498831 -42.936591 
L 896.249476 -42.426377 
L 892.000121 -42.145481 
L 887.750767 -42.000293 
L 883.501412 -41.929775 
L 879.252057 -41.897565 
L 875.002703 -41.883722 
L 870.753348 -41.878121 
L 866.503993 -41.875986 
L 862.254638 -41.87522 
L 858.005284 -41.874961 
L 853.755929 -41.874878 
L 849.506574 -41.874853 
L 845.257219 -41.874846 
L 841.007865 -41.874844 
L 836.75851 -41.874844 
L 832.509155 -41.874844 
L 828.259801 -41.874844 
L 824.010446 -41.874844 
L 819.761091 -41.874844 
L 815.511736 -41.874844 
L 811.262382 -41.874844 
L 807.013027 -41.874844 
L 802.763672 -41.874844 
L 798.514317 -41.874844 
L 794.264963 -41.874844 
L 790.015608 -41.874844 
L 785.766253 -41.874844 
L 781.516899 -41.874844 
L 777.267544 -41.874844 
L 773.018189 -41.874844 
L 768.768834 -41.874844 
L 764.51948 -41.874844 
L 760.270125 -41.874844 
L 756.02077 -41.874844 
L 751.771415 -41.874844 
L 747.522061 -41.874844 
L 743.272706 -41.874844 
L 739.023351 -41.874844 
L 734.773997 -41.874844 
L 730.524642 -41.874844 
L 726.275287 -41.874844 
L 722.025932 -41.874844 
L 717.776578 -41.874844 
L 713.527223 -41.874844 
L 709.277868 -41.874844 
L 705.028513 -41.874844 
L 700.779159 -41.874844 
L 696.529804 -41.874844 
L 692.280449 -41.874844 
L 688.031095 -41.874844 
L 683.78174 -41.874844 
L 679.532385 -41.874844 
L 675.28303 -41.874844 
L 671.033676 -41.874844 
L 666.784321 -41.874844 
L 662.534966 -41.874844 
L 658.285611 -41.874844 
L 654.036257 -41.874844 
L 649.786902 -41.874844 
L 645.537547 -41.874844 
L 641.288193 -41.874845 
L 637.038838 -41.874847 
L 632.789483 -41.874852 
L 628.540128 -41.874865 
L 624.290774 -41.874893 
L 620.041419 -41.874956 
L 615.792064 -41.875084 
L 611.542709 -41.875338 
L 607.293355 -41.875813 
L 603.044 -41.876663 
L 598.794645 -41.878114 
L 594.545291 -41.880483 
L 590.295936 -41.884186 
L 586.046581 -41.889736 
L 581.797226 -41.897721 
L 577.547872 -41.908774 
L 573.298517 -41.92352 
L 569.049162 -41.942531 
L 564.799807 -41.966266 
L 560.550453 -41.995045 
L 556.301098 -42.029013 
L 552.051743 -42.068132 
L 547.802389 -42.112182 
L 543.553034 -42.160771 
L 539.303679 -42.213375 
L 535.054324 -42.269416 
L 530.80497 -42.328377 
L 526.555615 -42.389946 
L 522.30626 -42.454148 
L 518.056905 -42.521426 
L 513.807551 -42.592621 
L 509.558196 -42.668826 
L 505.308841 -42.751148 
L 501.059486 -42.840411 
L 496.810132 -42.936888 
L 492.560777 -43.040126 
L 488.311422 -43.148914 
L 484.062068 -43.261416 
L 479.812713 -43.375417 
L 475.563358 -43.488639 
L 471.314003 -43.599049 
L 467.064649 -43.705089 
L 462.815294 -43.8058 
L 458.565939 -43.900834 
L 454.316584 -43.990366 
L 450.06723 -44.074956 
L 445.817875 -44.155397 
L 441.56852 -44.232593 
L 437.319166 -44.307486 
L 433.069811 -44.38104 
L 428.820456 -44.454261 
L 424.571101 -44.52823 
L 420.321747 -44.6041 
L 416.072392 -44.683056 
L 411.823037 -44.766208 
L 407.573682 -44.854468 
L 403.324328 -44.948435 
L 399.074973 -45.048331 
L 394.825618 -45.154034 
L 390.576264 -45.265202 
L 386.326909 -45.381462 
L 382.077554 -45.502623 
L 377.828199 -45.628848 
L 373.578845 -45.760735 
L 369.32949 -45.899283 
L 365.080135 -46.045737 
L 360.83078 -46.201365 
L 356.581426 -46.367221 
L 352.332071 -46.543959 
L 348.082716 -46.731759 
L 343.833362 -46.930382 
L 339.584007 -47.139337 
L 335.334652 -47.358108 
L 331.085297 -47.586365 
L 326.835943 -47.824102 
L 322.586588 -48.071684 
L 318.337233 -48.329815 
L 314.087878 -48.599461 
L 309.838524 -48.881756 
L 305.589169 -49.1779 
L 301.339814 -49.48902 
L 297.09046 -49.815971 
L 292.841105 -50.159076 
L 288.59175 -50.517835 
L 284.342395 -50.8907 
L 280.093041 -51.274997 
L 275.843686 -51.667075 
L 271.594331 -52.062688 
L 267.344976 -52.457586 
L 263.095622 -52.848203 
L 258.846267 -53.232332 
L 254.596912 -53.609647 
L 250.347558 -53.981977 
L 246.098203 -54.353273 
L 241.848848 -54.729277 
L 237.599493 -55.116966 
L 233.350139 -55.523917 
L 229.100784 -55.95775 
L 224.851429 -56.425812 
L 220.602074 -56.935186 
L 216.35272 -57.493054 
L 212.103365 -58.107368 
L 207.85401 -58.787746 
L 203.604656 -59.546536 
L 199.355301 -60.400058 
L 195.105946 -61.370126 
L 190.856591 -62.486116 
L 186.607237 -63.787978 
L 182.357882 -65.330912 
L 178.108527 -67.192679 
L 173.859172 -69.484884 
L 169.609818 -72.369557 
L 165.360463 -76.081629 
L 161.111108 -80.955568 
L 156.861754 -87.449926 
L 152.612399 -96.156639 
L 148.363044 -107.774492 
L 144.113689 -123.022089 
L 139.864335 -142.471382 
L 135.61498 -166.303914 
L 131.365625 -194.029066 
L 127.11627 -224.246925 
L 122.866916 -254.567316 
L 118.617561 -281.786329 
L 114.368206 -302.358003 
L 110.118852 -313.092701 
L 105.869497 -311.904922 
L 101.620142 -298.376159 
z
" style="stroke: #1f77b4; stroke-width: 2"/>
    </defs>
    <g clip-path="url(#pcee2430666)">
     <use xlink:href="#m14c74eea35" x="0" y="348.589219" style="fill: #1f77b4; fill-opacity: 0.3; stroke: #1f77b4; stroke-width: 2"/>
    </g>
   </g>
   <g id="FillBetweenPolyCollection_2">
    <defs>
     <path id="mc1ad7b4acb" d="M 101.620142 -263.870285 
L 101.620142 -41.874844 
L 104.750798 -41.874844 
L 107.881454 -41.874844 
L 111.012109 -41.874844 
L 114.142765 -41.874844 
L 117.273421 -41.874844 
L 120.404076 -41.874844 
L 123.534732 -41.874844 
L 126.665388 -41.874844 
L 129.796044 -41.874844 
L 132.926699 -41.874844 
L 136.057355 -41.874844 
L 139.188011 -41.874844 
L 142.318667 -41.874844 
L 145.449322 -41.874844 
L 148.579978 -41.874844 
L 151.710634 -41.874844 
L 154.84129 -41.874844 
L 157.971945 -41.874844 
L 161.102601 -41.874844 
L 164.233257 -41.874844 
L 167.363912 -41.874844 
L 170.494568 -41.874844 
L 173.625224 -41.874844 
L 176.75588 -41.874844 
L 179.886535 -41.874844 
L 183.017191 -41.874844 
L 186.147847 -41.874844 
L 189.278503 -41.874844 
L 192.409158 -41.874844 
L 195.539814 -41.874844 
L 198.67047 -41.874844 
L 201.801126 -41.874844 
L 204.931781 -41.874844 
L 208.062437 -41.874844 
L 211.193093 -41.874844 
L 214.323749 -41.874844 
L 217.454404 -41.874844 
L 220.58506 -41.874844 
L 223.715716 -41.874844 
L 226.846371 -41.874844 
L 229.977027 -41.874844 
L 233.107683 -41.874844 
L 236.238339 -41.874844 
L 239.368994 -41.874844 
L 242.49965 -41.874844 
L 245.630306 -41.874844 
L 248.760962 -41.874844 
L 251.891617 -41.874844 
L 255.022273 -41.874844 
L 258.152929 -41.874844 
L 261.283585 -41.874844 
L 264.41424 -41.874844 
L 267.544896 -41.874844 
L 270.675552 -41.874844 
L 273.806208 -41.874844 
L 276.936863 -41.874844 
L 280.067519 -41.874844 
L 283.198175 -41.874844 
L 286.32883 -41.874844 
L 289.459486 -41.874844 
L 292.590142 -41.874844 
L 295.720798 -41.874844 
L 298.851453 -41.874844 
L 301.982109 -41.874844 
L 305.112765 -41.874844 
L 308.243421 -41.874844 
L 311.374076 -41.874844 
L 314.504732 -41.874844 
L 317.635388 -41.874844 
L 320.766044 -41.874844 
L 323.896699 -41.874844 
L 327.027355 -41.874844 
L 330.158011 -41.874844 
L 333.288666 -41.874844 
L 336.419322 -41.874844 
L 339.549978 -41.874844 
L 342.680634 -41.874844 
L 345.811289 -41.874844 
L 348.941945 -41.874844 
L 352.072601 -41.874844 
L 355.203257 -41.874844 
L 358.333912 -41.874844 
L 361.464568 -41.874844 
L 364.595224 -41.874844 
L 367.72588 -41.874844 
L 370.856535 -41.874844 
L 373.987191 -41.874844 
L 377.117847 -41.874844 
L 380.248503 -41.874844 
L 383.379158 -41.874844 
L 386.509814 -41.874844 
L 389.64047 -41.874844 
L 392.771125 -41.874844 
L 395.901781 -41.874844 
L 399.032437 -41.874844 
L 402.163093 -41.874844 
L 405.293748 -41.874844 
L 408.424404 -41.874844 
L 411.55506 -41.874844 
L 414.685716 -41.874844 
L 417.816371 -41.874844 
L 420.947027 -41.874844 
L 424.077683 -41.874844 
L 427.208339 -41.874844 
L 430.338994 -41.874844 
L 433.46965 -41.874844 
L 436.600306 -41.874844 
L 439.730961 -41.874844 
L 442.861617 -41.874844 
L 445.992273 -41.874844 
L 449.122929 -41.874844 
L 452.253584 -41.874844 
L 455.38424 -41.874844 
L 458.514896 -41.874844 
L 461.645552 -41.874844 
L 464.776207 -41.874844 
L 467.906863 -41.874844 
L 471.037519 -41.874844 
L 474.168175 -41.874844 
L 477.29883 -41.874844 
L 480.429486 -41.874844 
L 483.560142 -41.874844 
L 486.690798 -41.874844 
L 489.821453 -41.874844 
L 492.952109 -41.874844 
L 496.082765 -41.874844 
L 499.21342 -41.874844 
L 502.344076 -41.874844 
L 505.474732 -41.874844 
L 508.605388 -41.874844 
L 511.736043 -41.874844 
L 514.866699 -41.874844 
L 517.997355 -41.874844 
L 521.128011 -41.874844 
L 524.258666 -41.874844 
L 527.389322 -41.874844 
L 530.519978 -41.874844 
L 533.650634 -41.874844 
L 536.781289 -41.874844 
L 539.911945 -41.874844 
L 543.042601 -41.874844 
L 546.173257 -41.874844 
L 549.303912 -41.874844 
L 552.434568 -41.874844 
L 555.565224 -41.874844 
L 558.695879 -41.874844 
L 561.826535 -41.874844 
L 564.957191 -41.874844 
L 568.087847 -41.874844 
L 571.218502 -41.874844 
L 574.349158 -41.874844 
L 577.479814 -41.874844 
L 580.61047 -41.874844 
L 583.741125 -41.874844 
L 586.871781 -41.874844 
L 590.002437 -41.874844 
L 593.133093 -41.874844 
L 596.263748 -41.874844 
L 599.394404 -41.874844 
L 602.52506 -41.874844 
L 605.655715 -41.874844 
L 608.786371 -41.874844 
L 611.917027 -41.874844 
L 615.047683 -41.874844 
L 618.178338 -41.874844 
L 621.308994 -41.874844 
L 624.43965 -41.874844 
L 627.570306 -41.874844 
L 630.700961 -41.874844 
L 633.831617 -41.874844 
L 636.962273 -41.874844 
L 640.092929 -41.874844 
L 643.223584 -41.874844 
L 646.35424 -41.874844 
L 649.484896 -41.874844 
L 652.615552 -41.874844 
L 655.746207 -41.874844 
L 658.876863 -41.874844 
L 662.007519 -41.874844 
L 665.138174 -41.874844 
L 668.26883 -41.874844 
L 671.399486 -41.874844 
L 674.530142 -41.874844 
L 677.660797 -41.874844 
L 680.791453 -41.874844 
L 683.922109 -41.874844 
L 687.052765 -41.874844 
L 690.18342 -41.874844 
L 693.314076 -41.874844 
L 696.444732 -41.874844 
L 699.575388 -41.874844 
L 702.706043 -41.874844 
L 705.836699 -41.874844 
L 708.967355 -41.874844 
L 712.098011 -41.874844 
L 715.228666 -41.874844 
L 718.359322 -41.874844 
L 721.489978 -41.874844 
L 724.620633 -41.874844 
L 724.620633 -42.033139 
L 724.620633 -42.033139 
L 721.489978 -42.082074 
L 718.359322 -42.140161 
L 715.228666 -42.20763 
L 712.098011 -42.284522 
L 708.967355 -42.370735 
L 705.836699 -42.466058 
L 702.706043 -42.570163 
L 699.575388 -42.682547 
L 696.444732 -42.802459 
L 693.314076 -42.928838 
L 690.18342 -43.060338 
L 687.052765 -43.19545 
L 683.922109 -43.332754 
L 680.791453 -43.471231 
L 677.660797 -43.610573 
L 674.530142 -43.751401 
L 671.399486 -43.895329 
L 668.26883 -44.044834 
L 665.138174 -44.20295 
L 662.007519 -44.372836 
L 658.876863 -44.557284 
L 655.746207 -44.758248 
L 652.615552 -44.97647 
L 649.484896 -45.211262 
L 646.35424 -45.460481 
L 643.223584 -45.720713 
L 640.092929 -45.987628 
L 636.962273 -46.256467 
L 633.831617 -46.522551 
L 630.700961 -46.781763 
L 627.570306 -47.0309 
L 624.43965 -47.267861 
L 621.308994 -47.491676 
L 618.178338 -47.702385 
L 615.047683 -47.900823 
L 611.917027 -48.088366 
L 608.786371 -48.266665 
L 605.655715 -48.437417 
L 602.52506 -48.602169 
L 599.394404 -48.762178 
L 596.263748 -48.918324 
L 593.133093 -49.071101 
L 590.002437 -49.220684 
L 586.871781 -49.367062 
L 583.741125 -49.510218 
L 580.61047 -49.650303 
L 577.479814 -49.787757 
L 574.349158 -49.92335 
L 571.218502 -50.058103 
L 568.087847 -50.193131 
L 564.957191 -50.329407 
L 561.826535 -50.467528 
L 558.695879 -50.607506 
L 555.565224 -50.748656 
L 552.434568 -50.889629 
L 549.303912 -51.028599 
L 546.173257 -51.163612 
L 543.042601 -51.293025 
L 539.911945 -51.415944 
L 536.781289 -51.532537 
L 533.650634 -51.644122 
L 530.519978 -51.752986 
L 527.389322 -51.861962 
L 524.258666 -51.973864 
L 521.128011 -52.090911 
L 517.997355 -52.214287 
L 514.866699 -52.343918 
L 511.736043 -52.478521 
L 508.605388 -52.615891 
L 505.474732 -52.753378 
L 502.344076 -52.888446 
L 499.21342 -53.019226 
L 496.082765 -53.144948 
L 492.952109 -53.266193 
L 489.821453 -53.384899 
L 486.690798 -53.504138 
L 483.560142 -53.627693 
L 480.429486 -53.759534 
L 477.29883 -53.903302 
L 474.168175 -54.061929 
L 471.037519 -54.23747 
L 467.906863 -54.431196 
L 464.776207 -54.643893 
L 461.645552 -54.876275 
L 458.514896 -55.129355 
L 455.38424 -55.404656 
L 452.253584 -55.704151 
L 449.122929 -56.029952 
L 445.992273 -56.383772 
L 442.861617 -56.766295 
L 439.730961 -57.176572 
L 436.600306 -57.611561 
L 433.46965 -58.065898 
L 430.338994 -58.531957 
L 427.208339 -59.000209 
L 424.077683 -59.459849 
L 420.947027 -59.899608 
L 417.816371 -60.308673 
L 414.685716 -60.677567 
L 411.55506 -60.998916 
L 408.424404 -61.268007 
L 405.293748 -61.483105 
L 402.163093 -61.645506 
L 399.032437 -61.759336 
L 395.901781 -61.831089 
L 392.771125 -61.868935 
L 389.64047 -61.88184 
L 386.509814 -61.878599 
L 383.379158 -61.866913 
L 380.248503 -61.852648 
L 377.117847 -61.839425 
L 373.987191 -61.828572 
L 370.856535 -61.819425 
L 367.72588 -61.809892 
L 364.595224 -61.797114 
L 361.464568 -61.778134 
L 358.333912 -61.750459 
L 355.203257 -61.712519 
L 352.072601 -61.663991 
L 348.941945 -61.606039 
L 345.811289 -61.541433 
L 342.680634 -61.474533 
L 339.549978 -61.411067 
L 336.419322 -61.357684 
L 333.288666 -61.321272 
L 330.158011 -61.308121 
L 327.027355 -61.32306 
L 323.896699 -61.368703 
L 320.766044 -61.44496 
L 317.635388 -61.54887 
L 314.504732 -61.674769 
L 311.374076 -61.814745 
L 308.243421 -61.959274 
L 305.112765 -62.09796 
L 301.982109 -62.220299 
L 298.851453 -62.316422 
L 295.720798 -62.377786 
L 292.590142 -62.397784 
L 289.459486 -62.372254 
L 286.32883 -62.29985 
L 283.198175 -62.182253 
L 280.067519 -62.024185 
L 276.936863 -61.833205 
L 273.806208 -61.619289 
L 270.675552 -61.39419 
L 267.544896 -61.170638 
L 264.41424 -60.961451 
L 261.283585 -60.778654 
L 258.152929 -60.632683 
L 255.022273 -60.531764 
L 251.891617 -60.481509 
L 248.760962 -60.484731 
L 245.630306 -60.541513 
L 242.49965 -60.649511 
L 239.368994 -60.804494 
L 236.238339 -61.001095 
L 233.107683 -61.233694 
L 229.977027 -61.497336 
L 226.846371 -61.788539 
L 223.715716 -62.105858 
L 220.58506 -62.450094 
L 217.454404 -62.82413 
L 214.323749 -63.232409 
L 211.193093 -63.680198 
L 208.062437 -64.172744 
L 204.931781 -64.714486 
L 201.801126 -65.308423 
L 198.67047 -65.955715 
L 195.539814 -66.655577 
L 192.409158 -67.405509 
L 189.278503 -68.201934 
L 186.147847 -69.041296 
L 183.017191 -69.921632 
L 179.886535 -70.844577 
L 176.75588 -71.817665 
L 173.625224 -72.856781 
L 170.494568 -73.988664 
L 167.363912 -75.253526 
L 164.233257 -76.70813 
L 161.102601 -78.429902 
L 157.971945 -80.522849 
L 154.84129 -83.125916 
L 151.710634 -86.423814 
L 148.579978 -90.658979 
L 145.449322 -96.14103 
L 142.318667 -103.247101 
L 139.188011 -112.403349 
L 136.057355 -124.036662 
L 132.926699 -138.48808 
L 129.796044 -155.888117 
L 126.665388 -176.00911 
L 123.534732 -198.128235 
L 120.404076 -220.949873 
L 117.273421 -242.638533 
L 114.142765 -260.996048 
L 111.012109 -273.778768 
L 107.881454 -279.101417 
L 104.750798 -275.832405 
L 101.620142 -263.870285 
z
" style="stroke: #ff7f0e; stroke-width: 2"/>
    </defs>
    <g clip-path="url(#pcee2430666)">
     <use xlink:href="#mc1ad7b4acb" x="0" y="348.589219" style="fill: #ff7f0e; fill-opacity: 0.3; stroke: #ff7f0e; stroke-width: 2"/>
    </g>
   </g>
   <g id="patch_3">
    <path d="M 59.339063 306.714375 
L 59.339063 21.935625 
" style="fill: none; stroke: #cccccc; stroke-width: 1.25; stroke-linejoin: miter; stroke-linecap: square"/>
   </g>
   <g id="patch_4">
    <path d="M 989.522812 306.714375 
L 989.522812 21.935625 
" style="fill: none; stroke: #cccccc; stroke-width: 1.25; stroke-linejoin: miter; stroke-linecap: square"/>
   </g>
   <g id="patch_5">
    <path d="M 59.339062 306.714375 
L 989.522812 306.714375 
" style="fill: none; stroke: #cccccc; stroke-width: 1.25; stroke-linejoin: miter; stroke-linecap: square"/>
   </g>
   <g id="patch_6">
    <path d="M 59.339062 21.935625 
L 989.522812 21.935625 
" style="fill: none; stroke: #cccccc; stroke-width: 1.25; stroke-linejoin: miter; stroke-linecap: square"/>
   </g>
   <g id="text_16">
    <!-- C3 How Time Since Last Sale Changed (Train vs Test, clipped at P99) -->
    <g style="fill: #262626" transform="translate(328.268438 15.935625) scale(0.12 -0.12)">
     <defs>
      <path id="Arial-BoldMT-43" d="M 3397 1684 
L 4294 1400 
Q 4088 650 3608 286 
Q 3128 -78 2391 -78 
Q 1478 -78 890 545 
Q 303 1169 303 2250 
Q 303 3394 893 4026 
Q 1484 4659 2447 4659 
Q 3288 4659 3813 4163 
Q 4125 3869 4281 3319 
L 3366 3100 
Q 3284 3456 3026 3662 
Q 2769 3869 2400 3869 
Q 1891 3869 1573 3503 
Q 1256 3138 1256 2319 
Q 1256 1450 1568 1081 
Q 1881 713 2381 713 
Q 2750 713 3015 947 
Q 3281 1181 3397 1684 
z
" transform="scale(0.015625)"/>
      <path id="Arial-BoldMT-33" d="M 241 1216 
L 1091 1319 
Q 1131 994 1309 822 
Q 1488 650 1741 650 
Q 2013 650 2198 856 
Q 2384 1063 2384 1413 
Q 2384 1744 2206 1937 
Q 2028 2131 1772 2131 
Q 1603 2131 1369 2066 
L 1466 2781 
Q 1822 2772 2009 2936 
Q 2197 3100 2197 3372 
Q 2197 3603 2059 3740 
Q 1922 3878 1694 3878 
Q 1469 3878 1309 3722 
Q 1150 3566 1116 3266 
L 306 3403 
Q 391 3819 561 4067 
Q 731 4316 1036 4458 
Q 1341 4600 1719 4600 
Q 2366 4600 2756 4188 
Q 3078 3850 3078 3425 
Q 3078 2822 2419 2463 
Q 2813 2378 3048 2084 
Q 3284 1791 3284 1375 
Q 3284 772 2843 347 
Q 2403 -78 1747 -78 
Q 1125 -78 715 280 
Q 306 638 241 1216 
z
" transform="scale(0.015625)"/>
      <path id="Arial-BoldMT-20" transform="scale(0.015625)"/>
      <path id="Arial-BoldMT-48" d="M 469 0 
L 469 4581 
L 1394 4581 
L 1394 2778 
L 3206 2778 
L 3206 4581 
L 4131 4581 
L 4131 0 
L 3206 0 
L 3206 2003 
L 1394 2003 
L 1394 0 
L 469 0 
z
" transform="scale(0.015625)"/>
      <path id="Arial-BoldMT-6f" d="M 256 1706 
Q 256 2144 472 2553 
Q 688 2963 1083 3178 
Q 1478 3394 1966 3394 
Q 2719 3394 3200 2905 
Q 3681 2416 3681 1669 
Q 3681 916 3195 420 
Q 2709 -75 1972 -75 
Q 1516 -75 1102 131 
Q 688 338 472 736 
Q 256 1134 256 1706 
z
M 1156 1659 
Q 1156 1166 1390 903 
Q 1625 641 1969 641 
Q 2313 641 2545 903 
Q 2778 1166 2778 1666 
Q 2778 2153 2545 2415 
Q 2313 2678 1969 2678 
Q 1625 2678 1390 2415 
Q 1156 2153 1156 1659 
z
" transform="scale(0.015625)"/>
      <path id="Arial-BoldMT-77" d="M 1078 0 
L 28 3319 
L 881 3319 
L 1503 1144 
L 2075 3319 
L 2922 3319 
L 3475 1144 
L 4109 3319 
L 4975 3319 
L 3909 0 
L 3066 0 
L 2494 2134 
L 1931 0 
L 1078 0 
z
" transform="scale(0.015625)"/>
      <path id="Arial-BoldMT-54" d="M 1497 0 
L 1497 3806 
L 138 3806 
L 138 4581 
L 3778 4581 
L 3778 3806 
L 2422 3806 
L 2422 0 
L 1497 0 
z
" transform="scale(0.015625)"/>
      <path id="Arial-BoldMT-69" d="M 459 3769 
L 459 4581 
L 1338 4581 
L 1338 3769 
L 459 3769 
z
M 459 0 
L 459 3319 
L 1338 3319 
L 1338 0 
L 459 0 
z
" transform="scale(0.015625)"/>
      <path id="Arial-BoldMT-6d" d="M 394 3319 
L 1203 3319 
L 1203 2866 
Q 1638 3394 2238 3394 
Q 2556 3394 2790 3262 
Q 3025 3131 3175 2866 
Q 3394 3131 3647 3262 
Q 3900 3394 4188 3394 
Q 4553 3394 4806 3245 
Q 5059 3097 5184 2809 
Q 5275 2597 5275 2122 
L 5275 0 
L 4397 0 
L 4397 1897 
Q 4397 2391 4306 2534 
Q 4184 2722 3931 2722 
Q 3747 2722 3584 2609 
Q 3422 2497 3350 2280 
Q 3278 2063 3278 1594 
L 3278 0 
L 2400 0 
L 2400 1819 
Q 2400 2303 2353 2443 
Q 2306 2584 2207 2653 
Q 2109 2722 1941 2722 
Q 1738 2722 1575 2612 
Q 1413 2503 1342 2297 
Q 1272 2091 1272 1613 
L 1272 0 
L 394 0 
L 394 3319 
z
" transform="scale(0.015625)"/>
      <path id="Arial-BoldMT-65" d="M 2381 1056 
L 3256 909 
Q 3088 428 2723 176 
Q 2359 -75 1813 -75 
Q 947 -75 531 491 
Q 203 944 203 1634 
Q 203 2459 634 2926 
Q 1066 3394 1725 3394 
Q 2466 3394 2894 2905 
Q 3322 2416 3303 1406 
L 1103 1406 
Q 1113 1016 1316 798 
Q 1519 581 1822 581 
Q 2028 581 2168 693 
Q 2309 806 2381 1056 
z
M 2431 1944 
Q 2422 2325 2234 2523 
Q 2047 2722 1778 2722 
Q 1491 2722 1303 2513 
Q 1116 2303 1119 1944 
L 2431 1944 
z
" transform="scale(0.015625)"/>
      <path id="Arial-BoldMT-53" d="M 231 1491 
L 1131 1578 
Q 1213 1125 1461 912 
Q 1709 700 2131 700 
Q 2578 700 2804 889 
Q 3031 1078 3031 1331 
Q 3031 1494 2936 1608 
Q 2841 1722 2603 1806 
Q 2441 1863 1863 2006 
Q 1119 2191 819 2459 
Q 397 2838 397 3381 
Q 397 3731 595 4036 
Q 794 4341 1167 4500 
Q 1541 4659 2069 4659 
Q 2931 4659 3367 4281 
Q 3803 3903 3825 3272 
L 2900 3231 
Q 2841 3584 2645 3739 
Q 2450 3894 2059 3894 
Q 1656 3894 1428 3728 
Q 1281 3622 1281 3444 
Q 1281 3281 1419 3166 
Q 1594 3019 2269 2859 
Q 2944 2700 3267 2529 
Q 3591 2359 3773 2064 
Q 3956 1769 3956 1334 
Q 3956 941 3737 597 
Q 3519 253 3119 86 
Q 2719 -81 2122 -81 
Q 1253 -81 787 320 
Q 322 722 231 1491 
z
" transform="scale(0.015625)"/>
      <path id="Arial-BoldMT-6e" d="M 3478 0 
L 2600 0 
L 2600 1694 
Q 2600 2231 2544 2389 
Q 2488 2547 2361 2634 
Q 2234 2722 2056 2722 
Q 1828 2722 1647 2597 
Q 1466 2472 1398 2265 
Q 1331 2059 1331 1503 
L 1331 0 
L 453 0 
L 453 3319 
L 1269 3319 
L 1269 2831 
Q 1703 3394 2363 3394 
Q 2653 3394 2893 3289 
Q 3134 3184 3257 3021 
Q 3381 2859 3429 2653 
Q 3478 2447 3478 2063 
L 3478 0 
z
" transform="scale(0.015625)"/>
      <path id="Arial-BoldMT-63" d="M 3353 2338 
L 2488 2181 
Q 2444 2441 2289 2572 
Q 2134 2703 1888 2703 
Q 1559 2703 1364 2476 
Q 1169 2250 1169 1719 
Q 1169 1128 1367 884 
Q 1566 641 1900 641 
Q 2150 641 2309 783 
Q 2469 925 2534 1272 
L 3397 1125 
Q 3263 531 2881 228 
Q 2500 -75 1859 -75 
Q 1131 -75 698 384 
Q 266 844 266 1656 
Q 266 2478 700 2936 
Q 1134 3394 1875 3394 
Q 2481 3394 2839 3133 
Q 3197 2872 3353 2338 
z
" transform="scale(0.015625)"/>
      <path id="Arial-BoldMT-4c" d="M 491 0 
L 491 4544 
L 1416 4544 
L 1416 772 
L 3716 772 
L 3716 0 
L 491 0 
z
" transform="scale(0.015625)"/>
      <path id="Arial-BoldMT-61" d="M 1116 2306 
L 319 2450 
Q 453 2931 781 3162 
Q 1109 3394 1756 3394 
Q 2344 3394 2631 3255 
Q 2919 3116 3036 2902 
Q 3153 2688 3153 2116 
L 3144 1091 
Q 3144 653 3186 445 
Q 3228 238 3344 0 
L 2475 0 
Q 2441 88 2391 259 
Q 2369 338 2359 363 
Q 2134 144 1878 34 
Q 1622 -75 1331 -75 
Q 819 -75 523 203 
Q 228 481 228 906 
Q 228 1188 362 1408 
Q 497 1628 739 1745 
Q 981 1863 1438 1950 
Q 2053 2066 2291 2166 
L 2291 2253 
Q 2291 2506 2166 2614 
Q 2041 2722 1694 2722 
Q 1459 2722 1328 2630 
Q 1197 2538 1116 2306 
z
M 2291 1594 
Q 2122 1538 1756 1459 
Q 1391 1381 1278 1306 
Q 1106 1184 1106 997 
Q 1106 813 1243 678 
Q 1381 544 1594 544 
Q 1831 544 2047 700 
Q 2206 819 2256 991 
Q 2291 1103 2291 1419 
L 2291 1594 
z
" transform="scale(0.015625)"/>
      <path id="Arial-BoldMT-73" d="M 150 947 
L 1031 1081 
Q 1088 825 1259 692 
Q 1431 559 1741 559 
Q 2081 559 2253 684 
Q 2369 772 2369 919 
Q 2369 1019 2306 1084 
Q 2241 1147 2013 1200 
Q 950 1434 666 1628 
Q 272 1897 272 2375 
Q 272 2806 612 3100 
Q 953 3394 1669 3394 
Q 2350 3394 2681 3172 
Q 3013 2950 3138 2516 
L 2309 2363 
Q 2256 2556 2107 2659 
Q 1959 2763 1684 2763 
Q 1338 2763 1188 2666 
Q 1088 2597 1088 2488 
Q 1088 2394 1175 2328 
Q 1294 2241 1995 2081 
Q 2697 1922 2975 1691 
Q 3250 1456 3250 1038 
Q 3250 581 2869 253 
Q 2488 -75 1741 -75 
Q 1063 -75 667 200 
Q 272 475 150 947 
z
" transform="scale(0.015625)"/>
      <path id="Arial-BoldMT-74" d="M 1981 3319 
L 1981 2619 
L 1381 2619 
L 1381 1281 
Q 1381 875 1398 808 
Q 1416 741 1477 697 
Q 1538 653 1625 653 
Q 1747 653 1978 738 
L 2053 56 
Q 1747 -75 1359 -75 
Q 1122 -75 931 4 
Q 741 84 652 211 
Q 563 338 528 553 
Q 500 706 500 1172 
L 500 2619 
L 97 2619 
L 97 3319 
L 500 3319 
L 500 3978 
L 1381 4491 
L 1381 3319 
L 1981 3319 
z
" transform="scale(0.015625)"/>
      <path id="Arial-BoldMT-6c" d="M 459 0 
L 459 4581 
L 1338 4581 
L 1338 0 
L 459 0 
z
" transform="scale(0.015625)"/>
      <path id="Arial-BoldMT-68" d="M 1334 4581 
L 1334 2897 
Q 1759 3394 2350 3394 
Q 2653 3394 2897 3281 
Q 3141 3169 3264 2994 
Q 3388 2819 3433 2606 
Q 3478 2394 3478 1947 
L 3478 0 
L 2600 0 
L 2600 1753 
Q 2600 2275 2550 2415 
Q 2500 2556 2373 2639 
Q 2247 2722 2056 2722 
Q 1838 2722 1666 2615 
Q 1494 2509 1414 2295 
Q 1334 2081 1334 1663 
L 1334 0 
L 456 0 
L 456 4581 
L 1334 4581 
z
" transform="scale(0.015625)"/>
      <path id="Arial-BoldMT-67" d="M 378 -219 
L 1381 -341 
Q 1406 -516 1497 -581 
Q 1622 -675 1891 -675 
Q 2234 -675 2406 -572 
Q 2522 -503 2581 -350 
Q 2622 -241 2622 53 
L 2622 538 
Q 2228 0 1628 0 
Q 959 0 569 566 
Q 263 1013 263 1678 
Q 263 2513 664 2953 
Q 1066 3394 1663 3394 
Q 2278 3394 2678 2853 
L 2678 3319 
L 3500 3319 
L 3500 341 
Q 3500 -247 3403 -537 
Q 3306 -828 3131 -993 
Q 2956 -1159 2664 -1253 
Q 2372 -1347 1925 -1347 
Q 1081 -1347 728 -1058 
Q 375 -769 375 -325 
Q 375 -281 378 -219 
z
M 1163 1728 
Q 1163 1200 1367 954 
Q 1572 709 1872 709 
Q 2194 709 2416 961 
Q 2638 1213 2638 1706 
Q 2638 2222 2425 2472 
Q 2213 2722 1888 2722 
Q 1572 2722 1367 2476 
Q 1163 2231 1163 1728 
z
" transform="scale(0.015625)"/>
      <path id="Arial-BoldMT-64" d="M 3503 0 
L 2688 0 
L 2688 488 
Q 2484 203 2207 64 
Q 1931 -75 1650 -75 
Q 1078 -75 670 386 
Q 263 847 263 1672 
Q 263 2516 659 2955 
Q 1056 3394 1663 3394 
Q 2219 3394 2625 2931 
L 2625 4581 
L 3503 4581 
L 3503 0 
z
M 1159 1731 
Q 1159 1200 1306 963 
Q 1519 619 1900 619 
Q 2203 619 2415 876 
Q 2628 1134 2628 1647 
Q 2628 2219 2422 2470 
Q 2216 2722 1894 2722 
Q 1581 2722 1370 2473 
Q 1159 2225 1159 1731 
z
" transform="scale(0.015625)"/>
      <path id="Arial-BoldMT-28" d="M 1916 -1347 
L 1313 -1347 
Q 834 -625 584 153 
Q 334 931 334 1659 
Q 334 2563 644 3369 
Q 913 4069 1325 4659 
L 1925 4659 
Q 1497 3713 1336 3048 
Q 1175 2384 1175 1641 
Q 1175 1128 1270 590 
Q 1366 53 1531 -431 
Q 1641 -750 1916 -1347 
z
" transform="scale(0.015625)"/>
      <path id="Arial-BoldMT-72" d="M 1300 0 
L 422 0 
L 422 3319 
L 1238 3319 
L 1238 2847 
Q 1447 3181 1614 3287 
Q 1781 3394 1994 3394 
Q 2294 3394 2572 3228 
L 2300 2463 
Q 2078 2606 1888 2606 
Q 1703 2606 1575 2504 
Q 1447 2403 1373 2137 
Q 1300 1872 1300 1025 
L 1300 0 
z
" transform="scale(0.015625)"/>
      <path id="Arial-BoldMT-76" d="M 1372 0 
L 34 3319 
L 956 3319 
L 1581 1625 
L 1763 1059 
Q 1834 1275 1853 1344 
Q 1897 1484 1947 1625 
L 2578 3319 
L 3481 3319 
L 2163 0 
L 1372 0 
z
" transform="scale(0.015625)"/>
      <path id="Arial-BoldMT-2c" d="M 438 878 
L 1316 878 
L 1316 250 
Q 1316 -131 1250 -351 
Q 1184 -572 1001 -747 
Q 819 -922 538 -1022 
L 366 -659 
Q 631 -572 743 -419 
Q 856 -266 863 0 
L 438 0 
L 438 878 
z
" transform="scale(0.015625)"/>
      <path id="Arial-BoldMT-70" d="M 434 3319 
L 1253 3319 
L 1253 2831 
Q 1413 3081 1684 3237 
Q 1956 3394 2288 3394 
Q 2866 3394 3269 2941 
Q 3672 2488 3672 1678 
Q 3672 847 3265 386 
Q 2859 -75 2281 -75 
Q 2006 -75 1782 34 
Q 1559 144 1313 409 
L 1313 -1263 
L 434 -1263 
L 434 3319 
z
M 1303 1716 
Q 1303 1156 1525 889 
Q 1747 622 2066 622 
Q 2372 622 2575 867 
Q 2778 1113 2778 1672 
Q 2778 2194 2568 2447 
Q 2359 2700 2050 2700 
Q 1728 2700 1515 2451 
Q 1303 2203 1303 1716 
z
" transform="scale(0.015625)"/>
      <path id="Arial-BoldMT-50" d="M 466 0 
L 466 4581 
L 1950 4581 
Q 2794 4581 3050 4513 
Q 3444 4409 3709 4064 
Q 3975 3719 3975 3172 
Q 3975 2750 3822 2462 
Q 3669 2175 3433 2011 
Q 3197 1847 2953 1794 
Q 2622 1728 1994 1728 
L 1391 1728 
L 1391 0 
L 466 0 
z
M 1391 3806 
L 1391 2506 
L 1897 2506 
Q 2444 2506 2628 2578 
Q 2813 2650 2917 2803 
Q 3022 2956 3022 3159 
Q 3022 3409 2875 3571 
Q 2728 3734 2503 3775 
Q 2338 3806 1838 3806 
L 1391 3806 
z
" transform="scale(0.015625)"/>
      <path id="Arial-BoldMT-39" d="M 291 1059 
L 1141 1153 
Q 1172 894 1303 769 
Q 1434 644 1650 644 
Q 1922 644 2112 894 
Q 2303 1144 2356 1931 
Q 2025 1547 1528 1547 
Q 988 1547 595 1964 
Q 203 2381 203 3050 
Q 203 3747 617 4173 
Q 1031 4600 1672 4600 
Q 2369 4600 2816 4061 
Q 3263 3522 3263 2288 
Q 3263 1031 2797 475 
Q 2331 -81 1584 -81 
Q 1047 -81 715 205 
Q 384 491 291 1059 
z
M 2278 2978 
Q 2278 3403 2083 3637 
Q 1888 3872 1631 3872 
Q 1388 3872 1227 3680 
Q 1066 3488 1066 3050 
Q 1066 2606 1241 2398 
Q 1416 2191 1678 2191 
Q 1931 2191 2104 2391 
Q 2278 2591 2278 2978 
z
" transform="scale(0.015625)"/>
      <path id="Arial-BoldMT-29" d="M 216 -1347 
Q 475 -791 581 -494 
Q 688 -197 778 190 
Q 869 578 912 926 
Q 956 1275 956 1641 
Q 956 2384 797 3048 
Q 638 3713 209 4659 
L 806 4659 
Q 1278 3988 1539 3234 
Q 1800 2481 1800 1706 
Q 1800 1053 1594 306 
Q 1359 -531 822 -1347 
L 216 -1347 
z
" transform="scale(0.015625)"/>
     </defs>
     <use xlink:href="#Arial-BoldMT-43"/>
     <use xlink:href="#Arial-BoldMT-33" transform="translate(72.216797 0)"/>
     <use xlink:href="#Arial-BoldMT-20" transform="translate(127.832031 0)"/>
     <use xlink:href="#Arial-BoldMT-48" transform="translate(155.615234 0)"/>
     <use xlink:href="#Arial-BoldMT-6f" transform="translate(227.832031 0)"/>
     <use xlink:href="#Arial-BoldMT-77" transform="translate(288.916016 0)"/>
     <use xlink:href="#Arial-BoldMT-20" transform="translate(366.699219 0)"/>
     <use xlink:href="#Arial-BoldMT-54" transform="translate(394.482422 0)"/>
     <use xlink:href="#Arial-BoldMT-69" transform="translate(453.816406 0)"/>
     <use xlink:href="#Arial-BoldMT-6d" transform="translate(481.599609 0)"/>
     <use xlink:href="#Arial-BoldMT-65" transform="translate(570.515625 0)"/>
     <use xlink:href="#Arial-BoldMT-20" transform="translate(626.130859 0)"/>
     <use xlink:href="#Arial-BoldMT-53" transform="translate(653.914062 0)"/>
     <use xlink:href="#Arial-BoldMT-69" transform="translate(720.613281 0)"/>
     <use xlink:href="#Arial-BoldMT-6e" transform="translate(748.396484 0)"/>
     <use xlink:href="#Arial-BoldMT-63" transform="translate(809.480469 0)"/>
     <use xlink:href="#Arial-BoldMT-65" transform="translate(865.095703 0)"/>
     <use xlink:href="#Arial-BoldMT-20" transform="translate(920.710938 0)"/>
     <use xlink:href="#Arial-BoldMT-4c" transform="translate(948.494141 0)"/>
     <use xlink:href="#Arial-BoldMT-61" transform="translate(1009.578125 0)"/>
     <use xlink:href="#Arial-BoldMT-73" transform="translate(1065.193359 0)"/>
     <use xlink:href="#Arial-BoldMT-74" transform="translate(1120.808594 0)"/>
     <use xlink:href="#Arial-BoldMT-20" transform="translate(1154.109375 0)"/>
     <use xlink:href="#Arial-BoldMT-53" transform="translate(1181.892578 0)"/>
     <use xlink:href="#Arial-BoldMT-61" transform="translate(1248.591797 0)"/>
     <use xlink:href="#Arial-BoldMT-6c" transform="translate(1304.207031 0)"/>
     <use xlink:href="#Arial-BoldMT-65" transform="translate(1331.990234 0)"/>
     <use xlink:href="#Arial-BoldMT-20" transform="translate(1387.605469 0)"/>
     <use xlink:href="#Arial-BoldMT-43" transform="translate(1415.388672 0)"/>
     <use xlink:href="#Arial-BoldMT-68" transform="translate(1487.605469 0)"/>
     <use xlink:href="#Arial-BoldMT-61" transform="translate(1548.689453 0)"/>
     <use xlink:href="#Arial-BoldMT-6e" transform="translate(1604.304688 0)"/>
     <use xlink:href="#Arial-BoldMT-67" transform="translate(1665.388672 0)"/>
     <use xlink:href="#Arial-BoldMT-65" transform="translate(1726.472656 0)"/>
     <use xlink:href="#Arial-BoldMT-64" transform="translate(1782.087891 0)"/>
     <use xlink:href="#Arial-BoldMT-20" transform="translate(1843.171875 0)"/>
     <use xlink:href="#Arial-BoldMT-28" transform="translate(1870.955078 0)"/>
     <use xlink:href="#Arial-BoldMT-54" transform="translate(1904.255859 0)"/>
     <use xlink:href="#Arial-BoldMT-72" transform="translate(1959.839844 0)"/>
     <use xlink:href="#Arial-BoldMT-61" transform="translate(1998.755859 0)"/>
     <use xlink:href="#Arial-BoldMT-69" transform="translate(2054.371094 0)"/>
     <use xlink:href="#Arial-BoldMT-6e" transform="translate(2082.154297 0)"/>
     <use xlink:href="#Arial-BoldMT-20" transform="translate(2143.238281 0)"/>
     <use xlink:href="#Arial-BoldMT-76" transform="translate(2171.021484 0)"/>
     <use xlink:href="#Arial-BoldMT-73" transform="translate(2226.636719 0)"/>
     <use xlink:href="#Arial-BoldMT-20" transform="translate(2282.251953 0)"/>
     <use xlink:href="#Arial-BoldMT-54" transform="translate(2310.035156 0)"/>
     <use xlink:href="#Arial-BoldMT-65" transform="translate(2363.744141 0)"/>
     <use xlink:href="#Arial-BoldMT-73" transform="translate(2419.359375 0)"/>
     <use xlink:href="#Arial-BoldMT-74" transform="translate(2474.974609 0)"/>
     <use xlink:href="#Arial-BoldMT-2c" transform="translate(2508.275391 0)"/>
     <use xlink:href="#Arial-BoldMT-20" transform="translate(2536.058594 0)"/>
     <use xlink:href="#Arial-BoldMT-63" transform="translate(2563.841797 0)"/>
     <use xlink:href="#Arial-BoldMT-6c" transform="translate(2619.457031 0)"/>
     <use xlink:href="#Arial-BoldMT-69" transform="translate(2647.240234 0)"/>
     <use xlink:href="#Arial-BoldMT-70" transform="translate(2675.023438 0)"/>
     <use xlink:href="#Arial-BoldMT-70" transform="translate(2736.107422 0)"/>
     <use xlink:href="#Arial-BoldMT-65" transform="translate(2797.191406 0)"/>
     <use xlink:href="#Arial-BoldMT-64" transform="translate(2852.806641 0)"/>
     <use xlink:href="#Arial-BoldMT-20" transform="translate(2913.890625 0)"/>
     <use xlink:href="#Arial-BoldMT-61" transform="translate(2941.673828 0)"/>
     <use xlink:href="#Arial-BoldMT-74" transform="translate(2997.289062 0)"/>
     <use xlink:href="#Arial-BoldMT-20" transform="translate(3030.589844 0)"/>
     <use xlink:href="#Arial-BoldMT-50" transform="translate(3058.373047 0)"/>
     <use xlink:href="#Arial-BoldMT-39" transform="translate(3125.072266 0)"/>
     <use xlink:href="#Arial-BoldMT-39" transform="translate(3180.6875 0)"/>
     <use xlink:href="#Arial-BoldMT-29" transform="translate(3236.302734 0)"/>
    </g>
   </g>
   <g id="legend_1">
    <g id="patch_7">
     <path d="M 921.975937 61.855313 
L 981.822812 61.855313 
Q 984.022812 61.855313 984.022812 59.655313 
L 984.022812 29.635625 
Q 984.022812 27.435625 981.822812 27.435625 
L 921.975937 27.435625 
Q 919.775937 27.435625 919.775937 29.635625 
L 919.775937 59.655313 
Q 919.775937 61.855313 921.975937 61.855313 
z
" style="fill: #ffffff; opacity: 0.8; stroke: #cccccc; stroke-linejoin: miter"/>
    </g>
    <g id="patch_8">
     <path d="M 924.175937 39.709219 
L 946.175937 39.709219 
L 946.175937 32.009219 
L 924.175937 32.009219 
z
" style="fill: #1f77b4; fill-opacity: 0.3; stroke: #1f77b4; stroke-width: 2; stroke-linejoin: miter"/>
    </g>
    <g id="text_17">
     <!-- Train -->
     <g style="fill: #262626" transform="translate(954.975937 39.709219) scale(0.11 -0.11)">
      <defs>
       <path id="ArialMT-54" d="M 1659 0 
L 1659 4041 
L 150 4041 
L 150 4581 
L 3781 4581 
L 3781 4041 
L 2266 4041 
L 2266 0 
L 1659 0 
z
" transform="scale(0.015625)"/>
       <path id="ArialMT-72" d="M 416 0 
L 416 3319 
L 922 3319 
L 922 2816 
Q 1116 3169 1280 3281 
Q 1444 3394 1641 3394 
Q 1925 3394 2219 3213 
L 2025 2691 
Q 1819 2813 1613 2813 
Q 1428 2813 1281 2702 
Q 1134 2591 1072 2394 
Q 978 2094 978 1738 
L 978 0 
L 416 0 
z
" transform="scale(0.015625)"/>
      </defs>
      <use xlink:href="#ArialMT-54"/>
      <use xlink:href="#ArialMT-72" transform="translate(57.333984 0)"/>
      <use xlink:href="#ArialMT-61" transform="translate(90.634766 0)"/>
      <use xlink:href="#ArialMT-69" transform="translate(146.25 0)"/>
      <use xlink:href="#ArialMT-6e" transform="translate(168.466797 0)"/>
     </g>
    </g>
    <g id="patch_9">
     <path d="M 924.175937 55.269063 
L 946.175937 55.269063 
L 946.175937 47.569063 
L 924.175937 47.569063 
z
" style="fill: #ff7f0e; fill-opacity: 0.3; stroke: #ff7f0e; stroke-width: 2; stroke-linejoin: miter"/>
    </g>
    <g id="text_18">
     <!-- Test -->
     <g style="fill: #262626" transform="translate(954.975937 55.269063) scale(0.11 -0.11)">
      <use xlink:href="#ArialMT-54"/>
      <use xlink:href="#ArialMT-65" transform="translate(49.958984 0)"/>
      <use xlink:href="#ArialMT-73" transform="translate(105.574219 0)"/>
      <use xlink:href="#ArialMT-74" transform="translate(155.574219 0)"/>
     </g>
    </g>
   </g>
  </g>
 </g>
 <defs>
  <clipPath id="pcee2430666">
   <rect x="59.339063" y="21.935625" width="930.18375" height="284.77875"/>
  </clipPath>
 </defs>
</svg>
