<?xml version="1.0" encoding="utf-8" standalone="no"?>
<!DOCTYPE svg PUBLIC "-//W3C//DTD SVG 1.1//EN"
  "http://www.w3.org/Graphics/SVG/1.1/DTD/svg11.dtd">
<svg xmlns:xlink="http://www.w3.org/1999/xlink" width="996.639531pt" height="291.051094pt" viewBox="0 0 996.639531 291.051094" xmlns="http://www.w3.org/2000/svg" version="1.1">
 <metadata>
  <rdf:RDF xmlns:dc="http://purl.org/dc/elements/1.1/" xmlns:cc="http://creativecommons.org/ns#" xmlns:rdf="http://www.w3.org/1999/02/22-rdf-syntax-ns#">
   <cc:Work>
    <dc:type rdf:resource="http://purl.org/dc/dcmitype/StillImage"/>
    <dc:date>2026-03-17T14:01:37.909179</dc:date>
    <dc:format>image/svg+xml</dc:format>
    <dc:creator>
     <cc:Agent>
      <dc:title>Matplotlib v3.10.8, https://matplotlib.org/</dc:title>
     </cc:Agent>
    </dc:creator>
   </cc:Work>
  </rdf:RDF>
 </metadata>
 <defs>
  <style type="text/css">*{stroke-linejoin: round; stroke-linecap: butt}</style>
 </defs>
 <g id="figure_1">
  <g id="patch_1">
   <path d="M 0 291.051094 
L 996.639531 291.051094 
L 996.639531 0 
L 0 0 
z
" style="fill: #ffffff"/>
  </g>
  <g id="axes_1">
   <g id="patch_2">
    <path d="M 62.259531 249.316875 
L 989.439531 249.316875 
L 989.439531 21.935625 
L 62.259531 21.935625 
z
" style="fill: #ffffff"/>
   </g>
   <g id="matplotlib.axis_1">
    <g id="xtick_1">
     <g id="line2d_1">
      <path d="M 72.337575 249.316875 
L 72.337575 21.935625 
" clip-path="url(#pe0d02e1543)" style="fill: none; stroke: #cccccc; stroke-linecap: round"/>
     </g>
     <g id="text_1">
      <!-- 2011-06 -->
      <g style="fill: #262626" transform="translate(52.560778 266.690469) scale(0.11 -0.11)">
       <defs>
        <path id="ArialMT-32" d="M 3222 541 
L 3222 0 
L 194 0 
Q 188 203 259 391 
Q 375 700 629 1000 
Q 884 1300 1366 1694 
Q 2113 2306 2375 2664 
Q 2638 3022 2638 3341 
Q 2638 3675 2398 3904 
Q 2159 4134 1775 4134 
Q 1369 4134 1125 3890 
Q 881 3647 878 3216 
L 300 3275 
Q 359 3922 746 4261 
Q 1134 4600 1788 4600 
Q 2447 4600 2831 4234 
Q 3216 3869 3216 3328 
Q 3216 3053 3103 2787 
Q 2991 2522 2730 2228 
Q 2469 1934 1863 1422 
Q 1356 997 1212 845 
Q 1069 694 975 541 
L 3222 541 
z
" transform="scale(0.015625)"/>
        <path id="ArialMT-30" d="M 266 2259 
Q 266 3072 433 3567 
Q 600 4063 929 4331 
Q 1259 4600 1759 4600 
Q 2128 4600 2406 4451 
Q 2684 4303 2865 4023 
Q 3047 3744 3150 3342 
Q 3253 2941 3253 2259 
Q 3253 1453 3087 958 
Q 2922 463 2592 192 
Q 2263 -78 1759 -78 
Q 1097 -78 719 397 
Q 266 969 266 2259 
z
M 844 2259 
Q 844 1131 1108 757 
Q 1372 384 1759 384 
Q 2147 384 2411 759 
Q 2675 1134 2675 2259 
Q 2675 3391 2411 3762 
Q 2147 4134 1753 4134 
Q 1366 4134 1134 3806 
Q 844 3388 844 2259 
z
" transform="scale(0.015625)"/>
        <path id="ArialMT-31" d="M 2384 0 
L 1822 0 
L 1822 3584 
Q 1619 3391 1289 3197 
Q 959 3003 697 2906 
L 697 3450 
Q 1169 3672 1522 3987 
Q 1875 4303 2022 4600 
L 2384 4600 
L 2384 0 
z
" transform="scale(0.015625)"/>
        <path id="ArialMT-2d" d="M 203 1375 
L 203 1941 
L 1931 1941 
L 1931 1375 
L 203 1375 
z
" transform="scale(0.015625)"/>
        <path id="ArialMT-36" d="M 3184 3459 
L 2625 3416 
Q 2550 3747 2413 3897 
Q 2184 4138 1850 4138 
Q 1581 4138 1378 3988 
Q 1113 3794 959 3422 
Q 806 3050 800 2363 
Q 1003 2672 1297 2822 
Q 1591 2972 1913 2972 
Q 2475 2972 2870 2558 
Q 3266 2144 3266 1488 
Q 3266 1056 3080 686 
Q 2894 316 2569 119 
Q 2244 -78 1831 -78 
Q 1128 -78 684 439 
Q 241 956 241 2144 
Q 241 3472 731 4075 
Q 1159 4600 1884 4600 
Q 2425 4600 2770 4297 
Q 3116 3994 3184 3459 
z
M 888 1484 
Q 888 1194 1011 928 
Q 1134 663 1356 523 
Q 1578 384 1822 384 
Q 2178 384 2434 671 
Q 2691 959 2691 1453 
Q 2691 1928 2437 2201 
Q 2184 2475 1800 2475 
Q 1419 2475 1153 2201 
Q 888 1928 888 1484 
z
" transform="scale(0.015625)"/>
       </defs>
       <use xlink:href="#ArialMT-32"/>
       <use xlink:href="#ArialMT-30" transform="translate(55.615234 0)"/>
       <use xlink:href="#ArialMT-31" transform="translate(111.230469 0)"/>
       <use xlink:href="#ArialMT-31" transform="translate(159.470703 0)"/>
       <use xlink:href="#ArialMT-2d" transform="translate(215.085938 0)"/>
       <use xlink:href="#ArialMT-30" transform="translate(248.386719 0)"/>
       <use xlink:href="#ArialMT-36" transform="translate(304.001953 0)"/>
      </g>
     </g>
    </g>
    <g id="xtick_2">
     <g id="line2d_2">
      <path d="M 209.76544 249.316875 
L 209.76544 21.935625 
" clip-path="url(#pe0d02e1543)" style="fill: none; stroke: #cccccc; stroke-linecap: round"/>
     </g>
     <g id="text_2">
      <!-- 2011-07 -->
      <g style="fill: #262626" transform="translate(189.988643 266.690469) scale(0.11 -0.11)">
       <defs>
        <path id="ArialMT-37" d="M 303 3981 
L 303 4522 
L 3269 4522 
L 3269 4084 
Q 2831 3619 2401 2847 
Q 1972 2075 1738 1259 
Q 1569 684 1522 0 
L 944 0 
Q 953 541 1156 1306 
Q 1359 2072 1739 2783 
Q 2119 3494 2547 3981 
L 303 3981 
z
" transform="scale(0.015625)"/>
       </defs>
       <use xlink:href="#ArialMT-32"/>
       <use xlink:href="#ArialMT-30" transform="translate(55.615234 0)"/>
       <use xlink:href="#ArialMT-31" transform="translate(111.230469 0)"/>
       <use xlink:href="#ArialMT-31" transform="translate(159.470703 0)"/>
       <use xlink:href="#ArialMT-2d" transform="translate(215.085938 0)"/>
       <use xlink:href="#ArialMT-30" transform="translate(248.386719 0)"/>
       <use xlink:href="#ArialMT-37" transform="translate(304.001953 0)"/>
      </g>
     </g>
    </g>
    <g id="xtick_3">
     <g id="line2d_3">
      <path d="M 351.774235 249.316875 
L 351.774235 21.935625 
" clip-path="url(#pe0d02e1543)" style="fill: none; stroke: #cccccc; stroke-linecap: round"/>
     </g>
     <g id="text_3">
      <!-- 2011-08 -->
      <g style="fill: #262626" transform="translate(331.997438 266.690469) scale(0.11 -0.11)">
       <defs>
        <path id="ArialMT-38" d="M 1131 2484 
Q 781 2613 612 2850 
Q 444 3088 444 3419 
Q 444 3919 803 4259 
Q 1163 4600 1759 4600 
Q 2359 4600 2725 4251 
Q 3091 3903 3091 3403 
Q 3091 3084 2923 2848 
Q 2756 2613 2416 2484 
Q 2838 2347 3058 2040 
Q 3278 1734 3278 1309 
Q 3278 722 2862 322 
Q 2447 -78 1769 -78 
Q 1091 -78 675 323 
Q 259 725 259 1325 
Q 259 1772 486 2073 
Q 713 2375 1131 2484 
z
M 1019 3438 
Q 1019 3113 1228 2906 
Q 1438 2700 1772 2700 
Q 2097 2700 2305 2904 
Q 2513 3109 2513 3406 
Q 2513 3716 2298 3927 
Q 2084 4138 1766 4138 
Q 1444 4138 1231 3931 
Q 1019 3725 1019 3438 
z
M 838 1322 
Q 838 1081 952 856 
Q 1066 631 1291 507 
Q 1516 384 1775 384 
Q 2178 384 2440 643 
Q 2703 903 2703 1303 
Q 2703 1709 2433 1975 
Q 2163 2241 1756 2241 
Q 1359 2241 1098 1978 
Q 838 1716 838 1322 
z
" transform="scale(0.015625)"/>
       </defs>
       <use xlink:href="#ArialMT-32"/>
       <use xlink:href="#ArialMT-30" transform="translate(55.615234 0)"/>
       <use xlink:href="#ArialMT-31" transform="translate(111.230469 0)"/>
       <use xlink:href="#ArialMT-31" transform="translate(159.470703 0)"/>
       <use xlink:href="#ArialMT-2d" transform="translate(215.085938 0)"/>
       <use xlink:href="#ArialMT-30" transform="translate(248.386719 0)"/>
       <use xlink:href="#ArialMT-38" transform="translate(304.001953 0)"/>
      </g>
     </g>
    </g>
    <g id="xtick_4">
     <g id="line2d_4">
      <path d="M 493.783029 249.316875 
L 493.783029 21.935625 
" clip-path="url(#pe0d02e1543)" style="fill: none; stroke: #cccccc; stroke-linecap: round"/>
     </g>
     <g id="text_4">
      <!-- 2011-09 -->
      <g style="fill: #262626" transform="translate(474.006232 266.690469) scale(0.11 -0.11)">
       <defs>
        <path id="ArialMT-39" d="M 350 1059 
L 891 1109 
Q 959 728 1153 556 
Q 1347 384 1650 384 
Q 1909 384 2104 503 
Q 2300 622 2425 820 
Q 2550 1019 2634 1356 
Q 2719 1694 2719 2044 
Q 2719 2081 2716 2156 
Q 2547 1888 2255 1720 
Q 1963 1553 1622 1553 
Q 1053 1553 659 1965 
Q 266 2378 266 3053 
Q 266 3750 677 4175 
Q 1088 4600 1706 4600 
Q 2153 4600 2523 4359 
Q 2894 4119 3086 3673 
Q 3278 3228 3278 2384 
Q 3278 1506 3087 986 
Q 2897 466 2520 194 
Q 2144 -78 1638 -78 
Q 1100 -78 759 220 
Q 419 519 350 1059 
z
M 2653 3081 
Q 2653 3566 2395 3850 
Q 2138 4134 1775 4134 
Q 1400 4134 1122 3828 
Q 844 3522 844 3034 
Q 844 2597 1108 2323 
Q 1372 2050 1759 2050 
Q 2150 2050 2401 2323 
Q 2653 2597 2653 3081 
z
" transform="scale(0.015625)"/>
       </defs>
       <use xlink:href="#ArialMT-32"/>
       <use xlink:href="#ArialMT-30" transform="translate(55.615234 0)"/>
       <use xlink:href="#ArialMT-31" transform="translate(111.230469 0)"/>
       <use xlink:href="#ArialMT-31" transform="translate(159.470703 0)"/>
       <use xlink:href="#ArialMT-2d" transform="translate(215.085938 0)"/>
       <use xlink:href="#ArialMT-30" transform="translate(248.386719 0)"/>
       <use xlink:href="#ArialMT-39" transform="translate(304.001953 0)"/>
      </g>
     </g>
    </g>
    <g id="xtick_5">
     <g id="line2d_5">
      <path d="M 631.210895 249.316875 
L 631.210895 21.935625 
" clip-path="url(#pe0d02e1543)" style="fill: none; stroke: #cccccc; stroke-linecap: round"/>
     </g>
     <g id="text_5">
      <!-- 2011-10 -->
      <g style="fill: #262626" transform="translate(611.434098 266.690469) scale(0.11 -0.11)">
       <use xlink:href="#ArialMT-32"/>
       <use xlink:href="#ArialMT-30" transform="translate(55.615234 0)"/>
       <use xlink:href="#ArialMT-31" transform="translate(111.230469 0)"/>
       <use xlink:href="#ArialMT-31" transform="translate(159.470703 0)"/>
       <use xlink:href="#ArialMT-2d" transform="translate(215.085938 0)"/>
       <use xlink:href="#ArialMT-31" transform="translate(248.386719 0)"/>
       <use xlink:href="#ArialMT-30" transform="translate(304.001953 0)"/>
      </g>
     </g>
    </g>
    <g id="xtick_6">
     <g id="line2d_6">
      <path d="M 773.219689 249.316875 
L 773.219689 21.935625 
" clip-path="url(#pe0d02e1543)" style="fill: none; stroke: #cccccc; stroke-linecap: round"/>
     </g>
     <g id="text_6">
      <!-- 2011-11 -->
      <g style="fill: #262626" transform="translate(753.848517 266.690469) scale(0.11 -0.11)">
       <use xlink:href="#ArialMT-32"/>
       <use xlink:href="#ArialMT-30" transform="translate(55.615234 0)"/>
       <use xlink:href="#ArialMT-31" transform="translate(111.230469 0)"/>
       <use xlink:href="#ArialMT-31" transform="translate(159.470703 0)"/>
       <use xlink:href="#ArialMT-2d" transform="translate(215.085938 0)"/>
       <use xlink:href="#ArialMT-31" transform="translate(248.386719 0)"/>
       <use xlink:href="#ArialMT-31" transform="translate(296.626953 0)"/>
      </g>
     </g>
    </g>
    <g id="xtick_7">
     <g id="line2d_7">
      <path d="M 910.647555 249.316875 
L 910.647555 21.935625 
" clip-path="url(#pe0d02e1543)" style="fill: none; stroke: #cccccc; stroke-linecap: round"/>
     </g>
     <g id="text_7">
      <!-- 2011-12 -->
      <g style="fill: #262626" transform="translate(890.870758 266.690469) scale(0.11 -0.11)">
       <use xlink:href="#ArialMT-32"/>
       <use xlink:href="#ArialMT-30" transform="translate(55.615234 0)"/>
       <use xlink:href="#ArialMT-31" transform="translate(111.230469 0)"/>
       <use xlink:href="#ArialMT-31" transform="translate(159.470703 0)"/>
       <use xlink:href="#ArialMT-2d" transform="translate(215.085938 0)"/>
       <use xlink:href="#ArialMT-31" transform="translate(248.386719 0)"/>
       <use xlink:href="#ArialMT-32" transform="translate(304.001953 0)"/>
      </g>
     </g>
    </g>
    <g id="text_8">
     <!-- Date -->
     <g style="fill: #262626" transform="translate(513.176406 281.466094) scale(0.12 -0.12)">
      <defs>
       <path id="ArialMT-44" d="M 494 0 
L 494 4581 
L 2072 4581 
Q 2606 4581 2888 4516 
Q 3281 4425 3559 4188 
Q 3922 3881 4101 3404 
Q 4281 2928 4281 2316 
Q 4281 1794 4159 1391 
Q 4038 988 3847 723 
Q 3656 459 3429 307 
Q 3203 156 2883 78 
Q 2563 0 2147 0 
L 494 0 
z
M 1100 541 
L 2078 541 
Q 2531 541 2789 625 
Q 3047 709 3200 863 
Q 3416 1078 3536 1442 
Q 3656 1806 3656 2325 
Q 3656 3044 3420 3430 
Q 3184 3816 2847 3947 
Q 2603 4041 2063 4041 
L 1100 4041 
L 1100 541 
z
" transform="scale(0.015625)"/>
       <path id="ArialMT-61" d="M 2588 409 
Q 2275 144 1986 34 
Q 1697 -75 1366 -75 
Q 819 -75 525 192 
Q 231 459 231 875 
Q 231 1119 342 1320 
Q 453 1522 633 1644 
Q 813 1766 1038 1828 
Q 1203 1872 1538 1913 
Q 2219 1994 2541 2106 
Q 2544 2222 2544 2253 
Q 2544 2597 2384 2738 
Q 2169 2928 1744 2928 
Q 1347 2928 1158 2789 
Q 969 2650 878 2297 
L 328 2372 
Q 403 2725 575 2942 
Q 747 3159 1072 3276 
Q 1397 3394 1825 3394 
Q 2250 3394 2515 3294 
Q 2781 3194 2906 3042 
Q 3031 2891 3081 2659 
Q 3109 2516 3109 2141 
L 3109 1391 
Q 3109 606 3145 398 
Q 3181 191 3288 0 
L 2700 0 
Q 2613 175 2588 409 
z
M 2541 1666 
Q 2234 1541 1622 1453 
Q 1275 1403 1131 1340 
Q 988 1278 909 1158 
Q 831 1038 831 891 
Q 831 666 1001 516 
Q 1172 366 1500 366 
Q 1825 366 2078 508 
Q 2331 650 2450 897 
Q 2541 1088 2541 1459 
L 2541 1666 
z
" transform="scale(0.015625)"/>
       <path id="ArialMT-74" d="M 1650 503 
L 1731 6 
Q 1494 -44 1306 -44 
Q 1000 -44 831 53 
Q 663 150 594 308 
Q 525 466 525 972 
L 525 2881 
L 113 2881 
L 113 3319 
L 525 3319 
L 525 4141 
L 1084 4478 
L 1084 3319 
L 1650 3319 
L 1650 2881 
L 1084 2881 
L 1084 941 
Q 1084 700 1114 631 
Q 1144 563 1211 522 
Q 1278 481 1403 481 
Q 1497 481 1650 503 
z
" transform="scale(0.015625)"/>
       <path id="ArialMT-65" d="M 2694 1069 
L 3275 997 
Q 3138 488 2766 206 
Q 2394 -75 1816 -75 
Q 1088 -75 661 373 
Q 234 822 234 1631 
Q 234 2469 665 2931 
Q 1097 3394 1784 3394 
Q 2450 3394 2872 2941 
Q 3294 2488 3294 1666 
Q 3294 1616 3291 1516 
L 816 1516 
Q 847 969 1125 678 
Q 1403 388 1819 388 
Q 2128 388 2347 550 
Q 2566 713 2694 1069 
z
M 847 1978 
L 2700 1978 
Q 2663 2397 2488 2606 
Q 2219 2931 1791 2931 
Q 1403 2931 1139 2672 
Q 875 2413 847 1978 
z
" transform="scale(0.015625)"/>
      </defs>
      <use xlink:href="#ArialMT-44"/>
      <use xlink:href="#ArialMT-61" transform="translate(72.216797 0)"/>
      <use xlink:href="#ArialMT-74" transform="translate(127.832031 0)"/>
      <use xlink:href="#ArialMT-65" transform="translate(155.615234 0)"/>
     </g>
    </g>
   </g>
   <g id="matplotlib.axis_2">
    <g id="ytick_1">
     <g id="line2d_8">
      <path d="M 62.259531 229.206878 
L 989.439531 229.206878 
" clip-path="url(#pe0d02e1543)" style="fill: none; stroke: #cccccc; stroke-linecap: round"/>
     </g>
     <g id="text_9">
      <!-- 0 -->
      <g style="fill: #262626" transform="translate(46.6425 233.143675) scale(0.11 -0.11)">
       <use xlink:href="#ArialMT-30"/>
      </g>
     </g>
    </g>
    <g id="ytick_2">
     <g id="line2d_9">
      <path d="M 62.259531 199.011954 
L 989.439531 199.011954 
" clip-path="url(#pe0d02e1543)" style="fill: none; stroke: #cccccc; stroke-linecap: round"/>
     </g>
     <g id="text_10">
      <!-- 2000 -->
      <g style="fill: #262626" transform="translate(28.291406 202.94875) scale(0.11 -0.11)">
       <use xlink:href="#ArialMT-32"/>
       <use xlink:href="#ArialMT-30" transform="translate(55.615234 0)"/>
       <use xlink:href="#ArialMT-30" transform="translate(111.230469 0)"/>
       <use xlink:href="#ArialMT-30" transform="translate(166.845703 0)"/>
      </g>
     </g>
    </g>
    <g id="ytick_3">
     <g id="line2d_10">
      <path d="M 62.259531 168.817029 
L 989.439531 168.817029 
" clip-path="url(#pe0d02e1543)" style="fill: none; stroke: #cccccc; stroke-linecap: round"/>
     </g>
     <g id="text_11">
      <!-- 4000 -->
      <g style="fill: #262626" transform="translate(28.291406 172.753826) scale(0.11 -0.11)">
       <defs>
        <path id="ArialMT-34" d="M 2069 0 
L 2069 1097 
L 81 1097 
L 81 1613 
L 2172 4581 
L 2631 4581 
L 2631 1613 
L 3250 1613 
L 3250 1097 
L 2631 1097 
L 2631 0 
L 2069 0 
z
M 2069 1613 
L 2069 3678 
L 634 1613 
L 2069 1613 
z
" transform="scale(0.015625)"/>
       </defs>
       <use xlink:href="#ArialMT-34"/>
       <use xlink:href="#ArialMT-30" transform="translate(55.615234 0)"/>
       <use xlink:href="#ArialMT-30" transform="translate(111.230469 0)"/>
       <use xlink:href="#ArialMT-30" transform="translate(166.845703 0)"/>
      </g>
     </g>
    </g>
    <g id="ytick_4">
     <g id="line2d_11">
      <path d="M 62.259531 138.622104 
L 989.439531 138.622104 
" clip-path="url(#pe0d02e1543)" style="fill: none; stroke: #cccccc; stroke-linecap: round"/>
     </g>
     <g id="text_12">
      <!-- 6000 -->
      <g style="fill: #262626" transform="translate(28.291406 142.558901) scale(0.11 -0.11)">
       <use xlink:href="#ArialMT-36"/>
       <use xlink:href="#ArialMT-30" transform="translate(55.615234 0)"/>
       <use xlink:href="#ArialMT-30" transform="translate(111.230469 0)"/>
       <use xlink:href="#ArialMT-30" transform="translate(166.845703 0)"/>
      </g>
     </g>
    </g>
    <g id="ytick_5">
     <g id="line2d_12">
      <path d="M 62.259531 108.427179 
L 989.439531 108.427179 
" clip-path="url(#pe0d02e1543)" style="fill: none; stroke: #cccccc; stroke-linecap: round"/>
     </g>
     <g id="text_13">
      <!-- 8000 -->
      <g style="fill: #262626" transform="translate(28.291406 112.363976) scale(0.11 -0.11)">
       <use xlink:href="#ArialMT-38"/>
       <use xlink:href="#ArialMT-30" transform="translate(55.615234 0)"/>
       <use xlink:href="#ArialMT-30" transform="translate(111.230469 0)"/>
       <use xlink:href="#ArialMT-30" transform="translate(166.845703 0)"/>
      </g>
     </g>
    </g>
    <g id="ytick_6">
     <g id="line2d_13">
      <path d="M 62.259531 78.232255 
L 989.439531 78.232255 
" clip-path="url(#pe0d02e1543)" style="fill: none; stroke: #cccccc; stroke-linecap: round"/>
     </g>
     <g id="text_14">
      <!-- 10000 -->
      <g style="fill: #262626" transform="translate(22.174375 82.169052) scale(0.11 -0.11)">
       <use xlink:href="#ArialMT-31"/>
       <use xlink:href="#ArialMT-30" transform="translate(55.615234 0)"/>
       <use xlink:href="#ArialMT-30" transform="translate(111.230469 0)"/>
       <use xlink:href="#ArialMT-30" transform="translate(166.845703 0)"/>
       <use xlink:href="#ArialMT-30" transform="translate(222.460938 0)"/>
      </g>
     </g>
    </g>
    <g id="ytick_7">
     <g id="line2d_14">
      <path d="M 62.259531 48.03733 
L 989.439531 48.03733 
" clip-path="url(#pe0d02e1543)" style="fill: none; stroke: #cccccc; stroke-linecap: round"/>
     </g>
     <g id="text_15">
      <!-- 12000 -->
      <g style="fill: #262626" transform="translate(22.174375 51.974127) scale(0.11 -0.11)">
       <use xlink:href="#ArialMT-31"/>
       <use xlink:href="#ArialMT-32" transform="translate(55.615234 0)"/>
       <use xlink:href="#ArialMT-30" transform="translate(111.230469 0)"/>
       <use xlink:href="#ArialMT-30" transform="translate(166.845703 0)"/>
       <use xlink:href="#ArialMT-30" transform="translate(222.460938 0)"/>
      </g>
     </g>
    </g>
    <g id="text_16">
     <!-- Residual -->
     <g style="fill: #262626" transform="translate(15.789375 158.971875) rotate(-90) scale(0.12 -0.12)">
      <defs>
       <path id="ArialMT-52" d="M 503 0 
L 503 4581 
L 2534 4581 
Q 3147 4581 3465 4457 
Q 3784 4334 3975 4021 
Q 4166 3709 4166 3331 
Q 4166 2844 3850 2509 
Q 3534 2175 2875 2084 
Q 3116 1969 3241 1856 
Q 3506 1613 3744 1247 
L 4541 0 
L 3778 0 
L 3172 953 
Q 2906 1366 2734 1584 
Q 2563 1803 2427 1890 
Q 2291 1978 2150 2013 
Q 2047 2034 1813 2034 
L 1109 2034 
L 1109 0 
L 503 0 
z
M 1109 2559 
L 2413 2559 
Q 2828 2559 3062 2645 
Q 3297 2731 3419 2920 
Q 3541 3109 3541 3331 
Q 3541 3656 3305 3865 
Q 3069 4075 2559 4075 
L 1109 4075 
L 1109 2559 
z
" transform="scale(0.015625)"/>
       <path id="ArialMT-73" d="M 197 991 
L 753 1078 
Q 800 744 1014 566 
Q 1228 388 1613 388 
Q 2000 388 2187 545 
Q 2375 703 2375 916 
Q 2375 1106 2209 1216 
Q 2094 1291 1634 1406 
Q 1016 1563 777 1677 
Q 538 1791 414 1992 
Q 291 2194 291 2438 
Q 291 2659 392 2848 
Q 494 3038 669 3163 
Q 800 3259 1026 3326 
Q 1253 3394 1513 3394 
Q 1903 3394 2198 3281 
Q 2494 3169 2634 2976 
Q 2775 2784 2828 2463 
L 2278 2388 
Q 2241 2644 2061 2787 
Q 1881 2931 1553 2931 
Q 1166 2931 1000 2803 
Q 834 2675 834 2503 
Q 834 2394 903 2306 
Q 972 2216 1119 2156 
Q 1203 2125 1616 2013 
Q 2213 1853 2448 1751 
Q 2684 1650 2818 1456 
Q 2953 1263 2953 975 
Q 2953 694 2789 445 
Q 2625 197 2315 61 
Q 2006 -75 1616 -75 
Q 969 -75 630 194 
Q 291 463 197 991 
z
" transform="scale(0.015625)"/>
       <path id="ArialMT-69" d="M 425 3934 
L 425 4581 
L 988 4581 
L 988 3934 
L 425 3934 
z
M 425 0 
L 425 3319 
L 988 3319 
L 988 0 
L 425 0 
z
" transform="scale(0.015625)"/>
       <path id="ArialMT-64" d="M 2575 0 
L 2575 419 
Q 2259 -75 1647 -75 
Q 1250 -75 917 144 
Q 584 363 401 755 
Q 219 1147 219 1656 
Q 219 2153 384 2558 
Q 550 2963 881 3178 
Q 1213 3394 1622 3394 
Q 1922 3394 2156 3267 
Q 2391 3141 2538 2938 
L 2538 4581 
L 3097 4581 
L 3097 0 
L 2575 0 
z
M 797 1656 
Q 797 1019 1065 703 
Q 1334 388 1700 388 
Q 2069 388 2326 689 
Q 2584 991 2584 1609 
Q 2584 2291 2321 2609 
Q 2059 2928 1675 2928 
Q 1300 2928 1048 2622 
Q 797 2316 797 1656 
z
" transform="scale(0.015625)"/>
       <path id="ArialMT-75" d="M 2597 0 
L 2597 488 
Q 2209 -75 1544 -75 
Q 1250 -75 995 37 
Q 741 150 617 320 
Q 494 491 444 738 
Q 409 903 409 1263 
L 409 3319 
L 972 3319 
L 972 1478 
Q 972 1038 1006 884 
Q 1059 663 1231 536 
Q 1403 409 1656 409 
Q 1909 409 2131 539 
Q 2353 669 2445 892 
Q 2538 1116 2538 1541 
L 2538 3319 
L 3100 3319 
L 3100 0 
L 2597 0 
z
" transform="scale(0.015625)"/>
       <path id="ArialMT-6c" d="M 409 0 
L 409 4581 
L 972 4581 
L 972 0 
L 409 0 
z
" transform="scale(0.015625)"/>
      </defs>
      <use xlink:href="#ArialMT-52"/>
      <use xlink:href="#ArialMT-65" transform="translate(72.216797 0)"/>
      <use xlink:href="#ArialMT-73" transform="translate(127.832031 0)"/>
      <use xlink:href="#ArialMT-69" transform="translate(177.832031 0)"/>
      <use xlink:href="#ArialMT-64" transform="translate(200.048828 0)"/>
      <use xlink:href="#ArialMT-75" transform="translate(255.664062 0)"/>
      <use xlink:href="#ArialMT-61" transform="translate(311.279297 0)"/>
      <use xlink:href="#ArialMT-6c" transform="translate(366.894531 0)"/>
     </g>
    </g>
   </g>
   <g id="line2d_15">
    <path d="M 62.259531 229.206878 
L 989.439531 229.206878 
" clip-path="url(#pe0d02e1543)" style="fill: none; stroke-dasharray: 4.44,1.92; stroke-dashoffset: 0; stroke: #000000; stroke-opacity: 0.8; stroke-width: 1.2"/>
   </g>
   <g id="line2d_16">
    <path d="M 104.404077 225.8665 
L 108.985006 186.178744 
L 113.565934 228.476247 
L 118.146863 238.981364 
L 122.727792 228.091262 
L 127.308721 220.018196 
L 131.88965 121.160767 
L 136.470579 216.783716 
L 141.051508 211.480128 
L 145.632436 234.653072 
L 150.213365 238.981364 
L 154.794294 221.293328 
L 159.375223 219.191912 
L 163.956152 204.717371 
L 168.537081 215.292841 
L 173.11801 218.215861 
L 177.698938 221.684201 
L 182.279867 238.981364 
L 186.860796 229.397495 
L 191.441725 223.197571 
L 196.022654 214.942429 
L 200.603583 203.083071 
L 205.184511 208.219378 
L 209.76544 233.324344 
L 214.346369 238.981364 
L 218.927298 229.411988 
L 223.508227 208.625953 
L 228.089156 198.795089 
L 232.670085 208.984216 
L 237.251013 216.256663 
L 241.831942 220.155885 
L 246.412871 238.981364 
L 250.9938 229.583646 
L 255.574729 216.186762 
L 260.155658 214.433192 
L 264.736587 217.184553 
L 269.317515 215.143074 
L 273.898444 218.803152 
L 278.479373 238.981364 
L 283.060302 217.744367 
L 287.641231 221.01327 
L 292.22216 204.962856 
L 296.803089 199.496668 
L 301.384017 211.832805 
L 305.964946 216.969565 
L 310.545875 238.981364 
L 315.126804 207.065026 
L 319.707733 214.768355 
L 324.288662 215.959696 
L 328.869591 226.752268 
L 333.450519 167.697789 
L 338.031448 226.243635 
L 342.612377 238.981364 
L 347.193306 220.009289 
L 351.774235 224.442205 
L 356.355164 206.739374 
L 360.936093 217.869676 
L 365.517021 202.497138 
L 370.09795 228.864554 
L 374.678879 238.981364 
L 379.259808 228.878444 
L 383.840737 220.388537 
L 388.421666 228.165995 
L 393.002594 225.988186 
L 397.583523 196.586783 
L 402.164452 219.446002 
L 406.745381 238.981364 
L 411.32631 236.134586 
L 415.907239 221.664876 
L 420.488168 217.821666 
L 425.069096 224.74038 
L 429.650025 221.795167 
L 434.230954 226.906715 
L 438.811883 238.981364 
L 443.392812 228.280433 
L 447.973741 222.995718 
L 452.55467 219.422148 
L 457.135598 193.418128 
L 461.716527 224.038348 
L 466.297456 229.793199 
L 470.878385 238.981364 
L 475.459314 228.899882 
L 480.040243 238.981364 
L 484.621172 204.606254 
L 489.2021 230.35875 
L 493.783029 211.624158 
L 498.363958 201.501007 
L 502.944887 238.981364 
L 507.525816 227.848344 
L 512.106745 210.163629 
L 516.687674 227.83068 
L 521.268602 223.955161 
L 525.849531 216.787792 
L 530.43046 217.129448 
L 535.011389 238.981364 
L 539.592318 221.404143 
L 544.173247 218.320939 
L 548.754176 212.666034 
L 553.335104 212.137321 
L 557.916033 221.525376 
L 562.496962 215.717533 
L 567.077891 238.981364 
L 571.65882 229.325329 
L 576.239749 224.471042 
L 580.820677 224.823265 
L 585.401606 204.747868 
L 589.982535 204.005676 
L 594.563464 219.396634 
L 599.144393 238.981364 
L 603.725322 210.533819 
L 608.306251 219.372327 
L 612.887179 216.340303 
L 617.468108 214.149963 
L 622.049037 205.398417 
L 626.629966 216.635308 
L 631.210895 238.981364 
L 635.791824 224.174376 
L 640.372753 32.271136 
L 644.953681 202.377264 
L 649.53461 174.472474 
L 654.115539 201.16675 
L 658.696468 200.785992 
L 663.277397 238.981364 
L 667.858326 223.424184 
L 672.439255 191.658519 
L 677.020183 200.850609 
L 681.601112 214.660258 
L 686.182041 220.77624 
L 690.76297 220.288139 
L 695.343899 238.981364 
L 699.924828 211.55637 
L 704.505757 203.367658 
L 709.086685 178.542447 
L 713.667614 204.796029 
L 718.248543 216.334566 
L 722.829472 173.656607 
L 727.410401 238.981364 
L 731.99133 222.211706 
L 736.572259 192.06298 
L 741.153187 207.188976 
L 745.734116 197.007399 
L 750.315045 202.601914 
L 754.895974 211.790532 
L 759.476903 238.981364 
L 764.057832 210.329853 
L 768.63876 184.730595 
L 773.219689 214.970058 
L 777.800618 196.309745 
L 782.381547 202.868989 
L 786.962476 106.186953 
L 791.543405 238.981364 
L 796.124334 212.304299 
L 800.705262 202.950968 
L 805.286191 196.575007 
L 809.86712 196.15243 
L 814.448049 177.986861 
L 819.028978 192.078832 
L 823.609907 238.981364 
L 828.190836 210.923636 
L 832.771764 175.472077 
L 837.352693 186.197767 
L 841.933622 177.976444 
L 846.514551 199.126026 
L 851.09548 218.105197 
L 855.676409 238.981364 
L 860.257338 211.850318 
L 864.838266 206.426857 
L 869.419195 179.711746 
L 874.000124 161.624533 
L 878.581053 193.936122 
L 883.161982 204.998939 
L 887.742911 238.981364 
L 892.32384 216.111728 
L 896.904768 197.045293 
L 901.485697 190.934747 
L 906.066626 205.772985 
L 910.647555 198.911491 
L 915.228484 205.338329 
L 919.809413 238.981364 
L 924.390342 220.245413 
L 928.97127 152.70299 
L 933.552199 186.388146 
L 938.133128 195.285231 
L 942.714057 86.958674 
L 947.294986 203.909355 
L 947.294986 203.909355 
" clip-path="url(#pe0d02e1543)" style="fill: none; stroke: #ff7f0e; stroke-opacity: 0.35; stroke-width: 1.2; stroke-linecap: round"/>
   </g>
   <g id="line2d_17">
    <path d="M 104.404077 236.975732 
L 108.985006 197.89852 
L 113.565934 228.959576 
L 118.146863 229.206878 
L 127.308721 228.516164 
L 131.88965 129.48195 
L 136.470579 226.428561 
L 141.051508 218.446584 
L 145.632436 229.58795 
L 150.213365 229.206878 
L 154.794294 224.328081 
L 159.375223 226.661016 
L 163.956152 212.326665 
L 168.537081 219.03434 
L 173.11801 225.188091 
L 177.698938 222.735344 
L 182.279867 229.206878 
L 186.860796 230.257546 
L 191.441725 228.32505 
L 196.022654 213.392521 
L 200.603583 218.958789 
L 205.184511 220.668917 
L 209.76544 230.515406 
L 214.346369 229.206878 
L 218.927298 225.649701 
L 223.508227 222.623472 
L 228.089156 215.233682 
L 232.670085 225.181426 
L 237.251013 231.329774 
L 241.831942 227.402581 
L 246.412871 229.206878 
L 250.9938 229.615289 
L 255.574729 224.70076 
L 260.155658 226.187436 
L 264.736587 225.016978 
L 269.317515 225.75103 
L 273.898444 226.873756 
L 278.479373 229.206878 
L 283.060302 219.460589 
L 287.641231 232.723146 
L 292.22216 206.677346 
L 296.803089 213.12123 
L 301.384017 218.234966 
L 305.964946 225.903602 
L 310.545875 229.206878 
L 315.126804 206.810576 
L 319.707733 224.702522 
L 324.288662 219.306189 
L 328.869591 231.244004 
L 333.450519 173.894428 
L 338.031448 227.936427 
L 342.612377 229.206878 
L 347.193306 222.629878 
L 351.774235 227.466669 
L 356.355164 210.635575 
L 360.936093 223.773188 
L 365.517021 209.344135 
L 370.09795 229.359454 
L 374.678879 229.206878 
L 379.259808 225.541522 
L 383.840737 226.156815 
L 388.421666 227.526117 
L 393.002594 231.898431 
L 397.583523 205.714746 
L 402.164452 223.217081 
L 406.745381 229.206878 
L 411.32631 230.587509 
L 415.907239 222.128474 
L 420.488168 220.759349 
L 425.069096 227.758449 
L 429.650025 223.076477 
L 434.230954 223.083723 
L 438.811883 229.206878 
L 443.392812 228.664203 
L 447.973741 223.765672 
L 452.55467 221.478611 
L 457.135598 198.068088 
L 461.716527 228.360579 
L 466.297456 226.934109 
L 470.878385 229.206878 
L 475.459314 229.962024 
L 480.040243 229.206878 
L 484.621172 223.150199 
L 489.2021 232.559753 
L 493.783029 214.870492 
L 498.363958 210.211682 
L 502.944887 229.206878 
L 507.525816 228.460314 
L 512.106745 215.962093 
L 516.687674 226.640136 
L 521.268602 229.269403 
L 525.849531 220.845629 
L 530.43046 219.39577 
L 535.011389 229.206878 
L 539.592318 224.336886 
L 544.173247 222.405913 
L 548.754176 218.335253 
L 553.335104 217.161791 
L 557.916033 228.88656 
L 562.496962 216.779868 
L 567.077891 229.206878 
L 571.65882 229.794077 
L 576.239749 223.314231 
L 580.820677 227.137054 
L 585.401606 217.640301 
L 589.982535 212.309455 
L 594.563464 224.843966 
L 599.144393 229.206878 
L 603.725322 214.557651 
L 608.306251 227.106427 
L 612.887179 225.765243 
L 617.468108 228.859306 
L 622.049037 218.810948 
L 626.629966 219.14724 
L 631.210895 229.206878 
L 635.791824 226.379488 
L 640.372753 46.323979 
L 644.953681 213.578195 
L 649.53461 184.455524 
L 654.115539 211.220528 
L 658.696468 208.205681 
L 663.277397 229.206878 
L 667.858326 227.340171 
L 672.439255 205.073005 
L 677.020183 207.583112 
L 681.601112 222.911159 
L 686.182041 230.393523 
L 690.76297 226.913893 
L 695.343899 229.206878 
L 699.924828 216.035967 
L 704.505757 215.348826 
L 709.086685 188.277319 
L 713.667614 217.246743 
L 718.248543 225.450689 
L 722.829472 175.295324 
L 727.410401 229.206878 
L 731.99133 229.595074 
L 736.572259 207.257589 
L 741.153187 216.306331 
L 745.734116 207.68151 
L 750.315045 212.861769 
L 754.895974 213.482959 
L 759.476903 229.206878 
L 764.057832 217.429647 
L 768.63876 202.57382 
L 773.219689 220.574669 
L 777.800618 207.792893 
L 782.381547 217.403506 
L 786.962476 119.678161 
L 791.543405 229.206878 
L 796.124334 221.381049 
L 800.705262 209.304206 
L 805.286191 216.771809 
L 809.86712 210.99695 
L 814.448049 194.340568 
L 819.028978 210.528104 
L 823.609907 229.206878 
L 828.190836 220.423231 
L 832.771764 194.838748 
L 837.352693 208.020056 
L 841.933622 199.206832 
L 846.514551 218.541842 
L 851.09548 229.795615 
L 855.676409 229.206878 
L 860.257338 225.197877 
L 864.838266 220.165134 
L 869.419195 200.493596 
L 874.000124 179.617939 
L 878.581053 217.508013 
L 883.161982 219.826819 
L 887.742911 229.206878 
L 892.32384 226.70996 
L 896.904768 216.669861 
L 901.485697 213.440398 
L 906.066626 223.85643 
L 910.647555 225.394091 
L 915.228484 222.493656 
L 919.809413 229.206878 
L 924.390342 230.824162 
L 928.97127 188.814145 
L 933.552199 215.314653 
L 938.133128 209.573539 
L 942.714057 124.563836 
L 947.294986 215.646887 
L 947.294986 215.646887 
" clip-path="url(#pe0d02e1543)" style="fill: none; stroke: #2ca02c; stroke-opacity: 0.35; stroke-width: 1.2; stroke-linecap: round"/>
   </g>
   <g id="line2d_18">
    <path d="M 131.88965 206.967583 
L 136.470579 205.670042 
L 141.051508 209.284526 
L 145.632436 210.166929 
L 150.213365 210.166929 
L 154.794294 209.195796 
L 159.375223 209.077755 
L 163.956152 221.014413 
L 168.537081 220.801431 
L 173.11801 221.763678 
L 177.698938 219.910982 
L 182.279867 219.910982 
L 186.860796 221.068721 
L 191.441725 221.640958 
L 196.022654 223.10168 
L 200.603583 221.357427 
L 205.184511 219.929358 
L 209.76544 221.592236 
L 218.927298 221.594306 
L 223.508227 219.512647 
L 228.089156 217.205884 
L 232.670085 218.048905 
L 237.251013 219.197088 
L 241.831942 217.31588 
L 250.9938 217.340402 
L 255.574729 218.420518 
L 260.155658 220.654533 
L 264.736587 221.826009 
L 273.898444 221.473678 
L 278.479373 221.473678 
L 283.060302 219.782352 
L 287.641231 220.471853 
L 292.22216 219.118948 
L 296.803089 216.592107 
L 301.384017 216.119212 
L 305.964946 215.857271 
L 310.545875 215.857271 
L 315.126804 214.331651 
L 319.707733 213.43952 
L 324.288662 215.010497 
L 328.869591 218.904154 
L 333.450519 212.599152 
L 338.031448 213.924019 
L 342.612377 213.924019 
L 347.193306 215.773199 
L 351.774235 217.155178 
L 360.936093 214.569047 
L 365.517021 219.540383 
L 370.09795 219.9148 
L 374.678879 219.9148 
L 379.259808 221.181822 
L 383.840737 220.602727 
L 388.421666 223.663672 
L 393.002594 224.823459 
L 397.583523 223.979123 
L 402.164452 222.633616 
L 406.745381 222.633616 
L 411.32631 223.670207 
L 415.907239 223.852542 
L 420.488168 222.374781 
L 425.069096 222.196523 
L 429.650025 225.79772 
L 434.230954 226.863536 
L 438.811883 226.863536 
L 443.392812 225.741515 
L 452.55467 226.160275 
L 457.135598 221.685668 
L 466.297456 222.418477 
L 475.459314 222.50697 
L 480.040243 224.790633 
L 484.621172 222.674077 
L 489.2021 227.951309 
L 493.783029 226.177853 
L 498.363958 222.136111 
L 502.944887 222.136111 
L 507.525816 221.985891 
L 512.106745 217.869072 
L 516.687674 221.186847 
L 521.268602 220.272049 
L 525.849531 221.009711 
L 530.43046 223.242345 
L 535.011389 223.242345 
L 539.592318 222.321745 
L 544.173247 223.487075 
L 548.754176 221.320697 
L 553.335104 219.632434 
L 557.916033 220.309232 
L 562.496962 220.10753 
L 567.077891 220.10753 
L 571.65882 221.239128 
L 576.239749 222.117714 
L 580.820677 223.854461 
L 585.401606 222.798825 
L 589.982535 220.296011 
L 594.563464 220.821597 
L 599.144393 220.821597 
L 603.725322 218.137095 
L 608.306251 217.408708 
L 612.887179 216.196856 
L 617.468108 217.540012 
L 622.049037 217.738975 
L 626.629966 217.3445 
L 631.210895 217.3445 
L 635.791824 219.293151 
L 640.372753 192.56441 
L 644.953681 190.56969 
L 649.53461 184.901477 
L 654.115539 184.296953 
L 658.696468 182.032765 
L 667.858326 181.925595 
L 672.439255 204.695221 
L 677.020183 204.477127 
L 681.601112 210.218239 
L 690.76297 215.805616 
L 695.343899 215.805616 
L 699.924828 214.110214 
L 704.505757 215.782948 
L 709.086685 212.596068 
L 713.667614 211.186892 
L 718.248543 210.552368 
L 722.829472 203.89072 
L 727.410401 203.89072 
L 731.99133 205.412911 
L 736.572259 203.797957 
L 741.153187 207.890318 
L 745.734116 206.777657 
L 750.315045 204.815849 
L 754.895974 210.263553 
L 759.476903 210.263553 
L 764.057832 208.566145 
L 768.63876 207.518662 
L 773.219689 208.630245 
L 777.800618 208.53058 
L 782.381547 208.568734 
L 786.962476 193.482508 
L 791.543405 193.482508 
L 796.124334 193.764572 
L 800.705262 196.367482 
L 805.286191 193.739618 
L 809.86712 193.717144 
L 814.448049 190.162554 
L 819.028978 202.432823 
L 823.609907 202.432823 
L 828.190836 202.235585 
L 832.771764 198.310029 
L 837.352693 196.827566 
L 841.933622 194.230997 
L 846.514551 197.250878 
L 851.09548 200.96893 
L 855.676409 200.96893 
L 860.257338 201.101313 
L 864.838266 205.523424 
L 869.419195 204.59685 
L 874.000124 202.260863 
L 878.581053 201.519448 
L 883.161982 199.647125 
L 887.742911 199.647125 
L 892.32384 200.255898 
L 896.904768 198.915675 
L 901.485697 200.518961 
L 906.066626 206.825882 
L 910.647555 207.536649 
L 919.809413 207.585134 
L 924.390342 208.17566 
L 928.97127 201.841045 
L 933.552199 201.191531 
L 938.133128 199.69328 
L 942.714057 183.700021 
L 947.294986 183.495882 
L 947.294986 183.495882 
" clip-path="url(#pe0d02e1543)" style="fill: none; stroke: #ff7f0e; stroke-width: 2; stroke-linecap: round"/>
   </g>
   <g id="line2d_19">
    <path d="M 131.88965 211.415893 
L 136.470579 209.909154 
L 141.051508 212.844592 
L 150.213365 212.93436 
L 154.794294 212.285167 
L 159.375223 212.020146 
L 163.956152 223.855105 
L 168.537081 222.798788 
L 173.11801 223.76186 
L 177.698938 222.782916 
L 182.279867 222.782916 
L 186.860796 223.629983 
L 196.022654 224.019967 
L 200.603583 224.009174 
L 205.184511 223.363578 
L 209.76544 224.475016 
L 214.346369 224.475016 
L 218.927298 223.816752 
L 223.508227 223.002241 
L 228.089156 223.265264 
L 232.670085 224.154212 
L 237.251013 225.677191 
L 241.831942 225.232502 
L 246.412871 225.232502 
L 250.9938 225.799015 
L 255.574729 226.09577 
L 260.155658 227.660592 
L 264.736587 227.6371 
L 269.317515 226.840136 
L 278.479373 226.76459 
L 283.060302 225.313918 
L 287.641231 226.459973 
L 292.22216 223.672818 
L 296.803089 221.973425 
L 301.384017 220.899702 
L 305.964946 220.761108 
L 310.545875 220.761108 
L 315.126804 218.953964 
L 319.707733 217.80816 
L 324.288662 219.61228 
L 328.869591 222.201248 
L 333.450519 215.866886 
L 338.031448 216.157289 
L 342.612377 216.157289 
L 347.193306 218.41719 
L 351.774235 218.812068 
L 356.355164 217.573409 
L 360.936093 216.506149 
L 365.517021 221.570393 
L 370.09795 221.773682 
L 374.678879 221.773682 
L 379.259808 222.189631 
L 383.840737 222.002509 
L 388.421666 224.415444 
L 393.002594 225.576193 
L 397.583523 225.057709 
L 402.164452 224.180227 
L 406.745381 224.180227 
L 411.32631 224.901082 
L 415.907239 224.325605 
L 420.488168 223.358924 
L 425.069096 222.767498 
L 429.650025 225.247745 
L 438.811883 225.228694 
L 443.392812 224.953936 
L 447.973741 225.187822 
L 452.55467 225.290573 
L 457.135598 221.049093 
L 461.716527 221.803965 
L 466.297456 222.35402 
L 470.878385 222.35402 
L 475.459314 222.539423 
L 480.040243 223.316738 
L 484.621172 223.555537 
L 489.2021 228.482917 
L 493.783029 226.555762 
L 498.363958 224.166844 
L 502.944887 224.166844 
L 507.525816 223.952314 
L 512.106745 222.060202 
L 516.687674 222.558764 
L 521.268602 222.088714 
L 525.849531 222.942305 
L 530.43046 224.254318 
L 535.011389 224.254318 
L 539.592318 223.665256 
L 544.173247 224.585802 
L 548.754176 223.39939 
L 553.335104 221.669731 
L 557.916033 222.818436 
L 562.496962 222.444736 
L 567.077891 222.444736 
L 571.65882 223.224334 
L 576.239749 223.354094 
L 580.820677 224.611494 
L 585.401606 224.679853 
L 589.982535 222.311695 
L 594.563464 223.463709 
L 599.144393 223.463709 
L 603.725322 221.287077 
L 608.306251 221.828819 
L 612.887179 221.632846 
L 617.468108 223.235561 
L 622.049037 224.164346 
L 626.629966 223.350528 
L 631.210895 223.350528 
L 635.791824 225.039361 
L 640.372753 199.213297 
L 644.953681 197.472291 
L 649.53461 191.128893 
L 654.115539 190.044548 
L 658.696468 188.481468 
L 663.277397 188.481468 
L 667.858326 188.618708 
L 672.439255 211.29714 
L 677.020183 210.4407 
L 681.601112 215.934362 
L 690.76297 221.345963 
L 695.343899 221.345963 
L 699.924828 219.731077 
L 704.505757 221.199051 
L 709.086685 218.441081 
L 718.248543 216.925759 
L 722.829472 209.551678 
L 727.410401 209.551678 
L 731.99133 211.488693 
L 736.572259 210.332802 
L 741.153187 214.336947 
L 745.734116 212.970485 
L 750.315045 211.172068 
L 754.895974 216.627444 
L 759.476903 216.627444 
L 764.057832 214.889526 
L 768.63876 214.220416 
L 773.219689 214.830179 
L 777.800618 214.846091 
L 782.381547 215.49491 
L 786.962476 202.094225 
L 791.543405 202.094225 
L 796.124334 202.658711 
L 800.705262 203.620195 
L 805.286191 203.076929 
L 809.86712 203.534651 
L 814.448049 200.239946 
L 819.028978 213.218509 
L 823.609907 213.218509 
L 828.190836 213.081678 
L 832.771764 211.015184 
L 837.352693 209.764934 
L 841.933622 208.080631 
L 846.514551 211.537956 
L 851.09548 214.290457 
L 855.676409 214.290457 
L 860.257338 214.97255 
L 864.838266 218.590605 
L 869.419195 217.515396 
L 874.000124 214.716983 
L 878.581053 214.569293 
L 883.161982 213.145179 
L 887.742911 213.145179 
L 892.32384 213.361191 
L 896.904768 212.861867 
L 901.485697 214.71141 
L 906.066626 221.031194 
L 910.647555 222.157777 
L 915.228484 222.538754 
L 919.809413 222.538754 
L 924.390342 223.126497 
L 928.97127 219.147109 
L 933.552199 219.414859 
L 938.133128 217.374446 
L 942.714057 202.970124 
L 947.294986 201.992014 
L 947.294986 201.992014 
" clip-path="url(#pe0d02e1543)" style="fill: none; stroke: #2ca02c; stroke-width: 2; stroke-linecap: round"/>
   </g>
   <g id="patch_3">
    <path d="M 62.259531 249.316875 
L 62.259531 21.935625 
" style="fill: none; stroke: #cccccc; stroke-width: 1.25; stroke-linejoin: miter; stroke-linecap: square"/>
   </g>
   <g id="patch_4">
    <path d="M 989.439531 249.316875 
L 989.439531 21.935625 
" style="fill: none; stroke: #cccccc; stroke-width: 1.25; stroke-linejoin: miter; stroke-linecap: square"/>
   </g>
   <g id="patch_5">
    <path d="M 62.259531 249.316875 
L 989.439531 249.316875 
" style="fill: none; stroke: #cccccc; stroke-width: 1.25; stroke-linejoin: miter; stroke-linecap: square"/>
   </g>
   <g id="patch_6">
    <path d="M 62.259531 21.935625 
L 989.439531 21.935625 
" style="fill: none; stroke: #cccccc; stroke-width: 1.25; stroke-linejoin: miter; stroke-linecap: square"/>
   </g>
   <g id="text_17">
    <!-- C3 Residual Time Series (Actual - Prediction) -->
    <g style="fill: #262626" transform="translate(397.594844 15.935625) scale(0.12 -0.12)">
     <defs>
      <path id="Arial-BoldMT-43" d="M 3397 1684 
L 4294 1400 
Q 4088 650 3608 286 
Q 3128 -78 2391 -78 
Q 1478 -78 890 545 
Q 303 1169 303 2250 
Q 303 3394 893 4026 
Q 1484 4659 2447 4659 
Q 3288 4659 3813 4163 
Q 4125 3869 4281 3319 
L 3366 3100 
Q 3284 3456 3026 3662 
Q 2769 3869 2400 3869 
Q 1891 3869 1573 3503 
Q 1256 3138 1256 2319 
Q 1256 1450 1568 1081 
Q 1881 713 2381 713 
Q 2750 713 3015 947 
Q 3281 1181 3397 1684 
z
" transform="scale(0.015625)"/>
      <path id="Arial-BoldMT-33" d="M 241 1216 
L 1091 1319 
Q 1131 994 1309 822 
Q 1488 650 1741 650 
Q 2013 650 2198 856 
Q 2384 1063 2384 1413 
Q 2384 1744 2206 1937 
Q 2028 2131 1772 2131 
Q 1603 2131 1369 2066 
L 1466 2781 
Q 1822 2772 2009 2936 
Q 2197 3100 2197 3372 
Q 2197 3603 2059 3740 
Q 1922 3878 1694 3878 
Q 1469 3878 1309 3722 
Q 1150 3566 1116 3266 
L 306 3403 
Q 391 3819 561 4067 
Q 731 4316 1036 4458 
Q 1341 4600 1719 4600 
Q 2366 4600 2756 4188 
Q 3078 3850 3078 3425 
Q 3078 2822 2419 2463 
Q 2813 2378 3048 2084 
Q 3284 1791 3284 1375 
Q 3284 772 2843 347 
Q 2403 -78 1747 -78 
Q 1125 -78 715 280 
Q 306 638 241 1216 
z
" transform="scale(0.015625)"/>
      <path id="Arial-BoldMT-20" transform="scale(0.015625)"/>
      <path id="Arial-BoldMT-52" d="M 469 0 
L 469 4581 
L 2416 4581 
Q 3150 4581 3483 4457 
Q 3816 4334 4016 4018 
Q 4216 3703 4216 3297 
Q 4216 2781 3912 2445 
Q 3609 2109 3006 2022 
Q 3306 1847 3501 1637 
Q 3697 1428 4028 894 
L 4588 0 
L 3481 0 
L 2813 997 
Q 2456 1531 2325 1670 
Q 2194 1809 2047 1861 
Q 1900 1913 1581 1913 
L 1394 1913 
L 1394 0 
L 469 0 
z
M 1394 2644 
L 2078 2644 
Q 2744 2644 2909 2700 
Q 3075 2756 3169 2893 
Q 3263 3031 3263 3238 
Q 3263 3469 3139 3611 
Q 3016 3753 2791 3791 
Q 2678 3806 2116 3806 
L 1394 3806 
L 1394 2644 
z
" transform="scale(0.015625)"/>
      <path id="Arial-BoldMT-65" d="M 2381 1056 
L 3256 909 
Q 3088 428 2723 176 
Q 2359 -75 1813 -75 
Q 947 -75 531 491 
Q 203 944 203 1634 
Q 203 2459 634 2926 
Q 1066 3394 1725 3394 
Q 2466 3394 2894 2905 
Q 3322 2416 3303 1406 
L 1103 1406 
Q 1113 1016 1316 798 
Q 1519 581 1822 581 
Q 2028 581 2168 693 
Q 2309 806 2381 1056 
z
M 2431 1944 
Q 2422 2325 2234 2523 
Q 2047 2722 1778 2722 
Q 1491 2722 1303 2513 
Q 1116 2303 1119 1944 
L 2431 1944 
z
" transform="scale(0.015625)"/>
      <path id="Arial-BoldMT-73" d="M 150 947 
L 1031 1081 
Q 1088 825 1259 692 
Q 1431 559 1741 559 
Q 2081 559 2253 684 
Q 2369 772 2369 919 
Q 2369 1019 2306 1084 
Q 2241 1147 2013 1200 
Q 950 1434 666 1628 
Q 272 1897 272 2375 
Q 272 2806 612 3100 
Q 953 3394 1669 3394 
Q 2350 3394 2681 3172 
Q 3013 2950 3138 2516 
L 2309 2363 
Q 2256 2556 2107 2659 
Q 1959 2763 1684 2763 
Q 1338 2763 1188 2666 
Q 1088 2597 1088 2488 
Q 1088 2394 1175 2328 
Q 1294 2241 1995 2081 
Q 2697 1922 2975 1691 
Q 3250 1456 3250 1038 
Q 3250 581 2869 253 
Q 2488 -75 1741 -75 
Q 1063 -75 667 200 
Q 272 475 150 947 
z
" transform="scale(0.015625)"/>
      <path id="Arial-BoldMT-69" d="M 459 3769 
L 459 4581 
L 1338 4581 
L 1338 3769 
L 459 3769 
z
M 459 0 
L 459 3319 
L 1338 3319 
L 1338 0 
L 459 0 
z
" transform="scale(0.015625)"/>
      <path id="Arial-BoldMT-64" d="M 3503 0 
L 2688 0 
L 2688 488 
Q 2484 203 2207 64 
Q 1931 -75 1650 -75 
Q 1078 -75 670 386 
Q 263 847 263 1672 
Q 263 2516 659 2955 
Q 1056 3394 1663 3394 
Q 2219 3394 2625 2931 
L 2625 4581 
L 3503 4581 
L 3503 0 
z
M 1159 1731 
Q 1159 1200 1306 963 
Q 1519 619 1900 619 
Q 2203 619 2415 876 
Q 2628 1134 2628 1647 
Q 2628 2219 2422 2470 
Q 2216 2722 1894 2722 
Q 1581 2722 1370 2473 
Q 1159 2225 1159 1731 
z
" transform="scale(0.015625)"/>
      <path id="Arial-BoldMT-75" d="M 2644 0 
L 2644 497 
Q 2463 231 2167 78 
Q 1872 -75 1544 -75 
Q 1209 -75 943 72 
Q 678 219 559 484 
Q 441 750 441 1219 
L 441 3319 
L 1319 3319 
L 1319 1794 
Q 1319 1094 1367 936 
Q 1416 778 1544 686 
Q 1672 594 1869 594 
Q 2094 594 2272 717 
Q 2450 841 2515 1023 
Q 2581 1206 2581 1919 
L 2581 3319 
L 3459 3319 
L 3459 0 
L 2644 0 
z
" transform="scale(0.015625)"/>
      <path id="Arial-BoldMT-61" d="M 1116 2306 
L 319 2450 
Q 453 2931 781 3162 
Q 1109 3394 1756 3394 
Q 2344 3394 2631 3255 
Q 2919 3116 3036 2902 
Q 3153 2688 3153 2116 
L 3144 1091 
Q 3144 653 3186 445 
Q 3228 238 3344 0 
L 2475 0 
Q 2441 88 2391 259 
Q 2369 338 2359 363 
Q 2134 144 1878 34 
Q 1622 -75 1331 -75 
Q 819 -75 523 203 
Q 228 481 228 906 
Q 228 1188 362 1408 
Q 497 1628 739 1745 
Q 981 1863 1438 1950 
Q 2053 2066 2291 2166 
L 2291 2253 
Q 2291 2506 2166 2614 
Q 2041 2722 1694 2722 
Q 1459 2722 1328 2630 
Q 1197 2538 1116 2306 
z
M 2291 1594 
Q 2122 1538 1756 1459 
Q 1391 1381 1278 1306 
Q 1106 1184 1106 997 
Q 1106 813 1243 678 
Q 1381 544 1594 544 
Q 1831 544 2047 700 
Q 2206 819 2256 991 
Q 2291 1103 2291 1419 
L 2291 1594 
z
" transform="scale(0.015625)"/>
      <path id="Arial-BoldMT-6c" d="M 459 0 
L 459 4581 
L 1338 4581 
L 1338 0 
L 459 0 
z
" transform="scale(0.015625)"/>
      <path id="Arial-BoldMT-54" d="M 1497 0 
L 1497 3806 
L 138 3806 
L 138 4581 
L 3778 4581 
L 3778 3806 
L 2422 3806 
L 2422 0 
L 1497 0 
z
" transform="scale(0.015625)"/>
      <path id="Arial-BoldMT-6d" d="M 394 3319 
L 1203 3319 
L 1203 2866 
Q 1638 3394 2238 3394 
Q 2556 3394 2790 3262 
Q 3025 3131 3175 2866 
Q 3394 3131 3647 3262 
Q 3900 3394 4188 3394 
Q 4553 3394 4806 3245 
Q 5059 3097 5184 2809 
Q 5275 2597 5275 2122 
L 5275 0 
L 4397 0 
L 4397 1897 
Q 4397 2391 4306 2534 
Q 4184 2722 3931 2722 
Q 3747 2722 3584 2609 
Q 3422 2497 3350 2280 
Q 3278 2063 3278 1594 
L 3278 0 
L 2400 0 
L 2400 1819 
Q 2400 2303 2353 2443 
Q 2306 2584 2207 2653 
Q 2109 2722 1941 2722 
Q 1738 2722 1575 2612 
Q 1413 2503 1342 2297 
Q 1272 2091 1272 1613 
L 1272 0 
L 394 0 
L 394 3319 
z
" transform="scale(0.015625)"/>
      <path id="Arial-BoldMT-53" d="M 231 1491 
L 1131 1578 
Q 1213 1125 1461 912 
Q 1709 700 2131 700 
Q 2578 700 2804 889 
Q 3031 1078 3031 1331 
Q 3031 1494 2936 1608 
Q 2841 1722 2603 1806 
Q 2441 1863 1863 2006 
Q 1119 2191 819 2459 
Q 397 2838 397 3381 
Q 397 3731 595 4036 
Q 794 4341 1167 4500 
Q 1541 4659 2069 4659 
Q 2931 4659 3367 4281 
Q 3803 3903 3825 3272 
L 2900 3231 
Q 2841 3584 2645 3739 
Q 2450 3894 2059 3894 
Q 1656 3894 1428 3728 
Q 1281 3622 1281 3444 
Q 1281 3281 1419 3166 
Q 1594 3019 2269 2859 
Q 2944 2700 3267 2529 
Q 3591 2359 3773 2064 
Q 3956 1769 3956 1334 
Q 3956 941 3737 597 
Q 3519 253 3119 86 
Q 2719 -81 2122 -81 
Q 1253 -81 787 320 
Q 322 722 231 1491 
z
" transform="scale(0.015625)"/>
      <path id="Arial-BoldMT-72" d="M 1300 0 
L 422 0 
L 422 3319 
L 1238 3319 
L 1238 2847 
Q 1447 3181 1614 3287 
Q 1781 3394 1994 3394 
Q 2294 3394 2572 3228 
L 2300 2463 
Q 2078 2606 1888 2606 
Q 1703 2606 1575 2504 
Q 1447 2403 1373 2137 
Q 1300 1872 1300 1025 
L 1300 0 
z
" transform="scale(0.015625)"/>
      <path id="Arial-BoldMT-28" d="M 1916 -1347 
L 1313 -1347 
Q 834 -625 584 153 
Q 334 931 334 1659 
Q 334 2563 644 3369 
Q 913 4069 1325 4659 
L 1925 4659 
Q 1497 3713 1336 3048 
Q 1175 2384 1175 1641 
Q 1175 1128 1270 590 
Q 1366 53 1531 -431 
Q 1641 -750 1916 -1347 
z
" transform="scale(0.015625)"/>
      <path id="Arial-BoldMT-41" d="M 4597 0 
L 3591 0 
L 3191 1041 
L 1359 1041 
L 981 0 
L 0 0 
L 1784 4581 
L 2763 4581 
L 4597 0 
z
M 2894 1813 
L 2263 3513 
L 1644 1813 
L 2894 1813 
z
" transform="scale(0.015625)"/>
      <path id="Arial-BoldMT-63" d="M 3353 2338 
L 2488 2181 
Q 2444 2441 2289 2572 
Q 2134 2703 1888 2703 
Q 1559 2703 1364 2476 
Q 1169 2250 1169 1719 
Q 1169 1128 1367 884 
Q 1566 641 1900 641 
Q 2150 641 2309 783 
Q 2469 925 2534 1272 
L 3397 1125 
Q 3263 531 2881 228 
Q 2500 -75 1859 -75 
Q 1131 -75 698 384 
Q 266 844 266 1656 
Q 266 2478 700 2936 
Q 1134 3394 1875 3394 
Q 2481 3394 2839 3133 
Q 3197 2872 3353 2338 
z
" transform="scale(0.015625)"/>
      <path id="Arial-BoldMT-74" d="M 1981 3319 
L 1981 2619 
L 1381 2619 
L 1381 1281 
Q 1381 875 1398 808 
Q 1416 741 1477 697 
Q 1538 653 1625 653 
Q 1747 653 1978 738 
L 2053 56 
Q 1747 -75 1359 -75 
Q 1122 -75 931 4 
Q 741 84 652 211 
Q 563 338 528 553 
Q 500 706 500 1172 
L 500 2619 
L 97 2619 
L 97 3319 
L 500 3319 
L 500 3978 
L 1381 4491 
L 1381 3319 
L 1981 3319 
z
" transform="scale(0.015625)"/>
      <path id="Arial-BoldMT-2d" d="M 359 1222 
L 359 2100 
L 2084 2100 
L 2084 1222 
L 359 1222 
z
" transform="scale(0.015625)"/>
      <path id="Arial-BoldMT-50" d="M 466 0 
L 466 4581 
L 1950 4581 
Q 2794 4581 3050 4513 
Q 3444 4409 3709 4064 
Q 3975 3719 3975 3172 
Q 3975 2750 3822 2462 
Q 3669 2175 3433 2011 
Q 3197 1847 2953 1794 
Q 2622 1728 1994 1728 
L 1391 1728 
L 1391 0 
L 466 0 
z
M 1391 3806 
L 1391 2506 
L 1897 2506 
Q 2444 2506 2628 2578 
Q 2813 2650 2917 2803 
Q 3022 2956 3022 3159 
Q 3022 3409 2875 3571 
Q 2728 3734 2503 3775 
Q 2338 3806 1838 3806 
L 1391 3806 
z
" transform="scale(0.015625)"/>
      <path id="Arial-BoldMT-6f" d="M 256 1706 
Q 256 2144 472 2553 
Q 688 2963 1083 3178 
Q 1478 3394 1966 3394 
Q 2719 3394 3200 2905 
Q 3681 2416 3681 1669 
Q 3681 916 3195 420 
Q 2709 -75 1972 -75 
Q 1516 -75 1102 131 
Q 688 338 472 736 
Q 256 1134 256 1706 
z
M 1156 1659 
Q 1156 1166 1390 903 
Q 1625 641 1969 641 
Q 2313 641 2545 903 
Q 2778 1166 2778 1666 
Q 2778 2153 2545 2415 
Q 2313 2678 1969 2678 
Q 1625 2678 1390 2415 
Q 1156 2153 1156 1659 
z
" transform="scale(0.015625)"/>
      <path id="Arial-BoldMT-6e" d="M 3478 0 
L 2600 0 
L 2600 1694 
Q 2600 2231 2544 2389 
Q 2488 2547 2361 2634 
Q 2234 2722 2056 2722 
Q 1828 2722 1647 2597 
Q 1466 2472 1398 2265 
Q 1331 2059 1331 1503 
L 1331 0 
L 453 0 
L 453 3319 
L 1269 3319 
L 1269 2831 
Q 1703 3394 2363 3394 
Q 2653 3394 2893 3289 
Q 3134 3184 3257 3021 
Q 3381 2859 3429 2653 
Q 3478 2447 3478 2063 
L 3478 0 
z
" transform="scale(0.015625)"/>
      <path id="Arial-BoldMT-29" d="M 216 -1347 
Q 475 -791 581 -494 
Q 688 -197 778 190 
Q 869 578 912 926 
Q 956 1275 956 1641 
Q 956 2384 797 3048 
Q 638 3713 209 4659 
L 806 4659 
Q 1278 3988 1539 3234 
Q 1800 2481 1800 1706 
Q 1800 1053 1594 306 
Q 1359 -531 822 -1347 
L 216 -1347 
z
" transform="scale(0.015625)"/>
     </defs>
     <use xlink:href="#Arial-BoldMT-43"/>
     <use xlink:href="#Arial-BoldMT-33" transform="translate(72.216797 0)"/>
     <use xlink:href="#Arial-BoldMT-20" transform="translate(127.832031 0)"/>
     <use xlink:href="#Arial-BoldMT-52" transform="translate(155.615234 0)"/>
     <use xlink:href="#Arial-BoldMT-65" transform="translate(227.832031 0)"/>
     <use xlink:href="#Arial-BoldMT-73" transform="translate(283.447266 0)"/>
     <use xlink:href="#Arial-BoldMT-69" transform="translate(339.0625 0)"/>
     <use xlink:href="#Arial-BoldMT-64" transform="translate(366.845703 0)"/>
     <use xlink:href="#Arial-BoldMT-75" transform="translate(427.929688 0)"/>
     <use xlink:href="#Arial-BoldMT-61" transform="translate(489.013672 0)"/>
     <use xlink:href="#Arial-BoldMT-6c" transform="translate(544.628906 0)"/>
     <use xlink:href="#Arial-BoldMT-20" transform="translate(572.412109 0)"/>
     <use xlink:href="#Arial-BoldMT-54" transform="translate(600.195312 0)"/>
     <use xlink:href="#Arial-BoldMT-69" transform="translate(659.529297 0)"/>
     <use xlink:href="#Arial-BoldMT-6d" transform="translate(687.3125 0)"/>
     <use xlink:href="#Arial-BoldMT-65" transform="translate(776.228516 0)"/>
     <use xlink:href="#Arial-BoldMT-20" transform="translate(831.84375 0)"/>
     <use xlink:href="#Arial-BoldMT-53" transform="translate(859.626953 0)"/>
     <use xlink:href="#Arial-BoldMT-65" transform="translate(926.326172 0)"/>
     <use xlink:href="#Arial-BoldMT-72" transform="translate(981.941406 0)"/>
     <use xlink:href="#Arial-BoldMT-69" transform="translate(1020.857422 0)"/>
     <use xlink:href="#Arial-BoldMT-65" transform="translate(1048.640625 0)"/>
     <use xlink:href="#Arial-BoldMT-73" transform="translate(1104.255859 0)"/>
     <use xlink:href="#Arial-BoldMT-20" transform="translate(1159.871094 0)"/>
     <use xlink:href="#Arial-BoldMT-28" transform="translate(1187.654297 0)"/>
     <use xlink:href="#Arial-BoldMT-41" transform="translate(1220.955078 0)"/>
     <use xlink:href="#Arial-BoldMT-63" transform="translate(1293.171875 0)"/>
     <use xlink:href="#Arial-BoldMT-74" transform="translate(1348.787109 0)"/>
     <use xlink:href="#Arial-BoldMT-75" transform="translate(1382.087891 0)"/>
     <use xlink:href="#Arial-BoldMT-61" transform="translate(1443.171875 0)"/>
     <use xlink:href="#Arial-BoldMT-6c" transform="translate(1498.787109 0)"/>
     <use xlink:href="#Arial-BoldMT-20" transform="translate(1526.570312 0)"/>
     <use xlink:href="#Arial-BoldMT-2d" transform="translate(1554.353516 0)"/>
     <use xlink:href="#Arial-BoldMT-20" transform="translate(1587.654297 0)"/>
     <use xlink:href="#Arial-BoldMT-50" transform="translate(1615.4375 0)"/>
     <use xlink:href="#Arial-BoldMT-72" transform="translate(1682.136719 0)"/>
     <use xlink:href="#Arial-BoldMT-65" transform="translate(1721.052734 0)"/>
     <use xlink:href="#Arial-BoldMT-64" transform="translate(1776.667969 0)"/>
     <use xlink:href="#Arial-BoldMT-69" transform="translate(1837.751953 0)"/>
     <use xlink:href="#Arial-BoldMT-63" transform="translate(1865.535156 0)"/>
     <use xlink:href="#Arial-BoldMT-74" transform="translate(1921.150391 0)"/>
     <use xlink:href="#Arial-BoldMT-69" transform="translate(1954.451172 0)"/>
     <use xlink:href="#Arial-BoldMT-6f" transform="translate(1982.234375 0)"/>
     <use xlink:href="#Arial-BoldMT-6e" transform="translate(2043.318359 0)"/>
     <use xlink:href="#Arial-BoldMT-29" transform="translate(2104.402344 0)"/>
    </g>
   </g>
   <g id="legend_1">
    <g id="patch_7">
     <path d="M 676.185781 51.350625 
L 983.839531 51.350625 
Q 985.439531 51.350625 985.439531 49.750625 
L 985.439531 27.535625 
Q 985.439531 25.935625 983.839531 25.935625 
L 676.185781 25.935625 
Q 674.585781 25.935625 674.585781 27.535625 
L 674.585781 49.750625 
Q 674.585781 51.350625 676.185781 51.350625 
z
" style="fill: #ffffff; opacity: 0.8; stroke: #cccccc; stroke-linejoin: miter"/>
    </g>
    <g id="line2d_20">
     <path d="M 677.785781 32.159375 
L 685.785781 32.159375 
L 693.785781 32.159375 
" style="fill: none; stroke: #ff7f0e; stroke-opacity: 0.35; stroke-width: 1.2; stroke-linecap: round"/>
    </g>
    <g id="text_18">
     <!-- Baseline Forecast (ADIDA) residual -->
     <g style="fill: #262626" transform="translate(700.185781 34.959375) scale(0.08 -0.08)">
      <defs>
       <path id="ArialMT-42" d="M 469 0 
L 469 4581 
L 2188 4581 
Q 2713 4581 3030 4442 
Q 3347 4303 3526 4014 
Q 3706 3725 3706 3409 
Q 3706 3116 3547 2856 
Q 3388 2597 3066 2438 
Q 3481 2316 3704 2022 
Q 3928 1728 3928 1328 
Q 3928 1006 3792 729 
Q 3656 453 3456 303 
Q 3256 153 2954 76 
Q 2653 0 2216 0 
L 469 0 
z
M 1075 2656 
L 2066 2656 
Q 2469 2656 2644 2709 
Q 2875 2778 2992 2937 
Q 3109 3097 3109 3338 
Q 3109 3566 3000 3739 
Q 2891 3913 2687 3977 
Q 2484 4041 1991 4041 
L 1075 4041 
L 1075 2656 
z
M 1075 541 
L 2216 541 
Q 2509 541 2628 563 
Q 2838 600 2978 687 
Q 3119 775 3209 942 
Q 3300 1109 3300 1328 
Q 3300 1584 3169 1773 
Q 3038 1963 2805 2039 
Q 2572 2116 2134 2116 
L 1075 2116 
L 1075 541 
z
" transform="scale(0.015625)"/>
       <path id="ArialMT-6e" d="M 422 0 
L 422 3319 
L 928 3319 
L 928 2847 
Q 1294 3394 1984 3394 
Q 2284 3394 2536 3286 
Q 2788 3178 2913 3003 
Q 3038 2828 3088 2588 
Q 3119 2431 3119 2041 
L 3119 0 
L 2556 0 
L 2556 2019 
Q 2556 2363 2490 2533 
Q 2425 2703 2258 2804 
Q 2091 2906 1866 2906 
Q 1506 2906 1245 2678 
Q 984 2450 984 1813 
L 984 0 
L 422 0 
z
" transform="scale(0.015625)"/>
       <path id="ArialMT-20" transform="scale(0.015625)"/>
       <path id="ArialMT-46" d="M 525 0 
L 525 4581 
L 3616 4581 
L 3616 4041 
L 1131 4041 
L 1131 2622 
L 3281 2622 
L 3281 2081 
L 1131 2081 
L 1131 0 
L 525 0 
z
" transform="scale(0.015625)"/>
       <path id="ArialMT-6f" d="M 213 1659 
Q 213 2581 725 3025 
Q 1153 3394 1769 3394 
Q 2453 3394 2887 2945 
Q 3322 2497 3322 1706 
Q 3322 1066 3130 698 
Q 2938 331 2570 128 
Q 2203 -75 1769 -75 
Q 1072 -75 642 372 
Q 213 819 213 1659 
z
M 791 1659 
Q 791 1022 1069 705 
Q 1347 388 1769 388 
Q 2188 388 2466 706 
Q 2744 1025 2744 1678 
Q 2744 2294 2464 2611 
Q 2184 2928 1769 2928 
Q 1347 2928 1069 2612 
Q 791 2297 791 1659 
z
" transform="scale(0.015625)"/>
       <path id="ArialMT-72" d="M 416 0 
L 416 3319 
L 922 3319 
L 922 2816 
Q 1116 3169 1280 3281 
Q 1444 3394 1641 3394 
Q 1925 3394 2219 3213 
L 2025 2691 
Q 1819 2813 1613 2813 
Q 1428 2813 1281 2702 
Q 1134 2591 1072 2394 
Q 978 2094 978 1738 
L 978 0 
L 416 0 
z
" transform="scale(0.015625)"/>
       <path id="ArialMT-63" d="M 2588 1216 
L 3141 1144 
Q 3050 572 2676 248 
Q 2303 -75 1759 -75 
Q 1078 -75 664 370 
Q 250 816 250 1647 
Q 250 2184 428 2587 
Q 606 2991 970 3192 
Q 1334 3394 1763 3394 
Q 2303 3394 2647 3120 
Q 2991 2847 3088 2344 
L 2541 2259 
Q 2463 2594 2264 2762 
Q 2066 2931 1784 2931 
Q 1359 2931 1093 2626 
Q 828 2322 828 1663 
Q 828 994 1084 691 
Q 1341 388 1753 388 
Q 2084 388 2306 591 
Q 2528 794 2588 1216 
z
" transform="scale(0.015625)"/>
       <path id="ArialMT-28" d="M 1497 -1347 
Q 1031 -759 709 28 
Q 388 816 388 1659 
Q 388 2403 628 3084 
Q 909 3875 1497 4659 
L 1900 4659 
Q 1522 4009 1400 3731 
Q 1209 3300 1100 2831 
Q 966 2247 966 1656 
Q 966 153 1900 -1347 
L 1497 -1347 
z
" transform="scale(0.015625)"/>
       <path id="ArialMT-41" d="M -9 0 
L 1750 4581 
L 2403 4581 
L 4278 0 
L 3588 0 
L 3053 1388 
L 1138 1388 
L 634 0 
L -9 0 
z
M 1313 1881 
L 2866 1881 
L 2388 3150 
Q 2169 3728 2063 4100 
Q 1975 3659 1816 3225 
L 1313 1881 
z
" transform="scale(0.015625)"/>
       <path id="ArialMT-49" d="M 597 0 
L 597 4581 
L 1203 4581 
L 1203 0 
L 597 0 
z
" transform="scale(0.015625)"/>
       <path id="ArialMT-29" d="M 791 -1347 
L 388 -1347 
Q 1322 153 1322 1656 
Q 1322 2244 1188 2822 
Q 1081 3291 891 3722 
Q 769 4003 388 4659 
L 791 4659 
Q 1378 3875 1659 3084 
Q 1900 2403 1900 1659 
Q 1900 816 1576 28 
Q 1253 -759 791 -1347 
z
" transform="scale(0.015625)"/>
      </defs>
      <use xlink:href="#ArialMT-42"/>
      <use xlink:href="#ArialMT-61" transform="translate(66.699219 0)"/>
      <use xlink:href="#ArialMT-73" transform="translate(122.314453 0)"/>
      <use xlink:href="#ArialMT-65" transform="translate(172.314453 0)"/>
      <use xlink:href="#ArialMT-6c" transform="translate(227.929688 0)"/>
      <use xlink:href="#ArialMT-69" transform="translate(250.146484 0)"/>
      <use xlink:href="#ArialMT-6e" transform="translate(272.363281 0)"/>
      <use xlink:href="#ArialMT-65" transform="translate(327.978516 0)"/>
      <use xlink:href="#ArialMT-20" transform="translate(383.59375 0)"/>
      <use xlink:href="#ArialMT-46" transform="translate(411.376953 0)"/>
      <use xlink:href="#ArialMT-6f" transform="translate(472.460938 0)"/>
      <use xlink:href="#ArialMT-72" transform="translate(528.076172 0)"/>
      <use xlink:href="#ArialMT-65" transform="translate(561.376953 0)"/>
      <use xlink:href="#ArialMT-63" transform="translate(616.992188 0)"/>
      <use xlink:href="#ArialMT-61" transform="translate(666.992188 0)"/>
      <use xlink:href="#ArialMT-73" transform="translate(722.607422 0)"/>
      <use xlink:href="#ArialMT-74" transform="translate(772.607422 0)"/>
      <use xlink:href="#ArialMT-20" transform="translate(800.390625 0)"/>
      <use xlink:href="#ArialMT-28" transform="translate(828.173828 0)"/>
      <use xlink:href="#ArialMT-41" transform="translate(861.474609 0)"/>
      <use xlink:href="#ArialMT-44" transform="translate(928.173828 0)"/>
      <use xlink:href="#ArialMT-49" transform="translate(1000.390625 0)"/>
      <use xlink:href="#ArialMT-44" transform="translate(1028.173828 0)"/>
      <use xlink:href="#ArialMT-41" transform="translate(1100.390625 0)"/>
      <use xlink:href="#ArialMT-29" transform="translate(1167.089844 0)"/>
      <use xlink:href="#ArialMT-20" transform="translate(1200.390625 0)"/>
      <use xlink:href="#ArialMT-72" transform="translate(1228.173828 0)"/>
      <use xlink:href="#ArialMT-65" transform="translate(1261.474609 0)"/>
      <use xlink:href="#ArialMT-73" transform="translate(1317.089844 0)"/>
      <use xlink:href="#ArialMT-69" transform="translate(1367.089844 0)"/>
      <use xlink:href="#ArialMT-64" transform="translate(1389.306641 0)"/>
      <use xlink:href="#ArialMT-75" transform="translate(1444.921875 0)"/>
      <use xlink:href="#ArialMT-61" transform="translate(1500.537109 0)"/>
      <use xlink:href="#ArialMT-6c" transform="translate(1556.152344 0)"/>
     </g>
    </g>
    <g id="line2d_21">
     <path d="M 677.785781 43.666875 
L 685.785781 43.666875 
L 693.785781 43.666875 
" style="fill: none; stroke: #2ca02c; stroke-opacity: 0.35; stroke-width: 1.2; stroke-linecap: round"/>
    </g>
    <g id="text_19">
     <!-- Model Forecast (Two-stage HGB) residual -->
     <g style="fill: #262626" transform="translate(700.185781 46.466875) scale(0.08 -0.08)">
      <defs>
       <path id="ArialMT-4d" d="M 475 0 
L 475 4581 
L 1388 4581 
L 2472 1338 
Q 2622 884 2691 659 
Q 2769 909 2934 1394 
L 4031 4581 
L 4847 4581 
L 4847 0 
L 4263 0 
L 4263 3834 
L 2931 0 
L 2384 0 
L 1059 3900 
L 1059 0 
L 475 0 
z
" transform="scale(0.015625)"/>
       <path id="ArialMT-54" d="M 1659 0 
L 1659 4041 
L 150 4041 
L 150 4581 
L 3781 4581 
L 3781 4041 
L 2266 4041 
L 2266 0 
L 1659 0 
z
" transform="scale(0.015625)"/>
       <path id="ArialMT-77" d="M 1034 0 
L 19 3319 
L 600 3319 
L 1128 1403 
L 1325 691 
Q 1338 744 1497 1375 
L 2025 3319 
L 2603 3319 
L 3100 1394 
L 3266 759 
L 3456 1400 
L 4025 3319 
L 4572 3319 
L 3534 0 
L 2950 0 
L 2422 1988 
L 2294 2553 
L 1622 0 
L 1034 0 
z
" transform="scale(0.015625)"/>
       <path id="ArialMT-67" d="M 319 -275 
L 866 -356 
Q 900 -609 1056 -725 
Q 1266 -881 1628 -881 
Q 2019 -881 2231 -725 
Q 2444 -569 2519 -288 
Q 2563 -116 2559 434 
Q 2191 0 1641 0 
Q 956 0 581 494 
Q 206 988 206 1678 
Q 206 2153 378 2554 
Q 550 2956 876 3175 
Q 1203 3394 1644 3394 
Q 2231 3394 2613 2919 
L 2613 3319 
L 3131 3319 
L 3131 450 
Q 3131 -325 2973 -648 
Q 2816 -972 2473 -1159 
Q 2131 -1347 1631 -1347 
Q 1038 -1347 672 -1080 
Q 306 -813 319 -275 
z
M 784 1719 
Q 784 1066 1043 766 
Q 1303 466 1694 466 
Q 2081 466 2343 764 
Q 2606 1063 2606 1700 
Q 2606 2309 2336 2618 
Q 2066 2928 1684 2928 
Q 1309 2928 1046 2623 
Q 784 2319 784 1719 
z
" transform="scale(0.015625)"/>
       <path id="ArialMT-48" d="M 513 0 
L 513 4581 
L 1119 4581 
L 1119 2700 
L 3500 2700 
L 3500 4581 
L 4106 4581 
L 4106 0 
L 3500 0 
L 3500 2159 
L 1119 2159 
L 1119 0 
L 513 0 
z
" transform="scale(0.015625)"/>
       <path id="ArialMT-47" d="M 2638 1797 
L 2638 2334 
L 4578 2338 
L 4578 638 
Q 4131 281 3656 101 
Q 3181 -78 2681 -78 
Q 2006 -78 1454 211 
Q 903 500 622 1047 
Q 341 1594 341 2269 
Q 341 2938 620 3517 
Q 900 4097 1425 4378 
Q 1950 4659 2634 4659 
Q 3131 4659 3532 4498 
Q 3934 4338 4162 4050 
Q 4391 3763 4509 3300 
L 3963 3150 
Q 3859 3500 3706 3700 
Q 3553 3900 3268 4020 
Q 2984 4141 2638 4141 
Q 2222 4141 1919 4014 
Q 1616 3888 1430 3681 
Q 1244 3475 1141 3228 
Q 966 2803 966 2306 
Q 966 1694 1177 1281 
Q 1388 869 1791 669 
Q 2194 469 2647 469 
Q 3041 469 3416 620 
Q 3791 772 3984 944 
L 3984 1797 
L 2638 1797 
z
" transform="scale(0.015625)"/>
      </defs>
      <use xlink:href="#ArialMT-4d"/>
      <use xlink:href="#ArialMT-6f" transform="translate(83.300781 0)"/>
      <use xlink:href="#ArialMT-64" transform="translate(138.916016 0)"/>
      <use xlink:href="#ArialMT-65" transform="translate(194.53125 0)"/>
      <use xlink:href="#ArialMT-6c" transform="translate(250.146484 0)"/>
      <use xlink:href="#ArialMT-20" transform="translate(272.363281 0)"/>
      <use xlink:href="#ArialMT-46" transform="translate(300.146484 0)"/>
      <use xlink:href="#ArialMT-6f" transform="translate(361.230469 0)"/>
      <use xlink:href="#ArialMT-72" transform="translate(416.845703 0)"/>
      <use xlink:href="#ArialMT-65" transform="translate(450.146484 0)"/>
      <use xlink:href="#ArialMT-63" transform="translate(505.761719 0)"/>
      <use xlink:href="#ArialMT-61" transform="translate(555.761719 0)"/>
      <use xlink:href="#ArialMT-73" transform="translate(611.376953 0)"/>
      <use xlink:href="#ArialMT-74" transform="translate(661.376953 0)"/>
      <use xlink:href="#ArialMT-20" transform="translate(689.160156 0)"/>
      <use xlink:href="#ArialMT-28" transform="translate(716.943359 0)"/>
      <use xlink:href="#ArialMT-54" transform="translate(750.244141 0)"/>
      <use xlink:href="#ArialMT-77" transform="translate(805.828125 0)"/>
      <use xlink:href="#ArialMT-6f" transform="translate(878.044922 0)"/>
      <use xlink:href="#ArialMT-2d" transform="translate(933.660156 0)"/>
      <use xlink:href="#ArialMT-73" transform="translate(966.960938 0)"/>
      <use xlink:href="#ArialMT-74" transform="translate(1016.960938 0)"/>
      <use xlink:href="#ArialMT-61" transform="translate(1044.744141 0)"/>
      <use xlink:href="#ArialMT-67" transform="translate(1100.359375 0)"/>
      <use xlink:href="#ArialMT-65" transform="translate(1155.974609 0)"/>
      <use xlink:href="#ArialMT-20" transform="translate(1211.589844 0)"/>
      <use xlink:href="#ArialMT-48" transform="translate(1239.373047 0)"/>
      <use xlink:href="#ArialMT-47" transform="translate(1311.589844 0)"/>
      <use xlink:href="#ArialMT-42" transform="translate(1389.373047 0)"/>
      <use xlink:href="#ArialMT-29" transform="translate(1456.072266 0)"/>
      <use xlink:href="#ArialMT-20" transform="translate(1489.373047 0)"/>
      <use xlink:href="#ArialMT-72" transform="translate(1517.15625 0)"/>
      <use xlink:href="#ArialMT-65" transform="translate(1550.457031 0)"/>
      <use xlink:href="#ArialMT-73" transform="translate(1606.072266 0)"/>
      <use xlink:href="#ArialMT-69" transform="translate(1656.072266 0)"/>
      <use xlink:href="#ArialMT-64" transform="translate(1678.289062 0)"/>
      <use xlink:href="#ArialMT-75" transform="translate(1733.904297 0)"/>
      <use xlink:href="#ArialMT-61" transform="translate(1789.519531 0)"/>
      <use xlink:href="#ArialMT-6c" transform="translate(1845.134766 0)"/>
     </g>
    </g>
    <g id="line2d_22">
     <path d="M 865.564531 32.159375 
L 873.564531 32.159375 
L 881.564531 32.159375 
" style="fill: none; stroke: #ff7f0e; stroke-width: 2; stroke-linecap: round"/>
    </g>
    <g id="text_20">
     <!-- Baseline residual 7d mean -->
     <g style="fill: #262626" transform="translate(887.964531 34.959375) scale(0.08 -0.08)">
      <defs>
       <path id="ArialMT-6d" d="M 422 0 
L 422 3319 
L 925 3319 
L 925 2853 
Q 1081 3097 1340 3245 
Q 1600 3394 1931 3394 
Q 2300 3394 2536 3241 
Q 2772 3088 2869 2813 
Q 3263 3394 3894 3394 
Q 4388 3394 4653 3120 
Q 4919 2847 4919 2278 
L 4919 0 
L 4359 0 
L 4359 2091 
Q 4359 2428 4304 2576 
Q 4250 2725 4106 2815 
Q 3963 2906 3769 2906 
Q 3419 2906 3187 2673 
Q 2956 2441 2956 1928 
L 2956 0 
L 2394 0 
L 2394 2156 
Q 2394 2531 2256 2718 
Q 2119 2906 1806 2906 
Q 1569 2906 1367 2781 
Q 1166 2656 1075 2415 
Q 984 2175 984 1722 
L 984 0 
L 422 0 
z
" transform="scale(0.015625)"/>
      </defs>
      <use xlink:href="#ArialMT-42"/>
      <use xlink:href="#ArialMT-61" transform="translate(66.699219 0)"/>
      <use xlink:href="#ArialMT-73" transform="translate(122.314453 0)"/>
      <use xlink:href="#ArialMT-65" transform="translate(172.314453 0)"/>
      <use xlink:href="#ArialMT-6c" transform="translate(227.929688 0)"/>
      <use xlink:href="#ArialMT-69" transform="translate(250.146484 0)"/>
      <use xlink:href="#ArialMT-6e" transform="translate(272.363281 0)"/>
      <use xlink:href="#ArialMT-65" transform="translate(327.978516 0)"/>
      <use xlink:href="#ArialMT-20" transform="translate(383.59375 0)"/>
      <use xlink:href="#ArialMT-72" transform="translate(411.376953 0)"/>
      <use xlink:href="#ArialMT-65" transform="translate(444.677734 0)"/>
      <use xlink:href="#ArialMT-73" transform="translate(500.292969 0)"/>
      <use xlink:href="#ArialMT-69" transform="translate(550.292969 0)"/>
      <use xlink:href="#ArialMT-64" transform="translate(572.509766 0)"/>
      <use xlink:href="#ArialMT-75" transform="translate(628.125 0)"/>
      <use xlink:href="#ArialMT-61" transform="translate(683.740234 0)"/>
      <use xlink:href="#ArialMT-6c" transform="translate(739.355469 0)"/>
      <use xlink:href="#ArialMT-20" transform="translate(761.572266 0)"/>
      <use xlink:href="#ArialMT-37" transform="translate(789.355469 0)"/>
      <use xlink:href="#ArialMT-64" transform="translate(844.970703 0)"/>
      <use xlink:href="#ArialMT-20" transform="translate(900.585938 0)"/>
      <use xlink:href="#ArialMT-6d" transform="translate(928.369141 0)"/>
      <use xlink:href="#ArialMT-65" transform="translate(1011.669922 0)"/>
      <use xlink:href="#ArialMT-61" transform="translate(1067.285156 0)"/>
      <use xlink:href="#ArialMT-6e" transform="translate(1122.900391 0)"/>
     </g>
    </g>
    <g id="line2d_23">
     <path d="M 865.564531 43.475625 
L 873.564531 43.475625 
L 881.564531 43.475625 
" style="fill: none; stroke: #2ca02c; stroke-width: 2; stroke-linecap: round"/>
    </g>
    <g id="text_21">
     <!-- Model residual 7d mean -->
     <g style="fill: #262626" transform="translate(887.964531 46.275625) scale(0.08 -0.08)">
      <use xlink:href="#ArialMT-4d"/>
      <use xlink:href="#ArialMT-6f" transform="translate(83.300781 0)"/>
      <use xlink:href="#ArialMT-64" transform="translate(138.916016 0)"/>
      <use xlink:href="#ArialMT-65" transform="translate(194.53125 0)"/>
      <use xlink:href="#ArialMT-6c" transform="translate(250.146484 0)"/>
      <use xlink:href="#ArialMT-20" transform="translate(272.363281 0)"/>
      <use xlink:href="#ArialMT-72" transform="translate(300.146484 0)"/>
      <use xlink:href="#ArialMT-65" transform="translate(333.447266 0)"/>
      <use xlink:href="#ArialMT-73" transform="translate(389.0625 0)"/>
      <use xlink:href="#ArialMT-69" transform="translate(439.0625 0)"/>
      <use xlink:href="#ArialMT-64" transform="translate(461.279297 0)"/>
      <use xlink:href="#ArialMT-75" transform="translate(516.894531 0)"/>
      <use xlink:href="#ArialMT-61" transform="translate(572.509766 0)"/>
      <use xlink:href="#ArialMT-6c" transform="translate(628.125 0)"/>
      <use xlink:href="#ArialMT-20" transform="translate(650.341797 0)"/>
      <use xlink:href="#ArialMT-37" transform="translate(678.125 0)"/>
      <use xlink:href="#ArialMT-64" transform="translate(733.740234 0)"/>
      <use xlink:href="#ArialMT-20" transform="translate(789.355469 0)"/>
      <use xlink:href="#ArialMT-6d" transform="translate(817.138672 0)"/>
      <use xlink:href="#ArialMT-65" transform="translate(900.439453 0)"/>
      <use xlink:href="#ArialMT-61" transform="translate(956.054688 0)"/>
      <use xlink:href="#ArialMT-6e" transform="translate(1011.669922 0)"/>
     </g>
    </g>
   </g>
  </g>
 </g>
 <defs>
  <clipPath id="pe0d02e1543">
   <rect x="62.259531" y="21.935625" width="927.18" height="227.38125"/>
  </clipPath>
 </defs>
</svg>
