<?xml version="1.0" encoding="utf-8" standalone="no"?>
<!DOCTYPE svg PUBLIC "-//W3C//DTD SVG 1.1//EN"
  "http://www.w3.org/Graphics/SVG/1.1/DTD/svg11.dtd">
<svg xmlns:xlink="http://www.w3.org/1999/xlink" width="996.639531pt" height="276.583594pt" viewBox="0 0 996.639531 276.583594" xmlns="http://www.w3.org/2000/svg" version="1.1">
 <metadata>
  <rdf:RDF xmlns:dc="http://purl.org/dc/elements/1.1/" xmlns:cc="http://creativecommons.org/ns#" xmlns:rdf="http://www.w3.org/1999/02/22-rdf-syntax-ns#">
   <cc:Work>
    <dc:type rdf:resource="http://purl.org/dc/dcmitype/StillImage"/>
    <dc:date>2026-03-19T20:43:04.400155</dc:date>
    <dc:format>image/svg+xml</dc:format>
    <dc:creator>
     <cc:Agent>
      <dc:title>Matplotlib v3.10.8, https://matplotlib.org/</dc:title>
     </cc:Agent>
    </dc:creator>
   </cc:Work>
  </rdf:RDF>
 </metadata>
 <defs>
  <style type="text/css">*{stroke-linejoin: round; stroke-linecap: butt}</style>
 </defs>
 <g id="figure_1">
  <g id="patch_1">
   <path d="M 0 276.583594 
L 996.639531 276.583594 
L 996.639531 0 
L 0 0 
z
" style="fill: #ffffff"/>
  </g>
  <g id="axes_1">
   <g id="patch_2">
    <path d="M 62.259531 234.849375 
L 989.439531 234.849375 
L 989.439531 21.789375 
L 62.259531 21.789375 
z
" style="fill: #ffffff"/>
   </g>
   <g id="matplotlib.axis_1">
    <g id="xtick_1">
     <g id="line2d_1">
      <path d="M 72.337575 234.849375 
L 72.337575 21.789375 
" clip-path="url(#p04836df1be)" style="fill: none; stroke: #cccccc; stroke-linecap: round"/>
     </g>
     <g id="text_1">
      <!-- 2011-06 -->
      <g style="fill: #262626" transform="translate(52.560778 252.222969) scale(0.11 -0.11)">
       <defs>
        <path id="ArialMT-32" d="M 3222 541 
L 3222 0 
L 194 0 
Q 188 203 259 391 
Q 375 700 629 1000 
Q 884 1300 1366 1694 
Q 2113 2306 2375 2664 
Q 2638 3022 2638 3341 
Q 2638 3675 2398 3904 
Q 2159 4134 1775 4134 
Q 1369 4134 1125 3890 
Q 881 3647 878 3216 
L 300 3275 
Q 359 3922 746 4261 
Q 1134 4600 1788 4600 
Q 2447 4600 2831 4234 
Q 3216 3869 3216 3328 
Q 3216 3053 3103 2787 
Q 2991 2522 2730 2228 
Q 2469 1934 1863 1422 
Q 1356 997 1212 845 
Q 1069 694 975 541 
L 3222 541 
z
" transform="scale(0.015625)"/>
        <path id="ArialMT-30" d="M 266 2259 
Q 266 3072 433 3567 
Q 600 4063 929 4331 
Q 1259 4600 1759 4600 
Q 2128 4600 2406 4451 
Q 2684 4303 2865 4023 
Q 3047 3744 3150 3342 
Q 3253 2941 3253 2259 
Q 3253 1453 3087 958 
Q 2922 463 2592 192 
Q 2263 -78 1759 -78 
Q 1097 -78 719 397 
Q 266 969 266 2259 
z
M 844 2259 
Q 844 1131 1108 757 
Q 1372 384 1759 384 
Q 2147 384 2411 759 
Q 2675 1134 2675 2259 
Q 2675 3391 2411 3762 
Q 2147 4134 1753 4134 
Q 1366 4134 1134 3806 
Q 844 3388 844 2259 
z
" transform="scale(0.015625)"/>
        <path id="ArialMT-31" d="M 2384 0 
L 1822 0 
L 1822 3584 
Q 1619 3391 1289 3197 
Q 959 3003 697 2906 
L 697 3450 
Q 1169 3672 1522 3987 
Q 1875 4303 2022 4600 
L 2384 4600 
L 2384 0 
z
" transform="scale(0.015625)"/>
        <path id="ArialMT-2d" d="M 203 1375 
L 203 1941 
L 1931 1941 
L 1931 1375 
L 203 1375 
z
" transform="scale(0.015625)"/>
        <path id="ArialMT-36" d="M 3184 3459 
L 2625 3416 
Q 2550 3747 2413 3897 
Q 2184 4138 1850 4138 
Q 1581 4138 1378 3988 
Q 1113 3794 959 3422 
Q 806 3050 800 2363 
Q 1003 2672 1297 2822 
Q 1591 2972 1913 2972 
Q 2475 2972 2870 2558 
Q 3266 2144 3266 1488 
Q 3266 1056 3080 686 
Q 2894 316 2569 119 
Q 2244 -78 1831 -78 
Q 1128 -78 684 439 
Q 241 956 241 2144 
Q 241 3472 731 4075 
Q 1159 4600 1884 4600 
Q 2425 4600 2770 4297 
Q 3116 3994 3184 3459 
z
M 888 1484 
Q 888 1194 1011 928 
Q 1134 663 1356 523 
Q 1578 384 1822 384 
Q 2178 384 2434 671 
Q 2691 959 2691 1453 
Q 2691 1928 2437 2201 
Q 2184 2475 1800 2475 
Q 1419 2475 1153 2201 
Q 888 1928 888 1484 
z
" transform="scale(0.015625)"/>
       </defs>
       <use xlink:href="#ArialMT-32"/>
       <use xlink:href="#ArialMT-30" transform="translate(55.615234 0)"/>
       <use xlink:href="#ArialMT-31" transform="translate(111.230469 0)"/>
       <use xlink:href="#ArialMT-31" transform="translate(159.470703 0)"/>
       <use xlink:href="#ArialMT-2d" transform="translate(215.085938 0)"/>
       <use xlink:href="#ArialMT-30" transform="translate(248.386719 0)"/>
       <use xlink:href="#ArialMT-36" transform="translate(304.001953 0)"/>
      </g>
     </g>
    </g>
    <g id="xtick_2">
     <g id="line2d_2">
      <path d="M 209.76544 234.849375 
L 209.76544 21.789375 
" clip-path="url(#p04836df1be)" style="fill: none; stroke: #cccccc; stroke-linecap: round"/>
     </g>
     <g id="text_2">
      <!-- 2011-07 -->
      <g style="fill: #262626" transform="translate(189.988643 252.222969) scale(0.11 -0.11)">
       <defs>
        <path id="ArialMT-37" d="M 303 3981 
L 303 4522 
L 3269 4522 
L 3269 4084 
Q 2831 3619 2401 2847 
Q 1972 2075 1738 1259 
Q 1569 684 1522 0 
L 944 0 
Q 953 541 1156 1306 
Q 1359 2072 1739 2783 
Q 2119 3494 2547 3981 
L 303 3981 
z
" transform="scale(0.015625)"/>
       </defs>
       <use xlink:href="#ArialMT-32"/>
       <use xlink:href="#ArialMT-30" transform="translate(55.615234 0)"/>
       <use xlink:href="#ArialMT-31" transform="translate(111.230469 0)"/>
       <use xlink:href="#ArialMT-31" transform="translate(159.470703 0)"/>
       <use xlink:href="#ArialMT-2d" transform="translate(215.085938 0)"/>
       <use xlink:href="#ArialMT-30" transform="translate(248.386719 0)"/>
       <use xlink:href="#ArialMT-37" transform="translate(304.001953 0)"/>
      </g>
     </g>
    </g>
    <g id="xtick_3">
     <g id="line2d_3">
      <path d="M 351.774235 234.849375 
L 351.774235 21.789375 
" clip-path="url(#p04836df1be)" style="fill: none; stroke: #cccccc; stroke-linecap: round"/>
     </g>
     <g id="text_3">
      <!-- 2011-08 -->
      <g style="fill: #262626" transform="translate(331.997438 252.222969) scale(0.11 -0.11)">
       <defs>
        <path id="ArialMT-38" d="M 1131 2484 
Q 781 2613 612 2850 
Q 444 3088 444 3419 
Q 444 3919 803 4259 
Q 1163 4600 1759 4600 
Q 2359 4600 2725 4251 
Q 3091 3903 3091 3403 
Q 3091 3084 2923 2848 
Q 2756 2613 2416 2484 
Q 2838 2347 3058 2040 
Q 3278 1734 3278 1309 
Q 3278 722 2862 322 
Q 2447 -78 1769 -78 
Q 1091 -78 675 323 
Q 259 725 259 1325 
Q 259 1772 486 2073 
Q 713 2375 1131 2484 
z
M 1019 3438 
Q 1019 3113 1228 2906 
Q 1438 2700 1772 2700 
Q 2097 2700 2305 2904 
Q 2513 3109 2513 3406 
Q 2513 3716 2298 3927 
Q 2084 4138 1766 4138 
Q 1444 4138 1231 3931 
Q 1019 3725 1019 3438 
z
M 838 1322 
Q 838 1081 952 856 
Q 1066 631 1291 507 
Q 1516 384 1775 384 
Q 2178 384 2440 643 
Q 2703 903 2703 1303 
Q 2703 1709 2433 1975 
Q 2163 2241 1756 2241 
Q 1359 2241 1098 1978 
Q 838 1716 838 1322 
z
" transform="scale(0.015625)"/>
       </defs>
       <use xlink:href="#ArialMT-32"/>
       <use xlink:href="#ArialMT-30" transform="translate(55.615234 0)"/>
       <use xlink:href="#ArialMT-31" transform="translate(111.230469 0)"/>
       <use xlink:href="#ArialMT-31" transform="translate(159.470703 0)"/>
       <use xlink:href="#ArialMT-2d" transform="translate(215.085938 0)"/>
       <use xlink:href="#ArialMT-30" transform="translate(248.386719 0)"/>
       <use xlink:href="#ArialMT-38" transform="translate(304.001953 0)"/>
      </g>
     </g>
    </g>
    <g id="xtick_4">
     <g id="line2d_4">
      <path d="M 493.783029 234.849375 
L 493.783029 21.789375 
" clip-path="url(#p04836df1be)" style="fill: none; stroke: #cccccc; stroke-linecap: round"/>
     </g>
     <g id="text_4">
      <!-- 2011-09 -->
      <g style="fill: #262626" transform="translate(474.006232 252.222969) scale(0.11 -0.11)">
       <defs>
        <path id="ArialMT-39" d="M 350 1059 
L 891 1109 
Q 959 728 1153 556 
Q 1347 384 1650 384 
Q 1909 384 2104 503 
Q 2300 622 2425 820 
Q 2550 1019 2634 1356 
Q 2719 1694 2719 2044 
Q 2719 2081 2716 2156 
Q 2547 1888 2255 1720 
Q 1963 1553 1622 1553 
Q 1053 1553 659 1965 
Q 266 2378 266 3053 
Q 266 3750 677 4175 
Q 1088 4600 1706 4600 
Q 2153 4600 2523 4359 
Q 2894 4119 3086 3673 
Q 3278 3228 3278 2384 
Q 3278 1506 3087 986 
Q 2897 466 2520 194 
Q 2144 -78 1638 -78 
Q 1100 -78 759 220 
Q 419 519 350 1059 
z
M 2653 3081 
Q 2653 3566 2395 3850 
Q 2138 4134 1775 4134 
Q 1400 4134 1122 3828 
Q 844 3522 844 3034 
Q 844 2597 1108 2323 
Q 1372 2050 1759 2050 
Q 2150 2050 2401 2323 
Q 2653 2597 2653 3081 
z
" transform="scale(0.015625)"/>
       </defs>
       <use xlink:href="#ArialMT-32"/>
       <use xlink:href="#ArialMT-30" transform="translate(55.615234 0)"/>
       <use xlink:href="#ArialMT-31" transform="translate(111.230469 0)"/>
       <use xlink:href="#ArialMT-31" transform="translate(159.470703 0)"/>
       <use xlink:href="#ArialMT-2d" transform="translate(215.085938 0)"/>
       <use xlink:href="#ArialMT-30" transform="translate(248.386719 0)"/>
       <use xlink:href="#ArialMT-39" transform="translate(304.001953 0)"/>
      </g>
     </g>
    </g>
    <g id="xtick_5">
     <g id="line2d_5">
      <path d="M 631.210895 234.849375 
L 631.210895 21.789375 
" clip-path="url(#p04836df1be)" style="fill: none; stroke: #cccccc; stroke-linecap: round"/>
     </g>
     <g id="text_5">
      <!-- 2011-10 -->
      <g style="fill: #262626" transform="translate(611.434098 252.222969) scale(0.11 -0.11)">
       <use xlink:href="#ArialMT-32"/>
       <use xlink:href="#ArialMT-30" transform="translate(55.615234 0)"/>
       <use xlink:href="#ArialMT-31" transform="translate(111.230469 0)"/>
       <use xlink:href="#ArialMT-31" transform="translate(159.470703 0)"/>
       <use xlink:href="#ArialMT-2d" transform="translate(215.085938 0)"/>
       <use xlink:href="#ArialMT-31" transform="translate(248.386719 0)"/>
       <use xlink:href="#ArialMT-30" transform="translate(304.001953 0)"/>
      </g>
     </g>
    </g>
    <g id="xtick_6">
     <g id="line2d_6">
      <path d="M 773.219689 234.849375 
L 773.219689 21.789375 
" clip-path="url(#p04836df1be)" style="fill: none; stroke: #cccccc; stroke-linecap: round"/>
     </g>
     <g id="text_6">
      <!-- 2011-11 -->
      <g style="fill: #262626" transform="translate(753.848517 252.222969) scale(0.11 -0.11)">
       <use xlink:href="#ArialMT-32"/>
       <use xlink:href="#ArialMT-30" transform="translate(55.615234 0)"/>
       <use xlink:href="#ArialMT-31" transform="translate(111.230469 0)"/>
       <use xlink:href="#ArialMT-31" transform="translate(159.470703 0)"/>
       <use xlink:href="#ArialMT-2d" transform="translate(215.085938 0)"/>
       <use xlink:href="#ArialMT-31" transform="translate(248.386719 0)"/>
       <use xlink:href="#ArialMT-31" transform="translate(296.626953 0)"/>
      </g>
     </g>
    </g>
    <g id="xtick_7">
     <g id="line2d_7">
      <path d="M 910.647555 234.849375 
L 910.647555 21.789375 
" clip-path="url(#p04836df1be)" style="fill: none; stroke: #cccccc; stroke-linecap: round"/>
     </g>
     <g id="text_7">
      <!-- 2011-12 -->
      <g style="fill: #262626" transform="translate(890.870758 252.222969) scale(0.11 -0.11)">
       <use xlink:href="#ArialMT-32"/>
       <use xlink:href="#ArialMT-30" transform="translate(55.615234 0)"/>
       <use xlink:href="#ArialMT-31" transform="translate(111.230469 0)"/>
       <use xlink:href="#ArialMT-31" transform="translate(159.470703 0)"/>
       <use xlink:href="#ArialMT-2d" transform="translate(215.085938 0)"/>
       <use xlink:href="#ArialMT-31" transform="translate(248.386719 0)"/>
       <use xlink:href="#ArialMT-32" transform="translate(304.001953 0)"/>
      </g>
     </g>
    </g>
    <g id="text_8">
     <!-- Date -->
     <g style="fill: #262626" transform="translate(513.176406 266.998594) scale(0.12 -0.12)">
      <defs>
       <path id="ArialMT-44" d="M 494 0 
L 494 4581 
L 2072 4581 
Q 2606 4581 2888 4516 
Q 3281 4425 3559 4188 
Q 3922 3881 4101 3404 
Q 4281 2928 4281 2316 
Q 4281 1794 4159 1391 
Q 4038 988 3847 723 
Q 3656 459 3429 307 
Q 3203 156 2883 78 
Q 2563 0 2147 0 
L 494 0 
z
M 1100 541 
L 2078 541 
Q 2531 541 2789 625 
Q 3047 709 3200 863 
Q 3416 1078 3536 1442 
Q 3656 1806 3656 2325 
Q 3656 3044 3420 3430 
Q 3184 3816 2847 3947 
Q 2603 4041 2063 4041 
L 1100 4041 
L 1100 541 
z
" transform="scale(0.015625)"/>
       <path id="ArialMT-61" d="M 2588 409 
Q 2275 144 1986 34 
Q 1697 -75 1366 -75 
Q 819 -75 525 192 
Q 231 459 231 875 
Q 231 1119 342 1320 
Q 453 1522 633 1644 
Q 813 1766 1038 1828 
Q 1203 1872 1538 1913 
Q 2219 1994 2541 2106 
Q 2544 2222 2544 2253 
Q 2544 2597 2384 2738 
Q 2169 2928 1744 2928 
Q 1347 2928 1158 2789 
Q 969 2650 878 2297 
L 328 2372 
Q 403 2725 575 2942 
Q 747 3159 1072 3276 
Q 1397 3394 1825 3394 
Q 2250 3394 2515 3294 
Q 2781 3194 2906 3042 
Q 3031 2891 3081 2659 
Q 3109 2516 3109 2141 
L 3109 1391 
Q 3109 606 3145 398 
Q 3181 191 3288 0 
L 2700 0 
Q 2613 175 2588 409 
z
M 2541 1666 
Q 2234 1541 1622 1453 
Q 1275 1403 1131 1340 
Q 988 1278 909 1158 
Q 831 1038 831 891 
Q 831 666 1001 516 
Q 1172 366 1500 366 
Q 1825 366 2078 508 
Q 2331 650 2450 897 
Q 2541 1088 2541 1459 
L 2541 1666 
z
" transform="scale(0.015625)"/>
       <path id="ArialMT-74" d="M 1650 503 
L 1731 6 
Q 1494 -44 1306 -44 
Q 1000 -44 831 53 
Q 663 150 594 308 
Q 525 466 525 972 
L 525 2881 
L 113 2881 
L 113 3319 
L 525 3319 
L 525 4141 
L 1084 4478 
L 1084 3319 
L 1650 3319 
L 1650 2881 
L 1084 2881 
L 1084 941 
Q 1084 700 1114 631 
Q 1144 563 1211 522 
Q 1278 481 1403 481 
Q 1497 481 1650 503 
z
" transform="scale(0.015625)"/>
       <path id="ArialMT-65" d="M 2694 1069 
L 3275 997 
Q 3138 488 2766 206 
Q 2394 -75 1816 -75 
Q 1088 -75 661 373 
Q 234 822 234 1631 
Q 234 2469 665 2931 
Q 1097 3394 1784 3394 
Q 2450 3394 2872 2941 
Q 3294 2488 3294 1666 
Q 3294 1616 3291 1516 
L 816 1516 
Q 847 969 1125 678 
Q 1403 388 1819 388 
Q 2128 388 2347 550 
Q 2566 713 2694 1069 
z
M 847 1978 
L 2700 1978 
Q 2663 2397 2488 2606 
Q 2219 2931 1791 2931 
Q 1403 2931 1139 2672 
Q 875 2413 847 1978 
z
" transform="scale(0.015625)"/>
      </defs>
      <use xlink:href="#ArialMT-44"/>
      <use xlink:href="#ArialMT-61" transform="translate(72.216797 0)"/>
      <use xlink:href="#ArialMT-74" transform="translate(127.832031 0)"/>
      <use xlink:href="#ArialMT-65" transform="translate(155.615234 0)"/>
     </g>
    </g>
   </g>
   <g id="matplotlib.axis_2">
    <g id="ytick_1">
     <g id="line2d_8">
      <path d="M 62.259531 220.35526 
L 989.439531 220.35526 
" clip-path="url(#p04836df1be)" style="fill: none; stroke: #cccccc; stroke-linecap: round"/>
     </g>
     <g id="text_9">
      <!-- 4000 -->
      <g style="fill: #262626" transform="translate(28.291406 224.292057) scale(0.11 -0.11)">
       <defs>
        <path id="ArialMT-34" d="M 2069 0 
L 2069 1097 
L 81 1097 
L 81 1613 
L 2172 4581 
L 2631 4581 
L 2631 1613 
L 3250 1613 
L 3250 1097 
L 2631 1097 
L 2631 0 
L 2069 0 
z
M 2069 1613 
L 2069 3678 
L 634 1613 
L 2069 1613 
z
" transform="scale(0.015625)"/>
       </defs>
       <use xlink:href="#ArialMT-34"/>
       <use xlink:href="#ArialMT-30" transform="translate(55.615234 0)"/>
       <use xlink:href="#ArialMT-30" transform="translate(111.230469 0)"/>
       <use xlink:href="#ArialMT-30" transform="translate(166.845703 0)"/>
      </g>
     </g>
    </g>
    <g id="ytick_2">
     <g id="line2d_9">
      <path d="M 62.259531 174.19091 
L 989.439531 174.19091 
" clip-path="url(#p04836df1be)" style="fill: none; stroke: #cccccc; stroke-linecap: round"/>
     </g>
     <g id="text_10">
      <!-- 6000 -->
      <g style="fill: #262626" transform="translate(28.291406 178.127707) scale(0.11 -0.11)">
       <use xlink:href="#ArialMT-36"/>
       <use xlink:href="#ArialMT-30" transform="translate(55.615234 0)"/>
       <use xlink:href="#ArialMT-30" transform="translate(111.230469 0)"/>
       <use xlink:href="#ArialMT-30" transform="translate(166.845703 0)"/>
      </g>
     </g>
    </g>
    <g id="ytick_3">
     <g id="line2d_10">
      <path d="M 62.259531 128.02656 
L 989.439531 128.02656 
" clip-path="url(#p04836df1be)" style="fill: none; stroke: #cccccc; stroke-linecap: round"/>
     </g>
     <g id="text_11">
      <!-- 8000 -->
      <g style="fill: #262626" transform="translate(28.291406 131.963357) scale(0.11 -0.11)">
       <use xlink:href="#ArialMT-38"/>
       <use xlink:href="#ArialMT-30" transform="translate(55.615234 0)"/>
       <use xlink:href="#ArialMT-30" transform="translate(111.230469 0)"/>
       <use xlink:href="#ArialMT-30" transform="translate(166.845703 0)"/>
      </g>
     </g>
    </g>
    <g id="ytick_4">
     <g id="line2d_11">
      <path d="M 62.259531 81.86221 
L 989.439531 81.86221 
" clip-path="url(#p04836df1be)" style="fill: none; stroke: #cccccc; stroke-linecap: round"/>
     </g>
     <g id="text_12">
      <!-- 10000 -->
      <g style="fill: #262626" transform="translate(22.174375 85.799007) scale(0.11 -0.11)">
       <use xlink:href="#ArialMT-31"/>
       <use xlink:href="#ArialMT-30" transform="translate(55.615234 0)"/>
       <use xlink:href="#ArialMT-30" transform="translate(111.230469 0)"/>
       <use xlink:href="#ArialMT-30" transform="translate(166.845703 0)"/>
       <use xlink:href="#ArialMT-30" transform="translate(222.460938 0)"/>
      </g>
     </g>
    </g>
    <g id="ytick_5">
     <g id="line2d_12">
      <path d="M 62.259531 35.697861 
L 989.439531 35.697861 
" clip-path="url(#p04836df1be)" style="fill: none; stroke: #cccccc; stroke-linecap: round"/>
     </g>
     <g id="text_13">
      <!-- 12000 -->
      <g style="fill: #262626" transform="translate(22.174375 39.634658) scale(0.11 -0.11)">
       <use xlink:href="#ArialMT-31"/>
       <use xlink:href="#ArialMT-32" transform="translate(55.615234 0)"/>
       <use xlink:href="#ArialMT-30" transform="translate(111.230469 0)"/>
       <use xlink:href="#ArialMT-30" transform="translate(166.845703 0)"/>
       <use xlink:href="#ArialMT-30" transform="translate(222.460938 0)"/>
      </g>
     </g>
    </g>
    <g id="text_14">
     <!-- Interval width -->
     <g style="fill: #262626" transform="translate(15.789375 163.666875) rotate(-90) scale(0.12 -0.12)">
      <defs>
       <path id="ArialMT-49" d="M 597 0 
L 597 4581 
L 1203 4581 
L 1203 0 
L 597 0 
z
" transform="scale(0.015625)"/>
       <path id="ArialMT-6e" d="M 422 0 
L 422 3319 
L 928 3319 
L 928 2847 
Q 1294 3394 1984 3394 
Q 2284 3394 2536 3286 
Q 2788 3178 2913 3003 
Q 3038 2828 3088 2588 
Q 3119 2431 3119 2041 
L 3119 0 
L 2556 0 
L 2556 2019 
Q 2556 2363 2490 2533 
Q 2425 2703 2258 2804 
Q 2091 2906 1866 2906 
Q 1506 2906 1245 2678 
Q 984 2450 984 1813 
L 984 0 
L 422 0 
z
" transform="scale(0.015625)"/>
       <path id="ArialMT-72" d="M 416 0 
L 416 3319 
L 922 3319 
L 922 2816 
Q 1116 3169 1280 3281 
Q 1444 3394 1641 3394 
Q 1925 3394 2219 3213 
L 2025 2691 
Q 1819 2813 1613 2813 
Q 1428 2813 1281 2702 
Q 1134 2591 1072 2394 
Q 978 2094 978 1738 
L 978 0 
L 416 0 
z
" transform="scale(0.015625)"/>
       <path id="ArialMT-76" d="M 1344 0 
L 81 3319 
L 675 3319 
L 1388 1331 
Q 1503 1009 1600 663 
Q 1675 925 1809 1294 
L 2547 3319 
L 3125 3319 
L 1869 0 
L 1344 0 
z
" transform="scale(0.015625)"/>
       <path id="ArialMT-6c" d="M 409 0 
L 409 4581 
L 972 4581 
L 972 0 
L 409 0 
z
" transform="scale(0.015625)"/>
       <path id="ArialMT-20" transform="scale(0.015625)"/>
       <path id="ArialMT-77" d="M 1034 0 
L 19 3319 
L 600 3319 
L 1128 1403 
L 1325 691 
Q 1338 744 1497 1375 
L 2025 3319 
L 2603 3319 
L 3100 1394 
L 3266 759 
L 3456 1400 
L 4025 3319 
L 4572 3319 
L 3534 0 
L 2950 0 
L 2422 1988 
L 2294 2553 
L 1622 0 
L 1034 0 
z
" transform="scale(0.015625)"/>
       <path id="ArialMT-69" d="M 425 3934 
L 425 4581 
L 988 4581 
L 988 3934 
L 425 3934 
z
M 425 0 
L 425 3319 
L 988 3319 
L 988 0 
L 425 0 
z
" transform="scale(0.015625)"/>
       <path id="ArialMT-64" d="M 2575 0 
L 2575 419 
Q 2259 -75 1647 -75 
Q 1250 -75 917 144 
Q 584 363 401 755 
Q 219 1147 219 1656 
Q 219 2153 384 2558 
Q 550 2963 881 3178 
Q 1213 3394 1622 3394 
Q 1922 3394 2156 3267 
Q 2391 3141 2538 2938 
L 2538 4581 
L 3097 4581 
L 3097 0 
L 2575 0 
z
M 797 1656 
Q 797 1019 1065 703 
Q 1334 388 1700 388 
Q 2069 388 2326 689 
Q 2584 991 2584 1609 
Q 2584 2291 2321 2609 
Q 2059 2928 1675 2928 
Q 1300 2928 1048 2622 
Q 797 2316 797 1656 
z
" transform="scale(0.015625)"/>
       <path id="ArialMT-68" d="M 422 0 
L 422 4581 
L 984 4581 
L 984 2938 
Q 1378 3394 1978 3394 
Q 2347 3394 2619 3248 
Q 2891 3103 3008 2847 
Q 3125 2591 3125 2103 
L 3125 0 
L 2563 0 
L 2563 2103 
Q 2563 2525 2380 2717 
Q 2197 2909 1863 2909 
Q 1613 2909 1392 2779 
Q 1172 2650 1078 2428 
Q 984 2206 984 1816 
L 984 0 
L 422 0 
z
" transform="scale(0.015625)"/>
      </defs>
      <use xlink:href="#ArialMT-49"/>
      <use xlink:href="#ArialMT-6e" transform="translate(27.783203 0)"/>
      <use xlink:href="#ArialMT-74" transform="translate(83.398438 0)"/>
      <use xlink:href="#ArialMT-65" transform="translate(111.181641 0)"/>
      <use xlink:href="#ArialMT-72" transform="translate(166.796875 0)"/>
      <use xlink:href="#ArialMT-76" transform="translate(200.097656 0)"/>
      <use xlink:href="#ArialMT-61" transform="translate(250.097656 0)"/>
      <use xlink:href="#ArialMT-6c" transform="translate(305.712891 0)"/>
      <use xlink:href="#ArialMT-20" transform="translate(327.929688 0)"/>
      <use xlink:href="#ArialMT-77" transform="translate(355.712891 0)"/>
      <use xlink:href="#ArialMT-69" transform="translate(427.929688 0)"/>
      <use xlink:href="#ArialMT-64" transform="translate(450.146484 0)"/>
      <use xlink:href="#ArialMT-74" transform="translate(505.761719 0)"/>
      <use xlink:href="#ArialMT-68" transform="translate(533.544922 0)"/>
     </g>
    </g>
   </g>
   <g id="line2d_13">
    <path d="M 104.404077 140.803338 
L 131.88965 140.803338 
L 136.470579 31.47392 
L 141.051508 47.629862 
L 145.632436 64.424906 
L 150.213365 78.607359 
L 154.794294 84.734284 
L 159.375223 95.225338 
L 163.956152 99.421547 
L 168.537081 106.003637 
L 173.11801 112.038202 
L 177.698938 118.776649 
L 182.279867 123.672889 
L 186.860796 126.036764 
L 191.441725 130.993035 
L 196.022654 128.597531 
L 205.184511 137.216427 
L 209.76544 140.405251 
L 214.346369 144.039461 
L 218.927298 145.45438 
L 223.508227 148.586833 
L 228.089156 149.832872 
L 232.670085 150.283522 
L 237.251013 153.082147 
L 241.831942 155.158483 
L 246.412871 156.441407 
L 250.9938 157.221388 
L 255.574729 159.541739 
L 260.155658 158.881941 
L 264.736587 160.769774 
L 269.317515 162.340049 
L 273.898444 164.197477 
L 283.060302 165.347265 
L 287.641231 167.176907 
L 292.22216 165.712347 
L 296.803089 166.35851 
L 301.384017 168.050784 
L 305.964946 169.3677 
L 310.545875 169.532516 
L 315.126804 169.905573 
L 319.707733 170.83481 
L 324.288662 170.302014 
L 328.869591 171.611919 
L 333.450519 171.684574 
L 338.031448 165.475842 
L 342.612377 166.526557 
L 347.193306 166.863765 
L 351.774235 168.237165 
L 356.355164 166.409689 
L 360.936093 166.922719 
L 365.517021 167.981139 
L 370.09795 168.379812 
L 374.678879 169.29408 
L 379.259808 169.576987 
L 383.840737 170.684346 
L 388.421666 169.613765 
L 393.002594 170.746858 
L 397.583523 170.92511 
L 402.164452 170.617342 
L 411.32631 171.159634 
L 415.907239 171.892636 
L 420.488168 170.832193 
L 425.069096 171.768116 
L 429.650025 172.051942 
L 434.230954 173.037574 
L 438.811883 173.627076 
L 443.392812 173.913612 
L 447.973741 174.818871 
L 452.55467 173.729086 
L 457.135598 174.577685 
L 461.716527 175.15271 
L 466.297456 176.035821 
L 470.878385 176.645054 
L 475.459314 176.895258 
L 480.040243 177.70014 
L 484.621172 174.561733 
L 489.2021 174.658945 
L 493.783029 174.961948 
L 498.363958 175.505422 
L 502.944887 173.849022 
L 507.525816 174.118892 
L 512.106745 174.895403 
L 516.687674 175.034864 
L 521.268602 175.799823 
L 525.849531 176.077536 
L 530.43046 176.725197 
L 535.011389 176.566141 
L 539.592318 176.808788 
L 544.173247 177.511646 
L 548.754176 177.076927 
L 553.335104 177.521922 
L 562.496962 178.823397 
L 567.077891 178.557307 
L 571.65882 178.770341 
L 576.239749 179.400077 
L 580.820677 178.519513 
L 589.982535 179.79346 
L 594.563464 179.837723 
L 599.144393 179.738345 
L 603.725322 179.932529 
L 608.306251 180.293149 
L 612.887179 179.821831 
L 622.049037 180.807987 
L 626.629966 180.925741 
L 631.210895 180.733431 
L 635.791824 180.903464 
L 640.372753 181.472461 
L 644.953681 155.84553 
L 649.53461 155.968718 
L 654.115539 155.78082 
L 658.696468 155.887242 
L 663.277397 155.049329 
L 667.858326 155.298674 
L 677.020183 156.555693 
L 681.601112 156.681017 
L 690.76297 157.796381 
L 699.924828 158.269847 
L 704.505757 158.759544 
L 709.086685 159.124082 
L 713.667614 157.893933 
L 722.829472 159.021557 
L 727.410401 155.894976 
L 731.99133 156.087692 
L 741.153187 157.205485 
L 745.734116 157.550268 
L 750.315045 158.077417 
L 754.895974 158.15819 
L 759.476903 158.10488 
L 764.057832 158.263953 
L 773.219689 159.23139 
L 782.381547 160.197707 
L 786.962476 160.415345 
L 791.543405 147.628568 
L 796.124334 147.804497 
L 800.705262 148.304395 
L 805.286191 148.625492 
L 809.86712 148.694758 
L 814.448049 149.208354 
L 819.028978 148.452833 
L 823.609907 147.550813 
L 828.190836 147.701708 
L 837.352693 148.622799 
L 841.933622 148.296398 
L 846.514551 148.38051 
L 860.257338 148.988098 
L 864.838266 149.44864 
L 869.419195 149.620175 
L 874.000124 148.999455 
L 878.581053 148.497573 
L 883.161982 148.573983 
L 887.742911 148.435286 
L 892.32384 148.533936 
L 896.904768 149.007662 
L 901.485697 149.368368 
L 906.066626 149.28941 
L 910.647555 149.739999 
L 915.228484 149.950623 
L 919.809413 149.826367 
L 924.390342 149.907306 
L 928.97127 150.360769 
L 933.552199 150.234317 
L 938.133128 149.92418 
L 942.714057 150.361576 
L 947.294986 140.405444 
L 947.294986 140.405444 
" clip-path="url(#p04836df1be)" style="fill: none; stroke: #ff7f0e; stroke-opacity: 0.35; stroke-width: 1.2; stroke-linecap: round"/>
   </g>
   <g id="line2d_14">
    <path d="M 104.404077 184.833308 
L 131.88965 184.833308 
L 136.470579 75.759304 
L 141.051508 91.426017 
L 145.632436 105.598063 
L 150.213365 113.341703 
L 154.794294 121.325189 
L 159.375223 129.910267 
L 163.956152 137.535819 
L 168.537081 144.165152 
L 173.11801 149.938948 
L 177.698938 155.139311 
L 182.279867 159.838706 
L 186.860796 163.273573 
L 191.441725 166.5644 
L 196.022654 168.792782 
L 200.603583 172.293125 
L 209.76544 178.618937 
L 214.346369 179.895779 
L 218.927298 182.115501 
L 223.508227 183.867551 
L 228.089156 186.366868 
L 232.670085 188.232772 
L 241.831942 192.594209 
L 246.412871 194.455494 
L 250.9938 195.94888 
L 255.574729 197.238323 
L 260.155658 198.695988 
L 264.736587 200.279023 
L 269.317515 201.508594 
L 278.479373 204.305963 
L 283.060302 205.473095 
L 287.641231 206.852719 
L 292.22216 207.517597 
L 296.803089 208.764401 
L 301.384017 209.760127 
L 310.545875 211.999351 
L 324.288662 214.635353 
L 328.869591 215.397328 
L 333.450519 214.75349 
L 338.031448 210.16272 
L 342.612377 210.458742 
L 351.774235 212.099166 
L 356.355164 212.037788 
L 360.936093 212.950098 
L 365.517021 213.5227 
L 370.09795 214.384349 
L 374.678879 214.389397 
L 379.259808 215.106162 
L 388.421666 215.276692 
L 393.002594 214.480493 
L 397.583523 213.945979 
L 406.745381 215.050541 
L 411.32631 215.725264 
L 415.907239 215.197806 
L 420.488168 215.206859 
L 425.069096 215.48214 
L 429.650025 215.171583 
L 438.811883 215.399595 
L 443.392812 216.038288 
L 447.973741 216.239906 
L 452.55467 216.208646 
L 461.716527 216.526767 
L 470.878385 216.423403 
L 475.459314 217.011289 
L 480.040243 217.155153 
L 484.621172 215.56611 
L 489.2021 216.131837 
L 493.783029 216.044771 
L 498.363958 216.577914 
L 502.944887 216.829951 
L 507.525816 217.374351 
L 512.106745 217.592215 
L 516.687674 218.077659 
L 521.268602 217.623712 
L 525.849531 217.485446 
L 530.43046 217.797202 
L 544.173247 219.206841 
L 548.754176 219.424187 
L 557.916033 220.282146 
L 562.496962 220.358594 
L 571.65882 221.262441 
L 576.239749 221.35699 
L 585.401606 221.195199 
L 603.725322 222.782447 
L 608.306251 223.148105 
L 612.887179 223.259652 
L 622.049037 223.790273 
L 635.791824 224.928096 
L 640.372753 225.16483 
L 644.953681 183.938423 
L 649.53461 184.47653 
L 654.115539 184.237671 
L 667.858326 185.725355 
L 690.76297 187.539231 
L 695.343899 187.878746 
L 709.086685 189.311774 
L 713.667614 188.818136 
L 718.248543 189.284505 
L 722.829472 189.60508 
L 727.410401 188.726308 
L 731.99133 189.179034 
L 741.153187 189.765946 
L 750.315045 190.596184 
L 764.057832 191.812419 
L 768.63876 192.228663 
L 773.219689 192.191861 
L 777.800618 192.434805 
L 786.962476 193.205988 
L 791.543405 183.839991 
L 814.448049 185.878768 
L 819.028978 185.746194 
L 823.609907 185.962776 
L 832.771764 186.75646 
L 837.352693 186.712241 
L 841.933622 186.852812 
L 846.514551 186.776319 
L 860.257338 187.805176 
L 869.419195 188.485132 
L 874.000124 188.437992 
L 878.581053 187.702767 
L 896.904768 189.023944 
L 901.485697 189.381494 
L 915.228484 190.179725 
L 924.390342 190.850641 
L 928.97127 190.878543 
L 933.552199 190.55349 
L 938.133128 190.889241 
L 942.714057 191.10338 
L 947.294986 184.136674 
L 947.294986 184.136674 
" clip-path="url(#p04836df1be)" style="fill: none; stroke: #2ca02c; stroke-opacity: 0.35; stroke-width: 1.2; stroke-linecap: round"/>
   </g>
   <g id="line2d_15">
    <path d="M 131.88965 140.803338 
L 136.470579 125.18485 
L 141.051508 111.874353 
L 145.632436 100.963149 
L 150.213365 92.078009 
L 154.794294 84.068144 
L 159.375223 77.557001 
L 163.956152 71.645316 
L 168.537081 82.292419 
L 173.11801 91.49361 
L 177.698938 99.258145 
L 182.279867 105.696078 
L 186.860796 111.596432 
L 191.441725 116.706103 
L 196.022654 120.874101 
L 200.603583 124.714112 
L 205.184511 128.311002 
L 209.76544 131.400802 
L 214.346369 134.310312 
L 218.927298 137.084257 
L 223.508227 139.597657 
L 228.089156 142.631277 
L 232.670085 145.116964 
L 237.251013 147.383495 
L 241.831942 149.491099 
L 250.9938 152.943807 
L 255.574729 154.508794 
L 260.155658 155.801518 
L 264.736587 157.299554 
L 273.898444 159.913397 
L 283.060302 162.264614 
L 287.641231 163.355352 
L 292.22216 164.331125 
L 305.964946 166.683938 
L 315.126804 168.014905 
L 319.707733 168.537463 
L 333.450519 170.46273 
L 338.031448 169.90675 
L 356.355164 168.115644 
L 360.936093 167.445759 
L 365.517021 166.916697 
L 379.259808 168.114513 
L 388.421666 168.921835 
L 393.002594 169.468141 
L 402.164452 170.208355 
L 420.488168 171.007306 
L 429.650025 171.314176 
L 443.392812 172.446164 
L 480.040243 175.819393 
L 489.2021 175.949952 
L 498.363958 175.846928 
L 512.106745 174.650195 
L 521.268602 174.880768 
L 530.43046 175.214391 
L 544.173247 176.360571 
L 576.239749 178.330056 
L 603.725322 179.4834 
L 622.049037 180.103347 
L 640.372753 180.708111 
L 649.53461 173.80819 
L 663.277397 162.986795 
L 672.439255 155.681325 
L 686.182041 156.085547 
L 690.76297 156.358281 
L 709.086685 157.982018 
L 722.829472 158.514392 
L 741.153187 157.320024 
L 754.895974 157.090588 
L 786.962476 159.231718 
L 809.86712 151.667252 
L 814.448049 150.097344 
L 819.028978 148.388414 
L 841.933622 148.286146 
L 846.514551 148.167883 
L 851.09548 148.190002 
L 869.419195 148.887217 
L 878.581053 149.004377 
L 887.742911 148.937601 
L 901.485697 148.773752 
L 906.066626 148.815174 
L 938.133128 149.991937 
L 942.714057 150.080734 
L 947.294986 148.717137 
L 947.294986 148.717137 
" clip-path="url(#p04836df1be)" style="fill: none; stroke: #ff7f0e; stroke-width: 2; stroke-linecap: round"/>
   </g>
   <g id="line2d_16">
    <path d="M 131.88965 184.833308 
L 136.470579 169.251307 
L 141.051508 155.907408 
L 145.632436 144.588088 
L 150.213365 134.375001 
L 154.794294 125.302413 
L 159.375223 117.456264 
L 163.956152 110.69948 
L 168.537081 120.471744 
L 173.11801 128.830734 
L 177.698938 135.908056 
L 182.279867 142.550484 
L 186.860796 148.543111 
L 191.441725 153.779416 
L 196.022654 158.244696 
L 200.603583 162.262978 
L 205.184511 165.914436 
L 209.76544 169.268668 
L 214.346369 172.133964 
L 218.927298 174.825668 
L 228.089156 179.80813 
L 232.670085 182.085223 
L 237.251013 184.223836 
L 255.574729 192.18657 
L 264.736587 195.668766 
L 273.898444 198.719464 
L 287.641231 202.860761 
L 296.803089 205.333188 
L 305.964946 207.653483 
L 315.126804 209.814555 
L 328.869591 212.765338 
L 333.450519 213.478676 
L 338.031448 213.373281 
L 351.774235 212.682732 
L 360.936093 211.962047 
L 365.517021 211.78622 
L 379.259808 213.498523 
L 388.421666 214.406004 
L 393.002594 214.624631 
L 415.907239 214.880114 
L 420.488168 214.870138 
L 438.811883 215.347195 
L 447.973741 215.540784 
L 480.040243 216.600802 
L 493.783029 216.400494 
L 507.525816 216.525727 
L 512.106745 216.588164 
L 516.687674 216.946957 
L 553.335104 218.687444 
L 567.077891 219.815335 
L 576.239749 220.478398 
L 585.401606 220.934657 
L 603.725322 221.796834 
L 617.468108 222.665876 
L 640.372753 224.194103 
L 672.439255 184.920739 
L 695.343899 186.846205 
L 713.667614 188.287254 
L 722.829472 188.871046 
L 750.315045 189.651975 
L 754.895974 189.847827 
L 777.800618 191.661648 
L 786.962476 192.295107 
L 805.286191 188.043778 
L 819.028978 184.99406 
L 837.352693 186.126252 
L 883.161982 188.006552 
L 906.066626 188.693056 
L 928.97127 190.1954 
L 942.714057 190.710264 
L 947.294986 189.846971 
L 947.294986 189.846971 
" clip-path="url(#p04836df1be)" style="fill: none; stroke: #2ca02c; stroke-width: 2; stroke-linecap: round"/>
   </g>
   <g id="patch_3">
    <path d="M 62.259531 234.849375 
L 62.259531 21.789375 
" style="fill: none; stroke: #cccccc; stroke-width: 1.25; stroke-linejoin: miter; stroke-linecap: square"/>
   </g>
   <g id="patch_4">
    <path d="M 989.439531 234.849375 
L 989.439531 21.789375 
" style="fill: none; stroke: #cccccc; stroke-width: 1.25; stroke-linejoin: miter; stroke-linecap: square"/>
   </g>
   <g id="patch_5">
    <path d="M 62.259531 234.849375 
L 989.439531 234.849375 
" style="fill: none; stroke: #cccccc; stroke-width: 1.25; stroke-linejoin: miter; stroke-linecap: square"/>
   </g>
   <g id="patch_6">
    <path d="M 62.259531 21.789375 
L 989.439531 21.789375 
" style="fill: none; stroke: #cccccc; stroke-width: 1.25; stroke-linejoin: miter; stroke-linecap: square"/>
   </g>
   <g id="text_15">
    <!-- Cluster 3: 95% Prediction Interval Width Over Time -->
    <g style="fill: #262626" transform="translate(381.311406 15.789375) scale(0.12 -0.12)">
     <defs>
      <path id="Arial-BoldMT-43" d="M 3397 1684 
L 4294 1400 
Q 4088 650 3608 286 
Q 3128 -78 2391 -78 
Q 1478 -78 890 545 
Q 303 1169 303 2250 
Q 303 3394 893 4026 
Q 1484 4659 2447 4659 
Q 3288 4659 3813 4163 
Q 4125 3869 4281 3319 
L 3366 3100 
Q 3284 3456 3026 3662 
Q 2769 3869 2400 3869 
Q 1891 3869 1573 3503 
Q 1256 3138 1256 2319 
Q 1256 1450 1568 1081 
Q 1881 713 2381 713 
Q 2750 713 3015 947 
Q 3281 1181 3397 1684 
z
" transform="scale(0.015625)"/>
      <path id="Arial-BoldMT-6c" d="M 459 0 
L 459 4581 
L 1338 4581 
L 1338 0 
L 459 0 
z
" transform="scale(0.015625)"/>
      <path id="Arial-BoldMT-75" d="M 2644 0 
L 2644 497 
Q 2463 231 2167 78 
Q 1872 -75 1544 -75 
Q 1209 -75 943 72 
Q 678 219 559 484 
Q 441 750 441 1219 
L 441 3319 
L 1319 3319 
L 1319 1794 
Q 1319 1094 1367 936 
Q 1416 778 1544 686 
Q 1672 594 1869 594 
Q 2094 594 2272 717 
Q 2450 841 2515 1023 
Q 2581 1206 2581 1919 
L 2581 3319 
L 3459 3319 
L 3459 0 
L 2644 0 
z
" transform="scale(0.015625)"/>
      <path id="Arial-BoldMT-73" d="M 150 947 
L 1031 1081 
Q 1088 825 1259 692 
Q 1431 559 1741 559 
Q 2081 559 2253 684 
Q 2369 772 2369 919 
Q 2369 1019 2306 1084 
Q 2241 1147 2013 1200 
Q 950 1434 666 1628 
Q 272 1897 272 2375 
Q 272 2806 612 3100 
Q 953 3394 1669 3394 
Q 2350 3394 2681 3172 
Q 3013 2950 3138 2516 
L 2309 2363 
Q 2256 2556 2107 2659 
Q 1959 2763 1684 2763 
Q 1338 2763 1188 2666 
Q 1088 2597 1088 2488 
Q 1088 2394 1175 2328 
Q 1294 2241 1995 2081 
Q 2697 1922 2975 1691 
Q 3250 1456 3250 1038 
Q 3250 581 2869 253 
Q 2488 -75 1741 -75 
Q 1063 -75 667 200 
Q 272 475 150 947 
z
" transform="scale(0.015625)"/>
      <path id="Arial-BoldMT-74" d="M 1981 3319 
L 1981 2619 
L 1381 2619 
L 1381 1281 
Q 1381 875 1398 808 
Q 1416 741 1477 697 
Q 1538 653 1625 653 
Q 1747 653 1978 738 
L 2053 56 
Q 1747 -75 1359 -75 
Q 1122 -75 931 4 
Q 741 84 652 211 
Q 563 338 528 553 
Q 500 706 500 1172 
L 500 2619 
L 97 2619 
L 97 3319 
L 500 3319 
L 500 3978 
L 1381 4491 
L 1381 3319 
L 1981 3319 
z
" transform="scale(0.015625)"/>
      <path id="Arial-BoldMT-65" d="M 2381 1056 
L 3256 909 
Q 3088 428 2723 176 
Q 2359 -75 1813 -75 
Q 947 -75 531 491 
Q 203 944 203 1634 
Q 203 2459 634 2926 
Q 1066 3394 1725 3394 
Q 2466 3394 2894 2905 
Q 3322 2416 3303 1406 
L 1103 1406 
Q 1113 1016 1316 798 
Q 1519 581 1822 581 
Q 2028 581 2168 693 
Q 2309 806 2381 1056 
z
M 2431 1944 
Q 2422 2325 2234 2523 
Q 2047 2722 1778 2722 
Q 1491 2722 1303 2513 
Q 1116 2303 1119 1944 
L 2431 1944 
z
" transform="scale(0.015625)"/>
      <path id="Arial-BoldMT-72" d="M 1300 0 
L 422 0 
L 422 3319 
L 1238 3319 
L 1238 2847 
Q 1447 3181 1614 3287 
Q 1781 3394 1994 3394 
Q 2294 3394 2572 3228 
L 2300 2463 
Q 2078 2606 1888 2606 
Q 1703 2606 1575 2504 
Q 1447 2403 1373 2137 
Q 1300 1872 1300 1025 
L 1300 0 
z
" transform="scale(0.015625)"/>
      <path id="Arial-BoldMT-20" transform="scale(0.015625)"/>
      <path id="Arial-BoldMT-33" d="M 241 1216 
L 1091 1319 
Q 1131 994 1309 822 
Q 1488 650 1741 650 
Q 2013 650 2198 856 
Q 2384 1063 2384 1413 
Q 2384 1744 2206 1937 
Q 2028 2131 1772 2131 
Q 1603 2131 1369 2066 
L 1466 2781 
Q 1822 2772 2009 2936 
Q 2197 3100 2197 3372 
Q 2197 3603 2059 3740 
Q 1922 3878 1694 3878 
Q 1469 3878 1309 3722 
Q 1150 3566 1116 3266 
L 306 3403 
Q 391 3819 561 4067 
Q 731 4316 1036 4458 
Q 1341 4600 1719 4600 
Q 2366 4600 2756 4188 
Q 3078 3850 3078 3425 
Q 3078 2822 2419 2463 
Q 2813 2378 3048 2084 
Q 3284 1791 3284 1375 
Q 3284 772 2843 347 
Q 2403 -78 1747 -78 
Q 1125 -78 715 280 
Q 306 638 241 1216 
z
" transform="scale(0.015625)"/>
      <path id="Arial-BoldMT-3a" d="M 628 2441 
L 628 3319 
L 1506 3319 
L 1506 2441 
L 628 2441 
z
M 628 0 
L 628 878 
L 1506 878 
L 1506 0 
L 628 0 
z
" transform="scale(0.015625)"/>
      <path id="Arial-BoldMT-39" d="M 291 1059 
L 1141 1153 
Q 1172 894 1303 769 
Q 1434 644 1650 644 
Q 1922 644 2112 894 
Q 2303 1144 2356 1931 
Q 2025 1547 1528 1547 
Q 988 1547 595 1964 
Q 203 2381 203 3050 
Q 203 3747 617 4173 
Q 1031 4600 1672 4600 
Q 2369 4600 2816 4061 
Q 3263 3522 3263 2288 
Q 3263 1031 2797 475 
Q 2331 -81 1584 -81 
Q 1047 -81 715 205 
Q 384 491 291 1059 
z
M 2278 2978 
Q 2278 3403 2083 3637 
Q 1888 3872 1631 3872 
Q 1388 3872 1227 3680 
Q 1066 3488 1066 3050 
Q 1066 2606 1241 2398 
Q 1416 2191 1678 2191 
Q 1931 2191 2104 2391 
Q 2278 2591 2278 2978 
z
" transform="scale(0.015625)"/>
      <path id="Arial-BoldMT-35" d="M 284 1178 
L 1159 1269 
Q 1197 972 1381 798 
Q 1566 625 1806 625 
Q 2081 625 2272 848 
Q 2463 1072 2463 1522 
Q 2463 1944 2273 2155 
Q 2084 2366 1781 2366 
Q 1403 2366 1103 2031 
L 391 2134 
L 841 4519 
L 3163 4519 
L 3163 3697 
L 1506 3697 
L 1369 2919 
Q 1663 3066 1969 3066 
Q 2553 3066 2959 2641 
Q 3366 2216 3366 1538 
Q 3366 972 3038 528 
Q 2591 -78 1797 -78 
Q 1163 -78 763 262 
Q 363 603 284 1178 
z
" transform="scale(0.015625)"/>
      <path id="Arial-BoldMT-25" d="M 278 3450 
Q 278 4066 548 4362 
Q 819 4659 1281 4659 
Q 1759 4659 2029 4364 
Q 2300 4069 2300 3450 
Q 2300 2834 2029 2537 
Q 1759 2241 1297 2241 
Q 819 2241 548 2536 
Q 278 2831 278 3450 
z
M 963 3456 
Q 963 3009 1066 2856 
Q 1144 2744 1281 2744 
Q 1422 2744 1500 2856 
Q 1600 3009 1600 3456 
Q 1600 3903 1500 4053 
Q 1422 4169 1281 4169 
Q 1144 4169 1066 4056 
Q 963 3903 963 3456 
z
M 1950 -175 
L 1300 -175 
L 3741 4659 
L 4372 4659 
L 1950 -175 
z
M 3369 1028 
Q 3369 1644 3639 1941 
Q 3909 2238 4378 2238 
Q 4850 2238 5120 1941 
Q 5391 1644 5391 1028 
Q 5391 409 5120 112 
Q 4850 -184 4388 -184 
Q 3909 -184 3639 112 
Q 3369 409 3369 1028 
z
M 4053 1031 
Q 4053 584 4156 434 
Q 4234 319 4372 319 
Q 4513 319 4588 431 
Q 4691 584 4691 1031 
Q 4691 1478 4591 1631 
Q 4513 1744 4372 1744 
Q 4231 1744 4156 1631 
Q 4053 1478 4053 1031 
z
" transform="scale(0.015625)"/>
      <path id="Arial-BoldMT-50" d="M 466 0 
L 466 4581 
L 1950 4581 
Q 2794 4581 3050 4513 
Q 3444 4409 3709 4064 
Q 3975 3719 3975 3172 
Q 3975 2750 3822 2462 
Q 3669 2175 3433 2011 
Q 3197 1847 2953 1794 
Q 2622 1728 1994 1728 
L 1391 1728 
L 1391 0 
L 466 0 
z
M 1391 3806 
L 1391 2506 
L 1897 2506 
Q 2444 2506 2628 2578 
Q 2813 2650 2917 2803 
Q 3022 2956 3022 3159 
Q 3022 3409 2875 3571 
Q 2728 3734 2503 3775 
Q 2338 3806 1838 3806 
L 1391 3806 
z
" transform="scale(0.015625)"/>
      <path id="Arial-BoldMT-64" d="M 3503 0 
L 2688 0 
L 2688 488 
Q 2484 203 2207 64 
Q 1931 -75 1650 -75 
Q 1078 -75 670 386 
Q 263 847 263 1672 
Q 263 2516 659 2955 
Q 1056 3394 1663 3394 
Q 2219 3394 2625 2931 
L 2625 4581 
L 3503 4581 
L 3503 0 
z
M 1159 1731 
Q 1159 1200 1306 963 
Q 1519 619 1900 619 
Q 2203 619 2415 876 
Q 2628 1134 2628 1647 
Q 2628 2219 2422 2470 
Q 2216 2722 1894 2722 
Q 1581 2722 1370 2473 
Q 1159 2225 1159 1731 
z
" transform="scale(0.015625)"/>
      <path id="Arial-BoldMT-69" d="M 459 3769 
L 459 4581 
L 1338 4581 
L 1338 3769 
L 459 3769 
z
M 459 0 
L 459 3319 
L 1338 3319 
L 1338 0 
L 459 0 
z
" transform="scale(0.015625)"/>
      <path id="Arial-BoldMT-63" d="M 3353 2338 
L 2488 2181 
Q 2444 2441 2289 2572 
Q 2134 2703 1888 2703 
Q 1559 2703 1364 2476 
Q 1169 2250 1169 1719 
Q 1169 1128 1367 884 
Q 1566 641 1900 641 
Q 2150 641 2309 783 
Q 2469 925 2534 1272 
L 3397 1125 
Q 3263 531 2881 228 
Q 2500 -75 1859 -75 
Q 1131 -75 698 384 
Q 266 844 266 1656 
Q 266 2478 700 2936 
Q 1134 3394 1875 3394 
Q 2481 3394 2839 3133 
Q 3197 2872 3353 2338 
z
" transform="scale(0.015625)"/>
      <path id="Arial-BoldMT-6f" d="M 256 1706 
Q 256 2144 472 2553 
Q 688 2963 1083 3178 
Q 1478 3394 1966 3394 
Q 2719 3394 3200 2905 
Q 3681 2416 3681 1669 
Q 3681 916 3195 420 
Q 2709 -75 1972 -75 
Q 1516 -75 1102 131 
Q 688 338 472 736 
Q 256 1134 256 1706 
z
M 1156 1659 
Q 1156 1166 1390 903 
Q 1625 641 1969 641 
Q 2313 641 2545 903 
Q 2778 1166 2778 1666 
Q 2778 2153 2545 2415 
Q 2313 2678 1969 2678 
Q 1625 2678 1390 2415 
Q 1156 2153 1156 1659 
z
" transform="scale(0.015625)"/>
      <path id="Arial-BoldMT-6e" d="M 3478 0 
L 2600 0 
L 2600 1694 
Q 2600 2231 2544 2389 
Q 2488 2547 2361 2634 
Q 2234 2722 2056 2722 
Q 1828 2722 1647 2597 
Q 1466 2472 1398 2265 
Q 1331 2059 1331 1503 
L 1331 0 
L 453 0 
L 453 3319 
L 1269 3319 
L 1269 2831 
Q 1703 3394 2363 3394 
Q 2653 3394 2893 3289 
Q 3134 3184 3257 3021 
Q 3381 2859 3429 2653 
Q 3478 2447 3478 2063 
L 3478 0 
z
" transform="scale(0.015625)"/>
      <path id="Arial-BoldMT-49" d="M 438 0 
L 438 4581 
L 1363 4581 
L 1363 0 
L 438 0 
z
" transform="scale(0.015625)"/>
      <path id="Arial-BoldMT-76" d="M 1372 0 
L 34 3319 
L 956 3319 
L 1581 1625 
L 1763 1059 
Q 1834 1275 1853 1344 
Q 1897 1484 1947 1625 
L 2578 3319 
L 3481 3319 
L 2163 0 
L 1372 0 
z
" transform="scale(0.015625)"/>
      <path id="Arial-BoldMT-61" d="M 1116 2306 
L 319 2450 
Q 453 2931 781 3162 
Q 1109 3394 1756 3394 
Q 2344 3394 2631 3255 
Q 2919 3116 3036 2902 
Q 3153 2688 3153 2116 
L 3144 1091 
Q 3144 653 3186 445 
Q 3228 238 3344 0 
L 2475 0 
Q 2441 88 2391 259 
Q 2369 338 2359 363 
Q 2134 144 1878 34 
Q 1622 -75 1331 -75 
Q 819 -75 523 203 
Q 228 481 228 906 
Q 228 1188 362 1408 
Q 497 1628 739 1745 
Q 981 1863 1438 1950 
Q 2053 2066 2291 2166 
L 2291 2253 
Q 2291 2506 2166 2614 
Q 2041 2722 1694 2722 
Q 1459 2722 1328 2630 
Q 1197 2538 1116 2306 
z
M 2291 1594 
Q 2122 1538 1756 1459 
Q 1391 1381 1278 1306 
Q 1106 1184 1106 997 
Q 1106 813 1243 678 
Q 1381 544 1594 544 
Q 1831 544 2047 700 
Q 2206 819 2256 991 
Q 2291 1103 2291 1419 
L 2291 1594 
z
" transform="scale(0.015625)"/>
      <path id="Arial-BoldMT-57" d="M 1116 0 
L 22 4581 
L 969 4581 
L 1659 1434 
L 2497 4581 
L 3597 4581 
L 4400 1381 
L 5103 4581 
L 6034 4581 
L 4922 0 
L 3941 0 
L 3028 3425 
L 2119 0 
L 1116 0 
z
" transform="scale(0.015625)"/>
      <path id="Arial-BoldMT-68" d="M 1334 4581 
L 1334 2897 
Q 1759 3394 2350 3394 
Q 2653 3394 2897 3281 
Q 3141 3169 3264 2994 
Q 3388 2819 3433 2606 
Q 3478 2394 3478 1947 
L 3478 0 
L 2600 0 
L 2600 1753 
Q 2600 2275 2550 2415 
Q 2500 2556 2373 2639 
Q 2247 2722 2056 2722 
Q 1838 2722 1666 2615 
Q 1494 2509 1414 2295 
Q 1334 2081 1334 1663 
L 1334 0 
L 456 0 
L 456 4581 
L 1334 4581 
z
" transform="scale(0.015625)"/>
      <path id="Arial-BoldMT-4f" d="M 278 2263 
Q 278 2963 488 3438 
Q 644 3788 914 4066 
Q 1184 4344 1506 4478 
Q 1934 4659 2494 4659 
Q 3506 4659 4114 4031 
Q 4722 3403 4722 2284 
Q 4722 1175 4119 548 
Q 3516 -78 2506 -78 
Q 1484 -78 881 545 
Q 278 1169 278 2263 
z
M 1231 2294 
Q 1231 1516 1590 1114 
Q 1950 713 2503 713 
Q 3056 713 3411 1111 
Q 3766 1509 3766 2306 
Q 3766 3094 3420 3481 
Q 3075 3869 2503 3869 
Q 1931 3869 1581 3476 
Q 1231 3084 1231 2294 
z
" transform="scale(0.015625)"/>
      <path id="Arial-BoldMT-54" d="M 1497 0 
L 1497 3806 
L 138 3806 
L 138 4581 
L 3778 4581 
L 3778 3806 
L 2422 3806 
L 2422 0 
L 1497 0 
z
" transform="scale(0.015625)"/>
      <path id="Arial-BoldMT-6d" d="M 394 3319 
L 1203 3319 
L 1203 2866 
Q 1638 3394 2238 3394 
Q 2556 3394 2790 3262 
Q 3025 3131 3175 2866 
Q 3394 3131 3647 3262 
Q 3900 3394 4188 3394 
Q 4553 3394 4806 3245 
Q 5059 3097 5184 2809 
Q 5275 2597 5275 2122 
L 5275 0 
L 4397 0 
L 4397 1897 
Q 4397 2391 4306 2534 
Q 4184 2722 3931 2722 
Q 3747 2722 3584 2609 
Q 3422 2497 3350 2280 
Q 3278 2063 3278 1594 
L 3278 0 
L 2400 0 
L 2400 1819 
Q 2400 2303 2353 2443 
Q 2306 2584 2207 2653 
Q 2109 2722 1941 2722 
Q 1738 2722 1575 2612 
Q 1413 2503 1342 2297 
Q 1272 2091 1272 1613 
L 1272 0 
L 394 0 
L 394 3319 
z
" transform="scale(0.015625)"/>
     </defs>
     <use xlink:href="#Arial-BoldMT-43"/>
     <use xlink:href="#Arial-BoldMT-6c" transform="translate(72.216797 0)"/>
     <use xlink:href="#Arial-BoldMT-75" transform="translate(100 0)"/>
     <use xlink:href="#Arial-BoldMT-73" transform="translate(161.083984 0)"/>
     <use xlink:href="#Arial-BoldMT-74" transform="translate(216.699219 0)"/>
     <use xlink:href="#Arial-BoldMT-65" transform="translate(250 0)"/>
     <use xlink:href="#Arial-BoldMT-72" transform="translate(305.615234 0)"/>
     <use xlink:href="#Arial-BoldMT-20" transform="translate(344.53125 0)"/>
     <use xlink:href="#Arial-BoldMT-33" transform="translate(372.314453 0)"/>
     <use xlink:href="#Arial-BoldMT-3a" transform="translate(427.929688 0)"/>
     <use xlink:href="#Arial-BoldMT-20" transform="translate(461.230469 0)"/>
     <use xlink:href="#Arial-BoldMT-39" transform="translate(489.013672 0)"/>
     <use xlink:href="#Arial-BoldMT-35" transform="translate(544.628906 0)"/>
     <use xlink:href="#Arial-BoldMT-25" transform="translate(600.244141 0)"/>
     <use xlink:href="#Arial-BoldMT-20" transform="translate(689.160156 0)"/>
     <use xlink:href="#Arial-BoldMT-50" transform="translate(716.943359 0)"/>
     <use xlink:href="#Arial-BoldMT-72" transform="translate(783.642578 0)"/>
     <use xlink:href="#Arial-BoldMT-65" transform="translate(822.558594 0)"/>
     <use xlink:href="#Arial-BoldMT-64" transform="translate(878.173828 0)"/>
     <use xlink:href="#Arial-BoldMT-69" transform="translate(939.257812 0)"/>
     <use xlink:href="#Arial-BoldMT-63" transform="translate(967.041016 0)"/>
     <use xlink:href="#Arial-BoldMT-74" transform="translate(1022.65625 0)"/>
     <use xlink:href="#Arial-BoldMT-69" transform="translate(1055.957031 0)"/>
     <use xlink:href="#Arial-BoldMT-6f" transform="translate(1083.740234 0)"/>
     <use xlink:href="#Arial-BoldMT-6e" transform="translate(1144.824219 0)"/>
     <use xlink:href="#Arial-BoldMT-20" transform="translate(1205.908203 0)"/>
     <use xlink:href="#Arial-BoldMT-49" transform="translate(1233.691406 0)"/>
     <use xlink:href="#Arial-BoldMT-6e" transform="translate(1261.474609 0)"/>
     <use xlink:href="#Arial-BoldMT-74" transform="translate(1322.558594 0)"/>
     <use xlink:href="#Arial-BoldMT-65" transform="translate(1355.859375 0)"/>
     <use xlink:href="#Arial-BoldMT-72" transform="translate(1411.474609 0)"/>
     <use xlink:href="#Arial-BoldMT-76" transform="translate(1450.390625 0)"/>
     <use xlink:href="#Arial-BoldMT-61" transform="translate(1506.005859 0)"/>
     <use xlink:href="#Arial-BoldMT-6c" transform="translate(1561.621094 0)"/>
     <use xlink:href="#Arial-BoldMT-20" transform="translate(1589.404297 0)"/>
     <use xlink:href="#Arial-BoldMT-57" transform="translate(1617.1875 0)"/>
     <use xlink:href="#Arial-BoldMT-69" transform="translate(1710.697266 0)"/>
     <use xlink:href="#Arial-BoldMT-64" transform="translate(1738.480469 0)"/>
     <use xlink:href="#Arial-BoldMT-74" transform="translate(1799.564453 0)"/>
     <use xlink:href="#Arial-BoldMT-68" transform="translate(1832.865234 0)"/>
     <use xlink:href="#Arial-BoldMT-20" transform="translate(1893.949219 0)"/>
     <use xlink:href="#Arial-BoldMT-4f" transform="translate(1921.732422 0)"/>
     <use xlink:href="#Arial-BoldMT-76" transform="translate(1999.515625 0)"/>
     <use xlink:href="#Arial-BoldMT-65" transform="translate(2055.130859 0)"/>
     <use xlink:href="#Arial-BoldMT-72" transform="translate(2110.746094 0)"/>
     <use xlink:href="#Arial-BoldMT-20" transform="translate(2149.662109 0)"/>
     <use xlink:href="#Arial-BoldMT-54" transform="translate(2177.445312 0)"/>
     <use xlink:href="#Arial-BoldMT-69" transform="translate(2236.779297 0)"/>
     <use xlink:href="#Arial-BoldMT-6d" transform="translate(2264.5625 0)"/>
     <use xlink:href="#Arial-BoldMT-65" transform="translate(2353.478516 0)"/>
    </g>
   </g>
   <g id="legend_1">
    <g id="patch_7">
     <path d="M 588.155781 51.204375 
L 983.839531 51.204375 
Q 985.439531 51.204375 985.439531 49.604375 
L 985.439531 27.389375 
Q 985.439531 25.789375 983.839531 25.789375 
L 588.155781 25.789375 
Q 586.555781 25.789375 586.555781 27.389375 
L 586.555781 49.604375 
Q 586.555781 51.204375 588.155781 51.204375 
z
" style="fill: #ffffff; opacity: 0.8; stroke: #cccccc; stroke-linejoin: miter"/>
    </g>
    <g id="line2d_17">
     <path d="M 589.755781 32.013125 
L 597.755781 32.013125 
L 605.755781 32.013125 
" style="fill: none; stroke: #ff7f0e; stroke-opacity: 0.35; stroke-width: 1.2; stroke-linecap: round"/>
    </g>
    <g id="text_16">
     <!-- Naive 7-Day Baseline 95% interval width -->
     <g style="fill: #262626" transform="translate(612.155781 34.813125) scale(0.08 -0.08)">
      <defs>
       <path id="ArialMT-4e" d="M 488 0 
L 488 4581 
L 1109 4581 
L 3516 984 
L 3516 4581 
L 4097 4581 
L 4097 0 
L 3475 0 
L 1069 3600 
L 1069 0 
L 488 0 
z
" transform="scale(0.015625)"/>
       <path id="ArialMT-79" d="M 397 -1278 
L 334 -750 
Q 519 -800 656 -800 
Q 844 -800 956 -737 
Q 1069 -675 1141 -563 
Q 1194 -478 1313 -144 
Q 1328 -97 1363 -6 
L 103 3319 
L 709 3319 
L 1400 1397 
Q 1534 1031 1641 628 
Q 1738 1016 1872 1384 
L 2581 3319 
L 3144 3319 
L 1881 -56 
Q 1678 -603 1566 -809 
Q 1416 -1088 1222 -1217 
Q 1028 -1347 759 -1347 
Q 597 -1347 397 -1278 
z
" transform="scale(0.015625)"/>
       <path id="ArialMT-42" d="M 469 0 
L 469 4581 
L 2188 4581 
Q 2713 4581 3030 4442 
Q 3347 4303 3526 4014 
Q 3706 3725 3706 3409 
Q 3706 3116 3547 2856 
Q 3388 2597 3066 2438 
Q 3481 2316 3704 2022 
Q 3928 1728 3928 1328 
Q 3928 1006 3792 729 
Q 3656 453 3456 303 
Q 3256 153 2954 76 
Q 2653 0 2216 0 
L 469 0 
z
M 1075 2656 
L 2066 2656 
Q 2469 2656 2644 2709 
Q 2875 2778 2992 2937 
Q 3109 3097 3109 3338 
Q 3109 3566 3000 3739 
Q 2891 3913 2687 3977 
Q 2484 4041 1991 4041 
L 1075 4041 
L 1075 2656 
z
M 1075 541 
L 2216 541 
Q 2509 541 2628 563 
Q 2838 600 2978 687 
Q 3119 775 3209 942 
Q 3300 1109 3300 1328 
Q 3300 1584 3169 1773 
Q 3038 1963 2805 2039 
Q 2572 2116 2134 2116 
L 1075 2116 
L 1075 541 
z
" transform="scale(0.015625)"/>
       <path id="ArialMT-73" d="M 197 991 
L 753 1078 
Q 800 744 1014 566 
Q 1228 388 1613 388 
Q 2000 388 2187 545 
Q 2375 703 2375 916 
Q 2375 1106 2209 1216 
Q 2094 1291 1634 1406 
Q 1016 1563 777 1677 
Q 538 1791 414 1992 
Q 291 2194 291 2438 
Q 291 2659 392 2848 
Q 494 3038 669 3163 
Q 800 3259 1026 3326 
Q 1253 3394 1513 3394 
Q 1903 3394 2198 3281 
Q 2494 3169 2634 2976 
Q 2775 2784 2828 2463 
L 2278 2388 
Q 2241 2644 2061 2787 
Q 1881 2931 1553 2931 
Q 1166 2931 1000 2803 
Q 834 2675 834 2503 
Q 834 2394 903 2306 
Q 972 2216 1119 2156 
Q 1203 2125 1616 2013 
Q 2213 1853 2448 1751 
Q 2684 1650 2818 1456 
Q 2953 1263 2953 975 
Q 2953 694 2789 445 
Q 2625 197 2315 61 
Q 2006 -75 1616 -75 
Q 969 -75 630 194 
Q 291 463 197 991 
z
" transform="scale(0.015625)"/>
       <path id="ArialMT-35" d="M 266 1200 
L 856 1250 
Q 922 819 1161 601 
Q 1400 384 1738 384 
Q 2144 384 2425 690 
Q 2706 997 2706 1503 
Q 2706 1984 2436 2262 
Q 2166 2541 1728 2541 
Q 1456 2541 1237 2417 
Q 1019 2294 894 2097 
L 366 2166 
L 809 4519 
L 3088 4519 
L 3088 3981 
L 1259 3981 
L 1013 2750 
Q 1425 3038 1878 3038 
Q 2478 3038 2890 2622 
Q 3303 2206 3303 1553 
Q 3303 931 2941 478 
Q 2500 -78 1738 -78 
Q 1113 -78 717 272 
Q 322 622 266 1200 
z
" transform="scale(0.015625)"/>
       <path id="ArialMT-25" d="M 372 3481 
Q 372 3972 619 4315 
Q 866 4659 1334 4659 
Q 1766 4659 2048 4351 
Q 2331 4044 2331 3447 
Q 2331 2866 2045 2552 
Q 1759 2238 1341 2238 
Q 925 2238 648 2547 
Q 372 2856 372 3481 
z
M 1350 4272 
Q 1141 4272 1002 4090 
Q 863 3909 863 3425 
Q 863 2984 1003 2804 
Q 1144 2625 1350 2625 
Q 1563 2625 1702 2806 
Q 1841 2988 1841 3469 
Q 1841 3913 1700 4092 
Q 1559 4272 1350 4272 
z
M 1353 -169 
L 3859 4659 
L 4316 4659 
L 1819 -169 
L 1353 -169 
z
M 3334 1075 
Q 3334 1569 3581 1911 
Q 3828 2253 4300 2253 
Q 4731 2253 5014 1945 
Q 5297 1638 5297 1041 
Q 5297 459 5011 145 
Q 4725 -169 4303 -169 
Q 3888 -169 3611 142 
Q 3334 453 3334 1075 
z
M 4316 1866 
Q 4103 1866 3964 1684 
Q 3825 1503 3825 1019 
Q 3825 581 3965 400 
Q 4106 219 4313 219 
Q 4528 219 4667 400 
Q 4806 581 4806 1063 
Q 4806 1506 4665 1686 
Q 4525 1866 4316 1866 
z
" transform="scale(0.015625)"/>
      </defs>
      <use xlink:href="#ArialMT-4e"/>
      <use xlink:href="#ArialMT-61" transform="translate(72.216797 0)"/>
      <use xlink:href="#ArialMT-69" transform="translate(127.832031 0)"/>
      <use xlink:href="#ArialMT-76" transform="translate(150.048828 0)"/>
      <use xlink:href="#ArialMT-65" transform="translate(200.048828 0)"/>
      <use xlink:href="#ArialMT-20" transform="translate(255.664062 0)"/>
      <use xlink:href="#ArialMT-37" transform="translate(283.447266 0)"/>
      <use xlink:href="#ArialMT-2d" transform="translate(339.0625 0)"/>
      <use xlink:href="#ArialMT-44" transform="translate(372.363281 0)"/>
      <use xlink:href="#ArialMT-61" transform="translate(444.580078 0)"/>
      <use xlink:href="#ArialMT-79" transform="translate(500.195312 0)"/>
      <use xlink:href="#ArialMT-20" transform="translate(550.195312 0)"/>
      <use xlink:href="#ArialMT-42" transform="translate(577.978516 0)"/>
      <use xlink:href="#ArialMT-61" transform="translate(644.677734 0)"/>
      <use xlink:href="#ArialMT-73" transform="translate(700.292969 0)"/>
      <use xlink:href="#ArialMT-65" transform="translate(750.292969 0)"/>
      <use xlink:href="#ArialMT-6c" transform="translate(805.908203 0)"/>
      <use xlink:href="#ArialMT-69" transform="translate(828.125 0)"/>
      <use xlink:href="#ArialMT-6e" transform="translate(850.341797 0)"/>
      <use xlink:href="#ArialMT-65" transform="translate(905.957031 0)"/>
      <use xlink:href="#ArialMT-20" transform="translate(961.572266 0)"/>
      <use xlink:href="#ArialMT-39" transform="translate(989.355469 0)"/>
      <use xlink:href="#ArialMT-35" transform="translate(1044.970703 0)"/>
      <use xlink:href="#ArialMT-25" transform="translate(1100.585938 0)"/>
      <use xlink:href="#ArialMT-20" transform="translate(1189.501953 0)"/>
      <use xlink:href="#ArialMT-69" transform="translate(1217.285156 0)"/>
      <use xlink:href="#ArialMT-6e" transform="translate(1239.501953 0)"/>
      <use xlink:href="#ArialMT-74" transform="translate(1295.117188 0)"/>
      <use xlink:href="#ArialMT-65" transform="translate(1322.900391 0)"/>
      <use xlink:href="#ArialMT-72" transform="translate(1378.515625 0)"/>
      <use xlink:href="#ArialMT-76" transform="translate(1411.816406 0)"/>
      <use xlink:href="#ArialMT-61" transform="translate(1461.816406 0)"/>
      <use xlink:href="#ArialMT-6c" transform="translate(1517.431641 0)"/>
      <use xlink:href="#ArialMT-20" transform="translate(1539.648438 0)"/>
      <use xlink:href="#ArialMT-77" transform="translate(1567.431641 0)"/>
      <use xlink:href="#ArialMT-69" transform="translate(1639.648438 0)"/>
      <use xlink:href="#ArialMT-64" transform="translate(1661.865234 0)"/>
      <use xlink:href="#ArialMT-74" transform="translate(1717.480469 0)"/>
      <use xlink:href="#ArialMT-68" transform="translate(1745.263672 0)"/>
     </g>
    </g>
    <g id="line2d_18">
     <path d="M 589.755781 43.520625 
L 597.755781 43.520625 
L 605.755781 43.520625 
" style="fill: none; stroke: #2ca02c; stroke-opacity: 0.35; stroke-width: 1.2; stroke-linecap: round"/>
    </g>
    <g id="text_17">
     <!-- Two-Stage HGB Forecast 95% interval width -->
     <g style="fill: #262626" transform="translate(612.155781 46.320625) scale(0.08 -0.08)">
      <defs>
       <path id="ArialMT-54" d="M 1659 0 
L 1659 4041 
L 150 4041 
L 150 4581 
L 3781 4581 
L 3781 4041 
L 2266 4041 
L 2266 0 
L 1659 0 
z
" transform="scale(0.015625)"/>
       <path id="ArialMT-6f" d="M 213 1659 
Q 213 2581 725 3025 
Q 1153 3394 1769 3394 
Q 2453 3394 2887 2945 
Q 3322 2497 3322 1706 
Q 3322 1066 3130 698 
Q 2938 331 2570 128 
Q 2203 -75 1769 -75 
Q 1072 -75 642 372 
Q 213 819 213 1659 
z
M 791 1659 
Q 791 1022 1069 705 
Q 1347 388 1769 388 
Q 2188 388 2466 706 
Q 2744 1025 2744 1678 
Q 2744 2294 2464 2611 
Q 2184 2928 1769 2928 
Q 1347 2928 1069 2612 
Q 791 2297 791 1659 
z
" transform="scale(0.015625)"/>
       <path id="ArialMT-53" d="M 288 1472 
L 859 1522 
Q 900 1178 1048 958 
Q 1197 738 1509 602 
Q 1822 466 2213 466 
Q 2559 466 2825 569 
Q 3091 672 3220 851 
Q 3350 1031 3350 1244 
Q 3350 1459 3225 1620 
Q 3100 1781 2813 1891 
Q 2628 1963 1997 2114 
Q 1366 2266 1113 2400 
Q 784 2572 623 2826 
Q 463 3081 463 3397 
Q 463 3744 659 4045 
Q 856 4347 1234 4503 
Q 1613 4659 2075 4659 
Q 2584 4659 2973 4495 
Q 3363 4331 3572 4012 
Q 3781 3694 3797 3291 
L 3216 3247 
Q 3169 3681 2898 3903 
Q 2628 4125 2100 4125 
Q 1550 4125 1298 3923 
Q 1047 3722 1047 3438 
Q 1047 3191 1225 3031 
Q 1400 2872 2139 2705 
Q 2878 2538 3153 2413 
Q 3553 2228 3743 1945 
Q 3934 1663 3934 1294 
Q 3934 928 3725 604 
Q 3516 281 3123 101 
Q 2731 -78 2241 -78 
Q 1619 -78 1198 103 
Q 778 284 539 648 
Q 300 1013 288 1472 
z
" transform="scale(0.015625)"/>
       <path id="ArialMT-67" d="M 319 -275 
L 866 -356 
Q 900 -609 1056 -725 
Q 1266 -881 1628 -881 
Q 2019 -881 2231 -725 
Q 2444 -569 2519 -288 
Q 2563 -116 2559 434 
Q 2191 0 1641 0 
Q 956 0 581 494 
Q 206 988 206 1678 
Q 206 2153 378 2554 
Q 550 2956 876 3175 
Q 1203 3394 1644 3394 
Q 2231 3394 2613 2919 
L 2613 3319 
L 3131 3319 
L 3131 450 
Q 3131 -325 2973 -648 
Q 2816 -972 2473 -1159 
Q 2131 -1347 1631 -1347 
Q 1038 -1347 672 -1080 
Q 306 -813 319 -275 
z
M 784 1719 
Q 784 1066 1043 766 
Q 1303 466 1694 466 
Q 2081 466 2343 764 
Q 2606 1063 2606 1700 
Q 2606 2309 2336 2618 
Q 2066 2928 1684 2928 
Q 1309 2928 1046 2623 
Q 784 2319 784 1719 
z
" transform="scale(0.015625)"/>
       <path id="ArialMT-48" d="M 513 0 
L 513 4581 
L 1119 4581 
L 1119 2700 
L 3500 2700 
L 3500 4581 
L 4106 4581 
L 4106 0 
L 3500 0 
L 3500 2159 
L 1119 2159 
L 1119 0 
L 513 0 
z
" transform="scale(0.015625)"/>
       <path id="ArialMT-47" d="M 2638 1797 
L 2638 2334 
L 4578 2338 
L 4578 638 
Q 4131 281 3656 101 
Q 3181 -78 2681 -78 
Q 2006 -78 1454 211 
Q 903 500 622 1047 
Q 341 1594 341 2269 
Q 341 2938 620 3517 
Q 900 4097 1425 4378 
Q 1950 4659 2634 4659 
Q 3131 4659 3532 4498 
Q 3934 4338 4162 4050 
Q 4391 3763 4509 3300 
L 3963 3150 
Q 3859 3500 3706 3700 
Q 3553 3900 3268 4020 
Q 2984 4141 2638 4141 
Q 2222 4141 1919 4014 
Q 1616 3888 1430 3681 
Q 1244 3475 1141 3228 
Q 966 2803 966 2306 
Q 966 1694 1177 1281 
Q 1388 869 1791 669 
Q 2194 469 2647 469 
Q 3041 469 3416 620 
Q 3791 772 3984 944 
L 3984 1797 
L 2638 1797 
z
" transform="scale(0.015625)"/>
       <path id="ArialMT-46" d="M 525 0 
L 525 4581 
L 3616 4581 
L 3616 4041 
L 1131 4041 
L 1131 2622 
L 3281 2622 
L 3281 2081 
L 1131 2081 
L 1131 0 
L 525 0 
z
" transform="scale(0.015625)"/>
       <path id="ArialMT-63" d="M 2588 1216 
L 3141 1144 
Q 3050 572 2676 248 
Q 2303 -75 1759 -75 
Q 1078 -75 664 370 
Q 250 816 250 1647 
Q 250 2184 428 2587 
Q 606 2991 970 3192 
Q 1334 3394 1763 3394 
Q 2303 3394 2647 3120 
Q 2991 2847 3088 2344 
L 2541 2259 
Q 2463 2594 2264 2762 
Q 2066 2931 1784 2931 
Q 1359 2931 1093 2626 
Q 828 2322 828 1663 
Q 828 994 1084 691 
Q 1341 388 1753 388 
Q 2084 388 2306 591 
Q 2528 794 2588 1216 
z
" transform="scale(0.015625)"/>
      </defs>
      <use xlink:href="#ArialMT-54"/>
      <use xlink:href="#ArialMT-77" transform="translate(55.583984 0)"/>
      <use xlink:href="#ArialMT-6f" transform="translate(127.800781 0)"/>
      <use xlink:href="#ArialMT-2d" transform="translate(183.416016 0)"/>
      <use xlink:href="#ArialMT-53" transform="translate(216.716797 0)"/>
      <use xlink:href="#ArialMT-74" transform="translate(283.416016 0)"/>
      <use xlink:href="#ArialMT-61" transform="translate(311.199219 0)"/>
      <use xlink:href="#ArialMT-67" transform="translate(366.814453 0)"/>
      <use xlink:href="#ArialMT-65" transform="translate(422.429688 0)"/>
      <use xlink:href="#ArialMT-20" transform="translate(478.044922 0)"/>
      <use xlink:href="#ArialMT-48" transform="translate(505.828125 0)"/>
      <use xlink:href="#ArialMT-47" transform="translate(578.044922 0)"/>
      <use xlink:href="#ArialMT-42" transform="translate(655.828125 0)"/>
      <use xlink:href="#ArialMT-20" transform="translate(722.527344 0)"/>
      <use xlink:href="#ArialMT-46" transform="translate(750.310547 0)"/>
      <use xlink:href="#ArialMT-6f" transform="translate(811.394531 0)"/>
      <use xlink:href="#ArialMT-72" transform="translate(867.009766 0)"/>
      <use xlink:href="#ArialMT-65" transform="translate(900.310547 0)"/>
      <use xlink:href="#ArialMT-63" transform="translate(955.925781 0)"/>
      <use xlink:href="#ArialMT-61" transform="translate(1005.925781 0)"/>
      <use xlink:href="#ArialMT-73" transform="translate(1061.541016 0)"/>
      <use xlink:href="#ArialMT-74" transform="translate(1111.541016 0)"/>
      <use xlink:href="#ArialMT-20" transform="translate(1139.324219 0)"/>
      <use xlink:href="#ArialMT-39" transform="translate(1167.107422 0)"/>
      <use xlink:href="#ArialMT-35" transform="translate(1222.722656 0)"/>
      <use xlink:href="#ArialMT-25" transform="translate(1278.337891 0)"/>
      <use xlink:href="#ArialMT-20" transform="translate(1367.253906 0)"/>
      <use xlink:href="#ArialMT-69" transform="translate(1395.037109 0)"/>
      <use xlink:href="#ArialMT-6e" transform="translate(1417.253906 0)"/>
      <use xlink:href="#ArialMT-74" transform="translate(1472.869141 0)"/>
      <use xlink:href="#ArialMT-65" transform="translate(1500.652344 0)"/>
      <use xlink:href="#ArialMT-72" transform="translate(1556.267578 0)"/>
      <use xlink:href="#ArialMT-76" transform="translate(1589.568359 0)"/>
      <use xlink:href="#ArialMT-61" transform="translate(1639.568359 0)"/>
      <use xlink:href="#ArialMT-6c" transform="translate(1695.183594 0)"/>
      <use xlink:href="#ArialMT-20" transform="translate(1717.400391 0)"/>
      <use xlink:href="#ArialMT-77" transform="translate(1745.183594 0)"/>
      <use xlink:href="#ArialMT-69" transform="translate(1817.400391 0)"/>
      <use xlink:href="#ArialMT-64" transform="translate(1839.617188 0)"/>
      <use xlink:href="#ArialMT-74" transform="translate(1895.232422 0)"/>
      <use xlink:href="#ArialMT-68" transform="translate(1923.015625 0)"/>
     </g>
    </g>
    <g id="line2d_19">
     <path d="M 786.438281 32.013125 
L 794.438281 32.013125 
L 802.438281 32.013125 
" style="fill: none; stroke: #ff7f0e; stroke-width: 2; stroke-linecap: round"/>
    </g>
    <g id="text_18">
     <!-- Naive 7-Day Baseline interval width 7d mean -->
     <g style="fill: #262626" transform="translate(808.838281 34.813125) scale(0.08 -0.08)">
      <defs>
       <path id="ArialMT-6d" d="M 422 0 
L 422 3319 
L 925 3319 
L 925 2853 
Q 1081 3097 1340 3245 
Q 1600 3394 1931 3394 
Q 2300 3394 2536 3241 
Q 2772 3088 2869 2813 
Q 3263 3394 3894 3394 
Q 4388 3394 4653 3120 
Q 4919 2847 4919 2278 
L 4919 0 
L 4359 0 
L 4359 2091 
Q 4359 2428 4304 2576 
Q 4250 2725 4106 2815 
Q 3963 2906 3769 2906 
Q 3419 2906 3187 2673 
Q 2956 2441 2956 1928 
L 2956 0 
L 2394 0 
L 2394 2156 
Q 2394 2531 2256 2718 
Q 2119 2906 1806 2906 
Q 1569 2906 1367 2781 
Q 1166 2656 1075 2415 
Q 984 2175 984 1722 
L 984 0 
L 422 0 
z
" transform="scale(0.015625)"/>
      </defs>
      <use xlink:href="#ArialMT-4e"/>
      <use xlink:href="#ArialMT-61" transform="translate(72.216797 0)"/>
      <use xlink:href="#ArialMT-69" transform="translate(127.832031 0)"/>
      <use xlink:href="#ArialMT-76" transform="translate(150.048828 0)"/>
      <use xlink:href="#ArialMT-65" transform="translate(200.048828 0)"/>
      <use xlink:href="#ArialMT-20" transform="translate(255.664062 0)"/>
      <use xlink:href="#ArialMT-37" transform="translate(283.447266 0)"/>
      <use xlink:href="#ArialMT-2d" transform="translate(339.0625 0)"/>
      <use xlink:href="#ArialMT-44" transform="translate(372.363281 0)"/>
      <use xlink:href="#ArialMT-61" transform="translate(444.580078 0)"/>
      <use xlink:href="#ArialMT-79" transform="translate(500.195312 0)"/>
      <use xlink:href="#ArialMT-20" transform="translate(550.195312 0)"/>
      <use xlink:href="#ArialMT-42" transform="translate(577.978516 0)"/>
      <use xlink:href="#ArialMT-61" transform="translate(644.677734 0)"/>
      <use xlink:href="#ArialMT-73" transform="translate(700.292969 0)"/>
      <use xlink:href="#ArialMT-65" transform="translate(750.292969 0)"/>
      <use xlink:href="#ArialMT-6c" transform="translate(805.908203 0)"/>
      <use xlink:href="#ArialMT-69" transform="translate(828.125 0)"/>
      <use xlink:href="#ArialMT-6e" transform="translate(850.341797 0)"/>
      <use xlink:href="#ArialMT-65" transform="translate(905.957031 0)"/>
      <use xlink:href="#ArialMT-20" transform="translate(961.572266 0)"/>
      <use xlink:href="#ArialMT-69" transform="translate(989.355469 0)"/>
      <use xlink:href="#ArialMT-6e" transform="translate(1011.572266 0)"/>
      <use xlink:href="#ArialMT-74" transform="translate(1067.1875 0)"/>
      <use xlink:href="#ArialMT-65" transform="translate(1094.970703 0)"/>
      <use xlink:href="#ArialMT-72" transform="translate(1150.585938 0)"/>
      <use xlink:href="#ArialMT-76" transform="translate(1183.886719 0)"/>
      <use xlink:href="#ArialMT-61" transform="translate(1233.886719 0)"/>
      <use xlink:href="#ArialMT-6c" transform="translate(1289.501953 0)"/>
      <use xlink:href="#ArialMT-20" transform="translate(1311.71875 0)"/>
      <use xlink:href="#ArialMT-77" transform="translate(1339.501953 0)"/>
      <use xlink:href="#ArialMT-69" transform="translate(1411.71875 0)"/>
      <use xlink:href="#ArialMT-64" transform="translate(1433.935547 0)"/>
      <use xlink:href="#ArialMT-74" transform="translate(1489.550781 0)"/>
      <use xlink:href="#ArialMT-68" transform="translate(1517.333984 0)"/>
      <use xlink:href="#ArialMT-20" transform="translate(1572.949219 0)"/>
      <use xlink:href="#ArialMT-37" transform="translate(1600.732422 0)"/>
      <use xlink:href="#ArialMT-64" transform="translate(1656.347656 0)"/>
      <use xlink:href="#ArialMT-20" transform="translate(1711.962891 0)"/>
      <use xlink:href="#ArialMT-6d" transform="translate(1739.746094 0)"/>
      <use xlink:href="#ArialMT-65" transform="translate(1823.046875 0)"/>
      <use xlink:href="#ArialMT-61" transform="translate(1878.662109 0)"/>
      <use xlink:href="#ArialMT-6e" transform="translate(1934.277344 0)"/>
     </g>
    </g>
    <g id="line2d_20">
     <path d="M 786.438281 43.520625 
L 794.438281 43.520625 
L 802.438281 43.520625 
" style="fill: none; stroke: #2ca02c; stroke-width: 2; stroke-linecap: round"/>
    </g>
    <g id="text_19">
     <!-- Two-Stage HGB Forecast interval width 7d mean -->
     <g style="fill: #262626" transform="translate(808.838281 46.320625) scale(0.08 -0.08)">
      <use xlink:href="#ArialMT-54"/>
      <use xlink:href="#ArialMT-77" transform="translate(55.583984 0)"/>
      <use xlink:href="#ArialMT-6f" transform="translate(127.800781 0)"/>
      <use xlink:href="#ArialMT-2d" transform="translate(183.416016 0)"/>
      <use xlink:href="#ArialMT-53" transform="translate(216.716797 0)"/>
      <use xlink:href="#ArialMT-74" transform="translate(283.416016 0)"/>
      <use xlink:href="#ArialMT-61" transform="translate(311.199219 0)"/>
      <use xlink:href="#ArialMT-67" transform="translate(366.814453 0)"/>
      <use xlink:href="#ArialMT-65" transform="translate(422.429688 0)"/>
      <use xlink:href="#ArialMT-20" transform="translate(478.044922 0)"/>
      <use xlink:href="#ArialMT-48" transform="translate(505.828125 0)"/>
      <use xlink:href="#ArialMT-47" transform="translate(578.044922 0)"/>
      <use xlink:href="#ArialMT-42" transform="translate(655.828125 0)"/>
      <use xlink:href="#ArialMT-20" transform="translate(722.527344 0)"/>
      <use xlink:href="#ArialMT-46" transform="translate(750.310547 0)"/>
      <use xlink:href="#ArialMT-6f" transform="translate(811.394531 0)"/>
      <use xlink:href="#ArialMT-72" transform="translate(867.009766 0)"/>
      <use xlink:href="#ArialMT-65" transform="translate(900.310547 0)"/>
      <use xlink:href="#ArialMT-63" transform="translate(955.925781 0)"/>
      <use xlink:href="#ArialMT-61" transform="translate(1005.925781 0)"/>
      <use xlink:href="#ArialMT-73" transform="translate(1061.541016 0)"/>
      <use xlink:href="#ArialMT-74" transform="translate(1111.541016 0)"/>
      <use xlink:href="#ArialMT-20" transform="translate(1139.324219 0)"/>
      <use xlink:href="#ArialMT-69" transform="translate(1167.107422 0)"/>
      <use xlink:href="#ArialMT-6e" transform="translate(1189.324219 0)"/>
      <use xlink:href="#ArialMT-74" transform="translate(1244.939453 0)"/>
      <use xlink:href="#ArialMT-65" transform="translate(1272.722656 0)"/>
      <use xlink:href="#ArialMT-72" transform="translate(1328.337891 0)"/>
      <use xlink:href="#ArialMT-76" transform="translate(1361.638672 0)"/>
      <use xlink:href="#ArialMT-61" transform="translate(1411.638672 0)"/>
      <use xlink:href="#ArialMT-6c" transform="translate(1467.253906 0)"/>
      <use xlink:href="#ArialMT-20" transform="translate(1489.470703 0)"/>
      <use xlink:href="#ArialMT-77" transform="translate(1517.253906 0)"/>
      <use xlink:href="#ArialMT-69" transform="translate(1589.470703 0)"/>
      <use xlink:href="#ArialMT-64" transform="translate(1611.6875 0)"/>
      <use xlink:href="#ArialMT-74" transform="translate(1667.302734 0)"/>
      <use xlink:href="#ArialMT-68" transform="translate(1695.085938 0)"/>
      <use xlink:href="#ArialMT-20" transform="translate(1750.701172 0)"/>
      <use xlink:href="#ArialMT-37" transform="translate(1778.484375 0)"/>
      <use xlink:href="#ArialMT-64" transform="translate(1834.099609 0)"/>
      <use xlink:href="#ArialMT-20" transform="translate(1889.714844 0)"/>
      <use xlink:href="#ArialMT-6d" transform="translate(1917.498047 0)"/>
      <use xlink:href="#ArialMT-65" transform="translate(2000.798828 0)"/>
      <use xlink:href="#ArialMT-61" transform="translate(2056.414062 0)"/>
      <use xlink:href="#ArialMT-6e" transform="translate(2112.029297 0)"/>
     </g>
    </g>
   </g>
  </g>
 </g>
 <defs>
  <clipPath id="p04836df1be">
   <rect x="62.259531" y="21.789375" width="927.18" height="213.06"/>
  </clipPath>
 </defs>
</svg>
