<?xml version="1.0" encoding="utf-8" standalone="no"?>
<!DOCTYPE svg PUBLIC "-//W3C//DTD SVG 1.1//EN"
  "http://www.w3.org/Graphics/SVG/1.1/DTD/svg11.dtd">
<svg xmlns:xlink="http://www.w3.org/1999/xlink" width="996.677187pt" height="291.051094pt" viewBox="0 0 996.677187 291.051094" xmlns="http://www.w3.org/2000/svg" version="1.1">
 <metadata>
  <rdf:RDF xmlns:dc="http://purl.org/dc/elements/1.1/" xmlns:cc="http://creativecommons.org/ns#" xmlns:rdf="http://www.w3.org/1999/02/22-rdf-syntax-ns#">
   <cc:Work>
    <dc:type rdf:resource="http://purl.org/dc/dcmitype/StillImage"/>
    <dc:date>2026-03-21T00:30:23.114657</dc:date>
    <dc:format>image/svg+xml</dc:format>
    <dc:creator>
     <cc:Agent>
      <dc:title>Matplotlib v3.10.8, https://matplotlib.org/</dc:title>
     </cc:Agent>
    </dc:creator>
   </cc:Work>
  </rdf:RDF>
 </metadata>
 <defs>
  <style type="text/css">*{stroke-linejoin: round; stroke-linecap: butt}</style>
 </defs>
 <g id="figure_1">
  <g id="patch_1">
   <path d="M 0 291.051094 
L 996.677187 291.051094 
L 996.677187 0 
L 0 0 
z
" style="fill: #ffffff"/>
  </g>
  <g id="axes_1">
   <g id="patch_2">
    <path d="M 62.567188 249.316875 
L 989.477188 249.316875 
L 989.477188 21.935625 
L 62.567188 21.935625 
z
" style="fill: #ffffff"/>
   </g>
   <g id="matplotlib.axis_1">
    <g id="xtick_1">
     <g id="line2d_1">
      <path d="M 72.642296 249.316875 
L 72.642296 21.935625 
" clip-path="url(#p4fea3a9927)" style="fill: none; stroke: #cccccc; stroke-linecap: round"/>
     </g>
     <g id="text_1">
      <!-- 2011-06 -->
      <g style="fill: #262626" transform="translate(52.865499 266.690469) scale(0.11 -0.11)">
       <defs>
        <path id="ArialMT-32" d="M 3222 541 
L 3222 0 
L 194 0 
Q 188 203 259 391 
Q 375 700 629 1000 
Q 884 1300 1366 1694 
Q 2113 2306 2375 2664 
Q 2638 3022 2638 3341 
Q 2638 3675 2398 3904 
Q 2159 4134 1775 4134 
Q 1369 4134 1125 3890 
Q 881 3647 878 3216 
L 300 3275 
Q 359 3922 746 4261 
Q 1134 4600 1788 4600 
Q 2447 4600 2831 4234 
Q 3216 3869 3216 3328 
Q 3216 3053 3103 2787 
Q 2991 2522 2730 2228 
Q 2469 1934 1863 1422 
Q 1356 997 1212 845 
Q 1069 694 975 541 
L 3222 541 
z
" transform="scale(0.015625)"/>
        <path id="ArialMT-30" d="M 266 2259 
Q 266 3072 433 3567 
Q 600 4063 929 4331 
Q 1259 4600 1759 4600 
Q 2128 4600 2406 4451 
Q 2684 4303 2865 4023 
Q 3047 3744 3150 3342 
Q 3253 2941 3253 2259 
Q 3253 1453 3087 958 
Q 2922 463 2592 192 
Q 2263 -78 1759 -78 
Q 1097 -78 719 397 
Q 266 969 266 2259 
z
M 844 2259 
Q 844 1131 1108 757 
Q 1372 384 1759 384 
Q 2147 384 2411 759 
Q 2675 1134 2675 2259 
Q 2675 3391 2411 3762 
Q 2147 4134 1753 4134 
Q 1366 4134 1134 3806 
Q 844 3388 844 2259 
z
" transform="scale(0.015625)"/>
        <path id="ArialMT-31" d="M 2384 0 
L 1822 0 
L 1822 3584 
Q 1619 3391 1289 3197 
Q 959 3003 697 2906 
L 697 3450 
Q 1169 3672 1522 3987 
Q 1875 4303 2022 4600 
L 2384 4600 
L 2384 0 
z
" transform="scale(0.015625)"/>
        <path id="ArialMT-2d" d="M 203 1375 
L 203 1941 
L 1931 1941 
L 1931 1375 
L 203 1375 
z
" transform="scale(0.015625)"/>
        <path id="ArialMT-36" d="M 3184 3459 
L 2625 3416 
Q 2550 3747 2413 3897 
Q 2184 4138 1850 4138 
Q 1581 4138 1378 3988 
Q 1113 3794 959 3422 
Q 806 3050 800 2363 
Q 1003 2672 1297 2822 
Q 1591 2972 1913 2972 
Q 2475 2972 2870 2558 
Q 3266 2144 3266 1488 
Q 3266 1056 3080 686 
Q 2894 316 2569 119 
Q 2244 -78 1831 -78 
Q 1128 -78 684 439 
Q 241 956 241 2144 
Q 241 3472 731 4075 
Q 1159 4600 1884 4600 
Q 2425 4600 2770 4297 
Q 3116 3994 3184 3459 
z
M 888 1484 
Q 888 1194 1011 928 
Q 1134 663 1356 523 
Q 1578 384 1822 384 
Q 2178 384 2434 671 
Q 2691 959 2691 1453 
Q 2691 1928 2437 2201 
Q 2184 2475 1800 2475 
Q 1419 2475 1153 2201 
Q 888 1928 888 1484 
z
" transform="scale(0.015625)"/>
       </defs>
       <use xlink:href="#ArialMT-32"/>
       <use xlink:href="#ArialMT-30" transform="translate(55.615234 0)"/>
       <use xlink:href="#ArialMT-31" transform="translate(111.230469 0)"/>
       <use xlink:href="#ArialMT-31" transform="translate(159.470703 0)"/>
       <use xlink:href="#ArialMT-2d" transform="translate(215.085938 0)"/>
       <use xlink:href="#ArialMT-30" transform="translate(248.386719 0)"/>
       <use xlink:href="#ArialMT-36" transform="translate(304.001953 0)"/>
      </g>
     </g>
    </g>
    <g id="xtick_2">
     <g id="line2d_2">
      <path d="M 210.030142 249.316875 
L 210.030142 21.935625 
" clip-path="url(#p4fea3a9927)" style="fill: none; stroke: #cccccc; stroke-linecap: round"/>
     </g>
     <g id="text_2">
      <!-- 2011-07 -->
      <g style="fill: #262626" transform="translate(190.253345 266.690469) scale(0.11 -0.11)">
       <defs>
        <path id="ArialMT-37" d="M 303 3981 
L 303 4522 
L 3269 4522 
L 3269 4084 
Q 2831 3619 2401 2847 
Q 1972 2075 1738 1259 
Q 1569 684 1522 0 
L 944 0 
Q 953 541 1156 1306 
Q 1359 2072 1739 2783 
Q 2119 3494 2547 3981 
L 303 3981 
z
" transform="scale(0.015625)"/>
       </defs>
       <use xlink:href="#ArialMT-32"/>
       <use xlink:href="#ArialMT-30" transform="translate(55.615234 0)"/>
       <use xlink:href="#ArialMT-31" transform="translate(111.230469 0)"/>
       <use xlink:href="#ArialMT-31" transform="translate(159.470703 0)"/>
       <use xlink:href="#ArialMT-2d" transform="translate(215.085938 0)"/>
       <use xlink:href="#ArialMT-30" transform="translate(248.386719 0)"/>
       <use xlink:href="#ArialMT-37" transform="translate(304.001953 0)"/>
      </g>
     </g>
    </g>
    <g id="xtick_3">
     <g id="line2d_3">
      <path d="M 351.997583 249.316875 
L 351.997583 21.935625 
" clip-path="url(#p4fea3a9927)" style="fill: none; stroke: #cccccc; stroke-linecap: round"/>
     </g>
     <g id="text_3">
      <!-- 2011-08 -->
      <g style="fill: #262626" transform="translate(332.220786 266.690469) scale(0.11 -0.11)">
       <defs>
        <path id="ArialMT-38" d="M 1131 2484 
Q 781 2613 612 2850 
Q 444 3088 444 3419 
Q 444 3919 803 4259 
Q 1163 4600 1759 4600 
Q 2359 4600 2725 4251 
Q 3091 3903 3091 3403 
Q 3091 3084 2923 2848 
Q 2756 2613 2416 2484 
Q 2838 2347 3058 2040 
Q 3278 1734 3278 1309 
Q 3278 722 2862 322 
Q 2447 -78 1769 -78 
Q 1091 -78 675 323 
Q 259 725 259 1325 
Q 259 1772 486 2073 
Q 713 2375 1131 2484 
z
M 1019 3438 
Q 1019 3113 1228 2906 
Q 1438 2700 1772 2700 
Q 2097 2700 2305 2904 
Q 2513 3109 2513 3406 
Q 2513 3716 2298 3927 
Q 2084 4138 1766 4138 
Q 1444 4138 1231 3931 
Q 1019 3725 1019 3438 
z
M 838 1322 
Q 838 1081 952 856 
Q 1066 631 1291 507 
Q 1516 384 1775 384 
Q 2178 384 2440 643 
Q 2703 903 2703 1303 
Q 2703 1709 2433 1975 
Q 2163 2241 1756 2241 
Q 1359 2241 1098 1978 
Q 838 1716 838 1322 
z
" transform="scale(0.015625)"/>
       </defs>
       <use xlink:href="#ArialMT-32"/>
       <use xlink:href="#ArialMT-30" transform="translate(55.615234 0)"/>
       <use xlink:href="#ArialMT-31" transform="translate(111.230469 0)"/>
       <use xlink:href="#ArialMT-31" transform="translate(159.470703 0)"/>
       <use xlink:href="#ArialMT-2d" transform="translate(215.085938 0)"/>
       <use xlink:href="#ArialMT-30" transform="translate(248.386719 0)"/>
       <use xlink:href="#ArialMT-38" transform="translate(304.001953 0)"/>
      </g>
     </g>
    </g>
    <g id="xtick_4">
     <g id="line2d_4">
      <path d="M 493.965023 249.316875 
L 493.965023 21.935625 
" clip-path="url(#p4fea3a9927)" style="fill: none; stroke: #cccccc; stroke-linecap: round"/>
     </g>
     <g id="text_4">
      <!-- 2011-09 -->
      <g style="fill: #262626" transform="translate(474.188227 266.690469) scale(0.11 -0.11)">
       <defs>
        <path id="ArialMT-39" d="M 350 1059 
L 891 1109 
Q 959 728 1153 556 
Q 1347 384 1650 384 
Q 1909 384 2104 503 
Q 2300 622 2425 820 
Q 2550 1019 2634 1356 
Q 2719 1694 2719 2044 
Q 2719 2081 2716 2156 
Q 2547 1888 2255 1720 
Q 1963 1553 1622 1553 
Q 1053 1553 659 1965 
Q 266 2378 266 3053 
Q 266 3750 677 4175 
Q 1088 4600 1706 4600 
Q 2153 4600 2523 4359 
Q 2894 4119 3086 3673 
Q 3278 3228 3278 2384 
Q 3278 1506 3087 986 
Q 2897 466 2520 194 
Q 2144 -78 1638 -78 
Q 1100 -78 759 220 
Q 419 519 350 1059 
z
M 2653 3081 
Q 2653 3566 2395 3850 
Q 2138 4134 1775 4134 
Q 1400 4134 1122 3828 
Q 844 3522 844 3034 
Q 844 2597 1108 2323 
Q 1372 2050 1759 2050 
Q 2150 2050 2401 2323 
Q 2653 2597 2653 3081 
z
" transform="scale(0.015625)"/>
       </defs>
       <use xlink:href="#ArialMT-32"/>
       <use xlink:href="#ArialMT-30" transform="translate(55.615234 0)"/>
       <use xlink:href="#ArialMT-31" transform="translate(111.230469 0)"/>
       <use xlink:href="#ArialMT-31" transform="translate(159.470703 0)"/>
       <use xlink:href="#ArialMT-2d" transform="translate(215.085938 0)"/>
       <use xlink:href="#ArialMT-30" transform="translate(248.386719 0)"/>
       <use xlink:href="#ArialMT-39" transform="translate(304.001953 0)"/>
      </g>
     </g>
    </g>
    <g id="xtick_5">
     <g id="line2d_5">
      <path d="M 631.352869 249.316875 
L 631.352869 21.935625 
" clip-path="url(#p4fea3a9927)" style="fill: none; stroke: #cccccc; stroke-linecap: round"/>
     </g>
     <g id="text_5">
      <!-- 2011-10 -->
      <g style="fill: #262626" transform="translate(611.576072 266.690469) scale(0.11 -0.11)">
       <use xlink:href="#ArialMT-32"/>
       <use xlink:href="#ArialMT-30" transform="translate(55.615234 0)"/>
       <use xlink:href="#ArialMT-31" transform="translate(111.230469 0)"/>
       <use xlink:href="#ArialMT-31" transform="translate(159.470703 0)"/>
       <use xlink:href="#ArialMT-2d" transform="translate(215.085938 0)"/>
       <use xlink:href="#ArialMT-31" transform="translate(248.386719 0)"/>
       <use xlink:href="#ArialMT-30" transform="translate(304.001953 0)"/>
      </g>
     </g>
    </g>
    <g id="xtick_6">
     <g id="line2d_6">
      <path d="M 773.32031 249.316875 
L 773.32031 21.935625 
" clip-path="url(#p4fea3a9927)" style="fill: none; stroke: #cccccc; stroke-linecap: round"/>
     </g>
     <g id="text_6">
      <!-- 2011-11 -->
      <g style="fill: #262626" transform="translate(753.949138 266.690469) scale(0.11 -0.11)">
       <use xlink:href="#ArialMT-32"/>
       <use xlink:href="#ArialMT-30" transform="translate(55.615234 0)"/>
       <use xlink:href="#ArialMT-31" transform="translate(111.230469 0)"/>
       <use xlink:href="#ArialMT-31" transform="translate(159.470703 0)"/>
       <use xlink:href="#ArialMT-2d" transform="translate(215.085938 0)"/>
       <use xlink:href="#ArialMT-31" transform="translate(248.386719 0)"/>
       <use xlink:href="#ArialMT-31" transform="translate(296.626953 0)"/>
      </g>
     </g>
    </g>
    <g id="xtick_7">
     <g id="line2d_7">
      <path d="M 910.708156 249.316875 
L 910.708156 21.935625 
" clip-path="url(#p4fea3a9927)" style="fill: none; stroke: #cccccc; stroke-linecap: round"/>
     </g>
     <g id="text_7">
      <!-- 2011-12 -->
      <g style="fill: #262626" transform="translate(890.931359 266.690469) scale(0.11 -0.11)">
       <use xlink:href="#ArialMT-32"/>
       <use xlink:href="#ArialMT-30" transform="translate(55.615234 0)"/>
       <use xlink:href="#ArialMT-31" transform="translate(111.230469 0)"/>
       <use xlink:href="#ArialMT-31" transform="translate(159.470703 0)"/>
       <use xlink:href="#ArialMT-2d" transform="translate(215.085938 0)"/>
       <use xlink:href="#ArialMT-31" transform="translate(248.386719 0)"/>
       <use xlink:href="#ArialMT-32" transform="translate(304.001953 0)"/>
      </g>
     </g>
    </g>
    <g id="text_8">
     <!-- Date -->
     <g style="fill: #262626" transform="translate(513.349062 281.466094) scale(0.12 -0.12)">
      <defs>
       <path id="ArialMT-44" d="M 494 0 
L 494 4581 
L 2072 4581 
Q 2606 4581 2888 4516 
Q 3281 4425 3559 4188 
Q 3922 3881 4101 3404 
Q 4281 2928 4281 2316 
Q 4281 1794 4159 1391 
Q 4038 988 3847 723 
Q 3656 459 3429 307 
Q 3203 156 2883 78 
Q 2563 0 2147 0 
L 494 0 
z
M 1100 541 
L 2078 541 
Q 2531 541 2789 625 
Q 3047 709 3200 863 
Q 3416 1078 3536 1442 
Q 3656 1806 3656 2325 
Q 3656 3044 3420 3430 
Q 3184 3816 2847 3947 
Q 2603 4041 2063 4041 
L 1100 4041 
L 1100 541 
z
" transform="scale(0.015625)"/>
       <path id="ArialMT-61" d="M 2588 409 
Q 2275 144 1986 34 
Q 1697 -75 1366 -75 
Q 819 -75 525 192 
Q 231 459 231 875 
Q 231 1119 342 1320 
Q 453 1522 633 1644 
Q 813 1766 1038 1828 
Q 1203 1872 1538 1913 
Q 2219 1994 2541 2106 
Q 2544 2222 2544 2253 
Q 2544 2597 2384 2738 
Q 2169 2928 1744 2928 
Q 1347 2928 1158 2789 
Q 969 2650 878 2297 
L 328 2372 
Q 403 2725 575 2942 
Q 747 3159 1072 3276 
Q 1397 3394 1825 3394 
Q 2250 3394 2515 3294 
Q 2781 3194 2906 3042 
Q 3031 2891 3081 2659 
Q 3109 2516 3109 2141 
L 3109 1391 
Q 3109 606 3145 398 
Q 3181 191 3288 0 
L 2700 0 
Q 2613 175 2588 409 
z
M 2541 1666 
Q 2234 1541 1622 1453 
Q 1275 1403 1131 1340 
Q 988 1278 909 1158 
Q 831 1038 831 891 
Q 831 666 1001 516 
Q 1172 366 1500 366 
Q 1825 366 2078 508 
Q 2331 650 2450 897 
Q 2541 1088 2541 1459 
L 2541 1666 
z
" transform="scale(0.015625)"/>
       <path id="ArialMT-74" d="M 1650 503 
L 1731 6 
Q 1494 -44 1306 -44 
Q 1000 -44 831 53 
Q 663 150 594 308 
Q 525 466 525 972 
L 525 2881 
L 113 2881 
L 113 3319 
L 525 3319 
L 525 4141 
L 1084 4478 
L 1084 3319 
L 1650 3319 
L 1650 2881 
L 1084 2881 
L 1084 941 
Q 1084 700 1114 631 
Q 1144 563 1211 522 
Q 1278 481 1403 481 
Q 1497 481 1650 503 
z
" transform="scale(0.015625)"/>
       <path id="ArialMT-65" d="M 2694 1069 
L 3275 997 
Q 3138 488 2766 206 
Q 2394 -75 1816 -75 
Q 1088 -75 661 373 
Q 234 822 234 1631 
Q 234 2469 665 2931 
Q 1097 3394 1784 3394 
Q 2450 3394 2872 2941 
Q 3294 2488 3294 1666 
Q 3294 1616 3291 1516 
L 816 1516 
Q 847 969 1125 678 
Q 1403 388 1819 388 
Q 2128 388 2347 550 
Q 2566 713 2694 1069 
z
M 847 1978 
L 2700 1978 
Q 2663 2397 2488 2606 
Q 2219 2931 1791 2931 
Q 1403 2931 1139 2672 
Q 875 2413 847 1978 
z
" transform="scale(0.015625)"/>
      </defs>
      <use xlink:href="#ArialMT-44"/>
      <use xlink:href="#ArialMT-61" transform="translate(72.216797 0)"/>
      <use xlink:href="#ArialMT-74" transform="translate(127.832031 0)"/>
      <use xlink:href="#ArialMT-65" transform="translate(155.615234 0)"/>
     </g>
    </g>
   </g>
   <g id="matplotlib.axis_2">
    <g id="ytick_1">
     <g id="line2d_8">
      <path d="M 62.567188 246.234955 
L 989.477188 246.234955 
" clip-path="url(#p4fea3a9927)" style="fill: none; stroke: #cccccc; stroke-linecap: round"/>
     </g>
     <g id="text_9">
      <!-- −4000 -->
      <g style="fill: #262626" transform="translate(22.174375 250.171752) scale(0.11 -0.11)">
       <defs>
        <path id="ArialMT-2212" d="M 3381 1997 
L 356 1997 
L 356 2522 
L 3381 2522 
L 3381 1997 
z
" transform="scale(0.015625)"/>
        <path id="ArialMT-34" d="M 2069 0 
L 2069 1097 
L 81 1097 
L 81 1613 
L 2172 4581 
L 2631 4581 
L 2631 1613 
L 3250 1613 
L 3250 1097 
L 2631 1097 
L 2631 0 
L 2069 0 
z
M 2069 1613 
L 2069 3678 
L 634 1613 
L 2069 1613 
z
" transform="scale(0.015625)"/>
       </defs>
       <use xlink:href="#ArialMT-2212"/>
       <use xlink:href="#ArialMT-34" transform="translate(58.398438 0)"/>
       <use xlink:href="#ArialMT-30" transform="translate(114.013672 0)"/>
       <use xlink:href="#ArialMT-30" transform="translate(169.628906 0)"/>
       <use xlink:href="#ArialMT-30" transform="translate(225.244141 0)"/>
      </g>
     </g>
    </g>
    <g id="ytick_2">
     <g id="line2d_9">
      <path d="M 62.567188 218.40236 
L 989.477188 218.40236 
" clip-path="url(#p4fea3a9927)" style="fill: none; stroke: #cccccc; stroke-linecap: round"/>
     </g>
     <g id="text_10">
      <!-- −2000 -->
      <g style="fill: #262626" transform="translate(22.174375 222.339157) scale(0.11 -0.11)">
       <use xlink:href="#ArialMT-2212"/>
       <use xlink:href="#ArialMT-32" transform="translate(58.398438 0)"/>
       <use xlink:href="#ArialMT-30" transform="translate(114.013672 0)"/>
       <use xlink:href="#ArialMT-30" transform="translate(169.628906 0)"/>
       <use xlink:href="#ArialMT-30" transform="translate(225.244141 0)"/>
      </g>
     </g>
    </g>
    <g id="ytick_3">
     <g id="line2d_10">
      <path d="M 62.567188 190.569764 
L 989.477188 190.569764 
" clip-path="url(#p4fea3a9927)" style="fill: none; stroke: #cccccc; stroke-linecap: round"/>
     </g>
     <g id="text_11">
      <!-- 0 -->
      <g style="fill: #262626" transform="translate(46.950156 194.506561) scale(0.11 -0.11)">
       <use xlink:href="#ArialMT-30"/>
      </g>
     </g>
    </g>
    <g id="ytick_4">
     <g id="line2d_11">
      <path d="M 62.567188 162.737169 
L 989.477188 162.737169 
" clip-path="url(#p4fea3a9927)" style="fill: none; stroke: #cccccc; stroke-linecap: round"/>
     </g>
     <g id="text_12">
      <!-- 2000 -->
      <g style="fill: #262626" transform="translate(28.599063 166.673966) scale(0.11 -0.11)">
       <use xlink:href="#ArialMT-32"/>
       <use xlink:href="#ArialMT-30" transform="translate(55.615234 0)"/>
       <use xlink:href="#ArialMT-30" transform="translate(111.230469 0)"/>
       <use xlink:href="#ArialMT-30" transform="translate(166.845703 0)"/>
      </g>
     </g>
    </g>
    <g id="ytick_5">
     <g id="line2d_12">
      <path d="M 62.567188 134.904573 
L 989.477188 134.904573 
" clip-path="url(#p4fea3a9927)" style="fill: none; stroke: #cccccc; stroke-linecap: round"/>
     </g>
     <g id="text_13">
      <!-- 4000 -->
      <g style="fill: #262626" transform="translate(28.599063 138.84137) scale(0.11 -0.11)">
       <use xlink:href="#ArialMT-34"/>
       <use xlink:href="#ArialMT-30" transform="translate(55.615234 0)"/>
       <use xlink:href="#ArialMT-30" transform="translate(111.230469 0)"/>
       <use xlink:href="#ArialMT-30" transform="translate(166.845703 0)"/>
      </g>
     </g>
    </g>
    <g id="ytick_6">
     <g id="line2d_13">
      <path d="M 62.567188 107.071978 
L 989.477188 107.071978 
" clip-path="url(#p4fea3a9927)" style="fill: none; stroke: #cccccc; stroke-linecap: round"/>
     </g>
     <g id="text_14">
      <!-- 6000 -->
      <g style="fill: #262626" transform="translate(28.599063 111.008775) scale(0.11 -0.11)">
       <use xlink:href="#ArialMT-36"/>
       <use xlink:href="#ArialMT-30" transform="translate(55.615234 0)"/>
       <use xlink:href="#ArialMT-30" transform="translate(111.230469 0)"/>
       <use xlink:href="#ArialMT-30" transform="translate(166.845703 0)"/>
      </g>
     </g>
    </g>
    <g id="ytick_7">
     <g id="line2d_14">
      <path d="M 62.567188 79.239382 
L 989.477188 79.239382 
" clip-path="url(#p4fea3a9927)" style="fill: none; stroke: #cccccc; stroke-linecap: round"/>
     </g>
     <g id="text_15">
      <!-- 8000 -->
      <g style="fill: #262626" transform="translate(28.599063 83.176179) scale(0.11 -0.11)">
       <use xlink:href="#ArialMT-38"/>
       <use xlink:href="#ArialMT-30" transform="translate(55.615234 0)"/>
       <use xlink:href="#ArialMT-30" transform="translate(111.230469 0)"/>
       <use xlink:href="#ArialMT-30" transform="translate(166.845703 0)"/>
      </g>
     </g>
    </g>
    <g id="ytick_8">
     <g id="line2d_15">
      <path d="M 62.567188 51.406787 
L 989.477188 51.406787 
" clip-path="url(#p4fea3a9927)" style="fill: none; stroke: #cccccc; stroke-linecap: round"/>
     </g>
     <g id="text_16">
      <!-- 10000 -->
      <g style="fill: #262626" transform="translate(22.482031 55.343584) scale(0.11 -0.11)">
       <use xlink:href="#ArialMT-31"/>
       <use xlink:href="#ArialMT-30" transform="translate(55.615234 0)"/>
       <use xlink:href="#ArialMT-30" transform="translate(111.230469 0)"/>
       <use xlink:href="#ArialMT-30" transform="translate(166.845703 0)"/>
       <use xlink:href="#ArialMT-30" transform="translate(222.460938 0)"/>
      </g>
     </g>
    </g>
    <g id="ytick_9">
     <g id="line2d_16">
      <path d="M 62.567188 23.574191 
L 989.477188 23.574191 
" clip-path="url(#p4fea3a9927)" style="fill: none; stroke: #cccccc; stroke-linecap: round"/>
     </g>
     <g id="text_17">
      <!-- 12000 -->
      <g style="fill: #262626" transform="translate(22.482031 27.510988) scale(0.11 -0.11)">
       <use xlink:href="#ArialMT-31"/>
       <use xlink:href="#ArialMT-32" transform="translate(55.615234 0)"/>
       <use xlink:href="#ArialMT-30" transform="translate(111.230469 0)"/>
       <use xlink:href="#ArialMT-30" transform="translate(166.845703 0)"/>
       <use xlink:href="#ArialMT-30" transform="translate(222.460938 0)"/>
      </g>
     </g>
    </g>
    <g id="text_18">
     <!-- Residual -->
     <g style="fill: #262626" transform="translate(15.789375 158.971875) rotate(-90) scale(0.12 -0.12)">
      <defs>
       <path id="ArialMT-52" d="M 503 0 
L 503 4581 
L 2534 4581 
Q 3147 4581 3465 4457 
Q 3784 4334 3975 4021 
Q 4166 3709 4166 3331 
Q 4166 2844 3850 2509 
Q 3534 2175 2875 2084 
Q 3116 1969 3241 1856 
Q 3506 1613 3744 1247 
L 4541 0 
L 3778 0 
L 3172 953 
Q 2906 1366 2734 1584 
Q 2563 1803 2427 1890 
Q 2291 1978 2150 2013 
Q 2047 2034 1813 2034 
L 1109 2034 
L 1109 0 
L 503 0 
z
M 1109 2559 
L 2413 2559 
Q 2828 2559 3062 2645 
Q 3297 2731 3419 2920 
Q 3541 3109 3541 3331 
Q 3541 3656 3305 3865 
Q 3069 4075 2559 4075 
L 1109 4075 
L 1109 2559 
z
" transform="scale(0.015625)"/>
       <path id="ArialMT-73" d="M 197 991 
L 753 1078 
Q 800 744 1014 566 
Q 1228 388 1613 388 
Q 2000 388 2187 545 
Q 2375 703 2375 916 
Q 2375 1106 2209 1216 
Q 2094 1291 1634 1406 
Q 1016 1563 777 1677 
Q 538 1791 414 1992 
Q 291 2194 291 2438 
Q 291 2659 392 2848 
Q 494 3038 669 3163 
Q 800 3259 1026 3326 
Q 1253 3394 1513 3394 
Q 1903 3394 2198 3281 
Q 2494 3169 2634 2976 
Q 2775 2784 2828 2463 
L 2278 2388 
Q 2241 2644 2061 2787 
Q 1881 2931 1553 2931 
Q 1166 2931 1000 2803 
Q 834 2675 834 2503 
Q 834 2394 903 2306 
Q 972 2216 1119 2156 
Q 1203 2125 1616 2013 
Q 2213 1853 2448 1751 
Q 2684 1650 2818 1456 
Q 2953 1263 2953 975 
Q 2953 694 2789 445 
Q 2625 197 2315 61 
Q 2006 -75 1616 -75 
Q 969 -75 630 194 
Q 291 463 197 991 
z
" transform="scale(0.015625)"/>
       <path id="ArialMT-69" d="M 425 3934 
L 425 4581 
L 988 4581 
L 988 3934 
L 425 3934 
z
M 425 0 
L 425 3319 
L 988 3319 
L 988 0 
L 425 0 
z
" transform="scale(0.015625)"/>
       <path id="ArialMT-64" d="M 2575 0 
L 2575 419 
Q 2259 -75 1647 -75 
Q 1250 -75 917 144 
Q 584 363 401 755 
Q 219 1147 219 1656 
Q 219 2153 384 2558 
Q 550 2963 881 3178 
Q 1213 3394 1622 3394 
Q 1922 3394 2156 3267 
Q 2391 3141 2538 2938 
L 2538 4581 
L 3097 4581 
L 3097 0 
L 2575 0 
z
M 797 1656 
Q 797 1019 1065 703 
Q 1334 388 1700 388 
Q 2069 388 2326 689 
Q 2584 991 2584 1609 
Q 2584 2291 2321 2609 
Q 2059 2928 1675 2928 
Q 1300 2928 1048 2622 
Q 797 2316 797 1656 
z
" transform="scale(0.015625)"/>
       <path id="ArialMT-75" d="M 2597 0 
L 2597 488 
Q 2209 -75 1544 -75 
Q 1250 -75 995 37 
Q 741 150 617 320 
Q 494 491 444 738 
Q 409 903 409 1263 
L 409 3319 
L 972 3319 
L 972 1478 
Q 972 1038 1006 884 
Q 1059 663 1231 536 
Q 1403 409 1656 409 
Q 1909 409 2131 539 
Q 2353 669 2445 892 
Q 2538 1116 2538 1541 
L 2538 3319 
L 3100 3319 
L 3100 0 
L 2597 0 
z
" transform="scale(0.015625)"/>
       <path id="ArialMT-6c" d="M 409 0 
L 409 4581 
L 972 4581 
L 972 0 
L 409 0 
z
" transform="scale(0.015625)"/>
      </defs>
      <use xlink:href="#ArialMT-52"/>
      <use xlink:href="#ArialMT-65" transform="translate(72.216797 0)"/>
      <use xlink:href="#ArialMT-73" transform="translate(127.832031 0)"/>
      <use xlink:href="#ArialMT-69" transform="translate(177.832031 0)"/>
      <use xlink:href="#ArialMT-64" transform="translate(200.048828 0)"/>
      <use xlink:href="#ArialMT-75" transform="translate(255.664062 0)"/>
      <use xlink:href="#ArialMT-61" transform="translate(311.279297 0)"/>
      <use xlink:href="#ArialMT-6c" transform="translate(366.894531 0)"/>
     </g>
    </g>
   </g>
   <g id="line2d_17">
    <path d="M 62.567188 190.569764 
L 989.477188 190.569764 
" clip-path="url(#p4fea3a9927)" style="fill: none; stroke-dasharray: 4.44,1.92; stroke-dashoffset: 0; stroke: #000000; stroke-opacity: 0.8; stroke-width: 1.2"/>
   </g>
   <g id="line2d_18">
    <path d="M 104.69946 211.928637 
L 109.279055 157.528578 
L 113.85865 180.768933 
L 118.438245 210.366255 
L 123.01784 196.597053 
L 127.597435 219.693375 
L 132.177029 96.62376 
L 136.756624 203.556453 
L 141.336219 178.785722 
L 145.915814 185.302585 
L 150.495409 210.366255 
L 155.075004 190.303825 
L 159.654599 212.431294 
L 164.234193 173.193179 
L 168.813788 202.182219 
L 173.393383 185.55113 
L 177.972978 174.625862 
L 182.552573 210.366255 
L 187.132168 195.923782 
L 191.711763 224.432431 
L 196.291357 182.846218 
L 200.870952 190.927691 
L 205.450547 178.076269 
L 210.030142 184.699035 
L 214.609737 210.366255 
L 219.189332 197.745565 
L 223.768927 211.000838 
L 228.348521 168.184285 
L 232.928116 196.15841 
L 237.507711 178.560557 
L 242.087306 172.990975 
L 246.666901 210.366255 
L 251.246496 196.233142 
L 255.826091 217.97012 
L 260.405686 181.757268 
L 264.98528 203.925931 
L 269.564875 183.748552 
L 274.14447 171.970215 
L 278.724065 210.366255 
L 283.30366 187.059657 
L 287.883255 221.863065 
L 292.46285 173.823587 
L 297.042444 187.486608 
L 301.622039 181.029865 
L 306.201634 170.222467 
L 310.781229 210.366255 
L 315.360824 177.215825 
L 319.940419 216.662684 
L 324.520014 183.852645 
L 329.099608 212.745106 
L 333.679203 140.449384 
L 338.258798 178.828584 
L 342.838393 210.366255 
L 347.417988 189.14738 
L 351.997583 225.470448 
L 356.577178 173.745099 
L 361.156772 201.078378 
L 365.736367 172.801714 
L 370.315962 179.504916 
L 374.895557 210.366255 
L 379.475152 197.287579 
L 384.054747 221.843165 
L 388.634342 195.077809 
L 393.213937 212.040802 
L 397.793531 167.326625 
L 402.373126 172.562771 
L 406.952721 210.366255 
L 411.532316 203.941518 
L 416.111911 223.019648 
L 420.691506 185.7223 
L 425.271101 210.80921 
L 429.850695 190.589944 
L 434.43029 178.978462 
L 439.009885 210.366255 
L 443.58948 196.771424 
L 448.169075 224.24637 
L 452.74867 187.197566 
L 457.328265 180.166079 
L 461.907859 192.002726 
L 466.487454 181.291908 
L 471.067049 210.366255 
L 475.646644 197.231775 
L 480.226239 238.981364 
L 484.805834 173.418066 
L 489.385429 210.234328 
L 493.965023 181.214673 
L 498.544618 156.02172 
L 503.124213 210.366255 
L 507.703808 195.840841 
L 512.283403 212.418213 
L 516.862998 194.392292 
L 521.442593 210.16419 
L 526.022187 185.922139 
L 530.601782 170.249465 
L 535.181377 210.366255 
L 539.760972 190.433107 
L 544.340567 219.937328 
L 548.920162 180.970023 
L 553.499757 199.267729 
L 558.079352 190.163827 
L 562.658946 169.057116 
L 567.238541 210.366255 
L 571.818136 197.734571 
L 576.397731 225.168464 
L 580.977326 192.176122 
L 585.556921 191.771854 
L 590.136516 173.96122 
L 594.71611 171.463105 
L 599.295705 210.366255 
L 603.8753 180.413233 
L 608.454895 220.729722 
L 613.03449 184.11121 
L 617.614085 200.896214 
L 622.19368 175.428833 
L 626.773274 169.971974 
L 631.352869 210.366255 
L 635.932464 192.986608 
L 640.512059 48.443311 
L 645.091654 170.317236 
L 649.671249 164.555472 
L 654.250844 169.596513 
L 658.830438 154.888934 
L 663.410033 210.366255 
L 667.989628 192.295108 
L 672.569223 195.360868 
L 677.148818 169.923544 
L 681.728413 201.599126 
L 686.308008 189.239506 
L 690.887603 173.279878 
L 695.467197 210.366255 
L 700.046792 181.355784 
L 704.626387 205.956319 
L 709.205982 149.516129 
L 713.785577 191.805671 
L 718.365172 185.556558 
L 722.944767 130.355753 
L 727.524361 210.366255 
L 732.103956 191.17749 
L 736.683551 195.389813 
L 741.263146 175.921469 
L 745.842741 185.327356 
L 750.422336 168.616944 
L 755.001931 165.506234 
L 759.581525 210.366255 
L 764.16112 180.225224 
L 768.740715 188.817842 
L 773.32031 183.02212 
L 777.899905 184.631123 
L 782.4795 172.404126 
L 787.059095 67.904419 
L 791.638689 210.366255 
L 796.218284 182.045198 
L 800.797879 205.62372 
L 805.377474 165.929149 
L 809.957069 184.539276 
L 814.536664 149.999165 
L 819.116259 147.336698 
L 823.695854 210.366255 
L 828.275448 180.772552 
L 832.855043 179.917534 
L 837.434638 156.489725 
L 842.014233 165.497466 
L 846.593828 169.694344 
L 851.173423 170.860112 
L 855.753018 210.366255 
L 860.332612 181.626735 
L 864.912207 208.725384 
L 869.491802 150.593946 
L 874.071397 152.307738 
L 878.650992 164.836025 
L 883.230587 159.225809 
L 887.810182 210.366255 
L 892.389776 185.554749 
L 896.969371 200.224196 
L 901.548966 160.742406 
L 906.128561 192.605718 
L 910.708156 169.282978 
L 915.287751 159.446799 
L 919.867346 210.366255 
L 924.44694 189.307278 
L 929.026535 159.384176 
L 933.60613 154.970343 
L 938.185725 183.562491 
L 942.76532 64.368427 
L 947.344915 158.241648 
L 947.344915 158.241648 
" clip-path="url(#p4fea3a9927)" style="fill: none; stroke: #ff7f0e; stroke-opacity: 0.35; stroke-width: 1.2; stroke-linecap: round"/>
   </g>
   <g id="line2d_19">
    <path d="M 104.69946 193.194013 
L 109.279055 153.614589 
L 113.85865 185.817779 
L 118.438245 190.569764 
L 123.01784 189.400703 
L 127.597435 194.235394 
L 132.177029 95.533108 
L 136.756624 184.380661 
L 141.336219 176.569006 
L 145.915814 193.263629 
L 150.495409 190.569764 
L 155.075004 182.775676 
L 159.654599 181.587531 
L 164.234193 172.614115 
L 168.813788 183.848169 
L 173.393383 184.020271 
L 177.972978 184.352729 
L 182.552573 190.569764 
L 187.132168 190.241084 
L 191.711763 194.880193 
L 196.291357 185.067779 
L 200.870952 175.783549 
L 205.450547 178.348808 
L 210.030142 196.306552 
L 214.609737 190.569764 
L 219.189332 193.352525 
L 223.768927 182.576677 
L 228.348521 172.973705 
L 232.928116 182.671771 
L 237.507711 181.328974 
L 242.087306 186.919309 
L 246.666901 190.569764 
L 251.246496 192.076543 
L 255.826091 189.91469 
L 260.405686 187.097608 
L 264.98528 191.350636 
L 269.564875 188.457582 
L 274.14447 187.532393 
L 278.724065 190.569764 
L 283.30366 184.346806 
L 287.883255 195.137056 
L 292.46285 180.77905 
L 297.042444 176.49462 
L 301.622039 187.207765 
L 306.201634 187.339354 
L 310.781229 190.569764 
L 315.360824 176.591836 
L 319.940419 190.033379 
L 324.520014 191.555187 
L 329.099608 203.410447 
L 333.679203 147.752102 
L 338.258798 197.038457 
L 342.838393 190.569764 
L 347.417988 189.919346 
L 351.997583 200.271901 
L 356.577178 183.100364 
L 361.156772 193.691975 
L 365.736367 182.782744 
L 370.315962 199.756343 
L 374.895557 190.569764 
L 379.475152 199.014464 
L 384.054747 199.633559 
L 388.634342 206.823545 
L 393.213937 205.489242 
L 397.793531 177.577834 
L 402.373126 193.534446 
L 406.952721 190.569764 
L 411.532316 205.841079 
L 416.111911 201.373992 
L 420.691506 198.385609 
L 425.271101 204.870026 
L 429.850695 201.25588 
L 434.43029 200.488108 
L 439.009885 190.569764 
L 443.58948 199.874906 
L 448.169075 202.886898 
L 452.74867 200.149158 
L 457.328265 174.524773 
L 461.907859 203.32948 
L 466.487454 203.443503 
L 471.067049 190.569764 
L 475.646644 201.0831 
L 480.226239 216.989845 
L 484.805834 185.862547 
L 489.385429 204.703512 
L 493.965023 192.665474 
L 498.544618 177.885357 
L 503.124213 190.569764 
L 507.703808 200.201222 
L 512.283403 193.428239 
L 516.862998 208.96319 
L 521.442593 205.731057 
L 526.022187 198.669356 
L 530.601782 193.497707 
L 535.181377 190.569764 
L 539.760972 194.572944 
L 544.340567 200.341003 
L 548.920162 194.290383 
L 553.499757 194.380274 
L 558.079352 202.849724 
L 562.658946 192.399372 
L 567.238541 190.569764 
L 571.818136 202.501229 
L 576.397731 205.364618 
L 580.977326 205.645444 
L 585.556921 187.411792 
L 590.136516 185.254024 
L 594.71611 195.018545 
L 599.295705 190.569764 
L 603.8753 185.622908 
L 608.454895 202.08049 
L 613.03449 198.975304 
L 617.614085 197.9083 
L 622.19368 187.433242 
L 626.773274 192.625653 
L 631.352869 190.569764 
L 635.932464 198.833698 
L 640.512059 32.271136 
L 645.091654 186.772776 
L 649.671249 165.448337 
L 654.250844 185.074765 
L 658.830438 181.492471 
L 663.410033 190.569764 
L 667.989628 198.903117 
L 672.569223 178.754899 
L 677.148818 182.445204 
L 681.728413 200.031596 
L 686.308008 201.882388 
L 690.887603 199.79222 
L 695.467197 190.569764 
L 700.046792 188.01257 
L 704.626387 189.106431 
L 709.205982 161.853679 
L 713.785577 189.340182 
L 718.365172 199.492507 
L 722.944767 156.507324 
L 727.524361 190.569764 
L 732.103956 199.742079 
L 736.683551 177.408693 
L 741.263146 189.073209 
L 745.842741 182.393646 
L 750.422336 182.146966 
L 755.001931 192.098408 
L 759.581525 190.569764 
L 764.16112 186.912238 
L 768.740715 169.361774 
L 773.32031 200.558643 
L 777.899905 182.625331 
L 782.4795 188.294924 
L 787.059095 95.967642 
L 791.638689 190.569764 
L 796.218284 190.712768 
L 800.797879 192.674791 
L 805.377474 182.848741 
L 809.957069 186.349064 
L 814.536664 165.548089 
L 819.116259 174.518983 
L 823.695854 190.569764 
L 828.275448 189.537718 
L 832.855043 167.377027 
L 837.434638 172.148009 
L 842.014233 166.408342 
L 846.593828 184.312481 
L 851.173423 197.755056 
L 855.753018 190.569764 
L 860.332612 191.3925 
L 864.912207 195.242513 
L 869.491802 167.298742 
L 874.071397 154.350954 
L 878.650992 179.590794 
L 883.230587 186.683343 
L 887.810182 190.569764 
L 892.389776 195.733714 
L 896.969371 187.947783 
L 901.548966 176.259741 
L 906.128561 192.129734 
L 910.708156 198.131205 
L 915.287751 190.484224 
L 919.867346 190.569764 
L 924.44694 205.40599 
L 929.026535 161.188756 
L 933.60613 188.838783 
L 938.185725 198.644224 
L 942.76532 98.341773 
L 947.344915 187.285308 
L 947.344915 187.285308 
" clip-path="url(#p4fea3a9927)" style="fill: none; stroke: #2ca02c; stroke-opacity: 0.35; stroke-width: 1.2; stroke-linecap: round"/>
   </g>
   <g id="line2d_20">
    <path d="M 132.177029 181.929513 
L 136.756624 180.733487 
L 141.336219 183.770222 
L 145.915814 184.417886 
L 150.495409 184.417886 
L 155.075004 183.518854 
L 159.654599 182.481413 
L 164.234193 193.419902 
L 168.813788 193.223583 
L 173.393383 194.190069 
L 177.972978 192.664823 
L 182.552573 192.664823 
L 187.132168 193.467674 
L 191.711763 195.182123 
L 196.291357 196.561128 
L 200.870952 194.953339 
L 205.450547 193.885501 
L 210.030142 195.324526 
L 214.609737 195.324526 
L 219.189332 195.584781 
L 223.768927 193.665982 
L 228.348521 191.57142 
L 232.928116 192.318665 
L 237.507711 192.387849 
L 242.087306 190.715269 
L 246.666901 190.715269 
L 251.246496 190.499209 
L 255.826091 191.494821 
L 260.405686 193.433818 
L 264.98528 194.543464 
L 269.564875 195.284606 
L 274.14447 195.138783 
L 278.724065 195.138783 
L 283.30366 193.828285 
L 287.883255 194.384421 
L 292.46285 193.251037 
L 297.042444 190.902563 
L 301.622039 190.514179 
L 306.201634 190.264501 
L 310.781229 190.264501 
L 315.360824 188.858239 
L 319.940419 188.115327 
L 324.520014 189.54805 
L 329.099608 193.156407 
L 333.679203 187.359195 
L 338.258798 188.58864 
L 342.838393 188.58864 
L 347.417988 190.293148 
L 351.997583 191.5514 
L 356.577178 190.107465 
L 361.156772 188.44079 
L 365.736367 193.062551 
L 374.895557 193.15917 
L 379.475152 194.322056 
L 384.054747 193.803872 
L 388.634342 196.851402 
L 393.213937 198.417463 
L 397.793531 197.635307 
L 402.373126 196.643572 
L 406.952721 196.643572 
L 411.532316 197.594135 
L 416.111911 197.762204 
L 420.691506 196.425703 
L 425.271101 196.249761 
L 429.850695 199.573092 
L 434.43029 200.48962 
L 439.009885 200.48962 
L 443.58948 199.46532 
L 452.74867 199.851319 
L 457.328265 195.473729 
L 461.907859 195.675555 
L 466.487454 196.006047 
L 475.646644 196.071811 
L 480.226239 198.17681 
L 484.805834 196.20831 
L 489.385429 200.503774 
L 493.965023 198.962624 
L 498.544618 195.352597 
L 503.124213 195.352597 
L 507.703808 195.153892 
L 512.283403 191.359157 
L 516.862998 194.355475 
L 521.442593 194.345455 
L 526.022187 195.01795 
L 530.601782 197.050485 
L 535.181377 197.050485 
L 539.760972 196.277951 
L 544.340567 197.352111 
L 548.920162 195.434644 
L 553.499757 193.878006 
L 558.079352 194.483962 
L 562.658946 194.313626 
L 567.238541 194.313626 
L 571.818136 195.356693 
L 576.397731 196.103998 
L 580.977326 197.704869 
L 585.556921 196.63403 
L 590.136516 194.319372 
L 594.71611 194.663084 
L 599.295705 194.663084 
L 603.8753 192.188608 
L 608.454895 191.554502 
L 613.03449 190.402371 
L 617.614085 191.705851 
L 622.19368 191.91551 
L 626.773274 191.702491 
L 631.352869 191.702491 
L 635.932464 193.498688 
L 640.512059 168.886344 
L 645.091654 166.915776 
L 649.671249 161.724241 
L 654.250844 160.891053 
L 658.830438 158.736333 
L 667.989628 158.637547 
L 672.569223 179.625769 
L 677.148818 179.569528 
L 681.728413 184.861478 
L 686.308008 187.66762 
L 690.887603 190.294898 
L 695.467197 190.294898 
L 700.046792 188.732137 
L 704.626387 190.245773 
L 709.205982 187.330428 
L 713.785577 185.931363 
L 718.365172 185.405228 
L 722.944767 179.27321 
L 727.524361 179.27321 
L 732.103956 180.676311 
L 736.683551 179.16681 
L 741.263146 182.939001 
L 745.842741 182.013528 
L 750.422336 179.593583 
L 755.001931 184.61508 
L 759.581525 184.61508 
L 764.16112 183.050471 
L 768.740715 182.111618 
L 773.32031 183.125996 
L 777.899905 183.026535 
L 782.4795 183.567561 
L 787.059095 169.624444 
L 791.638689 169.624444 
L 796.218284 169.88444 
L 800.797879 172.28528 
L 805.377474 169.843427 
L 809.957069 169.830306 
L 814.536664 166.629597 
L 819.116259 177.977066 
L 823.695854 177.977066 
L 828.275448 177.795259 
L 832.855043 174.122947 
L 837.434638 172.774458 
L 842.014233 170.054199 
L 846.593828 172.867796 
L 851.173423 176.228284 
L 855.753018 176.228284 
L 860.332612 176.35031 
L 864.912207 180.465717 
L 869.491802 179.623463 
L 874.071397 177.739216 
L 878.650992 177.045171 
L 883.230587 175.383127 
L 887.810182 175.383127 
L 892.389776 175.944272 
L 896.969371 174.729817 
L 901.548966 176.179597 
L 906.128561 181.936451 
L 910.708156 182.57173 
L 919.867346 182.6033 
L 924.44694 183.139376 
L 929.026535 177.305087 
L 933.60613 176.480507 
L 938.185725 175.188617 
L 942.76532 160.200824 
L 947.344915 160.02866 
L 947.344915 160.02866 
" clip-path="url(#p4fea3a9927)" style="fill: none; stroke: #ff7f0e; stroke-width: 2; stroke-linecap: round"/>
   </g>
   <g id="line2d_21">
    <path d="M 132.177029 171.766479 
L 136.756624 170.507428 
L 141.336219 173.786631 
L 145.915814 174.850324 
L 150.495409 174.850324 
L 155.075004 173.903891 
L 159.654599 172.097054 
L 164.234193 183.108626 
L 168.813788 183.032556 
L 173.393383 184.097022 
L 177.972978 182.824036 
L 182.552573 182.824036 
L 187.132168 183.890523 
L 196.291357 187.56857 
L 200.870952 186.416481 
L 205.450547 185.606272 
L 210.030142 187.313961 
L 214.609737 187.313961 
L 219.189332 187.758453 
L 228.348521 184.273083 
L 232.928116 185.257115 
L 237.507711 185.682853 
L 242.087306 184.341818 
L 246.666901 184.341818 
L 251.246496 184.159535 
L 255.826091 185.207822 
L 260.405686 187.225523 
L 264.98528 188.465361 
L 269.564875 189.483733 
L 278.724065 189.571317 
L 283.30366 188.467069 
L 287.883255 189.213121 
L 292.46285 188.31047 
L 297.042444 186.188182 
L 301.622039 186.009637 
L 310.781229 185.982059 
L 315.360824 184.874206 
L 319.940419 184.14511 
L 324.520014 185.684558 
L 329.099608 189.529676 
L 333.679203 183.893153 
L 338.258798 185.278739 
L 342.838393 185.278739 
L 347.417988 187.182669 
L 351.997583 188.645315 
L 356.577178 187.437483 
L 361.156772 186.04913 
L 365.736367 191.053507 
L 370.315962 191.441777 
L 374.895557 191.441777 
L 379.475152 192.741079 
L 384.054747 192.649888 
L 388.634342 196.038914 
L 393.213937 197.724237 
L 397.793531 196.980679 
L 402.373126 196.091836 
L 406.952721 196.091836 
L 411.532316 197.067067 
L 416.111911 197.3157 
L 420.691506 196.110281 
L 425.271101 196.021821 
L 429.850695 199.4044 
L 434.43029 200.39778 
L 439.009885 200.39778 
L 443.58948 199.545469 
L 452.74867 200.013535 
L 457.328265 195.678498 
L 461.907859 195.974727 
L 466.487454 196.396926 
L 471.067049 196.396926 
L 475.646644 196.569525 
L 480.226239 198.584232 
L 484.805834 196.543288 
L 489.385429 200.854536 
L 493.965023 199.331106 
L 498.544618 195.679943 
L 503.124213 195.679943 
L 507.703808 195.55396 
L 512.283403 192.188016 
L 516.862998 195.488108 
L 521.442593 195.6349 
L 526.022187 196.492598 
L 530.601782 198.722933 
L 535.181377 198.722933 
L 539.760972 197.918894 
L 544.340567 198.906431 
L 548.920162 196.810316 
L 553.499757 195.188776 
L 558.079352 195.785971 
L 562.658946 195.629066 
L 567.238541 195.629066 
L 571.818136 196.761679 
L 576.397731 197.479338 
L 580.977326 199.101489 
L 585.556921 198.105992 
L 590.136516 195.59232 
L 594.71611 195.966488 
L 599.295705 195.966488 
L 603.8753 193.555299 
L 608.454895 193.086138 
L 613.03449 192.133261 
L 617.614085 193.632762 
L 622.19368 193.944079 
L 626.773274 193.602237 
L 631.352869 193.602237 
L 635.932464 195.489493 
L 640.512059 171.231014 
L 645.091654 169.487796 
L 649.671249 164.850658 
L 654.250844 164.513733 
L 658.830438 162.923278 
L 667.989628 162.933195 
L 672.569223 183.859447 
L 677.148818 183.241222 
L 681.728413 188.181688 
L 686.308008 190.582777 
L 690.887603 193.197027 
L 695.467197 193.197027 
L 700.046792 191.641234 
L 704.626387 193.120025 
L 709.205982 190.178378 
L 713.785577 188.651034 
L 718.365172 188.309622 
L 722.944767 182.126065 
L 727.524361 182.126065 
L 732.103956 183.80171 
L 736.683551 182.130604 
L 741.263146 186.019108 
L 745.842741 185.026746 
L 750.422336 182.548812 
L 755.001931 187.633252 
L 759.581525 187.633252 
L 764.16112 185.800418 
L 768.740715 184.650858 
L 773.32031 186.291634 
L 777.899905 186.324732 
L 782.4795 187.203012 
L 787.059095 173.470045 
L 791.638689 173.470045 
L 796.218284 174.012978 
L 800.797879 177.343409 
L 805.377474 174.813423 
L 809.957069 175.345385 
L 814.536664 172.095837 
L 819.116259 183.317457 
L 823.695854 183.317457 
L 828.275448 183.149593 
L 832.855043 179.535627 
L 837.434638 178.006951 
L 842.014233 175.158276 
L 846.593828 177.838904 
L 851.173423 181.158342 
L 855.753018 181.158342 
L 860.332612 181.423311 
L 864.912207 185.404095 
L 869.491802 184.711343 
L 874.071397 182.988859 
L 878.650992 182.314332 
L 883.230587 180.732659 
L 887.810182 180.732659 
L 892.389776 181.352832 
L 896.969371 180.310728 
L 901.548966 181.59087 
L 906.128561 186.987839 
L 910.708156 189.636469 
L 915.287751 190.179452 
L 919.867346 190.179452 
L 924.44694 191.561206 
L 929.026535 187.738488 
L 933.60613 189.535494 
L 938.185725 190.466135 
L 942.76532 176.210502 
L 947.344915 175.753514 
L 947.344915 175.753514 
" clip-path="url(#p4fea3a9927)" style="fill: none; stroke: #2ca02c; stroke-width: 2; stroke-linecap: round"/>
   </g>
   <g id="patch_3">
    <path d="M 62.567188 249.316875 
L 62.567188 21.935625 
" style="fill: none; stroke: #cccccc; stroke-width: 1.25; stroke-linejoin: miter; stroke-linecap: square"/>
   </g>
   <g id="patch_4">
    <path d="M 989.477188 249.316875 
L 989.477188 21.935625 
" style="fill: none; stroke: #cccccc; stroke-width: 1.25; stroke-linejoin: miter; stroke-linecap: square"/>
   </g>
   <g id="patch_5">
    <path d="M 62.567187 249.316875 
L 989.477187 249.316875 
" style="fill: none; stroke: #cccccc; stroke-width: 1.25; stroke-linejoin: miter; stroke-linecap: square"/>
   </g>
   <g id="patch_6">
    <path d="M 62.567187 21.935625 
L 989.477187 21.935625 
" style="fill: none; stroke: #cccccc; stroke-width: 1.25; stroke-linejoin: miter; stroke-linecap: square"/>
   </g>
   <g id="text_19">
    <!-- Cluster 3: Residual Trend (Actual Minus Forecast) -->
    <g style="fill: #262626" transform="translate(384.003125 15.935625) scale(0.12 -0.12)">
     <defs>
      <path id="Arial-BoldMT-43" d="M 3397 1684 
L 4294 1400 
Q 4088 650 3608 286 
Q 3128 -78 2391 -78 
Q 1478 -78 890 545 
Q 303 1169 303 2250 
Q 303 3394 893 4026 
Q 1484 4659 2447 4659 
Q 3288 4659 3813 4163 
Q 4125 3869 4281 3319 
L 3366 3100 
Q 3284 3456 3026 3662 
Q 2769 3869 2400 3869 
Q 1891 3869 1573 3503 
Q 1256 3138 1256 2319 
Q 1256 1450 1568 1081 
Q 1881 713 2381 713 
Q 2750 713 3015 947 
Q 3281 1181 3397 1684 
z
" transform="scale(0.015625)"/>
      <path id="Arial-BoldMT-6c" d="M 459 0 
L 459 4581 
L 1338 4581 
L 1338 0 
L 459 0 
z
" transform="scale(0.015625)"/>
      <path id="Arial-BoldMT-75" d="M 2644 0 
L 2644 497 
Q 2463 231 2167 78 
Q 1872 -75 1544 -75 
Q 1209 -75 943 72 
Q 678 219 559 484 
Q 441 750 441 1219 
L 441 3319 
L 1319 3319 
L 1319 1794 
Q 1319 1094 1367 936 
Q 1416 778 1544 686 
Q 1672 594 1869 594 
Q 2094 594 2272 717 
Q 2450 841 2515 1023 
Q 2581 1206 2581 1919 
L 2581 3319 
L 3459 3319 
L 3459 0 
L 2644 0 
z
" transform="scale(0.015625)"/>
      <path id="Arial-BoldMT-73" d="M 150 947 
L 1031 1081 
Q 1088 825 1259 692 
Q 1431 559 1741 559 
Q 2081 559 2253 684 
Q 2369 772 2369 919 
Q 2369 1019 2306 1084 
Q 2241 1147 2013 1200 
Q 950 1434 666 1628 
Q 272 1897 272 2375 
Q 272 2806 612 3100 
Q 953 3394 1669 3394 
Q 2350 3394 2681 3172 
Q 3013 2950 3138 2516 
L 2309 2363 
Q 2256 2556 2107 2659 
Q 1959 2763 1684 2763 
Q 1338 2763 1188 2666 
Q 1088 2597 1088 2488 
Q 1088 2394 1175 2328 
Q 1294 2241 1995 2081 
Q 2697 1922 2975 1691 
Q 3250 1456 3250 1038 
Q 3250 581 2869 253 
Q 2488 -75 1741 -75 
Q 1063 -75 667 200 
Q 272 475 150 947 
z
" transform="scale(0.015625)"/>
      <path id="Arial-BoldMT-74" d="M 1981 3319 
L 1981 2619 
L 1381 2619 
L 1381 1281 
Q 1381 875 1398 808 
Q 1416 741 1477 697 
Q 1538 653 1625 653 
Q 1747 653 1978 738 
L 2053 56 
Q 1747 -75 1359 -75 
Q 1122 -75 931 4 
Q 741 84 652 211 
Q 563 338 528 553 
Q 500 706 500 1172 
L 500 2619 
L 97 2619 
L 97 3319 
L 500 3319 
L 500 3978 
L 1381 4491 
L 1381 3319 
L 1981 3319 
z
" transform="scale(0.015625)"/>
      <path id="Arial-BoldMT-65" d="M 2381 1056 
L 3256 909 
Q 3088 428 2723 176 
Q 2359 -75 1813 -75 
Q 947 -75 531 491 
Q 203 944 203 1634 
Q 203 2459 634 2926 
Q 1066 3394 1725 3394 
Q 2466 3394 2894 2905 
Q 3322 2416 3303 1406 
L 1103 1406 
Q 1113 1016 1316 798 
Q 1519 581 1822 581 
Q 2028 581 2168 693 
Q 2309 806 2381 1056 
z
M 2431 1944 
Q 2422 2325 2234 2523 
Q 2047 2722 1778 2722 
Q 1491 2722 1303 2513 
Q 1116 2303 1119 1944 
L 2431 1944 
z
" transform="scale(0.015625)"/>
      <path id="Arial-BoldMT-72" d="M 1300 0 
L 422 0 
L 422 3319 
L 1238 3319 
L 1238 2847 
Q 1447 3181 1614 3287 
Q 1781 3394 1994 3394 
Q 2294 3394 2572 3228 
L 2300 2463 
Q 2078 2606 1888 2606 
Q 1703 2606 1575 2504 
Q 1447 2403 1373 2137 
Q 1300 1872 1300 1025 
L 1300 0 
z
" transform="scale(0.015625)"/>
      <path id="Arial-BoldMT-20" transform="scale(0.015625)"/>
      <path id="Arial-BoldMT-33" d="M 241 1216 
L 1091 1319 
Q 1131 994 1309 822 
Q 1488 650 1741 650 
Q 2013 650 2198 856 
Q 2384 1063 2384 1413 
Q 2384 1744 2206 1937 
Q 2028 2131 1772 2131 
Q 1603 2131 1369 2066 
L 1466 2781 
Q 1822 2772 2009 2936 
Q 2197 3100 2197 3372 
Q 2197 3603 2059 3740 
Q 1922 3878 1694 3878 
Q 1469 3878 1309 3722 
Q 1150 3566 1116 3266 
L 306 3403 
Q 391 3819 561 4067 
Q 731 4316 1036 4458 
Q 1341 4600 1719 4600 
Q 2366 4600 2756 4188 
Q 3078 3850 3078 3425 
Q 3078 2822 2419 2463 
Q 2813 2378 3048 2084 
Q 3284 1791 3284 1375 
Q 3284 772 2843 347 
Q 2403 -78 1747 -78 
Q 1125 -78 715 280 
Q 306 638 241 1216 
z
" transform="scale(0.015625)"/>
      <path id="Arial-BoldMT-3a" d="M 628 2441 
L 628 3319 
L 1506 3319 
L 1506 2441 
L 628 2441 
z
M 628 0 
L 628 878 
L 1506 878 
L 1506 0 
L 628 0 
z
" transform="scale(0.015625)"/>
      <path id="Arial-BoldMT-52" d="M 469 0 
L 469 4581 
L 2416 4581 
Q 3150 4581 3483 4457 
Q 3816 4334 4016 4018 
Q 4216 3703 4216 3297 
Q 4216 2781 3912 2445 
Q 3609 2109 3006 2022 
Q 3306 1847 3501 1637 
Q 3697 1428 4028 894 
L 4588 0 
L 3481 0 
L 2813 997 
Q 2456 1531 2325 1670 
Q 2194 1809 2047 1861 
Q 1900 1913 1581 1913 
L 1394 1913 
L 1394 0 
L 469 0 
z
M 1394 2644 
L 2078 2644 
Q 2744 2644 2909 2700 
Q 3075 2756 3169 2893 
Q 3263 3031 3263 3238 
Q 3263 3469 3139 3611 
Q 3016 3753 2791 3791 
Q 2678 3806 2116 3806 
L 1394 3806 
L 1394 2644 
z
" transform="scale(0.015625)"/>
      <path id="Arial-BoldMT-69" d="M 459 3769 
L 459 4581 
L 1338 4581 
L 1338 3769 
L 459 3769 
z
M 459 0 
L 459 3319 
L 1338 3319 
L 1338 0 
L 459 0 
z
" transform="scale(0.015625)"/>
      <path id="Arial-BoldMT-64" d="M 3503 0 
L 2688 0 
L 2688 488 
Q 2484 203 2207 64 
Q 1931 -75 1650 -75 
Q 1078 -75 670 386 
Q 263 847 263 1672 
Q 263 2516 659 2955 
Q 1056 3394 1663 3394 
Q 2219 3394 2625 2931 
L 2625 4581 
L 3503 4581 
L 3503 0 
z
M 1159 1731 
Q 1159 1200 1306 963 
Q 1519 619 1900 619 
Q 2203 619 2415 876 
Q 2628 1134 2628 1647 
Q 2628 2219 2422 2470 
Q 2216 2722 1894 2722 
Q 1581 2722 1370 2473 
Q 1159 2225 1159 1731 
z
" transform="scale(0.015625)"/>
      <path id="Arial-BoldMT-61" d="M 1116 2306 
L 319 2450 
Q 453 2931 781 3162 
Q 1109 3394 1756 3394 
Q 2344 3394 2631 3255 
Q 2919 3116 3036 2902 
Q 3153 2688 3153 2116 
L 3144 1091 
Q 3144 653 3186 445 
Q 3228 238 3344 0 
L 2475 0 
Q 2441 88 2391 259 
Q 2369 338 2359 363 
Q 2134 144 1878 34 
Q 1622 -75 1331 -75 
Q 819 -75 523 203 
Q 228 481 228 906 
Q 228 1188 362 1408 
Q 497 1628 739 1745 
Q 981 1863 1438 1950 
Q 2053 2066 2291 2166 
L 2291 2253 
Q 2291 2506 2166 2614 
Q 2041 2722 1694 2722 
Q 1459 2722 1328 2630 
Q 1197 2538 1116 2306 
z
M 2291 1594 
Q 2122 1538 1756 1459 
Q 1391 1381 1278 1306 
Q 1106 1184 1106 997 
Q 1106 813 1243 678 
Q 1381 544 1594 544 
Q 1831 544 2047 700 
Q 2206 819 2256 991 
Q 2291 1103 2291 1419 
L 2291 1594 
z
" transform="scale(0.015625)"/>
      <path id="Arial-BoldMT-54" d="M 1497 0 
L 1497 3806 
L 138 3806 
L 138 4581 
L 3778 4581 
L 3778 3806 
L 2422 3806 
L 2422 0 
L 1497 0 
z
" transform="scale(0.015625)"/>
      <path id="Arial-BoldMT-6e" d="M 3478 0 
L 2600 0 
L 2600 1694 
Q 2600 2231 2544 2389 
Q 2488 2547 2361 2634 
Q 2234 2722 2056 2722 
Q 1828 2722 1647 2597 
Q 1466 2472 1398 2265 
Q 1331 2059 1331 1503 
L 1331 0 
L 453 0 
L 453 3319 
L 1269 3319 
L 1269 2831 
Q 1703 3394 2363 3394 
Q 2653 3394 2893 3289 
Q 3134 3184 3257 3021 
Q 3381 2859 3429 2653 
Q 3478 2447 3478 2063 
L 3478 0 
z
" transform="scale(0.015625)"/>
      <path id="Arial-BoldMT-28" d="M 1916 -1347 
L 1313 -1347 
Q 834 -625 584 153 
Q 334 931 334 1659 
Q 334 2563 644 3369 
Q 913 4069 1325 4659 
L 1925 4659 
Q 1497 3713 1336 3048 
Q 1175 2384 1175 1641 
Q 1175 1128 1270 590 
Q 1366 53 1531 -431 
Q 1641 -750 1916 -1347 
z
" transform="scale(0.015625)"/>
      <path id="Arial-BoldMT-41" d="M 4597 0 
L 3591 0 
L 3191 1041 
L 1359 1041 
L 981 0 
L 0 0 
L 1784 4581 
L 2763 4581 
L 4597 0 
z
M 2894 1813 
L 2263 3513 
L 1644 1813 
L 2894 1813 
z
" transform="scale(0.015625)"/>
      <path id="Arial-BoldMT-63" d="M 3353 2338 
L 2488 2181 
Q 2444 2441 2289 2572 
Q 2134 2703 1888 2703 
Q 1559 2703 1364 2476 
Q 1169 2250 1169 1719 
Q 1169 1128 1367 884 
Q 1566 641 1900 641 
Q 2150 641 2309 783 
Q 2469 925 2534 1272 
L 3397 1125 
Q 3263 531 2881 228 
Q 2500 -75 1859 -75 
Q 1131 -75 698 384 
Q 266 844 266 1656 
Q 266 2478 700 2936 
Q 1134 3394 1875 3394 
Q 2481 3394 2839 3133 
Q 3197 2872 3353 2338 
z
" transform="scale(0.015625)"/>
      <path id="Arial-BoldMT-4d" d="M 453 0 
L 453 4581 
L 1838 4581 
L 2669 1456 
L 3491 4581 
L 4878 4581 
L 4878 0 
L 4019 0 
L 4019 3606 
L 3109 0 
L 2219 0 
L 1313 3606 
L 1313 0 
L 453 0 
z
" transform="scale(0.015625)"/>
      <path id="Arial-BoldMT-46" d="M 472 0 
L 472 4581 
L 3613 4581 
L 3613 3806 
L 1397 3806 
L 1397 2722 
L 3309 2722 
L 3309 1947 
L 1397 1947 
L 1397 0 
L 472 0 
z
" transform="scale(0.015625)"/>
      <path id="Arial-BoldMT-6f" d="M 256 1706 
Q 256 2144 472 2553 
Q 688 2963 1083 3178 
Q 1478 3394 1966 3394 
Q 2719 3394 3200 2905 
Q 3681 2416 3681 1669 
Q 3681 916 3195 420 
Q 2709 -75 1972 -75 
Q 1516 -75 1102 131 
Q 688 338 472 736 
Q 256 1134 256 1706 
z
M 1156 1659 
Q 1156 1166 1390 903 
Q 1625 641 1969 641 
Q 2313 641 2545 903 
Q 2778 1166 2778 1666 
Q 2778 2153 2545 2415 
Q 2313 2678 1969 2678 
Q 1625 2678 1390 2415 
Q 1156 2153 1156 1659 
z
" transform="scale(0.015625)"/>
      <path id="Arial-BoldMT-29" d="M 216 -1347 
Q 475 -791 581 -494 
Q 688 -197 778 190 
Q 869 578 912 926 
Q 956 1275 956 1641 
Q 956 2384 797 3048 
Q 638 3713 209 4659 
L 806 4659 
Q 1278 3988 1539 3234 
Q 1800 2481 1800 1706 
Q 1800 1053 1594 306 
Q 1359 -531 822 -1347 
L 216 -1347 
z
" transform="scale(0.015625)"/>
     </defs>
     <use xlink:href="#Arial-BoldMT-43"/>
     <use xlink:href="#Arial-BoldMT-6c" transform="translate(72.216797 0)"/>
     <use xlink:href="#Arial-BoldMT-75" transform="translate(100 0)"/>
     <use xlink:href="#Arial-BoldMT-73" transform="translate(161.083984 0)"/>
     <use xlink:href="#Arial-BoldMT-74" transform="translate(216.699219 0)"/>
     <use xlink:href="#Arial-BoldMT-65" transform="translate(250 0)"/>
     <use xlink:href="#Arial-BoldMT-72" transform="translate(305.615234 0)"/>
     <use xlink:href="#Arial-BoldMT-20" transform="translate(344.53125 0)"/>
     <use xlink:href="#Arial-BoldMT-33" transform="translate(372.314453 0)"/>
     <use xlink:href="#Arial-BoldMT-3a" transform="translate(427.929688 0)"/>
     <use xlink:href="#Arial-BoldMT-20" transform="translate(461.230469 0)"/>
     <use xlink:href="#Arial-BoldMT-52" transform="translate(489.013672 0)"/>
     <use xlink:href="#Arial-BoldMT-65" transform="translate(561.230469 0)"/>
     <use xlink:href="#Arial-BoldMT-73" transform="translate(616.845703 0)"/>
     <use xlink:href="#Arial-BoldMT-69" transform="translate(672.460938 0)"/>
     <use xlink:href="#Arial-BoldMT-64" transform="translate(700.244141 0)"/>
     <use xlink:href="#Arial-BoldMT-75" transform="translate(761.328125 0)"/>
     <use xlink:href="#Arial-BoldMT-61" transform="translate(822.412109 0)"/>
     <use xlink:href="#Arial-BoldMT-6c" transform="translate(878.027344 0)"/>
     <use xlink:href="#Arial-BoldMT-20" transform="translate(905.810547 0)"/>
     <use xlink:href="#Arial-BoldMT-54" transform="translate(933.59375 0)"/>
     <use xlink:href="#Arial-BoldMT-72" transform="translate(989.177734 0)"/>
     <use xlink:href="#Arial-BoldMT-65" transform="translate(1028.09375 0)"/>
     <use xlink:href="#Arial-BoldMT-6e" transform="translate(1083.708984 0)"/>
     <use xlink:href="#Arial-BoldMT-64" transform="translate(1144.792969 0)"/>
     <use xlink:href="#Arial-BoldMT-20" transform="translate(1205.876953 0)"/>
     <use xlink:href="#Arial-BoldMT-28" transform="translate(1233.660156 0)"/>
     <use xlink:href="#Arial-BoldMT-41" transform="translate(1266.960938 0)"/>
     <use xlink:href="#Arial-BoldMT-63" transform="translate(1339.177734 0)"/>
     <use xlink:href="#Arial-BoldMT-74" transform="translate(1394.792969 0)"/>
     <use xlink:href="#Arial-BoldMT-75" transform="translate(1428.09375 0)"/>
     <use xlink:href="#Arial-BoldMT-61" transform="translate(1489.177734 0)"/>
     <use xlink:href="#Arial-BoldMT-6c" transform="translate(1544.792969 0)"/>
     <use xlink:href="#Arial-BoldMT-20" transform="translate(1572.576172 0)"/>
     <use xlink:href="#Arial-BoldMT-4d" transform="translate(1600.359375 0)"/>
     <use xlink:href="#Arial-BoldMT-69" transform="translate(1683.660156 0)"/>
     <use xlink:href="#Arial-BoldMT-6e" transform="translate(1711.443359 0)"/>
     <use xlink:href="#Arial-BoldMT-75" transform="translate(1772.527344 0)"/>
     <use xlink:href="#Arial-BoldMT-73" transform="translate(1833.611328 0)"/>
     <use xlink:href="#Arial-BoldMT-20" transform="translate(1889.226562 0)"/>
     <use xlink:href="#Arial-BoldMT-46" transform="translate(1917.009766 0)"/>
     <use xlink:href="#Arial-BoldMT-6f" transform="translate(1978.09375 0)"/>
     <use xlink:href="#Arial-BoldMT-72" transform="translate(2039.177734 0)"/>
     <use xlink:href="#Arial-BoldMT-65" transform="translate(2078.09375 0)"/>
     <use xlink:href="#Arial-BoldMT-63" transform="translate(2133.708984 0)"/>
     <use xlink:href="#Arial-BoldMT-61" transform="translate(2189.324219 0)"/>
     <use xlink:href="#Arial-BoldMT-73" transform="translate(2244.939453 0)"/>
     <use xlink:href="#Arial-BoldMT-74" transform="translate(2300.554688 0)"/>
     <use xlink:href="#Arial-BoldMT-29" transform="translate(2333.855469 0)"/>
    </g>
   </g>
   <g id="legend_1">
    <g id="patch_7">
     <path d="M 704.224688 51.253125 
L 983.877188 51.253125 
Q 985.477188 51.253125 985.477188 49.653125 
L 985.477188 27.535625 
Q 985.477188 25.935625 983.877188 25.935625 
L 704.224688 25.935625 
Q 702.624688 25.935625 702.624688 27.535625 
L 702.624688 49.653125 
Q 702.624688 51.253125 704.224688 51.253125 
z
" style="fill: #ffffff; opacity: 0.8; stroke: #cccccc; stroke-linejoin: miter"/>
    </g>
    <g id="line2d_22">
     <path d="M 705.824688 32.061875 
L 713.824688 32.061875 
L 721.824688 32.061875 
" style="fill: none; stroke: #ff7f0e; stroke-opacity: 0.35; stroke-width: 1.2; stroke-linecap: round"/>
    </g>
    <g id="text_20">
     <!-- Naive 7-Day Baseline residual -->
     <g style="fill: #262626" transform="translate(728.224688 34.861875) scale(0.08 -0.08)">
      <defs>
       <path id="ArialMT-4e" d="M 488 0 
L 488 4581 
L 1109 4581 
L 3516 984 
L 3516 4581 
L 4097 4581 
L 4097 0 
L 3475 0 
L 1069 3600 
L 1069 0 
L 488 0 
z
" transform="scale(0.015625)"/>
       <path id="ArialMT-76" d="M 1344 0 
L 81 3319 
L 675 3319 
L 1388 1331 
Q 1503 1009 1600 663 
Q 1675 925 1809 1294 
L 2547 3319 
L 3125 3319 
L 1869 0 
L 1344 0 
z
" transform="scale(0.015625)"/>
       <path id="ArialMT-20" transform="scale(0.015625)"/>
       <path id="ArialMT-79" d="M 397 -1278 
L 334 -750 
Q 519 -800 656 -800 
Q 844 -800 956 -737 
Q 1069 -675 1141 -563 
Q 1194 -478 1313 -144 
Q 1328 -97 1363 -6 
L 103 3319 
L 709 3319 
L 1400 1397 
Q 1534 1031 1641 628 
Q 1738 1016 1872 1384 
L 2581 3319 
L 3144 3319 
L 1881 -56 
Q 1678 -603 1566 -809 
Q 1416 -1088 1222 -1217 
Q 1028 -1347 759 -1347 
Q 597 -1347 397 -1278 
z
" transform="scale(0.015625)"/>
       <path id="ArialMT-42" d="M 469 0 
L 469 4581 
L 2188 4581 
Q 2713 4581 3030 4442 
Q 3347 4303 3526 4014 
Q 3706 3725 3706 3409 
Q 3706 3116 3547 2856 
Q 3388 2597 3066 2438 
Q 3481 2316 3704 2022 
Q 3928 1728 3928 1328 
Q 3928 1006 3792 729 
Q 3656 453 3456 303 
Q 3256 153 2954 76 
Q 2653 0 2216 0 
L 469 0 
z
M 1075 2656 
L 2066 2656 
Q 2469 2656 2644 2709 
Q 2875 2778 2992 2937 
Q 3109 3097 3109 3338 
Q 3109 3566 3000 3739 
Q 2891 3913 2687 3977 
Q 2484 4041 1991 4041 
L 1075 4041 
L 1075 2656 
z
M 1075 541 
L 2216 541 
Q 2509 541 2628 563 
Q 2838 600 2978 687 
Q 3119 775 3209 942 
Q 3300 1109 3300 1328 
Q 3300 1584 3169 1773 
Q 3038 1963 2805 2039 
Q 2572 2116 2134 2116 
L 1075 2116 
L 1075 541 
z
" transform="scale(0.015625)"/>
       <path id="ArialMT-6e" d="M 422 0 
L 422 3319 
L 928 3319 
L 928 2847 
Q 1294 3394 1984 3394 
Q 2284 3394 2536 3286 
Q 2788 3178 2913 3003 
Q 3038 2828 3088 2588 
Q 3119 2431 3119 2041 
L 3119 0 
L 2556 0 
L 2556 2019 
Q 2556 2363 2490 2533 
Q 2425 2703 2258 2804 
Q 2091 2906 1866 2906 
Q 1506 2906 1245 2678 
Q 984 2450 984 1813 
L 984 0 
L 422 0 
z
" transform="scale(0.015625)"/>
       <path id="ArialMT-72" d="M 416 0 
L 416 3319 
L 922 3319 
L 922 2816 
Q 1116 3169 1280 3281 
Q 1444 3394 1641 3394 
Q 1925 3394 2219 3213 
L 2025 2691 
Q 1819 2813 1613 2813 
Q 1428 2813 1281 2702 
Q 1134 2591 1072 2394 
Q 978 2094 978 1738 
L 978 0 
L 416 0 
z
" transform="scale(0.015625)"/>
      </defs>
      <use xlink:href="#ArialMT-4e"/>
      <use xlink:href="#ArialMT-61" transform="translate(72.216797 0)"/>
      <use xlink:href="#ArialMT-69" transform="translate(127.832031 0)"/>
      <use xlink:href="#ArialMT-76" transform="translate(150.048828 0)"/>
      <use xlink:href="#ArialMT-65" transform="translate(200.048828 0)"/>
      <use xlink:href="#ArialMT-20" transform="translate(255.664062 0)"/>
      <use xlink:href="#ArialMT-37" transform="translate(283.447266 0)"/>
      <use xlink:href="#ArialMT-2d" transform="translate(339.0625 0)"/>
      <use xlink:href="#ArialMT-44" transform="translate(372.363281 0)"/>
      <use xlink:href="#ArialMT-61" transform="translate(444.580078 0)"/>
      <use xlink:href="#ArialMT-79" transform="translate(500.195312 0)"/>
      <use xlink:href="#ArialMT-20" transform="translate(550.195312 0)"/>
      <use xlink:href="#ArialMT-42" transform="translate(577.978516 0)"/>
      <use xlink:href="#ArialMT-61" transform="translate(644.677734 0)"/>
      <use xlink:href="#ArialMT-73" transform="translate(700.292969 0)"/>
      <use xlink:href="#ArialMT-65" transform="translate(750.292969 0)"/>
      <use xlink:href="#ArialMT-6c" transform="translate(805.908203 0)"/>
      <use xlink:href="#ArialMT-69" transform="translate(828.125 0)"/>
      <use xlink:href="#ArialMT-6e" transform="translate(850.341797 0)"/>
      <use xlink:href="#ArialMT-65" transform="translate(905.957031 0)"/>
      <use xlink:href="#ArialMT-20" transform="translate(961.572266 0)"/>
      <use xlink:href="#ArialMT-72" transform="translate(989.355469 0)"/>
      <use xlink:href="#ArialMT-65" transform="translate(1022.65625 0)"/>
      <use xlink:href="#ArialMT-73" transform="translate(1078.271484 0)"/>
      <use xlink:href="#ArialMT-69" transform="translate(1128.271484 0)"/>
      <use xlink:href="#ArialMT-64" transform="translate(1150.488281 0)"/>
      <use xlink:href="#ArialMT-75" transform="translate(1206.103516 0)"/>
      <use xlink:href="#ArialMT-61" transform="translate(1261.71875 0)"/>
      <use xlink:href="#ArialMT-6c" transform="translate(1317.333984 0)"/>
     </g>
    </g>
    <g id="line2d_23">
     <path d="M 705.824688 43.569375 
L 713.824688 43.569375 
L 721.824688 43.569375 
" style="fill: none; stroke: #2ca02c; stroke-opacity: 0.35; stroke-width: 1.2; stroke-linecap: round"/>
    </g>
    <g id="text_21">
     <!-- Two-Stage HGB Forecast residual -->
     <g style="fill: #262626" transform="translate(728.224688 46.369375) scale(0.08 -0.08)">
      <defs>
       <path id="ArialMT-54" d="M 1659 0 
L 1659 4041 
L 150 4041 
L 150 4581 
L 3781 4581 
L 3781 4041 
L 2266 4041 
L 2266 0 
L 1659 0 
z
" transform="scale(0.015625)"/>
       <path id="ArialMT-77" d="M 1034 0 
L 19 3319 
L 600 3319 
L 1128 1403 
L 1325 691 
Q 1338 744 1497 1375 
L 2025 3319 
L 2603 3319 
L 3100 1394 
L 3266 759 
L 3456 1400 
L 4025 3319 
L 4572 3319 
L 3534 0 
L 2950 0 
L 2422 1988 
L 2294 2553 
L 1622 0 
L 1034 0 
z
" transform="scale(0.015625)"/>
       <path id="ArialMT-6f" d="M 213 1659 
Q 213 2581 725 3025 
Q 1153 3394 1769 3394 
Q 2453 3394 2887 2945 
Q 3322 2497 3322 1706 
Q 3322 1066 3130 698 
Q 2938 331 2570 128 
Q 2203 -75 1769 -75 
Q 1072 -75 642 372 
Q 213 819 213 1659 
z
M 791 1659 
Q 791 1022 1069 705 
Q 1347 388 1769 388 
Q 2188 388 2466 706 
Q 2744 1025 2744 1678 
Q 2744 2294 2464 2611 
Q 2184 2928 1769 2928 
Q 1347 2928 1069 2612 
Q 791 2297 791 1659 
z
" transform="scale(0.015625)"/>
       <path id="ArialMT-53" d="M 288 1472 
L 859 1522 
Q 900 1178 1048 958 
Q 1197 738 1509 602 
Q 1822 466 2213 466 
Q 2559 466 2825 569 
Q 3091 672 3220 851 
Q 3350 1031 3350 1244 
Q 3350 1459 3225 1620 
Q 3100 1781 2813 1891 
Q 2628 1963 1997 2114 
Q 1366 2266 1113 2400 
Q 784 2572 623 2826 
Q 463 3081 463 3397 
Q 463 3744 659 4045 
Q 856 4347 1234 4503 
Q 1613 4659 2075 4659 
Q 2584 4659 2973 4495 
Q 3363 4331 3572 4012 
Q 3781 3694 3797 3291 
L 3216 3247 
Q 3169 3681 2898 3903 
Q 2628 4125 2100 4125 
Q 1550 4125 1298 3923 
Q 1047 3722 1047 3438 
Q 1047 3191 1225 3031 
Q 1400 2872 2139 2705 
Q 2878 2538 3153 2413 
Q 3553 2228 3743 1945 
Q 3934 1663 3934 1294 
Q 3934 928 3725 604 
Q 3516 281 3123 101 
Q 2731 -78 2241 -78 
Q 1619 -78 1198 103 
Q 778 284 539 648 
Q 300 1013 288 1472 
z
" transform="scale(0.015625)"/>
       <path id="ArialMT-67" d="M 319 -275 
L 866 -356 
Q 900 -609 1056 -725 
Q 1266 -881 1628 -881 
Q 2019 -881 2231 -725 
Q 2444 -569 2519 -288 
Q 2563 -116 2559 434 
Q 2191 0 1641 0 
Q 956 0 581 494 
Q 206 988 206 1678 
Q 206 2153 378 2554 
Q 550 2956 876 3175 
Q 1203 3394 1644 3394 
Q 2231 3394 2613 2919 
L 2613 3319 
L 3131 3319 
L 3131 450 
Q 3131 -325 2973 -648 
Q 2816 -972 2473 -1159 
Q 2131 -1347 1631 -1347 
Q 1038 -1347 672 -1080 
Q 306 -813 319 -275 
z
M 784 1719 
Q 784 1066 1043 766 
Q 1303 466 1694 466 
Q 2081 466 2343 764 
Q 2606 1063 2606 1700 
Q 2606 2309 2336 2618 
Q 2066 2928 1684 2928 
Q 1309 2928 1046 2623 
Q 784 2319 784 1719 
z
" transform="scale(0.015625)"/>
       <path id="ArialMT-48" d="M 513 0 
L 513 4581 
L 1119 4581 
L 1119 2700 
L 3500 2700 
L 3500 4581 
L 4106 4581 
L 4106 0 
L 3500 0 
L 3500 2159 
L 1119 2159 
L 1119 0 
L 513 0 
z
" transform="scale(0.015625)"/>
       <path id="ArialMT-47" d="M 2638 1797 
L 2638 2334 
L 4578 2338 
L 4578 638 
Q 4131 281 3656 101 
Q 3181 -78 2681 -78 
Q 2006 -78 1454 211 
Q 903 500 622 1047 
Q 341 1594 341 2269 
Q 341 2938 620 3517 
Q 900 4097 1425 4378 
Q 1950 4659 2634 4659 
Q 3131 4659 3532 4498 
Q 3934 4338 4162 4050 
Q 4391 3763 4509 3300 
L 3963 3150 
Q 3859 3500 3706 3700 
Q 3553 3900 3268 4020 
Q 2984 4141 2638 4141 
Q 2222 4141 1919 4014 
Q 1616 3888 1430 3681 
Q 1244 3475 1141 3228 
Q 966 2803 966 2306 
Q 966 1694 1177 1281 
Q 1388 869 1791 669 
Q 2194 469 2647 469 
Q 3041 469 3416 620 
Q 3791 772 3984 944 
L 3984 1797 
L 2638 1797 
z
" transform="scale(0.015625)"/>
       <path id="ArialMT-46" d="M 525 0 
L 525 4581 
L 3616 4581 
L 3616 4041 
L 1131 4041 
L 1131 2622 
L 3281 2622 
L 3281 2081 
L 1131 2081 
L 1131 0 
L 525 0 
z
" transform="scale(0.015625)"/>
       <path id="ArialMT-63" d="M 2588 1216 
L 3141 1144 
Q 3050 572 2676 248 
Q 2303 -75 1759 -75 
Q 1078 -75 664 370 
Q 250 816 250 1647 
Q 250 2184 428 2587 
Q 606 2991 970 3192 
Q 1334 3394 1763 3394 
Q 2303 3394 2647 3120 
Q 2991 2847 3088 2344 
L 2541 2259 
Q 2463 2594 2264 2762 
Q 2066 2931 1784 2931 
Q 1359 2931 1093 2626 
Q 828 2322 828 1663 
Q 828 994 1084 691 
Q 1341 388 1753 388 
Q 2084 388 2306 591 
Q 2528 794 2588 1216 
z
" transform="scale(0.015625)"/>
      </defs>
      <use xlink:href="#ArialMT-54"/>
      <use xlink:href="#ArialMT-77" transform="translate(55.583984 0)"/>
      <use xlink:href="#ArialMT-6f" transform="translate(127.800781 0)"/>
      <use xlink:href="#ArialMT-2d" transform="translate(183.416016 0)"/>
      <use xlink:href="#ArialMT-53" transform="translate(216.716797 0)"/>
      <use xlink:href="#ArialMT-74" transform="translate(283.416016 0)"/>
      <use xlink:href="#ArialMT-61" transform="translate(311.199219 0)"/>
      <use xlink:href="#ArialMT-67" transform="translate(366.814453 0)"/>
      <use xlink:href="#ArialMT-65" transform="translate(422.429688 0)"/>
      <use xlink:href="#ArialMT-20" transform="translate(478.044922 0)"/>
      <use xlink:href="#ArialMT-48" transform="translate(505.828125 0)"/>
      <use xlink:href="#ArialMT-47" transform="translate(578.044922 0)"/>
      <use xlink:href="#ArialMT-42" transform="translate(655.828125 0)"/>
      <use xlink:href="#ArialMT-20" transform="translate(722.527344 0)"/>
      <use xlink:href="#ArialMT-46" transform="translate(750.310547 0)"/>
      <use xlink:href="#ArialMT-6f" transform="translate(811.394531 0)"/>
      <use xlink:href="#ArialMT-72" transform="translate(867.009766 0)"/>
      <use xlink:href="#ArialMT-65" transform="translate(900.310547 0)"/>
      <use xlink:href="#ArialMT-63" transform="translate(955.925781 0)"/>
      <use xlink:href="#ArialMT-61" transform="translate(1005.925781 0)"/>
      <use xlink:href="#ArialMT-73" transform="translate(1061.541016 0)"/>
      <use xlink:href="#ArialMT-74" transform="translate(1111.541016 0)"/>
      <use xlink:href="#ArialMT-20" transform="translate(1139.324219 0)"/>
      <use xlink:href="#ArialMT-72" transform="translate(1167.107422 0)"/>
      <use xlink:href="#ArialMT-65" transform="translate(1200.408203 0)"/>
      <use xlink:href="#ArialMT-73" transform="translate(1256.023438 0)"/>
      <use xlink:href="#ArialMT-69" transform="translate(1306.023438 0)"/>
      <use xlink:href="#ArialMT-64" transform="translate(1328.240234 0)"/>
      <use xlink:href="#ArialMT-75" transform="translate(1383.855469 0)"/>
      <use xlink:href="#ArialMT-61" transform="translate(1439.470703 0)"/>
      <use xlink:href="#ArialMT-6c" transform="translate(1495.085938 0)"/>
     </g>
    </g>
    <g id="line2d_24">
     <path d="M 865.602188 32.061875 
L 873.602188 32.061875 
L 881.602188 32.061875 
" style="fill: none; stroke: #ff7f0e; stroke-width: 2; stroke-linecap: round"/>
    </g>
    <g id="text_22">
     <!-- Baseline residual 7d mean -->
     <g style="fill: #262626" transform="translate(888.002188 34.861875) scale(0.08 -0.08)">
      <defs>
       <path id="ArialMT-6d" d="M 422 0 
L 422 3319 
L 925 3319 
L 925 2853 
Q 1081 3097 1340 3245 
Q 1600 3394 1931 3394 
Q 2300 3394 2536 3241 
Q 2772 3088 2869 2813 
Q 3263 3394 3894 3394 
Q 4388 3394 4653 3120 
Q 4919 2847 4919 2278 
L 4919 0 
L 4359 0 
L 4359 2091 
Q 4359 2428 4304 2576 
Q 4250 2725 4106 2815 
Q 3963 2906 3769 2906 
Q 3419 2906 3187 2673 
Q 2956 2441 2956 1928 
L 2956 0 
L 2394 0 
L 2394 2156 
Q 2394 2531 2256 2718 
Q 2119 2906 1806 2906 
Q 1569 2906 1367 2781 
Q 1166 2656 1075 2415 
Q 984 2175 984 1722 
L 984 0 
L 422 0 
z
" transform="scale(0.015625)"/>
      </defs>
      <use xlink:href="#ArialMT-42"/>
      <use xlink:href="#ArialMT-61" transform="translate(66.699219 0)"/>
      <use xlink:href="#ArialMT-73" transform="translate(122.314453 0)"/>
      <use xlink:href="#ArialMT-65" transform="translate(172.314453 0)"/>
      <use xlink:href="#ArialMT-6c" transform="translate(227.929688 0)"/>
      <use xlink:href="#ArialMT-69" transform="translate(250.146484 0)"/>
      <use xlink:href="#ArialMT-6e" transform="translate(272.363281 0)"/>
      <use xlink:href="#ArialMT-65" transform="translate(327.978516 0)"/>
      <use xlink:href="#ArialMT-20" transform="translate(383.59375 0)"/>
      <use xlink:href="#ArialMT-72" transform="translate(411.376953 0)"/>
      <use xlink:href="#ArialMT-65" transform="translate(444.677734 0)"/>
      <use xlink:href="#ArialMT-73" transform="translate(500.292969 0)"/>
      <use xlink:href="#ArialMT-69" transform="translate(550.292969 0)"/>
      <use xlink:href="#ArialMT-64" transform="translate(572.509766 0)"/>
      <use xlink:href="#ArialMT-75" transform="translate(628.125 0)"/>
      <use xlink:href="#ArialMT-61" transform="translate(683.740234 0)"/>
      <use xlink:href="#ArialMT-6c" transform="translate(739.355469 0)"/>
      <use xlink:href="#ArialMT-20" transform="translate(761.572266 0)"/>
      <use xlink:href="#ArialMT-37" transform="translate(789.355469 0)"/>
      <use xlink:href="#ArialMT-64" transform="translate(844.970703 0)"/>
      <use xlink:href="#ArialMT-20" transform="translate(900.585938 0)"/>
      <use xlink:href="#ArialMT-6d" transform="translate(928.369141 0)"/>
      <use xlink:href="#ArialMT-65" transform="translate(1011.669922 0)"/>
      <use xlink:href="#ArialMT-61" transform="translate(1067.285156 0)"/>
      <use xlink:href="#ArialMT-6e" transform="translate(1122.900391 0)"/>
     </g>
    </g>
    <g id="line2d_25">
     <path d="M 865.602188 43.378125 
L 873.602188 43.378125 
L 881.602188 43.378125 
" style="fill: none; stroke: #2ca02c; stroke-width: 2; stroke-linecap: round"/>
    </g>
    <g id="text_23">
     <!-- Model residual 7d mean -->
     <g style="fill: #262626" transform="translate(888.002188 46.178125) scale(0.08 -0.08)">
      <defs>
       <path id="ArialMT-4d" d="M 475 0 
L 475 4581 
L 1388 4581 
L 2472 1338 
Q 2622 884 2691 659 
Q 2769 909 2934 1394 
L 4031 4581 
L 4847 4581 
L 4847 0 
L 4263 0 
L 4263 3834 
L 2931 0 
L 2384 0 
L 1059 3900 
L 1059 0 
L 475 0 
z
" transform="scale(0.015625)"/>
      </defs>
      <use xlink:href="#ArialMT-4d"/>
      <use xlink:href="#ArialMT-6f" transform="translate(83.300781 0)"/>
      <use xlink:href="#ArialMT-64" transform="translate(138.916016 0)"/>
      <use xlink:href="#ArialMT-65" transform="translate(194.53125 0)"/>
      <use xlink:href="#ArialMT-6c" transform="translate(250.146484 0)"/>
      <use xlink:href="#ArialMT-20" transform="translate(272.363281 0)"/>
      <use xlink:href="#ArialMT-72" transform="translate(300.146484 0)"/>
      <use xlink:href="#ArialMT-65" transform="translate(333.447266 0)"/>
      <use xlink:href="#ArialMT-73" transform="translate(389.0625 0)"/>
      <use xlink:href="#ArialMT-69" transform="translate(439.0625 0)"/>
      <use xlink:href="#ArialMT-64" transform="translate(461.279297 0)"/>
      <use xlink:href="#ArialMT-75" transform="translate(516.894531 0)"/>
      <use xlink:href="#ArialMT-61" transform="translate(572.509766 0)"/>
      <use xlink:href="#ArialMT-6c" transform="translate(628.125 0)"/>
      <use xlink:href="#ArialMT-20" transform="translate(650.341797 0)"/>
      <use xlink:href="#ArialMT-37" transform="translate(678.125 0)"/>
      <use xlink:href="#ArialMT-64" transform="translate(733.740234 0)"/>
      <use xlink:href="#ArialMT-20" transform="translate(789.355469 0)"/>
      <use xlink:href="#ArialMT-6d" transform="translate(817.138672 0)"/>
      <use xlink:href="#ArialMT-65" transform="translate(900.439453 0)"/>
      <use xlink:href="#ArialMT-61" transform="translate(956.054688 0)"/>
      <use xlink:href="#ArialMT-6e" transform="translate(1011.669922 0)"/>
     </g>
    </g>
   </g>
  </g>
 </g>
 <defs>
  <clipPath id="p4fea3a9927">
   <rect x="62.567188" y="21.935625" width="926.91" height="227.38125"/>
  </clipPath>
 </defs>
</svg>
