<?xml version="1.0" encoding="utf-8" standalone="no"?>
<!DOCTYPE svg PUBLIC "-//W3C//DTD SVG 1.1//EN"
  "http://www.w3.org/Graphics/SVG/1.1/DTD/svg11.dtd">
<svg xmlns:xlink="http://www.w3.org/1999/xlink" width="996.723906pt" height="348.583594pt" viewBox="0 0 996.723906 348.583594" xmlns="http://www.w3.org/2000/svg" version="1.1">
 <metadata>
  <rdf:RDF xmlns:dc="http://purl.org/dc/elements/1.1/" xmlns:cc="http://creativecommons.org/ns#" xmlns:rdf="http://www.w3.org/1999/02/22-rdf-syntax-ns#">
   <cc:Work>
    <dc:type rdf:resource="http://purl.org/dc/dcmitype/StillImage"/>
    <dc:date>2026-03-21T00:30:20.891320</dc:date>
    <dc:format>image/svg+xml</dc:format>
    <dc:creator>
     <cc:Agent>
      <dc:title>Matplotlib v3.10.8, https://matplotlib.org/</dc:title>
     </cc:Agent>
    </dc:creator>
   </cc:Work>
  </rdf:RDF>
 </metadata>
 <defs>
  <style type="text/css">*{stroke-linejoin: round; stroke-linecap: butt}</style>
 </defs>
 <g id="figure_1">
  <g id="patch_1">
   <path d="M 0 348.583594 
L 996.723906 348.583594 
L 996.723906 0 
L 0 0 
z
" style="fill: #ffffff"/>
  </g>
  <g id="axes_1">
   <g id="patch_2">
    <path d="M 62.400156 306.849375 
L 989.523906 306.849375 
L 989.523906 21.789375 
L 62.400156 21.789375 
z
" style="fill: #ffffff"/>
   </g>
   <g id="matplotlib.axis_1">
    <g id="xtick_1">
     <g id="line2d_1">
      <path d="M 72.477588 306.849375 
L 72.477588 21.789375 
" clip-path="url(#p94898a4eeb)" style="fill: none; stroke: #cccccc; stroke-linecap: round"/>
     </g>
     <g id="text_1">
      <!-- 2011-06 -->
      <g style="fill: #262626" transform="translate(52.700791 324.222969) scale(0.11 -0.11)">
       <defs>
        <path id="ArialMT-32" d="M 3222 541 
L 3222 0 
L 194 0 
Q 188 203 259 391 
Q 375 700 629 1000 
Q 884 1300 1366 1694 
Q 2113 2306 2375 2664 
Q 2638 3022 2638 3341 
Q 2638 3675 2398 3904 
Q 2159 4134 1775 4134 
Q 1369 4134 1125 3890 
Q 881 3647 878 3216 
L 300 3275 
Q 359 3922 746 4261 
Q 1134 4600 1788 4600 
Q 2447 4600 2831 4234 
Q 3216 3869 3216 3328 
Q 3216 3053 3103 2787 
Q 2991 2522 2730 2228 
Q 2469 1934 1863 1422 
Q 1356 997 1212 845 
Q 1069 694 975 541 
L 3222 541 
z
" transform="scale(0.015625)"/>
        <path id="ArialMT-30" d="M 266 2259 
Q 266 3072 433 3567 
Q 600 4063 929 4331 
Q 1259 4600 1759 4600 
Q 2128 4600 2406 4451 
Q 2684 4303 2865 4023 
Q 3047 3744 3150 3342 
Q 3253 2941 3253 2259 
Q 3253 1453 3087 958 
Q 2922 463 2592 192 
Q 2263 -78 1759 -78 
Q 1097 -78 719 397 
Q 266 969 266 2259 
z
M 844 2259 
Q 844 1131 1108 757 
Q 1372 384 1759 384 
Q 2147 384 2411 759 
Q 2675 1134 2675 2259 
Q 2675 3391 2411 3762 
Q 2147 4134 1753 4134 
Q 1366 4134 1134 3806 
Q 844 3388 844 2259 
z
" transform="scale(0.015625)"/>
        <path id="ArialMT-31" d="M 2384 0 
L 1822 0 
L 1822 3584 
Q 1619 3391 1289 3197 
Q 959 3003 697 2906 
L 697 3450 
Q 1169 3672 1522 3987 
Q 1875 4303 2022 4600 
L 2384 4600 
L 2384 0 
z
" transform="scale(0.015625)"/>
        <path id="ArialMT-2d" d="M 203 1375 
L 203 1941 
L 1931 1941 
L 1931 1375 
L 203 1375 
z
" transform="scale(0.015625)"/>
        <path id="ArialMT-36" d="M 3184 3459 
L 2625 3416 
Q 2550 3747 2413 3897 
Q 2184 4138 1850 4138 
Q 1581 4138 1378 3988 
Q 1113 3794 959 3422 
Q 806 3050 800 2363 
Q 1003 2672 1297 2822 
Q 1591 2972 1913 2972 
Q 2475 2972 2870 2558 
Q 3266 2144 3266 1488 
Q 3266 1056 3080 686 
Q 2894 316 2569 119 
Q 2244 -78 1831 -78 
Q 1128 -78 684 439 
Q 241 956 241 2144 
Q 241 3472 731 4075 
Q 1159 4600 1884 4600 
Q 2425 4600 2770 4297 
Q 3116 3994 3184 3459 
z
M 888 1484 
Q 888 1194 1011 928 
Q 1134 663 1356 523 
Q 1578 384 1822 384 
Q 2178 384 2434 671 
Q 2691 959 2691 1453 
Q 2691 1928 2437 2201 
Q 2184 2475 1800 2475 
Q 1419 2475 1153 2201 
Q 888 1928 888 1484 
z
" transform="scale(0.015625)"/>
       </defs>
       <use xlink:href="#ArialMT-32"/>
       <use xlink:href="#ArialMT-30" transform="translate(55.615234 0)"/>
       <use xlink:href="#ArialMT-31" transform="translate(111.230469 0)"/>
       <use xlink:href="#ArialMT-31" transform="translate(159.470703 0)"/>
       <use xlink:href="#ArialMT-2d" transform="translate(215.085938 0)"/>
       <use xlink:href="#ArialMT-30" transform="translate(248.386719 0)"/>
       <use xlink:href="#ArialMT-36" transform="translate(304.001953 0)"/>
      </g>
     </g>
    </g>
    <g id="xtick_2">
     <g id="line2d_2">
      <path d="M 209.897116 306.849375 
L 209.897116 21.789375 
" clip-path="url(#p94898a4eeb)" style="fill: none; stroke: #cccccc; stroke-linecap: round"/>
     </g>
     <g id="text_2">
      <!-- 2011-07 -->
      <g style="fill: #262626" transform="translate(190.12032 324.222969) scale(0.11 -0.11)">
       <defs>
        <path id="ArialMT-37" d="M 303 3981 
L 303 4522 
L 3269 4522 
L 3269 4084 
Q 2831 3619 2401 2847 
Q 1972 2075 1738 1259 
Q 1569 684 1522 0 
L 944 0 
Q 953 541 1156 1306 
Q 1359 2072 1739 2783 
Q 2119 3494 2547 3981 
L 303 3981 
z
" transform="scale(0.015625)"/>
       </defs>
       <use xlink:href="#ArialMT-32"/>
       <use xlink:href="#ArialMT-30" transform="translate(55.615234 0)"/>
       <use xlink:href="#ArialMT-31" transform="translate(111.230469 0)"/>
       <use xlink:href="#ArialMT-31" transform="translate(159.470703 0)"/>
       <use xlink:href="#ArialMT-2d" transform="translate(215.085938 0)"/>
       <use xlink:href="#ArialMT-30" transform="translate(248.386719 0)"/>
       <use xlink:href="#ArialMT-37" transform="translate(304.001953 0)"/>
      </g>
     </g>
    </g>
    <g id="xtick_3">
     <g id="line2d_3">
      <path d="M 351.897296 306.849375 
L 351.897296 21.789375 
" clip-path="url(#p94898a4eeb)" style="fill: none; stroke: #cccccc; stroke-linecap: round"/>
     </g>
     <g id="text_3">
      <!-- 2011-08 -->
      <g style="fill: #262626" transform="translate(332.120499 324.222969) scale(0.11 -0.11)">
       <defs>
        <path id="ArialMT-38" d="M 1131 2484 
Q 781 2613 612 2850 
Q 444 3088 444 3419 
Q 444 3919 803 4259 
Q 1163 4600 1759 4600 
Q 2359 4600 2725 4251 
Q 3091 3903 3091 3403 
Q 3091 3084 2923 2848 
Q 2756 2613 2416 2484 
Q 2838 2347 3058 2040 
Q 3278 1734 3278 1309 
Q 3278 722 2862 322 
Q 2447 -78 1769 -78 
Q 1091 -78 675 323 
Q 259 725 259 1325 
Q 259 1772 486 2073 
Q 713 2375 1131 2484 
z
M 1019 3438 
Q 1019 3113 1228 2906 
Q 1438 2700 1772 2700 
Q 2097 2700 2305 2904 
Q 2513 3109 2513 3406 
Q 2513 3716 2298 3927 
Q 2084 4138 1766 4138 
Q 1444 4138 1231 3931 
Q 1019 3725 1019 3438 
z
M 838 1322 
Q 838 1081 952 856 
Q 1066 631 1291 507 
Q 1516 384 1775 384 
Q 2178 384 2440 643 
Q 2703 903 2703 1303 
Q 2703 1709 2433 1975 
Q 2163 2241 1756 2241 
Q 1359 2241 1098 1978 
Q 838 1716 838 1322 
z
" transform="scale(0.015625)"/>
       </defs>
       <use xlink:href="#ArialMT-32"/>
       <use xlink:href="#ArialMT-30" transform="translate(55.615234 0)"/>
       <use xlink:href="#ArialMT-31" transform="translate(111.230469 0)"/>
       <use xlink:href="#ArialMT-31" transform="translate(159.470703 0)"/>
       <use xlink:href="#ArialMT-2d" transform="translate(215.085938 0)"/>
       <use xlink:href="#ArialMT-30" transform="translate(248.386719 0)"/>
       <use xlink:href="#ArialMT-38" transform="translate(304.001953 0)"/>
      </g>
     </g>
    </g>
    <g id="xtick_4">
     <g id="line2d_4">
      <path d="M 493.897475 306.849375 
L 493.897475 21.789375 
" clip-path="url(#p94898a4eeb)" style="fill: none; stroke: #cccccc; stroke-linecap: round"/>
     </g>
     <g id="text_4">
      <!-- 2011-09 -->
      <g style="fill: #262626" transform="translate(474.120678 324.222969) scale(0.11 -0.11)">
       <defs>
        <path id="ArialMT-39" d="M 350 1059 
L 891 1109 
Q 959 728 1153 556 
Q 1347 384 1650 384 
Q 1909 384 2104 503 
Q 2300 622 2425 820 
Q 2550 1019 2634 1356 
Q 2719 1694 2719 2044 
Q 2719 2081 2716 2156 
Q 2547 1888 2255 1720 
Q 1963 1553 1622 1553 
Q 1053 1553 659 1965 
Q 266 2378 266 3053 
Q 266 3750 677 4175 
Q 1088 4600 1706 4600 
Q 2153 4600 2523 4359 
Q 2894 4119 3086 3673 
Q 3278 3228 3278 2384 
Q 3278 1506 3087 986 
Q 2897 466 2520 194 
Q 2144 -78 1638 -78 
Q 1100 -78 759 220 
Q 419 519 350 1059 
z
M 2653 3081 
Q 2653 3566 2395 3850 
Q 2138 4134 1775 4134 
Q 1400 4134 1122 3828 
Q 844 3522 844 3034 
Q 844 2597 1108 2323 
Q 1372 2050 1759 2050 
Q 2150 2050 2401 2323 
Q 2653 2597 2653 3081 
z
" transform="scale(0.015625)"/>
       </defs>
       <use xlink:href="#ArialMT-32"/>
       <use xlink:href="#ArialMT-30" transform="translate(55.615234 0)"/>
       <use xlink:href="#ArialMT-31" transform="translate(111.230469 0)"/>
       <use xlink:href="#ArialMT-31" transform="translate(159.470703 0)"/>
       <use xlink:href="#ArialMT-2d" transform="translate(215.085938 0)"/>
       <use xlink:href="#ArialMT-30" transform="translate(248.386719 0)"/>
       <use xlink:href="#ArialMT-39" transform="translate(304.001953 0)"/>
      </g>
     </g>
    </g>
    <g id="xtick_5">
     <g id="line2d_5">
      <path d="M 631.317003 306.849375 
L 631.317003 21.789375 
" clip-path="url(#p94898a4eeb)" style="fill: none; stroke: #cccccc; stroke-linecap: round"/>
     </g>
     <g id="text_5">
      <!-- 2011-10 -->
      <g style="fill: #262626" transform="translate(611.540206 324.222969) scale(0.11 -0.11)">
       <use xlink:href="#ArialMT-32"/>
       <use xlink:href="#ArialMT-30" transform="translate(55.615234 0)"/>
       <use xlink:href="#ArialMT-31" transform="translate(111.230469 0)"/>
       <use xlink:href="#ArialMT-31" transform="translate(159.470703 0)"/>
       <use xlink:href="#ArialMT-2d" transform="translate(215.085938 0)"/>
       <use xlink:href="#ArialMT-31" transform="translate(248.386719 0)"/>
       <use xlink:href="#ArialMT-30" transform="translate(304.001953 0)"/>
      </g>
     </g>
    </g>
    <g id="xtick_6">
     <g id="line2d_6">
      <path d="M 773.317182 306.849375 
L 773.317182 21.789375 
" clip-path="url(#p94898a4eeb)" style="fill: none; stroke: #cccccc; stroke-linecap: round"/>
     </g>
     <g id="text_6">
      <!-- 2011-11 -->
      <g style="fill: #262626" transform="translate(753.94601 324.222969) scale(0.11 -0.11)">
       <use xlink:href="#ArialMT-32"/>
       <use xlink:href="#ArialMT-30" transform="translate(55.615234 0)"/>
       <use xlink:href="#ArialMT-31" transform="translate(111.230469 0)"/>
       <use xlink:href="#ArialMT-31" transform="translate(159.470703 0)"/>
       <use xlink:href="#ArialMT-2d" transform="translate(215.085938 0)"/>
       <use xlink:href="#ArialMT-31" transform="translate(248.386719 0)"/>
       <use xlink:href="#ArialMT-31" transform="translate(296.626953 0)"/>
      </g>
     </g>
    </g>
    <g id="xtick_7">
     <g id="line2d_7">
      <path d="M 910.73671 306.849375 
L 910.73671 21.789375 
" clip-path="url(#p94898a4eeb)" style="fill: none; stroke: #cccccc; stroke-linecap: round"/>
     </g>
     <g id="text_7">
      <!-- 2011-12 -->
      <g style="fill: #262626" transform="translate(890.959913 324.222969) scale(0.11 -0.11)">
       <use xlink:href="#ArialMT-32"/>
       <use xlink:href="#ArialMT-30" transform="translate(55.615234 0)"/>
       <use xlink:href="#ArialMT-31" transform="translate(111.230469 0)"/>
       <use xlink:href="#ArialMT-31" transform="translate(159.470703 0)"/>
       <use xlink:href="#ArialMT-2d" transform="translate(215.085938 0)"/>
       <use xlink:href="#ArialMT-31" transform="translate(248.386719 0)"/>
       <use xlink:href="#ArialMT-32" transform="translate(304.001953 0)"/>
      </g>
     </g>
    </g>
    <g id="text_8">
     <!-- Date -->
     <g style="fill: #262626" transform="translate(513.288906 338.998594) scale(0.12 -0.12)">
      <defs>
       <path id="ArialMT-44" d="M 494 0 
L 494 4581 
L 2072 4581 
Q 2606 4581 2888 4516 
Q 3281 4425 3559 4188 
Q 3922 3881 4101 3404 
Q 4281 2928 4281 2316 
Q 4281 1794 4159 1391 
Q 4038 988 3847 723 
Q 3656 459 3429 307 
Q 3203 156 2883 78 
Q 2563 0 2147 0 
L 494 0 
z
M 1100 541 
L 2078 541 
Q 2531 541 2789 625 
Q 3047 709 3200 863 
Q 3416 1078 3536 1442 
Q 3656 1806 3656 2325 
Q 3656 3044 3420 3430 
Q 3184 3816 2847 3947 
Q 2603 4041 2063 4041 
L 1100 4041 
L 1100 541 
z
" transform="scale(0.015625)"/>
       <path id="ArialMT-61" d="M 2588 409 
Q 2275 144 1986 34 
Q 1697 -75 1366 -75 
Q 819 -75 525 192 
Q 231 459 231 875 
Q 231 1119 342 1320 
Q 453 1522 633 1644 
Q 813 1766 1038 1828 
Q 1203 1872 1538 1913 
Q 2219 1994 2541 2106 
Q 2544 2222 2544 2253 
Q 2544 2597 2384 2738 
Q 2169 2928 1744 2928 
Q 1347 2928 1158 2789 
Q 969 2650 878 2297 
L 328 2372 
Q 403 2725 575 2942 
Q 747 3159 1072 3276 
Q 1397 3394 1825 3394 
Q 2250 3394 2515 3294 
Q 2781 3194 2906 3042 
Q 3031 2891 3081 2659 
Q 3109 2516 3109 2141 
L 3109 1391 
Q 3109 606 3145 398 
Q 3181 191 3288 0 
L 2700 0 
Q 2613 175 2588 409 
z
M 2541 1666 
Q 2234 1541 1622 1453 
Q 1275 1403 1131 1340 
Q 988 1278 909 1158 
Q 831 1038 831 891 
Q 831 666 1001 516 
Q 1172 366 1500 366 
Q 1825 366 2078 508 
Q 2331 650 2450 897 
Q 2541 1088 2541 1459 
L 2541 1666 
z
" transform="scale(0.015625)"/>
       <path id="ArialMT-74" d="M 1650 503 
L 1731 6 
Q 1494 -44 1306 -44 
Q 1000 -44 831 53 
Q 663 150 594 308 
Q 525 466 525 972 
L 525 2881 
L 113 2881 
L 113 3319 
L 525 3319 
L 525 4141 
L 1084 4478 
L 1084 3319 
L 1650 3319 
L 1650 2881 
L 1084 2881 
L 1084 941 
Q 1084 700 1114 631 
Q 1144 563 1211 522 
Q 1278 481 1403 481 
Q 1497 481 1650 503 
z
" transform="scale(0.015625)"/>
       <path id="ArialMT-65" d="M 2694 1069 
L 3275 997 
Q 3138 488 2766 206 
Q 2394 -75 1816 -75 
Q 1088 -75 661 373 
Q 234 822 234 1631 
Q 234 2469 665 2931 
Q 1097 3394 1784 3394 
Q 2450 3394 2872 2941 
Q 3294 2488 3294 1666 
Q 3294 1616 3291 1516 
L 816 1516 
Q 847 969 1125 678 
Q 1403 388 1819 388 
Q 2128 388 2347 550 
Q 2566 713 2694 1069 
z
M 847 1978 
L 2700 1978 
Q 2663 2397 2488 2606 
Q 2219 2931 1791 2931 
Q 1403 2931 1139 2672 
Q 875 2413 847 1978 
z
" transform="scale(0.015625)"/>
      </defs>
      <use xlink:href="#ArialMT-44"/>
      <use xlink:href="#ArialMT-61" transform="translate(72.216797 0)"/>
      <use xlink:href="#ArialMT-74" transform="translate(127.832031 0)"/>
      <use xlink:href="#ArialMT-65" transform="translate(155.615234 0)"/>
     </g>
    </g>
   </g>
   <g id="matplotlib.axis_2">
    <g id="ytick_1">
     <g id="line2d_8">
      <path d="M 62.400156 293.892102 
L 989.523906 293.892102 
" clip-path="url(#p94898a4eeb)" style="fill: none; stroke: #cccccc; stroke-linecap: round"/>
     </g>
     <g id="text_9">
      <!-- 0 -->
      <g style="fill: #262626" transform="translate(46.783125 297.828899) scale(0.11 -0.11)">
       <use xlink:href="#ArialMT-30"/>
      </g>
     </g>
    </g>
    <g id="ytick_2">
     <g id="line2d_9">
      <path d="M 62.400156 256.037771 
L 989.523906 256.037771 
" clip-path="url(#p94898a4eeb)" style="fill: none; stroke: #cccccc; stroke-linecap: round"/>
     </g>
     <g id="text_10">
      <!-- 2000 -->
      <g style="fill: #262626" transform="translate(28.432031 259.974568) scale(0.11 -0.11)">
       <use xlink:href="#ArialMT-32"/>
       <use xlink:href="#ArialMT-30" transform="translate(55.615234 0)"/>
       <use xlink:href="#ArialMT-30" transform="translate(111.230469 0)"/>
       <use xlink:href="#ArialMT-30" transform="translate(166.845703 0)"/>
      </g>
     </g>
    </g>
    <g id="ytick_3">
     <g id="line2d_10">
      <path d="M 62.400156 218.183439 
L 989.523906 218.183439 
" clip-path="url(#p94898a4eeb)" style="fill: none; stroke: #cccccc; stroke-linecap: round"/>
     </g>
     <g id="text_11">
      <!-- 4000 -->
      <g style="fill: #262626" transform="translate(28.432031 222.120236) scale(0.11 -0.11)">
       <defs>
        <path id="ArialMT-34" d="M 2069 0 
L 2069 1097 
L 81 1097 
L 81 1613 
L 2172 4581 
L 2631 4581 
L 2631 1613 
L 3250 1613 
L 3250 1097 
L 2631 1097 
L 2631 0 
L 2069 0 
z
M 2069 1613 
L 2069 3678 
L 634 1613 
L 2069 1613 
z
" transform="scale(0.015625)"/>
       </defs>
       <use xlink:href="#ArialMT-34"/>
       <use xlink:href="#ArialMT-30" transform="translate(55.615234 0)"/>
       <use xlink:href="#ArialMT-30" transform="translate(111.230469 0)"/>
       <use xlink:href="#ArialMT-30" transform="translate(166.845703 0)"/>
      </g>
     </g>
    </g>
    <g id="ytick_4">
     <g id="line2d_11">
      <path d="M 62.400156 180.329107 
L 989.523906 180.329107 
" clip-path="url(#p94898a4eeb)" style="fill: none; stroke: #cccccc; stroke-linecap: round"/>
     </g>
     <g id="text_12">
      <!-- 6000 -->
      <g style="fill: #262626" transform="translate(28.432031 184.265904) scale(0.11 -0.11)">
       <use xlink:href="#ArialMT-36"/>
       <use xlink:href="#ArialMT-30" transform="translate(55.615234 0)"/>
       <use xlink:href="#ArialMT-30" transform="translate(111.230469 0)"/>
       <use xlink:href="#ArialMT-30" transform="translate(166.845703 0)"/>
      </g>
     </g>
    </g>
    <g id="ytick_5">
     <g id="line2d_12">
      <path d="M 62.400156 142.474776 
L 989.523906 142.474776 
" clip-path="url(#p94898a4eeb)" style="fill: none; stroke: #cccccc; stroke-linecap: round"/>
     </g>
     <g id="text_13">
      <!-- 8000 -->
      <g style="fill: #262626" transform="translate(28.432031 146.411573) scale(0.11 -0.11)">
       <use xlink:href="#ArialMT-38"/>
       <use xlink:href="#ArialMT-30" transform="translate(55.615234 0)"/>
       <use xlink:href="#ArialMT-30" transform="translate(111.230469 0)"/>
       <use xlink:href="#ArialMT-30" transform="translate(166.845703 0)"/>
      </g>
     </g>
    </g>
    <g id="ytick_6">
     <g id="line2d_13">
      <path d="M 62.400156 104.620444 
L 989.523906 104.620444 
" clip-path="url(#p94898a4eeb)" style="fill: none; stroke: #cccccc; stroke-linecap: round"/>
     </g>
     <g id="text_14">
      <!-- 10000 -->
      <g style="fill: #262626" transform="translate(22.315 108.557241) scale(0.11 -0.11)">
       <use xlink:href="#ArialMT-31"/>
       <use xlink:href="#ArialMT-30" transform="translate(55.615234 0)"/>
       <use xlink:href="#ArialMT-30" transform="translate(111.230469 0)"/>
       <use xlink:href="#ArialMT-30" transform="translate(166.845703 0)"/>
       <use xlink:href="#ArialMT-30" transform="translate(222.460938 0)"/>
      </g>
     </g>
    </g>
    <g id="ytick_7">
     <g id="line2d_14">
      <path d="M 62.400156 66.766113 
L 989.523906 66.766113 
" clip-path="url(#p94898a4eeb)" style="fill: none; stroke: #cccccc; stroke-linecap: round"/>
     </g>
     <g id="text_15">
      <!-- 12000 -->
      <g style="fill: #262626" transform="translate(22.315 70.70291) scale(0.11 -0.11)">
       <use xlink:href="#ArialMT-31"/>
       <use xlink:href="#ArialMT-32" transform="translate(55.615234 0)"/>
       <use xlink:href="#ArialMT-30" transform="translate(111.230469 0)"/>
       <use xlink:href="#ArialMT-30" transform="translate(166.845703 0)"/>
       <use xlink:href="#ArialMT-30" transform="translate(222.460938 0)"/>
      </g>
     </g>
    </g>
    <g id="ytick_8">
     <g id="line2d_15">
      <path d="M 62.400156 28.911781 
L 989.523906 28.911781 
" clip-path="url(#p94898a4eeb)" style="fill: none; stroke: #cccccc; stroke-linecap: round"/>
     </g>
     <g id="text_16">
      <!-- 14000 -->
      <g style="fill: #262626" transform="translate(22.315 32.848578) scale(0.11 -0.11)">
       <use xlink:href="#ArialMT-31"/>
       <use xlink:href="#ArialMT-34" transform="translate(55.615234 0)"/>
       <use xlink:href="#ArialMT-30" transform="translate(111.230469 0)"/>
       <use xlink:href="#ArialMT-30" transform="translate(166.845703 0)"/>
       <use xlink:href="#ArialMT-30" transform="translate(222.460938 0)"/>
      </g>
     </g>
    </g>
    <g id="text_17">
     <!-- Daily cluster sales -->
     <g style="fill: #262626" transform="translate(15.789375 212.66625) rotate(-90) scale(0.12 -0.12)">
      <defs>
       <path id="ArialMT-69" d="M 425 3934 
L 425 4581 
L 988 4581 
L 988 3934 
L 425 3934 
z
M 425 0 
L 425 3319 
L 988 3319 
L 988 0 
L 425 0 
z
" transform="scale(0.015625)"/>
       <path id="ArialMT-6c" d="M 409 0 
L 409 4581 
L 972 4581 
L 972 0 
L 409 0 
z
" transform="scale(0.015625)"/>
       <path id="ArialMT-79" d="M 397 -1278 
L 334 -750 
Q 519 -800 656 -800 
Q 844 -800 956 -737 
Q 1069 -675 1141 -563 
Q 1194 -478 1313 -144 
Q 1328 -97 1363 -6 
L 103 3319 
L 709 3319 
L 1400 1397 
Q 1534 1031 1641 628 
Q 1738 1016 1872 1384 
L 2581 3319 
L 3144 3319 
L 1881 -56 
Q 1678 -603 1566 -809 
Q 1416 -1088 1222 -1217 
Q 1028 -1347 759 -1347 
Q 597 -1347 397 -1278 
z
" transform="scale(0.015625)"/>
       <path id="ArialMT-20" transform="scale(0.015625)"/>
       <path id="ArialMT-63" d="M 2588 1216 
L 3141 1144 
Q 3050 572 2676 248 
Q 2303 -75 1759 -75 
Q 1078 -75 664 370 
Q 250 816 250 1647 
Q 250 2184 428 2587 
Q 606 2991 970 3192 
Q 1334 3394 1763 3394 
Q 2303 3394 2647 3120 
Q 2991 2847 3088 2344 
L 2541 2259 
Q 2463 2594 2264 2762 
Q 2066 2931 1784 2931 
Q 1359 2931 1093 2626 
Q 828 2322 828 1663 
Q 828 994 1084 691 
Q 1341 388 1753 388 
Q 2084 388 2306 591 
Q 2528 794 2588 1216 
z
" transform="scale(0.015625)"/>
       <path id="ArialMT-75" d="M 2597 0 
L 2597 488 
Q 2209 -75 1544 -75 
Q 1250 -75 995 37 
Q 741 150 617 320 
Q 494 491 444 738 
Q 409 903 409 1263 
L 409 3319 
L 972 3319 
L 972 1478 
Q 972 1038 1006 884 
Q 1059 663 1231 536 
Q 1403 409 1656 409 
Q 1909 409 2131 539 
Q 2353 669 2445 892 
Q 2538 1116 2538 1541 
L 2538 3319 
L 3100 3319 
L 3100 0 
L 2597 0 
z
" transform="scale(0.015625)"/>
       <path id="ArialMT-73" d="M 197 991 
L 753 1078 
Q 800 744 1014 566 
Q 1228 388 1613 388 
Q 2000 388 2187 545 
Q 2375 703 2375 916 
Q 2375 1106 2209 1216 
Q 2094 1291 1634 1406 
Q 1016 1563 777 1677 
Q 538 1791 414 1992 
Q 291 2194 291 2438 
Q 291 2659 392 2848 
Q 494 3038 669 3163 
Q 800 3259 1026 3326 
Q 1253 3394 1513 3394 
Q 1903 3394 2198 3281 
Q 2494 3169 2634 2976 
Q 2775 2784 2828 2463 
L 2278 2388 
Q 2241 2644 2061 2787 
Q 1881 2931 1553 2931 
Q 1166 2931 1000 2803 
Q 834 2675 834 2503 
Q 834 2394 903 2306 
Q 972 2216 1119 2156 
Q 1203 2125 1616 2013 
Q 2213 1853 2448 1751 
Q 2684 1650 2818 1456 
Q 2953 1263 2953 975 
Q 2953 694 2789 445 
Q 2625 197 2315 61 
Q 2006 -75 1616 -75 
Q 969 -75 630 194 
Q 291 463 197 991 
z
" transform="scale(0.015625)"/>
       <path id="ArialMT-72" d="M 416 0 
L 416 3319 
L 922 3319 
L 922 2816 
Q 1116 3169 1280 3281 
Q 1444 3394 1641 3394 
Q 1925 3394 2219 3213 
L 2025 2691 
Q 1819 2813 1613 2813 
Q 1428 2813 1281 2702 
Q 1134 2591 1072 2394 
Q 978 2094 978 1738 
L 978 0 
L 416 0 
z
" transform="scale(0.015625)"/>
      </defs>
      <use xlink:href="#ArialMT-44"/>
      <use xlink:href="#ArialMT-61" transform="translate(72.216797 0)"/>
      <use xlink:href="#ArialMT-69" transform="translate(127.832031 0)"/>
      <use xlink:href="#ArialMT-6c" transform="translate(150.048828 0)"/>
      <use xlink:href="#ArialMT-79" transform="translate(172.265625 0)"/>
      <use xlink:href="#ArialMT-20" transform="translate(222.265625 0)"/>
      <use xlink:href="#ArialMT-63" transform="translate(250.048828 0)"/>
      <use xlink:href="#ArialMT-6c" transform="translate(300.048828 0)"/>
      <use xlink:href="#ArialMT-75" transform="translate(322.265625 0)"/>
      <use xlink:href="#ArialMT-73" transform="translate(377.880859 0)"/>
      <use xlink:href="#ArialMT-74" transform="translate(427.880859 0)"/>
      <use xlink:href="#ArialMT-65" transform="translate(455.664062 0)"/>
      <use xlink:href="#ArialMT-72" transform="translate(511.279297 0)"/>
      <use xlink:href="#ArialMT-20" transform="translate(544.580078 0)"/>
      <use xlink:href="#ArialMT-73" transform="translate(572.363281 0)"/>
      <use xlink:href="#ArialMT-61" transform="translate(622.363281 0)"/>
      <use xlink:href="#ArialMT-6c" transform="translate(677.978516 0)"/>
      <use xlink:href="#ArialMT-65" transform="translate(700.195312 0)"/>
      <use xlink:href="#ArialMT-73" transform="translate(755.810547 0)"/>
     </g>
    </g>
   </g>
   <g id="FillBetweenPolyCollection_1">
    <defs>
     <path id="m71cb6bfb8e" d="M 104.542145 -170.65299 
L 104.542145 -54.691491 
L 109.122796 -54.691491 
L 113.703447 -54.691491 
L 118.284098 -54.691491 
L 122.864749 -54.691491 
L 127.4454 -54.691491 
L 132.026051 -54.691491 
L 136.606701 -54.691491 
L 141.187352 -54.691491 
L 145.768003 -54.691491 
L 150.348654 -54.691491 
L 154.929305 -54.691491 
L 159.509956 -54.691491 
L 164.090607 -54.691491 
L 168.671258 -54.691491 
L 173.251909 -54.691491 
L 177.83256 -54.691491 
L 182.413211 -54.691491 
L 186.993862 -54.691491 
L 191.574513 -54.691491 
L 196.155164 -54.691491 
L 200.735815 -54.691491 
L 205.316466 -54.691491 
L 209.897116 -54.691491 
L 214.477767 -54.691491 
L 219.058418 -54.691491 
L 223.639069 -54.691491 
L 228.21972 -54.691491 
L 232.800371 -54.691491 
L 237.381022 -54.691491 
L 241.961673 -54.691491 
L 246.542324 -54.691491 
L 251.122975 -54.691491 
L 255.703626 -57.74716 
L 260.284277 -54.691491 
L 264.864928 -54.691491 
L 269.445579 -54.691491 
L 274.02623 -54.691491 
L 278.606881 -54.691491 
L 283.187531 -54.691491 
L 287.768182 -60.877543 
L 292.348833 -54.691491 
L 296.929484 -54.691491 
L 301.510135 -54.691491 
L 306.090786 -54.691491 
L 310.671437 -54.691491 
L 315.252088 -54.691491 
L 319.832739 -62.377266 
L 324.41339 -54.691491 
L 328.994041 -54.691491 
L 333.574692 -54.691491 
L 338.155343 -54.691491 
L 342.735994 -54.691491 
L 347.316645 -54.691491 
L 351.897296 -61.312244 
L 356.477947 -54.691491 
L 361.058597 -54.691491 
L 365.639248 -54.691491 
L 370.219899 -54.691491 
L 374.80055 -54.691491 
L 379.381201 -54.691491 
L 383.961852 -62.315576 
L 388.542503 -54.691491 
L 393.123154 -54.691491 
L 397.703805 -54.691491 
L 402.284456 -54.691491 
L 406.865107 -54.691491 
L 411.445758 -54.691491 
L 416.026409 -62.810969 
L 420.60706 -54.691491 
L 425.187711 -54.691491 
L 429.768362 -54.691491 
L 434.349012 -54.691491 
L 438.929663 -54.691491 
L 443.510314 -54.691491 
L 448.090965 -64.010712 
L 452.671616 -54.691491 
L 457.252267 -54.691491 
L 461.832918 -54.691491 
L 466.413569 -54.691491 
L 470.99422 -54.691491 
L 475.574871 -54.691491 
L 480.155522 -65.192019 
L 484.736173 -54.691491 
L 489.316824 -54.691491 
L 493.897475 -54.691491 
L 498.478126 -54.691491 
L 503.058777 -54.691491 
L 507.639427 -54.691491 
L 512.220078 -64.04209 
L 516.800729 -54.691491 
L 521.38138 -54.691491 
L 525.962031 -54.691491 
L 530.542682 -54.691491 
L 535.123333 -54.691491 
L 539.703984 -54.691491 
L 544.284635 -65.114737 
L 548.865286 -54.691491 
L 553.445937 -54.691491 
L 558.026588 -54.691491 
L 562.607239 -54.691491 
L 567.18789 -54.691491 
L 571.768541 -54.691491 
L 576.349192 -65.888985 
L 580.929843 -54.691491 
L 585.510493 -54.691491 
L 590.091144 -54.691491 
L 594.671795 -54.691491 
L 599.252446 -54.691491 
L 603.833097 -54.691491 
L 608.413748 -66.25514 
L 612.994399 -54.691491 
L 617.57505 -54.691491 
L 622.155701 -54.691491 
L 626.736352 -54.691491 
L 631.317003 -54.691491 
L 635.897654 -54.691491 
L 640.478305 -66.738653 
L 645.058956 -54.691491 
L 649.639607 -54.691491 
L 654.220258 -54.691491 
L 658.800908 -54.691491 
L 663.381559 -54.691491 
L 667.96221 -54.691491 
L 672.542861 -56.270039 
L 677.123512 -54.691491 
L 681.704163 -54.691491 
L 686.284814 -54.691491 
L 690.865465 -54.691491 
L 695.446116 -54.691491 
L 700.026767 -54.691491 
L 704.607418 -57.426464 
L 709.188069 -54.691491 
L 713.76872 -54.691491 
L 718.349371 -54.691491 
L 722.930022 -54.691491 
L 727.510673 -54.691491 
L 732.091323 -54.691491 
L 736.671974 -56.565696 
L 741.252625 -54.691491 
L 745.833276 -54.691491 
L 750.413927 -54.691491 
L 754.994578 -54.691491 
L 759.575229 -54.691491 
L 764.15588 -54.691491 
L 768.736531 -57.402803 
L 773.317182 -54.691491 
L 777.897833 -54.691491 
L 782.478484 -54.691491 
L 787.059135 -54.691491 
L 791.639786 -54.691491 
L 796.220437 -54.691491 
L 800.801088 -54.691491 
L 805.381739 -54.691491 
L 809.962389 -54.691491 
L 814.54304 -54.691491 
L 819.123691 -54.691491 
L 823.704342 -54.691491 
L 828.284993 -54.691491 
L 832.865644 -54.691491 
L 837.446295 -54.691491 
L 842.026946 -54.691491 
L 846.607597 -54.691491 
L 851.188248 -54.691491 
L 855.768899 -54.691491 
L 860.34955 -54.691491 
L 864.930201 -54.691491 
L 869.510852 -54.691491 
L 874.091503 -54.691491 
L 878.672154 -54.691491 
L 883.252804 -54.691491 
L 887.833455 -54.691491 
L 892.414106 -54.691491 
L 896.994757 -54.691491 
L 901.575408 -54.691491 
L 906.156059 -54.691491 
L 910.73671 -54.691491 
L 915.317361 -54.691491 
L 919.898012 -54.691491 
L 924.478663 -54.691491 
L 929.059314 -54.691491 
L 933.639965 -54.691491 
L 938.220616 -54.691491 
L 942.801267 -54.691491 
L 947.381918 -54.691491 
L 947.381918 -125.324871 
L 947.381918 -125.324871 
L 942.801267 -142.816088 
L 938.220616 -166.913487 
L 933.639965 -141.229359 
L 929.059314 -187.086491 
L 924.478663 -143.279241 
L 919.898012 -148.386988 
L 915.317361 -121.411392 
L 910.73671 -143.070932 
L 906.156059 -167.17374 
L 901.575408 -141.584394 
L 896.994757 -187.641259 
L 892.414106 -143.842316 
L 887.833455 -148.957324 
L 883.252804 -121.975808 
L 878.672154 -143.58032 
L 874.091503 -167.29262 
L 869.510852 -141.481154 
L 864.930201 -187.46046 
L 860.34955 -143.656112 
L 855.768899 -148.779492 
L 851.188248 -121.961997 
L 846.607597 -143.628316 
L 842.026946 -167.58087 
L 837.446295 -141.890073 
L 832.865644 -187.984648 
L 828.284993 -144.183526 
L 823.704342 -149.319954 
L 819.123691 -122.025479 
L 814.54304 -143.288903 
L 809.962389 -167.417545 
L 805.381739 -141.888969 
L 800.801088 -187.929595 
L 796.220437 -144.141383 
L 791.639786 -149.288075 
L 787.059135 -117.120905 
L 782.478484 -138.78332 
L 777.897833 -162.902612 
L 773.317182 -137.540601 
L 768.736531 -183.666694 
L 764.15588 -139.853055 
L 759.575229 -144.992836 
L 754.994578 -118.046329 
L 750.413927 -139.652629 
L 745.833276 -163.786827 
L 741.252625 -138.371213 
L 736.671974 -184.5038 
L 732.091323 -140.745312 
L 727.510673 -145.898887 
L 722.930022 -117.692352 
L 718.349371 -139.489033 
L 713.76872 -163.645926 
L 709.188069 -137.584597 
L 704.607418 -183.643033 
L 700.026767 -139.850639 
L 695.446116 -145.013144 
L 690.865465 -118.194668 
L 686.284814 -140.017324 
L 681.704163 -164.143216 
L 677.123512 -138.637624 
L 672.542861 -184.799458 
L 667.96221 -141.068806 
L 663.381559 -146.245598 
L 658.800908 -118.977406 
L 654.220258 -140.594223 
L 649.639607 -164.435255 
L 645.058956 -138.928788 
L 640.478305 -174.330844 
L 635.897654 -130.570962 
L 631.317003 -135.715237 
L 626.736352 -108.71174 
L 622.155701 -130.333203 
L 617.57505 -154.462881 
L 612.994399 -129.098617 
L 608.413748 -174.814356 
L 603.833097 -130.969041 
L 599.252446 -136.123218 
L 594.671795 -109.157822 
L 590.091144 -130.749154 
L 585.510493 -154.926056 
L 580.929843 -129.632562 
L 576.349192 -175.180512 
L 571.768541 -131.445533 
L 567.18789 -136.607438 
L 562.607239 -109.573691 
L 558.026588 -131.418694 
L 553.445937 -155.598543 
L 548.865286 -130.224015 
L 544.284635 -175.95476 
L 539.703984 -132.24976 
L 535.123333 -137.423807 
L 530.542682 -110.433943 
L 525.962031 -132.272666 
L 521.38138 -156.304596 
L 516.800729 -131.061251 
L 512.220078 -177.027407 
L 507.639427 -133.352605 
L 503.058777 -138.537813 
L 498.478126 -110.934045 
L 493.897475 -132.730051 
L 489.316824 -156.77235 
L 484.736173 -131.255233 
L 480.155522 -175.877478 
L 475.574871 -132.214308 
L 470.99422 -137.391453 
L 466.413569 -110.716584 
L 461.832918 -132.65184 
L 457.252267 -156.805667 
L 452.671616 -131.596614 
L 448.090965 -177.058785 
L 443.510314 -133.436769 
L 438.929663 -138.628809 
L 434.349012 -111.945851 
L 429.768362 -133.92314 
L 425.187711 -157.957577 
L 420.60706 -132.784326 
L 416.026409 -178.258527 
L 411.445758 -134.565887 
L 406.865107 -139.756176 
L 402.284456 -112.938135 
L 397.703805 -134.385136 
L 393.123154 -158.376288 
L 388.542503 -133.283876 
L 383.961852 -178.75392 
L 379.381201 -135.214765 
L 374.80055 -140.405317 
L 370.219899 -113.855512 
L 365.639248 -135.59215 
L 361.058597 -159.944166 
L 356.477947 -134.597532 
L 351.897296 -179.757253 
L 347.316645 -136.327173 
L 342.735994 -141.539989 
L 338.155343 -115.046126 
L 333.574692 -134.073759 
L 328.994041 -158.021616 
L 324.41339 -133.001698 
L 319.832739 -178.692231 
L 315.252088 -135.080046 
L 310.671437 -140.307559 
L 306.090786 -113.450482 
L 301.510135 -135.563596 
L 296.929484 -160.175489 
L 292.348833 -134.883439 
L 287.768182 -180.191954 
L 283.187531 -136.948931 
L 278.606881 -142.258507 
L 274.02623 -115.570249 
L 269.445579 -137.90497 
L 264.864928 -162.466845 
L 260.284277 -137.683873 
L 255.703626 -183.322337 
L 251.122975 -140.280502 
L 246.542324 -145.674853 
L 241.961673 -119.276194 
L 237.381022 -141.700667 
L 232.800371 -166.766159 
L 228.21972 -141.393949 
L 223.639069 -187.813797 
L 219.058418 -145.10492 
L 214.477767 -150.759592 
L 209.897116 -125.32495 
L 205.316466 -148.205537 
L 200.735815 -173.899997 
L 196.155164 -150.100339 
L 191.574513 -195.027171 
L 186.993862 -153.066051 
L 182.413211 -159.109791 
L 177.83256 -134.192575 
L 173.251909 -158.528491 
L 168.671258 -184.920703 
L 164.090607 -162.062355 
L 159.509956 -209.691758 
L 154.929305 -169.999873 
L 150.348654 -177.586445 
L 145.768003 -156.476533 
L 141.187352 -184.935607 
L 136.606701 -215.477535 
L 132.026051 -145.096016 
L 127.4454 -191.004993 
L 122.864749 -147.011825 
L 118.284098 -152.086387 
L 113.703447 -125.161736 
L 109.122796 -146.73492 
L 104.542145 -170.65299 
z
" style="stroke: #ff7f0e; stroke-opacity: 0.16"/>
    </defs>
    <g clip-path="url(#p94898a4eeb)">
     <use xlink:href="#m71cb6bfb8e" x="0" y="348.583594" style="fill: #ff7f0e; fill-opacity: 0.16; stroke: #ff7f0e; stroke-opacity: 0.16"/>
    </g>
   </g>
   <g id="FillBetweenPolyCollection_2">
    <defs>
     <path id="m7e18fcc12b" d="M 104.542145 -127.120474 
L 104.542145 -54.691491 
L 109.122796 -54.691491 
L 113.703447 -54.691491 
L 118.284098 -54.691491 
L 122.864749 -54.691491 
L 127.4454 -54.691491 
L 132.026051 -54.691491 
L 136.606701 -54.691491 
L 141.187352 -54.691491 
L 145.768003 -54.691491 
L 150.348654 -54.691491 
L 154.929305 -54.691491 
L 159.509956 -54.691491 
L 164.090607 -54.691491 
L 168.671258 -54.691491 
L 173.251909 -54.691491 
L 177.83256 -54.691491 
L 182.413211 -54.691491 
L 186.993862 -54.691491 
L 191.574513 -54.691491 
L 196.155164 -54.691491 
L 200.735815 -54.691491 
L 205.316466 -54.691491 
L 209.897116 -54.691491 
L 214.477767 -54.691491 
L 219.058418 -54.691491 
L 223.639069 -54.691491 
L 228.21972 -54.691491 
L 232.800371 -54.691491 
L 237.381022 -54.691491 
L 241.961673 -54.691491 
L 246.542324 -54.691491 
L 251.122975 -54.691491 
L 255.703626 -54.691491 
L 260.284277 -54.691491 
L 264.864928 -54.691491 
L 269.445579 -54.691491 
L 274.02623 -54.691491 
L 278.606881 -54.691491 
L 283.187531 -54.691491 
L 287.768182 -54.691491 
L 292.348833 -54.691491 
L 296.929484 -54.691491 
L 301.510135 -54.691491 
L 306.090786 -54.691491 
L 310.671437 -54.691491 
L 315.252088 -54.691491 
L 319.832739 -54.691491 
L 324.41339 -54.691491 
L 328.994041 -54.691491 
L 333.574692 -54.691491 
L 338.155343 -54.691491 
L 342.735994 -54.691491 
L 347.316645 -54.691491 
L 351.897296 -54.691491 
L 356.477947 -54.691491 
L 361.058597 -54.691491 
L 365.639248 -54.691491 
L 370.219899 -54.691491 
L 374.80055 -54.691491 
L 379.381201 -54.691491 
L 383.961852 -54.691491 
L 388.542503 -54.691491 
L 393.123154 -54.691491 
L 397.703805 -54.691491 
L 402.284456 -54.691491 
L 406.865107 -54.691491 
L 411.445758 -54.691491 
L 416.026409 -54.691491 
L 420.60706 -54.691491 
L 425.187711 -54.691491 
L 429.768362 -54.691491 
L 434.349012 -54.691491 
L 438.929663 -54.691491 
L 443.510314 -54.691491 
L 448.090965 -54.691491 
L 452.671616 -54.691491 
L 457.252267 -54.691491 
L 461.832918 -54.691491 
L 466.413569 -54.691491 
L 470.99422 -54.691491 
L 475.574871 -54.691491 
L 480.155522 -54.691491 
L 484.736173 -54.691491 
L 489.316824 -54.691491 
L 493.897475 -54.691491 
L 498.478126 -54.691491 
L 503.058777 -54.691491 
L 507.639427 -54.691491 
L 512.220078 -55.719851 
L 516.800729 -55.655102 
L 521.38138 -55.179113 
L 525.962031 -54.691491 
L 530.542682 -54.691491 
L 535.123333 -54.691491 
L 539.703984 -54.691491 
L 544.284635 -55.557159 
L 548.865286 -54.691491 
L 553.445937 -55.476866 
L 558.026588 -55.634102 
L 562.607239 -54.691491 
L 567.18789 -54.691491 
L 571.768541 -54.691491 
L 576.349192 -56.156466 
L 580.929843 -55.46977 
L 585.510493 -56.742787 
L 590.091144 -54.691491 
L 594.671795 -54.691491 
L 599.252446 -54.691491 
L 603.833097 -54.691491 
L 608.413748 -58.461173 
L 612.994399 -58.178463 
L 617.57505 -59.557076 
L 622.155701 -56.145543 
L 626.736352 -54.691491 
L 631.317003 -54.691491 
L 635.897654 -54.691491 
L 640.478305 -62.656997 
L 645.058956 -54.691491 
L 649.639607 -54.691491 
L 654.220258 -54.691491 
L 658.800908 -54.691491 
L 663.381559 -54.691491 
L 667.96221 -54.691491 
L 672.542861 -54.691491 
L 677.123512 -54.691491 
L 681.704163 -54.691491 
L 686.284814 -54.691491 
L 690.865465 -54.691491 
L 695.446116 -54.691491 
L 700.026767 -54.691491 
L 704.607418 -54.691491 
L 709.188069 -54.691491 
L 713.76872 -54.691491 
L 718.349371 -54.691491 
L 722.930022 -54.691491 
L 727.510673 -54.691491 
L 732.091323 -54.691491 
L 736.671974 -54.691491 
L 741.252625 -54.691491 
L 745.833276 -54.691491 
L 750.413927 -54.691491 
L 754.994578 -54.691491 
L 759.575229 -54.691491 
L 764.15588 -54.691491 
L 768.736531 -54.691491 
L 773.317182 -54.691491 
L 777.897833 -54.691491 
L 782.478484 -54.691491 
L 787.059135 -54.691491 
L 791.639786 -54.691491 
L 796.220437 -54.691491 
L 800.801088 -54.691491 
L 805.381739 -54.691491 
L 809.962389 -54.691491 
L 814.54304 -54.691491 
L 819.123691 -54.691491 
L 823.704342 -54.691491 
L 828.284993 -54.691491 
L 832.865644 -54.691491 
L 837.446295 -54.691491 
L 842.026946 -54.691491 
L 846.607597 -54.691491 
L 851.188248 -54.691491 
L 855.768899 -54.691491 
L 860.34955 -54.691491 
L 864.930201 -54.691491 
L 869.510852 -54.691491 
L 874.091503 -54.691491 
L 878.672154 -54.691491 
L 883.252804 -54.691491 
L 887.833455 -54.691491 
L 892.414106 -54.691491 
L 896.994757 -54.691491 
L 901.575408 -54.691491 
L 906.156059 -54.691491 
L 910.73671 -65.177875 
L 915.317361 -54.691491 
L 919.898012 -54.691491 
L 924.478663 -54.691491 
L 929.059314 -73.04946 
L 933.639965 -70.616368 
L 938.220616 -70.759726 
L 942.801267 -72.623405 
L 947.381918 -54.691491 
L 947.381918 -146.896739 
L 947.381918 -146.896739 
L 942.801267 -172.318333 
L 938.220616 -170.630248 
L 933.639965 -170.762201 
L 929.059314 -172.928753 
L 924.478663 -148.388073 
L 919.898012 -104.77944 
L 915.317361 -147.130779 
L 910.73671 -165.822804 
L 906.156059 -149.992763 
L 901.575408 -146.283891 
L 896.994757 -154.537967 
L 892.414106 -141.204778 
L 887.833455 -105.655375 
L 883.252804 -143.150013 
L 878.672154 -147.573922 
L 874.091503 -153.901926 
L 869.510852 -148.266429 
L 864.930201 -153.247535 
L 860.34955 -141.023436 
L 855.768899 -106.044168 
L 851.188248 -142.736836 
L 846.607597 -147.767932 
L 842.026946 -153.011778 
L 837.446295 -147.569975 
L 832.865644 -155.108438 
L 828.284993 -140.255448 
L 823.704342 -106.646579 
L 819.123691 -143.70524 
L 814.54304 -149.401863 
L 809.962389 -154.802024 
L 805.381739 -149.954479 
L 800.801088 -155.403662 
L 796.220437 -140.98199 
L 791.639786 -107.516911 
L 787.059135 -141.844899 
L 782.478484 -147.028977 
L 777.897833 -146.756311 
L 773.317182 -147.877895 
L 768.736531 -143.4592 
L 764.15588 -135.193162 
L 759.575229 -104.420803 
L 754.994578 -140.758433 
L 750.413927 -144.721891 
L 745.833276 -146.40692 
L 741.252625 -142.90889 
L 736.671974 -146.591168 
L 732.091323 -138.826475 
L 727.510673 -105.513544 
L 722.930022 -140.721269 
L 718.349371 -145.811764 
L 713.76872 -147.613907 
L 709.188069 -141.987741 
L 704.607418 -148.393874 
L 700.026767 -136.567157 
L 695.446116 -105.861041 
L 690.865465 -142.058933 
L 686.284814 -144.881576 
L 681.704163 -149.610105 
L 677.123512 -143.399617 
L 672.542861 -149.844437 
L 667.96221 -137.581378 
L 663.381559 -106.957106 
L 658.800908 -143.32552 
L 654.220258 -149.978586 
L 649.639607 -153.961547 
L 645.058956 -149.791551 
L 640.478305 -134.421858 
L 635.897654 -120.473533 
L 631.317003 -90.828441 
L 626.736352 -121.794791 
L 622.155701 -129.037528 
L 617.57505 -132.680859 
L 612.994399 -131.505553 
L 608.413748 -131.87973 
L 603.833097 -120.486309 
L 599.252446 -91.722477 
L 594.671795 -123.913872 
L 590.091144 -128.962448 
L 585.510493 -131.762708 
L 580.929843 -130.420264 
L 576.349192 -131.04372 
L 571.768541 -120.50697 
L 567.18789 -92.360462 
L 562.607239 -124.291602 
L 558.026588 -131.402718 
L 553.445937 -131.594046 
L 548.865286 -130.978486 
L 544.284635 -132.207515 
L 539.703984 -120.675865 
L 535.123333 -93.40068 
L 530.542682 -125.213896 
L 525.962031 -132.632749 
L 521.38138 -133.127619 
L 516.800729 -133.231376 
L 512.220078 -133.694185 
L 507.639427 -121.548502 
L 503.058777 -93.991183 
L 498.478126 -123.830635 
L 493.897475 -131.460201 
L 489.316824 -132.246352 
L 484.736173 -131.369021 
L 480.155522 -129.791062 
L 475.574871 -121.005003 
L 470.99422 -94.157866 
L 466.413569 -124.266156 
L 461.832918 -131.093871 
L 457.252267 -131.982254 
L 452.671616 -131.795291 
L 448.090965 -131.025938 
L 443.510314 -120.386809 
L 438.929663 -94.577622 
L 434.349012 -123.894802 
L 429.768362 -130.750732 
L 425.187711 -131.957315 
L 420.60706 -131.813934 
L 416.026409 -131.063963 
L 411.445758 -118.877728 
L 406.865107 -94.720733 
L 402.284456 -123.475991 
L 397.703805 -130.689163 
L 393.123154 -131.535109 
L 388.542503 -130.537337 
L 383.961852 -130.290874 
L 379.381201 -118.896705 
L 374.80055 -94.991798 
L 370.219899 -122.537266 
L 365.639248 -130.495243 
L 361.058597 -131.027119 
L 356.477947 -128.61406 
L 351.897296 -127.502203 
L 347.316645 -119.169802 
L 342.735994 -96.603349 
L 338.155343 -121.491453 
L 333.574692 -126.347929 
L 328.994041 -127.373997 
L 324.41339 -125.301248 
L 319.832739 -124.876355 
L 315.252088 -116.600906 
L 310.671437 -95.971706 
L 306.090786 -119.702435 
L 301.510135 -126.86535 
L 296.929484 -127.83938 
L 292.348833 -127.203414 
L 287.768182 -127.575764 
L 283.187531 -116.807858 
L 278.606881 -99.125959 
L 274.02623 -120.864001 
L 269.445579 -128.25067 
L 264.864928 -129.164934 
L 260.284277 -128.623549 
L 255.703626 -129.709513 
L 251.122975 -118.74914 
L 246.542324 -103.164605 
L 241.961673 -122.871258 
L 237.381022 -130.137298 
L 232.800371 -132.864346 
L 228.21972 -132.929139 
L 223.639069 -134.689966 
L 219.058418 -124.099183 
L 214.477767 -109.134019 
L 209.897116 -125.444577 
L 205.316466 -132.880472 
L 200.735815 -137.145202 
L 196.155164 -136.641958 
L 191.574513 -140.249909 
L 186.993862 -130.070257 
L 182.413211 -117.357325 
L 177.83256 -132.513293 
L 173.251909 -140.907285 
L 168.671258 -144.339036 
L 164.090607 -145.648115 
L 159.509956 -153.521364 
L 154.929305 -144.75895 
L 150.348654 -136.420877 
L 145.768003 -150.423326 
L 141.187352 -163.964495 
L 136.606701 -171.240281 
L 132.026051 -125.560571 
L 127.4454 -138.328228 
L 122.864749 -119.172192 
L 118.284098 -107.109656 
L 113.703447 -113.976449 
L 109.122796 -123.359535 
L 104.542145 -127.120474 
z
" style="stroke: #2ca02c; stroke-opacity: 0.16"/>
    </defs>
    <g clip-path="url(#p94898a4eeb)">
     <use xlink:href="#m7e18fcc12b" x="0" y="348.583594" style="fill: #2ca02c; fill-opacity: 0.16; stroke: #2ca02c; stroke-opacity: 0.16"/>
    </g>
   </g>
   <g id="line2d_16">
    <path d="M 104.542145 277.450452 
L 109.122796 227.380527 
L 113.703447 280.562267 
L 118.284098 293.892102 
L 122.864749 280.239559 
L 127.4454 267.65905 
L 132.026051 146.1845 
L 136.606701 266.06368 
L 141.187352 256.291773 
L 145.768003 286.728359 
L 150.348654 293.892102 
L 154.929305 271.680316 
L 159.509956 257.782098 
L 164.090607 250.324416 
L 168.671258 264.194622 
L 173.251909 265.493215 
L 177.83256 272.207248 
L 182.413211 293.892102 
L 186.993862 279.323863 
L 191.574513 274.104508 
L 196.155164 263.453245 
L 200.735815 248.887655 
L 205.316466 255.326866 
L 209.897116 285.907488 
L 214.477767 293.892102 
L 219.058418 281.801618 
L 223.639069 255.836575 
L 228.21972 243.511962 
L 232.800371 256.001809 
L 237.381022 255.985532 
L 241.961673 269.983685 
L 246.542324 293.892102 
L 255.703626 265.3153 
L 260.284277 261.972194 
L 264.864928 266.566196 
L 269.445579 263.041579 
L 274.02623 268.595377 
L 278.606881 293.892102 
L 283.187531 267.268015 
L 287.768182 270.609985 
L 292.348833 251.181817 
L 296.929484 244.207535 
L 301.510135 259.343968 
L 306.090786 266.218315 
L 310.671437 293.892102 
L 315.252088 253.879695 
L 319.832739 263.537092 
L 324.41339 264.822058 
L 328.994041 278.560909 
L 333.574692 204.151595 
L 338.155343 277.923252 
L 342.735994 293.892102 
L 347.316645 270.107469 
L 351.897296 275.516285 
L 356.477947 251.075068 
L 361.058597 262.693319 
L 365.639248 248.153092 
L 370.219899 278.843113 
L 374.80055 293.892102 
L 379.381201 281.178725 
L 383.961852 270.582919 
L 388.542503 280.089088 
L 393.123154 277.603005 
L 397.703805 240.706577 
L 402.284456 269.401296 
L 406.865107 293.892102 
L 411.445758 290.22856 
L 416.026409 272.183022 
L 420.60706 267.364922 
L 425.187711 275.927951 
L 429.768362 272.346363 
L 434.349012 278.127098 
L 438.929663 293.892102 
L 443.510314 280.476716 
L 448.090965 273.851451 
L 452.671616 269.371391 
L 457.252267 234.251089 
L 461.832918 274.267849 
L 466.413569 281.27355 
L 470.99422 293.892102 
L 475.574871 281.102827 
L 480.155522 293.892102 
L 484.736173 250.630279 
L 489.316824 275.146069 
L 493.897475 259.595321 
L 498.478126 246.904278 
L 503.058777 293.892102 
L 507.639427 279.211057 
L 512.220078 257.764307 
L 516.800729 279.156736 
L 521.38138 275.050677 
L 525.962031 265.997813 
L 530.542682 266.255033 
L 535.123333 293.892102 
L 539.703984 271.856149 
L 544.284635 267.990844 
L 548.865286 260.901484 
L 553.445937 260.230706 
L 558.026588 271.766813 
L 562.607239 264.633354 
L 567.18789 293.892102 
L 571.768541 281.786666 
L 576.349192 275.105565 
L 580.929843 276.142585 
L 585.510493 250.035777 
L 590.091144 249.730103 
L 594.671795 267.905671 
L 599.252446 293.892102 
L 603.833097 258.228401 
L 608.413748 269.068557 
L 612.994399 265.173724 
L 617.57505 262.445563 
L 622.155701 251.726162 
L 626.736352 265.877626 
L 631.317003 293.892102 
L 635.897654 275.329095 
L 640.478305 34.746648 
L 645.058956 246.412928 
L 649.639607 213.01954 
L 654.220258 243.793787 
L 658.800908 245.363606 
L 663.381559 293.892102 
L 667.96221 274.388604 
L 672.542861 234.56509 
L 677.123512 245.877479 
L 681.704163 263.401574 
L 686.284814 270.509671 
L 690.865465 270.376613 
L 695.446116 293.892102 
L 700.026767 259.510338 
L 704.607418 248.975667 
L 709.188069 218.121926 
L 713.76872 250.08177 
L 718.349371 265.500596 
L 722.930022 211.996716 
L 727.510673 293.892102 
L 732.091323 272.868564 
L 736.671974 234.604459 
L 741.252625 254.035087 
L 745.833276 241.270796 
L 750.413927 242.461504 
L 754.994578 259.803898 
L 759.575229 293.892102 
L 764.15588 257.972695 
L 768.736531 225.666105 
L 773.317182 263.692484 
L 777.897833 240.32387 
L 782.478484 247.612343 
L 787.059135 127.05841 
L 791.639786 293.892102 
L 796.220437 260.44799 
L 800.801088 248.523307 
L 805.381739 240.444814 
L 809.962389 240.198951 
L 814.54304 217.139984 
L 819.123691 235.092023 
L 823.704342 293.892102 
L 828.284993 258.7171 
L 832.865644 213.561047 
L 837.446295 227.606518 
L 842.026946 214.30072 
L 846.607597 243.926845 
L 851.188248 267.085557 
L 855.768899 293.892102 
L 860.34955 259.87885 
L 864.930201 252.741794 
L 869.510852 219.587835 
L 874.091503 196.361742 
L 878.672154 237.319182 
L 883.252804 251.262068 
L 887.833455 293.892102 
L 892.414106 265.221232 
L 896.994757 241.179567 
L 901.575408 233.39047 
L 906.156059 251.169893 
L 910.73671 243.367358 
L 915.317361 251.562632 
L 919.898012 293.892102 
L 924.478663 270.324942 
L 929.059314 185.634203 
L 933.639965 225.54005 
L 938.220616 238.870453 
L 942.801267 100.676023 
L 947.381918 249.923539 
L 947.381918 249.923539 
" clip-path="url(#p94898a4eeb)" style="fill: none; stroke: #1f77b4; stroke-width: 2.2; stroke-linecap: round"/>
   </g>
   <g id="line2d_17">
    <path d="M 104.542145 248.400849 
L 109.122796 272.318918 
L 113.703447 293.892102 
L 118.284098 266.967451 
L 122.864749 272.042013 
L 127.4454 228.048845 
L 132.026051 273.957823 
L 136.606701 248.400849 
L 141.187352 272.318918 
L 145.768003 293.892102 
L 150.348654 266.967451 
L 154.929305 272.042013 
L 159.509956 228.048845 
L 164.090607 273.957823 
L 168.671258 248.400849 
L 173.251909 272.318918 
L 177.83256 293.892102 
L 182.413211 266.967451 
L 186.993862 272.042013 
L 191.574513 228.048845 
L 196.155164 273.957823 
L 200.735815 248.400849 
L 205.316466 272.318918 
L 209.897116 293.892102 
L 214.477767 266.967451 
L 219.058418 272.042013 
L 223.639069 228.048845 
L 228.21972 273.957823 
L 232.800371 248.400849 
L 237.381022 272.318918 
L 241.961673 293.892102 
L 246.542324 266.967451 
L 251.122975 272.042013 
L 255.703626 228.048845 
L 260.284277 273.957823 
L 264.864928 248.400849 
L 269.445579 272.318918 
L 274.02623 293.892102 
L 278.606881 266.967451 
L 283.187531 272.042013 
L 287.768182 228.048845 
L 292.348833 273.957823 
L 296.929484 248.400849 
L 301.510135 272.318918 
L 306.090786 293.892102 
L 310.671437 266.967451 
L 315.252088 272.042013 
L 319.832739 228.048845 
L 324.41339 273.957823 
L 328.994041 248.400849 
L 333.574692 272.318918 
L 338.155343 293.892102 
L 342.735994 266.967451 
L 347.316645 272.042013 
L 351.897296 228.048845 
L 356.477947 273.957823 
L 361.058597 248.400849 
L 365.639248 272.318918 
L 370.219899 293.892102 
L 374.80055 266.967451 
L 379.381201 272.042013 
L 383.961852 228.048845 
L 388.542503 273.957823 
L 393.123154 248.400849 
L 397.703805 272.318918 
L 402.284456 293.892102 
L 406.865107 266.967451 
L 411.445758 272.042013 
L 416.026409 228.048845 
L 420.60706 273.957823 
L 425.187711 248.400849 
L 429.768362 272.318918 
L 434.349012 293.892102 
L 438.929663 266.967451 
L 443.510314 272.042013 
L 448.090965 228.048845 
L 452.671616 273.957823 
L 457.252267 248.400849 
L 461.832918 272.318918 
L 466.413569 293.892102 
L 470.99422 266.967451 
L 475.574871 272.042013 
L 480.155522 228.048845 
L 484.736173 273.957823 
L 489.316824 248.400849 
L 493.897475 272.318918 
L 498.478126 293.892102 
L 503.058777 266.967451 
L 507.639427 272.042013 
L 512.220078 228.048845 
L 516.800729 273.957823 
L 521.38138 248.400849 
L 525.962031 272.318918 
L 530.542682 293.892102 
L 535.123333 266.967451 
L 539.703984 272.042013 
L 544.284635 228.048845 
L 548.865286 273.957823 
L 553.445937 248.400849 
L 558.026588 272.318918 
L 562.607239 293.892102 
L 567.18789 266.967451 
L 571.768541 272.042013 
L 576.349192 228.048845 
L 580.929843 273.957823 
L 585.510493 248.400849 
L 590.091144 272.318918 
L 594.671795 293.892102 
L 599.252446 266.967451 
L 603.833097 272.042013 
L 608.413748 228.048845 
L 612.994399 273.957823 
L 617.57505 248.400849 
L 622.155701 272.318918 
L 626.736352 293.892102 
L 631.317003 266.967451 
L 635.897654 272.042013 
L 640.478305 228.048845 
L 645.058956 273.957823 
L 649.639607 248.400849 
L 654.220258 272.318918 
L 658.800908 293.892102 
L 663.381559 266.967451 
L 667.96221 272.042013 
L 672.542861 228.048845 
L 677.123512 273.957823 
L 681.704163 248.400849 
L 686.284814 272.318918 
L 690.865465 293.892102 
L 695.446116 266.967451 
L 700.026767 272.042013 
L 704.607418 228.048845 
L 709.188069 273.957823 
L 713.76872 248.400849 
L 718.349371 272.318918 
L 722.930022 293.892102 
L 727.510673 266.967451 
L 732.091323 272.042013 
L 736.671974 228.048845 
L 741.252625 273.957823 
L 745.833276 248.400849 
L 750.413927 272.318918 
L 754.994578 293.892102 
L 759.575229 266.967451 
L 764.15588 272.042013 
L 768.736531 228.048845 
L 773.317182 273.957823 
L 777.897833 248.400849 
L 782.478484 272.318918 
L 787.059135 293.892102 
L 791.639786 266.967451 
L 796.220437 272.042013 
L 800.801088 228.048845 
L 805.381739 273.957823 
L 809.962389 248.400849 
L 814.54304 272.318918 
L 819.123691 293.892102 
L 823.704342 266.967451 
L 828.284993 272.042013 
L 832.865644 228.048845 
L 837.446295 273.957823 
L 842.026946 248.400849 
L 846.607597 272.318918 
L 851.188248 293.892102 
L 855.768899 266.967451 
L 860.34955 272.042013 
L 864.930201 228.048845 
L 869.510852 273.957823 
L 874.091503 248.400849 
L 878.672154 272.318918 
L 883.252804 293.892102 
L 887.833455 266.967451 
L 892.414106 272.042013 
L 896.994757 228.048845 
L 901.575408 273.957823 
L 906.156059 248.400849 
L 910.73671 272.318918 
L 915.317361 293.892102 
L 919.898012 266.967451 
L 924.478663 272.042013 
L 929.059314 228.048845 
L 933.639965 273.957823 
L 938.220616 248.400849 
L 942.801267 272.318918 
L 947.381918 293.892102 
L 947.381918 293.892102 
" clip-path="url(#p94898a4eeb)" style="fill: none; stroke: #ff7f0e; stroke-width: 1.8; stroke-linecap: round"/>
   </g>
   <g id="line2d_18">
    <path d="M 104.542145 273.881285 
L 109.122796 277.642224 
L 113.703447 287.025309 
L 118.284098 293.892102 
L 122.864749 281.829567 
L 127.4454 262.673531 
L 132.026051 275.441187 
L 136.606701 274.481305 
L 141.187352 275.333812 
L 145.768003 283.064509 
L 150.348654 293.892102 
L 154.929305 282.280837 
L 159.509956 269.998582 
L 164.090607 274.745391 
L 168.671258 273.336475 
L 173.251909 274.400996 
L 177.83256 280.662864 
L 182.413211 293.892102 
L 186.993862 279.770891 
L 191.574513 268.242015 
L 196.155164 270.936341 
L 200.735815 268.997972 
L 205.316466 271.948246 
L 209.897116 278.105044 
L 214.477767 293.892102 
L 219.058418 278.016863 
L 223.639069 266.707748 
L 228.21972 267.443867 
L 232.800371 266.743648 
L 237.381022 268.553671 
L 241.961673 274.948567 
L 246.542324 293.892102 
L 251.122975 277.695286 
L 255.703626 266.206247 
L 260.284277 266.694576 
L 264.864928 265.504154 
L 269.445579 265.914299 
L 274.02623 272.72642 
L 278.606881 293.892102 
L 283.187531 275.731685 
L 287.768182 264.398139 
L 292.348833 264.497893 
L 296.929484 263.350743 
L 301.510135 263.916529 
L 306.090786 270.611906 
L 310.671437 293.892102 
L 315.252088 272.890684 
L 319.832739 264.266615 
L 324.41339 263.481812 
L 328.994041 261.096656 
L 333.574692 262.386696 
L 338.155343 269.125365 
L 342.735994 293.892102 
L 347.316645 270.992085 
L 351.897296 262.320682 
L 356.477947 261.233989 
L 361.058597 258.446888 
L 365.639248 258.744 
L 370.219899 266.348705 
L 374.80055 293.892102 
L 379.381201 269.693326 
L 383.961852 258.255507 
L 388.542503 257.982777 
L 393.123154 257.311443 
L 397.703805 258.376537 
L 402.284456 265.369115 
L 406.865107 293.892102 
L 411.445758 269.458474 
L 416.026409 257.488494 
L 420.60706 256.734811 
L 425.187711 256.478567 
L 429.768362 257.812477 
L 434.349012 264.637437 
L 438.929663 293.892102 
L 443.510314 267.821054 
L 448.090965 257.099263 
L 452.671616 256.342726 
L 457.252267 256.07343 
L 461.832918 256.913718 
L 466.413569 263.76434 
L 470.99422 293.892102 
L 475.574871 266.803934 
L 480.155522 257.958892 
L 484.736173 257.032433 
L 489.316824 255.923156 
L 493.897475 256.745005 
L 498.478126 264.155984 
L 503.058777 293.892102 
L 507.639427 266.111581 
L 512.220078 253.876576 
L 521.38138 254.430228 
L 525.962031 254.981786 
L 530.542682 262.272821 
L 535.123333 293.892102 
L 539.703984 266.411537 
L 544.284635 254.701257 
L 548.865286 255.841175 
L 553.445937 255.048138 
L 558.026588 255.065184 
L 562.607239 262.144956 
L 567.18789 293.892102 
L 571.768541 265.559015 
L 576.349192 254.983501 
L 580.929843 255.638577 
L 585.510493 254.330846 
L 590.091144 256.959892 
L 594.671795 261.855009 
L 599.252446 293.892102 
L 603.833097 264.956481 
L 608.413748 253.413142 
L 612.994399 253.741586 
L 617.57505 252.464626 
L 622.155701 255.992059 
L 626.736352 263.08147 
L 631.317003 293.892102 
L 635.897654 264.089552 
L 640.478305 250.044167 
L 645.058956 251.577105 
L 649.639607 247.186488 
L 654.220258 251.267381 
L 658.800908 257.709378 
L 663.381559 293.892102 
L 667.96221 263.054645 
L 672.542861 250.634157 
L 677.123512 256.927465 
L 681.704163 250.532803 
L 686.284814 255.123689 
L 690.865465 257.833409 
L 695.446116 293.892102 
L 700.026767 262.988306 
L 704.607418 250.965905 
L 709.188069 257.177867 
L 713.76872 251.75409 
L 718.349371 253.365025 
L 722.930022 258.324085 
L 727.510673 293.892102 
L 732.091323 260.393556 
L 736.671974 252.504463 
L 741.252625 256.07051 
L 745.833276 252.390904 
L 750.413927 253.917115 
L 754.994578 257.724832 
L 759.575229 293.892102 
L 764.15588 262.947194 
L 768.736531 254.510497 
L 773.317182 250.106891 
L 777.897833 251.12887 
L 782.478484 250.706289 
L 787.059135 255.7241 
L 791.639786 293.892102 
L 796.220437 260.253494 
L 800.801088 245.660319 
L 805.381739 250.945961 
L 809.962389 245.939407 
L 814.54304 251.171262 
L 819.123691 256.922239 
L 823.704342 293.892102 
L 828.284993 260.120757 
L 832.865644 245.104837 
L 837.446295 252.66143 
L 842.026946 247.161993 
L 846.607597 252.437201 
L 851.188248 257.313044 
L 855.768899 293.892102 
L 860.34955 258.75987 
L 864.930201 246.38652 
L 869.510852 251.238098 
L 874.091503 245.621929 
L 878.672154 252.251372 
L 883.252804 256.54788 
L 887.833455 293.892102 
L 892.414106 258.197889 
L 896.994757 244.745651 
L 901.575408 252.853132 
L 906.156059 249.048222 
L 910.73671 233.083254 
L 915.317361 251.678973 
L 919.898012 293.892102 
L 924.478663 250.146607 
L 929.059314 225.594487 
L 933.639965 227.894309 
L 938.220616 227.888607 
L 942.801267 226.112725 
L 947.381918 254.390636 
L 947.381918 254.390636 
" clip-path="url(#p94898a4eeb)" style="fill: none; stroke: #2ca02c; stroke-width: 1.8; stroke-linecap: round"/>
   </g>
   <g id="patch_3">
    <path d="M 62.400156 306.849375 
L 62.400156 21.789375 
" style="fill: none; stroke: #cccccc; stroke-width: 1.25; stroke-linejoin: miter; stroke-linecap: square"/>
   </g>
   <g id="patch_4">
    <path d="M 989.523906 306.849375 
L 989.523906 21.789375 
" style="fill: none; stroke: #cccccc; stroke-width: 1.25; stroke-linejoin: miter; stroke-linecap: square"/>
   </g>
   <g id="patch_5">
    <path d="M 62.400156 306.849375 
L 989.523906 306.849375 
" style="fill: none; stroke: #cccccc; stroke-width: 1.25; stroke-linejoin: miter; stroke-linecap: square"/>
   </g>
   <g id="patch_6">
    <path d="M 62.400156 21.789375 
L 989.523906 21.789375 
" style="fill: none; stroke: #cccccc; stroke-width: 1.25; stroke-linejoin: miter; stroke-linecap: square"/>
   </g>
   <g id="text_18">
    <!-- Cluster 3: Actual vs Forecast with 95% Prediction Intervals -->
    <g style="fill: #262626" transform="translate(358.810469 15.789375) scale(0.12 -0.12)">
     <defs>
      <path id="Arial-BoldMT-43" d="M 3397 1684 
L 4294 1400 
Q 4088 650 3608 286 
Q 3128 -78 2391 -78 
Q 1478 -78 890 545 
Q 303 1169 303 2250 
Q 303 3394 893 4026 
Q 1484 4659 2447 4659 
Q 3288 4659 3813 4163 
Q 4125 3869 4281 3319 
L 3366 3100 
Q 3284 3456 3026 3662 
Q 2769 3869 2400 3869 
Q 1891 3869 1573 3503 
Q 1256 3138 1256 2319 
Q 1256 1450 1568 1081 
Q 1881 713 2381 713 
Q 2750 713 3015 947 
Q 3281 1181 3397 1684 
z
" transform="scale(0.015625)"/>
      <path id="Arial-BoldMT-6c" d="M 459 0 
L 459 4581 
L 1338 4581 
L 1338 0 
L 459 0 
z
" transform="scale(0.015625)"/>
      <path id="Arial-BoldMT-75" d="M 2644 0 
L 2644 497 
Q 2463 231 2167 78 
Q 1872 -75 1544 -75 
Q 1209 -75 943 72 
Q 678 219 559 484 
Q 441 750 441 1219 
L 441 3319 
L 1319 3319 
L 1319 1794 
Q 1319 1094 1367 936 
Q 1416 778 1544 686 
Q 1672 594 1869 594 
Q 2094 594 2272 717 
Q 2450 841 2515 1023 
Q 2581 1206 2581 1919 
L 2581 3319 
L 3459 3319 
L 3459 0 
L 2644 0 
z
" transform="scale(0.015625)"/>
      <path id="Arial-BoldMT-73" d="M 150 947 
L 1031 1081 
Q 1088 825 1259 692 
Q 1431 559 1741 559 
Q 2081 559 2253 684 
Q 2369 772 2369 919 
Q 2369 1019 2306 1084 
Q 2241 1147 2013 1200 
Q 950 1434 666 1628 
Q 272 1897 272 2375 
Q 272 2806 612 3100 
Q 953 3394 1669 3394 
Q 2350 3394 2681 3172 
Q 3013 2950 3138 2516 
L 2309 2363 
Q 2256 2556 2107 2659 
Q 1959 2763 1684 2763 
Q 1338 2763 1188 2666 
Q 1088 2597 1088 2488 
Q 1088 2394 1175 2328 
Q 1294 2241 1995 2081 
Q 2697 1922 2975 1691 
Q 3250 1456 3250 1038 
Q 3250 581 2869 253 
Q 2488 -75 1741 -75 
Q 1063 -75 667 200 
Q 272 475 150 947 
z
" transform="scale(0.015625)"/>
      <path id="Arial-BoldMT-74" d="M 1981 3319 
L 1981 2619 
L 1381 2619 
L 1381 1281 
Q 1381 875 1398 808 
Q 1416 741 1477 697 
Q 1538 653 1625 653 
Q 1747 653 1978 738 
L 2053 56 
Q 1747 -75 1359 -75 
Q 1122 -75 931 4 
Q 741 84 652 211 
Q 563 338 528 553 
Q 500 706 500 1172 
L 500 2619 
L 97 2619 
L 97 3319 
L 500 3319 
L 500 3978 
L 1381 4491 
L 1381 3319 
L 1981 3319 
z
" transform="scale(0.015625)"/>
      <path id="Arial-BoldMT-65" d="M 2381 1056 
L 3256 909 
Q 3088 428 2723 176 
Q 2359 -75 1813 -75 
Q 947 -75 531 491 
Q 203 944 203 1634 
Q 203 2459 634 2926 
Q 1066 3394 1725 3394 
Q 2466 3394 2894 2905 
Q 3322 2416 3303 1406 
L 1103 1406 
Q 1113 1016 1316 798 
Q 1519 581 1822 581 
Q 2028 581 2168 693 
Q 2309 806 2381 1056 
z
M 2431 1944 
Q 2422 2325 2234 2523 
Q 2047 2722 1778 2722 
Q 1491 2722 1303 2513 
Q 1116 2303 1119 1944 
L 2431 1944 
z
" transform="scale(0.015625)"/>
      <path id="Arial-BoldMT-72" d="M 1300 0 
L 422 0 
L 422 3319 
L 1238 3319 
L 1238 2847 
Q 1447 3181 1614 3287 
Q 1781 3394 1994 3394 
Q 2294 3394 2572 3228 
L 2300 2463 
Q 2078 2606 1888 2606 
Q 1703 2606 1575 2504 
Q 1447 2403 1373 2137 
Q 1300 1872 1300 1025 
L 1300 0 
z
" transform="scale(0.015625)"/>
      <path id="Arial-BoldMT-20" transform="scale(0.015625)"/>
      <path id="Arial-BoldMT-33" d="M 241 1216 
L 1091 1319 
Q 1131 994 1309 822 
Q 1488 650 1741 650 
Q 2013 650 2198 856 
Q 2384 1063 2384 1413 
Q 2384 1744 2206 1937 
Q 2028 2131 1772 2131 
Q 1603 2131 1369 2066 
L 1466 2781 
Q 1822 2772 2009 2936 
Q 2197 3100 2197 3372 
Q 2197 3603 2059 3740 
Q 1922 3878 1694 3878 
Q 1469 3878 1309 3722 
Q 1150 3566 1116 3266 
L 306 3403 
Q 391 3819 561 4067 
Q 731 4316 1036 4458 
Q 1341 4600 1719 4600 
Q 2366 4600 2756 4188 
Q 3078 3850 3078 3425 
Q 3078 2822 2419 2463 
Q 2813 2378 3048 2084 
Q 3284 1791 3284 1375 
Q 3284 772 2843 347 
Q 2403 -78 1747 -78 
Q 1125 -78 715 280 
Q 306 638 241 1216 
z
" transform="scale(0.015625)"/>
      <path id="Arial-BoldMT-3a" d="M 628 2441 
L 628 3319 
L 1506 3319 
L 1506 2441 
L 628 2441 
z
M 628 0 
L 628 878 
L 1506 878 
L 1506 0 
L 628 0 
z
" transform="scale(0.015625)"/>
      <path id="Arial-BoldMT-41" d="M 4597 0 
L 3591 0 
L 3191 1041 
L 1359 1041 
L 981 0 
L 0 0 
L 1784 4581 
L 2763 4581 
L 4597 0 
z
M 2894 1813 
L 2263 3513 
L 1644 1813 
L 2894 1813 
z
" transform="scale(0.015625)"/>
      <path id="Arial-BoldMT-63" d="M 3353 2338 
L 2488 2181 
Q 2444 2441 2289 2572 
Q 2134 2703 1888 2703 
Q 1559 2703 1364 2476 
Q 1169 2250 1169 1719 
Q 1169 1128 1367 884 
Q 1566 641 1900 641 
Q 2150 641 2309 783 
Q 2469 925 2534 1272 
L 3397 1125 
Q 3263 531 2881 228 
Q 2500 -75 1859 -75 
Q 1131 -75 698 384 
Q 266 844 266 1656 
Q 266 2478 700 2936 
Q 1134 3394 1875 3394 
Q 2481 3394 2839 3133 
Q 3197 2872 3353 2338 
z
" transform="scale(0.015625)"/>
      <path id="Arial-BoldMT-61" d="M 1116 2306 
L 319 2450 
Q 453 2931 781 3162 
Q 1109 3394 1756 3394 
Q 2344 3394 2631 3255 
Q 2919 3116 3036 2902 
Q 3153 2688 3153 2116 
L 3144 1091 
Q 3144 653 3186 445 
Q 3228 238 3344 0 
L 2475 0 
Q 2441 88 2391 259 
Q 2369 338 2359 363 
Q 2134 144 1878 34 
Q 1622 -75 1331 -75 
Q 819 -75 523 203 
Q 228 481 228 906 
Q 228 1188 362 1408 
Q 497 1628 739 1745 
Q 981 1863 1438 1950 
Q 2053 2066 2291 2166 
L 2291 2253 
Q 2291 2506 2166 2614 
Q 2041 2722 1694 2722 
Q 1459 2722 1328 2630 
Q 1197 2538 1116 2306 
z
M 2291 1594 
Q 2122 1538 1756 1459 
Q 1391 1381 1278 1306 
Q 1106 1184 1106 997 
Q 1106 813 1243 678 
Q 1381 544 1594 544 
Q 1831 544 2047 700 
Q 2206 819 2256 991 
Q 2291 1103 2291 1419 
L 2291 1594 
z
" transform="scale(0.015625)"/>
      <path id="Arial-BoldMT-76" d="M 1372 0 
L 34 3319 
L 956 3319 
L 1581 1625 
L 1763 1059 
Q 1834 1275 1853 1344 
Q 1897 1484 1947 1625 
L 2578 3319 
L 3481 3319 
L 2163 0 
L 1372 0 
z
" transform="scale(0.015625)"/>
      <path id="Arial-BoldMT-46" d="M 472 0 
L 472 4581 
L 3613 4581 
L 3613 3806 
L 1397 3806 
L 1397 2722 
L 3309 2722 
L 3309 1947 
L 1397 1947 
L 1397 0 
L 472 0 
z
" transform="scale(0.015625)"/>
      <path id="Arial-BoldMT-6f" d="M 256 1706 
Q 256 2144 472 2553 
Q 688 2963 1083 3178 
Q 1478 3394 1966 3394 
Q 2719 3394 3200 2905 
Q 3681 2416 3681 1669 
Q 3681 916 3195 420 
Q 2709 -75 1972 -75 
Q 1516 -75 1102 131 
Q 688 338 472 736 
Q 256 1134 256 1706 
z
M 1156 1659 
Q 1156 1166 1390 903 
Q 1625 641 1969 641 
Q 2313 641 2545 903 
Q 2778 1166 2778 1666 
Q 2778 2153 2545 2415 
Q 2313 2678 1969 2678 
Q 1625 2678 1390 2415 
Q 1156 2153 1156 1659 
z
" transform="scale(0.015625)"/>
      <path id="Arial-BoldMT-77" d="M 1078 0 
L 28 3319 
L 881 3319 
L 1503 1144 
L 2075 3319 
L 2922 3319 
L 3475 1144 
L 4109 3319 
L 4975 3319 
L 3909 0 
L 3066 0 
L 2494 2134 
L 1931 0 
L 1078 0 
z
" transform="scale(0.015625)"/>
      <path id="Arial-BoldMT-69" d="M 459 3769 
L 459 4581 
L 1338 4581 
L 1338 3769 
L 459 3769 
z
M 459 0 
L 459 3319 
L 1338 3319 
L 1338 0 
L 459 0 
z
" transform="scale(0.015625)"/>
      <path id="Arial-BoldMT-68" d="M 1334 4581 
L 1334 2897 
Q 1759 3394 2350 3394 
Q 2653 3394 2897 3281 
Q 3141 3169 3264 2994 
Q 3388 2819 3433 2606 
Q 3478 2394 3478 1947 
L 3478 0 
L 2600 0 
L 2600 1753 
Q 2600 2275 2550 2415 
Q 2500 2556 2373 2639 
Q 2247 2722 2056 2722 
Q 1838 2722 1666 2615 
Q 1494 2509 1414 2295 
Q 1334 2081 1334 1663 
L 1334 0 
L 456 0 
L 456 4581 
L 1334 4581 
z
" transform="scale(0.015625)"/>
      <path id="Arial-BoldMT-39" d="M 291 1059 
L 1141 1153 
Q 1172 894 1303 769 
Q 1434 644 1650 644 
Q 1922 644 2112 894 
Q 2303 1144 2356 1931 
Q 2025 1547 1528 1547 
Q 988 1547 595 1964 
Q 203 2381 203 3050 
Q 203 3747 617 4173 
Q 1031 4600 1672 4600 
Q 2369 4600 2816 4061 
Q 3263 3522 3263 2288 
Q 3263 1031 2797 475 
Q 2331 -81 1584 -81 
Q 1047 -81 715 205 
Q 384 491 291 1059 
z
M 2278 2978 
Q 2278 3403 2083 3637 
Q 1888 3872 1631 3872 
Q 1388 3872 1227 3680 
Q 1066 3488 1066 3050 
Q 1066 2606 1241 2398 
Q 1416 2191 1678 2191 
Q 1931 2191 2104 2391 
Q 2278 2591 2278 2978 
z
" transform="scale(0.015625)"/>
      <path id="Arial-BoldMT-35" d="M 284 1178 
L 1159 1269 
Q 1197 972 1381 798 
Q 1566 625 1806 625 
Q 2081 625 2272 848 
Q 2463 1072 2463 1522 
Q 2463 1944 2273 2155 
Q 2084 2366 1781 2366 
Q 1403 2366 1103 2031 
L 391 2134 
L 841 4519 
L 3163 4519 
L 3163 3697 
L 1506 3697 
L 1369 2919 
Q 1663 3066 1969 3066 
Q 2553 3066 2959 2641 
Q 3366 2216 3366 1538 
Q 3366 972 3038 528 
Q 2591 -78 1797 -78 
Q 1163 -78 763 262 
Q 363 603 284 1178 
z
" transform="scale(0.015625)"/>
      <path id="Arial-BoldMT-25" d="M 278 3450 
Q 278 4066 548 4362 
Q 819 4659 1281 4659 
Q 1759 4659 2029 4364 
Q 2300 4069 2300 3450 
Q 2300 2834 2029 2537 
Q 1759 2241 1297 2241 
Q 819 2241 548 2536 
Q 278 2831 278 3450 
z
M 963 3456 
Q 963 3009 1066 2856 
Q 1144 2744 1281 2744 
Q 1422 2744 1500 2856 
Q 1600 3009 1600 3456 
Q 1600 3903 1500 4053 
Q 1422 4169 1281 4169 
Q 1144 4169 1066 4056 
Q 963 3903 963 3456 
z
M 1950 -175 
L 1300 -175 
L 3741 4659 
L 4372 4659 
L 1950 -175 
z
M 3369 1028 
Q 3369 1644 3639 1941 
Q 3909 2238 4378 2238 
Q 4850 2238 5120 1941 
Q 5391 1644 5391 1028 
Q 5391 409 5120 112 
Q 4850 -184 4388 -184 
Q 3909 -184 3639 112 
Q 3369 409 3369 1028 
z
M 4053 1031 
Q 4053 584 4156 434 
Q 4234 319 4372 319 
Q 4513 319 4588 431 
Q 4691 584 4691 1031 
Q 4691 1478 4591 1631 
Q 4513 1744 4372 1744 
Q 4231 1744 4156 1631 
Q 4053 1478 4053 1031 
z
" transform="scale(0.015625)"/>
      <path id="Arial-BoldMT-50" d="M 466 0 
L 466 4581 
L 1950 4581 
Q 2794 4581 3050 4513 
Q 3444 4409 3709 4064 
Q 3975 3719 3975 3172 
Q 3975 2750 3822 2462 
Q 3669 2175 3433 2011 
Q 3197 1847 2953 1794 
Q 2622 1728 1994 1728 
L 1391 1728 
L 1391 0 
L 466 0 
z
M 1391 3806 
L 1391 2506 
L 1897 2506 
Q 2444 2506 2628 2578 
Q 2813 2650 2917 2803 
Q 3022 2956 3022 3159 
Q 3022 3409 2875 3571 
Q 2728 3734 2503 3775 
Q 2338 3806 1838 3806 
L 1391 3806 
z
" transform="scale(0.015625)"/>
      <path id="Arial-BoldMT-64" d="M 3503 0 
L 2688 0 
L 2688 488 
Q 2484 203 2207 64 
Q 1931 -75 1650 -75 
Q 1078 -75 670 386 
Q 263 847 263 1672 
Q 263 2516 659 2955 
Q 1056 3394 1663 3394 
Q 2219 3394 2625 2931 
L 2625 4581 
L 3503 4581 
L 3503 0 
z
M 1159 1731 
Q 1159 1200 1306 963 
Q 1519 619 1900 619 
Q 2203 619 2415 876 
Q 2628 1134 2628 1647 
Q 2628 2219 2422 2470 
Q 2216 2722 1894 2722 
Q 1581 2722 1370 2473 
Q 1159 2225 1159 1731 
z
" transform="scale(0.015625)"/>
      <path id="Arial-BoldMT-6e" d="M 3478 0 
L 2600 0 
L 2600 1694 
Q 2600 2231 2544 2389 
Q 2488 2547 2361 2634 
Q 2234 2722 2056 2722 
Q 1828 2722 1647 2597 
Q 1466 2472 1398 2265 
Q 1331 2059 1331 1503 
L 1331 0 
L 453 0 
L 453 3319 
L 1269 3319 
L 1269 2831 
Q 1703 3394 2363 3394 
Q 2653 3394 2893 3289 
Q 3134 3184 3257 3021 
Q 3381 2859 3429 2653 
Q 3478 2447 3478 2063 
L 3478 0 
z
" transform="scale(0.015625)"/>
      <path id="Arial-BoldMT-49" d="M 438 0 
L 438 4581 
L 1363 4581 
L 1363 0 
L 438 0 
z
" transform="scale(0.015625)"/>
     </defs>
     <use xlink:href="#Arial-BoldMT-43"/>
     <use xlink:href="#Arial-BoldMT-6c" transform="translate(72.216797 0)"/>
     <use xlink:href="#Arial-BoldMT-75" transform="translate(100 0)"/>
     <use xlink:href="#Arial-BoldMT-73" transform="translate(161.083984 0)"/>
     <use xlink:href="#Arial-BoldMT-74" transform="translate(216.699219 0)"/>
     <use xlink:href="#Arial-BoldMT-65" transform="translate(250 0)"/>
     <use xlink:href="#Arial-BoldMT-72" transform="translate(305.615234 0)"/>
     <use xlink:href="#Arial-BoldMT-20" transform="translate(344.53125 0)"/>
     <use xlink:href="#Arial-BoldMT-33" transform="translate(372.314453 0)"/>
     <use xlink:href="#Arial-BoldMT-3a" transform="translate(427.929688 0)"/>
     <use xlink:href="#Arial-BoldMT-20" transform="translate(461.230469 0)"/>
     <use xlink:href="#Arial-BoldMT-41" transform="translate(485.263672 0)"/>
     <use xlink:href="#Arial-BoldMT-63" transform="translate(557.480469 0)"/>
     <use xlink:href="#Arial-BoldMT-74" transform="translate(613.095703 0)"/>
     <use xlink:href="#Arial-BoldMT-75" transform="translate(646.396484 0)"/>
     <use xlink:href="#Arial-BoldMT-61" transform="translate(707.480469 0)"/>
     <use xlink:href="#Arial-BoldMT-6c" transform="translate(763.095703 0)"/>
     <use xlink:href="#Arial-BoldMT-20" transform="translate(790.878906 0)"/>
     <use xlink:href="#Arial-BoldMT-76" transform="translate(818.662109 0)"/>
     <use xlink:href="#Arial-BoldMT-73" transform="translate(874.277344 0)"/>
     <use xlink:href="#Arial-BoldMT-20" transform="translate(929.892578 0)"/>
     <use xlink:href="#Arial-BoldMT-46" transform="translate(957.675781 0)"/>
     <use xlink:href="#Arial-BoldMT-6f" transform="translate(1018.759766 0)"/>
     <use xlink:href="#Arial-BoldMT-72" transform="translate(1079.84375 0)"/>
     <use xlink:href="#Arial-BoldMT-65" transform="translate(1118.759766 0)"/>
     <use xlink:href="#Arial-BoldMT-63" transform="translate(1174.375 0)"/>
     <use xlink:href="#Arial-BoldMT-61" transform="translate(1229.990234 0)"/>
     <use xlink:href="#Arial-BoldMT-73" transform="translate(1285.605469 0)"/>
     <use xlink:href="#Arial-BoldMT-74" transform="translate(1341.220703 0)"/>
     <use xlink:href="#Arial-BoldMT-20" transform="translate(1374.521484 0)"/>
     <use xlink:href="#Arial-BoldMT-77" transform="translate(1402.304688 0)"/>
     <use xlink:href="#Arial-BoldMT-69" transform="translate(1480.087891 0)"/>
     <use xlink:href="#Arial-BoldMT-74" transform="translate(1507.871094 0)"/>
     <use xlink:href="#Arial-BoldMT-68" transform="translate(1541.171875 0)"/>
     <use xlink:href="#Arial-BoldMT-20" transform="translate(1602.255859 0)"/>
     <use xlink:href="#Arial-BoldMT-39" transform="translate(1630.039062 0)"/>
     <use xlink:href="#Arial-BoldMT-35" transform="translate(1685.654297 0)"/>
     <use xlink:href="#Arial-BoldMT-25" transform="translate(1741.269531 0)"/>
     <use xlink:href="#Arial-BoldMT-20" transform="translate(1830.185547 0)"/>
     <use xlink:href="#Arial-BoldMT-50" transform="translate(1857.96875 0)"/>
     <use xlink:href="#Arial-BoldMT-72" transform="translate(1924.667969 0)"/>
     <use xlink:href="#Arial-BoldMT-65" transform="translate(1963.583984 0)"/>
     <use xlink:href="#Arial-BoldMT-64" transform="translate(2019.199219 0)"/>
     <use xlink:href="#Arial-BoldMT-69" transform="translate(2080.283203 0)"/>
     <use xlink:href="#Arial-BoldMT-63" transform="translate(2108.066406 0)"/>
     <use xlink:href="#Arial-BoldMT-74" transform="translate(2163.681641 0)"/>
     <use xlink:href="#Arial-BoldMT-69" transform="translate(2196.982422 0)"/>
     <use xlink:href="#Arial-BoldMT-6f" transform="translate(2224.765625 0)"/>
     <use xlink:href="#Arial-BoldMT-6e" transform="translate(2285.849609 0)"/>
     <use xlink:href="#Arial-BoldMT-20" transform="translate(2346.933594 0)"/>
     <use xlink:href="#Arial-BoldMT-49" transform="translate(2374.716797 0)"/>
     <use xlink:href="#Arial-BoldMT-6e" transform="translate(2402.5 0)"/>
     <use xlink:href="#Arial-BoldMT-74" transform="translate(2463.583984 0)"/>
     <use xlink:href="#Arial-BoldMT-65" transform="translate(2496.884766 0)"/>
     <use xlink:href="#Arial-BoldMT-72" transform="translate(2552.5 0)"/>
     <use xlink:href="#Arial-BoldMT-76" transform="translate(2591.416016 0)"/>
     <use xlink:href="#Arial-BoldMT-61" transform="translate(2647.03125 0)"/>
     <use xlink:href="#Arial-BoldMT-6c" transform="translate(2702.646484 0)"/>
     <use xlink:href="#Arial-BoldMT-73" transform="translate(2730.429688 0)"/>
    </g>
   </g>
   <g id="legend_1">
    <g id="patch_7">
     <path d="M 70.100156 108.780469 
L 230.619375 108.780469 
Q 232.819375 108.780469 232.819375 106.580469 
L 232.819375 29.489375 
Q 232.819375 27.289375 230.619375 27.289375 
L 70.100156 27.289375 
Q 67.900156 27.289375 67.900156 29.489375 
L 67.900156 106.580469 
Q 67.900156 108.780469 70.100156 108.780469 
z
" style="fill: #ffffff; opacity: 0.8; stroke: #cccccc; stroke-linejoin: miter"/>
    </g>
    <g id="line2d_19">
     <path d="M 72.300156 35.712969 
L 83.300156 35.712969 
L 94.300156 35.712969 
" style="fill: none; stroke: #1f77b4; stroke-width: 2.2; stroke-linecap: round"/>
    </g>
    <g id="text_19">
     <!-- Actual Sales -->
     <g style="fill: #262626" transform="translate(103.100156 39.562969) scale(0.11 -0.11)">
      <defs>
       <path id="ArialMT-41" d="M -9 0 
L 1750 4581 
L 2403 4581 
L 4278 0 
L 3588 0 
L 3053 1388 
L 1138 1388 
L 634 0 
L -9 0 
z
M 1313 1881 
L 2866 1881 
L 2388 3150 
Q 2169 3728 2063 4100 
Q 1975 3659 1816 3225 
L 1313 1881 
z
" transform="scale(0.015625)"/>
       <path id="ArialMT-53" d="M 288 1472 
L 859 1522 
Q 900 1178 1048 958 
Q 1197 738 1509 602 
Q 1822 466 2213 466 
Q 2559 466 2825 569 
Q 3091 672 3220 851 
Q 3350 1031 3350 1244 
Q 3350 1459 3225 1620 
Q 3100 1781 2813 1891 
Q 2628 1963 1997 2114 
Q 1366 2266 1113 2400 
Q 784 2572 623 2826 
Q 463 3081 463 3397 
Q 463 3744 659 4045 
Q 856 4347 1234 4503 
Q 1613 4659 2075 4659 
Q 2584 4659 2973 4495 
Q 3363 4331 3572 4012 
Q 3781 3694 3797 3291 
L 3216 3247 
Q 3169 3681 2898 3903 
Q 2628 4125 2100 4125 
Q 1550 4125 1298 3923 
Q 1047 3722 1047 3438 
Q 1047 3191 1225 3031 
Q 1400 2872 2139 2705 
Q 2878 2538 3153 2413 
Q 3553 2228 3743 1945 
Q 3934 1663 3934 1294 
Q 3934 928 3725 604 
Q 3516 281 3123 101 
Q 2731 -78 2241 -78 
Q 1619 -78 1198 103 
Q 778 284 539 648 
Q 300 1013 288 1472 
z
" transform="scale(0.015625)"/>
      </defs>
      <use xlink:href="#ArialMT-41"/>
      <use xlink:href="#ArialMT-63" transform="translate(66.699219 0)"/>
      <use xlink:href="#ArialMT-74" transform="translate(116.699219 0)"/>
      <use xlink:href="#ArialMT-75" transform="translate(144.482422 0)"/>
      <use xlink:href="#ArialMT-61" transform="translate(200.097656 0)"/>
      <use xlink:href="#ArialMT-6c" transform="translate(255.712891 0)"/>
      <use xlink:href="#ArialMT-20" transform="translate(277.929688 0)"/>
      <use xlink:href="#ArialMT-53" transform="translate(305.712891 0)"/>
      <use xlink:href="#ArialMT-61" transform="translate(372.412109 0)"/>
      <use xlink:href="#ArialMT-6c" transform="translate(428.027344 0)"/>
      <use xlink:href="#ArialMT-65" transform="translate(450.244141 0)"/>
      <use xlink:href="#ArialMT-73" transform="translate(505.859375 0)"/>
     </g>
    </g>
    <g id="line2d_20">
     <path d="M 72.300156 51.272813 
L 83.300156 51.272813 
L 94.300156 51.272813 
" style="fill: none; stroke: #ff7f0e; stroke-width: 1.8; stroke-linecap: round"/>
    </g>
    <g id="text_20">
     <!-- Naive 7-Day Baseline -->
     <g style="fill: #262626" transform="translate(103.100156 55.122813) scale(0.11 -0.11)">
      <defs>
       <path id="ArialMT-4e" d="M 488 0 
L 488 4581 
L 1109 4581 
L 3516 984 
L 3516 4581 
L 4097 4581 
L 4097 0 
L 3475 0 
L 1069 3600 
L 1069 0 
L 488 0 
z
" transform="scale(0.015625)"/>
       <path id="ArialMT-76" d="M 1344 0 
L 81 3319 
L 675 3319 
L 1388 1331 
Q 1503 1009 1600 663 
Q 1675 925 1809 1294 
L 2547 3319 
L 3125 3319 
L 1869 0 
L 1344 0 
z
" transform="scale(0.015625)"/>
       <path id="ArialMT-42" d="M 469 0 
L 469 4581 
L 2188 4581 
Q 2713 4581 3030 4442 
Q 3347 4303 3526 4014 
Q 3706 3725 3706 3409 
Q 3706 3116 3547 2856 
Q 3388 2597 3066 2438 
Q 3481 2316 3704 2022 
Q 3928 1728 3928 1328 
Q 3928 1006 3792 729 
Q 3656 453 3456 303 
Q 3256 153 2954 76 
Q 2653 0 2216 0 
L 469 0 
z
M 1075 2656 
L 2066 2656 
Q 2469 2656 2644 2709 
Q 2875 2778 2992 2937 
Q 3109 3097 3109 3338 
Q 3109 3566 3000 3739 
Q 2891 3913 2687 3977 
Q 2484 4041 1991 4041 
L 1075 4041 
L 1075 2656 
z
M 1075 541 
L 2216 541 
Q 2509 541 2628 563 
Q 2838 600 2978 687 
Q 3119 775 3209 942 
Q 3300 1109 3300 1328 
Q 3300 1584 3169 1773 
Q 3038 1963 2805 2039 
Q 2572 2116 2134 2116 
L 1075 2116 
L 1075 541 
z
" transform="scale(0.015625)"/>
       <path id="ArialMT-6e" d="M 422 0 
L 422 3319 
L 928 3319 
L 928 2847 
Q 1294 3394 1984 3394 
Q 2284 3394 2536 3286 
Q 2788 3178 2913 3003 
Q 3038 2828 3088 2588 
Q 3119 2431 3119 2041 
L 3119 0 
L 2556 0 
L 2556 2019 
Q 2556 2363 2490 2533 
Q 2425 2703 2258 2804 
Q 2091 2906 1866 2906 
Q 1506 2906 1245 2678 
Q 984 2450 984 1813 
L 984 0 
L 422 0 
z
" transform="scale(0.015625)"/>
      </defs>
      <use xlink:href="#ArialMT-4e"/>
      <use xlink:href="#ArialMT-61" transform="translate(72.216797 0)"/>
      <use xlink:href="#ArialMT-69" transform="translate(127.832031 0)"/>
      <use xlink:href="#ArialMT-76" transform="translate(150.048828 0)"/>
      <use xlink:href="#ArialMT-65" transform="translate(200.048828 0)"/>
      <use xlink:href="#ArialMT-20" transform="translate(255.664062 0)"/>
      <use xlink:href="#ArialMT-37" transform="translate(283.447266 0)"/>
      <use xlink:href="#ArialMT-2d" transform="translate(339.0625 0)"/>
      <use xlink:href="#ArialMT-44" transform="translate(372.363281 0)"/>
      <use xlink:href="#ArialMT-61" transform="translate(444.580078 0)"/>
      <use xlink:href="#ArialMT-79" transform="translate(500.195312 0)"/>
      <use xlink:href="#ArialMT-20" transform="translate(550.195312 0)"/>
      <use xlink:href="#ArialMT-42" transform="translate(577.978516 0)"/>
      <use xlink:href="#ArialMT-61" transform="translate(644.677734 0)"/>
      <use xlink:href="#ArialMT-73" transform="translate(700.292969 0)"/>
      <use xlink:href="#ArialMT-65" transform="translate(750.292969 0)"/>
      <use xlink:href="#ArialMT-6c" transform="translate(805.908203 0)"/>
      <use xlink:href="#ArialMT-69" transform="translate(828.125 0)"/>
      <use xlink:href="#ArialMT-6e" transform="translate(850.341797 0)"/>
      <use xlink:href="#ArialMT-65" transform="translate(905.957031 0)"/>
     </g>
    </g>
    <g id="patch_8">
     <path d="M 72.300156 70.811563 
L 94.300156 70.811563 
L 94.300156 63.111563 
L 72.300156 63.111563 
z
" style="fill: #ff7f0e; fill-opacity: 0.16; stroke: #ff7f0e; stroke-opacity: 0.16; stroke-linejoin: miter"/>
    </g>
    <g id="text_21">
     <!-- Baseline 95% interval -->
     <g style="fill: #262626" transform="translate(103.100156 70.811563) scale(0.11 -0.11)">
      <defs>
       <path id="ArialMT-35" d="M 266 1200 
L 856 1250 
Q 922 819 1161 601 
Q 1400 384 1738 384 
Q 2144 384 2425 690 
Q 2706 997 2706 1503 
Q 2706 1984 2436 2262 
Q 2166 2541 1728 2541 
Q 1456 2541 1237 2417 
Q 1019 2294 894 2097 
L 366 2166 
L 809 4519 
L 3088 4519 
L 3088 3981 
L 1259 3981 
L 1013 2750 
Q 1425 3038 1878 3038 
Q 2478 3038 2890 2622 
Q 3303 2206 3303 1553 
Q 3303 931 2941 478 
Q 2500 -78 1738 -78 
Q 1113 -78 717 272 
Q 322 622 266 1200 
z
" transform="scale(0.015625)"/>
       <path id="ArialMT-25" d="M 372 3481 
Q 372 3972 619 4315 
Q 866 4659 1334 4659 
Q 1766 4659 2048 4351 
Q 2331 4044 2331 3447 
Q 2331 2866 2045 2552 
Q 1759 2238 1341 2238 
Q 925 2238 648 2547 
Q 372 2856 372 3481 
z
M 1350 4272 
Q 1141 4272 1002 4090 
Q 863 3909 863 3425 
Q 863 2984 1003 2804 
Q 1144 2625 1350 2625 
Q 1563 2625 1702 2806 
Q 1841 2988 1841 3469 
Q 1841 3913 1700 4092 
Q 1559 4272 1350 4272 
z
M 1353 -169 
L 3859 4659 
L 4316 4659 
L 1819 -169 
L 1353 -169 
z
M 3334 1075 
Q 3334 1569 3581 1911 
Q 3828 2253 4300 2253 
Q 4731 2253 5014 1945 
Q 5297 1638 5297 1041 
Q 5297 459 5011 145 
Q 4725 -169 4303 -169 
Q 3888 -169 3611 142 
Q 3334 453 3334 1075 
z
M 4316 1866 
Q 4103 1866 3964 1684 
Q 3825 1503 3825 1019 
Q 3825 581 3965 400 
Q 4106 219 4313 219 
Q 4528 219 4667 400 
Q 4806 581 4806 1063 
Q 4806 1506 4665 1686 
Q 4525 1866 4316 1866 
z
" transform="scale(0.015625)"/>
      </defs>
      <use xlink:href="#ArialMT-42"/>
      <use xlink:href="#ArialMT-61" transform="translate(66.699219 0)"/>
      <use xlink:href="#ArialMT-73" transform="translate(122.314453 0)"/>
      <use xlink:href="#ArialMT-65" transform="translate(172.314453 0)"/>
      <use xlink:href="#ArialMT-6c" transform="translate(227.929688 0)"/>
      <use xlink:href="#ArialMT-69" transform="translate(250.146484 0)"/>
      <use xlink:href="#ArialMT-6e" transform="translate(272.363281 0)"/>
      <use xlink:href="#ArialMT-65" transform="translate(327.978516 0)"/>
      <use xlink:href="#ArialMT-20" transform="translate(383.59375 0)"/>
      <use xlink:href="#ArialMT-39" transform="translate(411.376953 0)"/>
      <use xlink:href="#ArialMT-35" transform="translate(466.992188 0)"/>
      <use xlink:href="#ArialMT-25" transform="translate(522.607422 0)"/>
      <use xlink:href="#ArialMT-20" transform="translate(611.523438 0)"/>
      <use xlink:href="#ArialMT-69" transform="translate(639.306641 0)"/>
      <use xlink:href="#ArialMT-6e" transform="translate(661.523438 0)"/>
      <use xlink:href="#ArialMT-74" transform="translate(717.138672 0)"/>
      <use xlink:href="#ArialMT-65" transform="translate(744.921875 0)"/>
      <use xlink:href="#ArialMT-72" transform="translate(800.537109 0)"/>
      <use xlink:href="#ArialMT-76" transform="translate(833.837891 0)"/>
      <use xlink:href="#ArialMT-61" transform="translate(883.837891 0)"/>
      <use xlink:href="#ArialMT-6c" transform="translate(939.453125 0)"/>
     </g>
    </g>
    <g id="line2d_21">
     <path d="M 72.300156 82.655469 
L 83.300156 82.655469 
L 94.300156 82.655469 
" style="fill: none; stroke: #2ca02c; stroke-width: 1.8; stroke-linecap: round"/>
    </g>
    <g id="text_22">
     <!-- Two-Stage HGB Forecast -->
     <g style="fill: #262626" transform="translate(103.100156 86.505469) scale(0.11 -0.11)">
      <defs>
       <path id="ArialMT-54" d="M 1659 0 
L 1659 4041 
L 150 4041 
L 150 4581 
L 3781 4581 
L 3781 4041 
L 2266 4041 
L 2266 0 
L 1659 0 
z
" transform="scale(0.015625)"/>
       <path id="ArialMT-77" d="M 1034 0 
L 19 3319 
L 600 3319 
L 1128 1403 
L 1325 691 
Q 1338 744 1497 1375 
L 2025 3319 
L 2603 3319 
L 3100 1394 
L 3266 759 
L 3456 1400 
L 4025 3319 
L 4572 3319 
L 3534 0 
L 2950 0 
L 2422 1988 
L 2294 2553 
L 1622 0 
L 1034 0 
z
" transform="scale(0.015625)"/>
       <path id="ArialMT-6f" d="M 213 1659 
Q 213 2581 725 3025 
Q 1153 3394 1769 3394 
Q 2453 3394 2887 2945 
Q 3322 2497 3322 1706 
Q 3322 1066 3130 698 
Q 2938 331 2570 128 
Q 2203 -75 1769 -75 
Q 1072 -75 642 372 
Q 213 819 213 1659 
z
M 791 1659 
Q 791 1022 1069 705 
Q 1347 388 1769 388 
Q 2188 388 2466 706 
Q 2744 1025 2744 1678 
Q 2744 2294 2464 2611 
Q 2184 2928 1769 2928 
Q 1347 2928 1069 2612 
Q 791 2297 791 1659 
z
" transform="scale(0.015625)"/>
       <path id="ArialMT-67" d="M 319 -275 
L 866 -356 
Q 900 -609 1056 -725 
Q 1266 -881 1628 -881 
Q 2019 -881 2231 -725 
Q 2444 -569 2519 -288 
Q 2563 -116 2559 434 
Q 2191 0 1641 0 
Q 956 0 581 494 
Q 206 988 206 1678 
Q 206 2153 378 2554 
Q 550 2956 876 3175 
Q 1203 3394 1644 3394 
Q 2231 3394 2613 2919 
L 2613 3319 
L 3131 3319 
L 3131 450 
Q 3131 -325 2973 -648 
Q 2816 -972 2473 -1159 
Q 2131 -1347 1631 -1347 
Q 1038 -1347 672 -1080 
Q 306 -813 319 -275 
z
M 784 1719 
Q 784 1066 1043 766 
Q 1303 466 1694 466 
Q 2081 466 2343 764 
Q 2606 1063 2606 1700 
Q 2606 2309 2336 2618 
Q 2066 2928 1684 2928 
Q 1309 2928 1046 2623 
Q 784 2319 784 1719 
z
" transform="scale(0.015625)"/>
       <path id="ArialMT-48" d="M 513 0 
L 513 4581 
L 1119 4581 
L 1119 2700 
L 3500 2700 
L 3500 4581 
L 4106 4581 
L 4106 0 
L 3500 0 
L 3500 2159 
L 1119 2159 
L 1119 0 
L 513 0 
z
" transform="scale(0.015625)"/>
       <path id="ArialMT-47" d="M 2638 1797 
L 2638 2334 
L 4578 2338 
L 4578 638 
Q 4131 281 3656 101 
Q 3181 -78 2681 -78 
Q 2006 -78 1454 211 
Q 903 500 622 1047 
Q 341 1594 341 2269 
Q 341 2938 620 3517 
Q 900 4097 1425 4378 
Q 1950 4659 2634 4659 
Q 3131 4659 3532 4498 
Q 3934 4338 4162 4050 
Q 4391 3763 4509 3300 
L 3963 3150 
Q 3859 3500 3706 3700 
Q 3553 3900 3268 4020 
Q 2984 4141 2638 4141 
Q 2222 4141 1919 4014 
Q 1616 3888 1430 3681 
Q 1244 3475 1141 3228 
Q 966 2803 966 2306 
Q 966 1694 1177 1281 
Q 1388 869 1791 669 
Q 2194 469 2647 469 
Q 3041 469 3416 620 
Q 3791 772 3984 944 
L 3984 1797 
L 2638 1797 
z
" transform="scale(0.015625)"/>
       <path id="ArialMT-46" d="M 525 0 
L 525 4581 
L 3616 4581 
L 3616 4041 
L 1131 4041 
L 1131 2622 
L 3281 2622 
L 3281 2081 
L 1131 2081 
L 1131 0 
L 525 0 
z
" transform="scale(0.015625)"/>
      </defs>
      <use xlink:href="#ArialMT-54"/>
      <use xlink:href="#ArialMT-77" transform="translate(55.583984 0)"/>
      <use xlink:href="#ArialMT-6f" transform="translate(127.800781 0)"/>
      <use xlink:href="#ArialMT-2d" transform="translate(183.416016 0)"/>
      <use xlink:href="#ArialMT-53" transform="translate(216.716797 0)"/>
      <use xlink:href="#ArialMT-74" transform="translate(283.416016 0)"/>
      <use xlink:href="#ArialMT-61" transform="translate(311.199219 0)"/>
      <use xlink:href="#ArialMT-67" transform="translate(366.814453 0)"/>
      <use xlink:href="#ArialMT-65" transform="translate(422.429688 0)"/>
      <use xlink:href="#ArialMT-20" transform="translate(478.044922 0)"/>
      <use xlink:href="#ArialMT-48" transform="translate(505.828125 0)"/>
      <use xlink:href="#ArialMT-47" transform="translate(578.044922 0)"/>
      <use xlink:href="#ArialMT-42" transform="translate(655.828125 0)"/>
      <use xlink:href="#ArialMT-20" transform="translate(722.527344 0)"/>
      <use xlink:href="#ArialMT-46" transform="translate(750.310547 0)"/>
      <use xlink:href="#ArialMT-6f" transform="translate(811.394531 0)"/>
      <use xlink:href="#ArialMT-72" transform="translate(867.009766 0)"/>
      <use xlink:href="#ArialMT-65" transform="translate(900.310547 0)"/>
      <use xlink:href="#ArialMT-63" transform="translate(955.925781 0)"/>
      <use xlink:href="#ArialMT-61" transform="translate(1005.925781 0)"/>
      <use xlink:href="#ArialMT-73" transform="translate(1061.541016 0)"/>
      <use xlink:href="#ArialMT-74" transform="translate(1111.541016 0)"/>
     </g>
    </g>
    <g id="patch_9">
     <path d="M 72.300156 102.194219 
L 94.300156 102.194219 
L 94.300156 94.494219 
L 72.300156 94.494219 
z
" style="fill: #2ca02c; fill-opacity: 0.16; stroke: #2ca02c; stroke-opacity: 0.16; stroke-linejoin: miter"/>
    </g>
    <g id="text_23">
     <!-- Model 95% interval -->
     <g style="fill: #262626" transform="translate(103.100156 102.194219) scale(0.11 -0.11)">
      <defs>
       <path id="ArialMT-4d" d="M 475 0 
L 475 4581 
L 1388 4581 
L 2472 1338 
Q 2622 884 2691 659 
Q 2769 909 2934 1394 
L 4031 4581 
L 4847 4581 
L 4847 0 
L 4263 0 
L 4263 3834 
L 2931 0 
L 2384 0 
L 1059 3900 
L 1059 0 
L 475 0 
z
" transform="scale(0.015625)"/>
       <path id="ArialMT-64" d="M 2575 0 
L 2575 419 
Q 2259 -75 1647 -75 
Q 1250 -75 917 144 
Q 584 363 401 755 
Q 219 1147 219 1656 
Q 219 2153 384 2558 
Q 550 2963 881 3178 
Q 1213 3394 1622 3394 
Q 1922 3394 2156 3267 
Q 2391 3141 2538 2938 
L 2538 4581 
L 3097 4581 
L 3097 0 
L 2575 0 
z
M 797 1656 
Q 797 1019 1065 703 
Q 1334 388 1700 388 
Q 2069 388 2326 689 
Q 2584 991 2584 1609 
Q 2584 2291 2321 2609 
Q 2059 2928 1675 2928 
Q 1300 2928 1048 2622 
Q 797 2316 797 1656 
z
" transform="scale(0.015625)"/>
      </defs>
      <use xlink:href="#ArialMT-4d"/>
      <use xlink:href="#ArialMT-6f" transform="translate(83.300781 0)"/>
      <use xlink:href="#ArialMT-64" transform="translate(138.916016 0)"/>
      <use xlink:href="#ArialMT-65" transform="translate(194.53125 0)"/>
      <use xlink:href="#ArialMT-6c" transform="translate(250.146484 0)"/>
      <use xlink:href="#ArialMT-20" transform="translate(272.363281 0)"/>
      <use xlink:href="#ArialMT-39" transform="translate(300.146484 0)"/>
      <use xlink:href="#ArialMT-35" transform="translate(355.761719 0)"/>
      <use xlink:href="#ArialMT-25" transform="translate(411.376953 0)"/>
      <use xlink:href="#ArialMT-20" transform="translate(500.292969 0)"/>
      <use xlink:href="#ArialMT-69" transform="translate(528.076172 0)"/>
      <use xlink:href="#ArialMT-6e" transform="translate(550.292969 0)"/>
      <use xlink:href="#ArialMT-74" transform="translate(605.908203 0)"/>
      <use xlink:href="#ArialMT-65" transform="translate(633.691406 0)"/>
      <use xlink:href="#ArialMT-72" transform="translate(689.306641 0)"/>
      <use xlink:href="#ArialMT-76" transform="translate(722.607422 0)"/>
      <use xlink:href="#ArialMT-61" transform="translate(772.607422 0)"/>
      <use xlink:href="#ArialMT-6c" transform="translate(828.222656 0)"/>
     </g>
    </g>
   </g>
  </g>
 </g>
 <defs>
  <clipPath id="p94898a4eeb">
   <rect x="62.400156" y="21.789375" width="927.12375" height="285.06"/>
  </clipPath>
 </defs>
</svg>
