<?xml version="1.0" encoding="utf-8" standalone="no"?>
<!DOCTYPE svg PUBLIC "-//W3C//DTD SVG 1.1//EN"
  "http://www.w3.org/Graphics/SVG/1.1/DTD/svg11.dtd">
<svg xmlns:xlink="http://www.w3.org/1999/xlink" width="994.21695pt" height="348.745781pt" viewBox="0 0 994.21695 348.745781" xmlns="http://www.w3.org/2000/svg" version="1.1">
 <metadata>
  <rdf:RDF xmlns:dc="http://purl.org/dc/elements/1.1/" xmlns:cc="http://creativecommons.org/ns#" xmlns:rdf="http://www.w3.org/1999/02/22-rdf-syntax-ns#">
   <cc:Work>
    <dc:type rdf:resource="http://purl.org/dc/dcmitype/StillImage"/>
    <dc:date>2026-03-20T22:16:28.301985</dc:date>
    <dc:format>image/svg+xml</dc:format>
    <dc:creator>
     <cc:Agent>
      <dc:title>Matplotlib v3.10.8, https://matplotlib.org/</dc:title>
     </cc:Agent>
    </dc:creator>
   </cc:Work>
  </rdf:RDF>
 </metadata>
 <defs>
  <style type="text/css">*{stroke-linejoin: round; stroke-linecap: butt}</style>
 </defs>
 <g id="figure_1">
  <g id="patch_1">
   <path d="M 0 348.745781 
L 994.21695 348.745781 
L 994.21695 0 
L 0 0 
z
" style="fill: #ffffff"/>
  </g>
  <g id="axes_1">
   <g id="patch_2">
    <path d="M 56.400156 313.011562 
L 982.694959 313.011562 
L 982.694959 23.391562 
L 56.400156 23.391562 
z
" style="fill: #ffffff"/>
   </g>
   <g id="matplotlib.axis_1">
    <g id="xtick_1">
     <g id="line2d_1">
      <path d="M 133.876649 313.011562 
L 133.876649 23.391562 
" clip-path="url(#p9fc35a79ad)" style="fill: none; stroke: #cccccc; stroke-linecap: round"/>
     </g>
     <g id="text_1">
      <!-- 2010-01 -->
      <g style="fill: #262626" transform="translate(113.694228 324.385156) scale(0.11 -0.11)">
       <defs>
        <path id="ArialMT-32" d="M 3222 541 
L 3222 0 
L 194 0 
Q 188 203 259 391 
Q 375 700 629 1000 
Q 884 1300 1366 1694 
Q 2113 2306 2375 2664 
Q 2638 3022 2638 3341 
Q 2638 3675 2398 3904 
Q 2159 4134 1775 4134 
Q 1369 4134 1125 3890 
Q 881 3647 878 3216 
L 300 3275 
Q 359 3922 746 4261 
Q 1134 4600 1788 4600 
Q 2447 4600 2831 4234 
Q 3216 3869 3216 3328 
Q 3216 3053 3103 2787 
Q 2991 2522 2730 2228 
Q 2469 1934 1863 1422 
Q 1356 997 1212 845 
Q 1069 694 975 541 
L 3222 541 
z
" transform="scale(0.015625)"/>
        <path id="ArialMT-30" d="M 266 2259 
Q 266 3072 433 3567 
Q 600 4063 929 4331 
Q 1259 4600 1759 4600 
Q 2128 4600 2406 4451 
Q 2684 4303 2865 4023 
Q 3047 3744 3150 3342 
Q 3253 2941 3253 2259 
Q 3253 1453 3087 958 
Q 2922 463 2592 192 
Q 2263 -78 1759 -78 
Q 1097 -78 719 397 
Q 266 969 266 2259 
z
M 844 2259 
Q 844 1131 1108 757 
Q 1372 384 1759 384 
Q 2147 384 2411 759 
Q 2675 1134 2675 2259 
Q 2675 3391 2411 3762 
Q 2147 4134 1753 4134 
Q 1366 4134 1134 3806 
Q 844 3388 844 2259 
z
" transform="scale(0.015625)"/>
        <path id="ArialMT-31" d="M 2384 0 
L 1822 0 
L 1822 3584 
Q 1619 3391 1289 3197 
Q 959 3003 697 2906 
L 697 3450 
Q 1169 3672 1522 3987 
Q 1875 4303 2022 4600 
L 2384 4600 
L 2384 0 
z
" transform="scale(0.015625)"/>
        <path id="ArialMT-2d" d="M 203 1375 
L 203 1941 
L 1931 1941 
L 1931 1375 
L 203 1375 
z
" transform="scale(0.015625)"/>
       </defs>
       <use xlink:href="#ArialMT-32"/>
       <use xlink:href="#ArialMT-30" transform="translate(55.615234 0)"/>
       <use xlink:href="#ArialMT-31" transform="translate(111.230469 0)"/>
       <use xlink:href="#ArialMT-30" transform="translate(166.845703 0)"/>
       <use xlink:href="#ArialMT-2d" transform="translate(222.460938 0)"/>
       <use xlink:href="#ArialMT-30" transform="translate(255.761719 0)"/>
       <use xlink:href="#ArialMT-31" transform="translate(311.376953 0)"/>
      </g>
     </g>
    </g>
    <g id="xtick_2">
     <g id="line2d_2">
      <path d="M 236.570087 313.011562 
L 236.570087 23.391562 
" clip-path="url(#p9fc35a79ad)" style="fill: none; stroke: #cccccc; stroke-linecap: round"/>
     </g>
     <g id="text_2">
      <!-- 2010-04 -->
      <g style="fill: #262626" transform="translate(216.387665 324.385156) scale(0.11 -0.11)">
       <defs>
        <path id="ArialMT-34" d="M 2069 0 
L 2069 1097 
L 81 1097 
L 81 1613 
L 2172 4581 
L 2631 4581 
L 2631 1613 
L 3250 1613 
L 3250 1097 
L 2631 1097 
L 2631 0 
L 2069 0 
z
M 2069 1613 
L 2069 3678 
L 634 1613 
L 2069 1613 
z
" transform="scale(0.015625)"/>
       </defs>
       <use xlink:href="#ArialMT-32"/>
       <use xlink:href="#ArialMT-30" transform="translate(55.615234 0)"/>
       <use xlink:href="#ArialMT-31" transform="translate(111.230469 0)"/>
       <use xlink:href="#ArialMT-30" transform="translate(166.845703 0)"/>
       <use xlink:href="#ArialMT-2d" transform="translate(222.460938 0)"/>
       <use xlink:href="#ArialMT-30" transform="translate(255.761719 0)"/>
       <use xlink:href="#ArialMT-34" transform="translate(311.376953 0)"/>
      </g>
     </g>
    </g>
    <g id="xtick_3">
     <g id="line2d_3">
      <path d="M 340.404562 313.011562 
L 340.404562 23.391562 
" clip-path="url(#p9fc35a79ad)" style="fill: none; stroke: #cccccc; stroke-linecap: round"/>
     </g>
     <g id="text_3">
      <!-- 2010-07 -->
      <g style="fill: #262626" transform="translate(320.22214 324.385156) scale(0.11 -0.11)">
       <defs>
        <path id="ArialMT-37" d="M 303 3981 
L 303 4522 
L 3269 4522 
L 3269 4084 
Q 2831 3619 2401 2847 
Q 1972 2075 1738 1259 
Q 1569 684 1522 0 
L 944 0 
Q 953 541 1156 1306 
Q 1359 2072 1739 2783 
Q 2119 3494 2547 3981 
L 303 3981 
z
" transform="scale(0.015625)"/>
       </defs>
       <use xlink:href="#ArialMT-32"/>
       <use xlink:href="#ArialMT-30" transform="translate(55.615234 0)"/>
       <use xlink:href="#ArialMT-31" transform="translate(111.230469 0)"/>
       <use xlink:href="#ArialMT-30" transform="translate(166.845703 0)"/>
       <use xlink:href="#ArialMT-2d" transform="translate(222.460938 0)"/>
       <use xlink:href="#ArialMT-30" transform="translate(255.761719 0)"/>
       <use xlink:href="#ArialMT-37" transform="translate(311.376953 0)"/>
      </g>
     </g>
    </g>
    <g id="xtick_4">
     <g id="line2d_4">
      <path d="M 445.380075 313.011562 
L 445.380075 23.391562 
" clip-path="url(#p9fc35a79ad)" style="fill: none; stroke: #cccccc; stroke-linecap: round"/>
     </g>
     <g id="text_4">
      <!-- 2010-10 -->
      <g style="fill: #262626" transform="translate(425.197654 324.385156) scale(0.11 -0.11)">
       <use xlink:href="#ArialMT-32"/>
       <use xlink:href="#ArialMT-30" transform="translate(55.615234 0)"/>
       <use xlink:href="#ArialMT-31" transform="translate(111.230469 0)"/>
       <use xlink:href="#ArialMT-30" transform="translate(166.845703 0)"/>
       <use xlink:href="#ArialMT-2d" transform="translate(222.460938 0)"/>
       <use xlink:href="#ArialMT-31" transform="translate(255.761719 0)"/>
       <use xlink:href="#ArialMT-30" transform="translate(311.376953 0)"/>
      </g>
     </g>
    </g>
    <g id="xtick_5">
     <g id="line2d_5">
      <path d="M 550.355589 313.011562 
L 550.355589 23.391562 
" clip-path="url(#p9fc35a79ad)" style="fill: none; stroke: #cccccc; stroke-linecap: round"/>
     </g>
     <g id="text_5">
      <!-- 2011-01 -->
      <g style="fill: #262626" transform="translate(530.578792 324.385156) scale(0.11 -0.11)">
       <use xlink:href="#ArialMT-32"/>
       <use xlink:href="#ArialMT-30" transform="translate(55.615234 0)"/>
       <use xlink:href="#ArialMT-31" transform="translate(111.230469 0)"/>
       <use xlink:href="#ArialMT-31" transform="translate(159.470703 0)"/>
       <use xlink:href="#ArialMT-2d" transform="translate(215.085938 0)"/>
       <use xlink:href="#ArialMT-30" transform="translate(248.386719 0)"/>
       <use xlink:href="#ArialMT-31" transform="translate(304.001953 0)"/>
      </g>
     </g>
    </g>
    <g id="xtick_6">
     <g id="line2d_6">
      <path d="M 653.049026 313.011562 
L 653.049026 23.391562 
" clip-path="url(#p9fc35a79ad)" style="fill: none; stroke: #cccccc; stroke-linecap: round"/>
     </g>
     <g id="text_6">
      <!-- 2011-04 -->
      <g style="fill: #262626" transform="translate(633.272229 324.385156) scale(0.11 -0.11)">
       <use xlink:href="#ArialMT-32"/>
       <use xlink:href="#ArialMT-30" transform="translate(55.615234 0)"/>
       <use xlink:href="#ArialMT-31" transform="translate(111.230469 0)"/>
       <use xlink:href="#ArialMT-31" transform="translate(159.470703 0)"/>
       <use xlink:href="#ArialMT-2d" transform="translate(215.085938 0)"/>
       <use xlink:href="#ArialMT-30" transform="translate(248.386719 0)"/>
       <use xlink:href="#ArialMT-34" transform="translate(304.001953 0)"/>
      </g>
     </g>
    </g>
    <g id="xtick_7">
     <g id="line2d_7">
      <path d="M 756.883502 313.011562 
L 756.883502 23.391562 
" clip-path="url(#p9fc35a79ad)" style="fill: none; stroke: #cccccc; stroke-linecap: round"/>
     </g>
     <g id="text_7">
      <!-- 2011-07 -->
      <g style="fill: #262626" transform="translate(737.106705 324.385156) scale(0.11 -0.11)">
       <use xlink:href="#ArialMT-32"/>
       <use xlink:href="#ArialMT-30" transform="translate(55.615234 0)"/>
       <use xlink:href="#ArialMT-31" transform="translate(111.230469 0)"/>
       <use xlink:href="#ArialMT-31" transform="translate(159.470703 0)"/>
       <use xlink:href="#ArialMT-2d" transform="translate(215.085938 0)"/>
       <use xlink:href="#ArialMT-30" transform="translate(248.386719 0)"/>
       <use xlink:href="#ArialMT-37" transform="translate(304.001953 0)"/>
      </g>
     </g>
    </g>
    <g id="xtick_8">
     <g id="line2d_8">
      <path d="M 861.859015 313.011562 
L 861.859015 23.391562 
" clip-path="url(#p9fc35a79ad)" style="fill: none; stroke: #cccccc; stroke-linecap: round"/>
     </g>
     <g id="text_8">
      <!-- 2011-10 -->
      <g style="fill: #262626" transform="translate(842.082218 324.385156) scale(0.11 -0.11)">
       <use xlink:href="#ArialMT-32"/>
       <use xlink:href="#ArialMT-30" transform="translate(55.615234 0)"/>
       <use xlink:href="#ArialMT-31" transform="translate(111.230469 0)"/>
       <use xlink:href="#ArialMT-31" transform="translate(159.470703 0)"/>
       <use xlink:href="#ArialMT-2d" transform="translate(215.085938 0)"/>
       <use xlink:href="#ArialMT-31" transform="translate(248.386719 0)"/>
       <use xlink:href="#ArialMT-30" transform="translate(304.001953 0)"/>
      </g>
     </g>
    </g>
    <g id="xtick_9">
     <g id="line2d_9">
      <path d="M 966.834529 313.011562 
L 966.834529 23.391562 
" clip-path="url(#p9fc35a79ad)" style="fill: none; stroke: #cccccc; stroke-linecap: round"/>
     </g>
     <g id="text_9">
      <!-- 2012-01 -->
      <g style="fill: #262626" transform="translate(946.652107 324.385156) scale(0.11 -0.11)">
       <use xlink:href="#ArialMT-32"/>
       <use xlink:href="#ArialMT-30" transform="translate(55.615234 0)"/>
       <use xlink:href="#ArialMT-31" transform="translate(111.230469 0)"/>
       <use xlink:href="#ArialMT-32" transform="translate(166.845703 0)"/>
       <use xlink:href="#ArialMT-2d" transform="translate(222.460938 0)"/>
       <use xlink:href="#ArialMT-30" transform="translate(255.761719 0)"/>
       <use xlink:href="#ArialMT-31" transform="translate(311.376953 0)"/>
      </g>
     </g>
    </g>
    <g id="text_10">
     <!-- Date -->
     <g style="fill: #262626" transform="translate(506.874433 339.160781) scale(0.12 -0.12)">
      <defs>
       <path id="ArialMT-44" d="M 494 0 
L 494 4581 
L 2072 4581 
Q 2606 4581 2888 4516 
Q 3281 4425 3559 4188 
Q 3922 3881 4101 3404 
Q 4281 2928 4281 2316 
Q 4281 1794 4159 1391 
Q 4038 988 3847 723 
Q 3656 459 3429 307 
Q 3203 156 2883 78 
Q 2563 0 2147 0 
L 494 0 
z
M 1100 541 
L 2078 541 
Q 2531 541 2789 625 
Q 3047 709 3200 863 
Q 3416 1078 3536 1442 
Q 3656 1806 3656 2325 
Q 3656 3044 3420 3430 
Q 3184 3816 2847 3947 
Q 2603 4041 2063 4041 
L 1100 4041 
L 1100 541 
z
" transform="scale(0.015625)"/>
       <path id="ArialMT-61" d="M 2588 409 
Q 2275 144 1986 34 
Q 1697 -75 1366 -75 
Q 819 -75 525 192 
Q 231 459 231 875 
Q 231 1119 342 1320 
Q 453 1522 633 1644 
Q 813 1766 1038 1828 
Q 1203 1872 1538 1913 
Q 2219 1994 2541 2106 
Q 2544 2222 2544 2253 
Q 2544 2597 2384 2738 
Q 2169 2928 1744 2928 
Q 1347 2928 1158 2789 
Q 969 2650 878 2297 
L 328 2372 
Q 403 2725 575 2942 
Q 747 3159 1072 3276 
Q 1397 3394 1825 3394 
Q 2250 3394 2515 3294 
Q 2781 3194 2906 3042 
Q 3031 2891 3081 2659 
Q 3109 2516 3109 2141 
L 3109 1391 
Q 3109 606 3145 398 
Q 3181 191 3288 0 
L 2700 0 
Q 2613 175 2588 409 
z
M 2541 1666 
Q 2234 1541 1622 1453 
Q 1275 1403 1131 1340 
Q 988 1278 909 1158 
Q 831 1038 831 891 
Q 831 666 1001 516 
Q 1172 366 1500 366 
Q 1825 366 2078 508 
Q 2331 650 2450 897 
Q 2541 1088 2541 1459 
L 2541 1666 
z
" transform="scale(0.015625)"/>
       <path id="ArialMT-74" d="M 1650 503 
L 1731 6 
Q 1494 -44 1306 -44 
Q 1000 -44 831 53 
Q 663 150 594 308 
Q 525 466 525 972 
L 525 2881 
L 113 2881 
L 113 3319 
L 525 3319 
L 525 4141 
L 1084 4478 
L 1084 3319 
L 1650 3319 
L 1650 2881 
L 1084 2881 
L 1084 941 
Q 1084 700 1114 631 
Q 1144 563 1211 522 
Q 1278 481 1403 481 
Q 1497 481 1650 503 
z
" transform="scale(0.015625)"/>
       <path id="ArialMT-65" d="M 2694 1069 
L 3275 997 
Q 3138 488 2766 206 
Q 2394 -75 1816 -75 
Q 1088 -75 661 373 
Q 234 822 234 1631 
Q 234 2469 665 2931 
Q 1097 3394 1784 3394 
Q 2450 3394 2872 2941 
Q 3294 2488 3294 1666 
Q 3294 1616 3291 1516 
L 816 1516 
Q 847 969 1125 678 
Q 1403 388 1819 388 
Q 2128 388 2347 550 
Q 2566 713 2694 1069 
z
M 847 1978 
L 2700 1978 
Q 2663 2397 2488 2606 
Q 2219 2931 1791 2931 
Q 1403 2931 1139 2672 
Q 875 2413 847 1978 
z
" transform="scale(0.015625)"/>
      </defs>
      <use xlink:href="#ArialMT-44"/>
      <use xlink:href="#ArialMT-61" transform="translate(72.216797 0)"/>
      <use xlink:href="#ArialMT-74" transform="translate(127.832031 0)"/>
      <use xlink:href="#ArialMT-65" transform="translate(155.615234 0)"/>
     </g>
    </g>
   </g>
   <g id="matplotlib.axis_2">
    <g id="ytick_1">
     <g id="line2d_10">
      <path d="M 56.400156 299.847017 
L 982.694959 299.847017 
" clip-path="url(#p9fc35a79ad)" style="fill: none; stroke: #cccccc; stroke-linecap: round"/>
     </g>
     <g id="text_11">
      <!-- 0 -->
      <g style="fill: #262626" transform="translate(46.783125 303.783814) scale(0.11 -0.11)">
       <use xlink:href="#ArialMT-30"/>
      </g>
     </g>
    </g>
    <g id="ytick_2">
     <g id="line2d_11">
      <path d="M 56.400156 243.892403 
L 982.694959 243.892403 
" clip-path="url(#p9fc35a79ad)" style="fill: none; stroke: #cccccc; stroke-linecap: round"/>
     </g>
     <g id="text_12">
      <!-- 20000 -->
      <g style="fill: #262626" transform="translate(22.315 247.8292) scale(0.11 -0.11)">
       <use xlink:href="#ArialMT-32"/>
       <use xlink:href="#ArialMT-30" transform="translate(55.615234 0)"/>
       <use xlink:href="#ArialMT-30" transform="translate(111.230469 0)"/>
       <use xlink:href="#ArialMT-30" transform="translate(166.845703 0)"/>
       <use xlink:href="#ArialMT-30" transform="translate(222.460938 0)"/>
      </g>
     </g>
    </g>
    <g id="ytick_3">
     <g id="line2d_12">
      <path d="M 56.400156 187.93779 
L 982.694959 187.93779 
" clip-path="url(#p9fc35a79ad)" style="fill: none; stroke: #cccccc; stroke-linecap: round"/>
     </g>
     <g id="text_13">
      <!-- 40000 -->
      <g style="fill: #262626" transform="translate(22.315 191.874587) scale(0.11 -0.11)">
       <use xlink:href="#ArialMT-34"/>
       <use xlink:href="#ArialMT-30" transform="translate(55.615234 0)"/>
       <use xlink:href="#ArialMT-30" transform="translate(111.230469 0)"/>
       <use xlink:href="#ArialMT-30" transform="translate(166.845703 0)"/>
       <use xlink:href="#ArialMT-30" transform="translate(222.460938 0)"/>
      </g>
     </g>
    </g>
    <g id="ytick_4">
     <g id="line2d_13">
      <path d="M 56.400156 131.983176 
L 982.694959 131.983176 
" clip-path="url(#p9fc35a79ad)" style="fill: none; stroke: #cccccc; stroke-linecap: round"/>
     </g>
     <g id="text_14">
      <!-- 60000 -->
      <g style="fill: #262626" transform="translate(22.315 135.919973) scale(0.11 -0.11)">
       <defs>
        <path id="ArialMT-36" d="M 3184 3459 
L 2625 3416 
Q 2550 3747 2413 3897 
Q 2184 4138 1850 4138 
Q 1581 4138 1378 3988 
Q 1113 3794 959 3422 
Q 806 3050 800 2363 
Q 1003 2672 1297 2822 
Q 1591 2972 1913 2972 
Q 2475 2972 2870 2558 
Q 3266 2144 3266 1488 
Q 3266 1056 3080 686 
Q 2894 316 2569 119 
Q 2244 -78 1831 -78 
Q 1128 -78 684 439 
Q 241 956 241 2144 
Q 241 3472 731 4075 
Q 1159 4600 1884 4600 
Q 2425 4600 2770 4297 
Q 3116 3994 3184 3459 
z
M 888 1484 
Q 888 1194 1011 928 
Q 1134 663 1356 523 
Q 1578 384 1822 384 
Q 2178 384 2434 671 
Q 2691 959 2691 1453 
Q 2691 1928 2437 2201 
Q 2184 2475 1800 2475 
Q 1419 2475 1153 2201 
Q 888 1928 888 1484 
z
" transform="scale(0.015625)"/>
       </defs>
       <use xlink:href="#ArialMT-36"/>
       <use xlink:href="#ArialMT-30" transform="translate(55.615234 0)"/>
       <use xlink:href="#ArialMT-30" transform="translate(111.230469 0)"/>
       <use xlink:href="#ArialMT-30" transform="translate(166.845703 0)"/>
       <use xlink:href="#ArialMT-30" transform="translate(222.460938 0)"/>
      </g>
     </g>
    </g>
    <g id="ytick_5">
     <g id="line2d_14">
      <path d="M 56.400156 76.028563 
L 982.694959 76.028563 
" clip-path="url(#p9fc35a79ad)" style="fill: none; stroke: #cccccc; stroke-linecap: round"/>
     </g>
     <g id="text_15">
      <!-- 80000 -->
      <g style="fill: #262626" transform="translate(22.315 79.96536) scale(0.11 -0.11)">
       <defs>
        <path id="ArialMT-38" d="M 1131 2484 
Q 781 2613 612 2850 
Q 444 3088 444 3419 
Q 444 3919 803 4259 
Q 1163 4600 1759 4600 
Q 2359 4600 2725 4251 
Q 3091 3903 3091 3403 
Q 3091 3084 2923 2848 
Q 2756 2613 2416 2484 
Q 2838 2347 3058 2040 
Q 3278 1734 3278 1309 
Q 3278 722 2862 322 
Q 2447 -78 1769 -78 
Q 1091 -78 675 323 
Q 259 725 259 1325 
Q 259 1772 486 2073 
Q 713 2375 1131 2484 
z
M 1019 3438 
Q 1019 3113 1228 2906 
Q 1438 2700 1772 2700 
Q 2097 2700 2305 2904 
Q 2513 3109 2513 3406 
Q 2513 3716 2298 3927 
Q 2084 4138 1766 4138 
Q 1444 4138 1231 3931 
Q 1019 3725 1019 3438 
z
M 838 1322 
Q 838 1081 952 856 
Q 1066 631 1291 507 
Q 1516 384 1775 384 
Q 2178 384 2440 643 
Q 2703 903 2703 1303 
Q 2703 1709 2433 1975 
Q 2163 2241 1756 2241 
Q 1359 2241 1098 1978 
Q 838 1716 838 1322 
z
" transform="scale(0.015625)"/>
       </defs>
       <use xlink:href="#ArialMT-38"/>
       <use xlink:href="#ArialMT-30" transform="translate(55.615234 0)"/>
       <use xlink:href="#ArialMT-30" transform="translate(111.230469 0)"/>
       <use xlink:href="#ArialMT-30" transform="translate(166.845703 0)"/>
       <use xlink:href="#ArialMT-30" transform="translate(222.460938 0)"/>
      </g>
     </g>
    </g>
    <g id="text_16">
     <!-- Daily cluster sales -->
     <g style="fill: #262626" transform="translate(15.789375 216.548437) rotate(-90) scale(0.12 -0.12)">
      <defs>
       <path id="ArialMT-69" d="M 425 3934 
L 425 4581 
L 988 4581 
L 988 3934 
L 425 3934 
z
M 425 0 
L 425 3319 
L 988 3319 
L 988 0 
L 425 0 
z
" transform="scale(0.015625)"/>
       <path id="ArialMT-6c" d="M 409 0 
L 409 4581 
L 972 4581 
L 972 0 
L 409 0 
z
" transform="scale(0.015625)"/>
       <path id="ArialMT-79" d="M 397 -1278 
L 334 -750 
Q 519 -800 656 -800 
Q 844 -800 956 -737 
Q 1069 -675 1141 -563 
Q 1194 -478 1313 -144 
Q 1328 -97 1363 -6 
L 103 3319 
L 709 3319 
L 1400 1397 
Q 1534 1031 1641 628 
Q 1738 1016 1872 1384 
L 2581 3319 
L 3144 3319 
L 1881 -56 
Q 1678 -603 1566 -809 
Q 1416 -1088 1222 -1217 
Q 1028 -1347 759 -1347 
Q 597 -1347 397 -1278 
z
" transform="scale(0.015625)"/>
       <path id="ArialMT-20" transform="scale(0.015625)"/>
       <path id="ArialMT-63" d="M 2588 1216 
L 3141 1144 
Q 3050 572 2676 248 
Q 2303 -75 1759 -75 
Q 1078 -75 664 370 
Q 250 816 250 1647 
Q 250 2184 428 2587 
Q 606 2991 970 3192 
Q 1334 3394 1763 3394 
Q 2303 3394 2647 3120 
Q 2991 2847 3088 2344 
L 2541 2259 
Q 2463 2594 2264 2762 
Q 2066 2931 1784 2931 
Q 1359 2931 1093 2626 
Q 828 2322 828 1663 
Q 828 994 1084 691 
Q 1341 388 1753 388 
Q 2084 388 2306 591 
Q 2528 794 2588 1216 
z
" transform="scale(0.015625)"/>
       <path id="ArialMT-75" d="M 2597 0 
L 2597 488 
Q 2209 -75 1544 -75 
Q 1250 -75 995 37 
Q 741 150 617 320 
Q 494 491 444 738 
Q 409 903 409 1263 
L 409 3319 
L 972 3319 
L 972 1478 
Q 972 1038 1006 884 
Q 1059 663 1231 536 
Q 1403 409 1656 409 
Q 1909 409 2131 539 
Q 2353 669 2445 892 
Q 2538 1116 2538 1541 
L 2538 3319 
L 3100 3319 
L 3100 0 
L 2597 0 
z
" transform="scale(0.015625)"/>
       <path id="ArialMT-73" d="M 197 991 
L 753 1078 
Q 800 744 1014 566 
Q 1228 388 1613 388 
Q 2000 388 2187 545 
Q 2375 703 2375 916 
Q 2375 1106 2209 1216 
Q 2094 1291 1634 1406 
Q 1016 1563 777 1677 
Q 538 1791 414 1992 
Q 291 2194 291 2438 
Q 291 2659 392 2848 
Q 494 3038 669 3163 
Q 800 3259 1026 3326 
Q 1253 3394 1513 3394 
Q 1903 3394 2198 3281 
Q 2494 3169 2634 2976 
Q 2775 2784 2828 2463 
L 2278 2388 
Q 2241 2644 2061 2787 
Q 1881 2931 1553 2931 
Q 1166 2931 1000 2803 
Q 834 2675 834 2503 
Q 834 2394 903 2306 
Q 972 2216 1119 2156 
Q 1203 2125 1616 2013 
Q 2213 1853 2448 1751 
Q 2684 1650 2818 1456 
Q 2953 1263 2953 975 
Q 2953 694 2789 445 
Q 2625 197 2315 61 
Q 2006 -75 1616 -75 
Q 969 -75 630 194 
Q 291 463 197 991 
z
" transform="scale(0.015625)"/>
       <path id="ArialMT-72" d="M 416 0 
L 416 3319 
L 922 3319 
L 922 2816 
Q 1116 3169 1280 3281 
Q 1444 3394 1641 3394 
Q 1925 3394 2219 3213 
L 2025 2691 
Q 1819 2813 1613 2813 
Q 1428 2813 1281 2702 
Q 1134 2591 1072 2394 
Q 978 2094 978 1738 
L 978 0 
L 416 0 
z
" transform="scale(0.015625)"/>
      </defs>
      <use xlink:href="#ArialMT-44"/>
      <use xlink:href="#ArialMT-61" transform="translate(72.216797 0)"/>
      <use xlink:href="#ArialMT-69" transform="translate(127.832031 0)"/>
      <use xlink:href="#ArialMT-6c" transform="translate(150.048828 0)"/>
      <use xlink:href="#ArialMT-79" transform="translate(172.265625 0)"/>
      <use xlink:href="#ArialMT-20" transform="translate(222.265625 0)"/>
      <use xlink:href="#ArialMT-63" transform="translate(250.048828 0)"/>
      <use xlink:href="#ArialMT-6c" transform="translate(300.048828 0)"/>
      <use xlink:href="#ArialMT-75" transform="translate(322.265625 0)"/>
      <use xlink:href="#ArialMT-73" transform="translate(377.880859 0)"/>
      <use xlink:href="#ArialMT-74" transform="translate(427.880859 0)"/>
      <use xlink:href="#ArialMT-65" transform="translate(455.664062 0)"/>
      <use xlink:href="#ArialMT-72" transform="translate(511.279297 0)"/>
      <use xlink:href="#ArialMT-20" transform="translate(544.580078 0)"/>
      <use xlink:href="#ArialMT-73" transform="translate(572.363281 0)"/>
      <use xlink:href="#ArialMT-61" transform="translate(622.363281 0)"/>
      <use xlink:href="#ArialMT-6c" transform="translate(677.978516 0)"/>
      <use xlink:href="#ArialMT-65" transform="translate(700.195312 0)"/>
      <use xlink:href="#ArialMT-73" transform="translate(755.810547 0)"/>
     </g>
    </g>
   </g>
   <g id="line2d_15">
    <path d="M 98.504465 239.318897 
L 99.645504 221.478636 
L 100.786542 195.896019 
L 101.92758 248.045243 
L 103.068618 286.247304 
L 105.350695 246.667584 
L 106.491733 247.249289 
L 107.632771 247.552115 
L 108.773809 243.765694 
L 109.914847 238.032892 
L 111.055886 299.847017 
L 112.196924 274.077288 
L 113.337962 201.550988 
L 114.479 242.690862 
L 115.620038 231.58001 
L 116.761077 265.934772 
L 117.902115 260.168481 
L 119.043153 299.847017 
L 120.184191 286.129464 
L 121.325229 290.263726 
L 122.466267 268.177937 
L 123.607306 292.734402 
L 124.748344 299.847017 
L 136.158726 299.847017 
L 137.299764 279.271722 
L 138.440802 278.158002 
L 139.58184 286.787182 
L 140.722879 265.658804 
L 141.863917 251.126775 
L 143.004955 299.847017 
L 144.145993 259.193976 
L 145.287031 258.582476 
L 147.569108 273.431739 
L 148.710146 259.717963 
L 150.992222 299.847017 
L 152.13326 272.998147 
L 153.274299 267.733825 
L 154.415337 264.017571 
L 155.556375 282.421939 
L 156.697413 278.037084 
L 157.838451 274.921811 
L 158.97949 299.847017 
L 160.120528 276.504459 
L 161.261566 269.534388 
L 162.402604 277.053793 
L 163.543642 266.301415 
L 164.684681 270.603541 
L 165.825719 273.373267 
L 166.966757 299.847017 
L 168.107795 277.385604 
L 169.248833 276.795843 
L 170.389872 272.808461 
L 171.53091 273.385353 
L 172.671948 267.300121 
L 173.812986 277.399033 
L 174.954024 299.847017 
L 176.095062 288.46666 
L 177.236101 281.096542 
L 178.377139 277.820847 
L 179.518177 287.460596 
L 180.659215 280.559769 
L 181.800253 283.726941 
L 182.941292 299.847017 
L 184.08233 273.909955 
L 185.223368 274.22719 
L 186.364406 255.723503 
L 187.505444 266.17921 
L 188.646483 268.925826 
L 189.787521 270.385794 
L 190.928559 299.847017 
L 192.069597 287.377587 
L 193.210635 266.654069 
L 195.492712 269.071756 
L 196.63375 236.378706 
L 197.774788 277.690445 
L 198.915826 299.847017 
L 200.056864 276.460562 
L 201.197903 264.474804 
L 202.338941 273.092123 
L 203.479979 267.295952 
L 204.621017 252.774975 
L 205.762055 275.119414 
L 206.903094 299.847017 
L 208.044132 273.999567 
L 209.18517 244.380328 
L 210.326208 270.542187 
L 211.467246 260.87267 
L 212.608285 266.922987 
L 214.890361 299.847017 
L 216.031399 287.96097 
L 217.172437 264.845951 
L 218.313476 266.92198 
L 219.454514 268.461207 
L 220.595552 253.306571 
L 221.73659 270.855617 
L 222.877628 299.847017 
L 224.018666 275.348996 
L 225.159705 262.067441 
L 226.300743 261.752585 
L 227.441781 271.294105 
L 228.582819 256.34292 
L 229.723857 268.195031 
L 230.864896 299.847017 
L 232.005934 261.474238 
L 233.146972 188.147927 
L 234.28801 242.953989 
L 235.429048 249.178604 
L 236.570087 263.18105 
L 237.711125 299.847017 
L 241.134239 299.847017 
L 242.275278 267.643486 
L 243.416316 258.418361 
L 244.557354 223.97189 
L 245.698392 275.166248 
L 246.83943 299.847017 
L 247.980468 276.247907 
L 249.121507 264.605207 
L 250.262545 272.884055 
L 251.403583 257.852128 
L 252.544621 266.880713 
L 254.826698 299.847017 
L 255.967736 270.826353 
L 257.108774 237.157454 
L 258.249812 261.305339 
L 259.39085 271.927595 
L 260.531889 241.531119 
L 261.672927 274.767432 
L 262.813965 299.847017 
L 265.096041 244.953247 
L 266.23708 216.058732 
L 267.378118 254.002143 
L 268.519156 248.621603 
L 269.660194 256.60711 
L 270.801232 299.847017 
L 271.94227 280.573087 
L 273.083309 299.847017 
L 274.224347 269.929904 
L 275.365385 256.808994 
L 276.506423 263.821618 
L 277.647461 250.582001 
L 278.7885 299.847017 
L 279.929538 264.84556 
L 281.070576 255.341305 
L 282.211614 258.272599 
L 283.352652 256.066169 
L 284.493691 258.926541 
L 285.634729 275.406657 
L 286.775767 299.847017 
L 287.916805 274.876991 
L 289.057843 261.289029 
L 290.198882 249.128049 
L 291.33992 271.656831 
L 292.480958 256.488263 
L 293.621996 260.761684 
L 294.763034 299.847017 
L 295.904072 267.781051 
L 297.045111 257.864914 
L 298.186149 266.116569 
L 299.327187 252.275803 
L 300.468225 243.24291 
L 301.609263 267.158192 
L 302.750302 299.847017 
L 303.89134 281.367698 
L 305.032378 299.847017 
L 306.173416 273.602792 
L 307.314454 273.850643 
L 308.455493 267.171677 
L 309.596531 266.722893 
L 310.737569 299.847017 
L 311.878607 258.645117 
L 313.019645 239.93893 
L 314.160684 198.221464 
L 315.301722 253.590569 
L 316.44276 271.004428 
L 317.583798 250.966158 
L 318.724836 299.847017 
L 319.865874 262.505706 
L 321.006913 272.499983 
L 322.147951 266.269521 
L 323.288989 248.290492 
L 324.430027 261.670527 
L 325.571065 276.503648 
L 326.712104 299.847017 
L 327.853142 285.586396 
L 328.99418 266.629449 
L 330.135218 280.294321 
L 331.276256 255.846967 
L 332.417295 273.860016 
L 333.558333 272.76946 
L 334.699371 299.847017 
L 335.840409 268.87639 
L 336.981447 255.459033 
L 338.122486 254.527501 
L 339.263524 250.592073 
L 340.404562 257.575657 
L 341.5456 280.657998 
L 342.686638 299.847017 
L 343.827676 281.967504 
L 344.968715 247.355658 
L 346.109753 262.625337 
L 347.250791 253.408241 
L 348.391829 268.978983 
L 349.532867 272.595889 
L 350.673906 299.847017 
L 351.814944 286.70865 
L 352.955982 270.807999 
L 354.09702 272.95218 
L 355.238058 271.800858 
L 356.379097 240.151698 
L 357.520135 267.822877 
L 358.661173 299.847017 
L 360.943249 255.771708 
L 362.084288 266.121101 
L 363.225326 266.922511 
L 364.366364 255.6133 
L 365.507402 274.767096 
L 366.64844 299.847017 
L 367.789478 275.318445 
L 368.930517 262.068336 
L 370.071555 255.40957 
L 371.212593 263.616685 
L 372.353631 257.680068 
L 373.494669 276.154463 
L 374.635708 299.847017 
L 375.776746 286.2132 
L 376.917784 256.841056 
L 378.058822 259.696169 
L 379.19986 268.855547 
L 380.340899 262.262499 
L 382.622975 299.847017 
L 383.764013 276.028537 
L 384.905051 272.170215 
L 386.04609 272.976437 
L 387.187128 270.505789 
L 388.328166 251.286862 
L 389.469204 236.566014 
L 390.610242 299.847017 
L 391.75128 271.194478 
L 392.892319 271.283194 
L 394.033357 260.549532 
L 395.174395 262.765531 
L 396.315433 249.351112 
L 397.456471 264.123493 
L 398.59751 299.847017 
L 399.738548 264.43046 
L 400.879586 272.336484 
L 402.020624 251.603565 
L 403.161662 250.087698 
L 404.302701 241.11532 
L 405.443739 280.603974 
L 406.584777 299.847017 
L 407.725815 278.995223 
L 408.866853 299.847017 
L 410.007892 244.33022 
L 411.14893 277.420548 
L 412.289968 262.617167 
L 413.431006 265.571963 
L 414.572044 299.847017 
L 416.854121 268.229751 
L 417.995159 264.547322 
L 419.136197 274.494094 
L 420.277235 271.321607 
L 421.418273 273.139908 
L 422.559312 299.847017 
L 423.70035 276.775055 
L 424.841388 233.903694 
L 425.982426 271.354704 
L 427.123464 266.746282 
L 428.264503 268.080688 
L 429.405541 276.036454 
L 430.546579 299.847017 
L 431.687617 269.270562 
L 432.828655 249.916281 
L 433.969694 212.972024 
L 435.110732 260.136475 
L 436.25177 248.408724 
L 437.392808 266.351075 
L 438.533846 299.847017 
L 439.674885 266.518183 
L 440.815923 138.915309 
L 441.956961 238.042852 
L 443.097999 244.360072 
L 444.239037 241.720973 
L 445.380075 242.755825 
L 446.521114 299.847017 
L 447.662152 261.598066 
L 448.80319 247.892011 
L 449.944228 221.341995 
L 451.085266 257.704296 
L 452.226305 227.110496 
L 453.367343 236.234035 
L 454.508381 299.847017 
L 455.649419 269.368567 
L 456.790457 253.261724 
L 457.931496 224.563526 
L 459.072534 254.967808 
L 460.213572 180.311036 
L 461.35461 246.057987 
L 462.495648 299.847017 
L 463.636687 255.064106 
L 464.777725 249.498496 
L 465.918763 234.521516 
L 467.059801 239.744964 
L 468.200839 261.340199 
L 469.341877 256.248609 
L 470.482916 299.847017 
L 471.623954 262.850078 
L 472.764992 263.694545 
L 473.90603 253.842029 
L 475.047068 268.066979 
L 476.188107 272.808825 
L 477.329145 253.408045 
L 478.470183 299.847017 
L 479.611221 262.354852 
L 480.752259 263.800356 
L 481.893298 248.530258 
L 483.034336 266.922567 
L 484.175374 207.484779 
L 485.316412 250.984567 
L 486.45745 299.847017 
L 487.598489 257.262507 
L 488.739527 194.106618 
L 489.880565 227.060948 
L 491.021603 185.58792 
L 492.162641 216.363461 
L 493.303679 241.237133 
L 494.444718 299.847017 
L 495.585756 265.435265 
L 496.726794 174.69655 
L 497.867832 230.660284 
L 499.00887 245.509128 
L 500.149909 247.476772 
L 501.290947 254.068925 
L 502.431985 299.847017 
L 503.573023 256.120837 
L 504.714061 249.441283 
L 505.8551 236.043258 
L 508.137176 203.877357 
L 509.278214 260.139525 
L 510.419252 299.847017 
L 511.560291 268.473573 
L 512.701329 230.791918 
L 513.842367 245.379985 
L 514.983405 143.925458 
L 516.124443 157.614306 
L 517.265481 208.952664 
L 518.40652 299.847017 
L 520.688596 158.240326 
L 521.829634 36.556108 
L 522.970672 198.101666 
L 524.111711 188.289465 
L 526.393787 299.847017 
L 527.534825 280.296279 
L 528.675863 250.365401 
L 529.816902 250.923269 
L 530.95794 264.092606 
L 532.098978 234.121385 
L 533.240016 257.859822 
L 534.381054 299.847017 
L 535.522093 287.555523 
L 536.663131 272.560218 
L 537.804169 260.401365 
L 538.945207 295.267803 
L 540.086245 286.479432 
L 541.227283 299.847017 
L 552.637665 299.847017 
L 553.778704 276.557252 
L 554.919742 250.077431 
L 556.06078 250.965962 
L 557.201818 273.410337 
L 558.342856 299.847017 
L 559.483895 278.63065 
L 560.624933 269.588692 
L 561.765971 213.865927 
L 562.907009 266.378604 
L 564.048047 274.93054 
L 565.189085 272.448337 
L 566.330124 299.847017 
L 567.471162 287.483062 
L 568.6122 257.886345 
L 569.753238 279.00342 
L 570.894276 278.71682 
L 572.035315 274.682884 
L 573.176353 266.74894 
L 574.317391 299.847017 
L 575.458429 285.635692 
L 576.599467 273.101495 
L 577.740506 265.663672 
L 578.881544 276.684269 
L 580.022582 276.193407 
L 581.16362 278.660922 
L 582.304658 299.847017 
L 583.445697 290.031906 
L 585.727773 258.314929 
L 586.868811 270.612074 
L 588.009849 263.463313 
L 589.150887 263.805224 
L 590.291926 299.847017 
L 591.432964 295.261704 
L 592.574002 251.156823 
L 593.71504 270.067188 
L 594.856078 285.446762 
L 595.997117 280.278709 
L 597.138155 272.311108 
L 598.279193 299.847017 
L 599.420231 290.062905 
L 600.561269 270.53648 
L 601.702308 269.213209 
L 602.843346 264.977165 
L 603.984384 265.896751 
L 605.125422 276.48342 
L 606.26646 299.847017 
L 607.407499 285.005979 
L 608.548537 280.73916 
L 609.689575 260.944096 
L 610.830613 260.937354 
L 611.971651 268.579075 
L 613.112689 268.605346 
L 614.253728 299.847017 
L 615.394766 285.607323 
L 616.535804 273.316445 
L 617.676842 277.989438 
L 618.81788 277.192057 
L 619.958919 271.192296 
L 621.099957 273.426843 
L 622.240995 299.847017 
L 623.382033 285.696123 
L 624.523071 260.450772 
L 625.66411 271.259945 
L 626.805148 272.006156 
L 627.946186 275.84481 
L 629.087224 270.324943 
L 630.228262 299.847017 
L 631.369301 293.330095 
L 632.510339 269.839089 
L 633.651377 276.921433 
L 634.792415 270.545125 
L 635.933453 267.202592 
L 637.074492 258.175238 
L 638.21553 299.847017 
L 639.356568 270.587678 
L 640.497606 276.927364 
L 641.638644 257.322434 
L 642.779682 272.143077 
L 643.920721 242.949876 
L 645.061759 262.163375 
L 646.202797 299.847017 
L 647.343835 284.923586 
L 648.484873 274.402552 
L 649.625912 233.210947 
L 650.76695 257.668709 
L 653.049026 270.755234 
L 654.190064 299.847017 
L 655.331103 288.087232 
L 656.472141 266.0633 
L 657.613179 278.8362 
L 658.754217 278.877662 
L 659.895255 277.280941 
L 661.036294 267.587532 
L 662.177332 299.847017 
L 664.459408 272.394089 
L 665.600446 269.045961 
L 666.741484 266.239109 
L 667.882523 257.368289 
L 669.023561 259.527801 
L 670.164599 299.847017 
L 671.305637 281.814076 
L 672.446675 256.837447 
L 673.587714 270.751485 
L 674.728752 256.199593 
L 675.86979 257.197907 
L 677.010828 299.847017 
L 680.433943 299.847017 
L 681.574981 254.018902 
L 682.716019 269.977801 
L 683.857057 274.41987 
L 684.998096 299.847017 
L 686.139134 299.847017 
L 687.280172 291.958312 
L 688.42121 299.847017 
L 689.562248 262.932499 
L 691.844325 264.794249 
L 692.985363 251.167063 
L 694.126401 299.847017 
L 695.267439 277.707679 
L 696.408477 264.344178 
L 697.549516 242.437388 
L 698.690554 266.099167 
L 699.831592 264.495759 
L 700.97263 271.346199 
L 702.113668 299.847017 
L 703.254707 290.488888 
L 704.395745 271.22212 
L 705.536783 241.574512 
L 706.677821 261.630464 
L 707.818859 262.756774 
L 708.959898 271.806565 
L 710.100936 299.847017 
L 711.241974 266.283733 
L 712.383012 257.833188 
L 713.52405 244.267551 
L 714.665088 276.093836 
L 716.947165 260.423299 
L 718.088203 299.847017 
L 719.229241 289.780195 
L 720.370279 299.847017 
L 721.511318 274.689851 
L 722.652356 280.599777 
L 723.793394 263.032518 
L 724.934432 279.549425 
L 726.07547 299.847017 
L 727.216509 269.402028 
L 728.357547 281.201009 
L 729.498585 267.199486 
L 730.639623 248.376215 
L 731.780661 269.762432 
L 732.9217 281.716715 
L 734.062738 299.847017 
L 735.203776 286.289634 
L 736.344814 277.733306 
L 737.485852 250.992456 
L 738.62689 280.127996 
L 739.767929 264.890323 
L 740.908967 278.564036 
L 742.050005 299.847017 
L 743.191043 279.299476 
L 744.332081 268.544999 
L 745.47312 272.692467 
L 746.614158 278.056584 
L 747.755196 273.552182 
L 748.896234 280.841865 
L 750.037272 299.847017 
L 751.178311 292.508905 
L 752.319349 278.710274 
L 753.460387 274.152015 
L 754.601425 275.627734 
L 755.742463 247.664808 
L 756.883502 285.586368 
L 758.02454 299.847017 
L 759.165578 292.845472 
L 760.306616 263.976389 
L 761.447654 247.101792 
L 762.588692 272.493492 
L 763.729731 264.55135 
L 764.870769 275.390458 
L 766.011807 299.847017 
L 767.152845 291.816691 
L 768.293883 271.739392 
L 769.434922 274.004099 
L 770.57596 278.081568 
L 771.716998 271.676275 
L 772.858036 282.659998 
L 773.999074 299.847017 
L 775.140113 280.021458 
L 776.281151 270.816952 
L 777.422189 256.12853 
L 779.704265 271.068832 
L 780.845304 275.959069 
L 781.986342 299.847017 
L 783.12738 270.413855 
L 784.268418 272.018522 
L 785.409456 275.115106 
L 786.550494 274.239976 
L 787.691533 245.142262 
L 788.832571 278.903261 
L 789.973609 299.847017 
L 791.114647 284.547767 
L 792.255685 275.242179 
L 793.396724 277.004497 
L 794.537762 262.38434 
L 795.6788 218.694139 
L 796.819838 278.59884 
L 797.960876 299.847017 
L 799.101915 290.053841 
L 800.242953 274.696006 
L 801.383991 284.327054 
L 802.525029 268.518057 
L 803.666067 241.849808 
L 804.807106 280.973666 
L 805.948144 299.847017 
L 807.089182 292.173961 
L 808.23022 282.949423 
L 809.371258 279.859162 
L 810.512296 247.148123 
L 811.653335 269.661629 
L 812.794373 283.851831 
L 813.935411 299.847017 
L 815.076449 285.169283 
L 816.217487 274.396481 
L 817.358526 281.622264 
L 818.499564 255.455676 
L 819.640602 276.527708 
L 820.78164 285.710336 
L 821.922678 299.847017 
L 823.063717 288.795421 
L 824.204755 299.847017 
L 825.345793 263.752738 
L 826.486831 297.697101 
L 827.627869 267.71771 
L 828.768908 251.14331 
L 829.909946 299.847017 
L 831.050984 284.516796 
L 832.192022 278.707308 
L 833.33306 273.989551 
L 834.474098 272.399712 
L 835.615137 274.620411 
L 836.756175 273.837466 
L 837.897213 299.847017 
L 839.038251 261.327329 
L 840.179289 267.606081 
L 841.320328 254.569859 
L 842.461366 277.127933 
L 843.602404 263.262156 
L 844.743442 273.365293 
L 845.88448 299.847017 
L 847.025519 283.1362 
L 848.166557 277.83022 
L 849.307595 205.109645 
L 850.448633 261.36177 
L 851.589671 248.334332 
L 852.73071 268.223064 
L 853.871748 299.847017 
L 855.012786 272.820603 
L 857.294862 262.414052 
L 858.4359 265.357852 
L 859.576939 260.724894 
L 860.717977 273.673743 
L 861.859015 299.847017 
L 863.000053 287.116615 
L 864.141091 259.601857 
L 865.28213 249.935977 
L 866.423168 252.167671 
L 867.564206 253.878204 
L 868.705244 228.638253 
L 869.846282 299.847017 
L 870.987321 288.660291 
L 872.128359 258.029588 
L 873.269397 281.265553 
L 874.410435 275.937135 
L 875.551473 269.664931 
L 876.692512 275.901044 
L 877.83355 299.847017 
L 878.974588 277.470991 
L 880.115626 263.92119 
L 881.256664 260.81929 
L 882.397703 273.629707 
L 883.538741 274.358935 
L 884.679779 267.014025 
L 885.820817 299.847017 
L 886.961855 286.822434 
L 888.102893 266.933059 
L 889.243932 270.89859 
L 890.38497 267.443784 
L 891.526008 266.343856 
L 892.667046 277.574619 
L 893.808084 299.847017 
L 894.949123 269.266338 
L 896.090161 253.263514 
L 897.231199 275.197919 
L 898.372237 263.069672 
L 899.513275 233.458575 
L 900.654314 246.075836 
L 901.795352 299.847017 
L 902.93639 271.597155 
L 904.077428 248.599669 
L 905.218466 250.37869 
L 906.359505 242.166092 
L 907.500543 247.432484 
L 908.641581 256.139218 
L 909.782619 299.847017 
L 910.923657 272.472985 
L 912.064695 221.164675 
L 913.205734 247.962402 
L 914.346772 252.902271 
L 915.48781 259.350341 
L 916.628848 261.63287 
L 917.769886 299.847017 
L 918.910925 269.886847 
L 921.193001 244.260473 
L 922.334039 243.960556 
L 923.475077 262.291931 
L 924.616116 253.344033 
L 925.757154 299.847017 
L 926.898192 282.257712 
L 928.03923 249.135575 
L 929.180268 243.807604 
L 930.321307 259.636129 
L 931.462345 250.004606 
L 932.603383 251.898585 
L 933.744421 299.847017 
L 934.885459 277.894371 
L 936.026497 222.542529 
L 937.167536 249.800259 
L 938.308574 260.514365 
L 939.449612 228.976526 
L 940.59065 274.06716 
L 940.59065 274.06716 
" clip-path="url(#p9fc35a79ad)" style="fill: none; stroke: #000000; stroke-width: 1.4; stroke-linecap: round"/>
   </g>
   <g id="patch_3">
    <path d="M 56.400156 313.011563 
L 56.400156 23.391562 
" style="fill: none; stroke: #cccccc; stroke-linejoin: miter; stroke-linecap: square"/>
   </g>
   <g id="patch_4">
    <path d="M 982.694959 313.011563 
L 982.694959 23.391562 
" style="fill: none; stroke: #cccccc; stroke-linejoin: miter; stroke-linecap: square"/>
   </g>
   <g id="patch_5">
    <path d="M 56.400156 313.011562 
L 982.694959 313.011562 
" style="fill: none; stroke: #cccccc; stroke-linejoin: miter; stroke-linecap: square"/>
   </g>
   <g id="patch_6">
    <path d="M 56.400156 23.391562 
L 982.694959 23.391562 
" style="fill: none; stroke: #cccccc; stroke-linejoin: miter; stroke-linecap: square"/>
   </g>
   <g id="text_17">
    <!-- Cluster 0: Raw Daily Sales Time Series -->
    <g style="fill: #262626" transform="translate(390.89412 17.391563) scale(0.14 -0.14)">
     <defs>
      <path id="Arial-BoldMT-43" d="M 3397 1684 
L 4294 1400 
Q 4088 650 3608 286 
Q 3128 -78 2391 -78 
Q 1478 -78 890 545 
Q 303 1169 303 2250 
Q 303 3394 893 4026 
Q 1484 4659 2447 4659 
Q 3288 4659 3813 4163 
Q 4125 3869 4281 3319 
L 3366 3100 
Q 3284 3456 3026 3662 
Q 2769 3869 2400 3869 
Q 1891 3869 1573 3503 
Q 1256 3138 1256 2319 
Q 1256 1450 1568 1081 
Q 1881 713 2381 713 
Q 2750 713 3015 947 
Q 3281 1181 3397 1684 
z
" transform="scale(0.015625)"/>
      <path id="Arial-BoldMT-6c" d="M 459 0 
L 459 4581 
L 1338 4581 
L 1338 0 
L 459 0 
z
" transform="scale(0.015625)"/>
      <path id="Arial-BoldMT-75" d="M 2644 0 
L 2644 497 
Q 2463 231 2167 78 
Q 1872 -75 1544 -75 
Q 1209 -75 943 72 
Q 678 219 559 484 
Q 441 750 441 1219 
L 441 3319 
L 1319 3319 
L 1319 1794 
Q 1319 1094 1367 936 
Q 1416 778 1544 686 
Q 1672 594 1869 594 
Q 2094 594 2272 717 
Q 2450 841 2515 1023 
Q 2581 1206 2581 1919 
L 2581 3319 
L 3459 3319 
L 3459 0 
L 2644 0 
z
" transform="scale(0.015625)"/>
      <path id="Arial-BoldMT-73" d="M 150 947 
L 1031 1081 
Q 1088 825 1259 692 
Q 1431 559 1741 559 
Q 2081 559 2253 684 
Q 2369 772 2369 919 
Q 2369 1019 2306 1084 
Q 2241 1147 2013 1200 
Q 950 1434 666 1628 
Q 272 1897 272 2375 
Q 272 2806 612 3100 
Q 953 3394 1669 3394 
Q 2350 3394 2681 3172 
Q 3013 2950 3138 2516 
L 2309 2363 
Q 2256 2556 2107 2659 
Q 1959 2763 1684 2763 
Q 1338 2763 1188 2666 
Q 1088 2597 1088 2488 
Q 1088 2394 1175 2328 
Q 1294 2241 1995 2081 
Q 2697 1922 2975 1691 
Q 3250 1456 3250 1038 
Q 3250 581 2869 253 
Q 2488 -75 1741 -75 
Q 1063 -75 667 200 
Q 272 475 150 947 
z
" transform="scale(0.015625)"/>
      <path id="Arial-BoldMT-74" d="M 1981 3319 
L 1981 2619 
L 1381 2619 
L 1381 1281 
Q 1381 875 1398 808 
Q 1416 741 1477 697 
Q 1538 653 1625 653 
Q 1747 653 1978 738 
L 2053 56 
Q 1747 -75 1359 -75 
Q 1122 -75 931 4 
Q 741 84 652 211 
Q 563 338 528 553 
Q 500 706 500 1172 
L 500 2619 
L 97 2619 
L 97 3319 
L 500 3319 
L 500 3978 
L 1381 4491 
L 1381 3319 
L 1981 3319 
z
" transform="scale(0.015625)"/>
      <path id="Arial-BoldMT-65" d="M 2381 1056 
L 3256 909 
Q 3088 428 2723 176 
Q 2359 -75 1813 -75 
Q 947 -75 531 491 
Q 203 944 203 1634 
Q 203 2459 634 2926 
Q 1066 3394 1725 3394 
Q 2466 3394 2894 2905 
Q 3322 2416 3303 1406 
L 1103 1406 
Q 1113 1016 1316 798 
Q 1519 581 1822 581 
Q 2028 581 2168 693 
Q 2309 806 2381 1056 
z
M 2431 1944 
Q 2422 2325 2234 2523 
Q 2047 2722 1778 2722 
Q 1491 2722 1303 2513 
Q 1116 2303 1119 1944 
L 2431 1944 
z
" transform="scale(0.015625)"/>
      <path id="Arial-BoldMT-72" d="M 1300 0 
L 422 0 
L 422 3319 
L 1238 3319 
L 1238 2847 
Q 1447 3181 1614 3287 
Q 1781 3394 1994 3394 
Q 2294 3394 2572 3228 
L 2300 2463 
Q 2078 2606 1888 2606 
Q 1703 2606 1575 2504 
Q 1447 2403 1373 2137 
Q 1300 1872 1300 1025 
L 1300 0 
z
" transform="scale(0.015625)"/>
      <path id="Arial-BoldMT-20" transform="scale(0.015625)"/>
      <path id="Arial-BoldMT-30" d="M 1756 4600 
Q 2422 4600 2797 4125 
Q 3244 3563 3244 2259 
Q 3244 959 2794 391 
Q 2422 -78 1756 -78 
Q 1088 -78 678 436 
Q 269 950 269 2269 
Q 269 3563 719 4131 
Q 1091 4600 1756 4600 
z
M 1756 3872 
Q 1597 3872 1472 3770 
Q 1347 3669 1278 3406 
Q 1188 3066 1188 2259 
Q 1188 1453 1269 1151 
Q 1350 850 1473 750 
Q 1597 650 1756 650 
Q 1916 650 2041 751 
Q 2166 853 2234 1116 
Q 2325 1453 2325 2259 
Q 2325 3066 2244 3367 
Q 2163 3669 2039 3770 
Q 1916 3872 1756 3872 
z
" transform="scale(0.015625)"/>
      <path id="Arial-BoldMT-3a" d="M 628 2441 
L 628 3319 
L 1506 3319 
L 1506 2441 
L 628 2441 
z
M 628 0 
L 628 878 
L 1506 878 
L 1506 0 
L 628 0 
z
" transform="scale(0.015625)"/>
      <path id="Arial-BoldMT-52" d="M 469 0 
L 469 4581 
L 2416 4581 
Q 3150 4581 3483 4457 
Q 3816 4334 4016 4018 
Q 4216 3703 4216 3297 
Q 4216 2781 3912 2445 
Q 3609 2109 3006 2022 
Q 3306 1847 3501 1637 
Q 3697 1428 4028 894 
L 4588 0 
L 3481 0 
L 2813 997 
Q 2456 1531 2325 1670 
Q 2194 1809 2047 1861 
Q 1900 1913 1581 1913 
L 1394 1913 
L 1394 0 
L 469 0 
z
M 1394 2644 
L 2078 2644 
Q 2744 2644 2909 2700 
Q 3075 2756 3169 2893 
Q 3263 3031 3263 3238 
Q 3263 3469 3139 3611 
Q 3016 3753 2791 3791 
Q 2678 3806 2116 3806 
L 1394 3806 
L 1394 2644 
z
" transform="scale(0.015625)"/>
      <path id="Arial-BoldMT-61" d="M 1116 2306 
L 319 2450 
Q 453 2931 781 3162 
Q 1109 3394 1756 3394 
Q 2344 3394 2631 3255 
Q 2919 3116 3036 2902 
Q 3153 2688 3153 2116 
L 3144 1091 
Q 3144 653 3186 445 
Q 3228 238 3344 0 
L 2475 0 
Q 2441 88 2391 259 
Q 2369 338 2359 363 
Q 2134 144 1878 34 
Q 1622 -75 1331 -75 
Q 819 -75 523 203 
Q 228 481 228 906 
Q 228 1188 362 1408 
Q 497 1628 739 1745 
Q 981 1863 1438 1950 
Q 2053 2066 2291 2166 
L 2291 2253 
Q 2291 2506 2166 2614 
Q 2041 2722 1694 2722 
Q 1459 2722 1328 2630 
Q 1197 2538 1116 2306 
z
M 2291 1594 
Q 2122 1538 1756 1459 
Q 1391 1381 1278 1306 
Q 1106 1184 1106 997 
Q 1106 813 1243 678 
Q 1381 544 1594 544 
Q 1831 544 2047 700 
Q 2206 819 2256 991 
Q 2291 1103 2291 1419 
L 2291 1594 
z
" transform="scale(0.015625)"/>
      <path id="Arial-BoldMT-77" d="M 1078 0 
L 28 3319 
L 881 3319 
L 1503 1144 
L 2075 3319 
L 2922 3319 
L 3475 1144 
L 4109 3319 
L 4975 3319 
L 3909 0 
L 3066 0 
L 2494 2134 
L 1931 0 
L 1078 0 
z
" transform="scale(0.015625)"/>
      <path id="Arial-BoldMT-44" d="M 463 4581 
L 2153 4581 
Q 2725 4581 3025 4494 
Q 3428 4375 3715 4072 
Q 4003 3769 4153 3330 
Q 4303 2891 4303 2247 
Q 4303 1681 4163 1272 
Q 3991 772 3672 463 
Q 3431 228 3022 97 
Q 2716 0 2203 0 
L 463 0 
L 463 4581 
z
M 1388 3806 
L 1388 772 
L 2078 772 
Q 2466 772 2638 816 
Q 2863 872 3011 1006 
Q 3159 1141 3253 1448 
Q 3347 1756 3347 2288 
Q 3347 2819 3253 3103 
Q 3159 3388 2990 3547 
Q 2822 3706 2563 3763 
Q 2369 3806 1803 3806 
L 1388 3806 
z
" transform="scale(0.015625)"/>
      <path id="Arial-BoldMT-69" d="M 459 3769 
L 459 4581 
L 1338 4581 
L 1338 3769 
L 459 3769 
z
M 459 0 
L 459 3319 
L 1338 3319 
L 1338 0 
L 459 0 
z
" transform="scale(0.015625)"/>
      <path id="Arial-BoldMT-79" d="M 44 3319 
L 978 3319 
L 1772 963 
L 2547 3319 
L 3456 3319 
L 2284 125 
L 2075 -453 
Q 1959 -744 1854 -897 
Q 1750 -1050 1614 -1145 
Q 1478 -1241 1279 -1294 
Q 1081 -1347 831 -1347 
Q 578 -1347 334 -1294 
L 256 -606 
Q 463 -647 628 -647 
Q 934 -647 1081 -467 
Q 1228 -288 1306 -9 
L 44 3319 
z
" transform="scale(0.015625)"/>
      <path id="Arial-BoldMT-53" d="M 231 1491 
L 1131 1578 
Q 1213 1125 1461 912 
Q 1709 700 2131 700 
Q 2578 700 2804 889 
Q 3031 1078 3031 1331 
Q 3031 1494 2936 1608 
Q 2841 1722 2603 1806 
Q 2441 1863 1863 2006 
Q 1119 2191 819 2459 
Q 397 2838 397 3381 
Q 397 3731 595 4036 
Q 794 4341 1167 4500 
Q 1541 4659 2069 4659 
Q 2931 4659 3367 4281 
Q 3803 3903 3825 3272 
L 2900 3231 
Q 2841 3584 2645 3739 
Q 2450 3894 2059 3894 
Q 1656 3894 1428 3728 
Q 1281 3622 1281 3444 
Q 1281 3281 1419 3166 
Q 1594 3019 2269 2859 
Q 2944 2700 3267 2529 
Q 3591 2359 3773 2064 
Q 3956 1769 3956 1334 
Q 3956 941 3737 597 
Q 3519 253 3119 86 
Q 2719 -81 2122 -81 
Q 1253 -81 787 320 
Q 322 722 231 1491 
z
" transform="scale(0.015625)"/>
      <path id="Arial-BoldMT-54" d="M 1497 0 
L 1497 3806 
L 138 3806 
L 138 4581 
L 3778 4581 
L 3778 3806 
L 2422 3806 
L 2422 0 
L 1497 0 
z
" transform="scale(0.015625)"/>
      <path id="Arial-BoldMT-6d" d="M 394 3319 
L 1203 3319 
L 1203 2866 
Q 1638 3394 2238 3394 
Q 2556 3394 2790 3262 
Q 3025 3131 3175 2866 
Q 3394 3131 3647 3262 
Q 3900 3394 4188 3394 
Q 4553 3394 4806 3245 
Q 5059 3097 5184 2809 
Q 5275 2597 5275 2122 
L 5275 0 
L 4397 0 
L 4397 1897 
Q 4397 2391 4306 2534 
Q 4184 2722 3931 2722 
Q 3747 2722 3584 2609 
Q 3422 2497 3350 2280 
Q 3278 2063 3278 1594 
L 3278 0 
L 2400 0 
L 2400 1819 
Q 2400 2303 2353 2443 
Q 2306 2584 2207 2653 
Q 2109 2722 1941 2722 
Q 1738 2722 1575 2612 
Q 1413 2503 1342 2297 
Q 1272 2091 1272 1613 
L 1272 0 
L 394 0 
L 394 3319 
z
" transform="scale(0.015625)"/>
     </defs>
     <use xlink:href="#Arial-BoldMT-43"/>
     <use xlink:href="#Arial-BoldMT-6c" transform="translate(72.216797 0)"/>
     <use xlink:href="#Arial-BoldMT-75" transform="translate(100 0)"/>
     <use xlink:href="#Arial-BoldMT-73" transform="translate(161.083984 0)"/>
     <use xlink:href="#Arial-BoldMT-74" transform="translate(216.699219 0)"/>
     <use xlink:href="#Arial-BoldMT-65" transform="translate(250 0)"/>
     <use xlink:href="#Arial-BoldMT-72" transform="translate(305.615234 0)"/>
     <use xlink:href="#Arial-BoldMT-20" transform="translate(344.53125 0)"/>
     <use xlink:href="#Arial-BoldMT-30" transform="translate(372.314453 0)"/>
     <use xlink:href="#Arial-BoldMT-3a" transform="translate(427.929688 0)"/>
     <use xlink:href="#Arial-BoldMT-20" transform="translate(461.230469 0)"/>
     <use xlink:href="#Arial-BoldMT-52" transform="translate(489.013672 0)"/>
     <use xlink:href="#Arial-BoldMT-61" transform="translate(561.230469 0)"/>
     <use xlink:href="#Arial-BoldMT-77" transform="translate(616.845703 0)"/>
     <use xlink:href="#Arial-BoldMT-20" transform="translate(694.628906 0)"/>
     <use xlink:href="#Arial-BoldMT-44" transform="translate(722.412109 0)"/>
     <use xlink:href="#Arial-BoldMT-61" transform="translate(794.628906 0)"/>
     <use xlink:href="#Arial-BoldMT-69" transform="translate(850.244141 0)"/>
     <use xlink:href="#Arial-BoldMT-6c" transform="translate(878.027344 0)"/>
     <use xlink:href="#Arial-BoldMT-79" transform="translate(905.810547 0)"/>
     <use xlink:href="#Arial-BoldMT-20" transform="translate(961.425781 0)"/>
     <use xlink:href="#Arial-BoldMT-53" transform="translate(989.208984 0)"/>
     <use xlink:href="#Arial-BoldMT-61" transform="translate(1055.908203 0)"/>
     <use xlink:href="#Arial-BoldMT-6c" transform="translate(1111.523438 0)"/>
     <use xlink:href="#Arial-BoldMT-65" transform="translate(1139.306641 0)"/>
     <use xlink:href="#Arial-BoldMT-73" transform="translate(1194.921875 0)"/>
     <use xlink:href="#Arial-BoldMT-20" transform="translate(1250.537109 0)"/>
     <use xlink:href="#Arial-BoldMT-54" transform="translate(1278.320312 0)"/>
     <use xlink:href="#Arial-BoldMT-69" transform="translate(1337.654297 0)"/>
     <use xlink:href="#Arial-BoldMT-6d" transform="translate(1365.4375 0)"/>
     <use xlink:href="#Arial-BoldMT-65" transform="translate(1454.353516 0)"/>
     <use xlink:href="#Arial-BoldMT-20" transform="translate(1509.96875 0)"/>
     <use xlink:href="#Arial-BoldMT-53" transform="translate(1537.751953 0)"/>
     <use xlink:href="#Arial-BoldMT-65" transform="translate(1604.451172 0)"/>
     <use xlink:href="#Arial-BoldMT-72" transform="translate(1660.066406 0)"/>
     <use xlink:href="#Arial-BoldMT-69" transform="translate(1698.982422 0)"/>
     <use xlink:href="#Arial-BoldMT-65" transform="translate(1726.765625 0)"/>
     <use xlink:href="#Arial-BoldMT-73" transform="translate(1782.380859 0)"/>
    </g>
   </g>
  </g>
 </g>
 <defs>
  <clipPath id="p9fc35a79ad">
   <rect x="56.400156" y="23.391563" width="926.294803" height="289.62"/>
  </clipPath>
 </defs>
</svg>
