<?xml version="1.0" encoding="utf-8" standalone="no"?>
<!DOCTYPE svg PUBLIC "-//W3C//DTD SVG 1.1//EN"
  "http://www.w3.org/Graphics/SVG/1.1/DTD/svg11.dtd">
<svg xmlns:xlink="http://www.w3.org/1999/xlink" width="994.21695pt" height="348.745781pt" viewBox="0 0 994.21695 348.745781" xmlns="http://www.w3.org/2000/svg" version="1.1">
 <metadata>
  <rdf:RDF xmlns:dc="http://purl.org/dc/elements/1.1/" xmlns:cc="http://creativecommons.org/ns#" xmlns:rdf="http://www.w3.org/1999/02/22-rdf-syntax-ns#">
   <cc:Work>
    <dc:type rdf:resource="http://purl.org/dc/dcmitype/StillImage"/>
    <dc:date>2026-03-20T22:16:28.406542</dc:date>
    <dc:format>image/svg+xml</dc:format>
    <dc:creator>
     <cc:Agent>
      <dc:title>Matplotlib v3.10.8, https://matplotlib.org/</dc:title>
     </cc:Agent>
    </dc:creator>
   </cc:Work>
  </rdf:RDF>
 </metadata>
 <defs>
  <style type="text/css">*{stroke-linejoin: round; stroke-linecap: butt}</style>
 </defs>
 <g id="figure_1">
  <g id="patch_1">
   <path d="M 0 348.745781 
L 994.21695 348.745781 
L 994.21695 0 
L 0 0 
z
" style="fill: #ffffff"/>
  </g>
  <g id="axes_1">
   <g id="patch_2">
    <path d="M 56.400156 313.011562 
L 982.694959 313.011562 
L 982.694959 23.391562 
L 56.400156 23.391562 
z
" style="fill: #ffffff"/>
   </g>
   <g id="matplotlib.axis_1">
    <g id="xtick_1">
     <g id="line2d_1">
      <path d="M 133.876649 313.011562 
L 133.876649 23.391562 
" clip-path="url(#pc97fd6ae9d)" style="fill: none; stroke: #cccccc; stroke-linecap: round"/>
     </g>
     <g id="text_1">
      <!-- 2010-01 -->
      <g style="fill: #262626" transform="translate(113.694228 324.385156) scale(0.11 -0.11)">
       <defs>
        <path id="ArialMT-32" d="M 3222 541 
L 3222 0 
L 194 0 
Q 188 203 259 391 
Q 375 700 629 1000 
Q 884 1300 1366 1694 
Q 2113 2306 2375 2664 
Q 2638 3022 2638 3341 
Q 2638 3675 2398 3904 
Q 2159 4134 1775 4134 
Q 1369 4134 1125 3890 
Q 881 3647 878 3216 
L 300 3275 
Q 359 3922 746 4261 
Q 1134 4600 1788 4600 
Q 2447 4600 2831 4234 
Q 3216 3869 3216 3328 
Q 3216 3053 3103 2787 
Q 2991 2522 2730 2228 
Q 2469 1934 1863 1422 
Q 1356 997 1212 845 
Q 1069 694 975 541 
L 3222 541 
z
" transform="scale(0.015625)"/>
        <path id="ArialMT-30" d="M 266 2259 
Q 266 3072 433 3567 
Q 600 4063 929 4331 
Q 1259 4600 1759 4600 
Q 2128 4600 2406 4451 
Q 2684 4303 2865 4023 
Q 3047 3744 3150 3342 
Q 3253 2941 3253 2259 
Q 3253 1453 3087 958 
Q 2922 463 2592 192 
Q 2263 -78 1759 -78 
Q 1097 -78 719 397 
Q 266 969 266 2259 
z
M 844 2259 
Q 844 1131 1108 757 
Q 1372 384 1759 384 
Q 2147 384 2411 759 
Q 2675 1134 2675 2259 
Q 2675 3391 2411 3762 
Q 2147 4134 1753 4134 
Q 1366 4134 1134 3806 
Q 844 3388 844 2259 
z
" transform="scale(0.015625)"/>
        <path id="ArialMT-31" d="M 2384 0 
L 1822 0 
L 1822 3584 
Q 1619 3391 1289 3197 
Q 959 3003 697 2906 
L 697 3450 
Q 1169 3672 1522 3987 
Q 1875 4303 2022 4600 
L 2384 4600 
L 2384 0 
z
" transform="scale(0.015625)"/>
        <path id="ArialMT-2d" d="M 203 1375 
L 203 1941 
L 1931 1941 
L 1931 1375 
L 203 1375 
z
" transform="scale(0.015625)"/>
       </defs>
       <use xlink:href="#ArialMT-32"/>
       <use xlink:href="#ArialMT-30" transform="translate(55.615234 0)"/>
       <use xlink:href="#ArialMT-31" transform="translate(111.230469 0)"/>
       <use xlink:href="#ArialMT-30" transform="translate(166.845703 0)"/>
       <use xlink:href="#ArialMT-2d" transform="translate(222.460938 0)"/>
       <use xlink:href="#ArialMT-30" transform="translate(255.761719 0)"/>
       <use xlink:href="#ArialMT-31" transform="translate(311.376953 0)"/>
      </g>
     </g>
    </g>
    <g id="xtick_2">
     <g id="line2d_2">
      <path d="M 236.570087 313.011562 
L 236.570087 23.391562 
" clip-path="url(#pc97fd6ae9d)" style="fill: none; stroke: #cccccc; stroke-linecap: round"/>
     </g>
     <g id="text_2">
      <!-- 2010-04 -->
      <g style="fill: #262626" transform="translate(216.387665 324.385156) scale(0.11 -0.11)">
       <defs>
        <path id="ArialMT-34" d="M 2069 0 
L 2069 1097 
L 81 1097 
L 81 1613 
L 2172 4581 
L 2631 4581 
L 2631 1613 
L 3250 1613 
L 3250 1097 
L 2631 1097 
L 2631 0 
L 2069 0 
z
M 2069 1613 
L 2069 3678 
L 634 1613 
L 2069 1613 
z
" transform="scale(0.015625)"/>
       </defs>
       <use xlink:href="#ArialMT-32"/>
       <use xlink:href="#ArialMT-30" transform="translate(55.615234 0)"/>
       <use xlink:href="#ArialMT-31" transform="translate(111.230469 0)"/>
       <use xlink:href="#ArialMT-30" transform="translate(166.845703 0)"/>
       <use xlink:href="#ArialMT-2d" transform="translate(222.460938 0)"/>
       <use xlink:href="#ArialMT-30" transform="translate(255.761719 0)"/>
       <use xlink:href="#ArialMT-34" transform="translate(311.376953 0)"/>
      </g>
     </g>
    </g>
    <g id="xtick_3">
     <g id="line2d_3">
      <path d="M 340.404562 313.011562 
L 340.404562 23.391562 
" clip-path="url(#pc97fd6ae9d)" style="fill: none; stroke: #cccccc; stroke-linecap: round"/>
     </g>
     <g id="text_3">
      <!-- 2010-07 -->
      <g style="fill: #262626" transform="translate(320.22214 324.385156) scale(0.11 -0.11)">
       <defs>
        <path id="ArialMT-37" d="M 303 3981 
L 303 4522 
L 3269 4522 
L 3269 4084 
Q 2831 3619 2401 2847 
Q 1972 2075 1738 1259 
Q 1569 684 1522 0 
L 944 0 
Q 953 541 1156 1306 
Q 1359 2072 1739 2783 
Q 2119 3494 2547 3981 
L 303 3981 
z
" transform="scale(0.015625)"/>
       </defs>
       <use xlink:href="#ArialMT-32"/>
       <use xlink:href="#ArialMT-30" transform="translate(55.615234 0)"/>
       <use xlink:href="#ArialMT-31" transform="translate(111.230469 0)"/>
       <use xlink:href="#ArialMT-30" transform="translate(166.845703 0)"/>
       <use xlink:href="#ArialMT-2d" transform="translate(222.460938 0)"/>
       <use xlink:href="#ArialMT-30" transform="translate(255.761719 0)"/>
       <use xlink:href="#ArialMT-37" transform="translate(311.376953 0)"/>
      </g>
     </g>
    </g>
    <g id="xtick_4">
     <g id="line2d_4">
      <path d="M 445.380075 313.011562 
L 445.380075 23.391562 
" clip-path="url(#pc97fd6ae9d)" style="fill: none; stroke: #cccccc; stroke-linecap: round"/>
     </g>
     <g id="text_4">
      <!-- 2010-10 -->
      <g style="fill: #262626" transform="translate(425.197654 324.385156) scale(0.11 -0.11)">
       <use xlink:href="#ArialMT-32"/>
       <use xlink:href="#ArialMT-30" transform="translate(55.615234 0)"/>
       <use xlink:href="#ArialMT-31" transform="translate(111.230469 0)"/>
       <use xlink:href="#ArialMT-30" transform="translate(166.845703 0)"/>
       <use xlink:href="#ArialMT-2d" transform="translate(222.460938 0)"/>
       <use xlink:href="#ArialMT-31" transform="translate(255.761719 0)"/>
       <use xlink:href="#ArialMT-30" transform="translate(311.376953 0)"/>
      </g>
     </g>
    </g>
    <g id="xtick_5">
     <g id="line2d_5">
      <path d="M 550.355589 313.011562 
L 550.355589 23.391562 
" clip-path="url(#pc97fd6ae9d)" style="fill: none; stroke: #cccccc; stroke-linecap: round"/>
     </g>
     <g id="text_5">
      <!-- 2011-01 -->
      <g style="fill: #262626" transform="translate(530.578792 324.385156) scale(0.11 -0.11)">
       <use xlink:href="#ArialMT-32"/>
       <use xlink:href="#ArialMT-30" transform="translate(55.615234 0)"/>
       <use xlink:href="#ArialMT-31" transform="translate(111.230469 0)"/>
       <use xlink:href="#ArialMT-31" transform="translate(159.470703 0)"/>
       <use xlink:href="#ArialMT-2d" transform="translate(215.085938 0)"/>
       <use xlink:href="#ArialMT-30" transform="translate(248.386719 0)"/>
       <use xlink:href="#ArialMT-31" transform="translate(304.001953 0)"/>
      </g>
     </g>
    </g>
    <g id="xtick_6">
     <g id="line2d_6">
      <path d="M 653.049026 313.011562 
L 653.049026 23.391562 
" clip-path="url(#pc97fd6ae9d)" style="fill: none; stroke: #cccccc; stroke-linecap: round"/>
     </g>
     <g id="text_6">
      <!-- 2011-04 -->
      <g style="fill: #262626" transform="translate(633.272229 324.385156) scale(0.11 -0.11)">
       <use xlink:href="#ArialMT-32"/>
       <use xlink:href="#ArialMT-30" transform="translate(55.615234 0)"/>
       <use xlink:href="#ArialMT-31" transform="translate(111.230469 0)"/>
       <use xlink:href="#ArialMT-31" transform="translate(159.470703 0)"/>
       <use xlink:href="#ArialMT-2d" transform="translate(215.085938 0)"/>
       <use xlink:href="#ArialMT-30" transform="translate(248.386719 0)"/>
       <use xlink:href="#ArialMT-34" transform="translate(304.001953 0)"/>
      </g>
     </g>
    </g>
    <g id="xtick_7">
     <g id="line2d_7">
      <path d="M 756.883502 313.011562 
L 756.883502 23.391562 
" clip-path="url(#pc97fd6ae9d)" style="fill: none; stroke: #cccccc; stroke-linecap: round"/>
     </g>
     <g id="text_7">
      <!-- 2011-07 -->
      <g style="fill: #262626" transform="translate(737.106705 324.385156) scale(0.11 -0.11)">
       <use xlink:href="#ArialMT-32"/>
       <use xlink:href="#ArialMT-30" transform="translate(55.615234 0)"/>
       <use xlink:href="#ArialMT-31" transform="translate(111.230469 0)"/>
       <use xlink:href="#ArialMT-31" transform="translate(159.470703 0)"/>
       <use xlink:href="#ArialMT-2d" transform="translate(215.085938 0)"/>
       <use xlink:href="#ArialMT-30" transform="translate(248.386719 0)"/>
       <use xlink:href="#ArialMT-37" transform="translate(304.001953 0)"/>
      </g>
     </g>
    </g>
    <g id="xtick_8">
     <g id="line2d_8">
      <path d="M 861.859015 313.011562 
L 861.859015 23.391562 
" clip-path="url(#pc97fd6ae9d)" style="fill: none; stroke: #cccccc; stroke-linecap: round"/>
     </g>
     <g id="text_8">
      <!-- 2011-10 -->
      <g style="fill: #262626" transform="translate(842.082218 324.385156) scale(0.11 -0.11)">
       <use xlink:href="#ArialMT-32"/>
       <use xlink:href="#ArialMT-30" transform="translate(55.615234 0)"/>
       <use xlink:href="#ArialMT-31" transform="translate(111.230469 0)"/>
       <use xlink:href="#ArialMT-31" transform="translate(159.470703 0)"/>
       <use xlink:href="#ArialMT-2d" transform="translate(215.085938 0)"/>
       <use xlink:href="#ArialMT-31" transform="translate(248.386719 0)"/>
       <use xlink:href="#ArialMT-30" transform="translate(304.001953 0)"/>
      </g>
     </g>
    </g>
    <g id="xtick_9">
     <g id="line2d_9">
      <path d="M 966.834529 313.011562 
L 966.834529 23.391562 
" clip-path="url(#pc97fd6ae9d)" style="fill: none; stroke: #cccccc; stroke-linecap: round"/>
     </g>
     <g id="text_9">
      <!-- 2012-01 -->
      <g style="fill: #262626" transform="translate(946.652107 324.385156) scale(0.11 -0.11)">
       <use xlink:href="#ArialMT-32"/>
       <use xlink:href="#ArialMT-30" transform="translate(55.615234 0)"/>
       <use xlink:href="#ArialMT-31" transform="translate(111.230469 0)"/>
       <use xlink:href="#ArialMT-32" transform="translate(166.845703 0)"/>
       <use xlink:href="#ArialMT-2d" transform="translate(222.460938 0)"/>
       <use xlink:href="#ArialMT-30" transform="translate(255.761719 0)"/>
       <use xlink:href="#ArialMT-31" transform="translate(311.376953 0)"/>
      </g>
     </g>
    </g>
    <g id="text_10">
     <!-- Date -->
     <g style="fill: #262626" transform="translate(506.874433 339.160781) scale(0.12 -0.12)">
      <defs>
       <path id="ArialMT-44" d="M 494 0 
L 494 4581 
L 2072 4581 
Q 2606 4581 2888 4516 
Q 3281 4425 3559 4188 
Q 3922 3881 4101 3404 
Q 4281 2928 4281 2316 
Q 4281 1794 4159 1391 
Q 4038 988 3847 723 
Q 3656 459 3429 307 
Q 3203 156 2883 78 
Q 2563 0 2147 0 
L 494 0 
z
M 1100 541 
L 2078 541 
Q 2531 541 2789 625 
Q 3047 709 3200 863 
Q 3416 1078 3536 1442 
Q 3656 1806 3656 2325 
Q 3656 3044 3420 3430 
Q 3184 3816 2847 3947 
Q 2603 4041 2063 4041 
L 1100 4041 
L 1100 541 
z
" transform="scale(0.015625)"/>
       <path id="ArialMT-61" d="M 2588 409 
Q 2275 144 1986 34 
Q 1697 -75 1366 -75 
Q 819 -75 525 192 
Q 231 459 231 875 
Q 231 1119 342 1320 
Q 453 1522 633 1644 
Q 813 1766 1038 1828 
Q 1203 1872 1538 1913 
Q 2219 1994 2541 2106 
Q 2544 2222 2544 2253 
Q 2544 2597 2384 2738 
Q 2169 2928 1744 2928 
Q 1347 2928 1158 2789 
Q 969 2650 878 2297 
L 328 2372 
Q 403 2725 575 2942 
Q 747 3159 1072 3276 
Q 1397 3394 1825 3394 
Q 2250 3394 2515 3294 
Q 2781 3194 2906 3042 
Q 3031 2891 3081 2659 
Q 3109 2516 3109 2141 
L 3109 1391 
Q 3109 606 3145 398 
Q 3181 191 3288 0 
L 2700 0 
Q 2613 175 2588 409 
z
M 2541 1666 
Q 2234 1541 1622 1453 
Q 1275 1403 1131 1340 
Q 988 1278 909 1158 
Q 831 1038 831 891 
Q 831 666 1001 516 
Q 1172 366 1500 366 
Q 1825 366 2078 508 
Q 2331 650 2450 897 
Q 2541 1088 2541 1459 
L 2541 1666 
z
" transform="scale(0.015625)"/>
       <path id="ArialMT-74" d="M 1650 503 
L 1731 6 
Q 1494 -44 1306 -44 
Q 1000 -44 831 53 
Q 663 150 594 308 
Q 525 466 525 972 
L 525 2881 
L 113 2881 
L 113 3319 
L 525 3319 
L 525 4141 
L 1084 4478 
L 1084 3319 
L 1650 3319 
L 1650 2881 
L 1084 2881 
L 1084 941 
Q 1084 700 1114 631 
Q 1144 563 1211 522 
Q 1278 481 1403 481 
Q 1497 481 1650 503 
z
" transform="scale(0.015625)"/>
       <path id="ArialMT-65" d="M 2694 1069 
L 3275 997 
Q 3138 488 2766 206 
Q 2394 -75 1816 -75 
Q 1088 -75 661 373 
Q 234 822 234 1631 
Q 234 2469 665 2931 
Q 1097 3394 1784 3394 
Q 2450 3394 2872 2941 
Q 3294 2488 3294 1666 
Q 3294 1616 3291 1516 
L 816 1516 
Q 847 969 1125 678 
Q 1403 388 1819 388 
Q 2128 388 2347 550 
Q 2566 713 2694 1069 
z
M 847 1978 
L 2700 1978 
Q 2663 2397 2488 2606 
Q 2219 2931 1791 2931 
Q 1403 2931 1139 2672 
Q 875 2413 847 1978 
z
" transform="scale(0.015625)"/>
      </defs>
      <use xlink:href="#ArialMT-44"/>
      <use xlink:href="#ArialMT-61" transform="translate(72.216797 0)"/>
      <use xlink:href="#ArialMT-74" transform="translate(127.832031 0)"/>
      <use xlink:href="#ArialMT-65" transform="translate(155.615234 0)"/>
     </g>
    </g>
   </g>
   <g id="matplotlib.axis_2">
    <g id="ytick_1">
     <g id="line2d_10">
      <path d="M 56.400156 292.103805 
L 982.694959 292.103805 
" clip-path="url(#pc97fd6ae9d)" style="fill: none; stroke: #cccccc; stroke-linecap: round"/>
     </g>
     <g id="text_11">
      <!-- 0 -->
      <g style="fill: #262626" transform="translate(46.783125 296.040602) scale(0.11 -0.11)">
       <use xlink:href="#ArialMT-30"/>
      </g>
     </g>
    </g>
    <g id="ytick_2">
     <g id="line2d_11">
      <path d="M 56.400156 252.791775 
L 982.694959 252.791775 
" clip-path="url(#pc97fd6ae9d)" style="fill: none; stroke: #cccccc; stroke-linecap: round"/>
     </g>
     <g id="text_12">
      <!-- 5000 -->
      <g style="fill: #262626" transform="translate(28.432031 256.728571) scale(0.11 -0.11)">
       <defs>
        <path id="ArialMT-35" d="M 266 1200 
L 856 1250 
Q 922 819 1161 601 
Q 1400 384 1738 384 
Q 2144 384 2425 690 
Q 2706 997 2706 1503 
Q 2706 1984 2436 2262 
Q 2166 2541 1728 2541 
Q 1456 2541 1237 2417 
Q 1019 2294 894 2097 
L 366 2166 
L 809 4519 
L 3088 4519 
L 3088 3981 
L 1259 3981 
L 1013 2750 
Q 1425 3038 1878 3038 
Q 2478 3038 2890 2622 
Q 3303 2206 3303 1553 
Q 3303 931 2941 478 
Q 2500 -78 1738 -78 
Q 1113 -78 717 272 
Q 322 622 266 1200 
z
" transform="scale(0.015625)"/>
       </defs>
       <use xlink:href="#ArialMT-35"/>
       <use xlink:href="#ArialMT-30" transform="translate(55.615234 0)"/>
       <use xlink:href="#ArialMT-30" transform="translate(111.230469 0)"/>
       <use xlink:href="#ArialMT-30" transform="translate(166.845703 0)"/>
      </g>
     </g>
    </g>
    <g id="ytick_3">
     <g id="line2d_12">
      <path d="M 56.400156 213.479744 
L 982.694959 213.479744 
" clip-path="url(#pc97fd6ae9d)" style="fill: none; stroke: #cccccc; stroke-linecap: round"/>
     </g>
     <g id="text_13">
      <!-- 10000 -->
      <g style="fill: #262626" transform="translate(22.315 217.416541) scale(0.11 -0.11)">
       <use xlink:href="#ArialMT-31"/>
       <use xlink:href="#ArialMT-30" transform="translate(55.615234 0)"/>
       <use xlink:href="#ArialMT-30" transform="translate(111.230469 0)"/>
       <use xlink:href="#ArialMT-30" transform="translate(166.845703 0)"/>
       <use xlink:href="#ArialMT-30" transform="translate(222.460938 0)"/>
      </g>
     </g>
    </g>
    <g id="ytick_4">
     <g id="line2d_13">
      <path d="M 56.400156 174.167713 
L 982.694959 174.167713 
" clip-path="url(#pc97fd6ae9d)" style="fill: none; stroke: #cccccc; stroke-linecap: round"/>
     </g>
     <g id="text_14">
      <!-- 15000 -->
      <g style="fill: #262626" transform="translate(22.315 178.10451) scale(0.11 -0.11)">
       <use xlink:href="#ArialMT-31"/>
       <use xlink:href="#ArialMT-35" transform="translate(55.615234 0)"/>
       <use xlink:href="#ArialMT-30" transform="translate(111.230469 0)"/>
       <use xlink:href="#ArialMT-30" transform="translate(166.845703 0)"/>
       <use xlink:href="#ArialMT-30" transform="translate(222.460938 0)"/>
      </g>
     </g>
    </g>
    <g id="ytick_5">
     <g id="line2d_14">
      <path d="M 56.400156 134.855683 
L 982.694959 134.855683 
" clip-path="url(#pc97fd6ae9d)" style="fill: none; stroke: #cccccc; stroke-linecap: round"/>
     </g>
     <g id="text_15">
      <!-- 20000 -->
      <g style="fill: #262626" transform="translate(22.315 138.79248) scale(0.11 -0.11)">
       <use xlink:href="#ArialMT-32"/>
       <use xlink:href="#ArialMT-30" transform="translate(55.615234 0)"/>
       <use xlink:href="#ArialMT-30" transform="translate(111.230469 0)"/>
       <use xlink:href="#ArialMT-30" transform="translate(166.845703 0)"/>
       <use xlink:href="#ArialMT-30" transform="translate(222.460938 0)"/>
      </g>
     </g>
    </g>
    <g id="ytick_6">
     <g id="line2d_15">
      <path d="M 56.400156 95.543652 
L 982.694959 95.543652 
" clip-path="url(#pc97fd6ae9d)" style="fill: none; stroke: #cccccc; stroke-linecap: round"/>
     </g>
     <g id="text_16">
      <!-- 25000 -->
      <g style="fill: #262626" transform="translate(22.315 99.480449) scale(0.11 -0.11)">
       <use xlink:href="#ArialMT-32"/>
       <use xlink:href="#ArialMT-35" transform="translate(55.615234 0)"/>
       <use xlink:href="#ArialMT-30" transform="translate(111.230469 0)"/>
       <use xlink:href="#ArialMT-30" transform="translate(166.845703 0)"/>
       <use xlink:href="#ArialMT-30" transform="translate(222.460938 0)"/>
      </g>
     </g>
    </g>
    <g id="ytick_7">
     <g id="line2d_16">
      <path d="M 56.400156 56.231622 
L 982.694959 56.231622 
" clip-path="url(#pc97fd6ae9d)" style="fill: none; stroke: #cccccc; stroke-linecap: round"/>
     </g>
     <g id="text_17">
      <!-- 30000 -->
      <g style="fill: #262626" transform="translate(22.315 60.168419) scale(0.11 -0.11)">
       <defs>
        <path id="ArialMT-33" d="M 269 1209 
L 831 1284 
Q 928 806 1161 595 
Q 1394 384 1728 384 
Q 2125 384 2398 659 
Q 2672 934 2672 1341 
Q 2672 1728 2419 1979 
Q 2166 2231 1775 2231 
Q 1616 2231 1378 2169 
L 1441 2663 
Q 1497 2656 1531 2656 
Q 1891 2656 2178 2843 
Q 2466 3031 2466 3422 
Q 2466 3731 2256 3934 
Q 2047 4138 1716 4138 
Q 1388 4138 1169 3931 
Q 950 3725 888 3313 
L 325 3413 
Q 428 3978 793 4289 
Q 1159 4600 1703 4600 
Q 2078 4600 2393 4439 
Q 2709 4278 2876 4000 
Q 3044 3722 3044 3409 
Q 3044 3113 2884 2869 
Q 2725 2625 2413 2481 
Q 2819 2388 3044 2092 
Q 3269 1797 3269 1353 
Q 3269 753 2831 336 
Q 2394 -81 1725 -81 
Q 1122 -81 723 278 
Q 325 638 269 1209 
z
" transform="scale(0.015625)"/>
       </defs>
       <use xlink:href="#ArialMT-33"/>
       <use xlink:href="#ArialMT-30" transform="translate(55.615234 0)"/>
       <use xlink:href="#ArialMT-30" transform="translate(111.230469 0)"/>
       <use xlink:href="#ArialMT-30" transform="translate(166.845703 0)"/>
       <use xlink:href="#ArialMT-30" transform="translate(222.460938 0)"/>
      </g>
     </g>
    </g>
    <g id="text_18">
     <!-- Daily cluster sales -->
     <g style="fill: #262626" transform="translate(15.789375 216.548437) rotate(-90) scale(0.12 -0.12)">
      <defs>
       <path id="ArialMT-69" d="M 425 3934 
L 425 4581 
L 988 4581 
L 988 3934 
L 425 3934 
z
M 425 0 
L 425 3319 
L 988 3319 
L 988 0 
L 425 0 
z
" transform="scale(0.015625)"/>
       <path id="ArialMT-6c" d="M 409 0 
L 409 4581 
L 972 4581 
L 972 0 
L 409 0 
z
" transform="scale(0.015625)"/>
       <path id="ArialMT-79" d="M 397 -1278 
L 334 -750 
Q 519 -800 656 -800 
Q 844 -800 956 -737 
Q 1069 -675 1141 -563 
Q 1194 -478 1313 -144 
Q 1328 -97 1363 -6 
L 103 3319 
L 709 3319 
L 1400 1397 
Q 1534 1031 1641 628 
Q 1738 1016 1872 1384 
L 2581 3319 
L 3144 3319 
L 1881 -56 
Q 1678 -603 1566 -809 
Q 1416 -1088 1222 -1217 
Q 1028 -1347 759 -1347 
Q 597 -1347 397 -1278 
z
" transform="scale(0.015625)"/>
       <path id="ArialMT-20" transform="scale(0.015625)"/>
       <path id="ArialMT-63" d="M 2588 1216 
L 3141 1144 
Q 3050 572 2676 248 
Q 2303 -75 1759 -75 
Q 1078 -75 664 370 
Q 250 816 250 1647 
Q 250 2184 428 2587 
Q 606 2991 970 3192 
Q 1334 3394 1763 3394 
Q 2303 3394 2647 3120 
Q 2991 2847 3088 2344 
L 2541 2259 
Q 2463 2594 2264 2762 
Q 2066 2931 1784 2931 
Q 1359 2931 1093 2626 
Q 828 2322 828 1663 
Q 828 994 1084 691 
Q 1341 388 1753 388 
Q 2084 388 2306 591 
Q 2528 794 2588 1216 
z
" transform="scale(0.015625)"/>
       <path id="ArialMT-75" d="M 2597 0 
L 2597 488 
Q 2209 -75 1544 -75 
Q 1250 -75 995 37 
Q 741 150 617 320 
Q 494 491 444 738 
Q 409 903 409 1263 
L 409 3319 
L 972 3319 
L 972 1478 
Q 972 1038 1006 884 
Q 1059 663 1231 536 
Q 1403 409 1656 409 
Q 1909 409 2131 539 
Q 2353 669 2445 892 
Q 2538 1116 2538 1541 
L 2538 3319 
L 3100 3319 
L 3100 0 
L 2597 0 
z
" transform="scale(0.015625)"/>
       <path id="ArialMT-73" d="M 197 991 
L 753 1078 
Q 800 744 1014 566 
Q 1228 388 1613 388 
Q 2000 388 2187 545 
Q 2375 703 2375 916 
Q 2375 1106 2209 1216 
Q 2094 1291 1634 1406 
Q 1016 1563 777 1677 
Q 538 1791 414 1992 
Q 291 2194 291 2438 
Q 291 2659 392 2848 
Q 494 3038 669 3163 
Q 800 3259 1026 3326 
Q 1253 3394 1513 3394 
Q 1903 3394 2198 3281 
Q 2494 3169 2634 2976 
Q 2775 2784 2828 2463 
L 2278 2388 
Q 2241 2644 2061 2787 
Q 1881 2931 1553 2931 
Q 1166 2931 1000 2803 
Q 834 2675 834 2503 
Q 834 2394 903 2306 
Q 972 2216 1119 2156 
Q 1203 2125 1616 2013 
Q 2213 1853 2448 1751 
Q 2684 1650 2818 1456 
Q 2953 1263 2953 975 
Q 2953 694 2789 445 
Q 2625 197 2315 61 
Q 2006 -75 1616 -75 
Q 969 -75 630 194 
Q 291 463 197 991 
z
" transform="scale(0.015625)"/>
       <path id="ArialMT-72" d="M 416 0 
L 416 3319 
L 922 3319 
L 922 2816 
Q 1116 3169 1280 3281 
Q 1444 3394 1641 3394 
Q 1925 3394 2219 3213 
L 2025 2691 
Q 1819 2813 1613 2813 
Q 1428 2813 1281 2702 
Q 1134 2591 1072 2394 
Q 978 2094 978 1738 
L 978 0 
L 416 0 
z
" transform="scale(0.015625)"/>
      </defs>
      <use xlink:href="#ArialMT-44"/>
      <use xlink:href="#ArialMT-61" transform="translate(72.216797 0)"/>
      <use xlink:href="#ArialMT-69" transform="translate(127.832031 0)"/>
      <use xlink:href="#ArialMT-6c" transform="translate(150.048828 0)"/>
      <use xlink:href="#ArialMT-79" transform="translate(172.265625 0)"/>
      <use xlink:href="#ArialMT-20" transform="translate(222.265625 0)"/>
      <use xlink:href="#ArialMT-63" transform="translate(250.048828 0)"/>
      <use xlink:href="#ArialMT-6c" transform="translate(300.048828 0)"/>
      <use xlink:href="#ArialMT-75" transform="translate(322.265625 0)"/>
      <use xlink:href="#ArialMT-73" transform="translate(377.880859 0)"/>
      <use xlink:href="#ArialMT-74" transform="translate(427.880859 0)"/>
      <use xlink:href="#ArialMT-65" transform="translate(455.664062 0)"/>
      <use xlink:href="#ArialMT-72" transform="translate(511.279297 0)"/>
      <use xlink:href="#ArialMT-20" transform="translate(544.580078 0)"/>
      <use xlink:href="#ArialMT-73" transform="translate(572.363281 0)"/>
      <use xlink:href="#ArialMT-61" transform="translate(622.363281 0)"/>
      <use xlink:href="#ArialMT-6c" transform="translate(677.978516 0)"/>
      <use xlink:href="#ArialMT-65" transform="translate(700.195312 0)"/>
      <use xlink:href="#ArialMT-73" transform="translate(755.810547 0)"/>
     </g>
    </g>
   </g>
   <g id="line2d_17">
    <path d="M 98.504465 237.462205 
L 99.645504 209.899597 
L 100.786542 238.971001 
L 101.92758 238.330215 
L 103.068618 282.423139 
L 104.209656 264.523585 
L 105.350695 253.67661 
L 106.491733 250.898507 
L 107.632771 238.560269 
L 108.773809 243.400445 
L 109.914847 253.061848 
L 111.055886 292.103805 
L 113.337962 231.029421 
L 114.479 234.424329 
L 115.620038 238.613655 
L 116.761077 264.313895 
L 117.902115 252.719991 
L 119.043153 292.103805 
L 120.184191 278.677174 
L 121.325229 288.5327 
L 122.466267 270.191043 
L 124.748344 292.103805 
L 136.158726 292.103805 
L 137.299764 285.218382 
L 138.440802 275.256005 
L 139.58184 286.239708 
L 140.722879 269.120655 
L 141.863917 276.061981 
L 143.004955 292.103805 
L 144.145993 271.21182 
L 145.287031 266.14041 
L 146.428069 275.3866 
L 147.569108 275.01345 
L 148.710146 259.353346 
L 149.851184 283.913851 
L 150.992222 292.103805 
L 152.13326 278.113204 
L 153.274299 270.150473 
L 154.415337 268.885176 
L 155.556375 281.078117 
L 156.697413 280.23794 
L 157.838451 280.639159 
L 158.97949 292.103805 
L 160.120528 271.829254 
L 161.261566 272.564153 
L 162.402604 276.157902 
L 163.543642 272.635308 
L 164.684681 270.546817 
L 165.825719 276.100585 
L 166.966757 292.103805 
L 168.107795 278.042206 
L 169.248833 277.716545 
L 170.389872 276.374826 
L 171.53091 270.70037 
L 172.671948 271.987446 
L 173.812986 281.333016 
L 174.954024 292.103805 
L 176.095062 286.119728 
L 177.236101 282.086313 
L 178.377139 282.816652 
L 179.518177 285.232219 
L 180.659215 283.057714 
L 181.800253 284.649222 
L 182.941292 292.103805 
L 184.08233 277.204624 
L 185.223368 280.756309 
L 186.364406 262.693925 
L 187.505444 273.852566 
L 188.646483 265.923251 
L 190.928559 292.103805 
L 192.069597 283.346343 
L 193.210635 277.124742 
L 194.351674 275.004959 
L 195.492712 270.210621 
L 196.63375 260.26963 
L 198.915826 292.103805 
L 200.056864 275.897735 
L 201.197903 269.343948 
L 202.338941 265.538622 
L 203.479979 272.207829 
L 204.621017 271.079417 
L 205.762055 277.119789 
L 206.903094 292.103805 
L 208.044132 281.857282 
L 209.18517 256.923548 
L 210.326208 277.713872 
L 211.467246 269.362896 
L 212.608285 274.691956 
L 213.749323 279.114874 
L 214.890361 292.103805 
L 216.031399 287.671059 
L 217.172437 267.555486 
L 218.313476 271.118257 
L 219.454514 271.578444 
L 220.595552 261.020176 
L 221.73659 273.93119 
L 222.877628 292.103805 
L 224.018666 277.661037 
L 225.159705 272.008753 
L 226.300743 272.351161 
L 227.441781 271.407436 
L 228.582819 266.786228 
L 230.864896 292.103805 
L 232.005934 274.102826 
L 233.146972 264.522091 
L 234.28801 272.785323 
L 235.429048 266.186327 
L 236.570087 274.818856 
L 237.711125 292.103805 
L 241.134239 292.103805 
L 242.275278 277.912398 
L 243.416316 275.398629 
L 244.557354 238.894893 
L 245.698392 286.395777 
L 246.83943 292.103805 
L 247.980468 277.920968 
L 249.121507 271.421038 
L 250.262545 284.273478 
L 251.403583 278.686688 
L 252.544621 284.925192 
L 253.685659 282.148426 
L 254.826698 292.103805 
L 255.967736 281.311709 
L 257.108774 260.353601 
L 258.249812 284.381192 
L 259.39085 280.657871 
L 260.531889 274.189863 
L 262.813965 292.103805 
L 263.955003 285.961379 
L 265.096041 272.656222 
L 266.23708 277.576595 
L 267.378118 275.762737 
L 268.519156 272.451249 
L 269.660194 281.133154 
L 270.801232 292.103805 
L 271.94227 283.845999 
L 273.083309 292.103805 
L 274.224347 283.381252 
L 275.365385 276.537499 
L 276.506423 278.125312 
L 277.647461 281.211857 
L 278.7885 292.103805 
L 279.929538 283.256161 
L 281.070576 284.493389 
L 282.211614 279.779483 
L 283.352652 276.596152 
L 284.493691 275.320241 
L 285.634729 299.847017 
L 286.775767 292.103805 
L 287.916805 281.869783 
L 289.057843 286.962342 
L 290.198882 289.258086 
L 291.33992 284.021252 
L 292.480958 277.907602 
L 293.621996 281.996289 
L 294.763034 292.103805 
L 295.904072 283.537556 
L 297.045111 277.964133 
L 298.186149 277.566452 
L 299.327187 271.699131 
L 300.468225 279.043012 
L 301.609263 287.906302 
L 302.750302 292.103805 
L 303.89134 286.374627 
L 305.032378 292.103805 
L 306.173416 278.20944 
L 307.314454 276.48828 
L 308.455493 276.382452 
L 309.596531 275.512634 
L 310.737569 292.103805 
L 311.878607 278.309214 
L 314.160684 262.852824 
L 316.44276 293.387736 
L 317.583798 278.995995 
L 318.724836 292.103805 
L 319.865874 282.52134 
L 321.006913 284.632318 
L 322.147951 280.590569 
L 323.288989 279.455316 
L 324.430027 279.437233 
L 325.571065 286.22414 
L 326.712104 292.103805 
L 328.99418 282.041498 
L 330.135218 283.241851 
L 331.276256 283.549271 
L 332.417295 288.393693 
L 333.558333 282.850539 
L 334.699371 292.103805 
L 335.840409 288.542528 
L 336.981447 281.304476 
L 338.122486 280.207277 
L 339.263524 277.672988 
L 340.404562 276.478924 
L 341.5456 285.663865 
L 342.686638 292.103805 
L 343.827676 286.256769 
L 346.109753 280.062609 
L 347.250791 281.828662 
L 348.391829 281.394658 
L 349.532867 287.084838 
L 350.673906 292.103805 
L 351.814944 283.171483 
L 352.955982 285.622666 
L 354.09702 287.270705 
L 355.238058 284.910961 
L 356.379097 277.807435 
L 357.520135 281.026461 
L 358.661173 292.103805 
L 359.802211 282.838588 
L 360.943249 282.834185 
L 362.084288 284.450618 
L 363.225326 284.244623 
L 364.366364 283.409085 
L 365.507402 283.860465 
L 366.64844 292.103805 
L 367.789478 271.201363 
L 368.930517 281.661665 
L 370.071555 273.250306 
L 371.212593 280.108682 
L 372.353631 269.302827 
L 373.494669 286.548622 
L 374.635708 292.103805 
L 375.776746 288.2973 
L 376.917784 275.795602 
L 378.058822 281.095886 
L 379.19986 283.039945 
L 380.340899 281.947149 
L 381.481937 284.637192 
L 382.622975 292.103805 
L 383.764013 281.341901 
L 384.905051 285.663394 
L 386.04609 284.904907 
L 387.187128 285.47619 
L 388.328166 275.125254 
L 389.469204 273.957136 
L 390.610242 292.103805 
L 391.75128 278.341135 
L 392.892319 281.604348 
L 394.033357 281.485704 
L 395.174395 279.657616 
L 396.315433 278.20999 
L 397.456471 282.716957 
L 398.59751 292.103805 
L 399.738548 280.889026 
L 400.879586 281.756643 
L 402.020624 279.53457 
L 403.161662 279.49911 
L 404.302701 280.174727 
L 405.443739 286.79959 
L 406.584777 292.103805 
L 407.725815 278.742589 
L 408.866853 292.103805 
L 410.007892 274.908644 
L 411.14893 285.968376 
L 412.289968 279.268348 
L 413.431006 286.031747 
L 414.572044 292.103805 
L 415.713083 283.253173 
L 416.854121 281.573999 
L 417.995159 281.941802 
L 419.136197 280.76826 
L 420.277235 281.121989 
L 421.418273 280.026835 
L 422.559312 292.103805 
L 423.70035 278.748172 
L 424.841388 269.938581 
L 425.982426 273.533274 
L 427.123464 279.430078 
L 428.264503 268.723054 
L 429.405541 266.717511 
L 430.546579 292.103805 
L 431.687617 260.377109 
L 432.828655 212.824963 
L 433.969694 238.847797 
L 435.110732 267.931388 
L 436.25177 233.268713 
L 437.392808 251.239814 
L 438.533846 292.103805 
L 439.674885 253.447027 
L 440.815923 221.890003 
L 441.956961 229.063662 
L 443.097999 242.500514 
L 444.239037 238.248761 
L 445.380075 252.456757 
L 446.521114 292.103805 
L 447.662152 248.07268 
L 448.80319 226.200016 
L 449.944228 225.432803 
L 451.085266 245.306685 
L 452.226305 208.8149 
L 453.367343 235.657783 
L 454.508381 292.103805 
L 455.649419 262.173984 
L 456.790457 244.166872 
L 457.931496 237.000604 
L 459.072534 218.236893 
L 460.213572 250.126497 
L 461.35461 232.23685 
L 462.495648 292.103805 
L 463.636687 241.145664 
L 464.777725 223.740813 
L 465.918763 232.898865 
L 467.059801 219.295566 
L 468.200839 217.94221 
L 469.341877 235.302481 
L 470.482916 292.103805 
L 471.623954 239.14594 
L 472.764992 250.331785 
L 473.90603 222.600135 
L 475.047068 244.903973 
L 476.188107 256.212314 
L 477.329145 236.442845 
L 478.470183 292.103805 
L 479.611221 235.005675 
L 480.752259 244.092101 
L 481.893298 221.522828 
L 483.034336 233.874983 
L 484.175374 200.177418 
L 485.316412 227.056075 
L 486.45745 292.103805 
L 487.598489 240.970097 
L 488.739527 113.178322 
L 489.880565 198.225261 
L 491.021603 220.610003 
L 492.162641 209.134114 
L 493.303679 229.588163 
L 494.444718 292.103805 
L 495.585756 232.922609 
L 496.726794 84.903144 
L 497.867832 212.080236 
L 499.00887 216.924264 
L 500.149909 220.745944 
L 501.290947 229.362433 
L 502.431985 292.103805 
L 503.573023 234.69739 
L 504.714061 214.861483 
L 505.8551 205.154478 
L 506.996138 198.410499 
L 508.137176 168.819626 
L 509.278214 234.962039 
L 510.419252 292.103805 
L 511.560291 251.100885 
L 512.701329 195.249655 
L 513.842367 202.659894 
L 514.983405 118.947677 
L 516.124443 178.91016 
L 517.265481 165.592187 
L 518.40652 292.103805 
L 519.547558 193.693999 
L 520.688596 109.661074 
L 521.829634 133.257728 
L 522.970672 176.993148 
L 524.111711 185.869804 
L 525.252749 212.230801 
L 526.393787 292.103805 
L 527.534825 272.435839 
L 528.675863 239.474667 
L 529.816902 213.327135 
L 530.95794 248.29495 
L 532.098978 251.962369 
L 533.240016 232.154845 
L 534.381054 292.103805 
L 535.522093 283.559335 
L 536.663131 254.051568 
L 537.804169 248.552837 
L 538.945207 284.13675 
L 540.086245 280.601734 
L 541.227283 292.103805 
L 552.637665 292.103805 
L 553.778704 272.891072 
L 554.919742 264.829904 
L 556.06078 259.29422 
L 557.201818 271.982571 
L 558.342856 292.103805 
L 559.483895 273.979386 
L 560.624933 272.517058 
L 561.765971 264.488283 
L 562.907009 265.981511 
L 564.048047 273.79289 
L 565.189085 276.257283 
L 566.330124 292.103805 
L 567.471162 282.664672 
L 568.6122 264.503615 
L 569.753238 280.17795 
L 570.894276 278.5134 
L 572.035315 275.704163 
L 573.176353 259.148373 
L 574.317391 292.103805 
L 575.458429 281.18253 
L 576.599467 271.603682 
L 577.740506 268.797275 
L 578.881544 273.206512 
L 580.022582 259.668707 
L 581.16362 271.534414 
L 582.304658 292.103805 
L 583.445697 284.706303 
L 584.586735 270.030414 
L 585.727773 261.682662 
L 586.868811 269.931427 
L 588.009849 263.914406 
L 589.150887 264.013394 
L 590.291926 292.103805 
L 591.432964 285.980013 
L 592.574002 276.218128 
L 593.71504 264.102317 
L 594.856078 279.350432 
L 595.997117 277.406531 
L 597.138155 275.829253 
L 598.279193 292.103805 
L 599.420231 285.158942 
L 600.561269 270.150395 
L 601.702308 266.418189 
L 602.843346 269.359122 
L 603.984384 256.963017 
L 605.125422 272.714954 
L 606.26646 292.103805 
L 607.407499 278.294275 
L 608.548537 269.749884 
L 609.689575 249.747608 
L 610.830613 256.947135 
L 611.971651 263.150416 
L 613.112689 267.299801 
L 614.253728 292.103805 
L 616.535804 267.086494 
L 617.676842 272.029746 
L 618.81788 261.258878 
L 619.958919 273.099426 
L 621.099957 268.810326 
L 622.240995 292.103805 
L 623.382033 277.064516 
L 624.523071 248.264051 
L 625.66411 251.059765 
L 626.805148 260.82566 
L 627.946186 257.070024 
L 629.087224 265.153757 
L 630.228262 292.103805 
L 631.369301 286.727177 
L 632.510339 261.245355 
L 633.651377 265.179782 
L 634.792415 261.69477 
L 635.933453 262.580391 
L 637.074492 265.712774 
L 638.21553 292.103805 
L 639.356568 265.282386 
L 640.497606 267.058897 
L 641.638644 260.675802 
L 642.779682 268.07527 
L 643.920721 256.298644 
L 646.202797 292.103805 
L 647.343835 283.205291 
L 648.484873 267.558946 
L 649.625912 192.589252 
L 650.76695 256.955233 
L 651.907988 259.584736 
L 653.049026 262.762485 
L 654.190064 292.103805 
L 655.331103 282.216358 
L 656.472141 263.167006 
L 657.613179 221.64674 
L 658.754217 264.115998 
L 659.895255 267.489599 
L 661.036294 264.217266 
L 662.177332 292.103805 
L 663.31837 278.172172 
L 664.459408 261.838338 
L 665.600446 252.980787 
L 666.741484 266.122248 
L 667.882523 247.265682 
L 669.023561 256.083214 
L 670.164599 292.103805 
L 671.305637 272.441421 
L 672.446675 249.140473 
L 673.587714 267.959299 
L 674.728752 264.439222 
L 675.86979 252.140767 
L 677.010828 292.103805 
L 680.433943 292.103805 
L 681.574981 260.088087 
L 682.716019 267.457914 
L 683.857057 263.294141 
L 684.998096 292.103805 
L 686.139134 292.103805 
L 687.280172 282.120436 
L 688.42121 292.103805 
L 689.562248 261.551832 
L 690.703286 253.328777 
L 691.844325 258.727419 
L 692.985363 251.134065 
L 694.126401 292.103805 
L 695.267439 266.800223 
L 696.408477 255.647636 
L 697.549516 236.679975 
L 698.690554 244.583501 
L 699.831592 248.179608 
L 700.97263 243.989182 
L 702.113668 292.103805 
L 703.254707 272.180311 
L 704.395745 238.733163 
L 705.536783 232.523199 
L 706.677821 223.108282 
L 707.818859 236.500004 
L 708.959898 247.031068 
L 710.100936 292.103805 
L 711.241974 258.792441 
L 712.383012 259.620431 
L 713.52405 254.779312 
L 714.665088 257.695321 
L 715.806127 263.727202 
L 716.947165 254.612236 
L 718.088203 292.103805 
L 719.229241 279.145223 
L 720.370279 292.103805 
L 721.511318 261.736834 
L 722.652356 268.196823 
L 723.793394 241.379178 
L 724.934432 272.427033 
L 726.07547 292.103805 
L 727.216509 264.777934 
L 728.357547 266.2096 
L 729.498585 245.931825 
L 730.639623 239.361055 
L 731.780661 255.354054 
L 732.9217 267.385344 
L 734.062738 292.103805 
L 735.203776 265.228922 
L 736.344814 274.209205 
L 737.485852 242.879561 
L 738.62689 264.219467 
L 739.767929 222.907477 
L 742.050005 292.103805 
L 743.191043 262.890721 
L 744.332081 254.538644 
L 745.47312 266.689206 
L 746.614158 272.076527 
L 747.755196 249.055716 
L 748.896234 263.648185 
L 750.037272 292.103805 
L 751.178311 283.319217 
L 752.319349 272.403839 
L 753.460387 257.647282 
L 754.601425 267.658326 
L 755.742463 186.652743 
L 756.883502 278.780172 
L 758.02454 292.103805 
L 759.165578 283.272515 
L 761.447654 236.127798 
L 762.588692 259.614613 
L 763.729731 247.448955 
L 764.870769 261.59248 
L 766.011807 292.103805 
L 767.152845 282.001478 
L 768.293883 264.046966 
L 769.434922 255.4234 
L 770.57596 266.428096 
L 771.716998 256.637513 
L 773.999074 292.103805 
L 775.140113 268.132194 
L 776.281151 262.126652 
L 777.422189 242.289172 
L 778.563227 249.699176 
L 779.704265 238.086638 
L 781.986342 292.103805 
L 783.12738 248.762763 
L 784.268418 258.396176 
L 785.409456 259.657228 
L 786.550494 267.230376 
L 787.691533 209.016964 
L 788.832571 268.076449 
L 789.973609 292.103805 
L 791.114647 262.938131 
L 792.255685 266.652017 
L 793.396724 262.726554 
L 794.537762 245.97381 
L 795.6788 226.170925 
L 796.819838 255.379843 
L 797.960876 292.103805 
L 799.101915 280.919847 
L 800.242953 258.64109 
L 801.383991 271.08036 
L 802.525029 248.995726 
L 803.666067 234.964712 
L 805.948144 292.103805 
L 808.23022 276.820231 
L 809.371258 268.334415 
L 810.512296 182.370876 
L 811.653335 249.302439 
L 812.794373 273.305421 
L 813.935411 292.103805 
L 815.076449 270.111319 
L 816.217487 225.610965 
L 817.358526 260.38906 
L 818.499564 234.060064 
L 819.640602 257.791085 
L 820.78164 260.559046 
L 821.922678 292.103805 
L 823.063717 270.725687 
L 824.204755 292.103805 
L 825.345793 242.55162 
L 826.486831 277.177813 
L 827.627869 243.282194 
L 828.768908 233.212654 
L 829.909946 292.103805 
L 831.050984 266.091034 
L 832.192022 245.417938 
L 833.33306 257.807675 
L 834.474098 255.50116 
L 835.615137 263.607064 
L 836.756175 256.211135 
L 837.897213 292.103805 
L 839.038251 224.523358 
L 840.179289 244.537978 
L 841.320328 215.872431 
L 842.461366 260.8965 
L 843.602404 226.359623 
L 844.743442 245.423206 
L 845.88448 292.103805 
L 847.025519 260.923625 
L 848.166557 259.701729 
L 849.307595 36.556108 
L 850.448633 223.279368 
L 851.589671 202.805663 
L 852.73071 226.511603 
L 853.871748 292.103805 
L 855.012786 235.43968 
L 856.153824 246.707058 
L 857.294862 241.097153 
L 858.4359 224.728567 
L 859.576939 220.542543 
L 860.717977 207.665495 
L 861.859015 292.103805 
L 863.000053 274.066502 
L 864.141091 198.155757 
L 865.28213 213.121218 
L 866.423168 224.698847 
L 867.564206 207.406035 
L 868.705244 224.850356 
L 869.846282 292.103805 
L 870.987321 264.265698 
L 872.128359 227.12668 
L 873.269397 223.84271 
L 874.410435 246.97839 
L 875.551473 240.421143 
L 876.692512 239.632937 
L 877.83355 292.103805 
L 878.974588 252.830458 
L 880.115626 242.496504 
L 881.256664 222.764302 
L 882.397703 246.59439 
L 883.538741 235.152309 
L 884.679779 229.063662 
L 885.820817 292.103805 
L 886.961855 271.657932 
L 889.243932 206.486291 
L 890.38497 242.36072 
L 891.526008 232.88432 
L 892.667046 242.64817 
L 893.808084 292.103805 
L 896.090161 181.51238 
L 897.231199 244.986921 
L 898.372237 215.666279 
L 899.513275 196.836996 
L 900.654314 204.977417 
L 901.795352 292.103805 
L 902.93639 230.630246 
L 904.077428 143.86317 
L 905.218466 187.067327 
L 906.359505 183.308783 
L 907.500543 181.862808 
L 908.641581 199.503138 
L 909.782619 292.103805 
L 910.923657 239.988082 
L 912.064695 84.89937 
L 913.205734 209.045268 
L 914.346772 196.177969 
L 915.48781 220.246917 
L 916.628848 212.766152 
L 917.769886 292.103805 
L 918.910925 237.606559 
L 920.051963 219.262229 
L 921.193001 204.173328 
L 922.334039 175.658347 
L 923.475077 224.498906 
L 924.616116 207.48521 
L 925.757154 292.103805 
L 926.898192 253.957848 
L 928.03923 200.256199 
L 929.180268 168.688245 
L 930.321307 213.100147 
L 931.462345 210.2869 
L 932.603383 214.133503 
L 933.744421 292.103805 
L 934.885459 247.018174 
L 936.026497 132.409453 
L 937.167536 205.641004 
L 938.308574 204.016709 
L 939.449612 177.744165 
L 940.59065 246.165889 
L 940.59065 246.165889 
" clip-path="url(#pc97fd6ae9d)" style="fill: none; stroke: #000000; stroke-width: 1.4; stroke-linecap: round"/>
   </g>
   <g id="patch_3">
    <path d="M 56.400156 313.011562 
L 56.400156 23.391562 
" style="fill: none; stroke: #cccccc; stroke-linejoin: miter; stroke-linecap: square"/>
   </g>
   <g id="patch_4">
    <path d="M 982.694959 313.011562 
L 982.694959 23.391562 
" style="fill: none; stroke: #cccccc; stroke-linejoin: miter; stroke-linecap: square"/>
   </g>
   <g id="patch_5">
    <path d="M 56.400156 313.011562 
L 982.694959 313.011562 
" style="fill: none; stroke: #cccccc; stroke-linejoin: miter; stroke-linecap: square"/>
   </g>
   <g id="patch_6">
    <path d="M 56.400156 23.391562 
L 982.694959 23.391562 
" style="fill: none; stroke: #cccccc; stroke-linejoin: miter; stroke-linecap: square"/>
   </g>
   <g id="text_19">
    <!-- Cluster 1: Raw Daily Sales Time Series -->
    <g style="fill: #262626" transform="translate(390.89412 17.391563) scale(0.14 -0.14)">
     <defs>
      <path id="Arial-BoldMT-43" d="M 3397 1684 
L 4294 1400 
Q 4088 650 3608 286 
Q 3128 -78 2391 -78 
Q 1478 -78 890 545 
Q 303 1169 303 2250 
Q 303 3394 893 4026 
Q 1484 4659 2447 4659 
Q 3288 4659 3813 4163 
Q 4125 3869 4281 3319 
L 3366 3100 
Q 3284 3456 3026 3662 
Q 2769 3869 2400 3869 
Q 1891 3869 1573 3503 
Q 1256 3138 1256 2319 
Q 1256 1450 1568 1081 
Q 1881 713 2381 713 
Q 2750 713 3015 947 
Q 3281 1181 3397 1684 
z
" transform="scale(0.015625)"/>
      <path id="Arial-BoldMT-6c" d="M 459 0 
L 459 4581 
L 1338 4581 
L 1338 0 
L 459 0 
z
" transform="scale(0.015625)"/>
      <path id="Arial-BoldMT-75" d="M 2644 0 
L 2644 497 
Q 2463 231 2167 78 
Q 1872 -75 1544 -75 
Q 1209 -75 943 72 
Q 678 219 559 484 
Q 441 750 441 1219 
L 441 3319 
L 1319 3319 
L 1319 1794 
Q 1319 1094 1367 936 
Q 1416 778 1544 686 
Q 1672 594 1869 594 
Q 2094 594 2272 717 
Q 2450 841 2515 1023 
Q 2581 1206 2581 1919 
L 2581 3319 
L 3459 3319 
L 3459 0 
L 2644 0 
z
" transform="scale(0.015625)"/>
      <path id="Arial-BoldMT-73" d="M 150 947 
L 1031 1081 
Q 1088 825 1259 692 
Q 1431 559 1741 559 
Q 2081 559 2253 684 
Q 2369 772 2369 919 
Q 2369 1019 2306 1084 
Q 2241 1147 2013 1200 
Q 950 1434 666 1628 
Q 272 1897 272 2375 
Q 272 2806 612 3100 
Q 953 3394 1669 3394 
Q 2350 3394 2681 3172 
Q 3013 2950 3138 2516 
L 2309 2363 
Q 2256 2556 2107 2659 
Q 1959 2763 1684 2763 
Q 1338 2763 1188 2666 
Q 1088 2597 1088 2488 
Q 1088 2394 1175 2328 
Q 1294 2241 1995 2081 
Q 2697 1922 2975 1691 
Q 3250 1456 3250 1038 
Q 3250 581 2869 253 
Q 2488 -75 1741 -75 
Q 1063 -75 667 200 
Q 272 475 150 947 
z
" transform="scale(0.015625)"/>
      <path id="Arial-BoldMT-74" d="M 1981 3319 
L 1981 2619 
L 1381 2619 
L 1381 1281 
Q 1381 875 1398 808 
Q 1416 741 1477 697 
Q 1538 653 1625 653 
Q 1747 653 1978 738 
L 2053 56 
Q 1747 -75 1359 -75 
Q 1122 -75 931 4 
Q 741 84 652 211 
Q 563 338 528 553 
Q 500 706 500 1172 
L 500 2619 
L 97 2619 
L 97 3319 
L 500 3319 
L 500 3978 
L 1381 4491 
L 1381 3319 
L 1981 3319 
z
" transform="scale(0.015625)"/>
      <path id="Arial-BoldMT-65" d="M 2381 1056 
L 3256 909 
Q 3088 428 2723 176 
Q 2359 -75 1813 -75 
Q 947 -75 531 491 
Q 203 944 203 1634 
Q 203 2459 634 2926 
Q 1066 3394 1725 3394 
Q 2466 3394 2894 2905 
Q 3322 2416 3303 1406 
L 1103 1406 
Q 1113 1016 1316 798 
Q 1519 581 1822 581 
Q 2028 581 2168 693 
Q 2309 806 2381 1056 
z
M 2431 1944 
Q 2422 2325 2234 2523 
Q 2047 2722 1778 2722 
Q 1491 2722 1303 2513 
Q 1116 2303 1119 1944 
L 2431 1944 
z
" transform="scale(0.015625)"/>
      <path id="Arial-BoldMT-72" d="M 1300 0 
L 422 0 
L 422 3319 
L 1238 3319 
L 1238 2847 
Q 1447 3181 1614 3287 
Q 1781 3394 1994 3394 
Q 2294 3394 2572 3228 
L 2300 2463 
Q 2078 2606 1888 2606 
Q 1703 2606 1575 2504 
Q 1447 2403 1373 2137 
Q 1300 1872 1300 1025 
L 1300 0 
z
" transform="scale(0.015625)"/>
      <path id="Arial-BoldMT-20" transform="scale(0.015625)"/>
      <path id="Arial-BoldMT-31" d="M 2519 0 
L 1641 0 
L 1641 3309 
Q 1159 2859 506 2644 
L 506 3441 
Q 850 3553 1253 3867 
Q 1656 4181 1806 4600 
L 2519 4600 
L 2519 0 
z
" transform="scale(0.015625)"/>
      <path id="Arial-BoldMT-3a" d="M 628 2441 
L 628 3319 
L 1506 3319 
L 1506 2441 
L 628 2441 
z
M 628 0 
L 628 878 
L 1506 878 
L 1506 0 
L 628 0 
z
" transform="scale(0.015625)"/>
      <path id="Arial-BoldMT-52" d="M 469 0 
L 469 4581 
L 2416 4581 
Q 3150 4581 3483 4457 
Q 3816 4334 4016 4018 
Q 4216 3703 4216 3297 
Q 4216 2781 3912 2445 
Q 3609 2109 3006 2022 
Q 3306 1847 3501 1637 
Q 3697 1428 4028 894 
L 4588 0 
L 3481 0 
L 2813 997 
Q 2456 1531 2325 1670 
Q 2194 1809 2047 1861 
Q 1900 1913 1581 1913 
L 1394 1913 
L 1394 0 
L 469 0 
z
M 1394 2644 
L 2078 2644 
Q 2744 2644 2909 2700 
Q 3075 2756 3169 2893 
Q 3263 3031 3263 3238 
Q 3263 3469 3139 3611 
Q 3016 3753 2791 3791 
Q 2678 3806 2116 3806 
L 1394 3806 
L 1394 2644 
z
" transform="scale(0.015625)"/>
      <path id="Arial-BoldMT-61" d="M 1116 2306 
L 319 2450 
Q 453 2931 781 3162 
Q 1109 3394 1756 3394 
Q 2344 3394 2631 3255 
Q 2919 3116 3036 2902 
Q 3153 2688 3153 2116 
L 3144 1091 
Q 3144 653 3186 445 
Q 3228 238 3344 0 
L 2475 0 
Q 2441 88 2391 259 
Q 2369 338 2359 363 
Q 2134 144 1878 34 
Q 1622 -75 1331 -75 
Q 819 -75 523 203 
Q 228 481 228 906 
Q 228 1188 362 1408 
Q 497 1628 739 1745 
Q 981 1863 1438 1950 
Q 2053 2066 2291 2166 
L 2291 2253 
Q 2291 2506 2166 2614 
Q 2041 2722 1694 2722 
Q 1459 2722 1328 2630 
Q 1197 2538 1116 2306 
z
M 2291 1594 
Q 2122 1538 1756 1459 
Q 1391 1381 1278 1306 
Q 1106 1184 1106 997 
Q 1106 813 1243 678 
Q 1381 544 1594 544 
Q 1831 544 2047 700 
Q 2206 819 2256 991 
Q 2291 1103 2291 1419 
L 2291 1594 
z
" transform="scale(0.015625)"/>
      <path id="Arial-BoldMT-77" d="M 1078 0 
L 28 3319 
L 881 3319 
L 1503 1144 
L 2075 3319 
L 2922 3319 
L 3475 1144 
L 4109 3319 
L 4975 3319 
L 3909 0 
L 3066 0 
L 2494 2134 
L 1931 0 
L 1078 0 
z
" transform="scale(0.015625)"/>
      <path id="Arial-BoldMT-44" d="M 463 4581 
L 2153 4581 
Q 2725 4581 3025 4494 
Q 3428 4375 3715 4072 
Q 4003 3769 4153 3330 
Q 4303 2891 4303 2247 
Q 4303 1681 4163 1272 
Q 3991 772 3672 463 
Q 3431 228 3022 97 
Q 2716 0 2203 0 
L 463 0 
L 463 4581 
z
M 1388 3806 
L 1388 772 
L 2078 772 
Q 2466 772 2638 816 
Q 2863 872 3011 1006 
Q 3159 1141 3253 1448 
Q 3347 1756 3347 2288 
Q 3347 2819 3253 3103 
Q 3159 3388 2990 3547 
Q 2822 3706 2563 3763 
Q 2369 3806 1803 3806 
L 1388 3806 
z
" transform="scale(0.015625)"/>
      <path id="Arial-BoldMT-69" d="M 459 3769 
L 459 4581 
L 1338 4581 
L 1338 3769 
L 459 3769 
z
M 459 0 
L 459 3319 
L 1338 3319 
L 1338 0 
L 459 0 
z
" transform="scale(0.015625)"/>
      <path id="Arial-BoldMT-79" d="M 44 3319 
L 978 3319 
L 1772 963 
L 2547 3319 
L 3456 3319 
L 2284 125 
L 2075 -453 
Q 1959 -744 1854 -897 
Q 1750 -1050 1614 -1145 
Q 1478 -1241 1279 -1294 
Q 1081 -1347 831 -1347 
Q 578 -1347 334 -1294 
L 256 -606 
Q 463 -647 628 -647 
Q 934 -647 1081 -467 
Q 1228 -288 1306 -9 
L 44 3319 
z
" transform="scale(0.015625)"/>
      <path id="Arial-BoldMT-53" d="M 231 1491 
L 1131 1578 
Q 1213 1125 1461 912 
Q 1709 700 2131 700 
Q 2578 700 2804 889 
Q 3031 1078 3031 1331 
Q 3031 1494 2936 1608 
Q 2841 1722 2603 1806 
Q 2441 1863 1863 2006 
Q 1119 2191 819 2459 
Q 397 2838 397 3381 
Q 397 3731 595 4036 
Q 794 4341 1167 4500 
Q 1541 4659 2069 4659 
Q 2931 4659 3367 4281 
Q 3803 3903 3825 3272 
L 2900 3231 
Q 2841 3584 2645 3739 
Q 2450 3894 2059 3894 
Q 1656 3894 1428 3728 
Q 1281 3622 1281 3444 
Q 1281 3281 1419 3166 
Q 1594 3019 2269 2859 
Q 2944 2700 3267 2529 
Q 3591 2359 3773 2064 
Q 3956 1769 3956 1334 
Q 3956 941 3737 597 
Q 3519 253 3119 86 
Q 2719 -81 2122 -81 
Q 1253 -81 787 320 
Q 322 722 231 1491 
z
" transform="scale(0.015625)"/>
      <path id="Arial-BoldMT-54" d="M 1497 0 
L 1497 3806 
L 138 3806 
L 138 4581 
L 3778 4581 
L 3778 3806 
L 2422 3806 
L 2422 0 
L 1497 0 
z
" transform="scale(0.015625)"/>
      <path id="Arial-BoldMT-6d" d="M 394 3319 
L 1203 3319 
L 1203 2866 
Q 1638 3394 2238 3394 
Q 2556 3394 2790 3262 
Q 3025 3131 3175 2866 
Q 3394 3131 3647 3262 
Q 3900 3394 4188 3394 
Q 4553 3394 4806 3245 
Q 5059 3097 5184 2809 
Q 5275 2597 5275 2122 
L 5275 0 
L 4397 0 
L 4397 1897 
Q 4397 2391 4306 2534 
Q 4184 2722 3931 2722 
Q 3747 2722 3584 2609 
Q 3422 2497 3350 2280 
Q 3278 2063 3278 1594 
L 3278 0 
L 2400 0 
L 2400 1819 
Q 2400 2303 2353 2443 
Q 2306 2584 2207 2653 
Q 2109 2722 1941 2722 
Q 1738 2722 1575 2612 
Q 1413 2503 1342 2297 
Q 1272 2091 1272 1613 
L 1272 0 
L 394 0 
L 394 3319 
z
" transform="scale(0.015625)"/>
     </defs>
     <use xlink:href="#Arial-BoldMT-43"/>
     <use xlink:href="#Arial-BoldMT-6c" transform="translate(72.216797 0)"/>
     <use xlink:href="#Arial-BoldMT-75" transform="translate(100 0)"/>
     <use xlink:href="#Arial-BoldMT-73" transform="translate(161.083984 0)"/>
     <use xlink:href="#Arial-BoldMT-74" transform="translate(216.699219 0)"/>
     <use xlink:href="#Arial-BoldMT-65" transform="translate(250 0)"/>
     <use xlink:href="#Arial-BoldMT-72" transform="translate(305.615234 0)"/>
     <use xlink:href="#Arial-BoldMT-20" transform="translate(344.53125 0)"/>
     <use xlink:href="#Arial-BoldMT-31" transform="translate(372.314453 0)"/>
     <use xlink:href="#Arial-BoldMT-3a" transform="translate(427.929688 0)"/>
     <use xlink:href="#Arial-BoldMT-20" transform="translate(461.230469 0)"/>
     <use xlink:href="#Arial-BoldMT-52" transform="translate(489.013672 0)"/>
     <use xlink:href="#Arial-BoldMT-61" transform="translate(561.230469 0)"/>
     <use xlink:href="#Arial-BoldMT-77" transform="translate(616.845703 0)"/>
     <use xlink:href="#Arial-BoldMT-20" transform="translate(694.628906 0)"/>
     <use xlink:href="#Arial-BoldMT-44" transform="translate(722.412109 0)"/>
     <use xlink:href="#Arial-BoldMT-61" transform="translate(794.628906 0)"/>
     <use xlink:href="#Arial-BoldMT-69" transform="translate(850.244141 0)"/>
     <use xlink:href="#Arial-BoldMT-6c" transform="translate(878.027344 0)"/>
     <use xlink:href="#Arial-BoldMT-79" transform="translate(905.810547 0)"/>
     <use xlink:href="#Arial-BoldMT-20" transform="translate(961.425781 0)"/>
     <use xlink:href="#Arial-BoldMT-53" transform="translate(989.208984 0)"/>
     <use xlink:href="#Arial-BoldMT-61" transform="translate(1055.908203 0)"/>
     <use xlink:href="#Arial-BoldMT-6c" transform="translate(1111.523438 0)"/>
     <use xlink:href="#Arial-BoldMT-65" transform="translate(1139.306641 0)"/>
     <use xlink:href="#Arial-BoldMT-73" transform="translate(1194.921875 0)"/>
     <use xlink:href="#Arial-BoldMT-20" transform="translate(1250.537109 0)"/>
     <use xlink:href="#Arial-BoldMT-54" transform="translate(1278.320312 0)"/>
     <use xlink:href="#Arial-BoldMT-69" transform="translate(1337.654297 0)"/>
     <use xlink:href="#Arial-BoldMT-6d" transform="translate(1365.4375 0)"/>
     <use xlink:href="#Arial-BoldMT-65" transform="translate(1454.353516 0)"/>
     <use xlink:href="#Arial-BoldMT-20" transform="translate(1509.96875 0)"/>
     <use xlink:href="#Arial-BoldMT-53" transform="translate(1537.751953 0)"/>
     <use xlink:href="#Arial-BoldMT-65" transform="translate(1604.451172 0)"/>
     <use xlink:href="#Arial-BoldMT-72" transform="translate(1660.066406 0)"/>
     <use xlink:href="#Arial-BoldMT-69" transform="translate(1698.982422 0)"/>
     <use xlink:href="#Arial-BoldMT-65" transform="translate(1726.765625 0)"/>
     <use xlink:href="#Arial-BoldMT-73" transform="translate(1782.380859 0)"/>
    </g>
   </g>
  </g>
 </g>
 <defs>
  <clipPath id="pc97fd6ae9d">
   <rect x="56.400156" y="23.391563" width="926.294803" height="289.62"/>
  </clipPath>
 </defs>
</svg>
