<?xml version="1.0" encoding="utf-8" standalone="no"?>
<!DOCTYPE svg PUBLIC "-//W3C//DTD SVG 1.1//EN"
  "http://www.w3.org/Graphics/SVG/1.1/DTD/svg11.dtd">
<svg xmlns:xlink="http://www.w3.org/1999/xlink" width="994.21695pt" height="348.745781pt" viewBox="0 0 994.21695 348.745781" xmlns="http://www.w3.org/2000/svg" version="1.1">
 <metadata>
  <rdf:RDF xmlns:dc="http://purl.org/dc/elements/1.1/" xmlns:cc="http://creativecommons.org/ns#" xmlns:rdf="http://www.w3.org/1999/02/22-rdf-syntax-ns#">
   <cc:Work>
    <dc:type rdf:resource="http://purl.org/dc/dcmitype/StillImage"/>
    <dc:date>2026-03-20T22:16:28.502732</dc:date>
    <dc:format>image/svg+xml</dc:format>
    <dc:creator>
     <cc:Agent>
      <dc:title>Matplotlib v3.10.8, https://matplotlib.org/</dc:title>
     </cc:Agent>
    </dc:creator>
   </cc:Work>
  </rdf:RDF>
 </metadata>
 <defs>
  <style type="text/css">*{stroke-linejoin: round; stroke-linecap: butt}</style>
 </defs>
 <g id="figure_1">
  <g id="patch_1">
   <path d="M 0 348.745781 
L 994.21695 348.745781 
L 994.21695 0 
L 0 0 
z
" style="fill: #ffffff"/>
  </g>
  <g id="axes_1">
   <g id="patch_2">
    <path d="M 56.400156 313.011562 
L 982.694959 313.011562 
L 982.694959 23.391562 
L 56.400156 23.391562 
z
" style="fill: #ffffff"/>
   </g>
   <g id="matplotlib.axis_1">
    <g id="xtick_1">
     <g id="line2d_1">
      <path d="M 133.876649 313.011562 
L 133.876649 23.391562 
" clip-path="url(#peefbcd5fb8)" style="fill: none; stroke: #cccccc; stroke-linecap: round"/>
     </g>
     <g id="text_1">
      <!-- 2010-01 -->
      <g style="fill: #262626" transform="translate(113.694228 324.385156) scale(0.11 -0.11)">
       <defs>
        <path id="ArialMT-32" d="M 3222 541 
L 3222 0 
L 194 0 
Q 188 203 259 391 
Q 375 700 629 1000 
Q 884 1300 1366 1694 
Q 2113 2306 2375 2664 
Q 2638 3022 2638 3341 
Q 2638 3675 2398 3904 
Q 2159 4134 1775 4134 
Q 1369 4134 1125 3890 
Q 881 3647 878 3216 
L 300 3275 
Q 359 3922 746 4261 
Q 1134 4600 1788 4600 
Q 2447 4600 2831 4234 
Q 3216 3869 3216 3328 
Q 3216 3053 3103 2787 
Q 2991 2522 2730 2228 
Q 2469 1934 1863 1422 
Q 1356 997 1212 845 
Q 1069 694 975 541 
L 3222 541 
z
" transform="scale(0.015625)"/>
        <path id="ArialMT-30" d="M 266 2259 
Q 266 3072 433 3567 
Q 600 4063 929 4331 
Q 1259 4600 1759 4600 
Q 2128 4600 2406 4451 
Q 2684 4303 2865 4023 
Q 3047 3744 3150 3342 
Q 3253 2941 3253 2259 
Q 3253 1453 3087 958 
Q 2922 463 2592 192 
Q 2263 -78 1759 -78 
Q 1097 -78 719 397 
Q 266 969 266 2259 
z
M 844 2259 
Q 844 1131 1108 757 
Q 1372 384 1759 384 
Q 2147 384 2411 759 
Q 2675 1134 2675 2259 
Q 2675 3391 2411 3762 
Q 2147 4134 1753 4134 
Q 1366 4134 1134 3806 
Q 844 3388 844 2259 
z
" transform="scale(0.015625)"/>
        <path id="ArialMT-31" d="M 2384 0 
L 1822 0 
L 1822 3584 
Q 1619 3391 1289 3197 
Q 959 3003 697 2906 
L 697 3450 
Q 1169 3672 1522 3987 
Q 1875 4303 2022 4600 
L 2384 4600 
L 2384 0 
z
" transform="scale(0.015625)"/>
        <path id="ArialMT-2d" d="M 203 1375 
L 203 1941 
L 1931 1941 
L 1931 1375 
L 203 1375 
z
" transform="scale(0.015625)"/>
       </defs>
       <use xlink:href="#ArialMT-32"/>
       <use xlink:href="#ArialMT-30" transform="translate(55.615234 0)"/>
       <use xlink:href="#ArialMT-31" transform="translate(111.230469 0)"/>
       <use xlink:href="#ArialMT-30" transform="translate(166.845703 0)"/>
       <use xlink:href="#ArialMT-2d" transform="translate(222.460938 0)"/>
       <use xlink:href="#ArialMT-30" transform="translate(255.761719 0)"/>
       <use xlink:href="#ArialMT-31" transform="translate(311.376953 0)"/>
      </g>
     </g>
    </g>
    <g id="xtick_2">
     <g id="line2d_2">
      <path d="M 236.570087 313.011562 
L 236.570087 23.391562 
" clip-path="url(#peefbcd5fb8)" style="fill: none; stroke: #cccccc; stroke-linecap: round"/>
     </g>
     <g id="text_2">
      <!-- 2010-04 -->
      <g style="fill: #262626" transform="translate(216.387665 324.385156) scale(0.11 -0.11)">
       <defs>
        <path id="ArialMT-34" d="M 2069 0 
L 2069 1097 
L 81 1097 
L 81 1613 
L 2172 4581 
L 2631 4581 
L 2631 1613 
L 3250 1613 
L 3250 1097 
L 2631 1097 
L 2631 0 
L 2069 0 
z
M 2069 1613 
L 2069 3678 
L 634 1613 
L 2069 1613 
z
" transform="scale(0.015625)"/>
       </defs>
       <use xlink:href="#ArialMT-32"/>
       <use xlink:href="#ArialMT-30" transform="translate(55.615234 0)"/>
       <use xlink:href="#ArialMT-31" transform="translate(111.230469 0)"/>
       <use xlink:href="#ArialMT-30" transform="translate(166.845703 0)"/>
       <use xlink:href="#ArialMT-2d" transform="translate(222.460938 0)"/>
       <use xlink:href="#ArialMT-30" transform="translate(255.761719 0)"/>
       <use xlink:href="#ArialMT-34" transform="translate(311.376953 0)"/>
      </g>
     </g>
    </g>
    <g id="xtick_3">
     <g id="line2d_3">
      <path d="M 340.404562 313.011562 
L 340.404562 23.391562 
" clip-path="url(#peefbcd5fb8)" style="fill: none; stroke: #cccccc; stroke-linecap: round"/>
     </g>
     <g id="text_3">
      <!-- 2010-07 -->
      <g style="fill: #262626" transform="translate(320.22214 324.385156) scale(0.11 -0.11)">
       <defs>
        <path id="ArialMT-37" d="M 303 3981 
L 303 4522 
L 3269 4522 
L 3269 4084 
Q 2831 3619 2401 2847 
Q 1972 2075 1738 1259 
Q 1569 684 1522 0 
L 944 0 
Q 953 541 1156 1306 
Q 1359 2072 1739 2783 
Q 2119 3494 2547 3981 
L 303 3981 
z
" transform="scale(0.015625)"/>
       </defs>
       <use xlink:href="#ArialMT-32"/>
       <use xlink:href="#ArialMT-30" transform="translate(55.615234 0)"/>
       <use xlink:href="#ArialMT-31" transform="translate(111.230469 0)"/>
       <use xlink:href="#ArialMT-30" transform="translate(166.845703 0)"/>
       <use xlink:href="#ArialMT-2d" transform="translate(222.460938 0)"/>
       <use xlink:href="#ArialMT-30" transform="translate(255.761719 0)"/>
       <use xlink:href="#ArialMT-37" transform="translate(311.376953 0)"/>
      </g>
     </g>
    </g>
    <g id="xtick_4">
     <g id="line2d_4">
      <path d="M 445.380075 313.011562 
L 445.380075 23.391562 
" clip-path="url(#peefbcd5fb8)" style="fill: none; stroke: #cccccc; stroke-linecap: round"/>
     </g>
     <g id="text_4">
      <!-- 2010-10 -->
      <g style="fill: #262626" transform="translate(425.197654 324.385156) scale(0.11 -0.11)">
       <use xlink:href="#ArialMT-32"/>
       <use xlink:href="#ArialMT-30" transform="translate(55.615234 0)"/>
       <use xlink:href="#ArialMT-31" transform="translate(111.230469 0)"/>
       <use xlink:href="#ArialMT-30" transform="translate(166.845703 0)"/>
       <use xlink:href="#ArialMT-2d" transform="translate(222.460938 0)"/>
       <use xlink:href="#ArialMT-31" transform="translate(255.761719 0)"/>
       <use xlink:href="#ArialMT-30" transform="translate(311.376953 0)"/>
      </g>
     </g>
    </g>
    <g id="xtick_5">
     <g id="line2d_5">
      <path d="M 550.355589 313.011562 
L 550.355589 23.391562 
" clip-path="url(#peefbcd5fb8)" style="fill: none; stroke: #cccccc; stroke-linecap: round"/>
     </g>
     <g id="text_5">
      <!-- 2011-01 -->
      <g style="fill: #262626" transform="translate(530.578792 324.385156) scale(0.11 -0.11)">
       <use xlink:href="#ArialMT-32"/>
       <use xlink:href="#ArialMT-30" transform="translate(55.615234 0)"/>
       <use xlink:href="#ArialMT-31" transform="translate(111.230469 0)"/>
       <use xlink:href="#ArialMT-31" transform="translate(159.470703 0)"/>
       <use xlink:href="#ArialMT-2d" transform="translate(215.085938 0)"/>
       <use xlink:href="#ArialMT-30" transform="translate(248.386719 0)"/>
       <use xlink:href="#ArialMT-31" transform="translate(304.001953 0)"/>
      </g>
     </g>
    </g>
    <g id="xtick_6">
     <g id="line2d_6">
      <path d="M 653.049026 313.011562 
L 653.049026 23.391562 
" clip-path="url(#peefbcd5fb8)" style="fill: none; stroke: #cccccc; stroke-linecap: round"/>
     </g>
     <g id="text_6">
      <!-- 2011-04 -->
      <g style="fill: #262626" transform="translate(633.272229 324.385156) scale(0.11 -0.11)">
       <use xlink:href="#ArialMT-32"/>
       <use xlink:href="#ArialMT-30" transform="translate(55.615234 0)"/>
       <use xlink:href="#ArialMT-31" transform="translate(111.230469 0)"/>
       <use xlink:href="#ArialMT-31" transform="translate(159.470703 0)"/>
       <use xlink:href="#ArialMT-2d" transform="translate(215.085938 0)"/>
       <use xlink:href="#ArialMT-30" transform="translate(248.386719 0)"/>
       <use xlink:href="#ArialMT-34" transform="translate(304.001953 0)"/>
      </g>
     </g>
    </g>
    <g id="xtick_7">
     <g id="line2d_7">
      <path d="M 756.883502 313.011562 
L 756.883502 23.391562 
" clip-path="url(#peefbcd5fb8)" style="fill: none; stroke: #cccccc; stroke-linecap: round"/>
     </g>
     <g id="text_7">
      <!-- 2011-07 -->
      <g style="fill: #262626" transform="translate(737.106705 324.385156) scale(0.11 -0.11)">
       <use xlink:href="#ArialMT-32"/>
       <use xlink:href="#ArialMT-30" transform="translate(55.615234 0)"/>
       <use xlink:href="#ArialMT-31" transform="translate(111.230469 0)"/>
       <use xlink:href="#ArialMT-31" transform="translate(159.470703 0)"/>
       <use xlink:href="#ArialMT-2d" transform="translate(215.085938 0)"/>
       <use xlink:href="#ArialMT-30" transform="translate(248.386719 0)"/>
       <use xlink:href="#ArialMT-37" transform="translate(304.001953 0)"/>
      </g>
     </g>
    </g>
    <g id="xtick_8">
     <g id="line2d_8">
      <path d="M 861.859015 313.011562 
L 861.859015 23.391562 
" clip-path="url(#peefbcd5fb8)" style="fill: none; stroke: #cccccc; stroke-linecap: round"/>
     </g>
     <g id="text_8">
      <!-- 2011-10 -->
      <g style="fill: #262626" transform="translate(842.082218 324.385156) scale(0.11 -0.11)">
       <use xlink:href="#ArialMT-32"/>
       <use xlink:href="#ArialMT-30" transform="translate(55.615234 0)"/>
       <use xlink:href="#ArialMT-31" transform="translate(111.230469 0)"/>
       <use xlink:href="#ArialMT-31" transform="translate(159.470703 0)"/>
       <use xlink:href="#ArialMT-2d" transform="translate(215.085938 0)"/>
       <use xlink:href="#ArialMT-31" transform="translate(248.386719 0)"/>
       <use xlink:href="#ArialMT-30" transform="translate(304.001953 0)"/>
      </g>
     </g>
    </g>
    <g id="xtick_9">
     <g id="line2d_9">
      <path d="M 966.834529 313.011562 
L 966.834529 23.391562 
" clip-path="url(#peefbcd5fb8)" style="fill: none; stroke: #cccccc; stroke-linecap: round"/>
     </g>
     <g id="text_9">
      <!-- 2012-01 -->
      <g style="fill: #262626" transform="translate(946.652107 324.385156) scale(0.11 -0.11)">
       <use xlink:href="#ArialMT-32"/>
       <use xlink:href="#ArialMT-30" transform="translate(55.615234 0)"/>
       <use xlink:href="#ArialMT-31" transform="translate(111.230469 0)"/>
       <use xlink:href="#ArialMT-32" transform="translate(166.845703 0)"/>
       <use xlink:href="#ArialMT-2d" transform="translate(222.460938 0)"/>
       <use xlink:href="#ArialMT-30" transform="translate(255.761719 0)"/>
       <use xlink:href="#ArialMT-31" transform="translate(311.376953 0)"/>
      </g>
     </g>
    </g>
    <g id="text_10">
     <!-- Date -->
     <g style="fill: #262626" transform="translate(506.874433 339.160781) scale(0.12 -0.12)">
      <defs>
       <path id="ArialMT-44" d="M 494 0 
L 494 4581 
L 2072 4581 
Q 2606 4581 2888 4516 
Q 3281 4425 3559 4188 
Q 3922 3881 4101 3404 
Q 4281 2928 4281 2316 
Q 4281 1794 4159 1391 
Q 4038 988 3847 723 
Q 3656 459 3429 307 
Q 3203 156 2883 78 
Q 2563 0 2147 0 
L 494 0 
z
M 1100 541 
L 2078 541 
Q 2531 541 2789 625 
Q 3047 709 3200 863 
Q 3416 1078 3536 1442 
Q 3656 1806 3656 2325 
Q 3656 3044 3420 3430 
Q 3184 3816 2847 3947 
Q 2603 4041 2063 4041 
L 1100 4041 
L 1100 541 
z
" transform="scale(0.015625)"/>
       <path id="ArialMT-61" d="M 2588 409 
Q 2275 144 1986 34 
Q 1697 -75 1366 -75 
Q 819 -75 525 192 
Q 231 459 231 875 
Q 231 1119 342 1320 
Q 453 1522 633 1644 
Q 813 1766 1038 1828 
Q 1203 1872 1538 1913 
Q 2219 1994 2541 2106 
Q 2544 2222 2544 2253 
Q 2544 2597 2384 2738 
Q 2169 2928 1744 2928 
Q 1347 2928 1158 2789 
Q 969 2650 878 2297 
L 328 2372 
Q 403 2725 575 2942 
Q 747 3159 1072 3276 
Q 1397 3394 1825 3394 
Q 2250 3394 2515 3294 
Q 2781 3194 2906 3042 
Q 3031 2891 3081 2659 
Q 3109 2516 3109 2141 
L 3109 1391 
Q 3109 606 3145 398 
Q 3181 191 3288 0 
L 2700 0 
Q 2613 175 2588 409 
z
M 2541 1666 
Q 2234 1541 1622 1453 
Q 1275 1403 1131 1340 
Q 988 1278 909 1158 
Q 831 1038 831 891 
Q 831 666 1001 516 
Q 1172 366 1500 366 
Q 1825 366 2078 508 
Q 2331 650 2450 897 
Q 2541 1088 2541 1459 
L 2541 1666 
z
" transform="scale(0.015625)"/>
       <path id="ArialMT-74" d="M 1650 503 
L 1731 6 
Q 1494 -44 1306 -44 
Q 1000 -44 831 53 
Q 663 150 594 308 
Q 525 466 525 972 
L 525 2881 
L 113 2881 
L 113 3319 
L 525 3319 
L 525 4141 
L 1084 4478 
L 1084 3319 
L 1650 3319 
L 1650 2881 
L 1084 2881 
L 1084 941 
Q 1084 700 1114 631 
Q 1144 563 1211 522 
Q 1278 481 1403 481 
Q 1497 481 1650 503 
z
" transform="scale(0.015625)"/>
       <path id="ArialMT-65" d="M 2694 1069 
L 3275 997 
Q 3138 488 2766 206 
Q 2394 -75 1816 -75 
Q 1088 -75 661 373 
Q 234 822 234 1631 
Q 234 2469 665 2931 
Q 1097 3394 1784 3394 
Q 2450 3394 2872 2941 
Q 3294 2488 3294 1666 
Q 3294 1616 3291 1516 
L 816 1516 
Q 847 969 1125 678 
Q 1403 388 1819 388 
Q 2128 388 2347 550 
Q 2566 713 2694 1069 
z
M 847 1978 
L 2700 1978 
Q 2663 2397 2488 2606 
Q 2219 2931 1791 2931 
Q 1403 2931 1139 2672 
Q 875 2413 847 1978 
z
" transform="scale(0.015625)"/>
      </defs>
      <use xlink:href="#ArialMT-44"/>
      <use xlink:href="#ArialMT-61" transform="translate(72.216797 0)"/>
      <use xlink:href="#ArialMT-74" transform="translate(127.832031 0)"/>
      <use xlink:href="#ArialMT-65" transform="translate(155.615234 0)"/>
     </g>
    </g>
   </g>
   <g id="matplotlib.axis_2">
    <g id="ytick_1">
     <g id="line2d_10">
      <path d="M 56.400156 299.847017 
L 982.694959 299.847017 
" clip-path="url(#peefbcd5fb8)" style="fill: none; stroke: #cccccc; stroke-linecap: round"/>
     </g>
     <g id="text_11">
      <!-- 0 -->
      <g style="fill: #262626" transform="translate(46.783125 303.783814) scale(0.11 -0.11)">
       <use xlink:href="#ArialMT-30"/>
      </g>
     </g>
    </g>
    <g id="ytick_2">
     <g id="line2d_11">
      <path d="M 56.400156 239.864598 
L 982.694959 239.864598 
" clip-path="url(#peefbcd5fb8)" style="fill: none; stroke: #cccccc; stroke-linecap: round"/>
     </g>
     <g id="text_12">
      <!-- 10000 -->
      <g style="fill: #262626" transform="translate(22.315 243.801395) scale(0.11 -0.11)">
       <use xlink:href="#ArialMT-31"/>
       <use xlink:href="#ArialMT-30" transform="translate(55.615234 0)"/>
       <use xlink:href="#ArialMT-30" transform="translate(111.230469 0)"/>
       <use xlink:href="#ArialMT-30" transform="translate(166.845703 0)"/>
       <use xlink:href="#ArialMT-30" transform="translate(222.460938 0)"/>
      </g>
     </g>
    </g>
    <g id="ytick_3">
     <g id="line2d_12">
      <path d="M 56.400156 179.882179 
L 982.694959 179.882179 
" clip-path="url(#peefbcd5fb8)" style="fill: none; stroke: #cccccc; stroke-linecap: round"/>
     </g>
     <g id="text_13">
      <!-- 20000 -->
      <g style="fill: #262626" transform="translate(22.315 183.818976) scale(0.11 -0.11)">
       <use xlink:href="#ArialMT-32"/>
       <use xlink:href="#ArialMT-30" transform="translate(55.615234 0)"/>
       <use xlink:href="#ArialMT-30" transform="translate(111.230469 0)"/>
       <use xlink:href="#ArialMT-30" transform="translate(166.845703 0)"/>
       <use xlink:href="#ArialMT-30" transform="translate(222.460938 0)"/>
      </g>
     </g>
    </g>
    <g id="ytick_4">
     <g id="line2d_13">
      <path d="M 56.400156 119.89976 
L 982.694959 119.89976 
" clip-path="url(#peefbcd5fb8)" style="fill: none; stroke: #cccccc; stroke-linecap: round"/>
     </g>
     <g id="text_14">
      <!-- 30000 -->
      <g style="fill: #262626" transform="translate(22.315 123.836557) scale(0.11 -0.11)">
       <defs>
        <path id="ArialMT-33" d="M 269 1209 
L 831 1284 
Q 928 806 1161 595 
Q 1394 384 1728 384 
Q 2125 384 2398 659 
Q 2672 934 2672 1341 
Q 2672 1728 2419 1979 
Q 2166 2231 1775 2231 
Q 1616 2231 1378 2169 
L 1441 2663 
Q 1497 2656 1531 2656 
Q 1891 2656 2178 2843 
Q 2466 3031 2466 3422 
Q 2466 3731 2256 3934 
Q 2047 4138 1716 4138 
Q 1388 4138 1169 3931 
Q 950 3725 888 3313 
L 325 3413 
Q 428 3978 793 4289 
Q 1159 4600 1703 4600 
Q 2078 4600 2393 4439 
Q 2709 4278 2876 4000 
Q 3044 3722 3044 3409 
Q 3044 3113 2884 2869 
Q 2725 2625 2413 2481 
Q 2819 2388 3044 2092 
Q 3269 1797 3269 1353 
Q 3269 753 2831 336 
Q 2394 -81 1725 -81 
Q 1122 -81 723 278 
Q 325 638 269 1209 
z
" transform="scale(0.015625)"/>
       </defs>
       <use xlink:href="#ArialMT-33"/>
       <use xlink:href="#ArialMT-30" transform="translate(55.615234 0)"/>
       <use xlink:href="#ArialMT-30" transform="translate(111.230469 0)"/>
       <use xlink:href="#ArialMT-30" transform="translate(166.845703 0)"/>
       <use xlink:href="#ArialMT-30" transform="translate(222.460938 0)"/>
      </g>
     </g>
    </g>
    <g id="ytick_5">
     <g id="line2d_14">
      <path d="M 56.400156 59.917341 
L 982.694959 59.917341 
" clip-path="url(#peefbcd5fb8)" style="fill: none; stroke: #cccccc; stroke-linecap: round"/>
     </g>
     <g id="text_15">
      <!-- 40000 -->
      <g style="fill: #262626" transform="translate(22.315 63.854138) scale(0.11 -0.11)">
       <use xlink:href="#ArialMT-34"/>
       <use xlink:href="#ArialMT-30" transform="translate(55.615234 0)"/>
       <use xlink:href="#ArialMT-30" transform="translate(111.230469 0)"/>
       <use xlink:href="#ArialMT-30" transform="translate(166.845703 0)"/>
       <use xlink:href="#ArialMT-30" transform="translate(222.460938 0)"/>
      </g>
     </g>
    </g>
    <g id="text_16">
     <!-- Daily cluster sales -->
     <g style="fill: #262626" transform="translate(15.789375 216.548437) rotate(-90) scale(0.12 -0.12)">
      <defs>
       <path id="ArialMT-69" d="M 425 3934 
L 425 4581 
L 988 4581 
L 988 3934 
L 425 3934 
z
M 425 0 
L 425 3319 
L 988 3319 
L 988 0 
L 425 0 
z
" transform="scale(0.015625)"/>
       <path id="ArialMT-6c" d="M 409 0 
L 409 4581 
L 972 4581 
L 972 0 
L 409 0 
z
" transform="scale(0.015625)"/>
       <path id="ArialMT-79" d="M 397 -1278 
L 334 -750 
Q 519 -800 656 -800 
Q 844 -800 956 -737 
Q 1069 -675 1141 -563 
Q 1194 -478 1313 -144 
Q 1328 -97 1363 -6 
L 103 3319 
L 709 3319 
L 1400 1397 
Q 1534 1031 1641 628 
Q 1738 1016 1872 1384 
L 2581 3319 
L 3144 3319 
L 1881 -56 
Q 1678 -603 1566 -809 
Q 1416 -1088 1222 -1217 
Q 1028 -1347 759 -1347 
Q 597 -1347 397 -1278 
z
" transform="scale(0.015625)"/>
       <path id="ArialMT-20" transform="scale(0.015625)"/>
       <path id="ArialMT-63" d="M 2588 1216 
L 3141 1144 
Q 3050 572 2676 248 
Q 2303 -75 1759 -75 
Q 1078 -75 664 370 
Q 250 816 250 1647 
Q 250 2184 428 2587 
Q 606 2991 970 3192 
Q 1334 3394 1763 3394 
Q 2303 3394 2647 3120 
Q 2991 2847 3088 2344 
L 2541 2259 
Q 2463 2594 2264 2762 
Q 2066 2931 1784 2931 
Q 1359 2931 1093 2626 
Q 828 2322 828 1663 
Q 828 994 1084 691 
Q 1341 388 1753 388 
Q 2084 388 2306 591 
Q 2528 794 2588 1216 
z
" transform="scale(0.015625)"/>
       <path id="ArialMT-75" d="M 2597 0 
L 2597 488 
Q 2209 -75 1544 -75 
Q 1250 -75 995 37 
Q 741 150 617 320 
Q 494 491 444 738 
Q 409 903 409 1263 
L 409 3319 
L 972 3319 
L 972 1478 
Q 972 1038 1006 884 
Q 1059 663 1231 536 
Q 1403 409 1656 409 
Q 1909 409 2131 539 
Q 2353 669 2445 892 
Q 2538 1116 2538 1541 
L 2538 3319 
L 3100 3319 
L 3100 0 
L 2597 0 
z
" transform="scale(0.015625)"/>
       <path id="ArialMT-73" d="M 197 991 
L 753 1078 
Q 800 744 1014 566 
Q 1228 388 1613 388 
Q 2000 388 2187 545 
Q 2375 703 2375 916 
Q 2375 1106 2209 1216 
Q 2094 1291 1634 1406 
Q 1016 1563 777 1677 
Q 538 1791 414 1992 
Q 291 2194 291 2438 
Q 291 2659 392 2848 
Q 494 3038 669 3163 
Q 800 3259 1026 3326 
Q 1253 3394 1513 3394 
Q 1903 3394 2198 3281 
Q 2494 3169 2634 2976 
Q 2775 2784 2828 2463 
L 2278 2388 
Q 2241 2644 2061 2787 
Q 1881 2931 1553 2931 
Q 1166 2931 1000 2803 
Q 834 2675 834 2503 
Q 834 2394 903 2306 
Q 972 2216 1119 2156 
Q 1203 2125 1616 2013 
Q 2213 1853 2448 1751 
Q 2684 1650 2818 1456 
Q 2953 1263 2953 975 
Q 2953 694 2789 445 
Q 2625 197 2315 61 
Q 2006 -75 1616 -75 
Q 969 -75 630 194 
Q 291 463 197 991 
z
" transform="scale(0.015625)"/>
       <path id="ArialMT-72" d="M 416 0 
L 416 3319 
L 922 3319 
L 922 2816 
Q 1116 3169 1280 3281 
Q 1444 3394 1641 3394 
Q 1925 3394 2219 3213 
L 2025 2691 
Q 1819 2813 1613 2813 
Q 1428 2813 1281 2702 
Q 1134 2591 1072 2394 
Q 978 2094 978 1738 
L 978 0 
L 416 0 
z
" transform="scale(0.015625)"/>
      </defs>
      <use xlink:href="#ArialMT-44"/>
      <use xlink:href="#ArialMT-61" transform="translate(72.216797 0)"/>
      <use xlink:href="#ArialMT-69" transform="translate(127.832031 0)"/>
      <use xlink:href="#ArialMT-6c" transform="translate(150.048828 0)"/>
      <use xlink:href="#ArialMT-79" transform="translate(172.265625 0)"/>
      <use xlink:href="#ArialMT-20" transform="translate(222.265625 0)"/>
      <use xlink:href="#ArialMT-63" transform="translate(250.048828 0)"/>
      <use xlink:href="#ArialMT-6c" transform="translate(300.048828 0)"/>
      <use xlink:href="#ArialMT-75" transform="translate(322.265625 0)"/>
      <use xlink:href="#ArialMT-73" transform="translate(377.880859 0)"/>
      <use xlink:href="#ArialMT-74" transform="translate(427.880859 0)"/>
      <use xlink:href="#ArialMT-65" transform="translate(455.664062 0)"/>
      <use xlink:href="#ArialMT-72" transform="translate(511.279297 0)"/>
      <use xlink:href="#ArialMT-20" transform="translate(544.580078 0)"/>
      <use xlink:href="#ArialMT-73" transform="translate(572.363281 0)"/>
      <use xlink:href="#ArialMT-61" transform="translate(622.363281 0)"/>
      <use xlink:href="#ArialMT-6c" transform="translate(677.978516 0)"/>
      <use xlink:href="#ArialMT-65" transform="translate(700.195312 0)"/>
      <use xlink:href="#ArialMT-73" transform="translate(755.810547 0)"/>
     </g>
    </g>
   </g>
   <g id="line2d_15">
    <path d="M 98.504465 237.715968 
L 99.645504 237.667742 
L 100.786542 236.148807 
L 101.92758 254.730461 
L 103.068618 289.515705 
L 104.209656 276.914359 
L 105.350695 239.522098 
L 106.491733 236.015286 
L 107.632771 258.755881 
L 108.773809 242.310741 
L 109.914847 256.494544 
L 111.055886 299.847017 
L 112.196924 283.109283 
L 113.337962 220.597585 
L 114.479 220.899357 
L 115.620038 236.115037 
L 116.761077 260.881058 
L 117.902115 267.282262 
L 119.043153 299.847017 
L 120.184191 287.168353 
L 121.325229 290.755362 
L 122.466267 259.436441 
L 123.607306 292.847189 
L 124.748344 299.847017 
L 136.158726 299.847017 
L 137.299764 286.918406 
L 138.440802 266.768452 
L 139.58184 290.218639 
L 140.722879 265.353647 
L 141.863917 279.853797 
L 143.004955 299.847017 
L 144.145993 282.659895 
L 145.287031 249.78677 
L 146.428069 269.832834 
L 147.569108 277.511184 
L 148.710146 258.019957 
L 149.851184 288.724777 
L 150.992222 299.847017 
L 152.13326 287.254968 
L 153.274299 278.520028 
L 154.415337 266.26652 
L 155.556375 277.845046 
L 156.697413 282.660854 
L 157.838451 275.974794 
L 158.97949 299.847017 
L 160.120528 286.320802 
L 161.261566 279.137607 
L 162.402604 281.170411 
L 163.543642 268.198433 
L 164.684681 281.850312 
L 165.825719 271.312541 
L 166.966757 299.847017 
L 168.107795 279.549866 
L 169.248833 276.291801 
L 170.389872 282.331851 
L 171.53091 271.667397 
L 172.671948 279.43524 
L 173.812986 247.339607 
L 174.954024 299.847017 
L 176.095062 288.228063 
L 177.236101 278.418838 
L 178.377139 282.784958 
L 179.518177 289.582646 
L 180.659215 279.595573 
L 181.800253 289.034526 
L 182.941292 299.847017 
L 184.08233 282.462492 
L 185.223368 248.676015 
L 186.364406 266.422714 
L 187.505444 278.658647 
L 188.646483 277.094486 
L 189.787521 230.528154 
L 190.928559 299.847017 
L 193.210635 278.632075 
L 194.351674 277.621371 
L 195.492712 274.787202 
L 196.63375 232.083319 
L 197.774788 280.588102 
L 198.915826 299.847017 
L 200.056864 280.250941 
L 201.197903 282.632423 
L 202.338941 282.119393 
L 203.479979 272.515728 
L 204.621017 272.797105 
L 205.762055 237.250744 
L 206.903094 299.847017 
L 208.044132 283.39252 
L 209.18517 264.229757 
L 210.326208 271.971927 
L 211.467246 274.085468 
L 212.608285 281.622739 
L 213.749323 282.74519 
L 214.890361 299.847017 
L 216.031399 291.874994 
L 217.172437 274.11096 
L 218.313476 271.039561 
L 219.454514 278.539702 
L 220.595552 243.230271 
L 221.73659 263.005395 
L 222.877628 299.847017 
L 224.018666 265.454178 
L 225.159705 272.549258 
L 226.300743 274.850723 
L 227.441781 273.637159 
L 228.582819 269.656066 
L 229.723857 274.464497 
L 230.864896 299.847017 
L 232.005934 279.529592 
L 233.146972 241.853555 
L 234.28801 268.752671 
L 235.429048 270.237476 
L 236.570087 266.594923 
L 237.711125 299.847017 
L 241.134239 299.847017 
L 242.275278 278.255685 
L 244.557354 264.921474 
L 245.698392 284.277081 
L 246.83943 299.847017 
L 247.980468 278.41182 
L 249.121507 275.795747 
L 250.262545 281.450709 
L 251.403583 275.950501 
L 252.544621 276.812868 
L 253.685659 279.855836 
L 254.826698 299.847017 
L 255.967736 279.430861 
L 257.108774 256.689727 
L 258.249812 281.222716 
L 259.39085 275.03403 
L 260.531889 265.110538 
L 261.672927 278.326465 
L 262.813965 299.847017 
L 263.955003 286.149312 
L 265.096041 258.707355 
L 266.23708 247.049832 
L 267.378118 256.845141 
L 268.519156 274.409013 
L 269.660194 267.510795 
L 270.801232 299.847017 
L 271.94227 287.372173 
L 273.083309 299.847017 
L 274.224347 278.629796 
L 275.365385 272.974833 
L 276.506423 281.430075 
L 277.647461 253.068288 
L 278.7885 299.847017 
L 279.929538 282.904923 
L 281.070576 278.009158 
L 282.211614 272.217915 
L 283.352652 268.572484 
L 284.493691 267.908418 
L 285.634729 290.534267 
L 286.775767 299.847017 
L 287.916805 283.275794 
L 289.057843 284.72155 
L 290.198882 272.113486 
L 291.33992 282.33437 
L 292.480958 280.250041 
L 293.621996 281.733346 
L 294.763034 299.847017 
L 295.904072 282.3012 
L 297.045111 272.262842 
L 298.186149 277.710805 
L 299.327187 266.465481 
L 300.468225 265.015346 
L 301.609263 283.940579 
L 302.750302 299.847017 
L 303.89134 287.402465 
L 305.032378 299.847017 
L 306.173416 286.593662 
L 307.314454 289.487873 
L 308.455493 271.300784 
L 309.596531 277.502066 
L 310.737569 299.847017 
L 311.878607 272.671142 
L 313.019645 212.93951 
L 314.160684 269.417216 
L 315.301722 251.641906 
L 316.44276 280.810817 
L 317.583798 274.072572 
L 318.724836 299.847017 
L 319.865874 277.55935 
L 321.006913 277.258238 
L 322.147951 276.006765 
L 323.288989 262.482169 
L 324.430027 277.709666 
L 325.571065 282.06109 
L 326.712104 299.847017 
L 327.853142 293.720953 
L 328.99418 281.271182 
L 330.135218 280.83289 
L 332.417295 263.196259 
L 333.558333 280.295868 
L 334.699371 299.847017 
L 335.840409 276.857255 
L 336.981447 269.762175 
L 338.122486 244.723114 
L 339.263524 272.184085 
L 340.404562 268.152187 
L 341.5456 282.528233 
L 342.686638 299.847017 
L 343.827676 286.995904 
L 344.968715 261.910596 
L 346.109753 282.309837 
L 347.250791 262.530994 
L 348.391829 286.375206 
L 349.532867 285.74761 
L 350.673906 299.847017 
L 351.814944 291.334012 
L 352.955982 277.01333 
L 354.09702 269.60748 
L 355.238058 273.346424 
L 356.379097 141.865082 
L 357.520135 286.750996 
L 358.661173 299.847017 
L 359.802211 288.114756 
L 360.943249 272.723567 
L 362.084288 254.252941 
L 363.225326 268.812053 
L 364.366364 259.216246 
L 365.507402 254.603958 
L 366.64844 299.847017 
L 367.789478 282.871393 
L 368.930517 273.9057 
L 370.071555 268.812893 
L 371.212593 276.291801 
L 372.353631 237.651247 
L 373.494669 277.535776 
L 374.635708 299.847017 
L 375.776746 156.605701 
L 376.917784 256.993417 
L 378.058822 276.576478 
L 379.19986 273.149382 
L 380.340899 265.525917 
L 382.622975 299.847017 
L 383.764013 285.50846 
L 384.905051 278.938405 
L 386.04609 273.721674 
L 387.187128 279.255472 
L 388.328166 270.166996 
L 389.469204 250.780618 
L 390.610242 299.847017 
L 391.75128 261.72651 
L 392.892319 270.679666 
L 394.033357 274.153908 
L 395.174395 263.680438 
L 396.315433 267.064646 
L 397.456471 278.494955 
L 398.59751 299.847017 
L 399.738548 270.73377 
L 400.879586 268.233283 
L 402.020624 285.932835 
L 403.161662 258.38243 
L 404.302701 262.304861 
L 405.443739 272.574031 
L 406.584777 299.847017 
L 407.725815 279.330091 
L 408.866853 299.847017 
L 410.007892 263.881079 
L 411.14893 277.604276 
L 412.289968 255.504834 
L 413.431006 198.341948 
L 414.572044 299.847017 
L 415.713083 283.313283 
L 416.854121 270.957924 
L 417.995159 254.091168 
L 419.136197 282.304439 
L 420.277235 279.971902 
L 421.418273 278.836855 
L 422.559312 299.847017 
L 423.70035 284.031393 
L 424.841388 262.075128 
L 425.982426 275.10181 
L 427.123464 277.037982 
L 428.264503 270.066706 
L 429.405541 274.208552 
L 430.546579 299.847017 
L 431.687617 274.470675 
L 432.828655 265.722059 
L 433.969694 218.509897 
L 435.110732 246.95332 
L 436.25177 269.092831 
L 437.392808 271.943556 
L 438.533846 299.847017 
L 439.674885 284.764378 
L 440.815923 233.37486 
L 441.956961 252.587469 
L 443.097999 261.235734 
L 444.239037 236.557587 
L 445.380075 278.913153 
L 446.521114 299.847017 
L 447.662152 278.247768 
L 448.80319 264.647054 
L 449.944228 245.013849 
L 451.085266 273.337187 
L 452.226305 251.343254 
L 453.367343 190.398776 
L 454.508381 299.847017 
L 455.649419 273.764622 
L 456.790457 243.263502 
L 459.072534 256.893007 
L 460.213572 255.07548 
L 461.35461 261.958582 
L 462.495648 299.847017 
L 463.636687 268.714102 
L 464.777725 267.008262 
L 465.918763 258.398686 
L 467.059801 258.777774 
L 468.200839 276.717496 
L 469.341877 256.427963 
L 470.482916 299.847017 
L 471.623954 269.483317 
L 472.764992 262.601354 
L 475.047068 268.68681 
L 476.188107 274.69321 
L 477.329145 218.863673 
L 478.470183 299.847017 
L 479.611221 264.101634 
L 480.752259 274.506065 
L 481.893298 258.221498 
L 483.034336 266.812839 
L 484.175374 112.782186 
L 485.316412 266.283974 
L 486.45745 299.847017 
L 487.598489 265.061233 
L 488.739527 224.592654 
L 489.880565 221.567441 
L 491.021603 230.10048 
L 492.162641 209.078321 
L 493.303679 220.021034 
L 494.444718 299.847017 
L 495.585756 273.94199 
L 496.726794 164.160067 
L 497.867832 236.628007 
L 499.00887 247.044134 
L 500.149909 242.564407 
L 501.290947 242.574844 
L 502.431985 299.847017 
L 503.573023 276.012703 
L 504.714061 246.451027 
L 505.8551 232.005941 
L 506.996138 208.760655 
L 508.137176 198.88341 
L 510.419252 299.847017 
L 511.560291 272.40728 
L 512.701329 229.646893 
L 513.842367 219.315341 
L 514.983405 162.914352 
L 516.124443 185.658966 
L 517.265481 131.355442 
L 518.40652 299.847017 
L 519.547558 239.85836 
L 520.688596 152.883372 
L 521.829634 79.219803 
L 522.970672 172.040677 
L 524.111711 161.223688 
L 525.252749 185.183845 
L 526.393787 299.847017 
L 527.534825 282.928796 
L 528.675863 254.122959 
L 529.816902 233.155264 
L 530.95794 252.737365 
L 532.098978 235.293338 
L 533.240016 255.932868 
L 534.381054 299.847017 
L 535.522093 294.68463 
L 536.663131 266.560373 
L 537.804169 205.983409 
L 538.945207 295.220693 
L 540.086245 287.38441 
L 541.227283 299.847017 
L 552.637665 299.847017 
L 553.778704 285.850539 
L 554.919742 259.124533 
L 556.06078 256.725416 
L 557.201818 260.205476 
L 558.342856 299.847017 
L 559.483895 280.837149 
L 560.624933 278.730266 
L 561.765971 154.292719 
L 562.907009 280.324179 
L 564.048047 275.780151 
L 565.189085 272.957918 
L 566.330124 299.847017 
L 567.471162 293.751664 
L 568.6122 274.11096 
L 569.753238 274.882934 
L 570.894276 289.850347 
L 573.176353 273.813388 
L 574.317391 299.847017 
L 575.458429 287.17993 
L 576.599467 277.550952 
L 577.740506 266.40268 
L 578.881544 278.318727 
L 580.022582 279.793755 
L 581.16362 282.935274 
L 582.304658 299.847017 
L 583.445697 291.141769 
L 585.727773 271.223647 
L 586.868811 266.633972 
L 588.009849 284.555879 
L 589.150887 272.181086 
L 590.291926 299.847017 
L 591.432964 294.247958 
L 592.574002 286.3256 
L 593.71504 274.530537 
L 594.856078 287.836677 
L 595.997117 286.618134 
L 597.138155 275.354576 
L 598.279193 299.847017 
L 599.420231 295.802343 
L 600.561269 268.317558 
L 601.702308 280.074832 
L 602.843346 277.168384 
L 603.984384 262.763006 
L 605.125422 283.52802 
L 606.26646 299.847017 
L 607.407499 290.38551 
L 608.548537 289.243865 
L 609.689575 273.60027 
L 610.830613 273.26059 
L 611.971651 280.571907 
L 613.112689 278.325685 
L 614.253728 299.847017 
L 615.394766 289.487513 
L 616.535804 277.143192 
L 617.676842 278.509111 
L 618.81788 271.424048 
L 619.958919 281.041149 
L 621.099957 285.462453 
L 622.240995 299.847017 
L 623.382033 287.980995 
L 624.523071 253.701102 
L 625.66411 266.730004 
L 626.805148 281.161414 
L 627.946186 281.701735 
L 629.087224 268.127954 
L 630.228262 299.847017 
L 631.369301 297.99356 
L 632.510339 282.735652 
L 633.651377 276.531791 
L 634.792415 280.751614 
L 635.933453 209.522131 
L 637.074492 274.700348 
L 638.21553 299.847017 
L 639.356568 275.251946 
L 640.497606 281.018476 
L 641.638644 264.499557 
L 642.779682 266.952898 
L 643.920721 276.897744 
L 645.061759 258.166614 
L 646.202797 299.847017 
L 647.343835 291.131572 
L 648.484873 276.136327 
L 649.625912 226.152137 
L 650.76695 262.072009 
L 651.907988 261.184149 
L 653.049026 279.610928 
L 654.190064 299.847017 
L 655.331103 295.052262 
L 656.472141 269.021932 
L 657.613179 289.527822 
L 658.754217 275.191963 
L 659.895255 279.894465 
L 661.036294 280.275054 
L 662.177332 299.847017 
L 663.31837 290.668207 
L 664.459408 273.707758 
L 665.600446 264.092877 
L 666.741484 271.983384 
L 667.882523 250.530012 
L 669.023561 263.088531 
L 670.164599 299.847017 
L 671.305637 289.312425 
L 672.446675 268.214689 
L 673.587714 272.853189 
L 674.728752 269.362572 
L 675.86979 267.368756 
L 677.010828 299.847017 
L 680.433943 299.847017 
L 681.574981 261.306213 
L 682.716019 254.929183 
L 684.998096 299.847017 
L 686.139134 299.847017 
L 687.280172 291.974564 
L 688.42121 299.847017 
L 689.562248 270.092078 
L 690.703286 273.543287 
L 691.844325 263.743299 
L 692.985363 267.76734 
L 694.126401 299.847017 
L 695.267439 271.378281 
L 696.408477 258.846814 
L 697.549516 222.746695 
L 698.690554 251.996582 
L 699.831592 249.449669 
L 700.97263 258.767997 
L 702.113668 299.847017 
L 703.254707 283.62951 
L 704.395745 220.108788 
L 705.536783 258.132304 
L 706.677821 263.986768 
L 707.818859 257.216672 
L 708.959898 258.052347 
L 710.100936 299.847017 
L 711.241974 280.929582 
L 712.383012 264.726411 
L 713.52405 261.258647 
L 714.665088 262.350147 
L 715.806127 265.670354 
L 716.947165 260.347814 
L 718.088203 299.847017 
L 719.229241 295.385825 
L 720.370279 299.847017 
L 721.511318 278.842134 
L 722.652356 284.056705 
L 723.793394 250.008045 
L 726.07547 299.847017 
L 727.216509 278.508931 
L 728.357547 279.84234 
L 729.498585 207.765666 
L 730.639623 245.899249 
L 731.780661 175.718799 
L 732.9217 276.412246 
L 734.062738 299.847017 
L 735.203776 287.851073 
L 736.344814 284.058025 
L 737.485852 261.076061 
L 738.62689 276.564661 
L 739.767929 276.880529 
L 740.908967 282.268029 
L 742.050005 299.847017 
L 743.191043 284.590009 
L 744.332081 258.399825 
L 746.614158 277.415272 
L 747.755196 274.480152 
L 748.896234 279.284804 
L 750.037272 299.847017 
L 751.178311 295.296451 
L 752.319349 275.880442 
L 753.460387 276.232179 
L 754.601425 281.635335 
L 755.742463 272.621897 
L 756.883502 282.919618 
L 758.02454 299.847017 
L 759.165578 291.211708 
L 760.306616 197.692339 
L 761.447654 247.479306 
L 762.588692 273.062288 
L 763.729731 250.907361 
L 764.870769 247.32917 
L 766.011807 299.847017 
L 767.152845 296.08552 
L 768.293883 274.470195 
L 769.434922 260.645507 
L 770.57596 279.144445 
L 771.716998 255.386129 
L 772.858036 288.357325 
L 773.999074 299.847017 
L 775.140113 277.691431 
L 776.281151 267.788154 
L 777.422189 261.857332 
L 778.563227 272.047505 
L 779.704265 255.169112 
L 780.845304 275.768275 
L 781.986342 299.847017 
L 783.12738 267.967561 
L 784.268418 266.235869 
L 785.409456 270.933332 
L 786.550494 271.718801 
L 787.691533 238.533948 
L 788.832571 274.651522 
L 789.973609 299.847017 
L 791.114647 286.930583 
L 792.255685 268.500085 
L 793.396724 274.500486 
L 794.537762 279.285044 
L 795.6788 218.372777 
L 796.819838 283.514224 
L 797.960876 299.847017 
L 799.101915 291.781241 
L 800.242953 272.494974 
L 801.383991 269.819818 
L 802.525029 263.409677 
L 803.666067 211.159951 
L 804.807106 283.316522 
L 805.948144 299.847017 
L 808.23022 285.194392 
L 809.371258 269.100089 
L 810.512296 243.947421 
L 811.653335 259.401292 
L 812.794373 282.303959 
L 813.935411 299.847017 
L 815.076449 287.188147 
L 816.217487 270.741868 
L 817.358526 273.286382 
L 818.499564 196.006413 
L 819.640602 274.694469 
L 820.78164 283.277953 
L 821.922678 299.847017 
L 823.063717 290.615963 
L 824.204755 299.847017 
L 825.345793 254.032145 
L 826.486831 272.408959 
L 827.627869 262.082506 
L 828.768908 254.277534 
L 829.909946 299.847017 
L 831.050984 287.787192 
L 832.192022 254.643366 
L 833.33306 263.798663 
L 834.474098 237.749738 
L 835.615137 280.068774 
L 836.756175 268.740674 
L 837.897213 299.847017 
L 839.038251 260.222151 
L 840.179289 264.571776 
L 841.320328 237.243846 
L 842.461366 271.363286 
L 843.602404 36.556108 
L 844.743442 260.850347 
L 845.88448 299.847017 
L 847.025519 281.063702 
L 848.166557 276.315494 
L 849.307595 170.657303 
L 850.448633 236.989221 
L 851.589671 262.150886 
L 852.73071 260.872241 
L 853.871748 299.847017 
L 855.012786 263.470499 
L 856.153824 269.81268 
L 857.294862 248.794241 
L 859.576939 233.264432 
L 860.717977 241.828722 
L 861.859015 299.847017 
L 863.000053 285.899605 
L 864.141091 237.478377 
L 865.28213 232.713074 
L 866.423168 233.03266 
L 867.564206 217.228253 
L 869.846282 299.847017 
L 870.987321 286.948518 
L 872.128359 242.777464 
L 873.269397 260.865043 
L 874.410435 271.203313 
L 875.551473 265.844243 
L 876.692512 263.676539 
L 877.83355 299.847017 
L 878.974588 275.078777 
L 880.115626 234.387003 
L 881.256664 261.052188 
L 883.538741 266.678179 
L 884.679779 271.92994 
L 885.820817 299.847017 
L 886.961855 288.691247 
L 888.102893 227.619427 
L 889.243932 259.171739 
L 890.38497 252.729207 
L 891.526008 262.899586 
L 892.667046 260.604659 
L 893.808084 299.847017 
L 894.949123 267.158278 
L 896.090161 221.177375 
L 897.231199 270.862372 
L 898.372237 256.183595 
L 899.513275 205.731422 
L 900.654314 240.192522 
L 901.795352 299.847017 
L 902.93639 253.723476 
L 904.077428 157.016161 
L 905.218466 225.167646 
L 906.359505 207.1728 
L 907.500543 232.272143 
L 908.641581 238.661051 
L 909.782619 299.847017 
L 910.923657 264.830001 
L 912.064695 112.147392 
L 913.205734 230.588257 
L 914.346772 225.218691 
L 915.48781 243.689797 
L 916.628848 228.737739 
L 917.769886 299.847017 
L 918.910925 252.818161 
L 920.051963 224.493323 
L 921.193001 223.37945 
L 922.334039 206.718313 
L 923.475077 241.726812 
L 924.616116 225.673237 
L 925.757154 299.847017 
L 926.898192 274.162125 
L 928.03923 226.196884 
L 929.180268 194.638454 
L 930.321307 201.686928 
L 931.462345 233.903485 
L 932.603383 213.550311 
L 933.744421 299.847017 
L 934.885459 277.308323 
L 936.026497 165.468704 
L 937.167536 227.210407 
L 939.449612 193.907268 
L 940.59065 254.819115 
L 940.59065 254.819115 
" clip-path="url(#peefbcd5fb8)" style="fill: none; stroke: #000000; stroke-width: 1.4; stroke-linecap: round"/>
   </g>
   <g id="patch_3">
    <path d="M 56.400156 313.011563 
L 56.400156 23.391563 
" style="fill: none; stroke: #cccccc; stroke-linejoin: miter; stroke-linecap: square"/>
   </g>
   <g id="patch_4">
    <path d="M 982.694959 313.011563 
L 982.694959 23.391563 
" style="fill: none; stroke: #cccccc; stroke-linejoin: miter; stroke-linecap: square"/>
   </g>
   <g id="patch_5">
    <path d="M 56.400156 313.011562 
L 982.694959 313.011562 
" style="fill: none; stroke: #cccccc; stroke-linejoin: miter; stroke-linecap: square"/>
   </g>
   <g id="patch_6">
    <path d="M 56.400156 23.391562 
L 982.694959 23.391562 
" style="fill: none; stroke: #cccccc; stroke-linejoin: miter; stroke-linecap: square"/>
   </g>
   <g id="text_17">
    <!-- Cluster 2: Raw Daily Sales Time Series -->
    <g style="fill: #262626" transform="translate(390.89412 17.391563) scale(0.14 -0.14)">
     <defs>
      <path id="Arial-BoldMT-43" d="M 3397 1684 
L 4294 1400 
Q 4088 650 3608 286 
Q 3128 -78 2391 -78 
Q 1478 -78 890 545 
Q 303 1169 303 2250 
Q 303 3394 893 4026 
Q 1484 4659 2447 4659 
Q 3288 4659 3813 4163 
Q 4125 3869 4281 3319 
L 3366 3100 
Q 3284 3456 3026 3662 
Q 2769 3869 2400 3869 
Q 1891 3869 1573 3503 
Q 1256 3138 1256 2319 
Q 1256 1450 1568 1081 
Q 1881 713 2381 713 
Q 2750 713 3015 947 
Q 3281 1181 3397 1684 
z
" transform="scale(0.015625)"/>
      <path id="Arial-BoldMT-6c" d="M 459 0 
L 459 4581 
L 1338 4581 
L 1338 0 
L 459 0 
z
" transform="scale(0.015625)"/>
      <path id="Arial-BoldMT-75" d="M 2644 0 
L 2644 497 
Q 2463 231 2167 78 
Q 1872 -75 1544 -75 
Q 1209 -75 943 72 
Q 678 219 559 484 
Q 441 750 441 1219 
L 441 3319 
L 1319 3319 
L 1319 1794 
Q 1319 1094 1367 936 
Q 1416 778 1544 686 
Q 1672 594 1869 594 
Q 2094 594 2272 717 
Q 2450 841 2515 1023 
Q 2581 1206 2581 1919 
L 2581 3319 
L 3459 3319 
L 3459 0 
L 2644 0 
z
" transform="scale(0.015625)"/>
      <path id="Arial-BoldMT-73" d="M 150 947 
L 1031 1081 
Q 1088 825 1259 692 
Q 1431 559 1741 559 
Q 2081 559 2253 684 
Q 2369 772 2369 919 
Q 2369 1019 2306 1084 
Q 2241 1147 2013 1200 
Q 950 1434 666 1628 
Q 272 1897 272 2375 
Q 272 2806 612 3100 
Q 953 3394 1669 3394 
Q 2350 3394 2681 3172 
Q 3013 2950 3138 2516 
L 2309 2363 
Q 2256 2556 2107 2659 
Q 1959 2763 1684 2763 
Q 1338 2763 1188 2666 
Q 1088 2597 1088 2488 
Q 1088 2394 1175 2328 
Q 1294 2241 1995 2081 
Q 2697 1922 2975 1691 
Q 3250 1456 3250 1038 
Q 3250 581 2869 253 
Q 2488 -75 1741 -75 
Q 1063 -75 667 200 
Q 272 475 150 947 
z
" transform="scale(0.015625)"/>
      <path id="Arial-BoldMT-74" d="M 1981 3319 
L 1981 2619 
L 1381 2619 
L 1381 1281 
Q 1381 875 1398 808 
Q 1416 741 1477 697 
Q 1538 653 1625 653 
Q 1747 653 1978 738 
L 2053 56 
Q 1747 -75 1359 -75 
Q 1122 -75 931 4 
Q 741 84 652 211 
Q 563 338 528 553 
Q 500 706 500 1172 
L 500 2619 
L 97 2619 
L 97 3319 
L 500 3319 
L 500 3978 
L 1381 4491 
L 1381 3319 
L 1981 3319 
z
" transform="scale(0.015625)"/>
      <path id="Arial-BoldMT-65" d="M 2381 1056 
L 3256 909 
Q 3088 428 2723 176 
Q 2359 -75 1813 -75 
Q 947 -75 531 491 
Q 203 944 203 1634 
Q 203 2459 634 2926 
Q 1066 3394 1725 3394 
Q 2466 3394 2894 2905 
Q 3322 2416 3303 1406 
L 1103 1406 
Q 1113 1016 1316 798 
Q 1519 581 1822 581 
Q 2028 581 2168 693 
Q 2309 806 2381 1056 
z
M 2431 1944 
Q 2422 2325 2234 2523 
Q 2047 2722 1778 2722 
Q 1491 2722 1303 2513 
Q 1116 2303 1119 1944 
L 2431 1944 
z
" transform="scale(0.015625)"/>
      <path id="Arial-BoldMT-72" d="M 1300 0 
L 422 0 
L 422 3319 
L 1238 3319 
L 1238 2847 
Q 1447 3181 1614 3287 
Q 1781 3394 1994 3394 
Q 2294 3394 2572 3228 
L 2300 2463 
Q 2078 2606 1888 2606 
Q 1703 2606 1575 2504 
Q 1447 2403 1373 2137 
Q 1300 1872 1300 1025 
L 1300 0 
z
" transform="scale(0.015625)"/>
      <path id="Arial-BoldMT-20" transform="scale(0.015625)"/>
      <path id="Arial-BoldMT-32" d="M 3238 816 
L 3238 0 
L 159 0 
Q 209 463 459 877 
Q 709 1291 1447 1975 
Q 2041 2528 2175 2725 
Q 2356 2997 2356 3263 
Q 2356 3556 2198 3714 
Q 2041 3872 1763 3872 
Q 1488 3872 1325 3706 
Q 1163 3541 1138 3156 
L 263 3244 
Q 341 3969 753 4284 
Q 1166 4600 1784 4600 
Q 2463 4600 2850 4234 
Q 3238 3869 3238 3325 
Q 3238 3016 3127 2736 
Q 3016 2456 2775 2150 
Q 2616 1947 2200 1565 
Q 1784 1184 1673 1059 
Q 1563 934 1494 816 
L 3238 816 
z
" transform="scale(0.015625)"/>
      <path id="Arial-BoldMT-3a" d="M 628 2441 
L 628 3319 
L 1506 3319 
L 1506 2441 
L 628 2441 
z
M 628 0 
L 628 878 
L 1506 878 
L 1506 0 
L 628 0 
z
" transform="scale(0.015625)"/>
      <path id="Arial-BoldMT-52" d="M 469 0 
L 469 4581 
L 2416 4581 
Q 3150 4581 3483 4457 
Q 3816 4334 4016 4018 
Q 4216 3703 4216 3297 
Q 4216 2781 3912 2445 
Q 3609 2109 3006 2022 
Q 3306 1847 3501 1637 
Q 3697 1428 4028 894 
L 4588 0 
L 3481 0 
L 2813 997 
Q 2456 1531 2325 1670 
Q 2194 1809 2047 1861 
Q 1900 1913 1581 1913 
L 1394 1913 
L 1394 0 
L 469 0 
z
M 1394 2644 
L 2078 2644 
Q 2744 2644 2909 2700 
Q 3075 2756 3169 2893 
Q 3263 3031 3263 3238 
Q 3263 3469 3139 3611 
Q 3016 3753 2791 3791 
Q 2678 3806 2116 3806 
L 1394 3806 
L 1394 2644 
z
" transform="scale(0.015625)"/>
      <path id="Arial-BoldMT-61" d="M 1116 2306 
L 319 2450 
Q 453 2931 781 3162 
Q 1109 3394 1756 3394 
Q 2344 3394 2631 3255 
Q 2919 3116 3036 2902 
Q 3153 2688 3153 2116 
L 3144 1091 
Q 3144 653 3186 445 
Q 3228 238 3344 0 
L 2475 0 
Q 2441 88 2391 259 
Q 2369 338 2359 363 
Q 2134 144 1878 34 
Q 1622 -75 1331 -75 
Q 819 -75 523 203 
Q 228 481 228 906 
Q 228 1188 362 1408 
Q 497 1628 739 1745 
Q 981 1863 1438 1950 
Q 2053 2066 2291 2166 
L 2291 2253 
Q 2291 2506 2166 2614 
Q 2041 2722 1694 2722 
Q 1459 2722 1328 2630 
Q 1197 2538 1116 2306 
z
M 2291 1594 
Q 2122 1538 1756 1459 
Q 1391 1381 1278 1306 
Q 1106 1184 1106 997 
Q 1106 813 1243 678 
Q 1381 544 1594 544 
Q 1831 544 2047 700 
Q 2206 819 2256 991 
Q 2291 1103 2291 1419 
L 2291 1594 
z
" transform="scale(0.015625)"/>
      <path id="Arial-BoldMT-77" d="M 1078 0 
L 28 3319 
L 881 3319 
L 1503 1144 
L 2075 3319 
L 2922 3319 
L 3475 1144 
L 4109 3319 
L 4975 3319 
L 3909 0 
L 3066 0 
L 2494 2134 
L 1931 0 
L 1078 0 
z
" transform="scale(0.015625)"/>
      <path id="Arial-BoldMT-44" d="M 463 4581 
L 2153 4581 
Q 2725 4581 3025 4494 
Q 3428 4375 3715 4072 
Q 4003 3769 4153 3330 
Q 4303 2891 4303 2247 
Q 4303 1681 4163 1272 
Q 3991 772 3672 463 
Q 3431 228 3022 97 
Q 2716 0 2203 0 
L 463 0 
L 463 4581 
z
M 1388 3806 
L 1388 772 
L 2078 772 
Q 2466 772 2638 816 
Q 2863 872 3011 1006 
Q 3159 1141 3253 1448 
Q 3347 1756 3347 2288 
Q 3347 2819 3253 3103 
Q 3159 3388 2990 3547 
Q 2822 3706 2563 3763 
Q 2369 3806 1803 3806 
L 1388 3806 
z
" transform="scale(0.015625)"/>
      <path id="Arial-BoldMT-69" d="M 459 3769 
L 459 4581 
L 1338 4581 
L 1338 3769 
L 459 3769 
z
M 459 0 
L 459 3319 
L 1338 3319 
L 1338 0 
L 459 0 
z
" transform="scale(0.015625)"/>
      <path id="Arial-BoldMT-79" d="M 44 3319 
L 978 3319 
L 1772 963 
L 2547 3319 
L 3456 3319 
L 2284 125 
L 2075 -453 
Q 1959 -744 1854 -897 
Q 1750 -1050 1614 -1145 
Q 1478 -1241 1279 -1294 
Q 1081 -1347 831 -1347 
Q 578 -1347 334 -1294 
L 256 -606 
Q 463 -647 628 -647 
Q 934 -647 1081 -467 
Q 1228 -288 1306 -9 
L 44 3319 
z
" transform="scale(0.015625)"/>
      <path id="Arial-BoldMT-53" d="M 231 1491 
L 1131 1578 
Q 1213 1125 1461 912 
Q 1709 700 2131 700 
Q 2578 700 2804 889 
Q 3031 1078 3031 1331 
Q 3031 1494 2936 1608 
Q 2841 1722 2603 1806 
Q 2441 1863 1863 2006 
Q 1119 2191 819 2459 
Q 397 2838 397 3381 
Q 397 3731 595 4036 
Q 794 4341 1167 4500 
Q 1541 4659 2069 4659 
Q 2931 4659 3367 4281 
Q 3803 3903 3825 3272 
L 2900 3231 
Q 2841 3584 2645 3739 
Q 2450 3894 2059 3894 
Q 1656 3894 1428 3728 
Q 1281 3622 1281 3444 
Q 1281 3281 1419 3166 
Q 1594 3019 2269 2859 
Q 2944 2700 3267 2529 
Q 3591 2359 3773 2064 
Q 3956 1769 3956 1334 
Q 3956 941 3737 597 
Q 3519 253 3119 86 
Q 2719 -81 2122 -81 
Q 1253 -81 787 320 
Q 322 722 231 1491 
z
" transform="scale(0.015625)"/>
      <path id="Arial-BoldMT-54" d="M 1497 0 
L 1497 3806 
L 138 3806 
L 138 4581 
L 3778 4581 
L 3778 3806 
L 2422 3806 
L 2422 0 
L 1497 0 
z
" transform="scale(0.015625)"/>
      <path id="Arial-BoldMT-6d" d="M 394 3319 
L 1203 3319 
L 1203 2866 
Q 1638 3394 2238 3394 
Q 2556 3394 2790 3262 
Q 3025 3131 3175 2866 
Q 3394 3131 3647 3262 
Q 3900 3394 4188 3394 
Q 4553 3394 4806 3245 
Q 5059 3097 5184 2809 
Q 5275 2597 5275 2122 
L 5275 0 
L 4397 0 
L 4397 1897 
Q 4397 2391 4306 2534 
Q 4184 2722 3931 2722 
Q 3747 2722 3584 2609 
Q 3422 2497 3350 2280 
Q 3278 2063 3278 1594 
L 3278 0 
L 2400 0 
L 2400 1819 
Q 2400 2303 2353 2443 
Q 2306 2584 2207 2653 
Q 2109 2722 1941 2722 
Q 1738 2722 1575 2612 
Q 1413 2503 1342 2297 
Q 1272 2091 1272 1613 
L 1272 0 
L 394 0 
L 394 3319 
z
" transform="scale(0.015625)"/>
     </defs>
     <use xlink:href="#Arial-BoldMT-43"/>
     <use xlink:href="#Arial-BoldMT-6c" transform="translate(72.216797 0)"/>
     <use xlink:href="#Arial-BoldMT-75" transform="translate(100 0)"/>
     <use xlink:href="#Arial-BoldMT-73" transform="translate(161.083984 0)"/>
     <use xlink:href="#Arial-BoldMT-74" transform="translate(216.699219 0)"/>
     <use xlink:href="#Arial-BoldMT-65" transform="translate(250 0)"/>
     <use xlink:href="#Arial-BoldMT-72" transform="translate(305.615234 0)"/>
     <use xlink:href="#Arial-BoldMT-20" transform="translate(344.53125 0)"/>
     <use xlink:href="#Arial-BoldMT-32" transform="translate(372.314453 0)"/>
     <use xlink:href="#Arial-BoldMT-3a" transform="translate(427.929688 0)"/>
     <use xlink:href="#Arial-BoldMT-20" transform="translate(461.230469 0)"/>
     <use xlink:href="#Arial-BoldMT-52" transform="translate(489.013672 0)"/>
     <use xlink:href="#Arial-BoldMT-61" transform="translate(561.230469 0)"/>
     <use xlink:href="#Arial-BoldMT-77" transform="translate(616.845703 0)"/>
     <use xlink:href="#Arial-BoldMT-20" transform="translate(694.628906 0)"/>
     <use xlink:href="#Arial-BoldMT-44" transform="translate(722.412109 0)"/>
     <use xlink:href="#Arial-BoldMT-61" transform="translate(794.628906 0)"/>
     <use xlink:href="#Arial-BoldMT-69" transform="translate(850.244141 0)"/>
     <use xlink:href="#Arial-BoldMT-6c" transform="translate(878.027344 0)"/>
     <use xlink:href="#Arial-BoldMT-79" transform="translate(905.810547 0)"/>
     <use xlink:href="#Arial-BoldMT-20" transform="translate(961.425781 0)"/>
     <use xlink:href="#Arial-BoldMT-53" transform="translate(989.208984 0)"/>
     <use xlink:href="#Arial-BoldMT-61" transform="translate(1055.908203 0)"/>
     <use xlink:href="#Arial-BoldMT-6c" transform="translate(1111.523438 0)"/>
     <use xlink:href="#Arial-BoldMT-65" transform="translate(1139.306641 0)"/>
     <use xlink:href="#Arial-BoldMT-73" transform="translate(1194.921875 0)"/>
     <use xlink:href="#Arial-BoldMT-20" transform="translate(1250.537109 0)"/>
     <use xlink:href="#Arial-BoldMT-54" transform="translate(1278.320312 0)"/>
     <use xlink:href="#Arial-BoldMT-69" transform="translate(1337.654297 0)"/>
     <use xlink:href="#Arial-BoldMT-6d" transform="translate(1365.4375 0)"/>
     <use xlink:href="#Arial-BoldMT-65" transform="translate(1454.353516 0)"/>
     <use xlink:href="#Arial-BoldMT-20" transform="translate(1509.96875 0)"/>
     <use xlink:href="#Arial-BoldMT-53" transform="translate(1537.751953 0)"/>
     <use xlink:href="#Arial-BoldMT-65" transform="translate(1604.451172 0)"/>
     <use xlink:href="#Arial-BoldMT-72" transform="translate(1660.066406 0)"/>
     <use xlink:href="#Arial-BoldMT-69" transform="translate(1698.982422 0)"/>
     <use xlink:href="#Arial-BoldMT-65" transform="translate(1726.765625 0)"/>
     <use xlink:href="#Arial-BoldMT-73" transform="translate(1782.380859 0)"/>
    </g>
   </g>
  </g>
 </g>
 <defs>
  <clipPath id="peefbcd5fb8">
   <rect x="56.400156" y="23.391563" width="926.294803" height="289.62"/>
  </clipPath>
 </defs>
</svg>
