<?xml version="1.0" encoding="utf-8" standalone="no"?>
<!DOCTYPE svg PUBLIC "-//W3C//DTD SVG 1.1//EN"
  "http://www.w3.org/Graphics/SVG/1.1/DTD/svg11.dtd">
<svg xmlns:xlink="http://www.w3.org/1999/xlink" width="994.21695pt" height="348.745781pt" viewBox="0 0 994.21695 348.745781" xmlns="http://www.w3.org/2000/svg" version="1.1">
 <metadata>
  <rdf:RDF xmlns:dc="http://purl.org/dc/elements/1.1/" xmlns:cc="http://creativecommons.org/ns#" xmlns:rdf="http://www.w3.org/1999/02/22-rdf-syntax-ns#">
   <cc:Work>
    <dc:type rdf:resource="http://purl.org/dc/dcmitype/StillImage"/>
    <dc:date>2026-03-20T22:16:28.609140</dc:date>
    <dc:format>image/svg+xml</dc:format>
    <dc:creator>
     <cc:Agent>
      <dc:title>Matplotlib v3.10.8, https://matplotlib.org/</dc:title>
     </cc:Agent>
    </dc:creator>
   </cc:Work>
  </rdf:RDF>
 </metadata>
 <defs>
  <style type="text/css">*{stroke-linejoin: round; stroke-linecap: butt}</style>
 </defs>
 <g id="figure_1">
  <g id="patch_1">
   <path d="M 0 348.745781 
L 994.21695 348.745781 
L 994.21695 0 
L 0 0 
z
" style="fill: #ffffff"/>
  </g>
  <g id="axes_1">
   <g id="patch_2">
    <path d="M 56.400156 313.011562 
L 982.694959 313.011562 
L 982.694959 23.391562 
L 56.400156 23.391562 
z
" style="fill: #ffffff"/>
   </g>
   <g id="matplotlib.axis_1">
    <g id="xtick_1">
     <g id="line2d_1">
      <path d="M 133.876649 313.011562 
L 133.876649 23.391562 
" clip-path="url(#pf806858037)" style="fill: none; stroke: #cccccc; stroke-linecap: round"/>
     </g>
     <g id="text_1">
      <!-- 2010-01 -->
      <g style="fill: #262626" transform="translate(113.694228 324.385156) scale(0.11 -0.11)">
       <defs>
        <path id="ArialMT-32" d="M 3222 541 
L 3222 0 
L 194 0 
Q 188 203 259 391 
Q 375 700 629 1000 
Q 884 1300 1366 1694 
Q 2113 2306 2375 2664 
Q 2638 3022 2638 3341 
Q 2638 3675 2398 3904 
Q 2159 4134 1775 4134 
Q 1369 4134 1125 3890 
Q 881 3647 878 3216 
L 300 3275 
Q 359 3922 746 4261 
Q 1134 4600 1788 4600 
Q 2447 4600 2831 4234 
Q 3216 3869 3216 3328 
Q 3216 3053 3103 2787 
Q 2991 2522 2730 2228 
Q 2469 1934 1863 1422 
Q 1356 997 1212 845 
Q 1069 694 975 541 
L 3222 541 
z
" transform="scale(0.015625)"/>
        <path id="ArialMT-30" d="M 266 2259 
Q 266 3072 433 3567 
Q 600 4063 929 4331 
Q 1259 4600 1759 4600 
Q 2128 4600 2406 4451 
Q 2684 4303 2865 4023 
Q 3047 3744 3150 3342 
Q 3253 2941 3253 2259 
Q 3253 1453 3087 958 
Q 2922 463 2592 192 
Q 2263 -78 1759 -78 
Q 1097 -78 719 397 
Q 266 969 266 2259 
z
M 844 2259 
Q 844 1131 1108 757 
Q 1372 384 1759 384 
Q 2147 384 2411 759 
Q 2675 1134 2675 2259 
Q 2675 3391 2411 3762 
Q 2147 4134 1753 4134 
Q 1366 4134 1134 3806 
Q 844 3388 844 2259 
z
" transform="scale(0.015625)"/>
        <path id="ArialMT-31" d="M 2384 0 
L 1822 0 
L 1822 3584 
Q 1619 3391 1289 3197 
Q 959 3003 697 2906 
L 697 3450 
Q 1169 3672 1522 3987 
Q 1875 4303 2022 4600 
L 2384 4600 
L 2384 0 
z
" transform="scale(0.015625)"/>
        <path id="ArialMT-2d" d="M 203 1375 
L 203 1941 
L 1931 1941 
L 1931 1375 
L 203 1375 
z
" transform="scale(0.015625)"/>
       </defs>
       <use xlink:href="#ArialMT-32"/>
       <use xlink:href="#ArialMT-30" transform="translate(55.615234 0)"/>
       <use xlink:href="#ArialMT-31" transform="translate(111.230469 0)"/>
       <use xlink:href="#ArialMT-30" transform="translate(166.845703 0)"/>
       <use xlink:href="#ArialMT-2d" transform="translate(222.460938 0)"/>
       <use xlink:href="#ArialMT-30" transform="translate(255.761719 0)"/>
       <use xlink:href="#ArialMT-31" transform="translate(311.376953 0)"/>
      </g>
     </g>
    </g>
    <g id="xtick_2">
     <g id="line2d_2">
      <path d="M 236.570087 313.011562 
L 236.570087 23.391562 
" clip-path="url(#pf806858037)" style="fill: none; stroke: #cccccc; stroke-linecap: round"/>
     </g>
     <g id="text_2">
      <!-- 2010-04 -->
      <g style="fill: #262626" transform="translate(216.387665 324.385156) scale(0.11 -0.11)">
       <defs>
        <path id="ArialMT-34" d="M 2069 0 
L 2069 1097 
L 81 1097 
L 81 1613 
L 2172 4581 
L 2631 4581 
L 2631 1613 
L 3250 1613 
L 3250 1097 
L 2631 1097 
L 2631 0 
L 2069 0 
z
M 2069 1613 
L 2069 3678 
L 634 1613 
L 2069 1613 
z
" transform="scale(0.015625)"/>
       </defs>
       <use xlink:href="#ArialMT-32"/>
       <use xlink:href="#ArialMT-30" transform="translate(55.615234 0)"/>
       <use xlink:href="#ArialMT-31" transform="translate(111.230469 0)"/>
       <use xlink:href="#ArialMT-30" transform="translate(166.845703 0)"/>
       <use xlink:href="#ArialMT-2d" transform="translate(222.460938 0)"/>
       <use xlink:href="#ArialMT-30" transform="translate(255.761719 0)"/>
       <use xlink:href="#ArialMT-34" transform="translate(311.376953 0)"/>
      </g>
     </g>
    </g>
    <g id="xtick_3">
     <g id="line2d_3">
      <path d="M 340.404562 313.011562 
L 340.404562 23.391562 
" clip-path="url(#pf806858037)" style="fill: none; stroke: #cccccc; stroke-linecap: round"/>
     </g>
     <g id="text_3">
      <!-- 2010-07 -->
      <g style="fill: #262626" transform="translate(320.22214 324.385156) scale(0.11 -0.11)">
       <defs>
        <path id="ArialMT-37" d="M 303 3981 
L 303 4522 
L 3269 4522 
L 3269 4084 
Q 2831 3619 2401 2847 
Q 1972 2075 1738 1259 
Q 1569 684 1522 0 
L 944 0 
Q 953 541 1156 1306 
Q 1359 2072 1739 2783 
Q 2119 3494 2547 3981 
L 303 3981 
z
" transform="scale(0.015625)"/>
       </defs>
       <use xlink:href="#ArialMT-32"/>
       <use xlink:href="#ArialMT-30" transform="translate(55.615234 0)"/>
       <use xlink:href="#ArialMT-31" transform="translate(111.230469 0)"/>
       <use xlink:href="#ArialMT-30" transform="translate(166.845703 0)"/>
       <use xlink:href="#ArialMT-2d" transform="translate(222.460938 0)"/>
       <use xlink:href="#ArialMT-30" transform="translate(255.761719 0)"/>
       <use xlink:href="#ArialMT-37" transform="translate(311.376953 0)"/>
      </g>
     </g>
    </g>
    <g id="xtick_4">
     <g id="line2d_4">
      <path d="M 445.380075 313.011562 
L 445.380075 23.391562 
" clip-path="url(#pf806858037)" style="fill: none; stroke: #cccccc; stroke-linecap: round"/>
     </g>
     <g id="text_4">
      <!-- 2010-10 -->
      <g style="fill: #262626" transform="translate(425.197654 324.385156) scale(0.11 -0.11)">
       <use xlink:href="#ArialMT-32"/>
       <use xlink:href="#ArialMT-30" transform="translate(55.615234 0)"/>
       <use xlink:href="#ArialMT-31" transform="translate(111.230469 0)"/>
       <use xlink:href="#ArialMT-30" transform="translate(166.845703 0)"/>
       <use xlink:href="#ArialMT-2d" transform="translate(222.460938 0)"/>
       <use xlink:href="#ArialMT-31" transform="translate(255.761719 0)"/>
       <use xlink:href="#ArialMT-30" transform="translate(311.376953 0)"/>
      </g>
     </g>
    </g>
    <g id="xtick_5">
     <g id="line2d_5">
      <path d="M 550.355589 313.011562 
L 550.355589 23.391562 
" clip-path="url(#pf806858037)" style="fill: none; stroke: #cccccc; stroke-linecap: round"/>
     </g>
     <g id="text_5">
      <!-- 2011-01 -->
      <g style="fill: #262626" transform="translate(530.578792 324.385156) scale(0.11 -0.11)">
       <use xlink:href="#ArialMT-32"/>
       <use xlink:href="#ArialMT-30" transform="translate(55.615234 0)"/>
       <use xlink:href="#ArialMT-31" transform="translate(111.230469 0)"/>
       <use xlink:href="#ArialMT-31" transform="translate(159.470703 0)"/>
       <use xlink:href="#ArialMT-2d" transform="translate(215.085938 0)"/>
       <use xlink:href="#ArialMT-30" transform="translate(248.386719 0)"/>
       <use xlink:href="#ArialMT-31" transform="translate(304.001953 0)"/>
      </g>
     </g>
    </g>
    <g id="xtick_6">
     <g id="line2d_6">
      <path d="M 653.049026 313.011562 
L 653.049026 23.391562 
" clip-path="url(#pf806858037)" style="fill: none; stroke: #cccccc; stroke-linecap: round"/>
     </g>
     <g id="text_6">
      <!-- 2011-04 -->
      <g style="fill: #262626" transform="translate(633.272229 324.385156) scale(0.11 -0.11)">
       <use xlink:href="#ArialMT-32"/>
       <use xlink:href="#ArialMT-30" transform="translate(55.615234 0)"/>
       <use xlink:href="#ArialMT-31" transform="translate(111.230469 0)"/>
       <use xlink:href="#ArialMT-31" transform="translate(159.470703 0)"/>
       <use xlink:href="#ArialMT-2d" transform="translate(215.085938 0)"/>
       <use xlink:href="#ArialMT-30" transform="translate(248.386719 0)"/>
       <use xlink:href="#ArialMT-34" transform="translate(304.001953 0)"/>
      </g>
     </g>
    </g>
    <g id="xtick_7">
     <g id="line2d_7">
      <path d="M 756.883502 313.011562 
L 756.883502 23.391562 
" clip-path="url(#pf806858037)" style="fill: none; stroke: #cccccc; stroke-linecap: round"/>
     </g>
     <g id="text_7">
      <!-- 2011-07 -->
      <g style="fill: #262626" transform="translate(737.106705 324.385156) scale(0.11 -0.11)">
       <use xlink:href="#ArialMT-32"/>
       <use xlink:href="#ArialMT-30" transform="translate(55.615234 0)"/>
       <use xlink:href="#ArialMT-31" transform="translate(111.230469 0)"/>
       <use xlink:href="#ArialMT-31" transform="translate(159.470703 0)"/>
       <use xlink:href="#ArialMT-2d" transform="translate(215.085938 0)"/>
       <use xlink:href="#ArialMT-30" transform="translate(248.386719 0)"/>
       <use xlink:href="#ArialMT-37" transform="translate(304.001953 0)"/>
      </g>
     </g>
    </g>
    <g id="xtick_8">
     <g id="line2d_8">
      <path d="M 861.859015 313.011562 
L 861.859015 23.391562 
" clip-path="url(#pf806858037)" style="fill: none; stroke: #cccccc; stroke-linecap: round"/>
     </g>
     <g id="text_8">
      <!-- 2011-10 -->
      <g style="fill: #262626" transform="translate(842.082218 324.385156) scale(0.11 -0.11)">
       <use xlink:href="#ArialMT-32"/>
       <use xlink:href="#ArialMT-30" transform="translate(55.615234 0)"/>
       <use xlink:href="#ArialMT-31" transform="translate(111.230469 0)"/>
       <use xlink:href="#ArialMT-31" transform="translate(159.470703 0)"/>
       <use xlink:href="#ArialMT-2d" transform="translate(215.085938 0)"/>
       <use xlink:href="#ArialMT-31" transform="translate(248.386719 0)"/>
       <use xlink:href="#ArialMT-30" transform="translate(304.001953 0)"/>
      </g>
     </g>
    </g>
    <g id="xtick_9">
     <g id="line2d_9">
      <path d="M 966.834529 313.011562 
L 966.834529 23.391562 
" clip-path="url(#pf806858037)" style="fill: none; stroke: #cccccc; stroke-linecap: round"/>
     </g>
     <g id="text_9">
      <!-- 2012-01 -->
      <g style="fill: #262626" transform="translate(946.652107 324.385156) scale(0.11 -0.11)">
       <use xlink:href="#ArialMT-32"/>
       <use xlink:href="#ArialMT-30" transform="translate(55.615234 0)"/>
       <use xlink:href="#ArialMT-31" transform="translate(111.230469 0)"/>
       <use xlink:href="#ArialMT-32" transform="translate(166.845703 0)"/>
       <use xlink:href="#ArialMT-2d" transform="translate(222.460938 0)"/>
       <use xlink:href="#ArialMT-30" transform="translate(255.761719 0)"/>
       <use xlink:href="#ArialMT-31" transform="translate(311.376953 0)"/>
      </g>
     </g>
    </g>
    <g id="text_10">
     <!-- Date -->
     <g style="fill: #262626" transform="translate(506.874433 339.160781) scale(0.12 -0.12)">
      <defs>
       <path id="ArialMT-44" d="M 494 0 
L 494 4581 
L 2072 4581 
Q 2606 4581 2888 4516 
Q 3281 4425 3559 4188 
Q 3922 3881 4101 3404 
Q 4281 2928 4281 2316 
Q 4281 1794 4159 1391 
Q 4038 988 3847 723 
Q 3656 459 3429 307 
Q 3203 156 2883 78 
Q 2563 0 2147 0 
L 494 0 
z
M 1100 541 
L 2078 541 
Q 2531 541 2789 625 
Q 3047 709 3200 863 
Q 3416 1078 3536 1442 
Q 3656 1806 3656 2325 
Q 3656 3044 3420 3430 
Q 3184 3816 2847 3947 
Q 2603 4041 2063 4041 
L 1100 4041 
L 1100 541 
z
" transform="scale(0.015625)"/>
       <path id="ArialMT-61" d="M 2588 409 
Q 2275 144 1986 34 
Q 1697 -75 1366 -75 
Q 819 -75 525 192 
Q 231 459 231 875 
Q 231 1119 342 1320 
Q 453 1522 633 1644 
Q 813 1766 1038 1828 
Q 1203 1872 1538 1913 
Q 2219 1994 2541 2106 
Q 2544 2222 2544 2253 
Q 2544 2597 2384 2738 
Q 2169 2928 1744 2928 
Q 1347 2928 1158 2789 
Q 969 2650 878 2297 
L 328 2372 
Q 403 2725 575 2942 
Q 747 3159 1072 3276 
Q 1397 3394 1825 3394 
Q 2250 3394 2515 3294 
Q 2781 3194 2906 3042 
Q 3031 2891 3081 2659 
Q 3109 2516 3109 2141 
L 3109 1391 
Q 3109 606 3145 398 
Q 3181 191 3288 0 
L 2700 0 
Q 2613 175 2588 409 
z
M 2541 1666 
Q 2234 1541 1622 1453 
Q 1275 1403 1131 1340 
Q 988 1278 909 1158 
Q 831 1038 831 891 
Q 831 666 1001 516 
Q 1172 366 1500 366 
Q 1825 366 2078 508 
Q 2331 650 2450 897 
Q 2541 1088 2541 1459 
L 2541 1666 
z
" transform="scale(0.015625)"/>
       <path id="ArialMT-74" d="M 1650 503 
L 1731 6 
Q 1494 -44 1306 -44 
Q 1000 -44 831 53 
Q 663 150 594 308 
Q 525 466 525 972 
L 525 2881 
L 113 2881 
L 113 3319 
L 525 3319 
L 525 4141 
L 1084 4478 
L 1084 3319 
L 1650 3319 
L 1650 2881 
L 1084 2881 
L 1084 941 
Q 1084 700 1114 631 
Q 1144 563 1211 522 
Q 1278 481 1403 481 
Q 1497 481 1650 503 
z
" transform="scale(0.015625)"/>
       <path id="ArialMT-65" d="M 2694 1069 
L 3275 997 
Q 3138 488 2766 206 
Q 2394 -75 1816 -75 
Q 1088 -75 661 373 
Q 234 822 234 1631 
Q 234 2469 665 2931 
Q 1097 3394 1784 3394 
Q 2450 3394 2872 2941 
Q 3294 2488 3294 1666 
Q 3294 1616 3291 1516 
L 816 1516 
Q 847 969 1125 678 
Q 1403 388 1819 388 
Q 2128 388 2347 550 
Q 2566 713 2694 1069 
z
M 847 1978 
L 2700 1978 
Q 2663 2397 2488 2606 
Q 2219 2931 1791 2931 
Q 1403 2931 1139 2672 
Q 875 2413 847 1978 
z
" transform="scale(0.015625)"/>
      </defs>
      <use xlink:href="#ArialMT-44"/>
      <use xlink:href="#ArialMT-61" transform="translate(72.216797 0)"/>
      <use xlink:href="#ArialMT-74" transform="translate(127.832031 0)"/>
      <use xlink:href="#ArialMT-65" transform="translate(155.615234 0)"/>
     </g>
    </g>
   </g>
   <g id="matplotlib.axis_2">
    <g id="ytick_1">
     <g id="line2d_10">
      <path d="M 56.400156 299.847017 
L 982.694959 299.847017 
" clip-path="url(#pf806858037)" style="fill: none; stroke: #cccccc; stroke-linecap: round"/>
     </g>
     <g id="text_11">
      <!-- 0 -->
      <g style="fill: #262626" transform="translate(46.783125 303.783814) scale(0.11 -0.11)">
       <use xlink:href="#ArialMT-30"/>
      </g>
     </g>
    </g>
    <g id="ytick_2">
     <g id="line2d_11">
      <path d="M 56.400156 265.605561 
L 982.694959 265.605561 
" clip-path="url(#pf806858037)" style="fill: none; stroke: #cccccc; stroke-linecap: round"/>
     </g>
     <g id="text_12">
      <!-- 2500 -->
      <g style="fill: #262626" transform="translate(28.432031 269.542358) scale(0.11 -0.11)">
       <defs>
        <path id="ArialMT-35" d="M 266 1200 
L 856 1250 
Q 922 819 1161 601 
Q 1400 384 1738 384 
Q 2144 384 2425 690 
Q 2706 997 2706 1503 
Q 2706 1984 2436 2262 
Q 2166 2541 1728 2541 
Q 1456 2541 1237 2417 
Q 1019 2294 894 2097 
L 366 2166 
L 809 4519 
L 3088 4519 
L 3088 3981 
L 1259 3981 
L 1013 2750 
Q 1425 3038 1878 3038 
Q 2478 3038 2890 2622 
Q 3303 2206 3303 1553 
Q 3303 931 2941 478 
Q 2500 -78 1738 -78 
Q 1113 -78 717 272 
Q 322 622 266 1200 
z
" transform="scale(0.015625)"/>
       </defs>
       <use xlink:href="#ArialMT-32"/>
       <use xlink:href="#ArialMT-35" transform="translate(55.615234 0)"/>
       <use xlink:href="#ArialMT-30" transform="translate(111.230469 0)"/>
       <use xlink:href="#ArialMT-30" transform="translate(166.845703 0)"/>
      </g>
     </g>
    </g>
    <g id="ytick_3">
     <g id="line2d_12">
      <path d="M 56.400156 231.364105 
L 982.694959 231.364105 
" clip-path="url(#pf806858037)" style="fill: none; stroke: #cccccc; stroke-linecap: round"/>
     </g>
     <g id="text_13">
      <!-- 5000 -->
      <g style="fill: #262626" transform="translate(28.432031 235.300902) scale(0.11 -0.11)">
       <use xlink:href="#ArialMT-35"/>
       <use xlink:href="#ArialMT-30" transform="translate(55.615234 0)"/>
       <use xlink:href="#ArialMT-30" transform="translate(111.230469 0)"/>
       <use xlink:href="#ArialMT-30" transform="translate(166.845703 0)"/>
      </g>
     </g>
    </g>
    <g id="ytick_4">
     <g id="line2d_13">
      <path d="M 56.400156 197.122649 
L 982.694959 197.122649 
" clip-path="url(#pf806858037)" style="fill: none; stroke: #cccccc; stroke-linecap: round"/>
     </g>
     <g id="text_14">
      <!-- 7500 -->
      <g style="fill: #262626" transform="translate(28.432031 201.059446) scale(0.11 -0.11)">
       <use xlink:href="#ArialMT-37"/>
       <use xlink:href="#ArialMT-35" transform="translate(55.615234 0)"/>
       <use xlink:href="#ArialMT-30" transform="translate(111.230469 0)"/>
       <use xlink:href="#ArialMT-30" transform="translate(166.845703 0)"/>
      </g>
     </g>
    </g>
    <g id="ytick_5">
     <g id="line2d_14">
      <path d="M 56.400156 162.881194 
L 982.694959 162.881194 
" clip-path="url(#pf806858037)" style="fill: none; stroke: #cccccc; stroke-linecap: round"/>
     </g>
     <g id="text_15">
      <!-- 10000 -->
      <g style="fill: #262626" transform="translate(22.315 166.81799) scale(0.11 -0.11)">
       <use xlink:href="#ArialMT-31"/>
       <use xlink:href="#ArialMT-30" transform="translate(55.615234 0)"/>
       <use xlink:href="#ArialMT-30" transform="translate(111.230469 0)"/>
       <use xlink:href="#ArialMT-30" transform="translate(166.845703 0)"/>
       <use xlink:href="#ArialMT-30" transform="translate(222.460938 0)"/>
      </g>
     </g>
    </g>
    <g id="ytick_6">
     <g id="line2d_15">
      <path d="M 56.400156 128.639738 
L 982.694959 128.639738 
" clip-path="url(#pf806858037)" style="fill: none; stroke: #cccccc; stroke-linecap: round"/>
     </g>
     <g id="text_16">
      <!-- 12500 -->
      <g style="fill: #262626" transform="translate(22.315 132.576535) scale(0.11 -0.11)">
       <use xlink:href="#ArialMT-31"/>
       <use xlink:href="#ArialMT-32" transform="translate(55.615234 0)"/>
       <use xlink:href="#ArialMT-35" transform="translate(111.230469 0)"/>
       <use xlink:href="#ArialMT-30" transform="translate(166.845703 0)"/>
       <use xlink:href="#ArialMT-30" transform="translate(222.460938 0)"/>
      </g>
     </g>
    </g>
    <g id="ytick_7">
     <g id="line2d_16">
      <path d="M 56.400156 94.398282 
L 982.694959 94.398282 
" clip-path="url(#pf806858037)" style="fill: none; stroke: #cccccc; stroke-linecap: round"/>
     </g>
     <g id="text_17">
      <!-- 15000 -->
      <g style="fill: #262626" transform="translate(22.315 98.335079) scale(0.11 -0.11)">
       <use xlink:href="#ArialMT-31"/>
       <use xlink:href="#ArialMT-35" transform="translate(55.615234 0)"/>
       <use xlink:href="#ArialMT-30" transform="translate(111.230469 0)"/>
       <use xlink:href="#ArialMT-30" transform="translate(166.845703 0)"/>
       <use xlink:href="#ArialMT-30" transform="translate(222.460938 0)"/>
      </g>
     </g>
    </g>
    <g id="ytick_8">
     <g id="line2d_17">
      <path d="M 56.400156 60.156826 
L 982.694959 60.156826 
" clip-path="url(#pf806858037)" style="fill: none; stroke: #cccccc; stroke-linecap: round"/>
     </g>
     <g id="text_18">
      <!-- 17500 -->
      <g style="fill: #262626" transform="translate(22.315 64.093623) scale(0.11 -0.11)">
       <use xlink:href="#ArialMT-31"/>
       <use xlink:href="#ArialMT-37" transform="translate(55.615234 0)"/>
       <use xlink:href="#ArialMT-35" transform="translate(111.230469 0)"/>
       <use xlink:href="#ArialMT-30" transform="translate(166.845703 0)"/>
       <use xlink:href="#ArialMT-30" transform="translate(222.460938 0)"/>
      </g>
     </g>
    </g>
    <g id="ytick_9">
     <g id="line2d_18">
      <path d="M 56.400156 25.91537 
L 982.694959 25.91537 
" clip-path="url(#pf806858037)" style="fill: none; stroke: #cccccc; stroke-linecap: round"/>
     </g>
     <g id="text_19">
      <!-- 20000 -->
      <g style="fill: #262626" transform="translate(22.315 29.852167) scale(0.11 -0.11)">
       <use xlink:href="#ArialMT-32"/>
       <use xlink:href="#ArialMT-30" transform="translate(55.615234 0)"/>
       <use xlink:href="#ArialMT-30" transform="translate(111.230469 0)"/>
       <use xlink:href="#ArialMT-30" transform="translate(166.845703 0)"/>
       <use xlink:href="#ArialMT-30" transform="translate(222.460938 0)"/>
      </g>
     </g>
    </g>
    <g id="text_20">
     <!-- Daily cluster sales -->
     <g style="fill: #262626" transform="translate(15.789375 216.548437) rotate(-90) scale(0.12 -0.12)">
      <defs>
       <path id="ArialMT-69" d="M 425 3934 
L 425 4581 
L 988 4581 
L 988 3934 
L 425 3934 
z
M 425 0 
L 425 3319 
L 988 3319 
L 988 0 
L 425 0 
z
" transform="scale(0.015625)"/>
       <path id="ArialMT-6c" d="M 409 0 
L 409 4581 
L 972 4581 
L 972 0 
L 409 0 
z
" transform="scale(0.015625)"/>
       <path id="ArialMT-79" d="M 397 -1278 
L 334 -750 
Q 519 -800 656 -800 
Q 844 -800 956 -737 
Q 1069 -675 1141 -563 
Q 1194 -478 1313 -144 
Q 1328 -97 1363 -6 
L 103 3319 
L 709 3319 
L 1400 1397 
Q 1534 1031 1641 628 
Q 1738 1016 1872 1384 
L 2581 3319 
L 3144 3319 
L 1881 -56 
Q 1678 -603 1566 -809 
Q 1416 -1088 1222 -1217 
Q 1028 -1347 759 -1347 
Q 597 -1347 397 -1278 
z
" transform="scale(0.015625)"/>
       <path id="ArialMT-20" transform="scale(0.015625)"/>
       <path id="ArialMT-63" d="M 2588 1216 
L 3141 1144 
Q 3050 572 2676 248 
Q 2303 -75 1759 -75 
Q 1078 -75 664 370 
Q 250 816 250 1647 
Q 250 2184 428 2587 
Q 606 2991 970 3192 
Q 1334 3394 1763 3394 
Q 2303 3394 2647 3120 
Q 2991 2847 3088 2344 
L 2541 2259 
Q 2463 2594 2264 2762 
Q 2066 2931 1784 2931 
Q 1359 2931 1093 2626 
Q 828 2322 828 1663 
Q 828 994 1084 691 
Q 1341 388 1753 388 
Q 2084 388 2306 591 
Q 2528 794 2588 1216 
z
" transform="scale(0.015625)"/>
       <path id="ArialMT-75" d="M 2597 0 
L 2597 488 
Q 2209 -75 1544 -75 
Q 1250 -75 995 37 
Q 741 150 617 320 
Q 494 491 444 738 
Q 409 903 409 1263 
L 409 3319 
L 972 3319 
L 972 1478 
Q 972 1038 1006 884 
Q 1059 663 1231 536 
Q 1403 409 1656 409 
Q 1909 409 2131 539 
Q 2353 669 2445 892 
Q 2538 1116 2538 1541 
L 2538 3319 
L 3100 3319 
L 3100 0 
L 2597 0 
z
" transform="scale(0.015625)"/>
       <path id="ArialMT-73" d="M 197 991 
L 753 1078 
Q 800 744 1014 566 
Q 1228 388 1613 388 
Q 2000 388 2187 545 
Q 2375 703 2375 916 
Q 2375 1106 2209 1216 
Q 2094 1291 1634 1406 
Q 1016 1563 777 1677 
Q 538 1791 414 1992 
Q 291 2194 291 2438 
Q 291 2659 392 2848 
Q 494 3038 669 3163 
Q 800 3259 1026 3326 
Q 1253 3394 1513 3394 
Q 1903 3394 2198 3281 
Q 2494 3169 2634 2976 
Q 2775 2784 2828 2463 
L 2278 2388 
Q 2241 2644 2061 2787 
Q 1881 2931 1553 2931 
Q 1166 2931 1000 2803 
Q 834 2675 834 2503 
Q 834 2394 903 2306 
Q 972 2216 1119 2156 
Q 1203 2125 1616 2013 
Q 2213 1853 2448 1751 
Q 2684 1650 2818 1456 
Q 2953 1263 2953 975 
Q 2953 694 2789 445 
Q 2625 197 2315 61 
Q 2006 -75 1616 -75 
Q 969 -75 630 194 
Q 291 463 197 991 
z
" transform="scale(0.015625)"/>
       <path id="ArialMT-72" d="M 416 0 
L 416 3319 
L 922 3319 
L 922 2816 
Q 1116 3169 1280 3281 
Q 1444 3394 1641 3394 
Q 1925 3394 2219 3213 
L 2025 2691 
Q 1819 2813 1613 2813 
Q 1428 2813 1281 2702 
Q 1134 2591 1072 2394 
Q 978 2094 978 1738 
L 978 0 
L 416 0 
z
" transform="scale(0.015625)"/>
      </defs>
      <use xlink:href="#ArialMT-44"/>
      <use xlink:href="#ArialMT-61" transform="translate(72.216797 0)"/>
      <use xlink:href="#ArialMT-69" transform="translate(127.832031 0)"/>
      <use xlink:href="#ArialMT-6c" transform="translate(150.048828 0)"/>
      <use xlink:href="#ArialMT-79" transform="translate(172.265625 0)"/>
      <use xlink:href="#ArialMT-20" transform="translate(222.265625 0)"/>
      <use xlink:href="#ArialMT-63" transform="translate(250.048828 0)"/>
      <use xlink:href="#ArialMT-6c" transform="translate(300.048828 0)"/>
      <use xlink:href="#ArialMT-75" transform="translate(322.265625 0)"/>
      <use xlink:href="#ArialMT-73" transform="translate(377.880859 0)"/>
      <use xlink:href="#ArialMT-74" transform="translate(427.880859 0)"/>
      <use xlink:href="#ArialMT-65" transform="translate(455.664062 0)"/>
      <use xlink:href="#ArialMT-72" transform="translate(511.279297 0)"/>
      <use xlink:href="#ArialMT-20" transform="translate(544.580078 0)"/>
      <use xlink:href="#ArialMT-73" transform="translate(572.363281 0)"/>
      <use xlink:href="#ArialMT-61" transform="translate(622.363281 0)"/>
      <use xlink:href="#ArialMT-6c" transform="translate(677.978516 0)"/>
      <use xlink:href="#ArialMT-65" transform="translate(700.195312 0)"/>
      <use xlink:href="#ArialMT-73" transform="translate(755.810547 0)"/>
     </g>
    </g>
   </g>
   <g id="line2d_19">
    <path d="M 98.504465 196.15841 
L 99.645504 211.122885 
L 100.786542 98.201549 
L 101.92758 234.120953 
L 103.068618 283.493161 
L 105.350695 221.273696 
L 106.491733 212.584447 
L 107.632771 221.542149 
L 108.773809 224.024244 
L 109.914847 242.873206 
L 111.055886 299.847017 
L 112.196924 254.72527 
L 113.337962 138.611945 
L 114.479 213.772489 
L 115.620038 176.720768 
L 116.761077 237.700692 
L 117.902115 245.806877 
L 119.043153 299.847017 
L 120.184191 281.962979 
L 121.325229 278.907545 
L 122.466267 218.88241 
L 123.607306 291.950389 
L 124.748344 299.847017 
L 136.158726 299.847017 
L 137.299764 260.269099 
L 138.440802 249.942971 
L 139.58184 276.443119 
L 140.722879 263.026906 
L 141.863917 280.022858 
L 143.004955 299.847017 
L 144.145993 262.882133 
L 145.287031 217.626707 
L 146.428069 36.556108 
L 147.569108 248.513322 
L 148.710146 245.289968 
L 149.851184 282.542892 
L 150.992222 299.847017 
L 152.13326 244.072068 
L 153.274299 263.928278 
L 154.415337 190.674983 
L 155.556375 249.789022 
L 156.697413 276.276021 
L 157.838451 223.774692 
L 158.97949 299.847017 
L 160.120528 268.859732 
L 161.261566 244.557064 
L 162.402604 265.965781 
L 163.543642 208.89719 
L 164.684681 270.778897 
L 165.825719 263.980599 
L 166.966757 299.847017 
L 168.107795 274.881982 
L 169.248833 269.22187 
L 170.389872 255.32025 
L 171.53091 265.374911 
L 172.671948 243.438191 
L 173.812986 263.436159 
L 174.954024 299.847017 
L 176.095062 283.915974 
L 177.236101 271.766695 
L 178.377139 276.431751 
L 179.518177 276.820323 
L 180.659215 279.186544 
L 181.800253 278.167656 
L 182.941292 299.847017 
L 184.08233 272.339075 
L 185.223368 273.860491 
L 186.364406 250.980214 
L 187.505444 263.485056 
L 188.646483 274.081965 
L 189.787521 256.501306 
L 190.928559 299.847017 
L 192.069597 288.269022 
L 193.210635 212.155607 
L 194.351674 250.122808 
L 195.492712 251.263596 
L 196.63375 216.9779 
L 197.774788 270.361973 
L 198.915826 299.847017 
L 200.056864 269.35007 
L 201.197903 220.861018 
L 202.338941 231.010049 
L 203.479979 239.09747 
L 204.621017 227.034205 
L 205.762055 266.040839 
L 206.903094 299.847017 
L 208.044132 248.129407 
L 209.18517 244.109734 
L 210.326208 268.471571 
L 211.467246 240.17361 
L 212.608285 244.871401 
L 213.749323 274.744195 
L 214.890361 299.847017 
L 216.031399 287.811693 
L 217.172437 239.502615 
L 218.313476 263.194415 
L 219.454514 258.016833 
L 220.595552 227.227874 
L 222.877628 299.847017 
L 224.018666 261.22512 
L 225.159705 262.364265 
L 226.300743 153.924861 
L 227.441781 231.870605 
L 228.582819 242.259189 
L 229.723857 257.157372 
L 230.864896 299.847017 
L 232.005934 258.713304 
L 233.146972 208.820626 
L 234.28801 200.809359 
L 235.429048 256.991507 
L 236.570087 252.143601 
L 237.711125 299.847017 
L 241.134239 299.847017 
L 242.275278 274.497109 
L 243.416316 254.390252 
L 244.557354 210.28753 
L 245.698392 284.448634 
L 246.83943 299.847017 
L 247.980468 274.045943 
L 249.121507 275.662688 
L 250.262545 282.558095 
L 251.403583 263.045944 
L 252.544621 270.886415 
L 253.685659 277.186432 
L 254.826698 299.847017 
L 255.967736 263.868835 
L 257.108774 191.601968 
L 259.39085 270.335402 
L 260.531889 270.182822 
L 261.672927 264.822254 
L 262.813965 299.847017 
L 263.955003 269.675775 
L 265.096041 261.576985 
L 266.23708 247.441154 
L 267.378118 253.755278 
L 268.519156 253.09976 
L 269.660194 273.545744 
L 270.801232 299.847017 
L 271.94227 288.798121 
L 273.083309 299.847017 
L 274.224347 266.090831 
L 275.365385 256.817971 
L 276.506423 269.273095 
L 277.647461 199.850872 
L 278.7885 299.847017 
L 279.929538 277.175612 
L 281.070576 223.297503 
L 283.352652 260.649042 
L 284.493691 265.287253 
L 285.634729 261.54247 
L 286.775767 299.847017 
L 287.916805 267.164506 
L 289.057843 224.622921 
L 290.198882 255.252452 
L 291.33992 267.270381 
L 292.480958 250.847083 
L 293.621996 272.465357 
L 294.763034 299.847017 
L 295.904072 275.089212 
L 297.045111 135.963711 
L 298.186149 277.596508 
L 299.327187 244.14466 
L 300.468225 260.258963 
L 301.609263 270.17748 
L 302.750302 299.847017 
L 303.89134 282.183494 
L 305.032378 299.847017 
L 306.173416 274.220711 
L 307.314454 262.38933 
L 308.455493 264.567086 
L 309.596531 262.923086 
L 310.737569 299.847017 
L 311.878607 260.454687 
L 313.019645 238.667671 
L 314.160684 235.38597 
L 315.301722 182.9786 
L 316.44276 279.628259 
L 317.583798 253.128249 
L 318.724836 299.847017 
L 319.865874 270.613306 
L 321.006913 252.039507 
L 322.147951 273.986637 
L 323.288989 254.054685 
L 324.430027 272.300177 
L 325.571065 284.363579 
L 326.712104 299.847017 
L 327.853142 291.830407 
L 328.99418 259.973663 
L 330.135218 280.249673 
L 331.276256 262.252227 
L 332.417295 275.333285 
L 333.558333 278.876317 
L 334.699371 299.847017 
L 335.840409 269.671255 
L 336.981447 253.360954 
L 338.122486 260.190069 
L 339.263524 275.634473 
L 340.404562 261.788324 
L 341.5456 284.590805 
L 342.686638 299.847017 
L 343.827676 283.301546 
L 344.968715 255.791549 
L 346.109753 266.421467 
L 347.250791 263.131 
L 348.391829 267.723601 
L 349.532867 286.718432 
L 350.673906 299.847017 
L 351.814944 291.951896 
L 352.955982 260.650001 
L 354.09702 270.783417 
L 355.238058 267.73223 
L 356.379097 232.78718 
L 357.520135 279.546491 
L 358.661173 299.847017 
L 359.802211 278.301882 
L 360.943249 262.566016 
L 362.084288 273.257294 
L 363.225326 264.579139 
L 364.366364 273.403162 
L 365.507402 226.387589 
L 366.64844 299.847017 
L 367.789478 269.866979 
L 368.930517 279.599633 
L 370.071555 283.448921 
L 371.212593 276.176446 
L 372.353631 234.512539 
L 373.494669 283.625059 
L 374.635708 299.847017 
L 375.776746 285.183867 
L 376.917784 272.801061 
L 378.058822 254.018389 
L 379.19986 268.667432 
L 380.340899 270.712469 
L 381.481937 271.265263 
L 382.622975 299.847017 
L 383.764013 285.829661 
L 384.905051 258.538536 
L 386.04609 275.089897 
L 387.187128 224.842752 
L 388.328166 259.22583 
L 389.469204 269.494158 
L 390.610242 299.847017 
L 391.75128 282.687254 
L 392.892319 277.274638 
L 394.033357 248.691241 
L 395.174395 263.65325 
L 396.315433 283.663957 
L 397.456471 253.301921 
L 398.59751 299.847017 
L 399.738548 273.898705 
L 400.879586 279.585526 
L 402.020624 260.603158 
L 403.161662 264.610641 
L 404.302701 255.743337 
L 405.443739 281.943119 
L 406.584777 299.847017 
L 407.725815 273.828989 
L 408.866853 299.847017 
L 410.007892 276.257393 
L 411.14893 282.272247 
L 412.289968 266.416947 
L 413.431006 229.432476 
L 414.572044 299.847017 
L 415.713083 287.755674 
L 416.854121 272.081853 
L 417.995159 261.536307 
L 419.136197 280.949842 
L 420.277235 271.348538 
L 421.418273 286.532158 
L 422.559312 299.847017 
L 423.70035 283.278398 
L 424.841388 263.041972 
L 425.982426 280.194613 
L 427.123464 264.454226 
L 428.264503 269.303912 
L 429.405541 276.122893 
L 430.546579 299.847017 
L 431.687617 275.168926 
L 432.828655 259.668778 
L 433.969694 252.004307 
L 435.110732 285.797474 
L 436.25177 272.871187 
L 438.533846 299.847017 
L 439.674885 273.359196 
L 440.815923 125.407892 
L 441.956961 253.632831 
L 443.097999 259.031065 
L 444.239037 280.813698 
L 445.380075 278.594989 
L 446.521114 299.847017 
L 447.662152 260.900374 
L 448.80319 263.406712 
L 449.944228 220.563117 
L 451.085266 269.29542 
L 452.226305 248.724113 
L 453.367343 254.203841 
L 454.508381 299.847017 
L 455.649419 276.285471 
L 456.790457 264.541337 
L 457.931496 250.313327 
L 459.072534 261.329625 
L 460.213572 100.264391 
L 461.35461 256.365847 
L 462.495648 299.847017 
L 463.636687 252.493686 
L 464.777725 245.001244 
L 465.918763 253.400537 
L 467.059801 222.923176 
L 468.200839 262.550949 
L 469.341877 242.416152 
L 470.482916 299.847017 
L 471.623954 266.882494 
L 472.764992 270.769036 
L 473.90603 260.355798 
L 475.047068 276.933594 
L 476.188107 284.425761 
L 477.329145 250.246899 
L 478.470183 299.847017 
L 479.611221 265.116182 
L 480.752259 259.812455 
L 481.893298 255.377364 
L 483.034336 279.420345 
L 484.175374 222.130006 
L 485.316412 264.772809 
L 486.45745 299.847017 
L 487.598489 273.341939 
L 488.739527 230.113333 
L 489.880565 245.439946 
L 491.021603 134.255199 
L 492.162641 257.120665 
L 493.303679 263.617502 
L 494.444718 299.847017 
L 495.585756 255.303677 
L 496.726794 241.72872 
L 497.867832 253.158518 
L 499.00887 239.472071 
L 500.149909 260.59001 
L 501.290947 261.857765 
L 502.431985 299.847017 
L 503.573023 260.036531 
L 504.714061 268.434453 
L 505.8551 233.458313 
L 506.996138 257.795496 
L 508.137176 259.713976 
L 509.278214 268.761391 
L 510.419252 299.847017 
L 511.560291 253.352325 
L 512.701329 247.984634 
L 513.842367 271.047761 
L 514.983405 181.79453 
L 516.124443 193.989967 
L 517.265481 255.51118 
L 518.40652 299.847017 
L 519.547558 253.351229 
L 520.688596 213.949175 
L 521.829634 123.505163 
L 522.970672 183.852305 
L 524.111711 171.57551 
L 525.252749 252.403973 
L 526.393787 299.847017 
L 527.534825 281.531125 
L 528.675863 232.899766 
L 529.816902 263.584493 
L 530.95794 253.320686 
L 532.098978 195.647938 
L 533.240016 265.846758 
L 534.381054 299.847017 
L 535.522093 295.798855 
L 536.663131 267.734421 
L 537.804169 276.724584 
L 538.945207 290.208732 
L 540.086245 274.522584 
L 541.227283 299.847017 
L 552.637665 299.847017 
L 553.778704 281.720138 
L 554.919742 258.845887 
L 556.06078 266.044263 
L 557.201818 266.569801 
L 558.342856 299.847017 
L 559.483895 283.836671 
L 560.624933 254.884424 
L 561.765971 264.264392 
L 562.907009 264.975655 
L 564.048047 259.949147 
L 566.330124 299.847017 
L 567.471162 293.304434 
L 568.6122 253.583797 
L 569.753238 272.710663 
L 570.894276 270.450179 
L 572.035315 272.806539 
L 573.176353 264.138794 
L 574.317391 299.847017 
L 575.458429 283.534251 
L 576.599467 278.580197 
L 577.740506 269.425538 
L 578.881544 277.562951 
L 580.022582 277.788397 
L 581.16362 291.650708 
L 582.304658 299.847017 
L 583.445697 292.312116 
L 584.586735 285.862122 
L 585.727773 272.489463 
L 586.868811 285.753097 
L 588.009849 286.788832 
L 589.150887 279.904245 
L 590.291926 299.847017 
L 591.432964 298.397234 
L 592.574002 275.847181 
L 593.71504 289.971507 
L 594.856078 290.451299 
L 595.997117 275.797736 
L 597.138155 254.961673 
L 598.279193 299.847017 
L 599.420231 293.264029 
L 600.561269 262.396863 
L 601.702308 275.340681 
L 602.843346 278.848924 
L 603.984384 281.625221 
L 605.125422 286.770479 
L 606.26646 299.847017 
L 607.407499 287.091253 
L 608.548537 279.764814 
L 609.689575 225.2342 
L 610.830613 277.01002 
L 611.971651 260.177195 
L 613.112689 286.317533 
L 614.253728 299.847017 
L 615.394766 292.536055 
L 616.535804 277.303264 
L 617.676842 280.365409 
L 618.81788 289.78359 
L 619.958919 277.113019 
L 621.099957 275.110989 
L 622.240995 299.847017 
L 623.382033 290.719889 
L 624.523071 251.933222 
L 625.66411 277.549803 
L 626.805148 270.517156 
L 627.946186 280.620303 
L 629.087224 285.644483 
L 630.228262 299.847017 
L 631.369301 293.551657 
L 632.510339 284.882816 
L 633.651377 287.570085 
L 634.792415 274.456978 
L 635.933453 269.867801 
L 637.074492 275.185225 
L 638.21553 299.847017 
L 639.356568 265.756224 
L 640.497606 281.671652 
L 641.638644 258.653313 
L 642.779682 282.207737 
L 643.920721 231.863483 
L 645.061759 279.705782 
L 646.202797 299.847017 
L 649.625912 262.358375 
L 650.76695 272.992813 
L 651.907988 279.037936 
L 653.049026 240.826389 
L 654.190064 299.847017 
L 655.331103 291.417866 
L 656.472141 273.359607 
L 657.613179 284.254143 
L 658.754217 283.949257 
L 659.895255 285.631197 
L 661.036294 275.21522 
L 662.177332 299.847017 
L 664.459408 279.159014 
L 665.600446 286.711173 
L 666.741484 264.574893 
L 667.882523 279.064645 
L 669.023561 287.41819 
L 670.164599 299.847017 
L 671.305637 287.181924 
L 672.446675 260.777927 
L 673.587714 267.041237 
L 674.728752 256.697304 
L 675.86979 259.275412 
L 677.010828 299.847017 
L 680.433943 299.847017 
L 681.574981 262.084855 
L 682.716019 265.684043 
L 683.857057 262.065406 
L 684.998096 299.847017 
L 686.139134 299.847017 
L 687.280172 293.43866 
L 688.42121 299.847017 
L 689.562248 278.656624 
L 690.703286 264.823623 
L 691.844325 269.664132 
L 692.985363 262.115809 
L 694.126401 299.847017 
L 695.267439 286.348624 
L 696.408477 276.40107 
L 697.549516 275.958397 
L 698.690554 269.094081 
L 699.831592 277.06919 
L 700.97263 267.681963 
L 702.113668 299.847017 
L 703.254707 292.021201 
L 704.395745 246.866445 
L 705.536783 258.769734 
L 706.677821 262.079376 
L 707.818859 278.945348 
L 708.959898 284.946642 
L 710.100936 299.847017 
L 711.241974 270.22309 
L 712.383012 276.128645 
L 713.52405 226.411421 
L 714.665088 284.853642 
L 715.806127 278.556776 
L 716.947165 287.32971 
L 718.088203 299.847017 
L 719.229241 291.282818 
L 720.370279 299.847017 
L 721.511318 274.976489 
L 722.652356 278.523219 
L 723.793394 267.724012 
L 726.07547 299.847017 
L 727.216509 280.363081 
L 728.357547 288.051109 
L 729.498585 252.199757 
L 730.639623 273.523692 
L 731.780661 251.943905 
L 732.9217 290.316661 
L 734.062738 299.847017 
L 735.203776 289.967398 
L 736.344814 282.643425 
L 737.485852 192.958888 
L 738.62689 279.709069 
L 739.767929 274.897597 
L 740.908967 295.920344 
L 742.050005 299.847017 
L 743.191043 283.800238 
L 744.332081 281.893811 
L 745.47312 268.762349 
L 746.614158 278.356531 
L 747.755196 281.008327 
L 748.896234 284.154843 
L 750.037272 299.847017 
L 751.178311 291.152427 
L 752.319349 285.527788 
L 753.460387 278.038634 
L 754.601425 267.279694 
L 755.742463 271.939409 
L 756.883502 294.714908 
L 758.02454 299.847017 
L 759.165578 291.165575 
L 760.306616 272.308258 
L 761.447654 263.389591 
L 762.588692 272.633278 
L 763.729731 279.230921 
L 764.870769 282.768338 
L 766.011807 299.847017 
L 767.152845 291.321305 
L 768.293883 279.167506 
L 769.434922 277.576648 
L 770.57596 280.072713 
L 771.716998 278.220661 
L 772.858036 281.541124 
L 773.999074 299.847017 
L 775.140113 280.580583 
L 776.281151 283.546167 
L 777.422189 268.985056 
L 778.563227 264.026071 
L 779.704265 275.217549 
L 780.845304 279.877674 
L 781.986342 299.847017 
L 783.12738 270.892168 
L 784.268418 277.880712 
L 785.409456 278.96151 
L 786.550494 288.752648 
L 787.691533 235.177782 
L 788.832571 288.291211 
L 789.973609 299.847017 
L 791.114647 282.635344 
L 792.255685 286.656934 
L 793.396724 270.596733 
L 794.537762 280.694264 
L 795.6788 266.74813 
L 796.819838 290.668937 
L 797.960876 299.847017 
L 799.101915 290.681538 
L 800.242953 282.979402 
L 801.383991 290.035196 
L 802.525029 288.059464 
L 803.666067 261.386192 
L 804.807106 282.124324 
L 805.948144 299.847017 
L 807.089182 297.264389 
L 808.23022 284.137311 
L 809.371258 280.650709 
L 810.512296 286.927442 
L 811.653335 284.255513 
L 812.794373 288.892764 
L 813.935411 299.847017 
L 815.076449 290.139016 
L 816.217487 285.344665 
L 817.358526 282.102684 
L 818.499564 258.511553 
L 819.640602 286.290551 
L 820.78164 291.511414 
L 821.922678 299.847017 
L 823.063717 290.700987 
L 824.204755 299.847017 
L 825.345793 268.661543 
L 826.486831 292.024488 
L 827.627869 275.028262 
L 828.768908 265.84443 
L 829.909946 299.847017 
L 831.050984 289.74702 
L 832.192022 273.703255 
L 833.33306 289.730995 
L 834.474098 286.215083 
L 835.615137 279.712767 
L 836.756175 280.022721 
L 837.897213 299.847017 
L 839.038251 283.900771 
L 840.179289 281.103655 
L 841.320328 275.973463 
L 842.461366 275.493809 
L 843.602404 284.010755 
L 844.743442 278.741816 
L 845.88448 299.847017 
L 847.025519 291.086957 
L 848.166557 286.683095 
L 849.307595 287.002636 
L 850.448633 268.790017 
L 851.589671 268.116693 
L 852.73071 282.079536 
L 853.871748 299.847017 
L 855.012786 274.039095 
L 856.153824 282.057485 
L 857.294862 279.3068 
L 858.4359 277.3197 
L 859.576939 269.380202 
L 860.717977 279.574432 
L 861.859015 299.847017 
L 863.000053 286.413957 
L 864.141091 112.317247 
L 865.28213 266.639379 
L 866.423168 241.323849 
L 867.564206 265.541187 
L 868.705244 265.195759 
L 869.846282 299.847017 
L 870.987321 285.733374 
L 872.128359 256.915217 
L 873.269397 265.254381 
L 874.410435 277.782645 
L 875.551473 283.33113 
L 876.692512 282.88832 
L 877.83355 299.847017 
L 878.974588 274.966764 
L 880.115626 267.537875 
L 881.256664 245.016174 
L 882.397703 268.833709 
L 883.538741 279.301596 
L 884.679779 240.583686 
L 885.820817 299.847017 
L 886.961855 284.633401 
L 888.102893 257.282148 
L 889.243932 271.004617 
L 890.38497 261.767779 
L 891.526008 266.843184 
L 892.667046 275.179198 
L 893.808084 299.847017 
L 894.949123 273.854054 
L 896.090161 250.630129 
L 897.231199 278.063699 
L 898.372237 261.13486 
L 899.513275 267.085477 
L 900.654314 179.374481 
L 901.795352 299.847017 
L 902.93639 275.645293 
L 904.077428 267.159849 
L 905.218466 261.375509 
L 906.359505 260.992141 
L 907.500543 244.51214 
L 908.641581 257.296529 
L 909.782619 299.847017 
L 910.923657 274.392741 
L 912.064695 242.2307 
L 913.205734 251.961163 
L 914.346772 244.502689 
L 915.48781 263.68982 
L 916.628848 280.907931 
L 917.769886 299.847017 
L 918.910925 275.233437 
L 920.051963 270.313213 
L 921.193001 246.076974 
L 922.334039 229.668058 
L 923.475077 258.981483 
L 924.616116 269.017791 
L 925.757154 299.847017 
L 926.898192 279.099434 
L 928.03923 261.802157 
L 929.180268 256.258602 
L 930.321307 269.720015 
L 931.462345 263.495192 
L 932.603383 269.32569 
L 933.744421 299.847017 
L 934.885459 282.849558 
L 936.026497 221.574336 
L 937.167536 252.133877 
L 938.308574 260.20541 
L 939.449612 161.930377 
L 940.59065 268.029308 
L 940.59065 268.029308 
" clip-path="url(#pf806858037)" style="fill: none; stroke: #000000; stroke-width: 1.4; stroke-linecap: round"/>
   </g>
   <g id="patch_3">
    <path d="M 56.400156 313.011563 
L 56.400156 23.391563 
" style="fill: none; stroke: #cccccc; stroke-linejoin: miter; stroke-linecap: square"/>
   </g>
   <g id="patch_4">
    <path d="M 982.694959 313.011563 
L 982.694959 23.391563 
" style="fill: none; stroke: #cccccc; stroke-linejoin: miter; stroke-linecap: square"/>
   </g>
   <g id="patch_5">
    <path d="M 56.400156 313.011562 
L 982.694959 313.011562 
" style="fill: none; stroke: #cccccc; stroke-linejoin: miter; stroke-linecap: square"/>
   </g>
   <g id="patch_6">
    <path d="M 56.400156 23.391562 
L 982.694959 23.391562 
" style="fill: none; stroke: #cccccc; stroke-linejoin: miter; stroke-linecap: square"/>
   </g>
   <g id="text_21">
    <!-- Cluster 3: Raw Daily Sales Time Series -->
    <g style="fill: #262626" transform="translate(390.89412 17.391563) scale(0.14 -0.14)">
     <defs>
      <path id="Arial-BoldMT-43" d="M 3397 1684 
L 4294 1400 
Q 4088 650 3608 286 
Q 3128 -78 2391 -78 
Q 1478 -78 890 545 
Q 303 1169 303 2250 
Q 303 3394 893 4026 
Q 1484 4659 2447 4659 
Q 3288 4659 3813 4163 
Q 4125 3869 4281 3319 
L 3366 3100 
Q 3284 3456 3026 3662 
Q 2769 3869 2400 3869 
Q 1891 3869 1573 3503 
Q 1256 3138 1256 2319 
Q 1256 1450 1568 1081 
Q 1881 713 2381 713 
Q 2750 713 3015 947 
Q 3281 1181 3397 1684 
z
" transform="scale(0.015625)"/>
      <path id="Arial-BoldMT-6c" d="M 459 0 
L 459 4581 
L 1338 4581 
L 1338 0 
L 459 0 
z
" transform="scale(0.015625)"/>
      <path id="Arial-BoldMT-75" d="M 2644 0 
L 2644 497 
Q 2463 231 2167 78 
Q 1872 -75 1544 -75 
Q 1209 -75 943 72 
Q 678 219 559 484 
Q 441 750 441 1219 
L 441 3319 
L 1319 3319 
L 1319 1794 
Q 1319 1094 1367 936 
Q 1416 778 1544 686 
Q 1672 594 1869 594 
Q 2094 594 2272 717 
Q 2450 841 2515 1023 
Q 2581 1206 2581 1919 
L 2581 3319 
L 3459 3319 
L 3459 0 
L 2644 0 
z
" transform="scale(0.015625)"/>
      <path id="Arial-BoldMT-73" d="M 150 947 
L 1031 1081 
Q 1088 825 1259 692 
Q 1431 559 1741 559 
Q 2081 559 2253 684 
Q 2369 772 2369 919 
Q 2369 1019 2306 1084 
Q 2241 1147 2013 1200 
Q 950 1434 666 1628 
Q 272 1897 272 2375 
Q 272 2806 612 3100 
Q 953 3394 1669 3394 
Q 2350 3394 2681 3172 
Q 3013 2950 3138 2516 
L 2309 2363 
Q 2256 2556 2107 2659 
Q 1959 2763 1684 2763 
Q 1338 2763 1188 2666 
Q 1088 2597 1088 2488 
Q 1088 2394 1175 2328 
Q 1294 2241 1995 2081 
Q 2697 1922 2975 1691 
Q 3250 1456 3250 1038 
Q 3250 581 2869 253 
Q 2488 -75 1741 -75 
Q 1063 -75 667 200 
Q 272 475 150 947 
z
" transform="scale(0.015625)"/>
      <path id="Arial-BoldMT-74" d="M 1981 3319 
L 1981 2619 
L 1381 2619 
L 1381 1281 
Q 1381 875 1398 808 
Q 1416 741 1477 697 
Q 1538 653 1625 653 
Q 1747 653 1978 738 
L 2053 56 
Q 1747 -75 1359 -75 
Q 1122 -75 931 4 
Q 741 84 652 211 
Q 563 338 528 553 
Q 500 706 500 1172 
L 500 2619 
L 97 2619 
L 97 3319 
L 500 3319 
L 500 3978 
L 1381 4491 
L 1381 3319 
L 1981 3319 
z
" transform="scale(0.015625)"/>
      <path id="Arial-BoldMT-65" d="M 2381 1056 
L 3256 909 
Q 3088 428 2723 176 
Q 2359 -75 1813 -75 
Q 947 -75 531 491 
Q 203 944 203 1634 
Q 203 2459 634 2926 
Q 1066 3394 1725 3394 
Q 2466 3394 2894 2905 
Q 3322 2416 3303 1406 
L 1103 1406 
Q 1113 1016 1316 798 
Q 1519 581 1822 581 
Q 2028 581 2168 693 
Q 2309 806 2381 1056 
z
M 2431 1944 
Q 2422 2325 2234 2523 
Q 2047 2722 1778 2722 
Q 1491 2722 1303 2513 
Q 1116 2303 1119 1944 
L 2431 1944 
z
" transform="scale(0.015625)"/>
      <path id="Arial-BoldMT-72" d="M 1300 0 
L 422 0 
L 422 3319 
L 1238 3319 
L 1238 2847 
Q 1447 3181 1614 3287 
Q 1781 3394 1994 3394 
Q 2294 3394 2572 3228 
L 2300 2463 
Q 2078 2606 1888 2606 
Q 1703 2606 1575 2504 
Q 1447 2403 1373 2137 
Q 1300 1872 1300 1025 
L 1300 0 
z
" transform="scale(0.015625)"/>
      <path id="Arial-BoldMT-20" transform="scale(0.015625)"/>
      <path id="Arial-BoldMT-33" d="M 241 1216 
L 1091 1319 
Q 1131 994 1309 822 
Q 1488 650 1741 650 
Q 2013 650 2198 856 
Q 2384 1063 2384 1413 
Q 2384 1744 2206 1937 
Q 2028 2131 1772 2131 
Q 1603 2131 1369 2066 
L 1466 2781 
Q 1822 2772 2009 2936 
Q 2197 3100 2197 3372 
Q 2197 3603 2059 3740 
Q 1922 3878 1694 3878 
Q 1469 3878 1309 3722 
Q 1150 3566 1116 3266 
L 306 3403 
Q 391 3819 561 4067 
Q 731 4316 1036 4458 
Q 1341 4600 1719 4600 
Q 2366 4600 2756 4188 
Q 3078 3850 3078 3425 
Q 3078 2822 2419 2463 
Q 2813 2378 3048 2084 
Q 3284 1791 3284 1375 
Q 3284 772 2843 347 
Q 2403 -78 1747 -78 
Q 1125 -78 715 280 
Q 306 638 241 1216 
z
" transform="scale(0.015625)"/>
      <path id="Arial-BoldMT-3a" d="M 628 2441 
L 628 3319 
L 1506 3319 
L 1506 2441 
L 628 2441 
z
M 628 0 
L 628 878 
L 1506 878 
L 1506 0 
L 628 0 
z
" transform="scale(0.015625)"/>
      <path id="Arial-BoldMT-52" d="M 469 0 
L 469 4581 
L 2416 4581 
Q 3150 4581 3483 4457 
Q 3816 4334 4016 4018 
Q 4216 3703 4216 3297 
Q 4216 2781 3912 2445 
Q 3609 2109 3006 2022 
Q 3306 1847 3501 1637 
Q 3697 1428 4028 894 
L 4588 0 
L 3481 0 
L 2813 997 
Q 2456 1531 2325 1670 
Q 2194 1809 2047 1861 
Q 1900 1913 1581 1913 
L 1394 1913 
L 1394 0 
L 469 0 
z
M 1394 2644 
L 2078 2644 
Q 2744 2644 2909 2700 
Q 3075 2756 3169 2893 
Q 3263 3031 3263 3238 
Q 3263 3469 3139 3611 
Q 3016 3753 2791 3791 
Q 2678 3806 2116 3806 
L 1394 3806 
L 1394 2644 
z
" transform="scale(0.015625)"/>
      <path id="Arial-BoldMT-61" d="M 1116 2306 
L 319 2450 
Q 453 2931 781 3162 
Q 1109 3394 1756 3394 
Q 2344 3394 2631 3255 
Q 2919 3116 3036 2902 
Q 3153 2688 3153 2116 
L 3144 1091 
Q 3144 653 3186 445 
Q 3228 238 3344 0 
L 2475 0 
Q 2441 88 2391 259 
Q 2369 338 2359 363 
Q 2134 144 1878 34 
Q 1622 -75 1331 -75 
Q 819 -75 523 203 
Q 228 481 228 906 
Q 228 1188 362 1408 
Q 497 1628 739 1745 
Q 981 1863 1438 1950 
Q 2053 2066 2291 2166 
L 2291 2253 
Q 2291 2506 2166 2614 
Q 2041 2722 1694 2722 
Q 1459 2722 1328 2630 
Q 1197 2538 1116 2306 
z
M 2291 1594 
Q 2122 1538 1756 1459 
Q 1391 1381 1278 1306 
Q 1106 1184 1106 997 
Q 1106 813 1243 678 
Q 1381 544 1594 544 
Q 1831 544 2047 700 
Q 2206 819 2256 991 
Q 2291 1103 2291 1419 
L 2291 1594 
z
" transform="scale(0.015625)"/>
      <path id="Arial-BoldMT-77" d="M 1078 0 
L 28 3319 
L 881 3319 
L 1503 1144 
L 2075 3319 
L 2922 3319 
L 3475 1144 
L 4109 3319 
L 4975 3319 
L 3909 0 
L 3066 0 
L 2494 2134 
L 1931 0 
L 1078 0 
z
" transform="scale(0.015625)"/>
      <path id="Arial-BoldMT-44" d="M 463 4581 
L 2153 4581 
Q 2725 4581 3025 4494 
Q 3428 4375 3715 4072 
Q 4003 3769 4153 3330 
Q 4303 2891 4303 2247 
Q 4303 1681 4163 1272 
Q 3991 772 3672 463 
Q 3431 228 3022 97 
Q 2716 0 2203 0 
L 463 0 
L 463 4581 
z
M 1388 3806 
L 1388 772 
L 2078 772 
Q 2466 772 2638 816 
Q 2863 872 3011 1006 
Q 3159 1141 3253 1448 
Q 3347 1756 3347 2288 
Q 3347 2819 3253 3103 
Q 3159 3388 2990 3547 
Q 2822 3706 2563 3763 
Q 2369 3806 1803 3806 
L 1388 3806 
z
" transform="scale(0.015625)"/>
      <path id="Arial-BoldMT-69" d="M 459 3769 
L 459 4581 
L 1338 4581 
L 1338 3769 
L 459 3769 
z
M 459 0 
L 459 3319 
L 1338 3319 
L 1338 0 
L 459 0 
z
" transform="scale(0.015625)"/>
      <path id="Arial-BoldMT-79" d="M 44 3319 
L 978 3319 
L 1772 963 
L 2547 3319 
L 3456 3319 
L 2284 125 
L 2075 -453 
Q 1959 -744 1854 -897 
Q 1750 -1050 1614 -1145 
Q 1478 -1241 1279 -1294 
Q 1081 -1347 831 -1347 
Q 578 -1347 334 -1294 
L 256 -606 
Q 463 -647 628 -647 
Q 934 -647 1081 -467 
Q 1228 -288 1306 -9 
L 44 3319 
z
" transform="scale(0.015625)"/>
      <path id="Arial-BoldMT-53" d="M 231 1491 
L 1131 1578 
Q 1213 1125 1461 912 
Q 1709 700 2131 700 
Q 2578 700 2804 889 
Q 3031 1078 3031 1331 
Q 3031 1494 2936 1608 
Q 2841 1722 2603 1806 
Q 2441 1863 1863 2006 
Q 1119 2191 819 2459 
Q 397 2838 397 3381 
Q 397 3731 595 4036 
Q 794 4341 1167 4500 
Q 1541 4659 2069 4659 
Q 2931 4659 3367 4281 
Q 3803 3903 3825 3272 
L 2900 3231 
Q 2841 3584 2645 3739 
Q 2450 3894 2059 3894 
Q 1656 3894 1428 3728 
Q 1281 3622 1281 3444 
Q 1281 3281 1419 3166 
Q 1594 3019 2269 2859 
Q 2944 2700 3267 2529 
Q 3591 2359 3773 2064 
Q 3956 1769 3956 1334 
Q 3956 941 3737 597 
Q 3519 253 3119 86 
Q 2719 -81 2122 -81 
Q 1253 -81 787 320 
Q 322 722 231 1491 
z
" transform="scale(0.015625)"/>
      <path id="Arial-BoldMT-54" d="M 1497 0 
L 1497 3806 
L 138 3806 
L 138 4581 
L 3778 4581 
L 3778 3806 
L 2422 3806 
L 2422 0 
L 1497 0 
z
" transform="scale(0.015625)"/>
      <path id="Arial-BoldMT-6d" d="M 394 3319 
L 1203 3319 
L 1203 2866 
Q 1638 3394 2238 3394 
Q 2556 3394 2790 3262 
Q 3025 3131 3175 2866 
Q 3394 3131 3647 3262 
Q 3900 3394 4188 3394 
Q 4553 3394 4806 3245 
Q 5059 3097 5184 2809 
Q 5275 2597 5275 2122 
L 5275 0 
L 4397 0 
L 4397 1897 
Q 4397 2391 4306 2534 
Q 4184 2722 3931 2722 
Q 3747 2722 3584 2609 
Q 3422 2497 3350 2280 
Q 3278 2063 3278 1594 
L 3278 0 
L 2400 0 
L 2400 1819 
Q 2400 2303 2353 2443 
Q 2306 2584 2207 2653 
Q 2109 2722 1941 2722 
Q 1738 2722 1575 2612 
Q 1413 2503 1342 2297 
Q 1272 2091 1272 1613 
L 1272 0 
L 394 0 
L 394 3319 
z
" transform="scale(0.015625)"/>
     </defs>
     <use xlink:href="#Arial-BoldMT-43"/>
     <use xlink:href="#Arial-BoldMT-6c" transform="translate(72.216797 0)"/>
     <use xlink:href="#Arial-BoldMT-75" transform="translate(100 0)"/>
     <use xlink:href="#Arial-BoldMT-73" transform="translate(161.083984 0)"/>
     <use xlink:href="#Arial-BoldMT-74" transform="translate(216.699219 0)"/>
     <use xlink:href="#Arial-BoldMT-65" transform="translate(250 0)"/>
     <use xlink:href="#Arial-BoldMT-72" transform="translate(305.615234 0)"/>
     <use xlink:href="#Arial-BoldMT-20" transform="translate(344.53125 0)"/>
     <use xlink:href="#Arial-BoldMT-33" transform="translate(372.314453 0)"/>
     <use xlink:href="#Arial-BoldMT-3a" transform="translate(427.929688 0)"/>
     <use xlink:href="#Arial-BoldMT-20" transform="translate(461.230469 0)"/>
     <use xlink:href="#Arial-BoldMT-52" transform="translate(489.013672 0)"/>
     <use xlink:href="#Arial-BoldMT-61" transform="translate(561.230469 0)"/>
     <use xlink:href="#Arial-BoldMT-77" transform="translate(616.845703 0)"/>
     <use xlink:href="#Arial-BoldMT-20" transform="translate(694.628906 0)"/>
     <use xlink:href="#Arial-BoldMT-44" transform="translate(722.412109 0)"/>
     <use xlink:href="#Arial-BoldMT-61" transform="translate(794.628906 0)"/>
     <use xlink:href="#Arial-BoldMT-69" transform="translate(850.244141 0)"/>
     <use xlink:href="#Arial-BoldMT-6c" transform="translate(878.027344 0)"/>
     <use xlink:href="#Arial-BoldMT-79" transform="translate(905.810547 0)"/>
     <use xlink:href="#Arial-BoldMT-20" transform="translate(961.425781 0)"/>
     <use xlink:href="#Arial-BoldMT-53" transform="translate(989.208984 0)"/>
     <use xlink:href="#Arial-BoldMT-61" transform="translate(1055.908203 0)"/>
     <use xlink:href="#Arial-BoldMT-6c" transform="translate(1111.523438 0)"/>
     <use xlink:href="#Arial-BoldMT-65" transform="translate(1139.306641 0)"/>
     <use xlink:href="#Arial-BoldMT-73" transform="translate(1194.921875 0)"/>
     <use xlink:href="#Arial-BoldMT-20" transform="translate(1250.537109 0)"/>
     <use xlink:href="#Arial-BoldMT-54" transform="translate(1278.320312 0)"/>
     <use xlink:href="#Arial-BoldMT-69" transform="translate(1337.654297 0)"/>
     <use xlink:href="#Arial-BoldMT-6d" transform="translate(1365.4375 0)"/>
     <use xlink:href="#Arial-BoldMT-65" transform="translate(1454.353516 0)"/>
     <use xlink:href="#Arial-BoldMT-20" transform="translate(1509.96875 0)"/>
     <use xlink:href="#Arial-BoldMT-53" transform="translate(1537.751953 0)"/>
     <use xlink:href="#Arial-BoldMT-65" transform="translate(1604.451172 0)"/>
     <use xlink:href="#Arial-BoldMT-72" transform="translate(1660.066406 0)"/>
     <use xlink:href="#Arial-BoldMT-69" transform="translate(1698.982422 0)"/>
     <use xlink:href="#Arial-BoldMT-65" transform="translate(1726.765625 0)"/>
     <use xlink:href="#Arial-BoldMT-73" transform="translate(1782.380859 0)"/>
    </g>
   </g>
  </g>
 </g>
 <defs>
  <clipPath id="pf806858037">
   <rect x="56.400156" y="23.391563" width="926.294803" height="289.62"/>
  </clipPath>
 </defs>
</svg>
