<?xml version="1.0" encoding="utf-8" standalone="no"?>
<!DOCTYPE svg PUBLIC "-//W3C//DTD SVG 1.1//EN"
  "http://www.w3.org/Graphics/SVG/1.1/DTD/svg11.dtd">
<svg xmlns:xlink="http://www.w3.org/1999/xlink" width="996.549531pt" height="276.583594pt" viewBox="0 0 996.549531 276.583594" xmlns="http://www.w3.org/2000/svg" version="1.1">
 <metadata>
  <rdf:RDF xmlns:dc="http://purl.org/dc/elements/1.1/" xmlns:cc="http://creativecommons.org/ns#" xmlns:rdf="http://www.w3.org/1999/02/22-rdf-syntax-ns#">
   <cc:Work>
    <dc:type rdf:resource="http://purl.org/dc/dcmitype/StillImage"/>
    <dc:date>2026-03-25T00:50:48.498086</dc:date>
    <dc:format>image/svg+xml</dc:format>
    <dc:creator>
     <cc:Agent>
      <dc:title>Matplotlib v3.9.4, https://matplotlib.org/</dc:title>
     </cc:Agent>
    </dc:creator>
   </cc:Work>
  </rdf:RDF>
 </metadata>
 <defs>
  <style type="text/css">*{stroke-linejoin: round; stroke-linecap: butt}</style>
 </defs>
 <g id="figure_1">
  <g id="patch_1">
   <path d="M 0 276.583594 
L 996.549531 276.583594 
L 996.549531 0 
L 0 0 
z
" style="fill: #ffffff"/>
  </g>
  <g id="axes_1">
   <g id="patch_2">
    <path d="M 62.259531 234.849375 
L 989.349531 234.849375 
L 989.349531 21.789375 
L 62.259531 21.789375 
z
" style="fill: #ffffff"/>
   </g>
   <g id="matplotlib.axis_1">
    <g id="xtick_1">
     <g id="line2d_1">
      <path d="M 72.336596 234.849375 
L 72.336596 21.789375 
" clip-path="url(#pc738aaae1f)" style="fill: none; stroke: #cccccc; stroke-linecap: round"/>
     </g>
     <g id="text_1">
      <!-- 2011-06 -->
      <g style="fill: #262626" transform="translate(52.5598 252.222969) scale(0.11 -0.11)">
       <defs>
        <path id="ArialMT-32" d="M 3222 541 
L 3222 0 
L 194 0 
Q 188 203 259 391 
Q 375 700 629 1000 
Q 884 1300 1366 1694 
Q 2113 2306 2375 2664 
Q 2638 3022 2638 3341 
Q 2638 3675 2398 3904 
Q 2159 4134 1775 4134 
Q 1369 4134 1125 3890 
Q 881 3647 878 3216 
L 300 3275 
Q 359 3922 746 4261 
Q 1134 4600 1788 4600 
Q 2447 4600 2831 4234 
Q 3216 3869 3216 3328 
Q 3216 3053 3103 2787 
Q 2991 2522 2730 2228 
Q 2469 1934 1863 1422 
Q 1356 997 1212 845 
Q 1069 694 975 541 
L 3222 541 
z
" transform="scale(0.015625)"/>
        <path id="ArialMT-30" d="M 266 2259 
Q 266 3072 433 3567 
Q 600 4063 929 4331 
Q 1259 4600 1759 4600 
Q 2128 4600 2406 4451 
Q 2684 4303 2865 4023 
Q 3047 3744 3150 3342 
Q 3253 2941 3253 2259 
Q 3253 1453 3087 958 
Q 2922 463 2592 192 
Q 2263 -78 1759 -78 
Q 1097 -78 719 397 
Q 266 969 266 2259 
z
M 844 2259 
Q 844 1131 1108 757 
Q 1372 384 1759 384 
Q 2147 384 2411 759 
Q 2675 1134 2675 2259 
Q 2675 3391 2411 3762 
Q 2147 4134 1753 4134 
Q 1366 4134 1134 3806 
Q 844 3388 844 2259 
z
" transform="scale(0.015625)"/>
        <path id="ArialMT-31" d="M 2384 0 
L 1822 0 
L 1822 3584 
Q 1619 3391 1289 3197 
Q 959 3003 697 2906 
L 697 3450 
Q 1169 3672 1522 3987 
Q 1875 4303 2022 4600 
L 2384 4600 
L 2384 0 
z
" transform="scale(0.015625)"/>
        <path id="ArialMT-2d" d="M 203 1375 
L 203 1941 
L 1931 1941 
L 1931 1375 
L 203 1375 
z
" transform="scale(0.015625)"/>
        <path id="ArialMT-36" d="M 3184 3459 
L 2625 3416 
Q 2550 3747 2413 3897 
Q 2184 4138 1850 4138 
Q 1581 4138 1378 3988 
Q 1113 3794 959 3422 
Q 806 3050 800 2363 
Q 1003 2672 1297 2822 
Q 1591 2972 1913 2972 
Q 2475 2972 2870 2558 
Q 3266 2144 3266 1488 
Q 3266 1056 3080 686 
Q 2894 316 2569 119 
Q 2244 -78 1831 -78 
Q 1128 -78 684 439 
Q 241 956 241 2144 
Q 241 3472 731 4075 
Q 1159 4600 1884 4600 
Q 2425 4600 2770 4297 
Q 3116 3994 3184 3459 
z
M 888 1484 
Q 888 1194 1011 928 
Q 1134 663 1356 523 
Q 1578 384 1822 384 
Q 2178 384 2434 671 
Q 2691 959 2691 1453 
Q 2691 1928 2437 2201 
Q 2184 2475 1800 2475 
Q 1419 2475 1153 2201 
Q 888 1928 888 1484 
z
" transform="scale(0.015625)"/>
       </defs>
       <use xlink:href="#ArialMT-32"/>
       <use xlink:href="#ArialMT-30" x="55.615234"/>
       <use xlink:href="#ArialMT-31" x="111.230469"/>
       <use xlink:href="#ArialMT-31" x="159.470703"/>
       <use xlink:href="#ArialMT-2d" x="215.085938"/>
       <use xlink:href="#ArialMT-30" x="248.386719"/>
       <use xlink:href="#ArialMT-36" x="304.001953"/>
      </g>
     </g>
    </g>
    <g id="xtick_2">
     <g id="line2d_2">
      <path d="M 209.751122 234.849375 
L 209.751122 21.789375 
" clip-path="url(#pc738aaae1f)" style="fill: none; stroke: #cccccc; stroke-linecap: round"/>
     </g>
     <g id="text_2">
      <!-- 2011-07 -->
      <g style="fill: #262626" transform="translate(189.974325 252.222969) scale(0.11 -0.11)">
       <defs>
        <path id="ArialMT-37" d="M 303 3981 
L 303 4522 
L 3269 4522 
L 3269 4084 
Q 2831 3619 2401 2847 
Q 1972 2075 1738 1259 
Q 1569 684 1522 0 
L 944 0 
Q 953 541 1156 1306 
Q 1359 2072 1739 2783 
Q 2119 3494 2547 3981 
L 303 3981 
z
" transform="scale(0.015625)"/>
       </defs>
       <use xlink:href="#ArialMT-32"/>
       <use xlink:href="#ArialMT-30" x="55.615234"/>
       <use xlink:href="#ArialMT-31" x="111.230469"/>
       <use xlink:href="#ArialMT-31" x="159.470703"/>
       <use xlink:href="#ArialMT-2d" x="215.085938"/>
       <use xlink:href="#ArialMT-30" x="248.386719"/>
       <use xlink:href="#ArialMT-37" x="304.001953"/>
      </g>
     </g>
    </g>
    <g id="xtick_3">
     <g id="line2d_3">
      <path d="M 351.746132 234.849375 
L 351.746132 21.789375 
" clip-path="url(#pc738aaae1f)" style="fill: none; stroke: #cccccc; stroke-linecap: round"/>
     </g>
     <g id="text_3">
      <!-- 2011-08 -->
      <g style="fill: #262626" transform="translate(331.969335 252.222969) scale(0.11 -0.11)">
       <defs>
        <path id="ArialMT-38" d="M 1131 2484 
Q 781 2613 612 2850 
Q 444 3088 444 3419 
Q 444 3919 803 4259 
Q 1163 4600 1759 4600 
Q 2359 4600 2725 4251 
Q 3091 3903 3091 3403 
Q 3091 3084 2923 2848 
Q 2756 2613 2416 2484 
Q 2838 2347 3058 2040 
Q 3278 1734 3278 1309 
Q 3278 722 2862 322 
Q 2447 -78 1769 -78 
Q 1091 -78 675 323 
Q 259 725 259 1325 
Q 259 1772 486 2073 
Q 713 2375 1131 2484 
z
M 1019 3438 
Q 1019 3113 1228 2906 
Q 1438 2700 1772 2700 
Q 2097 2700 2305 2904 
Q 2513 3109 2513 3406 
Q 2513 3716 2298 3927 
Q 2084 4138 1766 4138 
Q 1444 4138 1231 3931 
Q 1019 3725 1019 3438 
z
M 838 1322 
Q 838 1081 952 856 
Q 1066 631 1291 507 
Q 1516 384 1775 384 
Q 2178 384 2440 643 
Q 2703 903 2703 1303 
Q 2703 1709 2433 1975 
Q 2163 2241 1756 2241 
Q 1359 2241 1098 1978 
Q 838 1716 838 1322 
z
" transform="scale(0.015625)"/>
       </defs>
       <use xlink:href="#ArialMT-32"/>
       <use xlink:href="#ArialMT-30" x="55.615234"/>
       <use xlink:href="#ArialMT-31" x="111.230469"/>
       <use xlink:href="#ArialMT-31" x="159.470703"/>
       <use xlink:href="#ArialMT-2d" x="215.085938"/>
       <use xlink:href="#ArialMT-30" x="248.386719"/>
       <use xlink:href="#ArialMT-38" x="304.001953"/>
      </g>
     </g>
    </g>
    <g id="xtick_4">
     <g id="line2d_4">
      <path d="M 493.741142 234.849375 
L 493.741142 21.789375 
" clip-path="url(#pc738aaae1f)" style="fill: none; stroke: #cccccc; stroke-linecap: round"/>
     </g>
     <g id="text_4">
      <!-- 2011-09 -->
      <g style="fill: #262626" transform="translate(473.964345 252.222969) scale(0.11 -0.11)">
       <defs>
        <path id="ArialMT-39" d="M 350 1059 
L 891 1109 
Q 959 728 1153 556 
Q 1347 384 1650 384 
Q 1909 384 2104 503 
Q 2300 622 2425 820 
Q 2550 1019 2634 1356 
Q 2719 1694 2719 2044 
Q 2719 2081 2716 2156 
Q 2547 1888 2255 1720 
Q 1963 1553 1622 1553 
Q 1053 1553 659 1965 
Q 266 2378 266 3053 
Q 266 3750 677 4175 
Q 1088 4600 1706 4600 
Q 2153 4600 2523 4359 
Q 2894 4119 3086 3673 
Q 3278 3228 3278 2384 
Q 3278 1506 3087 986 
Q 2897 466 2520 194 
Q 2144 -78 1638 -78 
Q 1100 -78 759 220 
Q 419 519 350 1059 
z
M 2653 3081 
Q 2653 3566 2395 3850 
Q 2138 4134 1775 4134 
Q 1400 4134 1122 3828 
Q 844 3522 844 3034 
Q 844 2597 1108 2323 
Q 1372 2050 1759 2050 
Q 2150 2050 2401 2323 
Q 2653 2597 2653 3081 
z
" transform="scale(0.015625)"/>
       </defs>
       <use xlink:href="#ArialMT-32"/>
       <use xlink:href="#ArialMT-30" x="55.615234"/>
       <use xlink:href="#ArialMT-31" x="111.230469"/>
       <use xlink:href="#ArialMT-31" x="159.470703"/>
       <use xlink:href="#ArialMT-2d" x="215.085938"/>
       <use xlink:href="#ArialMT-30" x="248.386719"/>
       <use xlink:href="#ArialMT-39" x="304.001953"/>
      </g>
     </g>
    </g>
    <g id="xtick_5">
     <g id="line2d_5">
      <path d="M 631.155668 234.849375 
L 631.155668 21.789375 
" clip-path="url(#pc738aaae1f)" style="fill: none; stroke: #cccccc; stroke-linecap: round"/>
     </g>
     <g id="text_5">
      <!-- 2011-10 -->
      <g style="fill: #262626" transform="translate(611.378871 252.222969) scale(0.11 -0.11)">
       <use xlink:href="#ArialMT-32"/>
       <use xlink:href="#ArialMT-30" x="55.615234"/>
       <use xlink:href="#ArialMT-31" x="111.230469"/>
       <use xlink:href="#ArialMT-31" x="159.470703"/>
       <use xlink:href="#ArialMT-2d" x="215.085938"/>
       <use xlink:href="#ArialMT-31" x="248.386719"/>
       <use xlink:href="#ArialMT-30" x="304.001953"/>
      </g>
     </g>
    </g>
    <g id="xtick_6">
     <g id="line2d_6">
      <path d="M 773.150677 234.849375 
L 773.150677 21.789375 
" clip-path="url(#pc738aaae1f)" style="fill: none; stroke: #cccccc; stroke-linecap: round"/>
     </g>
     <g id="text_6">
      <!-- 2011-11 -->
      <g style="fill: #262626" transform="translate(753.779506 252.222969) scale(0.11 -0.11)">
       <use xlink:href="#ArialMT-32"/>
       <use xlink:href="#ArialMT-30" x="55.615234"/>
       <use xlink:href="#ArialMT-31" x="111.230469"/>
       <use xlink:href="#ArialMT-31" x="159.470703"/>
       <use xlink:href="#ArialMT-2d" x="215.085938"/>
       <use xlink:href="#ArialMT-31" x="248.386719"/>
       <use xlink:href="#ArialMT-31" x="296.626953"/>
      </g>
     </g>
    </g>
    <g id="xtick_7">
     <g id="line2d_7">
      <path d="M 910.565203 234.849375 
L 910.565203 21.789375 
" clip-path="url(#pc738aaae1f)" style="fill: none; stroke: #cccccc; stroke-linecap: round"/>
     </g>
     <g id="text_7">
      <!-- 2011-12 -->
      <g style="fill: #262626" transform="translate(890.788406 252.222969) scale(0.11 -0.11)">
       <use xlink:href="#ArialMT-32"/>
       <use xlink:href="#ArialMT-30" x="55.615234"/>
       <use xlink:href="#ArialMT-31" x="111.230469"/>
       <use xlink:href="#ArialMT-31" x="159.470703"/>
       <use xlink:href="#ArialMT-2d" x="215.085938"/>
       <use xlink:href="#ArialMT-31" x="248.386719"/>
       <use xlink:href="#ArialMT-32" x="304.001953"/>
      </g>
     </g>
    </g>
    <g id="text_8">
     <!-- Date -->
     <g style="fill: #262626" transform="translate(513.131406 266.998594) scale(0.12 -0.12)">
      <defs>
       <path id="ArialMT-44" d="M 494 0 
L 494 4581 
L 2072 4581 
Q 2606 4581 2888 4516 
Q 3281 4425 3559 4188 
Q 3922 3881 4101 3404 
Q 4281 2928 4281 2316 
Q 4281 1794 4159 1391 
Q 4038 988 3847 723 
Q 3656 459 3429 307 
Q 3203 156 2883 78 
Q 2563 0 2147 0 
L 494 0 
z
M 1100 541 
L 2078 541 
Q 2531 541 2789 625 
Q 3047 709 3200 863 
Q 3416 1078 3536 1442 
Q 3656 1806 3656 2325 
Q 3656 3044 3420 3430 
Q 3184 3816 2847 3947 
Q 2603 4041 2063 4041 
L 1100 4041 
L 1100 541 
z
" transform="scale(0.015625)"/>
       <path id="ArialMT-61" d="M 2588 409 
Q 2275 144 1986 34 
Q 1697 -75 1366 -75 
Q 819 -75 525 192 
Q 231 459 231 875 
Q 231 1119 342 1320 
Q 453 1522 633 1644 
Q 813 1766 1038 1828 
Q 1203 1872 1538 1913 
Q 2219 1994 2541 2106 
Q 2544 2222 2544 2253 
Q 2544 2597 2384 2738 
Q 2169 2928 1744 2928 
Q 1347 2928 1158 2789 
Q 969 2650 878 2297 
L 328 2372 
Q 403 2725 575 2942 
Q 747 3159 1072 3276 
Q 1397 3394 1825 3394 
Q 2250 3394 2515 3294 
Q 2781 3194 2906 3042 
Q 3031 2891 3081 2659 
Q 3109 2516 3109 2141 
L 3109 1391 
Q 3109 606 3145 398 
Q 3181 191 3288 0 
L 2700 0 
Q 2613 175 2588 409 
z
M 2541 1666 
Q 2234 1541 1622 1453 
Q 1275 1403 1131 1340 
Q 988 1278 909 1158 
Q 831 1038 831 891 
Q 831 666 1001 516 
Q 1172 366 1500 366 
Q 1825 366 2078 508 
Q 2331 650 2450 897 
Q 2541 1088 2541 1459 
L 2541 1666 
z
" transform="scale(0.015625)"/>
       <path id="ArialMT-74" d="M 1650 503 
L 1731 6 
Q 1494 -44 1306 -44 
Q 1000 -44 831 53 
Q 663 150 594 308 
Q 525 466 525 972 
L 525 2881 
L 113 2881 
L 113 3319 
L 525 3319 
L 525 4141 
L 1084 4478 
L 1084 3319 
L 1650 3319 
L 1650 2881 
L 1084 2881 
L 1084 941 
Q 1084 700 1114 631 
Q 1144 563 1211 522 
Q 1278 481 1403 481 
Q 1497 481 1650 503 
z
" transform="scale(0.015625)"/>
       <path id="ArialMT-65" d="M 2694 1069 
L 3275 997 
Q 3138 488 2766 206 
Q 2394 -75 1816 -75 
Q 1088 -75 661 373 
Q 234 822 234 1631 
Q 234 2469 665 2931 
Q 1097 3394 1784 3394 
Q 2450 3394 2872 2941 
Q 3294 2488 3294 1666 
Q 3294 1616 3291 1516 
L 816 1516 
Q 847 969 1125 678 
Q 1403 388 1819 388 
Q 2128 388 2347 550 
Q 2566 713 2694 1069 
z
M 847 1978 
L 2700 1978 
Q 2663 2397 2488 2606 
Q 2219 2931 1791 2931 
Q 1403 2931 1139 2672 
Q 875 2413 847 1978 
z
" transform="scale(0.015625)"/>
      </defs>
      <use xlink:href="#ArialMT-44"/>
      <use xlink:href="#ArialMT-61" x="72.216797"/>
      <use xlink:href="#ArialMT-74" x="127.832031"/>
      <use xlink:href="#ArialMT-65" x="155.615234"/>
     </g>
    </g>
   </g>
   <g id="matplotlib.axis_2">
    <g id="ytick_1">
     <g id="line2d_8">
      <path d="M 62.259531 226.65203 
L 989.349531 226.65203 
" clip-path="url(#pc738aaae1f)" style="fill: none; stroke: #cccccc; stroke-linecap: round"/>
     </g>
     <g id="text_9">
      <!-- 12000 -->
      <g style="fill: #262626" transform="translate(22.174375 230.588827) scale(0.11 -0.11)">
       <use xlink:href="#ArialMT-31"/>
       <use xlink:href="#ArialMT-32" x="55.615234"/>
       <use xlink:href="#ArialMT-30" x="111.230469"/>
       <use xlink:href="#ArialMT-30" x="166.845703"/>
       <use xlink:href="#ArialMT-30" x="222.460938"/>
      </g>
     </g>
    </g>
    <g id="ytick_2">
     <g id="line2d_9">
      <path d="M 62.259531 200.784122 
L 989.349531 200.784122 
" clip-path="url(#pc738aaae1f)" style="fill: none; stroke: #cccccc; stroke-linecap: round"/>
     </g>
     <g id="text_10">
      <!-- 14000 -->
      <g style="fill: #262626" transform="translate(22.174375 204.720919) scale(0.11 -0.11)">
       <defs>
        <path id="ArialMT-34" d="M 2069 0 
L 2069 1097 
L 81 1097 
L 81 1613 
L 2172 4581 
L 2631 4581 
L 2631 1613 
L 3250 1613 
L 3250 1097 
L 2631 1097 
L 2631 0 
L 2069 0 
z
M 2069 1613 
L 2069 3678 
L 634 1613 
L 2069 1613 
z
" transform="scale(0.015625)"/>
       </defs>
       <use xlink:href="#ArialMT-31"/>
       <use xlink:href="#ArialMT-34" x="55.615234"/>
       <use xlink:href="#ArialMT-30" x="111.230469"/>
       <use xlink:href="#ArialMT-30" x="166.845703"/>
       <use xlink:href="#ArialMT-30" x="222.460938"/>
      </g>
     </g>
    </g>
    <g id="ytick_3">
     <g id="line2d_10">
      <path d="M 62.259531 174.916213 
L 989.349531 174.916213 
" clip-path="url(#pc738aaae1f)" style="fill: none; stroke: #cccccc; stroke-linecap: round"/>
     </g>
     <g id="text_11">
      <!-- 16000 -->
      <g style="fill: #262626" transform="translate(22.174375 178.85301) scale(0.11 -0.11)">
       <use xlink:href="#ArialMT-31"/>
       <use xlink:href="#ArialMT-36" x="55.615234"/>
       <use xlink:href="#ArialMT-30" x="111.230469"/>
       <use xlink:href="#ArialMT-30" x="166.845703"/>
       <use xlink:href="#ArialMT-30" x="222.460938"/>
      </g>
     </g>
    </g>
    <g id="ytick_4">
     <g id="line2d_11">
      <path d="M 62.259531 149.048305 
L 989.349531 149.048305 
" clip-path="url(#pc738aaae1f)" style="fill: none; stroke: #cccccc; stroke-linecap: round"/>
     </g>
     <g id="text_12">
      <!-- 18000 -->
      <g style="fill: #262626" transform="translate(22.174375 152.985102) scale(0.11 -0.11)">
       <use xlink:href="#ArialMT-31"/>
       <use xlink:href="#ArialMT-38" x="55.615234"/>
       <use xlink:href="#ArialMT-30" x="111.230469"/>
       <use xlink:href="#ArialMT-30" x="166.845703"/>
       <use xlink:href="#ArialMT-30" x="222.460938"/>
      </g>
     </g>
    </g>
    <g id="ytick_5">
     <g id="line2d_12">
      <path d="M 62.259531 123.180397 
L 989.349531 123.180397 
" clip-path="url(#pc738aaae1f)" style="fill: none; stroke: #cccccc; stroke-linecap: round"/>
     </g>
     <g id="text_13">
      <!-- 20000 -->
      <g style="fill: #262626" transform="translate(22.174375 127.117193) scale(0.11 -0.11)">
       <use xlink:href="#ArialMT-32"/>
       <use xlink:href="#ArialMT-30" x="55.615234"/>
       <use xlink:href="#ArialMT-30" x="111.230469"/>
       <use xlink:href="#ArialMT-30" x="166.845703"/>
       <use xlink:href="#ArialMT-30" x="222.460938"/>
      </g>
     </g>
    </g>
    <g id="ytick_6">
     <g id="line2d_13">
      <path d="M 62.259531 97.312488 
L 989.349531 97.312488 
" clip-path="url(#pc738aaae1f)" style="fill: none; stroke: #cccccc; stroke-linecap: round"/>
     </g>
     <g id="text_14">
      <!-- 22000 -->
      <g style="fill: #262626" transform="translate(22.174375 101.249285) scale(0.11 -0.11)">
       <use xlink:href="#ArialMT-32"/>
       <use xlink:href="#ArialMT-32" x="55.615234"/>
       <use xlink:href="#ArialMT-30" x="111.230469"/>
       <use xlink:href="#ArialMT-30" x="166.845703"/>
       <use xlink:href="#ArialMT-30" x="222.460938"/>
      </g>
     </g>
    </g>
    <g id="ytick_7">
     <g id="line2d_14">
      <path d="M 62.259531 71.44458 
L 989.349531 71.44458 
" clip-path="url(#pc738aaae1f)" style="fill: none; stroke: #cccccc; stroke-linecap: round"/>
     </g>
     <g id="text_15">
      <!-- 24000 -->
      <g style="fill: #262626" transform="translate(22.174375 75.381377) scale(0.11 -0.11)">
       <use xlink:href="#ArialMT-32"/>
       <use xlink:href="#ArialMT-34" x="55.615234"/>
       <use xlink:href="#ArialMT-30" x="111.230469"/>
       <use xlink:href="#ArialMT-30" x="166.845703"/>
       <use xlink:href="#ArialMT-30" x="222.460938"/>
      </g>
     </g>
    </g>
    <g id="ytick_8">
     <g id="line2d_15">
      <path d="M 62.259531 45.576671 
L 989.349531 45.576671 
" clip-path="url(#pc738aaae1f)" style="fill: none; stroke: #cccccc; stroke-linecap: round"/>
     </g>
     <g id="text_16">
      <!-- 26000 -->
      <g style="fill: #262626" transform="translate(22.174375 49.513468) scale(0.11 -0.11)">
       <use xlink:href="#ArialMT-32"/>
       <use xlink:href="#ArialMT-36" x="55.615234"/>
       <use xlink:href="#ArialMT-30" x="111.230469"/>
       <use xlink:href="#ArialMT-30" x="166.845703"/>
       <use xlink:href="#ArialMT-30" x="222.460938"/>
      </g>
     </g>
    </g>
    <g id="text_17">
     <!-- Interval width -->
     <g style="fill: #262626" transform="translate(15.789375 163.666875) rotate(-90) scale(0.12 -0.12)">
      <defs>
       <path id="ArialMT-49" d="M 597 0 
L 597 4581 
L 1203 4581 
L 1203 0 
L 597 0 
z
" transform="scale(0.015625)"/>
       <path id="ArialMT-6e" d="M 422 0 
L 422 3319 
L 928 3319 
L 928 2847 
Q 1294 3394 1984 3394 
Q 2284 3394 2536 3286 
Q 2788 3178 2913 3003 
Q 3038 2828 3088 2588 
Q 3119 2431 3119 2041 
L 3119 0 
L 2556 0 
L 2556 2019 
Q 2556 2363 2490 2533 
Q 2425 2703 2258 2804 
Q 2091 2906 1866 2906 
Q 1506 2906 1245 2678 
Q 984 2450 984 1813 
L 984 0 
L 422 0 
z
" transform="scale(0.015625)"/>
       <path id="ArialMT-72" d="M 416 0 
L 416 3319 
L 922 3319 
L 922 2816 
Q 1116 3169 1280 3281 
Q 1444 3394 1641 3394 
Q 1925 3394 2219 3213 
L 2025 2691 
Q 1819 2813 1613 2813 
Q 1428 2813 1281 2702 
Q 1134 2591 1072 2394 
Q 978 2094 978 1738 
L 978 0 
L 416 0 
z
" transform="scale(0.015625)"/>
       <path id="ArialMT-76" d="M 1344 0 
L 81 3319 
L 675 3319 
L 1388 1331 
Q 1503 1009 1600 663 
Q 1675 925 1809 1294 
L 2547 3319 
L 3125 3319 
L 1869 0 
L 1344 0 
z
" transform="scale(0.015625)"/>
       <path id="ArialMT-6c" d="M 409 0 
L 409 4581 
L 972 4581 
L 972 0 
L 409 0 
z
" transform="scale(0.015625)"/>
       <path id="ArialMT-20" transform="scale(0.015625)"/>
       <path id="ArialMT-77" d="M 1034 0 
L 19 3319 
L 600 3319 
L 1128 1403 
L 1325 691 
Q 1338 744 1497 1375 
L 2025 3319 
L 2603 3319 
L 3100 1394 
L 3266 759 
L 3456 1400 
L 4025 3319 
L 4572 3319 
L 3534 0 
L 2950 0 
L 2422 1988 
L 2294 2553 
L 1622 0 
L 1034 0 
z
" transform="scale(0.015625)"/>
       <path id="ArialMT-69" d="M 425 3934 
L 425 4581 
L 988 4581 
L 988 3934 
L 425 3934 
z
M 425 0 
L 425 3319 
L 988 3319 
L 988 0 
L 425 0 
z
" transform="scale(0.015625)"/>
       <path id="ArialMT-64" d="M 2575 0 
L 2575 419 
Q 2259 -75 1647 -75 
Q 1250 -75 917 144 
Q 584 363 401 755 
Q 219 1147 219 1656 
Q 219 2153 384 2558 
Q 550 2963 881 3178 
Q 1213 3394 1622 3394 
Q 1922 3394 2156 3267 
Q 2391 3141 2538 2938 
L 2538 4581 
L 3097 4581 
L 3097 0 
L 2575 0 
z
M 797 1656 
Q 797 1019 1065 703 
Q 1334 388 1700 388 
Q 2069 388 2326 689 
Q 2584 991 2584 1609 
Q 2584 2291 2321 2609 
Q 2059 2928 1675 2928 
Q 1300 2928 1048 2622 
Q 797 2316 797 1656 
z
" transform="scale(0.015625)"/>
       <path id="ArialMT-68" d="M 422 0 
L 422 4581 
L 984 4581 
L 984 2938 
Q 1378 3394 1978 3394 
Q 2347 3394 2619 3248 
Q 2891 3103 3008 2847 
Q 3125 2591 3125 2103 
L 3125 0 
L 2563 0 
L 2563 2103 
Q 2563 2525 2380 2717 
Q 2197 2909 1863 2909 
Q 1613 2909 1392 2779 
Q 1172 2650 1078 2428 
Q 984 2206 984 1816 
L 984 0 
L 422 0 
z
" transform="scale(0.015625)"/>
      </defs>
      <use xlink:href="#ArialMT-49"/>
      <use xlink:href="#ArialMT-6e" x="27.783203"/>
      <use xlink:href="#ArialMT-74" x="83.398438"/>
      <use xlink:href="#ArialMT-65" x="111.181641"/>
      <use xlink:href="#ArialMT-72" x="166.796875"/>
      <use xlink:href="#ArialMT-76" x="200.097656"/>
      <use xlink:href="#ArialMT-61" x="250.097656"/>
      <use xlink:href="#ArialMT-6c" x="305.712891"/>
      <use xlink:href="#ArialMT-20" x="327.929688"/>
      <use xlink:href="#ArialMT-77" x="355.712891"/>
      <use xlink:href="#ArialMT-69" x="427.929688"/>
      <use xlink:href="#ArialMT-64" x="450.146484"/>
      <use xlink:href="#ArialMT-74" x="505.761719"/>
      <use xlink:href="#ArialMT-68" x="533.544922"/>
     </g>
    </g>
   </g>
   <g id="line2d_16">
    <path d="M 104.399986 91.794424 
L 131.882891 91.794424 
L 136.463375 31.47392 
L 141.043859 50.788503 
L 145.624344 71.06853 
L 150.204828 88.683646 
L 154.785312 97.082552 
L 159.365796 109.128309 
L 163.94628 120.735905 
L 168.526764 130.830328 
L 173.107249 137.438754 
L 177.687733 145.699233 
L 182.268217 152.131195 
L 186.848701 155.445049 
L 191.429185 158.979943 
L 196.00967 163.081936 
L 200.590154 168.01548 
L 205.170638 171.096115 
L 209.751122 175.839922 
L 214.331606 179.579481 
L 218.912091 181.862704 
L 223.492575 185.023507 
L 228.073059 161.210505 
L 232.653543 163.138477 
L 237.234027 166.557772 
L 241.814511 167.303768 
L 246.394996 161.026713 
L 255.555964 163.964149 
L 260.136448 166.242494 
L 264.716932 169.295045 
L 269.297417 171.171391 
L 273.877901 172.526293 
L 278.458385 175.35501 
L 283.038869 176.482128 
L 287.619353 179.132059 
L 296.780322 183.819974 
L 301.360806 185.908785 
L 305.94129 186.691382 
L 310.521774 188.008615 
L 315.102259 188.729413 
L 319.682743 190.483828 
L 328.843711 194.297563 
L 333.424195 195.983143 
L 338.004679 193.10787 
L 342.585164 194.07641 
L 347.165648 194.547202 
L 360.9071 198.9255 
L 365.487585 199.756643 
L 370.068069 191.010358 
L 374.648553 192.524614 
L 379.229037 192.969445 
L 383.809521 193.875145 
L 388.390006 194.98471 
L 397.550974 197.940805 
L 402.131458 187.849844 
L 406.711942 189.229771 
L 411.292427 189.64429 
L 415.872911 190.433559 
L 420.453395 190.175902 
L 425.033879 191.551526 
L 429.614363 191.845052 
L 434.194847 192.655869 
L 438.775332 193.814632 
L 443.355816 194.170135 
L 457.097268 197.290182 
L 461.677753 187.236198 
L 466.258237 188.482047 
L 470.838721 189.611418 
L 475.419205 189.955065 
L 479.999689 190.713025 
L 484.580174 188.403171 
L 489.160658 189.219907 
L 493.741142 190.21723 
L 498.321626 191.041123 
L 502.90211 189.350787 
L 507.482594 189.694408 
L 512.063079 190.553477 
L 521.224047 192.598616 
L 525.804531 192.230026 
L 530.385015 193.172998 
L 534.9655 193.276637 
L 539.545984 193.546358 
L 544.126468 193.980237 
L 548.706952 194.926725 
L 553.287436 194.268793 
L 557.867921 195.105646 
L 562.448405 108.871717 
L 567.028889 109.332664 
L 571.609373 110.065917 
L 576.189857 111.343097 
L 580.770342 112.23003 
L 585.350826 102.748687 
L 589.93131 103.409875 
L 594.511794 104.653437 
L 599.092278 105.178762 
L 603.672762 105.843235 
L 612.833731 108.053207 
L 617.414215 109.063553 
L 621.994699 109.849622 
L 626.575183 109.530661 
L 631.155668 108.534489 
L 635.736152 109.098762 
L 640.316636 110.080565 
L 644.89712 110.841165 
L 649.477604 111.044176 
L 654.058089 111.421297 
L 658.638573 109.665664 
L 667.799541 110.556226 
L 676.96051 112.333556 
L 681.540994 113.413753 
L 686.121478 114.319462 
L 690.701962 115.368046 
L 695.282446 115.953123 
L 699.86293 116.374919 
L 704.443415 117.387848 
L 709.023899 117.931092 
L 722.765351 120.873556 
L 727.345836 121.681177 
L 731.92632 122.048172 
L 736.506804 122.718354 
L 741.087288 122.863827 
L 754.828741 125.562374 
L 763.989709 126.229301 
L 768.570193 127.097354 
L 773.150677 126.833568 
L 782.311646 128.474919 
L 786.89213 125.663138 
L 791.472614 124.755319 
L 796.053098 125.032311 
L 800.633583 125.606689 
L 805.214067 117.835215 
L 809.794551 117.64372 
L 814.375035 116.309449 
L 818.955519 116.166038 
L 823.536004 115.397403 
L 828.116488 115.641044 
L 832.696972 116.466168 
L 837.277456 100.954823 
L 841.85794 101.235094 
L 846.438425 101.37654 
L 851.018909 101.89527 
L 855.599393 100.658993 
L 860.179877 100.903477 
L 864.760361 101.578572 
L 869.340845 101.848152 
L 873.92133 101.813823 
L 878.501814 100.898698 
L 883.082298 101.365709 
L 887.662782 100.024375 
L 892.243266 100.220379 
L 896.823751 101.003081 
L 901.404235 101.360348 
L 905.984719 99.38952 
L 910.565203 98.236724 
L 915.145687 98.447321 
L 919.726172 96.26147 
L 924.306656 96.423454 
L 928.88714 97.132389 
L 933.467624 92.984872 
L 938.048108 93.252866 
L 942.628593 92.838768 
L 947.209077 90.548195 
L 947.209077 90.548195 
" clip-path="url(#pc738aaae1f)" style="fill: none; stroke: #ff7f0e; stroke-opacity: 0.35; stroke-width: 1.2; stroke-linecap: round"/>
   </g>
   <g id="line2d_17">
    <path d="M 104.399986 126.172023 
L 131.882891 126.172023 
L 136.463375 96.84932 
L 141.043859 109.537914 
L 145.624344 120.250023 
L 150.204828 134.901872 
L 154.785312 144.159347 
L 159.365796 155.219733 
L 168.526764 170.735441 
L 173.107249 175.614806 
L 177.687733 180.310479 
L 182.268217 186.1687 
L 186.848701 190.411247 
L 196.00967 200.161419 
L 200.590154 203.561921 
L 205.170638 204.877276 
L 214.331606 211.573868 
L 218.912091 214.442154 
L 223.492575 217.819364 
L 228.073059 177.418809 
L 232.653543 178.844745 
L 237.234027 182.26603 
L 241.814511 184.526618 
L 246.394996 185.160731 
L 250.97548 187.345535 
L 255.555964 189.882791 
L 260.136448 192.780407 
L 264.716932 195.539924 
L 269.297417 197.190938 
L 273.877901 199.365764 
L 278.458385 200.074224 
L 283.038869 201.755615 
L 287.619353 203.571953 
L 296.780322 207.850244 
L 301.360806 209.712102 
L 310.521774 213.079251 
L 315.102259 214.305504 
L 319.682743 214.342882 
L 324.263227 215.680433 
L 333.424195 218.719655 
L 338.004679 217.74192 
L 342.585164 218.934488 
L 347.165648 219.87659 
L 351.746132 221.41176 
L 356.326616 222.763361 
L 360.9071 223.981258 
L 365.487585 224.883252 
L 370.068069 218.119995 
L 374.648553 218.399154 
L 379.229037 219.230743 
L 397.550974 224.283961 
L 402.131458 216.29792 
L 406.711942 216.748344 
L 411.292427 217.487928 
L 415.872911 218.629277 
L 420.453395 219.3084 
L 425.033879 220.410177 
L 429.614363 220.04092 
L 434.194847 221.122673 
L 438.775332 221.525124 
L 443.355816 222.173329 
L 452.516784 224.300735 
L 457.097268 225.16483 
L 461.677753 212.333407 
L 466.258237 213.074009 
L 470.838721 213.57104 
L 475.419205 214.209326 
L 479.999689 215.212171 
L 484.580174 215.074031 
L 489.160658 213.511638 
L 498.321626 215.390855 
L 502.90211 215.603094 
L 507.482594 216.163414 
L 512.063079 217.104544 
L 516.643563 216.950664 
L 521.224047 217.813977 
L 525.804531 216.783699 
L 530.385015 217.151472 
L 534.9655 218.015047 
L 539.545984 218.500489 
L 544.126468 217.785779 
L 548.706952 218.498687 
L 553.287436 217.683782 
L 557.867921 218.419935 
L 562.448405 131.136644 
L 567.028889 132.383247 
L 571.609373 133.274056 
L 576.189857 134.484777 
L 580.770342 135.532649 
L 585.350826 126.172999 
L 589.93131 126.665193 
L 599.092278 129.017421 
L 603.672762 129.836707 
L 608.253247 130.500423 
L 617.414215 132.593013 
L 621.994699 133.316605 
L 626.575183 133.868305 
L 631.155668 134.739502 
L 635.736152 135.454848 
L 640.316636 136.502864 
L 644.89712 136.014452 
L 654.058089 136.558549 
L 658.638573 135.563794 
L 663.219057 136.552763 
L 667.799541 137.182223 
L 672.380025 138.145668 
L 676.96051 138.626199 
L 681.540994 139.563459 
L 690.701962 141.164026 
L 695.282446 142.095177 
L 699.86293 142.671572 
L 704.443415 143.539289 
L 709.023899 143.495603 
L 718.184867 145.251178 
L 727.345836 146.698238 
L 731.92632 147.225258 
L 736.506804 148.033736 
L 741.087288 147.125566 
L 754.828741 149.531057 
L 759.409225 150.348436 
L 768.570193 151.392808 
L 773.150677 148.646015 
L 777.731162 149.282243 
L 782.311646 150.0735 
L 786.89213 148.444577 
L 791.472614 149.027593 
L 796.053098 149.466691 
L 800.633583 149.474911 
L 805.214067 139.628199 
L 809.794551 139.79309 
L 814.375035 138.689216 
L 832.696972 140.836717 
L 837.277456 123.598905 
L 841.85794 124.218599 
L 846.438425 124.56727 
L 851.018909 125.362405 
L 864.760361 126.345293 
L 869.340845 126.411121 
L 873.92133 126.861226 
L 878.501814 126.384825 
L 883.082298 127.140228 
L 887.662782 127.387788 
L 892.243266 127.754688 
L 896.823751 128.482 
L 901.404235 128.533257 
L 905.984719 127.801993 
L 910.565203 127.397219 
L 915.145687 128.098259 
L 919.726172 127.792514 
L 924.306656 128.117237 
L 928.88714 128.826578 
L 933.467624 124.164716 
L 938.048108 124.87078 
L 942.628593 125.260596 
L 947.209077 124.915023 
L 947.209077 124.915023 
" clip-path="url(#pc738aaae1f)" style="fill: none; stroke: #2ca02c; stroke-opacity: 0.35; stroke-width: 1.2; stroke-linecap: round"/>
   </g>
   <g id="line2d_18">
    <path d="M 131.882891 91.794424 
L 136.463375 83.177209 
L 141.043859 77.31922 
L 145.624344 74.358378 
L 150.204828 73.913982 
L 154.785312 74.669428 
L 159.365796 77.145698 
L 163.94628 81.280195 
L 168.526764 95.473968 
L 173.107249 107.852575 
L 177.687733 118.514104 
L 182.268217 127.578039 
L 186.848701 135.915539 
L 191.429185 143.037201 
L 196.00967 149.086634 
L 200.590154 154.398799 
L 205.170638 159.206993 
L 209.751122 163.512806 
L 214.331606 167.433989 
L 223.492575 174.928449 
L 228.073059 174.661102 
L 237.234027 173.316053 
L 241.814511 172.096602 
L 250.97548 166.678599 
L 255.555964 163.670119 
L 260.136448 164.388975 
L 264.716932 165.268484 
L 273.877901 166.673648 
L 287.619353 172.886346 
L 296.780322 177.134755 
L 305.94129 181.263682 
L 315.102259 184.820951 
L 324.263227 188.005526 
L 333.424195 190.941518 
L 342.585164 192.724987 
L 351.746132 194.340347 
L 360.9071 195.726708 
L 365.487585 196.26578 
L 374.648553 195.74445 
L 383.809521 195.219283 
L 406.711942 193.330659 
L 415.872911 192.363981 
L 425.033879 190.9751 
L 429.614363 190.104278 
L 452.516784 193.62898 
L 457.097268 194.448788 
L 466.258237 193.19412 
L 479.999689 191.352431 
L 489.160658 189.08869 
L 498.321626 189.880134 
L 512.063079 189.782872 
L 521.224047 190.715446 
L 530.385015 191.307542 
L 544.126468 192.908193 
L 548.706952 193.390228 
L 553.287436 193.628825 
L 557.867921 194.039628 
L 571.609373 158.078814 
L 580.770342 134.459695 
L 589.93131 108.285998 
L 612.833731 105.269005 
L 621.994699 107.091092 
L 626.575183 107.787839 
L 640.316636 109.17298 
L 644.89712 109.571259 
L 654.058089 110.078731 
L 658.638573 110.098017 
L 681.540994 111.269624 
L 686.121478 111.683647 
L 736.506804 120.583163 
L 754.828741 123.334913 
L 777.731162 126.275163 
L 782.311646 126.817625 
L 786.89213 126.832019 
L 800.633583 126.28301 
L 805.214067 124.997531 
L 809.794551 123.573044 
L 814.375035 121.83512 
L 832.696972 116.494148 
L 841.85794 111.738574 
L 855.599393 105.461133 
L 864.760361 101.228967 
L 873.92133 101.439261 
L 901.404235 100.955202 
L 915.145687 99.811678 
L 928.88714 98.178747 
L 933.467624 96.98225 
L 942.628593 95.334449 
L 947.209077 94.206002 
L 947.209077 94.206002 
" clip-path="url(#pc738aaae1f)" style="fill: none; stroke: #ff7f0e; stroke-width: 2; stroke-linecap: round"/>
   </g>
   <g id="line2d_19">
    <path d="M 131.882891 126.172023 
L 136.463375 121.983065 
L 141.043859 119.606764 
L 145.624344 118.760764 
L 150.204828 120.007885 
L 154.785312 122.577503 
L 159.365796 126.727176 
L 163.94628 131.973971 
L 168.526764 142.529131 
L 173.107249 151.968687 
L 177.687733 160.548753 
L 182.268217 167.872585 
L 186.848701 174.48 
L 191.429185 180.196415 
L 196.00967 185.519534 
L 200.590154 190.209031 
L 205.170638 194.389384 
L 209.751122 198.379037 
L 214.331606 202.008347 
L 218.912091 205.441333 
L 223.492575 208.667722 
L 228.073059 205.418778 
L 232.653543 201.887753 
L 237.234027 198.657575 
L 241.814511 195.270227 
L 250.97548 187.625976 
L 255.555964 183.635037 
L 260.136448 185.829551 
L 264.716932 188.214577 
L 283.038869 196.655666 
L 292.199838 200.460338 
L 310.521774 207.584067 
L 315.102259 209.376908 
L 324.263227 212.337967 
L 333.424195 214.966484 
L 342.585164 216.709599 
L 347.165648 217.505468 
L 360.9071 220.489862 
L 365.487585 221.370376 
L 370.068069 221.424386 
L 383.809521 221.127332 
L 402.131458 220.516345 
L 415.872911 219.762357 
L 425.033879 219.023715 
L 429.614363 218.417567 
L 457.097268 222.511935 
L 470.838721 219.124754 
L 479.999689 216.837931 
L 484.580174 215.519831 
L 489.160658 213.855089 
L 516.643563 215.602337 
L 521.224047 216.216957 
L 539.545984 217.47427 
L 544.126468 217.57159 
L 548.706952 217.792736 
L 553.287436 217.774136 
L 557.867921 218.007884 
L 571.609373 181.311733 
L 580.770342 157.559299 
L 589.93131 131.378509 
L 603.672762 129.934582 
L 612.833731 128.801653 
L 626.575183 131.531283 
L 640.316636 134.008806 
L 649.477604 135.166538 
L 654.058089 135.629673 
L 672.380025 136.612377 
L 681.540994 137.456093 
L 686.121478 137.994404 
L 704.443415 141.14092 
L 731.92632 145.226883 
L 736.506804 145.868947 
L 768.570193 149.424032 
L 782.311646 150.014799 
L 796.053098 149.476204 
L 800.633583 149.202218 
L 809.794551 146.558366 
L 814.375035 144.93204 
L 832.696972 139.76218 
L 841.85794 135.247353 
L 864.760361 125.134738 
L 873.92133 125.914002 
L 905.984719 127.640683 
L 919.726172 127.97999 
L 928.88714 128.081008 
L 933.467624 127.456931 
L 938.048108 127.038186 
L 942.628593 126.732954 
L 947.209077 126.278206 
L 947.209077 126.278206 
" clip-path="url(#pc738aaae1f)" style="fill: none; stroke: #2ca02c; stroke-width: 2; stroke-linecap: round"/>
   </g>
   <g id="patch_3">
    <path d="M 62.259531 234.849375 
L 62.259531 21.789375 
" style="fill: none; stroke: #cccccc; stroke-width: 1.25; stroke-linejoin: miter; stroke-linecap: square"/>
   </g>
   <g id="patch_4">
    <path d="M 989.349531 234.849375 
L 989.349531 21.789375 
" style="fill: none; stroke: #cccccc; stroke-width: 1.25; stroke-linejoin: miter; stroke-linecap: square"/>
   </g>
   <g id="patch_5">
    <path d="M 62.259531 234.849375 
L 989.349531 234.849375 
" style="fill: none; stroke: #cccccc; stroke-width: 1.25; stroke-linejoin: miter; stroke-linecap: square"/>
   </g>
   <g id="patch_6">
    <path d="M 62.259531 21.789375 
L 989.349531 21.789375 
" style="fill: none; stroke: #cccccc; stroke-width: 1.25; stroke-linejoin: miter; stroke-linecap: square"/>
   </g>
   <g id="text_18">
    <!-- Cluster 2: 95% Prediction Interval Width Over Time -->
    <g style="fill: #262626" transform="translate(381.266406 15.789375) scale(0.12 -0.12)">
     <defs>
      <path id="Arial-BoldMT-43" d="M 3397 1684 
L 4294 1400 
Q 4088 650 3608 286 
Q 3128 -78 2391 -78 
Q 1478 -78 890 545 
Q 303 1169 303 2250 
Q 303 3394 893 4026 
Q 1484 4659 2447 4659 
Q 3288 4659 3813 4163 
Q 4125 3869 4281 3319 
L 3366 3100 
Q 3284 3456 3026 3662 
Q 2769 3869 2400 3869 
Q 1891 3869 1573 3503 
Q 1256 3138 1256 2319 
Q 1256 1450 1568 1081 
Q 1881 713 2381 713 
Q 2750 713 3015 947 
Q 3281 1181 3397 1684 
z
" transform="scale(0.015625)"/>
      <path id="Arial-BoldMT-6c" d="M 459 0 
L 459 4581 
L 1338 4581 
L 1338 0 
L 459 0 
z
" transform="scale(0.015625)"/>
      <path id="Arial-BoldMT-75" d="M 2644 0 
L 2644 497 
Q 2463 231 2167 78 
Q 1872 -75 1544 -75 
Q 1209 -75 943 72 
Q 678 219 559 484 
Q 441 750 441 1219 
L 441 3319 
L 1319 3319 
L 1319 1794 
Q 1319 1094 1367 936 
Q 1416 778 1544 686 
Q 1672 594 1869 594 
Q 2094 594 2272 717 
Q 2450 841 2515 1023 
Q 2581 1206 2581 1919 
L 2581 3319 
L 3459 3319 
L 3459 0 
L 2644 0 
z
" transform="scale(0.015625)"/>
      <path id="Arial-BoldMT-73" d="M 150 947 
L 1031 1081 
Q 1088 825 1259 692 
Q 1431 559 1741 559 
Q 2081 559 2253 684 
Q 2369 772 2369 919 
Q 2369 1019 2306 1084 
Q 2241 1147 2013 1200 
Q 950 1434 666 1628 
Q 272 1897 272 2375 
Q 272 2806 612 3100 
Q 953 3394 1669 3394 
Q 2350 3394 2681 3172 
Q 3013 2950 3138 2516 
L 2309 2363 
Q 2256 2556 2107 2659 
Q 1959 2763 1684 2763 
Q 1338 2763 1188 2666 
Q 1088 2597 1088 2488 
Q 1088 2394 1175 2328 
Q 1294 2241 1995 2081 
Q 2697 1922 2975 1691 
Q 3250 1456 3250 1038 
Q 3250 581 2869 253 
Q 2488 -75 1741 -75 
Q 1063 -75 667 200 
Q 272 475 150 947 
z
" transform="scale(0.015625)"/>
      <path id="Arial-BoldMT-74" d="M 1981 3319 
L 1981 2619 
L 1381 2619 
L 1381 1281 
Q 1381 875 1398 808 
Q 1416 741 1477 697 
Q 1538 653 1625 653 
Q 1747 653 1978 738 
L 2053 56 
Q 1747 -75 1359 -75 
Q 1122 -75 931 4 
Q 741 84 652 211 
Q 563 338 528 553 
Q 500 706 500 1172 
L 500 2619 
L 97 2619 
L 97 3319 
L 500 3319 
L 500 3978 
L 1381 4491 
L 1381 3319 
L 1981 3319 
z
" transform="scale(0.015625)"/>
      <path id="Arial-BoldMT-65" d="M 2381 1056 
L 3256 909 
Q 3088 428 2723 176 
Q 2359 -75 1813 -75 
Q 947 -75 531 491 
Q 203 944 203 1634 
Q 203 2459 634 2926 
Q 1066 3394 1725 3394 
Q 2466 3394 2894 2905 
Q 3322 2416 3303 1406 
L 1103 1406 
Q 1113 1016 1316 798 
Q 1519 581 1822 581 
Q 2028 581 2168 693 
Q 2309 806 2381 1056 
z
M 2431 1944 
Q 2422 2325 2234 2523 
Q 2047 2722 1778 2722 
Q 1491 2722 1303 2513 
Q 1116 2303 1119 1944 
L 2431 1944 
z
" transform="scale(0.015625)"/>
      <path id="Arial-BoldMT-72" d="M 1300 0 
L 422 0 
L 422 3319 
L 1238 3319 
L 1238 2847 
Q 1447 3181 1614 3287 
Q 1781 3394 1994 3394 
Q 2294 3394 2572 3228 
L 2300 2463 
Q 2078 2606 1888 2606 
Q 1703 2606 1575 2504 
Q 1447 2403 1373 2137 
Q 1300 1872 1300 1025 
L 1300 0 
z
" transform="scale(0.015625)"/>
      <path id="Arial-BoldMT-20" transform="scale(0.015625)"/>
      <path id="Arial-BoldMT-32" d="M 3238 816 
L 3238 0 
L 159 0 
Q 209 463 459 877 
Q 709 1291 1447 1975 
Q 2041 2528 2175 2725 
Q 2356 2997 2356 3263 
Q 2356 3556 2198 3714 
Q 2041 3872 1763 3872 
Q 1488 3872 1325 3706 
Q 1163 3541 1138 3156 
L 263 3244 
Q 341 3969 753 4284 
Q 1166 4600 1784 4600 
Q 2463 4600 2850 4234 
Q 3238 3869 3238 3325 
Q 3238 3016 3127 2736 
Q 3016 2456 2775 2150 
Q 2616 1947 2200 1565 
Q 1784 1184 1673 1059 
Q 1563 934 1494 816 
L 3238 816 
z
" transform="scale(0.015625)"/>
      <path id="Arial-BoldMT-3a" d="M 628 2441 
L 628 3319 
L 1506 3319 
L 1506 2441 
L 628 2441 
z
M 628 0 
L 628 878 
L 1506 878 
L 1506 0 
L 628 0 
z
" transform="scale(0.015625)"/>
      <path id="Arial-BoldMT-39" d="M 291 1059 
L 1141 1153 
Q 1172 894 1303 769 
Q 1434 644 1650 644 
Q 1922 644 2112 894 
Q 2303 1144 2356 1931 
Q 2025 1547 1528 1547 
Q 988 1547 595 1964 
Q 203 2381 203 3050 
Q 203 3747 617 4173 
Q 1031 4600 1672 4600 
Q 2369 4600 2816 4061 
Q 3263 3522 3263 2288 
Q 3263 1031 2797 475 
Q 2331 -81 1584 -81 
Q 1047 -81 715 205 
Q 384 491 291 1059 
z
M 2278 2978 
Q 2278 3403 2083 3637 
Q 1888 3872 1631 3872 
Q 1388 3872 1227 3680 
Q 1066 3488 1066 3050 
Q 1066 2606 1241 2398 
Q 1416 2191 1678 2191 
Q 1931 2191 2104 2391 
Q 2278 2591 2278 2978 
z
" transform="scale(0.015625)"/>
      <path id="Arial-BoldMT-35" d="M 284 1178 
L 1159 1269 
Q 1197 972 1381 798 
Q 1566 625 1806 625 
Q 2081 625 2272 848 
Q 2463 1072 2463 1522 
Q 2463 1944 2273 2155 
Q 2084 2366 1781 2366 
Q 1403 2366 1103 2031 
L 391 2134 
L 841 4519 
L 3163 4519 
L 3163 3697 
L 1506 3697 
L 1369 2919 
Q 1663 3066 1969 3066 
Q 2553 3066 2959 2641 
Q 3366 2216 3366 1538 
Q 3366 972 3038 528 
Q 2591 -78 1797 -78 
Q 1163 -78 763 262 
Q 363 603 284 1178 
z
" transform="scale(0.015625)"/>
      <path id="Arial-BoldMT-25" d="M 278 3450 
Q 278 4066 548 4362 
Q 819 4659 1281 4659 
Q 1759 4659 2029 4364 
Q 2300 4069 2300 3450 
Q 2300 2834 2029 2537 
Q 1759 2241 1297 2241 
Q 819 2241 548 2536 
Q 278 2831 278 3450 
z
M 963 3456 
Q 963 3009 1066 2856 
Q 1144 2744 1281 2744 
Q 1422 2744 1500 2856 
Q 1600 3009 1600 3456 
Q 1600 3903 1500 4053 
Q 1422 4169 1281 4169 
Q 1144 4169 1066 4056 
Q 963 3903 963 3456 
z
M 1950 -175 
L 1300 -175 
L 3741 4659 
L 4372 4659 
L 1950 -175 
z
M 3369 1028 
Q 3369 1644 3639 1941 
Q 3909 2238 4378 2238 
Q 4850 2238 5120 1941 
Q 5391 1644 5391 1028 
Q 5391 409 5120 112 
Q 4850 -184 4388 -184 
Q 3909 -184 3639 112 
Q 3369 409 3369 1028 
z
M 4053 1031 
Q 4053 584 4156 434 
Q 4234 319 4372 319 
Q 4513 319 4588 431 
Q 4691 584 4691 1031 
Q 4691 1478 4591 1631 
Q 4513 1744 4372 1744 
Q 4231 1744 4156 1631 
Q 4053 1478 4053 1031 
z
" transform="scale(0.015625)"/>
      <path id="Arial-BoldMT-50" d="M 466 0 
L 466 4581 
L 1950 4581 
Q 2794 4581 3050 4513 
Q 3444 4409 3709 4064 
Q 3975 3719 3975 3172 
Q 3975 2750 3822 2462 
Q 3669 2175 3433 2011 
Q 3197 1847 2953 1794 
Q 2622 1728 1994 1728 
L 1391 1728 
L 1391 0 
L 466 0 
z
M 1391 3806 
L 1391 2506 
L 1897 2506 
Q 2444 2506 2628 2578 
Q 2813 2650 2917 2803 
Q 3022 2956 3022 3159 
Q 3022 3409 2875 3571 
Q 2728 3734 2503 3775 
Q 2338 3806 1838 3806 
L 1391 3806 
z
" transform="scale(0.015625)"/>
      <path id="Arial-BoldMT-64" d="M 3503 0 
L 2688 0 
L 2688 488 
Q 2484 203 2207 64 
Q 1931 -75 1650 -75 
Q 1078 -75 670 386 
Q 263 847 263 1672 
Q 263 2516 659 2955 
Q 1056 3394 1663 3394 
Q 2219 3394 2625 2931 
L 2625 4581 
L 3503 4581 
L 3503 0 
z
M 1159 1731 
Q 1159 1200 1306 963 
Q 1519 619 1900 619 
Q 2203 619 2415 876 
Q 2628 1134 2628 1647 
Q 2628 2219 2422 2470 
Q 2216 2722 1894 2722 
Q 1581 2722 1370 2473 
Q 1159 2225 1159 1731 
z
" transform="scale(0.015625)"/>
      <path id="Arial-BoldMT-69" d="M 459 3769 
L 459 4581 
L 1338 4581 
L 1338 3769 
L 459 3769 
z
M 459 0 
L 459 3319 
L 1338 3319 
L 1338 0 
L 459 0 
z
" transform="scale(0.015625)"/>
      <path id="Arial-BoldMT-63" d="M 3353 2338 
L 2488 2181 
Q 2444 2441 2289 2572 
Q 2134 2703 1888 2703 
Q 1559 2703 1364 2476 
Q 1169 2250 1169 1719 
Q 1169 1128 1367 884 
Q 1566 641 1900 641 
Q 2150 641 2309 783 
Q 2469 925 2534 1272 
L 3397 1125 
Q 3263 531 2881 228 
Q 2500 -75 1859 -75 
Q 1131 -75 698 384 
Q 266 844 266 1656 
Q 266 2478 700 2936 
Q 1134 3394 1875 3394 
Q 2481 3394 2839 3133 
Q 3197 2872 3353 2338 
z
" transform="scale(0.015625)"/>
      <path id="Arial-BoldMT-6f" d="M 256 1706 
Q 256 2144 472 2553 
Q 688 2963 1083 3178 
Q 1478 3394 1966 3394 
Q 2719 3394 3200 2905 
Q 3681 2416 3681 1669 
Q 3681 916 3195 420 
Q 2709 -75 1972 -75 
Q 1516 -75 1102 131 
Q 688 338 472 736 
Q 256 1134 256 1706 
z
M 1156 1659 
Q 1156 1166 1390 903 
Q 1625 641 1969 641 
Q 2313 641 2545 903 
Q 2778 1166 2778 1666 
Q 2778 2153 2545 2415 
Q 2313 2678 1969 2678 
Q 1625 2678 1390 2415 
Q 1156 2153 1156 1659 
z
" transform="scale(0.015625)"/>
      <path id="Arial-BoldMT-6e" d="M 3478 0 
L 2600 0 
L 2600 1694 
Q 2600 2231 2544 2389 
Q 2488 2547 2361 2634 
Q 2234 2722 2056 2722 
Q 1828 2722 1647 2597 
Q 1466 2472 1398 2265 
Q 1331 2059 1331 1503 
L 1331 0 
L 453 0 
L 453 3319 
L 1269 3319 
L 1269 2831 
Q 1703 3394 2363 3394 
Q 2653 3394 2893 3289 
Q 3134 3184 3257 3021 
Q 3381 2859 3429 2653 
Q 3478 2447 3478 2063 
L 3478 0 
z
" transform="scale(0.015625)"/>
      <path id="Arial-BoldMT-49" d="M 438 0 
L 438 4581 
L 1363 4581 
L 1363 0 
L 438 0 
z
" transform="scale(0.015625)"/>
      <path id="Arial-BoldMT-76" d="M 1372 0 
L 34 3319 
L 956 3319 
L 1581 1625 
L 1763 1059 
Q 1834 1275 1853 1344 
Q 1897 1484 1947 1625 
L 2578 3319 
L 3481 3319 
L 2163 0 
L 1372 0 
z
" transform="scale(0.015625)"/>
      <path id="Arial-BoldMT-61" d="M 1116 2306 
L 319 2450 
Q 453 2931 781 3162 
Q 1109 3394 1756 3394 
Q 2344 3394 2631 3255 
Q 2919 3116 3036 2902 
Q 3153 2688 3153 2116 
L 3144 1091 
Q 3144 653 3186 445 
Q 3228 238 3344 0 
L 2475 0 
Q 2441 88 2391 259 
Q 2369 338 2359 363 
Q 2134 144 1878 34 
Q 1622 -75 1331 -75 
Q 819 -75 523 203 
Q 228 481 228 906 
Q 228 1188 362 1408 
Q 497 1628 739 1745 
Q 981 1863 1438 1950 
Q 2053 2066 2291 2166 
L 2291 2253 
Q 2291 2506 2166 2614 
Q 2041 2722 1694 2722 
Q 1459 2722 1328 2630 
Q 1197 2538 1116 2306 
z
M 2291 1594 
Q 2122 1538 1756 1459 
Q 1391 1381 1278 1306 
Q 1106 1184 1106 997 
Q 1106 813 1243 678 
Q 1381 544 1594 544 
Q 1831 544 2047 700 
Q 2206 819 2256 991 
Q 2291 1103 2291 1419 
L 2291 1594 
z
" transform="scale(0.015625)"/>
      <path id="Arial-BoldMT-57" d="M 1116 0 
L 22 4581 
L 969 4581 
L 1659 1434 
L 2497 4581 
L 3597 4581 
L 4400 1381 
L 5103 4581 
L 6034 4581 
L 4922 0 
L 3941 0 
L 3028 3425 
L 2119 0 
L 1116 0 
z
" transform="scale(0.015625)"/>
      <path id="Arial-BoldMT-68" d="M 1334 4581 
L 1334 2897 
Q 1759 3394 2350 3394 
Q 2653 3394 2897 3281 
Q 3141 3169 3264 2994 
Q 3388 2819 3433 2606 
Q 3478 2394 3478 1947 
L 3478 0 
L 2600 0 
L 2600 1753 
Q 2600 2275 2550 2415 
Q 2500 2556 2373 2639 
Q 2247 2722 2056 2722 
Q 1838 2722 1666 2615 
Q 1494 2509 1414 2295 
Q 1334 2081 1334 1663 
L 1334 0 
L 456 0 
L 456 4581 
L 1334 4581 
z
" transform="scale(0.015625)"/>
      <path id="Arial-BoldMT-4f" d="M 278 2263 
Q 278 2963 488 3438 
Q 644 3788 914 4066 
Q 1184 4344 1506 4478 
Q 1934 4659 2494 4659 
Q 3506 4659 4114 4031 
Q 4722 3403 4722 2284 
Q 4722 1175 4119 548 
Q 3516 -78 2506 -78 
Q 1484 -78 881 545 
Q 278 1169 278 2263 
z
M 1231 2294 
Q 1231 1516 1590 1114 
Q 1950 713 2503 713 
Q 3056 713 3411 1111 
Q 3766 1509 3766 2306 
Q 3766 3094 3420 3481 
Q 3075 3869 2503 3869 
Q 1931 3869 1581 3476 
Q 1231 3084 1231 2294 
z
" transform="scale(0.015625)"/>
      <path id="Arial-BoldMT-54" d="M 1497 0 
L 1497 3806 
L 138 3806 
L 138 4581 
L 3778 4581 
L 3778 3806 
L 2422 3806 
L 2422 0 
L 1497 0 
z
" transform="scale(0.015625)"/>
      <path id="Arial-BoldMT-6d" d="M 394 3319 
L 1203 3319 
L 1203 2866 
Q 1638 3394 2238 3394 
Q 2556 3394 2790 3262 
Q 3025 3131 3175 2866 
Q 3394 3131 3647 3262 
Q 3900 3394 4188 3394 
Q 4553 3394 4806 3245 
Q 5059 3097 5184 2809 
Q 5275 2597 5275 2122 
L 5275 0 
L 4397 0 
L 4397 1897 
Q 4397 2391 4306 2534 
Q 4184 2722 3931 2722 
Q 3747 2722 3584 2609 
Q 3422 2497 3350 2280 
Q 3278 2063 3278 1594 
L 3278 0 
L 2400 0 
L 2400 1819 
Q 2400 2303 2353 2443 
Q 2306 2584 2207 2653 
Q 2109 2722 1941 2722 
Q 1738 2722 1575 2612 
Q 1413 2503 1342 2297 
Q 1272 2091 1272 1613 
L 1272 0 
L 394 0 
L 394 3319 
z
" transform="scale(0.015625)"/>
     </defs>
     <use xlink:href="#Arial-BoldMT-43"/>
     <use xlink:href="#Arial-BoldMT-6c" x="72.216797"/>
     <use xlink:href="#Arial-BoldMT-75" x="100"/>
     <use xlink:href="#Arial-BoldMT-73" x="161.083984"/>
     <use xlink:href="#Arial-BoldMT-74" x="216.699219"/>
     <use xlink:href="#Arial-BoldMT-65" x="250"/>
     <use xlink:href="#Arial-BoldMT-72" x="305.615234"/>
     <use xlink:href="#Arial-BoldMT-20" x="344.53125"/>
     <use xlink:href="#Arial-BoldMT-32" x="372.314453"/>
     <use xlink:href="#Arial-BoldMT-3a" x="427.929688"/>
     <use xlink:href="#Arial-BoldMT-20" x="461.230469"/>
     <use xlink:href="#Arial-BoldMT-39" x="489.013672"/>
     <use xlink:href="#Arial-BoldMT-35" x="544.628906"/>
     <use xlink:href="#Arial-BoldMT-25" x="600.244141"/>
     <use xlink:href="#Arial-BoldMT-20" x="689.160156"/>
     <use xlink:href="#Arial-BoldMT-50" x="716.943359"/>
     <use xlink:href="#Arial-BoldMT-72" x="783.642578"/>
     <use xlink:href="#Arial-BoldMT-65" x="822.558594"/>
     <use xlink:href="#Arial-BoldMT-64" x="878.173828"/>
     <use xlink:href="#Arial-BoldMT-69" x="939.257812"/>
     <use xlink:href="#Arial-BoldMT-63" x="967.041016"/>
     <use xlink:href="#Arial-BoldMT-74" x="1022.65625"/>
     <use xlink:href="#Arial-BoldMT-69" x="1055.957031"/>
     <use xlink:href="#Arial-BoldMT-6f" x="1083.740234"/>
     <use xlink:href="#Arial-BoldMT-6e" x="1144.824219"/>
     <use xlink:href="#Arial-BoldMT-20" x="1205.908203"/>
     <use xlink:href="#Arial-BoldMT-49" x="1233.691406"/>
     <use xlink:href="#Arial-BoldMT-6e" x="1261.474609"/>
     <use xlink:href="#Arial-BoldMT-74" x="1322.558594"/>
     <use xlink:href="#Arial-BoldMT-65" x="1355.859375"/>
     <use xlink:href="#Arial-BoldMT-72" x="1411.474609"/>
     <use xlink:href="#Arial-BoldMT-76" x="1450.390625"/>
     <use xlink:href="#Arial-BoldMT-61" x="1506.005859"/>
     <use xlink:href="#Arial-BoldMT-6c" x="1561.621094"/>
     <use xlink:href="#Arial-BoldMT-20" x="1589.404297"/>
     <use xlink:href="#Arial-BoldMT-57" x="1617.1875"/>
     <use xlink:href="#Arial-BoldMT-69" x="1710.697266"/>
     <use xlink:href="#Arial-BoldMT-64" x="1738.480469"/>
     <use xlink:href="#Arial-BoldMT-74" x="1799.564453"/>
     <use xlink:href="#Arial-BoldMT-68" x="1832.865234"/>
     <use xlink:href="#Arial-BoldMT-20" x="1893.949219"/>
     <use xlink:href="#Arial-BoldMT-4f" x="1921.732422"/>
     <use xlink:href="#Arial-BoldMT-76" x="1999.515625"/>
     <use xlink:href="#Arial-BoldMT-65" x="2055.130859"/>
     <use xlink:href="#Arial-BoldMT-72" x="2110.746094"/>
     <use xlink:href="#Arial-BoldMT-20" x="2149.662109"/>
     <use xlink:href="#Arial-BoldMT-54" x="2177.445312"/>
     <use xlink:href="#Arial-BoldMT-69" x="2236.779297"/>
     <use xlink:href="#Arial-BoldMT-6d" x="2264.5625"/>
     <use xlink:href="#Arial-BoldMT-65" x="2353.478516"/>
    </g>
   </g>
   <g id="legend_1">
    <g id="line2d_20">
     <path d="M 567.473281 32.013125 
L 575.473281 32.013125 
L 583.473281 32.013125 
" style="fill: none; stroke: #ff7f0e; stroke-opacity: 0.35; stroke-width: 1.2; stroke-linecap: round"/>
    </g>
    <g id="text_19">
     <!-- Model 1 (Holt-Winters / ETS) 95% interval width -->
     <g style="fill: #262626" transform="translate(589.873281 34.813125) scale(0.08 -0.08)">
      <defs>
       <path id="ArialMT-4d" d="M 475 0 
L 475 4581 
L 1388 4581 
L 2472 1338 
Q 2622 884 2691 659 
Q 2769 909 2934 1394 
L 4031 4581 
L 4847 4581 
L 4847 0 
L 4263 0 
L 4263 3834 
L 2931 0 
L 2384 0 
L 1059 3900 
L 1059 0 
L 475 0 
z
" transform="scale(0.015625)"/>
       <path id="ArialMT-6f" d="M 213 1659 
Q 213 2581 725 3025 
Q 1153 3394 1769 3394 
Q 2453 3394 2887 2945 
Q 3322 2497 3322 1706 
Q 3322 1066 3130 698 
Q 2938 331 2570 128 
Q 2203 -75 1769 -75 
Q 1072 -75 642 372 
Q 213 819 213 1659 
z
M 791 1659 
Q 791 1022 1069 705 
Q 1347 388 1769 388 
Q 2188 388 2466 706 
Q 2744 1025 2744 1678 
Q 2744 2294 2464 2611 
Q 2184 2928 1769 2928 
Q 1347 2928 1069 2612 
Q 791 2297 791 1659 
z
" transform="scale(0.015625)"/>
       <path id="ArialMT-28" d="M 1497 -1347 
Q 1031 -759 709 28 
Q 388 816 388 1659 
Q 388 2403 628 3084 
Q 909 3875 1497 4659 
L 1900 4659 
Q 1522 4009 1400 3731 
Q 1209 3300 1100 2831 
Q 966 2247 966 1656 
Q 966 153 1900 -1347 
L 1497 -1347 
z
" transform="scale(0.015625)"/>
       <path id="ArialMT-48" d="M 513 0 
L 513 4581 
L 1119 4581 
L 1119 2700 
L 3500 2700 
L 3500 4581 
L 4106 4581 
L 4106 0 
L 3500 0 
L 3500 2159 
L 1119 2159 
L 1119 0 
L 513 0 
z
" transform="scale(0.015625)"/>
       <path id="ArialMT-57" d="M 1294 0 
L 78 4581 
L 700 4581 
L 1397 1578 
Q 1509 1106 1591 641 
Q 1766 1375 1797 1488 
L 2669 4581 
L 3400 4581 
L 4056 2263 
Q 4303 1400 4413 641 
Q 4500 1075 4641 1638 
L 5359 4581 
L 5969 4581 
L 4713 0 
L 4128 0 
L 3163 3491 
Q 3041 3928 3019 4028 
Q 2947 3713 2884 3491 
L 1913 0 
L 1294 0 
z
" transform="scale(0.015625)"/>
       <path id="ArialMT-73" d="M 197 991 
L 753 1078 
Q 800 744 1014 566 
Q 1228 388 1613 388 
Q 2000 388 2187 545 
Q 2375 703 2375 916 
Q 2375 1106 2209 1216 
Q 2094 1291 1634 1406 
Q 1016 1563 777 1677 
Q 538 1791 414 1992 
Q 291 2194 291 2438 
Q 291 2659 392 2848 
Q 494 3038 669 3163 
Q 800 3259 1026 3326 
Q 1253 3394 1513 3394 
Q 1903 3394 2198 3281 
Q 2494 3169 2634 2976 
Q 2775 2784 2828 2463 
L 2278 2388 
Q 2241 2644 2061 2787 
Q 1881 2931 1553 2931 
Q 1166 2931 1000 2803 
Q 834 2675 834 2503 
Q 834 2394 903 2306 
Q 972 2216 1119 2156 
Q 1203 2125 1616 2013 
Q 2213 1853 2448 1751 
Q 2684 1650 2818 1456 
Q 2953 1263 2953 975 
Q 2953 694 2789 445 
Q 2625 197 2315 61 
Q 2006 -75 1616 -75 
Q 969 -75 630 194 
Q 291 463 197 991 
z
" transform="scale(0.015625)"/>
       <path id="ArialMT-2f" d="M 0 -78 
L 1328 4659 
L 1778 4659 
L 453 -78 
L 0 -78 
z
" transform="scale(0.015625)"/>
       <path id="ArialMT-45" d="M 506 0 
L 506 4581 
L 3819 4581 
L 3819 4041 
L 1113 4041 
L 1113 2638 
L 3647 2638 
L 3647 2100 
L 1113 2100 
L 1113 541 
L 3925 541 
L 3925 0 
L 506 0 
z
" transform="scale(0.015625)"/>
       <path id="ArialMT-54" d="M 1659 0 
L 1659 4041 
L 150 4041 
L 150 4581 
L 3781 4581 
L 3781 4041 
L 2266 4041 
L 2266 0 
L 1659 0 
z
" transform="scale(0.015625)"/>
       <path id="ArialMT-53" d="M 288 1472 
L 859 1522 
Q 900 1178 1048 958 
Q 1197 738 1509 602 
Q 1822 466 2213 466 
Q 2559 466 2825 569 
Q 3091 672 3220 851 
Q 3350 1031 3350 1244 
Q 3350 1459 3225 1620 
Q 3100 1781 2813 1891 
Q 2628 1963 1997 2114 
Q 1366 2266 1113 2400 
Q 784 2572 623 2826 
Q 463 3081 463 3397 
Q 463 3744 659 4045 
Q 856 4347 1234 4503 
Q 1613 4659 2075 4659 
Q 2584 4659 2973 4495 
Q 3363 4331 3572 4012 
Q 3781 3694 3797 3291 
L 3216 3247 
Q 3169 3681 2898 3903 
Q 2628 4125 2100 4125 
Q 1550 4125 1298 3923 
Q 1047 3722 1047 3438 
Q 1047 3191 1225 3031 
Q 1400 2872 2139 2705 
Q 2878 2538 3153 2413 
Q 3553 2228 3743 1945 
Q 3934 1663 3934 1294 
Q 3934 928 3725 604 
Q 3516 281 3123 101 
Q 2731 -78 2241 -78 
Q 1619 -78 1198 103 
Q 778 284 539 648 
Q 300 1013 288 1472 
z
" transform="scale(0.015625)"/>
       <path id="ArialMT-29" d="M 791 -1347 
L 388 -1347 
Q 1322 153 1322 1656 
Q 1322 2244 1188 2822 
Q 1081 3291 891 3722 
Q 769 4003 388 4659 
L 791 4659 
Q 1378 3875 1659 3084 
Q 1900 2403 1900 1659 
Q 1900 816 1576 28 
Q 1253 -759 791 -1347 
z
" transform="scale(0.015625)"/>
       <path id="ArialMT-35" d="M 266 1200 
L 856 1250 
Q 922 819 1161 601 
Q 1400 384 1738 384 
Q 2144 384 2425 690 
Q 2706 997 2706 1503 
Q 2706 1984 2436 2262 
Q 2166 2541 1728 2541 
Q 1456 2541 1237 2417 
Q 1019 2294 894 2097 
L 366 2166 
L 809 4519 
L 3088 4519 
L 3088 3981 
L 1259 3981 
L 1013 2750 
Q 1425 3038 1878 3038 
Q 2478 3038 2890 2622 
Q 3303 2206 3303 1553 
Q 3303 931 2941 478 
Q 2500 -78 1738 -78 
Q 1113 -78 717 272 
Q 322 622 266 1200 
z
" transform="scale(0.015625)"/>
       <path id="ArialMT-25" d="M 372 3481 
Q 372 3972 619 4315 
Q 866 4659 1334 4659 
Q 1766 4659 2048 4351 
Q 2331 4044 2331 3447 
Q 2331 2866 2045 2552 
Q 1759 2238 1341 2238 
Q 925 2238 648 2547 
Q 372 2856 372 3481 
z
M 1350 4272 
Q 1141 4272 1002 4090 
Q 863 3909 863 3425 
Q 863 2984 1003 2804 
Q 1144 2625 1350 2625 
Q 1563 2625 1702 2806 
Q 1841 2988 1841 3469 
Q 1841 3913 1700 4092 
Q 1559 4272 1350 4272 
z
M 1353 -169 
L 3859 4659 
L 4316 4659 
L 1819 -169 
L 1353 -169 
z
M 3334 1075 
Q 3334 1569 3581 1911 
Q 3828 2253 4300 2253 
Q 4731 2253 5014 1945 
Q 5297 1638 5297 1041 
Q 5297 459 5011 145 
Q 4725 -169 4303 -169 
Q 3888 -169 3611 142 
Q 3334 453 3334 1075 
z
M 4316 1866 
Q 4103 1866 3964 1684 
Q 3825 1503 3825 1019 
Q 3825 581 3965 400 
Q 4106 219 4313 219 
Q 4528 219 4667 400 
Q 4806 581 4806 1063 
Q 4806 1506 4665 1686 
Q 4525 1866 4316 1866 
z
" transform="scale(0.015625)"/>
      </defs>
      <use xlink:href="#ArialMT-4d"/>
      <use xlink:href="#ArialMT-6f" x="83.300781"/>
      <use xlink:href="#ArialMT-64" x="138.916016"/>
      <use xlink:href="#ArialMT-65" x="194.53125"/>
      <use xlink:href="#ArialMT-6c" x="250.146484"/>
      <use xlink:href="#ArialMT-20" x="272.363281"/>
      <use xlink:href="#ArialMT-31" x="300.146484"/>
      <use xlink:href="#ArialMT-20" x="355.761719"/>
      <use xlink:href="#ArialMT-28" x="383.544922"/>
      <use xlink:href="#ArialMT-48" x="416.845703"/>
      <use xlink:href="#ArialMT-6f" x="489.0625"/>
      <use xlink:href="#ArialMT-6c" x="544.677734"/>
      <use xlink:href="#ArialMT-74" x="566.894531"/>
      <use xlink:href="#ArialMT-2d" x="594.677734"/>
      <use xlink:href="#ArialMT-57" x="627.978516"/>
      <use xlink:href="#ArialMT-69" x="722.363281"/>
      <use xlink:href="#ArialMT-6e" x="744.580078"/>
      <use xlink:href="#ArialMT-74" x="800.195312"/>
      <use xlink:href="#ArialMT-65" x="827.978516"/>
      <use xlink:href="#ArialMT-72" x="883.59375"/>
      <use xlink:href="#ArialMT-73" x="916.894531"/>
      <use xlink:href="#ArialMT-20" x="966.894531"/>
      <use xlink:href="#ArialMT-2f" x="994.677734"/>
      <use xlink:href="#ArialMT-20" x="1022.460938"/>
      <use xlink:href="#ArialMT-45" x="1050.244141"/>
      <use xlink:href="#ArialMT-54" x="1116.943359"/>
      <use xlink:href="#ArialMT-53" x="1178.027344"/>
      <use xlink:href="#ArialMT-29" x="1244.726562"/>
      <use xlink:href="#ArialMT-20" x="1278.027344"/>
      <use xlink:href="#ArialMT-39" x="1305.810547"/>
      <use xlink:href="#ArialMT-35" x="1361.425781"/>
      <use xlink:href="#ArialMT-25" x="1417.041016"/>
      <use xlink:href="#ArialMT-20" x="1505.957031"/>
      <use xlink:href="#ArialMT-69" x="1533.740234"/>
      <use xlink:href="#ArialMT-6e" x="1555.957031"/>
      <use xlink:href="#ArialMT-74" x="1611.572266"/>
      <use xlink:href="#ArialMT-65" x="1639.355469"/>
      <use xlink:href="#ArialMT-72" x="1694.970703"/>
      <use xlink:href="#ArialMT-76" x="1728.271484"/>
      <use xlink:href="#ArialMT-61" x="1778.271484"/>
      <use xlink:href="#ArialMT-6c" x="1833.886719"/>
      <use xlink:href="#ArialMT-20" x="1856.103516"/>
      <use xlink:href="#ArialMT-77" x="1883.886719"/>
      <use xlink:href="#ArialMT-69" x="1956.103516"/>
      <use xlink:href="#ArialMT-64" x="1978.320312"/>
      <use xlink:href="#ArialMT-74" x="2033.935547"/>
      <use xlink:href="#ArialMT-68" x="2061.71875"/>
     </g>
    </g>
    <g id="line2d_21">
     <path d="M 567.473281 43.520625 
L 575.473281 43.520625 
L 583.473281 43.520625 
" style="fill: none; stroke: #2ca02c; stroke-opacity: 0.35; stroke-width: 1.2; stroke-linecap: round"/>
    </g>
    <g id="text_20">
     <!-- Model 2 (Global LGBM) 95% interval width -->
     <g style="fill: #262626" transform="translate(589.873281 46.320625) scale(0.08 -0.08)">
      <defs>
       <path id="ArialMT-47" d="M 2638 1797 
L 2638 2334 
L 4578 2338 
L 4578 638 
Q 4131 281 3656 101 
Q 3181 -78 2681 -78 
Q 2006 -78 1454 211 
Q 903 500 622 1047 
Q 341 1594 341 2269 
Q 341 2938 620 3517 
Q 900 4097 1425 4378 
Q 1950 4659 2634 4659 
Q 3131 4659 3532 4498 
Q 3934 4338 4162 4050 
Q 4391 3763 4509 3300 
L 3963 3150 
Q 3859 3500 3706 3700 
Q 3553 3900 3268 4020 
Q 2984 4141 2638 4141 
Q 2222 4141 1919 4014 
Q 1616 3888 1430 3681 
Q 1244 3475 1141 3228 
Q 966 2803 966 2306 
Q 966 1694 1177 1281 
Q 1388 869 1791 669 
Q 2194 469 2647 469 
Q 3041 469 3416 620 
Q 3791 772 3984 944 
L 3984 1797 
L 2638 1797 
z
" transform="scale(0.015625)"/>
       <path id="ArialMT-62" d="M 941 0 
L 419 0 
L 419 4581 
L 981 4581 
L 981 2947 
Q 1338 3394 1891 3394 
Q 2197 3394 2470 3270 
Q 2744 3147 2920 2923 
Q 3097 2700 3197 2384 
Q 3297 2069 3297 1709 
Q 3297 856 2875 390 
Q 2453 -75 1863 -75 
Q 1275 -75 941 416 
L 941 0 
z
M 934 1684 
Q 934 1088 1097 822 
Q 1363 388 1816 388 
Q 2184 388 2453 708 
Q 2722 1028 2722 1663 
Q 2722 2313 2464 2622 
Q 2206 2931 1841 2931 
Q 1472 2931 1203 2611 
Q 934 2291 934 1684 
z
" transform="scale(0.015625)"/>
       <path id="ArialMT-4c" d="M 469 0 
L 469 4581 
L 1075 4581 
L 1075 541 
L 3331 541 
L 3331 0 
L 469 0 
z
" transform="scale(0.015625)"/>
       <path id="ArialMT-42" d="M 469 0 
L 469 4581 
L 2188 4581 
Q 2713 4581 3030 4442 
Q 3347 4303 3526 4014 
Q 3706 3725 3706 3409 
Q 3706 3116 3547 2856 
Q 3388 2597 3066 2438 
Q 3481 2316 3704 2022 
Q 3928 1728 3928 1328 
Q 3928 1006 3792 729 
Q 3656 453 3456 303 
Q 3256 153 2954 76 
Q 2653 0 2216 0 
L 469 0 
z
M 1075 2656 
L 2066 2656 
Q 2469 2656 2644 2709 
Q 2875 2778 2992 2937 
Q 3109 3097 3109 3338 
Q 3109 3566 3000 3739 
Q 2891 3913 2687 3977 
Q 2484 4041 1991 4041 
L 1075 4041 
L 1075 2656 
z
M 1075 541 
L 2216 541 
Q 2509 541 2628 563 
Q 2838 600 2978 687 
Q 3119 775 3209 942 
Q 3300 1109 3300 1328 
Q 3300 1584 3169 1773 
Q 3038 1963 2805 2039 
Q 2572 2116 2134 2116 
L 1075 2116 
L 1075 541 
z
" transform="scale(0.015625)"/>
      </defs>
      <use xlink:href="#ArialMT-4d"/>
      <use xlink:href="#ArialMT-6f" x="83.300781"/>
      <use xlink:href="#ArialMT-64" x="138.916016"/>
      <use xlink:href="#ArialMT-65" x="194.53125"/>
      <use xlink:href="#ArialMT-6c" x="250.146484"/>
      <use xlink:href="#ArialMT-20" x="272.363281"/>
      <use xlink:href="#ArialMT-32" x="300.146484"/>
      <use xlink:href="#ArialMT-20" x="355.761719"/>
      <use xlink:href="#ArialMT-28" x="383.544922"/>
      <use xlink:href="#ArialMT-47" x="416.845703"/>
      <use xlink:href="#ArialMT-6c" x="494.628906"/>
      <use xlink:href="#ArialMT-6f" x="516.845703"/>
      <use xlink:href="#ArialMT-62" x="572.460938"/>
      <use xlink:href="#ArialMT-61" x="628.076172"/>
      <use xlink:href="#ArialMT-6c" x="683.691406"/>
      <use xlink:href="#ArialMT-20" x="705.908203"/>
      <use xlink:href="#ArialMT-4c" x="733.691406"/>
      <use xlink:href="#ArialMT-47" x="789.306641"/>
      <use xlink:href="#ArialMT-42" x="867.089844"/>
      <use xlink:href="#ArialMT-4d" x="933.789062"/>
      <use xlink:href="#ArialMT-29" x="1017.089844"/>
      <use xlink:href="#ArialMT-20" x="1050.390625"/>
      <use xlink:href="#ArialMT-39" x="1078.173828"/>
      <use xlink:href="#ArialMT-35" x="1133.789062"/>
      <use xlink:href="#ArialMT-25" x="1189.404297"/>
      <use xlink:href="#ArialMT-20" x="1278.320312"/>
      <use xlink:href="#ArialMT-69" x="1306.103516"/>
      <use xlink:href="#ArialMT-6e" x="1328.320312"/>
      <use xlink:href="#ArialMT-74" x="1383.935547"/>
      <use xlink:href="#ArialMT-65" x="1411.71875"/>
      <use xlink:href="#ArialMT-72" x="1467.333984"/>
      <use xlink:href="#ArialMT-76" x="1500.634766"/>
      <use xlink:href="#ArialMT-61" x="1550.634766"/>
      <use xlink:href="#ArialMT-6c" x="1606.25"/>
      <use xlink:href="#ArialMT-20" x="1628.466797"/>
      <use xlink:href="#ArialMT-77" x="1656.25"/>
      <use xlink:href="#ArialMT-69" x="1728.466797"/>
      <use xlink:href="#ArialMT-64" x="1750.683594"/>
      <use xlink:href="#ArialMT-74" x="1806.298828"/>
      <use xlink:href="#ArialMT-68" x="1834.082031"/>
     </g>
    </g>
    <g id="line2d_22">
     <path d="M 775.252031 32.013125 
L 783.252031 32.013125 
L 791.252031 32.013125 
" style="fill: none; stroke: #ff7f0e; stroke-width: 2; stroke-linecap: round"/>
    </g>
    <g id="text_21">
     <!-- Model 1 (Holt-Winters / ETS) interval width 7d mean -->
     <g style="fill: #262626" transform="translate(797.652031 34.813125) scale(0.08 -0.08)">
      <defs>
       <path id="ArialMT-6d" d="M 422 0 
L 422 3319 
L 925 3319 
L 925 2853 
Q 1081 3097 1340 3245 
Q 1600 3394 1931 3394 
Q 2300 3394 2536 3241 
Q 2772 3088 2869 2813 
Q 3263 3394 3894 3394 
Q 4388 3394 4653 3120 
Q 4919 2847 4919 2278 
L 4919 0 
L 4359 0 
L 4359 2091 
Q 4359 2428 4304 2576 
Q 4250 2725 4106 2815 
Q 3963 2906 3769 2906 
Q 3419 2906 3187 2673 
Q 2956 2441 2956 1928 
L 2956 0 
L 2394 0 
L 2394 2156 
Q 2394 2531 2256 2718 
Q 2119 2906 1806 2906 
Q 1569 2906 1367 2781 
Q 1166 2656 1075 2415 
Q 984 2175 984 1722 
L 984 0 
L 422 0 
z
" transform="scale(0.015625)"/>
      </defs>
      <use xlink:href="#ArialMT-4d"/>
      <use xlink:href="#ArialMT-6f" x="83.300781"/>
      <use xlink:href="#ArialMT-64" x="138.916016"/>
      <use xlink:href="#ArialMT-65" x="194.53125"/>
      <use xlink:href="#ArialMT-6c" x="250.146484"/>
      <use xlink:href="#ArialMT-20" x="272.363281"/>
      <use xlink:href="#ArialMT-31" x="300.146484"/>
      <use xlink:href="#ArialMT-20" x="355.761719"/>
      <use xlink:href="#ArialMT-28" x="383.544922"/>
      <use xlink:href="#ArialMT-48" x="416.845703"/>
      <use xlink:href="#ArialMT-6f" x="489.0625"/>
      <use xlink:href="#ArialMT-6c" x="544.677734"/>
      <use xlink:href="#ArialMT-74" x="566.894531"/>
      <use xlink:href="#ArialMT-2d" x="594.677734"/>
      <use xlink:href="#ArialMT-57" x="627.978516"/>
      <use xlink:href="#ArialMT-69" x="722.363281"/>
      <use xlink:href="#ArialMT-6e" x="744.580078"/>
      <use xlink:href="#ArialMT-74" x="800.195312"/>
      <use xlink:href="#ArialMT-65" x="827.978516"/>
      <use xlink:href="#ArialMT-72" x="883.59375"/>
      <use xlink:href="#ArialMT-73" x="916.894531"/>
      <use xlink:href="#ArialMT-20" x="966.894531"/>
      <use xlink:href="#ArialMT-2f" x="994.677734"/>
      <use xlink:href="#ArialMT-20" x="1022.460938"/>
      <use xlink:href="#ArialMT-45" x="1050.244141"/>
      <use xlink:href="#ArialMT-54" x="1116.943359"/>
      <use xlink:href="#ArialMT-53" x="1178.027344"/>
      <use xlink:href="#ArialMT-29" x="1244.726562"/>
      <use xlink:href="#ArialMT-20" x="1278.027344"/>
      <use xlink:href="#ArialMT-69" x="1305.810547"/>
      <use xlink:href="#ArialMT-6e" x="1328.027344"/>
      <use xlink:href="#ArialMT-74" x="1383.642578"/>
      <use xlink:href="#ArialMT-65" x="1411.425781"/>
      <use xlink:href="#ArialMT-72" x="1467.041016"/>
      <use xlink:href="#ArialMT-76" x="1500.341797"/>
      <use xlink:href="#ArialMT-61" x="1550.341797"/>
      <use xlink:href="#ArialMT-6c" x="1605.957031"/>
      <use xlink:href="#ArialMT-20" x="1628.173828"/>
      <use xlink:href="#ArialMT-77" x="1655.957031"/>
      <use xlink:href="#ArialMT-69" x="1728.173828"/>
      <use xlink:href="#ArialMT-64" x="1750.390625"/>
      <use xlink:href="#ArialMT-74" x="1806.005859"/>
      <use xlink:href="#ArialMT-68" x="1833.789062"/>
      <use xlink:href="#ArialMT-20" x="1889.404297"/>
      <use xlink:href="#ArialMT-37" x="1917.1875"/>
      <use xlink:href="#ArialMT-64" x="1972.802734"/>
      <use xlink:href="#ArialMT-20" x="2028.417969"/>
      <use xlink:href="#ArialMT-6d" x="2056.201172"/>
      <use xlink:href="#ArialMT-65" x="2139.501953"/>
      <use xlink:href="#ArialMT-61" x="2195.117188"/>
      <use xlink:href="#ArialMT-6e" x="2250.732422"/>
     </g>
    </g>
    <g id="line2d_23">
     <path d="M 775.252031 43.520625 
L 783.252031 43.520625 
L 791.252031 43.520625 
" style="fill: none; stroke: #2ca02c; stroke-width: 2; stroke-linecap: round"/>
    </g>
    <g id="text_22">
     <!-- Model 2 (Global LGBM) interval width 7d mean -->
     <g style="fill: #262626" transform="translate(797.652031 46.320625) scale(0.08 -0.08)">
      <use xlink:href="#ArialMT-4d"/>
      <use xlink:href="#ArialMT-6f" x="83.300781"/>
      <use xlink:href="#ArialMT-64" x="138.916016"/>
      <use xlink:href="#ArialMT-65" x="194.53125"/>
      <use xlink:href="#ArialMT-6c" x="250.146484"/>
      <use xlink:href="#ArialMT-20" x="272.363281"/>
      <use xlink:href="#ArialMT-32" x="300.146484"/>
      <use xlink:href="#ArialMT-20" x="355.761719"/>
      <use xlink:href="#ArialMT-28" x="383.544922"/>
      <use xlink:href="#ArialMT-47" x="416.845703"/>
      <use xlink:href="#ArialMT-6c" x="494.628906"/>
      <use xlink:href="#ArialMT-6f" x="516.845703"/>
      <use xlink:href="#ArialMT-62" x="572.460938"/>
      <use xlink:href="#ArialMT-61" x="628.076172"/>
      <use xlink:href="#ArialMT-6c" x="683.691406"/>
      <use xlink:href="#ArialMT-20" x="705.908203"/>
      <use xlink:href="#ArialMT-4c" x="733.691406"/>
      <use xlink:href="#ArialMT-47" x="789.306641"/>
      <use xlink:href="#ArialMT-42" x="867.089844"/>
      <use xlink:href="#ArialMT-4d" x="933.789062"/>
      <use xlink:href="#ArialMT-29" x="1017.089844"/>
      <use xlink:href="#ArialMT-20" x="1050.390625"/>
      <use xlink:href="#ArialMT-69" x="1078.173828"/>
      <use xlink:href="#ArialMT-6e" x="1100.390625"/>
      <use xlink:href="#ArialMT-74" x="1156.005859"/>
      <use xlink:href="#ArialMT-65" x="1183.789062"/>
      <use xlink:href="#ArialMT-72" x="1239.404297"/>
      <use xlink:href="#ArialMT-76" x="1272.705078"/>
      <use xlink:href="#ArialMT-61" x="1322.705078"/>
      <use xlink:href="#ArialMT-6c" x="1378.320312"/>
      <use xlink:href="#ArialMT-20" x="1400.537109"/>
      <use xlink:href="#ArialMT-77" x="1428.320312"/>
      <use xlink:href="#ArialMT-69" x="1500.537109"/>
      <use xlink:href="#ArialMT-64" x="1522.753906"/>
      <use xlink:href="#ArialMT-74" x="1578.369141"/>
      <use xlink:href="#ArialMT-68" x="1606.152344"/>
      <use xlink:href="#ArialMT-20" x="1661.767578"/>
      <use xlink:href="#ArialMT-37" x="1689.550781"/>
      <use xlink:href="#ArialMT-64" x="1745.166016"/>
      <use xlink:href="#ArialMT-20" x="1800.78125"/>
      <use xlink:href="#ArialMT-6d" x="1828.564453"/>
      <use xlink:href="#ArialMT-65" x="1911.865234"/>
      <use xlink:href="#ArialMT-61" x="1967.480469"/>
      <use xlink:href="#ArialMT-6e" x="2023.095703"/>
     </g>
    </g>
   </g>
  </g>
 </g>
 <defs>
  <clipPath id="pc738aaae1f">
   <rect x="62.259531" y="21.789375" width="927.09" height="213.06"/>
  </clipPath>
 </defs>
</svg>
