<?xml version="1.0" encoding="utf-8" standalone="no"?>
<!DOCTYPE svg PUBLIC "-//W3C//DTD SVG 1.1//EN"
  "http://www.w3.org/Graphics/SVG/1.1/DTD/svg11.dtd">
<svg xmlns:xlink="http://www.w3.org/1999/xlink" width="996.723906pt" height="348.583594pt" viewBox="0 0 996.723906 348.583594" xmlns="http://www.w3.org/2000/svg" version="1.1">
 <metadata>
  <rdf:RDF xmlns:dc="http://purl.org/dc/elements/1.1/" xmlns:cc="http://creativecommons.org/ns#" xmlns:rdf="http://www.w3.org/1999/02/22-rdf-syntax-ns#">
   <cc:Work>
    <dc:type rdf:resource="http://purl.org/dc/dcmitype/StillImage"/>
    <dc:date>2026-03-27T23:08:25.063437</dc:date>
    <dc:format>image/svg+xml</dc:format>
    <dc:creator>
     <cc:Agent>
      <dc:title>Matplotlib v3.9.4, https://matplotlib.org/</dc:title>
     </cc:Agent>
    </dc:creator>
   </cc:Work>
  </rdf:RDF>
 </metadata>
 <defs>
  <style type="text/css">*{stroke-linejoin: round; stroke-linecap: butt}</style>
 </defs>
 <g id="figure_1">
  <g id="patch_1">
   <path d="M 0 348.583594 
L 996.723906 348.583594 
L 996.723906 0 
L 0 0 
z
" style="fill: #ffffff"/>
  </g>
  <g id="axes_1">
   <g id="patch_2">
    <path d="M 62.400156 306.849375 
L 989.523906 306.849375 
L 989.523906 21.789375 
L 62.400156 21.789375 
z
" style="fill: #ffffff"/>
   </g>
   <g id="matplotlib.axis_1">
    <g id="xtick_1">
     <g id="line2d_1">
      <path d="M 72.477588 306.849375 
L 72.477588 21.789375 
" clip-path="url(#pccf1b9a28b)" style="fill: none; stroke: #cccccc; stroke-linecap: round"/>
     </g>
     <g id="text_1">
      <!-- 2011-06 -->
      <g style="fill: #262626" transform="translate(52.700791 324.222969) scale(0.11 -0.11)">
       <defs>
        <path id="ArialMT-32" d="M 3222 541 
L 3222 0 
L 194 0 
Q 188 203 259 391 
Q 375 700 629 1000 
Q 884 1300 1366 1694 
Q 2113 2306 2375 2664 
Q 2638 3022 2638 3341 
Q 2638 3675 2398 3904 
Q 2159 4134 1775 4134 
Q 1369 4134 1125 3890 
Q 881 3647 878 3216 
L 300 3275 
Q 359 3922 746 4261 
Q 1134 4600 1788 4600 
Q 2447 4600 2831 4234 
Q 3216 3869 3216 3328 
Q 3216 3053 3103 2787 
Q 2991 2522 2730 2228 
Q 2469 1934 1863 1422 
Q 1356 997 1212 845 
Q 1069 694 975 541 
L 3222 541 
z
" transform="scale(0.015625)"/>
        <path id="ArialMT-30" d="M 266 2259 
Q 266 3072 433 3567 
Q 600 4063 929 4331 
Q 1259 4600 1759 4600 
Q 2128 4600 2406 4451 
Q 2684 4303 2865 4023 
Q 3047 3744 3150 3342 
Q 3253 2941 3253 2259 
Q 3253 1453 3087 958 
Q 2922 463 2592 192 
Q 2263 -78 1759 -78 
Q 1097 -78 719 397 
Q 266 969 266 2259 
z
M 844 2259 
Q 844 1131 1108 757 
Q 1372 384 1759 384 
Q 2147 384 2411 759 
Q 2675 1134 2675 2259 
Q 2675 3391 2411 3762 
Q 2147 4134 1753 4134 
Q 1366 4134 1134 3806 
Q 844 3388 844 2259 
z
" transform="scale(0.015625)"/>
        <path id="ArialMT-31" d="M 2384 0 
L 1822 0 
L 1822 3584 
Q 1619 3391 1289 3197 
Q 959 3003 697 2906 
L 697 3450 
Q 1169 3672 1522 3987 
Q 1875 4303 2022 4600 
L 2384 4600 
L 2384 0 
z
" transform="scale(0.015625)"/>
        <path id="ArialMT-2d" d="M 203 1375 
L 203 1941 
L 1931 1941 
L 1931 1375 
L 203 1375 
z
" transform="scale(0.015625)"/>
        <path id="ArialMT-36" d="M 3184 3459 
L 2625 3416 
Q 2550 3747 2413 3897 
Q 2184 4138 1850 4138 
Q 1581 4138 1378 3988 
Q 1113 3794 959 3422 
Q 806 3050 800 2363 
Q 1003 2672 1297 2822 
Q 1591 2972 1913 2972 
Q 2475 2972 2870 2558 
Q 3266 2144 3266 1488 
Q 3266 1056 3080 686 
Q 2894 316 2569 119 
Q 2244 -78 1831 -78 
Q 1128 -78 684 439 
Q 241 956 241 2144 
Q 241 3472 731 4075 
Q 1159 4600 1884 4600 
Q 2425 4600 2770 4297 
Q 3116 3994 3184 3459 
z
M 888 1484 
Q 888 1194 1011 928 
Q 1134 663 1356 523 
Q 1578 384 1822 384 
Q 2178 384 2434 671 
Q 2691 959 2691 1453 
Q 2691 1928 2437 2201 
Q 2184 2475 1800 2475 
Q 1419 2475 1153 2201 
Q 888 1928 888 1484 
z
" transform="scale(0.015625)"/>
       </defs>
       <use xlink:href="#ArialMT-32"/>
       <use xlink:href="#ArialMT-30" x="55.615234"/>
       <use xlink:href="#ArialMT-31" x="111.230469"/>
       <use xlink:href="#ArialMT-31" x="159.470703"/>
       <use xlink:href="#ArialMT-2d" x="215.085938"/>
       <use xlink:href="#ArialMT-30" x="248.386719"/>
       <use xlink:href="#ArialMT-36" x="304.001953"/>
      </g>
     </g>
    </g>
    <g id="xtick_2">
     <g id="line2d_2">
      <path d="M 209.897116 306.849375 
L 209.897116 21.789375 
" clip-path="url(#pccf1b9a28b)" style="fill: none; stroke: #cccccc; stroke-linecap: round"/>
     </g>
     <g id="text_2">
      <!-- 2011-07 -->
      <g style="fill: #262626" transform="translate(190.12032 324.222969) scale(0.11 -0.11)">
       <defs>
        <path id="ArialMT-37" d="M 303 3981 
L 303 4522 
L 3269 4522 
L 3269 4084 
Q 2831 3619 2401 2847 
Q 1972 2075 1738 1259 
Q 1569 684 1522 0 
L 944 0 
Q 953 541 1156 1306 
Q 1359 2072 1739 2783 
Q 2119 3494 2547 3981 
L 303 3981 
z
" transform="scale(0.015625)"/>
       </defs>
       <use xlink:href="#ArialMT-32"/>
       <use xlink:href="#ArialMT-30" x="55.615234"/>
       <use xlink:href="#ArialMT-31" x="111.230469"/>
       <use xlink:href="#ArialMT-31" x="159.470703"/>
       <use xlink:href="#ArialMT-2d" x="215.085938"/>
       <use xlink:href="#ArialMT-30" x="248.386719"/>
       <use xlink:href="#ArialMT-37" x="304.001953"/>
      </g>
     </g>
    </g>
    <g id="xtick_3">
     <g id="line2d_3">
      <path d="M 351.897296 306.849375 
L 351.897296 21.789375 
" clip-path="url(#pccf1b9a28b)" style="fill: none; stroke: #cccccc; stroke-linecap: round"/>
     </g>
     <g id="text_3">
      <!-- 2011-08 -->
      <g style="fill: #262626" transform="translate(332.120499 324.222969) scale(0.11 -0.11)">
       <defs>
        <path id="ArialMT-38" d="M 1131 2484 
Q 781 2613 612 2850 
Q 444 3088 444 3419 
Q 444 3919 803 4259 
Q 1163 4600 1759 4600 
Q 2359 4600 2725 4251 
Q 3091 3903 3091 3403 
Q 3091 3084 2923 2848 
Q 2756 2613 2416 2484 
Q 2838 2347 3058 2040 
Q 3278 1734 3278 1309 
Q 3278 722 2862 322 
Q 2447 -78 1769 -78 
Q 1091 -78 675 323 
Q 259 725 259 1325 
Q 259 1772 486 2073 
Q 713 2375 1131 2484 
z
M 1019 3438 
Q 1019 3113 1228 2906 
Q 1438 2700 1772 2700 
Q 2097 2700 2305 2904 
Q 2513 3109 2513 3406 
Q 2513 3716 2298 3927 
Q 2084 4138 1766 4138 
Q 1444 4138 1231 3931 
Q 1019 3725 1019 3438 
z
M 838 1322 
Q 838 1081 952 856 
Q 1066 631 1291 507 
Q 1516 384 1775 384 
Q 2178 384 2440 643 
Q 2703 903 2703 1303 
Q 2703 1709 2433 1975 
Q 2163 2241 1756 2241 
Q 1359 2241 1098 1978 
Q 838 1716 838 1322 
z
" transform="scale(0.015625)"/>
       </defs>
       <use xlink:href="#ArialMT-32"/>
       <use xlink:href="#ArialMT-30" x="55.615234"/>
       <use xlink:href="#ArialMT-31" x="111.230469"/>
       <use xlink:href="#ArialMT-31" x="159.470703"/>
       <use xlink:href="#ArialMT-2d" x="215.085938"/>
       <use xlink:href="#ArialMT-30" x="248.386719"/>
       <use xlink:href="#ArialMT-38" x="304.001953"/>
      </g>
     </g>
    </g>
    <g id="xtick_4">
     <g id="line2d_4">
      <path d="M 493.897475 306.849375 
L 493.897475 21.789375 
" clip-path="url(#pccf1b9a28b)" style="fill: none; stroke: #cccccc; stroke-linecap: round"/>
     </g>
     <g id="text_4">
      <!-- 2011-09 -->
      <g style="fill: #262626" transform="translate(474.120678 324.222969) scale(0.11 -0.11)">
       <defs>
        <path id="ArialMT-39" d="M 350 1059 
L 891 1109 
Q 959 728 1153 556 
Q 1347 384 1650 384 
Q 1909 384 2104 503 
Q 2300 622 2425 820 
Q 2550 1019 2634 1356 
Q 2719 1694 2719 2044 
Q 2719 2081 2716 2156 
Q 2547 1888 2255 1720 
Q 1963 1553 1622 1553 
Q 1053 1553 659 1965 
Q 266 2378 266 3053 
Q 266 3750 677 4175 
Q 1088 4600 1706 4600 
Q 2153 4600 2523 4359 
Q 2894 4119 3086 3673 
Q 3278 3228 3278 2384 
Q 3278 1506 3087 986 
Q 2897 466 2520 194 
Q 2144 -78 1638 -78 
Q 1100 -78 759 220 
Q 419 519 350 1059 
z
M 2653 3081 
Q 2653 3566 2395 3850 
Q 2138 4134 1775 4134 
Q 1400 4134 1122 3828 
Q 844 3522 844 3034 
Q 844 2597 1108 2323 
Q 1372 2050 1759 2050 
Q 2150 2050 2401 2323 
Q 2653 2597 2653 3081 
z
" transform="scale(0.015625)"/>
       </defs>
       <use xlink:href="#ArialMT-32"/>
       <use xlink:href="#ArialMT-30" x="55.615234"/>
       <use xlink:href="#ArialMT-31" x="111.230469"/>
       <use xlink:href="#ArialMT-31" x="159.470703"/>
       <use xlink:href="#ArialMT-2d" x="215.085938"/>
       <use xlink:href="#ArialMT-30" x="248.386719"/>
       <use xlink:href="#ArialMT-39" x="304.001953"/>
      </g>
     </g>
    </g>
    <g id="xtick_5">
     <g id="line2d_5">
      <path d="M 631.317003 306.849375 
L 631.317003 21.789375 
" clip-path="url(#pccf1b9a28b)" style="fill: none; stroke: #cccccc; stroke-linecap: round"/>
     </g>
     <g id="text_5">
      <!-- 2011-10 -->
      <g style="fill: #262626" transform="translate(611.540206 324.222969) scale(0.11 -0.11)">
       <use xlink:href="#ArialMT-32"/>
       <use xlink:href="#ArialMT-30" x="55.615234"/>
       <use xlink:href="#ArialMT-31" x="111.230469"/>
       <use xlink:href="#ArialMT-31" x="159.470703"/>
       <use xlink:href="#ArialMT-2d" x="215.085938"/>
       <use xlink:href="#ArialMT-31" x="248.386719"/>
       <use xlink:href="#ArialMT-30" x="304.001953"/>
      </g>
     </g>
    </g>
    <g id="xtick_6">
     <g id="line2d_6">
      <path d="M 773.317182 306.849375 
L 773.317182 21.789375 
" clip-path="url(#pccf1b9a28b)" style="fill: none; stroke: #cccccc; stroke-linecap: round"/>
     </g>
     <g id="text_6">
      <!-- 2011-11 -->
      <g style="fill: #262626" transform="translate(753.94601 324.222969) scale(0.11 -0.11)">
       <use xlink:href="#ArialMT-32"/>
       <use xlink:href="#ArialMT-30" x="55.615234"/>
       <use xlink:href="#ArialMT-31" x="111.230469"/>
       <use xlink:href="#ArialMT-31" x="159.470703"/>
       <use xlink:href="#ArialMT-2d" x="215.085938"/>
       <use xlink:href="#ArialMT-31" x="248.386719"/>
       <use xlink:href="#ArialMT-31" x="296.626953"/>
      </g>
     </g>
    </g>
    <g id="xtick_7">
     <g id="line2d_7">
      <path d="M 910.73671 306.849375 
L 910.73671 21.789375 
" clip-path="url(#pccf1b9a28b)" style="fill: none; stroke: #cccccc; stroke-linecap: round"/>
     </g>
     <g id="text_7">
      <!-- 2011-12 -->
      <g style="fill: #262626" transform="translate(890.959913 324.222969) scale(0.11 -0.11)">
       <use xlink:href="#ArialMT-32"/>
       <use xlink:href="#ArialMT-30" x="55.615234"/>
       <use xlink:href="#ArialMT-31" x="111.230469"/>
       <use xlink:href="#ArialMT-31" x="159.470703"/>
       <use xlink:href="#ArialMT-2d" x="215.085938"/>
       <use xlink:href="#ArialMT-31" x="248.386719"/>
       <use xlink:href="#ArialMT-32" x="304.001953"/>
      </g>
     </g>
    </g>
    <g id="text_8">
     <!-- Date -->
     <g style="fill: #262626" transform="translate(513.288906 338.998594) scale(0.12 -0.12)">
      <defs>
       <path id="ArialMT-44" d="M 494 0 
L 494 4581 
L 2072 4581 
Q 2606 4581 2888 4516 
Q 3281 4425 3559 4188 
Q 3922 3881 4101 3404 
Q 4281 2928 4281 2316 
Q 4281 1794 4159 1391 
Q 4038 988 3847 723 
Q 3656 459 3429 307 
Q 3203 156 2883 78 
Q 2563 0 2147 0 
L 494 0 
z
M 1100 541 
L 2078 541 
Q 2531 541 2789 625 
Q 3047 709 3200 863 
Q 3416 1078 3536 1442 
Q 3656 1806 3656 2325 
Q 3656 3044 3420 3430 
Q 3184 3816 2847 3947 
Q 2603 4041 2063 4041 
L 1100 4041 
L 1100 541 
z
" transform="scale(0.015625)"/>
       <path id="ArialMT-61" d="M 2588 409 
Q 2275 144 1986 34 
Q 1697 -75 1366 -75 
Q 819 -75 525 192 
Q 231 459 231 875 
Q 231 1119 342 1320 
Q 453 1522 633 1644 
Q 813 1766 1038 1828 
Q 1203 1872 1538 1913 
Q 2219 1994 2541 2106 
Q 2544 2222 2544 2253 
Q 2544 2597 2384 2738 
Q 2169 2928 1744 2928 
Q 1347 2928 1158 2789 
Q 969 2650 878 2297 
L 328 2372 
Q 403 2725 575 2942 
Q 747 3159 1072 3276 
Q 1397 3394 1825 3394 
Q 2250 3394 2515 3294 
Q 2781 3194 2906 3042 
Q 3031 2891 3081 2659 
Q 3109 2516 3109 2141 
L 3109 1391 
Q 3109 606 3145 398 
Q 3181 191 3288 0 
L 2700 0 
Q 2613 175 2588 409 
z
M 2541 1666 
Q 2234 1541 1622 1453 
Q 1275 1403 1131 1340 
Q 988 1278 909 1158 
Q 831 1038 831 891 
Q 831 666 1001 516 
Q 1172 366 1500 366 
Q 1825 366 2078 508 
Q 2331 650 2450 897 
Q 2541 1088 2541 1459 
L 2541 1666 
z
" transform="scale(0.015625)"/>
       <path id="ArialMT-74" d="M 1650 503 
L 1731 6 
Q 1494 -44 1306 -44 
Q 1000 -44 831 53 
Q 663 150 594 308 
Q 525 466 525 972 
L 525 2881 
L 113 2881 
L 113 3319 
L 525 3319 
L 525 4141 
L 1084 4478 
L 1084 3319 
L 1650 3319 
L 1650 2881 
L 1084 2881 
L 1084 941 
Q 1084 700 1114 631 
Q 1144 563 1211 522 
Q 1278 481 1403 481 
Q 1497 481 1650 503 
z
" transform="scale(0.015625)"/>
       <path id="ArialMT-65" d="M 2694 1069 
L 3275 997 
Q 3138 488 2766 206 
Q 2394 -75 1816 -75 
Q 1088 -75 661 373 
Q 234 822 234 1631 
Q 234 2469 665 2931 
Q 1097 3394 1784 3394 
Q 2450 3394 2872 2941 
Q 3294 2488 3294 1666 
Q 3294 1616 3291 1516 
L 816 1516 
Q 847 969 1125 678 
Q 1403 388 1819 388 
Q 2128 388 2347 550 
Q 2566 713 2694 1069 
z
M 847 1978 
L 2700 1978 
Q 2663 2397 2488 2606 
Q 2219 2931 1791 2931 
Q 1403 2931 1139 2672 
Q 875 2413 847 1978 
z
" transform="scale(0.015625)"/>
      </defs>
      <use xlink:href="#ArialMT-44"/>
      <use xlink:href="#ArialMT-61" x="72.216797"/>
      <use xlink:href="#ArialMT-74" x="127.832031"/>
      <use xlink:href="#ArialMT-65" x="155.615234"/>
     </g>
    </g>
   </g>
   <g id="matplotlib.axis_2">
    <g id="ytick_1">
     <g id="line2d_8">
      <path d="M 62.400156 293.892102 
L 989.523906 293.892102 
" clip-path="url(#pccf1b9a28b)" style="fill: none; stroke: #cccccc; stroke-linecap: round"/>
     </g>
     <g id="text_9">
      <!-- 0 -->
      <g style="fill: #262626" transform="translate(46.783125 297.828899) scale(0.11 -0.11)">
       <use xlink:href="#ArialMT-30"/>
      </g>
     </g>
    </g>
    <g id="ytick_2">
     <g id="line2d_9">
      <path d="M 62.400156 234.854093 
L 989.523906 234.854093 
" clip-path="url(#pccf1b9a28b)" style="fill: none; stroke: #cccccc; stroke-linecap: round"/>
     </g>
     <g id="text_10">
      <!-- 10000 -->
      <g style="fill: #262626" transform="translate(22.315 238.790889) scale(0.11 -0.11)">
       <use xlink:href="#ArialMT-31"/>
       <use xlink:href="#ArialMT-30" x="55.615234"/>
       <use xlink:href="#ArialMT-30" x="111.230469"/>
       <use xlink:href="#ArialMT-30" x="166.845703"/>
       <use xlink:href="#ArialMT-30" x="222.460938"/>
      </g>
     </g>
    </g>
    <g id="ytick_3">
     <g id="line2d_10">
      <path d="M 62.400156 175.816083 
L 989.523906 175.816083 
" clip-path="url(#pccf1b9a28b)" style="fill: none; stroke: #cccccc; stroke-linecap: round"/>
     </g>
     <g id="text_11">
      <!-- 20000 -->
      <g style="fill: #262626" transform="translate(22.315 179.75288) scale(0.11 -0.11)">
       <use xlink:href="#ArialMT-32"/>
       <use xlink:href="#ArialMT-30" x="55.615234"/>
       <use xlink:href="#ArialMT-30" x="111.230469"/>
       <use xlink:href="#ArialMT-30" x="166.845703"/>
       <use xlink:href="#ArialMT-30" x="222.460938"/>
      </g>
     </g>
    </g>
    <g id="ytick_4">
     <g id="line2d_11">
      <path d="M 62.400156 116.778073 
L 989.523906 116.778073 
" clip-path="url(#pccf1b9a28b)" style="fill: none; stroke: #cccccc; stroke-linecap: round"/>
     </g>
     <g id="text_12">
      <!-- 30000 -->
      <g style="fill: #262626" transform="translate(22.315 120.71487) scale(0.11 -0.11)">
       <defs>
        <path id="ArialMT-33" d="M 269 1209 
L 831 1284 
Q 928 806 1161 595 
Q 1394 384 1728 384 
Q 2125 384 2398 659 
Q 2672 934 2672 1341 
Q 2672 1728 2419 1979 
Q 2166 2231 1775 2231 
Q 1616 2231 1378 2169 
L 1441 2663 
Q 1497 2656 1531 2656 
Q 1891 2656 2178 2843 
Q 2466 3031 2466 3422 
Q 2466 3731 2256 3934 
Q 2047 4138 1716 4138 
Q 1388 4138 1169 3931 
Q 950 3725 888 3313 
L 325 3413 
Q 428 3978 793 4289 
Q 1159 4600 1703 4600 
Q 2078 4600 2393 4439 
Q 2709 4278 2876 4000 
Q 3044 3722 3044 3409 
Q 3044 3113 2884 2869 
Q 2725 2625 2413 2481 
Q 2819 2388 3044 2092 
Q 3269 1797 3269 1353 
Q 3269 753 2831 336 
Q 2394 -81 1725 -81 
Q 1122 -81 723 278 
Q 325 638 269 1209 
z
" transform="scale(0.015625)"/>
       </defs>
       <use xlink:href="#ArialMT-33"/>
       <use xlink:href="#ArialMT-30" x="55.615234"/>
       <use xlink:href="#ArialMT-30" x="111.230469"/>
       <use xlink:href="#ArialMT-30" x="166.845703"/>
       <use xlink:href="#ArialMT-30" x="222.460938"/>
      </g>
     </g>
    </g>
    <g id="ytick_5">
     <g id="line2d_12">
      <path d="M 62.400156 57.740063 
L 989.523906 57.740063 
" clip-path="url(#pccf1b9a28b)" style="fill: none; stroke: #cccccc; stroke-linecap: round"/>
     </g>
     <g id="text_13">
      <!-- 40000 -->
      <g style="fill: #262626" transform="translate(22.315 61.67686) scale(0.11 -0.11)">
       <defs>
        <path id="ArialMT-34" d="M 2069 0 
L 2069 1097 
L 81 1097 
L 81 1613 
L 2172 4581 
L 2631 4581 
L 2631 1613 
L 3250 1613 
L 3250 1097 
L 2631 1097 
L 2631 0 
L 2069 0 
z
M 2069 1613 
L 2069 3678 
L 634 1613 
L 2069 1613 
z
" transform="scale(0.015625)"/>
       </defs>
       <use xlink:href="#ArialMT-34"/>
       <use xlink:href="#ArialMT-30" x="55.615234"/>
       <use xlink:href="#ArialMT-30" x="111.230469"/>
       <use xlink:href="#ArialMT-30" x="166.845703"/>
       <use xlink:href="#ArialMT-30" x="222.460938"/>
      </g>
     </g>
    </g>
    <g id="text_14">
     <!-- Daily cluster sales -->
     <g style="fill: #262626" transform="translate(15.789375 212.66625) rotate(-90) scale(0.12 -0.12)">
      <defs>
       <path id="ArialMT-69" d="M 425 3934 
L 425 4581 
L 988 4581 
L 988 3934 
L 425 3934 
z
M 425 0 
L 425 3319 
L 988 3319 
L 988 0 
L 425 0 
z
" transform="scale(0.015625)"/>
       <path id="ArialMT-6c" d="M 409 0 
L 409 4581 
L 972 4581 
L 972 0 
L 409 0 
z
" transform="scale(0.015625)"/>
       <path id="ArialMT-79" d="M 397 -1278 
L 334 -750 
Q 519 -800 656 -800 
Q 844 -800 956 -737 
Q 1069 -675 1141 -563 
Q 1194 -478 1313 -144 
Q 1328 -97 1363 -6 
L 103 3319 
L 709 3319 
L 1400 1397 
Q 1534 1031 1641 628 
Q 1738 1016 1872 1384 
L 2581 3319 
L 3144 3319 
L 1881 -56 
Q 1678 -603 1566 -809 
Q 1416 -1088 1222 -1217 
Q 1028 -1347 759 -1347 
Q 597 -1347 397 -1278 
z
" transform="scale(0.015625)"/>
       <path id="ArialMT-20" transform="scale(0.015625)"/>
       <path id="ArialMT-63" d="M 2588 1216 
L 3141 1144 
Q 3050 572 2676 248 
Q 2303 -75 1759 -75 
Q 1078 -75 664 370 
Q 250 816 250 1647 
Q 250 2184 428 2587 
Q 606 2991 970 3192 
Q 1334 3394 1763 3394 
Q 2303 3394 2647 3120 
Q 2991 2847 3088 2344 
L 2541 2259 
Q 2463 2594 2264 2762 
Q 2066 2931 1784 2931 
Q 1359 2931 1093 2626 
Q 828 2322 828 1663 
Q 828 994 1084 691 
Q 1341 388 1753 388 
Q 2084 388 2306 591 
Q 2528 794 2588 1216 
z
" transform="scale(0.015625)"/>
       <path id="ArialMT-75" d="M 2597 0 
L 2597 488 
Q 2209 -75 1544 -75 
Q 1250 -75 995 37 
Q 741 150 617 320 
Q 494 491 444 738 
Q 409 903 409 1263 
L 409 3319 
L 972 3319 
L 972 1478 
Q 972 1038 1006 884 
Q 1059 663 1231 536 
Q 1403 409 1656 409 
Q 1909 409 2131 539 
Q 2353 669 2445 892 
Q 2538 1116 2538 1541 
L 2538 3319 
L 3100 3319 
L 3100 0 
L 2597 0 
z
" transform="scale(0.015625)"/>
       <path id="ArialMT-73" d="M 197 991 
L 753 1078 
Q 800 744 1014 566 
Q 1228 388 1613 388 
Q 2000 388 2187 545 
Q 2375 703 2375 916 
Q 2375 1106 2209 1216 
Q 2094 1291 1634 1406 
Q 1016 1563 777 1677 
Q 538 1791 414 1992 
Q 291 2194 291 2438 
Q 291 2659 392 2848 
Q 494 3038 669 3163 
Q 800 3259 1026 3326 
Q 1253 3394 1513 3394 
Q 1903 3394 2198 3281 
Q 2494 3169 2634 2976 
Q 2775 2784 2828 2463 
L 2278 2388 
Q 2241 2644 2061 2787 
Q 1881 2931 1553 2931 
Q 1166 2931 1000 2803 
Q 834 2675 834 2503 
Q 834 2394 903 2306 
Q 972 2216 1119 2156 
Q 1203 2125 1616 2013 
Q 2213 1853 2448 1751 
Q 2684 1650 2818 1456 
Q 2953 1263 2953 975 
Q 2953 694 2789 445 
Q 2625 197 2315 61 
Q 2006 -75 1616 -75 
Q 969 -75 630 194 
Q 291 463 197 991 
z
" transform="scale(0.015625)"/>
       <path id="ArialMT-72" d="M 416 0 
L 416 3319 
L 922 3319 
L 922 2816 
Q 1116 3169 1280 3281 
Q 1444 3394 1641 3394 
Q 1925 3394 2219 3213 
L 2025 2691 
Q 1819 2813 1613 2813 
Q 1428 2813 1281 2702 
Q 1134 2591 1072 2394 
Q 978 2094 978 1738 
L 978 0 
L 416 0 
z
" transform="scale(0.015625)"/>
      </defs>
      <use xlink:href="#ArialMT-44"/>
      <use xlink:href="#ArialMT-61" x="72.216797"/>
      <use xlink:href="#ArialMT-69" x="127.832031"/>
      <use xlink:href="#ArialMT-6c" x="150.048828"/>
      <use xlink:href="#ArialMT-79" x="172.265625"/>
      <use xlink:href="#ArialMT-20" x="222.265625"/>
      <use xlink:href="#ArialMT-63" x="250.048828"/>
      <use xlink:href="#ArialMT-6c" x="300.048828"/>
      <use xlink:href="#ArialMT-75" x="322.265625"/>
      <use xlink:href="#ArialMT-73" x="377.880859"/>
      <use xlink:href="#ArialMT-74" x="427.880859"/>
      <use xlink:href="#ArialMT-65" x="455.664062"/>
      <use xlink:href="#ArialMT-72" x="511.279297"/>
      <use xlink:href="#ArialMT-20" x="544.580078"/>
      <use xlink:href="#ArialMT-73" x="572.363281"/>
      <use xlink:href="#ArialMT-61" x="622.363281"/>
      <use xlink:href="#ArialMT-6c" x="677.978516"/>
      <use xlink:href="#ArialMT-65" x="700.195312"/>
      <use xlink:href="#ArialMT-73" x="755.810547"/>
     </g>
    </g>
   </g>
   <g id="PolyCollection_1">
    <defs>
     <path id="m2cd885ea04" d="M 104.542145 -148.262432 
L 104.542145 -54.691491 
L 109.122796 -54.691491 
L 113.703447 -54.691491 
L 118.284098 -54.691491 
L 122.864749 -54.691491 
L 127.4454 -54.691491 
L 132.026051 -54.691491 
L 136.606701 -54.691491 
L 141.187352 -54.691491 
L 145.768003 -54.691491 
L 150.348654 -54.691491 
L 154.929305 -54.691491 
L 159.509956 -54.691491 
L 164.090607 -54.691491 
L 168.671258 -54.691491 
L 173.251909 -54.691491 
L 177.83256 -54.691491 
L 182.413211 -54.691491 
L 186.993862 -54.691491 
L 191.574513 -54.691491 
L 196.155164 -54.691491 
L 200.735815 -54.691491 
L 205.316466 -54.691491 
L 209.897116 -54.691491 
L 214.477767 -54.691491 
L 219.058418 -54.691491 
L 223.639069 -54.691491 
L 228.21972 -54.691491 
L 232.800371 -54.691491 
L 237.381022 -54.691491 
L 241.961673 -54.691491 
L 246.542324 -54.691491 
L 251.122975 -54.691491 
L 255.703626 -54.691491 
L 260.284277 -54.691491 
L 264.864928 -54.691491 
L 269.445579 -54.691491 
L 274.02623 -54.691491 
L 278.606881 -54.691491 
L 283.187531 -54.691491 
L 287.768182 -54.691491 
L 292.348833 -54.691491 
L 296.929484 -54.691491 
L 301.510135 -54.691491 
L 306.090786 -54.691491 
L 310.671437 -54.691491 
L 315.252088 -54.691491 
L 319.832739 -54.691491 
L 324.41339 -54.691491 
L 328.994041 -54.691491 
L 333.574692 -54.691491 
L 338.155343 -54.691491 
L 342.735994 -54.691491 
L 347.316645 -54.691491 
L 351.897296 -54.691491 
L 356.477947 -54.691491 
L 361.058597 -54.691491 
L 365.639248 -54.691491 
L 370.219899 -54.691491 
L 374.80055 -54.691491 
L 379.381201 -54.691491 
L 383.961852 -54.691491 
L 388.542503 -54.691491 
L 393.123154 -54.691491 
L 397.703805 -54.691491 
L 402.284456 -54.691491 
L 406.865107 -54.691491 
L 411.445758 -54.691491 
L 416.026409 -54.691491 
L 420.60706 -54.691491 
L 425.187711 -54.691491 
L 429.768362 -54.691491 
L 434.349012 -54.691491 
L 438.929663 -54.691491 
L 443.510314 -54.691491 
L 448.090965 -54.691491 
L 452.671616 -54.691491 
L 457.252267 -54.691491 
L 461.832918 -54.691491 
L 466.413569 -54.691491 
L 470.99422 -54.691491 
L 475.574871 -54.691491 
L 480.155522 -54.691491 
L 484.736173 -54.691491 
L 489.316824 -54.691491 
L 493.897475 -54.691491 
L 498.478126 -54.691491 
L 503.058777 -54.691491 
L 507.639427 -54.691491 
L 512.220078 -54.691491 
L 516.800729 -54.691491 
L 521.38138 -54.691491 
L 525.962031 -54.691491 
L 530.542682 -54.691491 
L 535.123333 -54.691491 
L 539.703984 -54.691491 
L 544.284635 -54.691491 
L 548.865286 -54.691491 
L 553.445937 -54.691491 
L 558.026588 -54.691491 
L 562.607239 -54.691491 
L 567.18789 -54.691491 
L 571.768541 -54.691491 
L 576.349192 -54.691491 
L 580.929843 -54.691491 
L 585.510493 -54.691491 
L 590.091144 -54.691491 
L 594.671795 -54.691491 
L 599.252446 -54.691491 
L 603.833097 -54.691491 
L 608.413748 -54.691491 
L 612.994399 -54.691491 
L 617.57505 -54.691491 
L 622.155701 -54.691491 
L 626.736352 -54.691491 
L 631.317003 -54.691491 
L 635.897654 -54.691491 
L 640.478305 -54.691491 
L 645.058956 -54.691491 
L 649.639607 -54.691491 
L 654.220258 -54.691491 
L 658.800908 -54.691491 
L 663.381559 -54.691491 
L 667.96221 -54.691491 
L 672.542861 -54.691491 
L 677.123512 -54.691491 
L 681.704163 -54.691491 
L 686.284814 -54.691491 
L 690.865465 -54.691491 
L 695.446116 -54.691491 
L 700.026767 -54.691491 
L 704.607418 -54.691491 
L 709.188069 -54.691491 
L 713.76872 -54.691491 
L 718.349371 -54.691491 
L 722.930022 -54.691491 
L 727.510673 -54.691491 
L 732.091323 -54.691491 
L 736.671974 -54.691491 
L 741.252625 -54.691491 
L 745.833276 -54.691491 
L 750.413927 -54.691491 
L 754.994578 -54.691491 
L 759.575229 -54.691491 
L 764.15588 -54.691491 
L 768.736531 -54.691491 
L 773.317182 -54.691491 
L 777.897833 -54.691491 
L 782.478484 -54.691491 
L 787.059135 -54.691491 
L 791.639786 -54.691491 
L 796.220437 -54.691491 
L 800.801088 -54.691491 
L 805.381739 -54.691491 
L 809.962389 -54.691491 
L 814.54304 -54.691491 
L 819.123691 -54.691491 
L 823.704342 -54.691491 
L 828.284993 -54.691491 
L 832.865644 -54.691491 
L 837.446295 -54.691491 
L 842.026946 -54.691491 
L 846.607597 -54.691491 
L 851.188248 -54.691491 
L 855.768899 -54.691491 
L 860.34955 -54.691491 
L 864.930201 -54.691491 
L 869.510852 -54.691491 
L 874.091503 -54.691491 
L 878.672154 -54.691491 
L 883.252804 -54.691491 
L 887.833455 -54.691491 
L 892.414106 -54.691491 
L 896.994757 -54.691491 
L 901.575408 -54.691491 
L 906.156059 -54.691491 
L 910.73671 -54.691491 
L 915.317361 -54.691491 
L 919.898012 -54.691491 
L 924.478663 -54.691491 
L 929.059314 -54.691491 
L 933.639965 -54.691491 
L 938.220616 -54.691491 
L 942.801267 -54.691491 
L 947.381918 -54.691491 
L 947.381918 -121.197163 
L 947.381918 -121.197163 
L 942.801267 -136.2995 
L 938.220616 -145.198101 
L 933.639965 -143.120848 
L 929.059314 -147.566433 
L 924.478663 -132.069011 
L 919.898012 -128.398092 
L 915.317361 -119.39439 
L 910.73671 -135.113035 
L 906.156059 -143.884341 
L 901.575408 -141.279141 
L 896.994757 -146.767056 
L 892.414106 -131.244157 
L 887.833455 -127.575112 
L 883.252804 -118.728366 
L 878.672154 -134.551645 
L 874.091503 -143.419112 
L 869.510852 -141.238609 
L 864.930201 -146.720927 
L 860.34955 -131.130577 
L 855.768899 -127.466605 
L 851.188248 -118.60754 
L 846.607597 -134.489393 
L 842.026946 -143.64055 
L 837.446295 -141.51429 
L 832.865644 -143.409574 
L 828.284993 -127.809982 
L 823.704342 -124.139723 
L 819.123691 -115.350576 
L 814.54304 -131.128747 
L 809.962389 -139.986295 
L 805.381739 -137.73451 
L 800.801088 -141.411099 
L 796.220437 -125.710197 
L 791.639786 -122.041349 
L 787.059135 -113.1831 
L 782.478484 -128.400389 
L 777.897833 -137.802532 
L 773.317182 -135.754671 
L 768.736531 -141.159793 
L 764.15588 -125.481222 
L 759.575229 -121.815557 
L 754.994578 -113.206133 
L 750.413927 -129.315868 
L 745.833276 -138.768253 
L 741.252625 -136.735573 
L 736.671974 -142.249386 
L 732.091323 -126.48034 
L 727.510673 -122.819311 
L 722.930022 -114.276292 
L 718.349371 -130.456486 
L 713.76872 -139.972199 
L 709.188069 -137.937326 
L 704.607418 -143.557435 
L 700.026767 -127.820668 
L 695.446116 -124.165618 
L 690.865465 -115.532844 
L 686.284814 -131.779718 
L 681.704163 -141.32792 
L 677.123512 -139.291891 
L 672.542861 -145.013167 
L 667.96221 -129.194863 
L 663.381559 -125.545403 
L 658.800908 -116.834328 
L 654.220258 -132.492148 
L 649.639607 -141.96629 
L 645.058956 -139.710648 
L 640.478305 -145.412087 
L 635.897654 -129.574387 
L 631.317003 -125.938459 
L 626.736352 -116.865176 
L 622.155701 -132.902574 
L 617.57505 -142.517342 
L 612.994399 -140.426214 
L 608.413748 -146.211604 
L 603.833097 -130.364978 
L 599.252446 -126.745046 
L 594.671795 -117.978336 
L 590.091144 -134.424786 
L 585.510493 -144.05907 
L 580.929843 -139.553358 
L 576.349192 -145.31631 
L 571.768541 -129.449537 
L 567.18789 -125.83831 
L 562.607239 -117.01564 
L 558.026588 -113.550413 
L 553.445937 -123.273546 
L 548.865286 -120.761171 
L 544.284635 -126.554423 
L 539.703984 -110.445917 
L 535.123333 -106.721786 
L 530.542682 -97.775699 
L 525.962031 -114.260731 
L 521.38138 -123.758255 
L 516.800729 -121.614029 
L 512.220078 -127.436229 
L 507.639427 -111.374797 
L 503.058777 -107.660294 
L 498.478126 -98.262291 
L 493.897475 -114.774919 
L 489.316824 -124.634455 
L 484.736173 -122.416754 
L 480.155522 -127.500993 
L 475.574871 -111.365809 
L 470.99422 -107.643948 
L 466.413569 -98.846383 
L 461.832918 -115.510891 
L 457.252267 -122.89925 
L 452.671616 -120.727252 
L 448.090965 -126.582665 
L 443.510314 -110.45507 
L 438.929663 -106.728423 
L 434.349012 -97.893834 
L 429.768362 -114.515451 
L 425.187711 -124.317251 
L 420.60706 -122.183777 
L 416.026409 -127.771608 
L 411.445758 -111.540034 
L 406.865107 -107.819233 
L 402.284456 -98.990794 
L 397.703805 -113.18149 
L 393.123154 -123.305793 
L 388.542503 -121.173961 
L 383.961852 -127.091844 
L 379.381201 -110.833961 
L 374.80055 -107.112322 
L 370.219899 -98.269629 
L 365.639248 -112.825177 
L 361.058597 -122.855791 
L 356.477947 -120.694978 
L 351.897296 -126.720193 
L 347.316645 -110.527494 
L 342.735994 -106.803889 
L 338.155343 -97.791075 
L 333.574692 -113.745372 
L 328.994041 -124.025295 
L 324.41339 -121.94389 
L 319.832739 -128.081962 
L 315.252088 -111.90972 
L 310.671437 -108.235143 
L 306.090786 -99.255662 
L 301.510135 -116.104482 
L 296.929484 -126.531584 
L 292.348833 -124.53239 
L 287.768182 -130.783233 
L 283.187531 -114.76017 
L 278.606881 -111.170156 
L 274.02623 -102.488706 
L 269.445579 -119.528722 
L 264.864928 -129.963347 
L 260.284277 -128.097623 
L 255.703626 -134.357102 
L 251.122975 -118.009812 
L 246.542324 -114.488082 
L 241.961673 -103.680802 
L 237.381022 -120.643333 
L 232.800371 -131.486996 
L 228.21972 -129.340419 
L 223.639069 -129.664537 
L 219.058418 -113.645247 
L 214.477767 -110.302316 
L 209.897116 -101.732774 
L 205.316466 -119.670126 
L 200.735815 -130.494285 
L 196.155164 -129.009058 
L 191.574513 -135.723916 
L 186.993862 -119.732358 
L 182.413211 -116.616037 
L 177.83256 -108.611917 
L 173.251909 -127.415216 
L 168.671258 -139.103217 
L 164.090607 -138.77082 
L 159.509956 -147.218712 
L 154.929305 -133.111089 
L 150.348654 -131.146563 
L 145.768003 -125.644965 
L 141.187352 -147.255764 
L 136.606701 -161.903299 
L 132.026051 -145.474729 
L 127.4454 -151.293783 
L 122.864749 -134.377626 
L 118.284098 -130.487314 
L 113.703447 -120.914896 
L 109.122796 -137.962473 
L 104.542145 -148.262432 
z
" style="stroke: #ff7f0e; stroke-opacity: 0.16"/>
    </defs>
    <g clip-path="url(#pccf1b9a28b)">
     <use xlink:href="#m2cd885ea04" x="0" y="348.583594" style="fill: #ff7f0e; fill-opacity: 0.16; stroke: #ff7f0e; stroke-opacity: 0.16"/>
    </g>
   </g>
   <g id="PolyCollection_2">
    <defs>
     <path id="m92a322bcde" d="M 104.542145 -138.870964 
L 104.542145 -54.691491 
L 109.122796 -54.691491 
L 113.703447 -54.691491 
L 118.284098 -54.691491 
L 122.864749 -54.691491 
L 127.4454 -54.691491 
L 132.026051 -54.691491 
L 136.606701 -54.691491 
L 141.187352 -54.691491 
L 145.768003 -54.691491 
L 150.348654 -54.691491 
L 154.929305 -54.691491 
L 159.509956 -54.691491 
L 164.090607 -54.691491 
L 168.671258 -54.691491 
L 173.251909 -54.691491 
L 177.83256 -54.691491 
L 182.413211 -54.691491 
L 186.993862 -54.691491 
L 191.574513 -54.691491 
L 196.155164 -54.691491 
L 200.735815 -54.691491 
L 205.316466 -54.691491 
L 209.897116 -54.691491 
L 214.477767 -54.691491 
L 219.058418 -54.691491 
L 223.639069 -54.691491 
L 228.21972 -54.691491 
L 232.800371 -54.691491 
L 237.381022 -54.691491 
L 241.961673 -54.691491 
L 246.542324 -54.691491 
L 251.122975 -54.691491 
L 255.703626 -54.691491 
L 260.284277 -54.691491 
L 264.864928 -54.691491 
L 269.445579 -54.691491 
L 274.02623 -54.691491 
L 278.606881 -54.691491 
L 283.187531 -54.691491 
L 287.768182 -54.691491 
L 292.348833 -54.691491 
L 296.929484 -54.691491 
L 301.510135 -54.691491 
L 306.090786 -54.691491 
L 310.671437 -54.691491 
L 315.252088 -54.691491 
L 319.832739 -54.691491 
L 324.41339 -54.691491 
L 328.994041 -54.691491 
L 333.574692 -54.691491 
L 338.155343 -54.691491 
L 342.735994 -54.691491 
L 347.316645 -54.691491 
L 351.897296 -54.691491 
L 356.477947 -54.691491 
L 361.058597 -54.691491 
L 365.639248 -54.691491 
L 370.219899 -54.691491 
L 374.80055 -54.691491 
L 379.381201 -54.691491 
L 383.961852 -54.691491 
L 388.542503 -54.691491 
L 393.123154 -54.691491 
L 397.703805 -54.691491 
L 402.284456 -54.691491 
L 406.865107 -54.691491 
L 411.445758 -54.691491 
L 416.026409 -54.691491 
L 420.60706 -54.691491 
L 425.187711 -54.691491 
L 429.768362 -54.691491 
L 434.349012 -54.691491 
L 438.929663 -54.691491 
L 443.510314 -54.691491 
L 448.090965 -54.691491 
L 452.671616 -54.691491 
L 457.252267 -54.691491 
L 461.832918 -54.691491 
L 466.413569 -54.691491 
L 470.99422 -54.691491 
L 475.574871 -54.691491 
L 480.155522 -54.691491 
L 484.736173 -54.691491 
L 489.316824 -54.691491 
L 493.897475 -54.691491 
L 498.478126 -54.691491 
L 503.058777 -54.691491 
L 507.639427 -54.691491 
L 512.220078 -54.691491 
L 516.800729 -54.691491 
L 521.38138 -54.691491 
L 525.962031 -54.691491 
L 530.542682 -54.691491 
L 535.123333 -54.691491 
L 539.703984 -54.691491 
L 544.284635 -54.691491 
L 548.865286 -54.691491 
L 553.445937 -54.691491 
L 558.026588 -54.691491 
L 562.607239 -54.691491 
L 567.18789 -54.691491 
L 571.768541 -54.691491 
L 576.349192 -54.691491 
L 580.929843 -54.691491 
L 585.510493 -54.691491 
L 590.091144 -54.691491 
L 594.671795 -54.691491 
L 599.252446 -54.691491 
L 603.833097 -54.691491 
L 608.413748 -54.691491 
L 612.994399 -54.691491 
L 617.57505 -54.691491 
L 622.155701 -54.691491 
L 626.736352 -54.691491 
L 631.317003 -54.691491 
L 635.897654 -54.691491 
L 640.478305 -54.691491 
L 645.058956 -54.691491 
L 649.639607 -54.691491 
L 654.220258 -54.691491 
L 658.800908 -54.691491 
L 663.381559 -54.691491 
L 667.96221 -54.691491 
L 672.542861 -54.691491 
L 677.123512 -54.691491 
L 681.704163 -54.691491 
L 686.284814 -54.691491 
L 690.865465 -54.691491 
L 695.446116 -54.691491 
L 700.026767 -54.691491 
L 704.607418 -54.691491 
L 709.188069 -54.691491 
L 713.76872 -54.691491 
L 718.349371 -54.691491 
L 722.930022 -54.691491 
L 727.510673 -54.691491 
L 732.091323 -54.691491 
L 736.671974 -54.691491 
L 741.252625 -54.691491 
L 745.833276 -54.691491 
L 750.413927 -54.691491 
L 754.994578 -54.691491 
L 759.575229 -54.691491 
L 764.15588 -54.691491 
L 768.736531 -54.691491 
L 773.317182 -54.691491 
L 777.897833 -54.691491 
L 782.478484 -54.691491 
L 787.059135 -54.691491 
L 791.639786 -54.691491 
L 796.220437 -54.691491 
L 800.801088 -54.691491 
L 805.381739 -54.691491 
L 809.962389 -54.691491 
L 814.54304 -54.691491 
L 819.123691 -54.691491 
L 823.704342 -54.691491 
L 828.284993 -54.691491 
L 832.865644 -54.691491 
L 837.446295 -54.691491 
L 842.026946 -54.691491 
L 846.607597 -54.691491 
L 851.188248 -54.691491 
L 855.768899 -54.691491 
L 860.34955 -54.691491 
L 864.930201 -54.691491 
L 869.510852 -54.691491 
L 874.091503 -54.691491 
L 878.672154 -54.691491 
L 883.252804 -54.691491 
L 887.833455 -54.691491 
L 892.414106 -54.691491 
L 896.994757 -54.691491 
L 901.575408 -54.691491 
L 906.156059 -54.691491 
L 910.73671 -54.691491 
L 915.317361 -54.691491 
L 919.898012 -54.691491 
L 924.478663 -54.691491 
L 929.059314 -54.691491 
L 933.639965 -54.691491 
L 938.220616 -54.691491 
L 942.801267 -54.691491 
L 947.381918 -54.691491 
L 947.381918 -148.319674 
L 947.381918 -148.319674 
L 942.801267 -158.555319 
L 938.220616 -158.875891 
L 933.639965 -159.830267 
L 929.059314 -140.969881 
L 924.478663 -113.729442 
L 919.898012 -112.676883 
L 915.317361 -140.441591 
L 910.73671 -150.713037 
L 906.156059 -150.788869 
L 901.575408 -152.931868 
L 896.994757 -135.410072 
L 892.414106 -113.077785 
L 887.833455 -112.769253 
L 883.252804 -140.464091 
L 878.672154 -150.525302 
L 874.091503 -145.743031 
L 869.510852 -148.413441 
L 864.930201 -138.115045 
L 860.34955 -113.529098 
L 855.768899 -113.150364 
L 851.188248 -140.677062 
L 846.607597 -148.808971 
L 842.026946 -144.114484 
L 837.446295 -147.108076 
L 832.865644 -135.67227 
L 828.284993 -110.294855 
L 823.704342 -109.920327 
L 819.123691 -138.941421 
L 814.54304 -141.893198 
L 809.962389 -138.447804 
L 805.381739 -139.636551 
L 800.801088 -128.177477 
L 796.220437 -108.305684 
L 791.639786 -107.830427 
L 787.059135 -135.020816 
L 782.478484 -135.116166 
L 777.897833 -134.260628 
L 773.317182 -131.152316 
L 768.736531 -110.518719 
L 764.15588 -107.71651 
L 759.575229 -107.528973 
L 754.994578 -130.468256 
L 750.413927 -135.104564 
L 745.833276 -132.681497 
L 741.252625 -133.693141 
L 736.671974 -122.779452 
L 732.091323 -108.735369 
L 727.510673 -108.362053 
L 722.930022 -130.920942 
L 718.349371 -135.01349 
L 713.76872 -131.699751 
L 709.188069 -133.585888 
L 704.607418 -127.787519 
L 700.026767 -109.741831 
L 695.446116 -109.412604 
L 690.865465 -130.938963 
L 686.284814 -135.716666 
L 681.704163 -133.593095 
L 677.123512 -136.618963 
L 672.542861 -128.735378 
L 667.96221 -111.032205 
L 663.381559 -110.677542 
L 658.800908 -138.649666 
L 654.220258 -134.418754 
L 649.639607 -135.080178 
L 645.058956 -135.036922 
L 640.478305 -120.77574 
L 635.897654 -111.638469 
L 631.317003 -111.091381 
L 626.736352 -138.791415 
L 622.155701 -139.97965 
L 617.57505 -136.070819 
L 612.994399 -136.196098 
L 608.413748 -132.031027 
L 603.833097 -112.673448 
L 599.252446 -112.397324 
L 594.671795 -132.940638 
L 590.091144 -139.163631 
L 585.510493 -135.768979 
L 580.929843 -136.124627 
L 576.349192 -129.393204 
L 571.768541 -111.880868 
L 567.18789 -111.629146 
L 562.607239 -132.2397 
L 558.026588 -115.720726 
L 553.445937 -113.670842 
L 548.865286 -113.761564 
L 544.284635 -106.083753 
L 539.703984 -92.443296 
L 535.123333 -92.085505 
L 530.542682 -113.27634 
L 525.962031 -113.71357 
L 521.38138 -112.445358 
L 516.800729 -110.46045 
L 512.220078 -103.568766 
L 507.639427 -93.078871 
L 503.058777 -92.635982 
L 498.478126 -107.969796 
L 493.897475 -111.921197 
L 489.316824 -110.891048 
L 484.736173 -94.641748 
L 480.155522 -101.34863 
L 475.574871 -93.424798 
L 470.99422 -93.099756 
L 466.413569 -111.430695 
L 461.832918 -116.671586 
L 457.252267 -111.81596 
L 452.671616 -112.45939 
L 448.090965 -105.361355 
L 443.510314 -91.614659 
L 438.929663 -91.284405 
L 434.349012 -111.462554 
L 429.768362 -114.831256 
L 425.187711 -112.911952 
L 420.60706 -115.057613 
L 416.026409 -106.857306 
L 411.445758 -92.703489 
L 406.865107 -92.374604 
L 402.284456 -111.729887 
L 397.703805 -114.941468 
L 393.123154 -112.140998 
L 388.542503 -113.775254 
L 383.961852 -106.130787 
L 379.381201 -92.356911 
L 374.80055 -91.997841 
L 370.219899 -112.912826 
L 365.639248 -113.808792 
L 361.058597 -110.254558 
L 356.477947 -111.453747 
L 351.897296 -104.486494 
L 347.316645 -92.242291 
L 342.735994 -91.875663 
L 338.155343 -114.505807 
L 333.574692 -116.163138 
L 328.994041 -114.808734 
L 324.41339 -115.222825 
L 319.832739 -104.210726 
L 315.252088 -93.316425 
L 310.671437 -93.211996 
L 306.090786 -112.77749 
L 301.510135 -118.055342 
L 296.929484 -116.579933 
L 292.348833 -117.849746 
L 287.768182 -111.02414 
L 283.187531 -96.251365 
L 278.606881 -96.180118 
L 274.02623 -113.608444 
L 269.445579 -119.963034 
L 264.864928 -118.824712 
L 260.284277 -121.41317 
L 255.703626 -113.531818 
L 251.122975 -99.632488 
L 246.542324 -99.583806 
L 241.961673 -118.042716 
L 237.381022 -122.569534 
L 232.800371 -121.351669 
L 228.21972 -122.284536 
L 223.639069 -107.708109 
L 219.058418 -93.53237 
L 214.477767 -93.555568 
L 209.897116 -108.954368 
L 205.316466 -120.933424 
L 200.735815 -120.478069 
L 196.155164 -119.399815 
L 191.574513 -111.974915 
L 186.993862 -98.740528 
L 182.413211 -99.353758 
L 177.83256 -115.301322 
L 173.251909 -127.366831 
L 168.671258 -125.714176 
L 164.090607 -129.093612 
L 159.509956 -120.78677 
L 154.929305 -109.522267 
L 150.348654 -111.054323 
L 145.768003 -120.292716 
L 141.187352 -141.988373 
L 136.606701 -143.782263 
L 132.026051 -138.788439 
L 127.4454 -128.491055 
L 122.864749 -113.834328 
L 118.284098 -113.046726 
L 113.703447 -114.935022 
L 109.122796 -140.785211 
L 104.542145 -138.870964 
z
" style="stroke: #2ca02c; stroke-opacity: 0.16"/>
    </defs>
    <g clip-path="url(#pccf1b9a28b)">
     <use xlink:href="#m92a322bcde" x="0" y="348.583594" style="fill: #2ca02c; fill-opacity: 0.16; stroke: #2ca02c; stroke-opacity: 0.16"/>
    </g>
   </g>
   <g id="line2d_13">
    <path d="M 104.542145 259.892585 
L 109.122796 171.718255 
L 113.703447 270.826306 
L 118.284098 293.892102 
L 122.864749 282.085032 
L 127.4454 278.351704 
L 132.026051 255.731586 
L 136.606701 270.976322 
L 141.187352 271.287216 
L 145.768003 276.589892 
L 150.348654 293.892102 
L 154.929305 278.875312 
L 159.509956 253.097487 
L 164.090607 262.15994 
L 168.671258 271.81354 
L 173.251909 268.924633 
L 177.83256 273.653636 
L 182.413211 293.892102 
L 186.993862 289.413184 
L 191.574513 270.302875 
L 196.155164 270.649074 
L 200.735815 275.967159 
L 205.316466 267.095635 
L 209.897116 277.231222 
L 214.477767 293.892102 
L 219.058418 285.392754 
L 223.639069 193.345826 
L 228.21972 242.348909 
L 232.800371 267.529092 
L 237.381022 245.72299 
L 241.961673 242.201137 
L 246.542324 293.892102 
L 251.122975 290.189829 
L 255.703626 268.914832 
L 260.284277 255.307811 
L 264.864928 273.515487 
L 269.445579 250.13124 
L 274.02623 282.583312 
L 278.606881 293.892102 
L 283.187531 272.085351 
L 287.768182 262.337998 
L 292.348833 256.500556 
L 296.929484 266.530287 
L 301.510135 249.917641 
L 306.090786 270.192474 
L 310.671437 293.892102 
L 315.252088 262.514581 
L 319.832739 260.810154 
L 324.41339 265.433656 
L 328.994041 266.206759 
L 333.574692 233.544393 
L 338.155343 269.093304 
L 342.735994 293.892102 
L 347.316645 281.179034 
L 351.897296 263.03872 
L 356.477947 268.944647 
L 361.058597 273.653873 
L 365.639248 213.700656 
L 370.219899 277.816465 
L 374.80055 293.892102 
L 379.381201 285.95332 
L 383.961852 266.970711 
L 388.542503 264.337675 
L 393.123154 258.02846 
L 397.703805 206.601394 
L 402.284456 277.621876 
L 406.865107 293.892102 
L 411.445758 286.3768 
L 416.026409 279.470179 
L 420.60706 263.629278 
L 425.187711 238.872633 
L 429.768362 254.083186 
L 434.349012 276.625256 
L 438.929663 293.892102 
L 443.510314 281.432544 
L 448.090965 265.245207 
L 452.671616 267.749658 
L 457.252267 191.686444 
L 461.832918 269.135576 
L 466.413569 277.583915 
L 470.99422 293.892102 
L 475.574871 284.806389 
L 480.155522 293.892102 
L 484.736173 248.798575 
L 489.316824 266.88605 
L 493.897475 256.722185 
L 498.478126 249.0401 
L 503.058777 293.892102 
L 507.639427 282.022156 
L 512.220078 249.400173 
L 516.800729 258.411321 
L 521.38138 232.77253 
L 525.962031 274.425263 
L 530.542682 263.275522 
L 535.123333 293.892102 
L 539.703984 254.891121 
L 544.284635 259.172262 
L 548.865286 232.274604 
L 553.445937 265.856841 
L 558.026588 34.746648 
L 562.607239 255.509426 
L 567.18789 293.892102 
L 571.768541 275.404527 
L 576.349192 270.731078 
L 580.929843 166.73645 
L 585.510493 232.023987 
L 590.091144 256.789488 
L 594.671795 255.530975 
L 599.252446 293.892102 
L 603.833097 258.088324 
L 608.413748 264.330649 
L 612.994399 243.64314 
L 617.57505 235.851422 
L 622.155701 228.357845 
L 626.736352 236.787292 
L 631.317003 293.892102 
L 635.897654 280.164289 
L 640.478305 232.505442 
L 645.058956 227.815168 
L 649.639607 228.129722 
L 654.220258 212.574151 
L 663.381559 293.892102 
L 667.96221 281.196687 
L 672.542861 237.721096 
L 677.123512 255.52389 
L 681.704163 265.699386 
L 686.284814 260.424694 
L 690.865465 258.29112 
L 695.446116 293.892102 
L 700.026767 269.513832 
L 704.607418 229.462741 
L 709.188069 255.708089 
L 718.349371 261.2455 
L 722.930022 266.414573 
L 727.510673 293.892102 
L 732.091323 282.911977 
L 736.671974 222.801719 
L 741.252625 253.857247 
L 745.833276 247.516152 
L 750.413927 257.5264 
L 754.994578 255.267606 
L 759.575229 293.892102 
L 764.15588 261.71804 
L 768.736531 216.461096 
L 773.317182 265.363814 
L 777.897833 250.916151 
L 782.478484 201.258336 
L 787.059135 235.176853 
L 791.639786 293.892102 
L 796.220437 248.494766 
L 800.801088 153.310085 
L 805.381739 220.38854 
L 809.962389 202.677019 
L 814.54304 227.381179 
L 819.123691 233.669495 
L 823.704342 293.892102 
L 828.284993 259.426421 
L 832.865644 109.147765 
L 837.446295 225.723805 
L 842.026946 220.438782 
L 846.607597 238.619064 
L 851.188248 223.902424 
L 855.768899 293.892102 
L 860.34955 247.603705 
L 864.930201 219.724835 
L 869.510852 218.628499 
L 874.091503 202.229688 
L 878.672154 236.686987 
L 883.252804 220.886172 
L 887.833455 293.892102 
L 892.414106 268.611613 
L 896.994757 221.401574 
L 901.575408 190.340024 
L 906.156059 197.277521 
L 910.73671 228.986836 
L 915.317361 208.954118 
L 919.898012 293.892102 
L 924.478663 271.708275 
L 929.059314 161.629544 
L 933.639965 222.399139 
L 942.801267 189.62035 
L 947.381918 249.573154 
L 947.381918 249.573154 
" clip-path="url(#pccf1b9a28b)" style="fill: none; stroke: #1f77b4; stroke-width: 2.2; stroke-linecap: round"/>
   </g>
   <g id="line2d_14">
    <path d="M 104.542145 266.522354 
L 109.122796 276.822313 
L 113.703447 293.86989 
L 118.284098 284.297471 
L 122.864749 280.407159 
L 127.4454 263.491002 
L 132.026051 269.310056 
L 136.606701 266.64836 
L 141.187352 276.887752 
L 145.768003 293.870066 
L 150.348654 284.348191 
L 154.929305 280.466793 
L 159.509956 263.609982 
L 164.090607 269.408686 
L 168.671258 266.772452 
L 173.251909 276.95222 
L 177.83256 293.87024 
L 182.413211 284.398161 
L 186.993862 280.525523 
L 191.574513 263.727201 
L 196.155164 269.505866 
L 200.735815 266.894663 
L 205.316466 277.015732 
L 209.897116 293.870411 
L 214.477767 284.447394 
L 219.058418 280.583365 
L 223.639069 263.842689 
L 228.21972 269.601619 
L 232.800371 267.015023 
L 237.381022 277.078305 
L 241.961673 293.870579 
L 246.542324 284.495903 
L 251.122975 280.640334 
L 255.703626 263.956476 
L 260.284277 269.695971 
L 264.864928 267.133567 
L 269.445579 277.139955 
L 274.02623 293.870744 
L 278.606881 284.5437 
L 283.187531 280.696445 
L 287.768182 264.068591 
L 292.348833 269.788945 
L 296.929484 267.250323 
L 301.510135 277.200698 
L 306.090786 293.870907 
L 310.671437 284.590796 
L 315.252088 280.751712 
L 319.832739 264.179062 
L 324.41339 269.880565 
L 328.994041 267.365325 
L 333.574692 277.26055 
L 338.155343 293.871068 
L 342.735994 284.637204 
L 347.316645 280.806151 
L 351.897296 264.287917 
L 356.477947 269.970853 
L 361.058597 267.4786 
L 365.639248 277.319524 
L 370.219899 293.871225 
L 374.80055 284.682936 
L 379.381201 280.859774 
L 383.961852 264.395184 
L 388.542503 270.059832 
L 393.123154 267.59018 
L 397.703805 277.377637 
L 402.284456 293.871381 
L 406.865107 284.728003 
L 411.445758 280.912597 
L 416.026409 264.500889 
L 420.60706 270.147525 
L 425.187711 267.700093 
L 429.768362 277.434903 
L 434.349012 293.871467 
L 438.929663 284.772415 
L 443.510314 280.964632 
L 448.090965 264.60506 
L 452.671616 270.233952 
L 457.252267 267.808368 
L 461.832918 277.491336 
L 466.413569 293.871505 
L 470.99422 284.816185 
L 475.574871 281.015894 
L 480.155522 264.707721 
L 484.736173 270.319136 
L 489.316824 267.915032 
L 493.897475 277.54695 
L 498.478126 293.871542 
L 503.058777 284.859323 
L 507.639427 281.066395 
L 512.220078 264.808899 
L 516.800729 270.403097 
L 521.38138 268.020114 
L 525.962031 277.60176 
L 530.542682 293.871579 
L 535.123333 284.901839 
L 539.703984 281.116149 
L 544.284635 264.90862 
L 548.865286 270.485856 
L 553.445937 268.12364 
L 558.026588 277.655779 
L 562.607239 293.871616 
L 567.18789 284.943744 
L 571.768541 281.165168 
L 576.349192 265.006906 
L 580.929843 270.567434 
L 585.510493 268.225637 
L 590.091144 277.70902 
L 594.671795 293.871653 
L 599.252446 284.985049 
L 603.833097 281.213464 
L 608.413748 265.103783 
L 612.994399 270.647849 
L 617.57505 268.326131 
L 622.155701 277.761496 
L 626.736352 293.871689 
L 631.317003 285.025762 
L 635.897654 281.261051 
L 640.478305 265.199275 
L 645.058956 270.727123 
L 649.639607 268.425148 
L 654.220258 277.81322 
L 658.800908 293.871726 
L 663.381559 285.065895 
L 667.96221 281.307939 
L 672.542861 265.293405 
L 677.123512 270.805273 
L 681.704163 268.522713 
L 686.284814 277.864206 
L 690.865465 293.871762 
L 695.446116 285.105457 
L 700.026767 281.354141 
L 704.607418 265.386195 
L 709.188069 270.88232 
L 713.76872 268.61885 
L 718.349371 277.914465 
L 722.930022 293.871798 
L 727.510673 285.144458 
L 732.091323 281.399669 
L 736.671974 265.477669 
L 741.252625 270.95828 
L 745.833276 268.713584 
L 750.413927 277.96401 
L 754.994578 293.871835 
L 759.575229 285.182906 
L 764.15588 281.444534 
L 768.736531 265.567848 
L 773.317182 271.033174 
L 777.897833 268.806938 
L 782.478484 278.012853 
L 787.059135 293.87187 
L 791.639786 285.220812 
L 796.220437 281.488747 
L 800.801088 265.656754 
L 805.381739 271.107017 
L 809.962389 268.898937 
L 814.54304 278.061005 
L 819.123691 293.871906 
L 823.704342 285.258184 
L 828.284993 281.532319 
L 832.865644 265.74441 
L 837.446295 271.179829 
L 842.026946 268.989603 
L 846.607597 278.108478 
L 851.188248 293.871942 
L 855.768899 285.295031 
L 860.34955 281.575261 
L 864.930201 265.830834 
L 869.510852 271.251626 
L 874.091503 269.078958 
L 878.672154 278.155283 
L 883.252804 293.871977 
L 887.833455 285.331362 
L 892.414106 281.617583 
L 896.994757 265.916049 
L 901.575408 271.322425 
L 906.156059 269.167025 
L 910.73671 278.201433 
L 915.317361 293.872013 
L 919.898012 285.367185 
L 924.478663 281.659297 
L 929.059314 266.000075 
L 933.639965 271.392243 
L 938.220616 269.253827 
L 942.801267 278.246937 
L 947.381918 293.872048 
L 947.381918 293.872048 
" clip-path="url(#pccf1b9a28b)" style="fill: none; stroke: #ff7f0e; stroke-width: 1.8; stroke-linecap: round"/>
   </g>
   <g id="line2d_15">
    <path d="M 104.542145 268.067864 
L 109.122796 266.153617 
L 113.703447 292.003806 
L 118.284098 293.892102 
L 122.864749 293.1045 
L 127.4454 278.447774 
L 132.026051 268.15039 
L 136.606701 269.84885 
L 141.187352 268.746837 
L 145.768003 287.997683 
L 150.348654 293.892102 
L 154.929305 293.311337 
L 159.509956 279.522535 
L 164.090607 269.462929 
L 168.671258 271.053998 
L 173.251909 268.287732 
L 177.83256 279.281553 
L 182.413211 293.892102 
L 186.993862 293.537061 
L 191.574513 279.201836 
L 196.155164 270.652504 
L 200.735815 268.798158 
L 205.316466 268.042602 
L 209.897116 279.254632 
L 214.477767 293.892102 
L 219.058418 293.260675 
L 223.639069 278.31416 
L 228.21972 272.958301 
L 232.800371 273.565729 
L 237.381022 271.567027 
L 241.961673 275.577914 
L 246.542324 293.892102 
L 251.122975 293.344784 
L 255.703626 278.86638 
L 260.284277 270.323709 
L 264.864928 272.282365 
L 269.445579 270.767234 
L 274.02623 276.625467 
L 278.606881 293.892102 
L 283.187531 293.437113 
L 287.768182 278.249797 
L 292.348833 270.933044 
L 296.929484 271.717575 
L 301.510135 269.817237 
L 306.090786 274.710922 
L 310.671437 293.892102 
L 315.252088 293.507807 
L 319.832739 282.604976 
L 324.41339 271.287608 
L 328.994041 271.345234 
L 333.574692 269.653658 
L 338.155343 271.534136 
L 342.735994 293.892102 
L 347.316645 293.310458 
L 351.897296 280.715886 
L 356.477947 273.440159 
L 361.058597 274.361388 
L 365.639248 270.601294 
L 370.219899 273.040829 
L 374.80055 293.892102 
L 379.381201 293.34324 
L 383.961852 279.276588 
L 388.542503 271.329193 
L 393.123154 272.687897 
L 397.703805 269.605393 
L 402.284456 274.639618 
L 406.865107 293.892102 
L 411.445758 293.394423 
L 416.026409 278.980117 
L 420.60706 270.624814 
L 425.187711 272.519018 
L 429.768362 270.683989 
L 434.349012 273.805804 
L 438.929663 293.892102 
L 443.510314 293.413909 
L 448.090965 279.420132 
L 452.671616 272.083642 
L 457.252267 272.529862 
L 461.832918 270.602735 
L 466.413569 275.6746 
L 470.99422 293.892102 
L 475.574871 293.421385 
L 480.155522 285.268675 
L 484.736173 292.007085 
L 489.316824 276.114367 
L 493.897475 274.860438 
L 498.478126 278.606728 
L 503.058777 293.892102 
L 507.639427 293.321333 
L 512.220078 282.616645 
L 516.800729 275.760081 
L 521.38138 273.57814 
L 525.962031 272.545066 
L 530.542682 272.898361 
L 535.123333 293.892102 
L 539.703984 293.42352 
L 544.284635 279.94618 
L 548.865286 272.105663 
L 553.445937 272.38237 
L 558.026588 270.164474 
L 562.607239 273.566059 
L 567.18789 293.892102 
L 571.768541 293.437072 
L 576.349192 275.648414 
L 580.929843 268.677837 
L 585.510493 271.169626 
L 590.091144 267.662641 
L 594.671795 273.619262 
L 599.252446 293.892102 
L 603.833097 293.428994 
L 608.413748 273.919936 
L 612.994399 269.50699 
L 617.57505 269.402554 
L 622.155701 265.328579 
L 626.736352 266.3909 
L 631.317003 293.892102 
L 635.897654 293.181752 
L 640.478305 283.805293 
L 645.058956 269.655581 
L 649.639607 269.554186 
L 654.220258 270.14957 
L 658.800908 266.14569 
L 663.381559 293.892102 
L 667.96221 293.393778 
L 672.542861 275.47072 
L 677.123512 267.477464 
L 681.704163 270.289423 
L 686.284814 267.991653 
L 690.865465 272.578259 
L 695.446116 293.892102 
L 700.026767 293.431325 
L 704.607418 275.187599 
L 709.188069 269.3992 
L 713.76872 271.082591 
L 718.349371 267.570927 
L 722.930022 271.493788 
L 727.510673 293.892102 
L 732.091323 293.398505 
L 736.671974 279.169904 
L 741.252625 268.463486 
L 745.833276 269.283936 
L 750.413927 266.675038 
L 754.994578 271.139369 
L 759.575229 293.892102 
L 764.15588 293.594766 
L 768.736531 290.664001 
L 773.317182 270.657301 
L 777.897833 267.403783 
L 782.478484 266.367657 
L 787.059135 266.834775 
L 791.639786 293.892102 
L 796.220437 293.31663 
L 800.801088 273.442962 
L 805.381739 264.231191 
L 809.962389 265.382305 
L 814.54304 262.188846 
L 819.123691 265.016133 
L 823.704342 293.892102 
L 828.284993 293.423488 
L 832.865644 267.919653 
L 837.446295 260.418012 
L 842.026946 263.270172 
L 846.607597 258.496108 
L 851.188248 266.446544 
L 855.768899 293.892102 
L 860.34955 293.418689 
L 864.930201 268.784238 
L 869.510852 258.470819 
L 874.091503 261.038501 
L 878.672154 256.364958 
L 883.252804 266.253765 
L 887.833455 293.892102 
L 892.414106 293.499834 
L 896.994757 271.001553 
L 901.575408 253.468059 
L 906.156059 255.777953 
L 910.73671 255.946166 
L 915.317361 266.057615 
L 919.898012 293.892102 
L 924.478663 292.765433 
L 929.059314 265.363102 
L 933.639965 247.566686 
L 938.220616 248.359918 
L 942.801267 248.591523 
L 947.381918 258.906038 
L 947.381918 258.906038 
" clip-path="url(#pccf1b9a28b)" style="fill: none; stroke: #2ca02c; stroke-width: 1.8; stroke-linecap: round"/>
   </g>
   <g id="patch_3">
    <path d="M 62.400156 306.849375 
L 62.400156 21.789375 
" style="fill: none; stroke: #cccccc; stroke-width: 1.25; stroke-linejoin: miter; stroke-linecap: square"/>
   </g>
   <g id="patch_4">
    <path d="M 989.523906 306.849375 
L 989.523906 21.789375 
" style="fill: none; stroke: #cccccc; stroke-width: 1.25; stroke-linejoin: miter; stroke-linecap: square"/>
   </g>
   <g id="patch_5">
    <path d="M 62.400156 306.849375 
L 989.523906 306.849375 
" style="fill: none; stroke: #cccccc; stroke-width: 1.25; stroke-linejoin: miter; stroke-linecap: square"/>
   </g>
   <g id="patch_6">
    <path d="M 62.400156 21.789375 
L 989.523906 21.789375 
" style="fill: none; stroke: #cccccc; stroke-width: 1.25; stroke-linejoin: miter; stroke-linecap: square"/>
   </g>
   <g id="text_15">
    <!-- Cluster 2: Actual vs Forecast with 95% Prediction Intervals -->
    <g style="fill: #262626" transform="translate(358.810469 15.789375) scale(0.12 -0.12)">
     <defs>
      <path id="Arial-BoldMT-43" d="M 3397 1684 
L 4294 1400 
Q 4088 650 3608 286 
Q 3128 -78 2391 -78 
Q 1478 -78 890 545 
Q 303 1169 303 2250 
Q 303 3394 893 4026 
Q 1484 4659 2447 4659 
Q 3288 4659 3813 4163 
Q 4125 3869 4281 3319 
L 3366 3100 
Q 3284 3456 3026 3662 
Q 2769 3869 2400 3869 
Q 1891 3869 1573 3503 
Q 1256 3138 1256 2319 
Q 1256 1450 1568 1081 
Q 1881 713 2381 713 
Q 2750 713 3015 947 
Q 3281 1181 3397 1684 
z
" transform="scale(0.015625)"/>
      <path id="Arial-BoldMT-6c" d="M 459 0 
L 459 4581 
L 1338 4581 
L 1338 0 
L 459 0 
z
" transform="scale(0.015625)"/>
      <path id="Arial-BoldMT-75" d="M 2644 0 
L 2644 497 
Q 2463 231 2167 78 
Q 1872 -75 1544 -75 
Q 1209 -75 943 72 
Q 678 219 559 484 
Q 441 750 441 1219 
L 441 3319 
L 1319 3319 
L 1319 1794 
Q 1319 1094 1367 936 
Q 1416 778 1544 686 
Q 1672 594 1869 594 
Q 2094 594 2272 717 
Q 2450 841 2515 1023 
Q 2581 1206 2581 1919 
L 2581 3319 
L 3459 3319 
L 3459 0 
L 2644 0 
z
" transform="scale(0.015625)"/>
      <path id="Arial-BoldMT-73" d="M 150 947 
L 1031 1081 
Q 1088 825 1259 692 
Q 1431 559 1741 559 
Q 2081 559 2253 684 
Q 2369 772 2369 919 
Q 2369 1019 2306 1084 
Q 2241 1147 2013 1200 
Q 950 1434 666 1628 
Q 272 1897 272 2375 
Q 272 2806 612 3100 
Q 953 3394 1669 3394 
Q 2350 3394 2681 3172 
Q 3013 2950 3138 2516 
L 2309 2363 
Q 2256 2556 2107 2659 
Q 1959 2763 1684 2763 
Q 1338 2763 1188 2666 
Q 1088 2597 1088 2488 
Q 1088 2394 1175 2328 
Q 1294 2241 1995 2081 
Q 2697 1922 2975 1691 
Q 3250 1456 3250 1038 
Q 3250 581 2869 253 
Q 2488 -75 1741 -75 
Q 1063 -75 667 200 
Q 272 475 150 947 
z
" transform="scale(0.015625)"/>
      <path id="Arial-BoldMT-74" d="M 1981 3319 
L 1981 2619 
L 1381 2619 
L 1381 1281 
Q 1381 875 1398 808 
Q 1416 741 1477 697 
Q 1538 653 1625 653 
Q 1747 653 1978 738 
L 2053 56 
Q 1747 -75 1359 -75 
Q 1122 -75 931 4 
Q 741 84 652 211 
Q 563 338 528 553 
Q 500 706 500 1172 
L 500 2619 
L 97 2619 
L 97 3319 
L 500 3319 
L 500 3978 
L 1381 4491 
L 1381 3319 
L 1981 3319 
z
" transform="scale(0.015625)"/>
      <path id="Arial-BoldMT-65" d="M 2381 1056 
L 3256 909 
Q 3088 428 2723 176 
Q 2359 -75 1813 -75 
Q 947 -75 531 491 
Q 203 944 203 1634 
Q 203 2459 634 2926 
Q 1066 3394 1725 3394 
Q 2466 3394 2894 2905 
Q 3322 2416 3303 1406 
L 1103 1406 
Q 1113 1016 1316 798 
Q 1519 581 1822 581 
Q 2028 581 2168 693 
Q 2309 806 2381 1056 
z
M 2431 1944 
Q 2422 2325 2234 2523 
Q 2047 2722 1778 2722 
Q 1491 2722 1303 2513 
Q 1116 2303 1119 1944 
L 2431 1944 
z
" transform="scale(0.015625)"/>
      <path id="Arial-BoldMT-72" d="M 1300 0 
L 422 0 
L 422 3319 
L 1238 3319 
L 1238 2847 
Q 1447 3181 1614 3287 
Q 1781 3394 1994 3394 
Q 2294 3394 2572 3228 
L 2300 2463 
Q 2078 2606 1888 2606 
Q 1703 2606 1575 2504 
Q 1447 2403 1373 2137 
Q 1300 1872 1300 1025 
L 1300 0 
z
" transform="scale(0.015625)"/>
      <path id="Arial-BoldMT-20" transform="scale(0.015625)"/>
      <path id="Arial-BoldMT-32" d="M 3238 816 
L 3238 0 
L 159 0 
Q 209 463 459 877 
Q 709 1291 1447 1975 
Q 2041 2528 2175 2725 
Q 2356 2997 2356 3263 
Q 2356 3556 2198 3714 
Q 2041 3872 1763 3872 
Q 1488 3872 1325 3706 
Q 1163 3541 1138 3156 
L 263 3244 
Q 341 3969 753 4284 
Q 1166 4600 1784 4600 
Q 2463 4600 2850 4234 
Q 3238 3869 3238 3325 
Q 3238 3016 3127 2736 
Q 3016 2456 2775 2150 
Q 2616 1947 2200 1565 
Q 1784 1184 1673 1059 
Q 1563 934 1494 816 
L 3238 816 
z
" transform="scale(0.015625)"/>
      <path id="Arial-BoldMT-3a" d="M 628 2441 
L 628 3319 
L 1506 3319 
L 1506 2441 
L 628 2441 
z
M 628 0 
L 628 878 
L 1506 878 
L 1506 0 
L 628 0 
z
" transform="scale(0.015625)"/>
      <path id="Arial-BoldMT-41" d="M 4597 0 
L 3591 0 
L 3191 1041 
L 1359 1041 
L 981 0 
L 0 0 
L 1784 4581 
L 2763 4581 
L 4597 0 
z
M 2894 1813 
L 2263 3513 
L 1644 1813 
L 2894 1813 
z
" transform="scale(0.015625)"/>
      <path id="Arial-BoldMT-63" d="M 3353 2338 
L 2488 2181 
Q 2444 2441 2289 2572 
Q 2134 2703 1888 2703 
Q 1559 2703 1364 2476 
Q 1169 2250 1169 1719 
Q 1169 1128 1367 884 
Q 1566 641 1900 641 
Q 2150 641 2309 783 
Q 2469 925 2534 1272 
L 3397 1125 
Q 3263 531 2881 228 
Q 2500 -75 1859 -75 
Q 1131 -75 698 384 
Q 266 844 266 1656 
Q 266 2478 700 2936 
Q 1134 3394 1875 3394 
Q 2481 3394 2839 3133 
Q 3197 2872 3353 2338 
z
" transform="scale(0.015625)"/>
      <path id="Arial-BoldMT-61" d="M 1116 2306 
L 319 2450 
Q 453 2931 781 3162 
Q 1109 3394 1756 3394 
Q 2344 3394 2631 3255 
Q 2919 3116 3036 2902 
Q 3153 2688 3153 2116 
L 3144 1091 
Q 3144 653 3186 445 
Q 3228 238 3344 0 
L 2475 0 
Q 2441 88 2391 259 
Q 2369 338 2359 363 
Q 2134 144 1878 34 
Q 1622 -75 1331 -75 
Q 819 -75 523 203 
Q 228 481 228 906 
Q 228 1188 362 1408 
Q 497 1628 739 1745 
Q 981 1863 1438 1950 
Q 2053 2066 2291 2166 
L 2291 2253 
Q 2291 2506 2166 2614 
Q 2041 2722 1694 2722 
Q 1459 2722 1328 2630 
Q 1197 2538 1116 2306 
z
M 2291 1594 
Q 2122 1538 1756 1459 
Q 1391 1381 1278 1306 
Q 1106 1184 1106 997 
Q 1106 813 1243 678 
Q 1381 544 1594 544 
Q 1831 544 2047 700 
Q 2206 819 2256 991 
Q 2291 1103 2291 1419 
L 2291 1594 
z
" transform="scale(0.015625)"/>
      <path id="Arial-BoldMT-76" d="M 1372 0 
L 34 3319 
L 956 3319 
L 1581 1625 
L 1763 1059 
Q 1834 1275 1853 1344 
Q 1897 1484 1947 1625 
L 2578 3319 
L 3481 3319 
L 2163 0 
L 1372 0 
z
" transform="scale(0.015625)"/>
      <path id="Arial-BoldMT-46" d="M 472 0 
L 472 4581 
L 3613 4581 
L 3613 3806 
L 1397 3806 
L 1397 2722 
L 3309 2722 
L 3309 1947 
L 1397 1947 
L 1397 0 
L 472 0 
z
" transform="scale(0.015625)"/>
      <path id="Arial-BoldMT-6f" d="M 256 1706 
Q 256 2144 472 2553 
Q 688 2963 1083 3178 
Q 1478 3394 1966 3394 
Q 2719 3394 3200 2905 
Q 3681 2416 3681 1669 
Q 3681 916 3195 420 
Q 2709 -75 1972 -75 
Q 1516 -75 1102 131 
Q 688 338 472 736 
Q 256 1134 256 1706 
z
M 1156 1659 
Q 1156 1166 1390 903 
Q 1625 641 1969 641 
Q 2313 641 2545 903 
Q 2778 1166 2778 1666 
Q 2778 2153 2545 2415 
Q 2313 2678 1969 2678 
Q 1625 2678 1390 2415 
Q 1156 2153 1156 1659 
z
" transform="scale(0.015625)"/>
      <path id="Arial-BoldMT-77" d="M 1078 0 
L 28 3319 
L 881 3319 
L 1503 1144 
L 2075 3319 
L 2922 3319 
L 3475 1144 
L 4109 3319 
L 4975 3319 
L 3909 0 
L 3066 0 
L 2494 2134 
L 1931 0 
L 1078 0 
z
" transform="scale(0.015625)"/>
      <path id="Arial-BoldMT-69" d="M 459 3769 
L 459 4581 
L 1338 4581 
L 1338 3769 
L 459 3769 
z
M 459 0 
L 459 3319 
L 1338 3319 
L 1338 0 
L 459 0 
z
" transform="scale(0.015625)"/>
      <path id="Arial-BoldMT-68" d="M 1334 4581 
L 1334 2897 
Q 1759 3394 2350 3394 
Q 2653 3394 2897 3281 
Q 3141 3169 3264 2994 
Q 3388 2819 3433 2606 
Q 3478 2394 3478 1947 
L 3478 0 
L 2600 0 
L 2600 1753 
Q 2600 2275 2550 2415 
Q 2500 2556 2373 2639 
Q 2247 2722 2056 2722 
Q 1838 2722 1666 2615 
Q 1494 2509 1414 2295 
Q 1334 2081 1334 1663 
L 1334 0 
L 456 0 
L 456 4581 
L 1334 4581 
z
" transform="scale(0.015625)"/>
      <path id="Arial-BoldMT-39" d="M 291 1059 
L 1141 1153 
Q 1172 894 1303 769 
Q 1434 644 1650 644 
Q 1922 644 2112 894 
Q 2303 1144 2356 1931 
Q 2025 1547 1528 1547 
Q 988 1547 595 1964 
Q 203 2381 203 3050 
Q 203 3747 617 4173 
Q 1031 4600 1672 4600 
Q 2369 4600 2816 4061 
Q 3263 3522 3263 2288 
Q 3263 1031 2797 475 
Q 2331 -81 1584 -81 
Q 1047 -81 715 205 
Q 384 491 291 1059 
z
M 2278 2978 
Q 2278 3403 2083 3637 
Q 1888 3872 1631 3872 
Q 1388 3872 1227 3680 
Q 1066 3488 1066 3050 
Q 1066 2606 1241 2398 
Q 1416 2191 1678 2191 
Q 1931 2191 2104 2391 
Q 2278 2591 2278 2978 
z
" transform="scale(0.015625)"/>
      <path id="Arial-BoldMT-35" d="M 284 1178 
L 1159 1269 
Q 1197 972 1381 798 
Q 1566 625 1806 625 
Q 2081 625 2272 848 
Q 2463 1072 2463 1522 
Q 2463 1944 2273 2155 
Q 2084 2366 1781 2366 
Q 1403 2366 1103 2031 
L 391 2134 
L 841 4519 
L 3163 4519 
L 3163 3697 
L 1506 3697 
L 1369 2919 
Q 1663 3066 1969 3066 
Q 2553 3066 2959 2641 
Q 3366 2216 3366 1538 
Q 3366 972 3038 528 
Q 2591 -78 1797 -78 
Q 1163 -78 763 262 
Q 363 603 284 1178 
z
" transform="scale(0.015625)"/>
      <path id="Arial-BoldMT-25" d="M 278 3450 
Q 278 4066 548 4362 
Q 819 4659 1281 4659 
Q 1759 4659 2029 4364 
Q 2300 4069 2300 3450 
Q 2300 2834 2029 2537 
Q 1759 2241 1297 2241 
Q 819 2241 548 2536 
Q 278 2831 278 3450 
z
M 963 3456 
Q 963 3009 1066 2856 
Q 1144 2744 1281 2744 
Q 1422 2744 1500 2856 
Q 1600 3009 1600 3456 
Q 1600 3903 1500 4053 
Q 1422 4169 1281 4169 
Q 1144 4169 1066 4056 
Q 963 3903 963 3456 
z
M 1950 -175 
L 1300 -175 
L 3741 4659 
L 4372 4659 
L 1950 -175 
z
M 3369 1028 
Q 3369 1644 3639 1941 
Q 3909 2238 4378 2238 
Q 4850 2238 5120 1941 
Q 5391 1644 5391 1028 
Q 5391 409 5120 112 
Q 4850 -184 4388 -184 
Q 3909 -184 3639 112 
Q 3369 409 3369 1028 
z
M 4053 1031 
Q 4053 584 4156 434 
Q 4234 319 4372 319 
Q 4513 319 4588 431 
Q 4691 584 4691 1031 
Q 4691 1478 4591 1631 
Q 4513 1744 4372 1744 
Q 4231 1744 4156 1631 
Q 4053 1478 4053 1031 
z
" transform="scale(0.015625)"/>
      <path id="Arial-BoldMT-50" d="M 466 0 
L 466 4581 
L 1950 4581 
Q 2794 4581 3050 4513 
Q 3444 4409 3709 4064 
Q 3975 3719 3975 3172 
Q 3975 2750 3822 2462 
Q 3669 2175 3433 2011 
Q 3197 1847 2953 1794 
Q 2622 1728 1994 1728 
L 1391 1728 
L 1391 0 
L 466 0 
z
M 1391 3806 
L 1391 2506 
L 1897 2506 
Q 2444 2506 2628 2578 
Q 2813 2650 2917 2803 
Q 3022 2956 3022 3159 
Q 3022 3409 2875 3571 
Q 2728 3734 2503 3775 
Q 2338 3806 1838 3806 
L 1391 3806 
z
" transform="scale(0.015625)"/>
      <path id="Arial-BoldMT-64" d="M 3503 0 
L 2688 0 
L 2688 488 
Q 2484 203 2207 64 
Q 1931 -75 1650 -75 
Q 1078 -75 670 386 
Q 263 847 263 1672 
Q 263 2516 659 2955 
Q 1056 3394 1663 3394 
Q 2219 3394 2625 2931 
L 2625 4581 
L 3503 4581 
L 3503 0 
z
M 1159 1731 
Q 1159 1200 1306 963 
Q 1519 619 1900 619 
Q 2203 619 2415 876 
Q 2628 1134 2628 1647 
Q 2628 2219 2422 2470 
Q 2216 2722 1894 2722 
Q 1581 2722 1370 2473 
Q 1159 2225 1159 1731 
z
" transform="scale(0.015625)"/>
      <path id="Arial-BoldMT-6e" d="M 3478 0 
L 2600 0 
L 2600 1694 
Q 2600 2231 2544 2389 
Q 2488 2547 2361 2634 
Q 2234 2722 2056 2722 
Q 1828 2722 1647 2597 
Q 1466 2472 1398 2265 
Q 1331 2059 1331 1503 
L 1331 0 
L 453 0 
L 453 3319 
L 1269 3319 
L 1269 2831 
Q 1703 3394 2363 3394 
Q 2653 3394 2893 3289 
Q 3134 3184 3257 3021 
Q 3381 2859 3429 2653 
Q 3478 2447 3478 2063 
L 3478 0 
z
" transform="scale(0.015625)"/>
      <path id="Arial-BoldMT-49" d="M 438 0 
L 438 4581 
L 1363 4581 
L 1363 0 
L 438 0 
z
" transform="scale(0.015625)"/>
     </defs>
     <use xlink:href="#Arial-BoldMT-43"/>
     <use xlink:href="#Arial-BoldMT-6c" x="72.216797"/>
     <use xlink:href="#Arial-BoldMT-75" x="100"/>
     <use xlink:href="#Arial-BoldMT-73" x="161.083984"/>
     <use xlink:href="#Arial-BoldMT-74" x="216.699219"/>
     <use xlink:href="#Arial-BoldMT-65" x="250"/>
     <use xlink:href="#Arial-BoldMT-72" x="305.615234"/>
     <use xlink:href="#Arial-BoldMT-20" x="344.53125"/>
     <use xlink:href="#Arial-BoldMT-32" x="372.314453"/>
     <use xlink:href="#Arial-BoldMT-3a" x="427.929688"/>
     <use xlink:href="#Arial-BoldMT-20" x="461.230469"/>
     <use xlink:href="#Arial-BoldMT-41" x="485.263672"/>
     <use xlink:href="#Arial-BoldMT-63" x="557.480469"/>
     <use xlink:href="#Arial-BoldMT-74" x="613.095703"/>
     <use xlink:href="#Arial-BoldMT-75" x="646.396484"/>
     <use xlink:href="#Arial-BoldMT-61" x="707.480469"/>
     <use xlink:href="#Arial-BoldMT-6c" x="763.095703"/>
     <use xlink:href="#Arial-BoldMT-20" x="790.878906"/>
     <use xlink:href="#Arial-BoldMT-76" x="818.662109"/>
     <use xlink:href="#Arial-BoldMT-73" x="874.277344"/>
     <use xlink:href="#Arial-BoldMT-20" x="929.892578"/>
     <use xlink:href="#Arial-BoldMT-46" x="957.675781"/>
     <use xlink:href="#Arial-BoldMT-6f" x="1018.759766"/>
     <use xlink:href="#Arial-BoldMT-72" x="1079.84375"/>
     <use xlink:href="#Arial-BoldMT-65" x="1118.759766"/>
     <use xlink:href="#Arial-BoldMT-63" x="1174.375"/>
     <use xlink:href="#Arial-BoldMT-61" x="1229.990234"/>
     <use xlink:href="#Arial-BoldMT-73" x="1285.605469"/>
     <use xlink:href="#Arial-BoldMT-74" x="1341.220703"/>
     <use xlink:href="#Arial-BoldMT-20" x="1374.521484"/>
     <use xlink:href="#Arial-BoldMT-77" x="1402.304688"/>
     <use xlink:href="#Arial-BoldMT-69" x="1480.087891"/>
     <use xlink:href="#Arial-BoldMT-74" x="1507.871094"/>
     <use xlink:href="#Arial-BoldMT-68" x="1541.171875"/>
     <use xlink:href="#Arial-BoldMT-20" x="1602.255859"/>
     <use xlink:href="#Arial-BoldMT-39" x="1630.039062"/>
     <use xlink:href="#Arial-BoldMT-35" x="1685.654297"/>
     <use xlink:href="#Arial-BoldMT-25" x="1741.269531"/>
     <use xlink:href="#Arial-BoldMT-20" x="1830.185547"/>
     <use xlink:href="#Arial-BoldMT-50" x="1857.96875"/>
     <use xlink:href="#Arial-BoldMT-72" x="1924.667969"/>
     <use xlink:href="#Arial-BoldMT-65" x="1963.583984"/>
     <use xlink:href="#Arial-BoldMT-64" x="2019.199219"/>
     <use xlink:href="#Arial-BoldMT-69" x="2080.283203"/>
     <use xlink:href="#Arial-BoldMT-63" x="2108.066406"/>
     <use xlink:href="#Arial-BoldMT-74" x="2163.681641"/>
     <use xlink:href="#Arial-BoldMT-69" x="2196.982422"/>
     <use xlink:href="#Arial-BoldMT-6f" x="2224.765625"/>
     <use xlink:href="#Arial-BoldMT-6e" x="2285.849609"/>
     <use xlink:href="#Arial-BoldMT-20" x="2346.933594"/>
     <use xlink:href="#Arial-BoldMT-49" x="2374.716797"/>
     <use xlink:href="#Arial-BoldMT-6e" x="2402.5"/>
     <use xlink:href="#Arial-BoldMT-74" x="2463.583984"/>
     <use xlink:href="#Arial-BoldMT-65" x="2496.884766"/>
     <use xlink:href="#Arial-BoldMT-72" x="2552.5"/>
     <use xlink:href="#Arial-BoldMT-76" x="2591.416016"/>
     <use xlink:href="#Arial-BoldMT-61" x="2647.03125"/>
     <use xlink:href="#Arial-BoldMT-6c" x="2702.646484"/>
     <use xlink:href="#Arial-BoldMT-73" x="2730.429688"/>
    </g>
   </g>
   <g id="legend_1">
    <g id="line2d_16">
     <path d="M 808.247344 35.712969 
L 819.247344 35.712969 
L 830.247344 35.712969 
" style="fill: none; stroke: #1f77b4; stroke-width: 2.2; stroke-linecap: round"/>
    </g>
    <g id="text_16">
     <!-- Actual Sales -->
     <g style="fill: #262626" transform="translate(839.047344 39.562969) scale(0.11 -0.11)">
      <defs>
       <path id="ArialMT-41" d="M -9 0 
L 1750 4581 
L 2403 4581 
L 4278 0 
L 3588 0 
L 3053 1388 
L 1138 1388 
L 634 0 
L -9 0 
z
M 1313 1881 
L 2866 1881 
L 2388 3150 
Q 2169 3728 2063 4100 
Q 1975 3659 1816 3225 
L 1313 1881 
z
" transform="scale(0.015625)"/>
       <path id="ArialMT-53" d="M 288 1472 
L 859 1522 
Q 900 1178 1048 958 
Q 1197 738 1509 602 
Q 1822 466 2213 466 
Q 2559 466 2825 569 
Q 3091 672 3220 851 
Q 3350 1031 3350 1244 
Q 3350 1459 3225 1620 
Q 3100 1781 2813 1891 
Q 2628 1963 1997 2114 
Q 1366 2266 1113 2400 
Q 784 2572 623 2826 
Q 463 3081 463 3397 
Q 463 3744 659 4045 
Q 856 4347 1234 4503 
Q 1613 4659 2075 4659 
Q 2584 4659 2973 4495 
Q 3363 4331 3572 4012 
Q 3781 3694 3797 3291 
L 3216 3247 
Q 3169 3681 2898 3903 
Q 2628 4125 2100 4125 
Q 1550 4125 1298 3923 
Q 1047 3722 1047 3438 
Q 1047 3191 1225 3031 
Q 1400 2872 2139 2705 
Q 2878 2538 3153 2413 
Q 3553 2228 3743 1945 
Q 3934 1663 3934 1294 
Q 3934 928 3725 604 
Q 3516 281 3123 101 
Q 2731 -78 2241 -78 
Q 1619 -78 1198 103 
Q 778 284 539 648 
Q 300 1013 288 1472 
z
" transform="scale(0.015625)"/>
      </defs>
      <use xlink:href="#ArialMT-41"/>
      <use xlink:href="#ArialMT-63" x="66.699219"/>
      <use xlink:href="#ArialMT-74" x="116.699219"/>
      <use xlink:href="#ArialMT-75" x="144.482422"/>
      <use xlink:href="#ArialMT-61" x="200.097656"/>
      <use xlink:href="#ArialMT-6c" x="255.712891"/>
      <use xlink:href="#ArialMT-20" x="277.929688"/>
      <use xlink:href="#ArialMT-53" x="305.712891"/>
      <use xlink:href="#ArialMT-61" x="372.412109"/>
      <use xlink:href="#ArialMT-6c" x="428.027344"/>
      <use xlink:href="#ArialMT-65" x="450.244141"/>
      <use xlink:href="#ArialMT-73" x="505.859375"/>
     </g>
    </g>
    <g id="line2d_17">
     <path d="M 808.247344 51.406875 
L 819.247344 51.406875 
L 830.247344 51.406875 
" style="fill: none; stroke: #ff7f0e; stroke-width: 1.8; stroke-linecap: round"/>
    </g>
    <g id="text_17">
     <!-- Model 1 (Holt-Winters / ETS) -->
     <g style="fill: #262626" transform="translate(839.047344 55.256875) scale(0.11 -0.11)">
      <defs>
       <path id="ArialMT-4d" d="M 475 0 
L 475 4581 
L 1388 4581 
L 2472 1338 
Q 2622 884 2691 659 
Q 2769 909 2934 1394 
L 4031 4581 
L 4847 4581 
L 4847 0 
L 4263 0 
L 4263 3834 
L 2931 0 
L 2384 0 
L 1059 3900 
L 1059 0 
L 475 0 
z
" transform="scale(0.015625)"/>
       <path id="ArialMT-6f" d="M 213 1659 
Q 213 2581 725 3025 
Q 1153 3394 1769 3394 
Q 2453 3394 2887 2945 
Q 3322 2497 3322 1706 
Q 3322 1066 3130 698 
Q 2938 331 2570 128 
Q 2203 -75 1769 -75 
Q 1072 -75 642 372 
Q 213 819 213 1659 
z
M 791 1659 
Q 791 1022 1069 705 
Q 1347 388 1769 388 
Q 2188 388 2466 706 
Q 2744 1025 2744 1678 
Q 2744 2294 2464 2611 
Q 2184 2928 1769 2928 
Q 1347 2928 1069 2612 
Q 791 2297 791 1659 
z
" transform="scale(0.015625)"/>
       <path id="ArialMT-64" d="M 2575 0 
L 2575 419 
Q 2259 -75 1647 -75 
Q 1250 -75 917 144 
Q 584 363 401 755 
Q 219 1147 219 1656 
Q 219 2153 384 2558 
Q 550 2963 881 3178 
Q 1213 3394 1622 3394 
Q 1922 3394 2156 3267 
Q 2391 3141 2538 2938 
L 2538 4581 
L 3097 4581 
L 3097 0 
L 2575 0 
z
M 797 1656 
Q 797 1019 1065 703 
Q 1334 388 1700 388 
Q 2069 388 2326 689 
Q 2584 991 2584 1609 
Q 2584 2291 2321 2609 
Q 2059 2928 1675 2928 
Q 1300 2928 1048 2622 
Q 797 2316 797 1656 
z
" transform="scale(0.015625)"/>
       <path id="ArialMT-28" d="M 1497 -1347 
Q 1031 -759 709 28 
Q 388 816 388 1659 
Q 388 2403 628 3084 
Q 909 3875 1497 4659 
L 1900 4659 
Q 1522 4009 1400 3731 
Q 1209 3300 1100 2831 
Q 966 2247 966 1656 
Q 966 153 1900 -1347 
L 1497 -1347 
z
" transform="scale(0.015625)"/>
       <path id="ArialMT-48" d="M 513 0 
L 513 4581 
L 1119 4581 
L 1119 2700 
L 3500 2700 
L 3500 4581 
L 4106 4581 
L 4106 0 
L 3500 0 
L 3500 2159 
L 1119 2159 
L 1119 0 
L 513 0 
z
" transform="scale(0.015625)"/>
       <path id="ArialMT-57" d="M 1294 0 
L 78 4581 
L 700 4581 
L 1397 1578 
Q 1509 1106 1591 641 
Q 1766 1375 1797 1488 
L 2669 4581 
L 3400 4581 
L 4056 2263 
Q 4303 1400 4413 641 
Q 4500 1075 4641 1638 
L 5359 4581 
L 5969 4581 
L 4713 0 
L 4128 0 
L 3163 3491 
Q 3041 3928 3019 4028 
Q 2947 3713 2884 3491 
L 1913 0 
L 1294 0 
z
" transform="scale(0.015625)"/>
       <path id="ArialMT-6e" d="M 422 0 
L 422 3319 
L 928 3319 
L 928 2847 
Q 1294 3394 1984 3394 
Q 2284 3394 2536 3286 
Q 2788 3178 2913 3003 
Q 3038 2828 3088 2588 
Q 3119 2431 3119 2041 
L 3119 0 
L 2556 0 
L 2556 2019 
Q 2556 2363 2490 2533 
Q 2425 2703 2258 2804 
Q 2091 2906 1866 2906 
Q 1506 2906 1245 2678 
Q 984 2450 984 1813 
L 984 0 
L 422 0 
z
" transform="scale(0.015625)"/>
       <path id="ArialMT-2f" d="M 0 -78 
L 1328 4659 
L 1778 4659 
L 453 -78 
L 0 -78 
z
" transform="scale(0.015625)"/>
       <path id="ArialMT-45" d="M 506 0 
L 506 4581 
L 3819 4581 
L 3819 4041 
L 1113 4041 
L 1113 2638 
L 3647 2638 
L 3647 2100 
L 1113 2100 
L 1113 541 
L 3925 541 
L 3925 0 
L 506 0 
z
" transform="scale(0.015625)"/>
       <path id="ArialMT-54" d="M 1659 0 
L 1659 4041 
L 150 4041 
L 150 4581 
L 3781 4581 
L 3781 4041 
L 2266 4041 
L 2266 0 
L 1659 0 
z
" transform="scale(0.015625)"/>
       <path id="ArialMT-29" d="M 791 -1347 
L 388 -1347 
Q 1322 153 1322 1656 
Q 1322 2244 1188 2822 
Q 1081 3291 891 3722 
Q 769 4003 388 4659 
L 791 4659 
Q 1378 3875 1659 3084 
Q 1900 2403 1900 1659 
Q 1900 816 1576 28 
Q 1253 -759 791 -1347 
z
" transform="scale(0.015625)"/>
      </defs>
      <use xlink:href="#ArialMT-4d"/>
      <use xlink:href="#ArialMT-6f" x="83.300781"/>
      <use xlink:href="#ArialMT-64" x="138.916016"/>
      <use xlink:href="#ArialMT-65" x="194.53125"/>
      <use xlink:href="#ArialMT-6c" x="250.146484"/>
      <use xlink:href="#ArialMT-20" x="272.363281"/>
      <use xlink:href="#ArialMT-31" x="300.146484"/>
      <use xlink:href="#ArialMT-20" x="355.761719"/>
      <use xlink:href="#ArialMT-28" x="383.544922"/>
      <use xlink:href="#ArialMT-48" x="416.845703"/>
      <use xlink:href="#ArialMT-6f" x="489.0625"/>
      <use xlink:href="#ArialMT-6c" x="544.677734"/>
      <use xlink:href="#ArialMT-74" x="566.894531"/>
      <use xlink:href="#ArialMT-2d" x="594.677734"/>
      <use xlink:href="#ArialMT-57" x="627.978516"/>
      <use xlink:href="#ArialMT-69" x="722.363281"/>
      <use xlink:href="#ArialMT-6e" x="744.580078"/>
      <use xlink:href="#ArialMT-74" x="800.195312"/>
      <use xlink:href="#ArialMT-65" x="827.978516"/>
      <use xlink:href="#ArialMT-72" x="883.59375"/>
      <use xlink:href="#ArialMT-73" x="916.894531"/>
      <use xlink:href="#ArialMT-20" x="966.894531"/>
      <use xlink:href="#ArialMT-2f" x="994.677734"/>
      <use xlink:href="#ArialMT-20" x="1022.460938"/>
      <use xlink:href="#ArialMT-45" x="1050.244141"/>
      <use xlink:href="#ArialMT-54" x="1116.943359"/>
      <use xlink:href="#ArialMT-53" x="1178.027344"/>
      <use xlink:href="#ArialMT-29" x="1244.726562"/>
     </g>
    </g>
    <g id="patch_7">
     <path d="M 808.247344 70.945625 
L 830.247344 70.945625 
L 830.247344 63.245625 
L 808.247344 63.245625 
z
" style="fill: #ff7f0e; fill-opacity: 0.16; stroke: #ff7f0e; stroke-opacity: 0.16; stroke-linejoin: miter"/>
    </g>
    <g id="text_18">
     <!-- Baseline 95% interval -->
     <g style="fill: #262626" transform="translate(839.047344 70.945625) scale(0.11 -0.11)">
      <defs>
       <path id="ArialMT-42" d="M 469 0 
L 469 4581 
L 2188 4581 
Q 2713 4581 3030 4442 
Q 3347 4303 3526 4014 
Q 3706 3725 3706 3409 
Q 3706 3116 3547 2856 
Q 3388 2597 3066 2438 
Q 3481 2316 3704 2022 
Q 3928 1728 3928 1328 
Q 3928 1006 3792 729 
Q 3656 453 3456 303 
Q 3256 153 2954 76 
Q 2653 0 2216 0 
L 469 0 
z
M 1075 2656 
L 2066 2656 
Q 2469 2656 2644 2709 
Q 2875 2778 2992 2937 
Q 3109 3097 3109 3338 
Q 3109 3566 3000 3739 
Q 2891 3913 2687 3977 
Q 2484 4041 1991 4041 
L 1075 4041 
L 1075 2656 
z
M 1075 541 
L 2216 541 
Q 2509 541 2628 563 
Q 2838 600 2978 687 
Q 3119 775 3209 942 
Q 3300 1109 3300 1328 
Q 3300 1584 3169 1773 
Q 3038 1963 2805 2039 
Q 2572 2116 2134 2116 
L 1075 2116 
L 1075 541 
z
" transform="scale(0.015625)"/>
       <path id="ArialMT-35" d="M 266 1200 
L 856 1250 
Q 922 819 1161 601 
Q 1400 384 1738 384 
Q 2144 384 2425 690 
Q 2706 997 2706 1503 
Q 2706 1984 2436 2262 
Q 2166 2541 1728 2541 
Q 1456 2541 1237 2417 
Q 1019 2294 894 2097 
L 366 2166 
L 809 4519 
L 3088 4519 
L 3088 3981 
L 1259 3981 
L 1013 2750 
Q 1425 3038 1878 3038 
Q 2478 3038 2890 2622 
Q 3303 2206 3303 1553 
Q 3303 931 2941 478 
Q 2500 -78 1738 -78 
Q 1113 -78 717 272 
Q 322 622 266 1200 
z
" transform="scale(0.015625)"/>
       <path id="ArialMT-25" d="M 372 3481 
Q 372 3972 619 4315 
Q 866 4659 1334 4659 
Q 1766 4659 2048 4351 
Q 2331 4044 2331 3447 
Q 2331 2866 2045 2552 
Q 1759 2238 1341 2238 
Q 925 2238 648 2547 
Q 372 2856 372 3481 
z
M 1350 4272 
Q 1141 4272 1002 4090 
Q 863 3909 863 3425 
Q 863 2984 1003 2804 
Q 1144 2625 1350 2625 
Q 1563 2625 1702 2806 
Q 1841 2988 1841 3469 
Q 1841 3913 1700 4092 
Q 1559 4272 1350 4272 
z
M 1353 -169 
L 3859 4659 
L 4316 4659 
L 1819 -169 
L 1353 -169 
z
M 3334 1075 
Q 3334 1569 3581 1911 
Q 3828 2253 4300 2253 
Q 4731 2253 5014 1945 
Q 5297 1638 5297 1041 
Q 5297 459 5011 145 
Q 4725 -169 4303 -169 
Q 3888 -169 3611 142 
Q 3334 453 3334 1075 
z
M 4316 1866 
Q 4103 1866 3964 1684 
Q 3825 1503 3825 1019 
Q 3825 581 3965 400 
Q 4106 219 4313 219 
Q 4528 219 4667 400 
Q 4806 581 4806 1063 
Q 4806 1506 4665 1686 
Q 4525 1866 4316 1866 
z
" transform="scale(0.015625)"/>
       <path id="ArialMT-76" d="M 1344 0 
L 81 3319 
L 675 3319 
L 1388 1331 
Q 1503 1009 1600 663 
Q 1675 925 1809 1294 
L 2547 3319 
L 3125 3319 
L 1869 0 
L 1344 0 
z
" transform="scale(0.015625)"/>
      </defs>
      <use xlink:href="#ArialMT-42"/>
      <use xlink:href="#ArialMT-61" x="66.699219"/>
      <use xlink:href="#ArialMT-73" x="122.314453"/>
      <use xlink:href="#ArialMT-65" x="172.314453"/>
      <use xlink:href="#ArialMT-6c" x="227.929688"/>
      <use xlink:href="#ArialMT-69" x="250.146484"/>
      <use xlink:href="#ArialMT-6e" x="272.363281"/>
      <use xlink:href="#ArialMT-65" x="327.978516"/>
      <use xlink:href="#ArialMT-20" x="383.59375"/>
      <use xlink:href="#ArialMT-39" x="411.376953"/>
      <use xlink:href="#ArialMT-35" x="466.992188"/>
      <use xlink:href="#ArialMT-25" x="522.607422"/>
      <use xlink:href="#ArialMT-20" x="611.523438"/>
      <use xlink:href="#ArialMT-69" x="639.306641"/>
      <use xlink:href="#ArialMT-6e" x="661.523438"/>
      <use xlink:href="#ArialMT-74" x="717.138672"/>
      <use xlink:href="#ArialMT-65" x="744.921875"/>
      <use xlink:href="#ArialMT-72" x="800.537109"/>
      <use xlink:href="#ArialMT-76" x="833.837891"/>
      <use xlink:href="#ArialMT-61" x="883.837891"/>
      <use xlink:href="#ArialMT-6c" x="939.453125"/>
     </g>
    </g>
    <g id="line2d_18">
     <path d="M 808.247344 82.789531 
L 819.247344 82.789531 
L 830.247344 82.789531 
" style="fill: none; stroke: #2ca02c; stroke-width: 1.8; stroke-linecap: round"/>
    </g>
    <g id="text_19">
     <!-- Model 2 (Global LGBM) -->
     <g style="fill: #262626" transform="translate(839.047344 86.639531) scale(0.11 -0.11)">
      <defs>
       <path id="ArialMT-47" d="M 2638 1797 
L 2638 2334 
L 4578 2338 
L 4578 638 
Q 4131 281 3656 101 
Q 3181 -78 2681 -78 
Q 2006 -78 1454 211 
Q 903 500 622 1047 
Q 341 1594 341 2269 
Q 341 2938 620 3517 
Q 900 4097 1425 4378 
Q 1950 4659 2634 4659 
Q 3131 4659 3532 4498 
Q 3934 4338 4162 4050 
Q 4391 3763 4509 3300 
L 3963 3150 
Q 3859 3500 3706 3700 
Q 3553 3900 3268 4020 
Q 2984 4141 2638 4141 
Q 2222 4141 1919 4014 
Q 1616 3888 1430 3681 
Q 1244 3475 1141 3228 
Q 966 2803 966 2306 
Q 966 1694 1177 1281 
Q 1388 869 1791 669 
Q 2194 469 2647 469 
Q 3041 469 3416 620 
Q 3791 772 3984 944 
L 3984 1797 
L 2638 1797 
z
" transform="scale(0.015625)"/>
       <path id="ArialMT-62" d="M 941 0 
L 419 0 
L 419 4581 
L 981 4581 
L 981 2947 
Q 1338 3394 1891 3394 
Q 2197 3394 2470 3270 
Q 2744 3147 2920 2923 
Q 3097 2700 3197 2384 
Q 3297 2069 3297 1709 
Q 3297 856 2875 390 
Q 2453 -75 1863 -75 
Q 1275 -75 941 416 
L 941 0 
z
M 934 1684 
Q 934 1088 1097 822 
Q 1363 388 1816 388 
Q 2184 388 2453 708 
Q 2722 1028 2722 1663 
Q 2722 2313 2464 2622 
Q 2206 2931 1841 2931 
Q 1472 2931 1203 2611 
Q 934 2291 934 1684 
z
" transform="scale(0.015625)"/>
       <path id="ArialMT-4c" d="M 469 0 
L 469 4581 
L 1075 4581 
L 1075 541 
L 3331 541 
L 3331 0 
L 469 0 
z
" transform="scale(0.015625)"/>
      </defs>
      <use xlink:href="#ArialMT-4d"/>
      <use xlink:href="#ArialMT-6f" x="83.300781"/>
      <use xlink:href="#ArialMT-64" x="138.916016"/>
      <use xlink:href="#ArialMT-65" x="194.53125"/>
      <use xlink:href="#ArialMT-6c" x="250.146484"/>
      <use xlink:href="#ArialMT-20" x="272.363281"/>
      <use xlink:href="#ArialMT-32" x="300.146484"/>
      <use xlink:href="#ArialMT-20" x="355.761719"/>
      <use xlink:href="#ArialMT-28" x="383.544922"/>
      <use xlink:href="#ArialMT-47" x="416.845703"/>
      <use xlink:href="#ArialMT-6c" x="494.628906"/>
      <use xlink:href="#ArialMT-6f" x="516.845703"/>
      <use xlink:href="#ArialMT-62" x="572.460938"/>
      <use xlink:href="#ArialMT-61" x="628.076172"/>
      <use xlink:href="#ArialMT-6c" x="683.691406"/>
      <use xlink:href="#ArialMT-20" x="705.908203"/>
      <use xlink:href="#ArialMT-4c" x="733.691406"/>
      <use xlink:href="#ArialMT-47" x="789.306641"/>
      <use xlink:href="#ArialMT-42" x="867.089844"/>
      <use xlink:href="#ArialMT-4d" x="933.789062"/>
      <use xlink:href="#ArialMT-29" x="1017.089844"/>
     </g>
    </g>
    <g id="patch_8">
     <path d="M 808.247344 102.328281 
L 830.247344 102.328281 
L 830.247344 94.628281 
L 808.247344 94.628281 
z
" style="fill: #2ca02c; fill-opacity: 0.16; stroke: #2ca02c; stroke-opacity: 0.16; stroke-linejoin: miter"/>
    </g>
    <g id="text_20">
     <!-- Model 95% interval -->
     <g style="fill: #262626" transform="translate(839.047344 102.328281) scale(0.11 -0.11)">
      <use xlink:href="#ArialMT-4d"/>
      <use xlink:href="#ArialMT-6f" x="83.300781"/>
      <use xlink:href="#ArialMT-64" x="138.916016"/>
      <use xlink:href="#ArialMT-65" x="194.53125"/>
      <use xlink:href="#ArialMT-6c" x="250.146484"/>
      <use xlink:href="#ArialMT-20" x="272.363281"/>
      <use xlink:href="#ArialMT-39" x="300.146484"/>
      <use xlink:href="#ArialMT-35" x="355.761719"/>
      <use xlink:href="#ArialMT-25" x="411.376953"/>
      <use xlink:href="#ArialMT-20" x="500.292969"/>
      <use xlink:href="#ArialMT-69" x="528.076172"/>
      <use xlink:href="#ArialMT-6e" x="550.292969"/>
      <use xlink:href="#ArialMT-74" x="605.908203"/>
      <use xlink:href="#ArialMT-65" x="633.691406"/>
      <use xlink:href="#ArialMT-72" x="689.306641"/>
      <use xlink:href="#ArialMT-76" x="722.607422"/>
      <use xlink:href="#ArialMT-61" x="772.607422"/>
      <use xlink:href="#ArialMT-6c" x="828.222656"/>
     </g>
    </g>
   </g>
  </g>
 </g>
 <defs>
  <clipPath id="pccf1b9a28b">
   <rect x="62.400156" y="21.789375" width="927.12375" height="285.06"/>
  </clipPath>
 </defs>
</svg>
