<?xml version="1.0" encoding="utf-8" standalone="no"?>
<!DOCTYPE svg PUBLIC "-//W3C//DTD SVG 1.1//EN"
  "http://www.w3.org/Graphics/SVG/1.1/DTD/svg11.dtd">
<svg xmlns:xlink="http://www.w3.org/1999/xlink" width="996.639531pt" height="291.051094pt" viewBox="0 0 996.639531 291.051094" xmlns="http://www.w3.org/2000/svg" version="1.1">
 <metadata>
  <rdf:RDF xmlns:dc="http://purl.org/dc/elements/1.1/" xmlns:cc="http://creativecommons.org/ns#" xmlns:rdf="http://www.w3.org/1999/02/22-rdf-syntax-ns#">
   <cc:Work>
    <dc:type rdf:resource="http://purl.org/dc/dcmitype/StillImage"/>
    <dc:date>2026-03-27T23:08:25.944390</dc:date>
    <dc:format>image/svg+xml</dc:format>
    <dc:creator>
     <cc:Agent>
      <dc:title>Matplotlib v3.9.4, https://matplotlib.org/</dc:title>
     </cc:Agent>
    </dc:creator>
   </cc:Work>
  </rdf:RDF>
 </metadata>
 <defs>
  <style type="text/css">*{stroke-linejoin: round; stroke-linecap: butt}</style>
 </defs>
 <g id="figure_1">
  <g id="patch_1">
   <path d="M 0 291.051094 
L 996.639531 291.051094 
L 996.639531 0 
L 0 0 
z
" style="fill: #ffffff"/>
  </g>
  <g id="axes_1">
   <g id="patch_2">
    <path d="M 62.259531 249.316875 
L 989.439531 249.316875 
L 989.439531 21.935625 
L 62.259531 21.935625 
z
" style="fill: #ffffff"/>
   </g>
   <g id="matplotlib.axis_1">
    <g id="xtick_1">
     <g id="line2d_1">
      <path d="M 72.337575 249.316875 
L 72.337575 21.935625 
" clip-path="url(#pc71c74d725)" style="fill: none; stroke: #cccccc; stroke-linecap: round"/>
     </g>
     <g id="text_1">
      <!-- 2011-06 -->
      <g style="fill: #262626" transform="translate(52.560778 266.690469) scale(0.11 -0.11)">
       <defs>
        <path id="ArialMT-32" d="M 3222 541 
L 3222 0 
L 194 0 
Q 188 203 259 391 
Q 375 700 629 1000 
Q 884 1300 1366 1694 
Q 2113 2306 2375 2664 
Q 2638 3022 2638 3341 
Q 2638 3675 2398 3904 
Q 2159 4134 1775 4134 
Q 1369 4134 1125 3890 
Q 881 3647 878 3216 
L 300 3275 
Q 359 3922 746 4261 
Q 1134 4600 1788 4600 
Q 2447 4600 2831 4234 
Q 3216 3869 3216 3328 
Q 3216 3053 3103 2787 
Q 2991 2522 2730 2228 
Q 2469 1934 1863 1422 
Q 1356 997 1212 845 
Q 1069 694 975 541 
L 3222 541 
z
" transform="scale(0.015625)"/>
        <path id="ArialMT-30" d="M 266 2259 
Q 266 3072 433 3567 
Q 600 4063 929 4331 
Q 1259 4600 1759 4600 
Q 2128 4600 2406 4451 
Q 2684 4303 2865 4023 
Q 3047 3744 3150 3342 
Q 3253 2941 3253 2259 
Q 3253 1453 3087 958 
Q 2922 463 2592 192 
Q 2263 -78 1759 -78 
Q 1097 -78 719 397 
Q 266 969 266 2259 
z
M 844 2259 
Q 844 1131 1108 757 
Q 1372 384 1759 384 
Q 2147 384 2411 759 
Q 2675 1134 2675 2259 
Q 2675 3391 2411 3762 
Q 2147 4134 1753 4134 
Q 1366 4134 1134 3806 
Q 844 3388 844 2259 
z
" transform="scale(0.015625)"/>
        <path id="ArialMT-31" d="M 2384 0 
L 1822 0 
L 1822 3584 
Q 1619 3391 1289 3197 
Q 959 3003 697 2906 
L 697 3450 
Q 1169 3672 1522 3987 
Q 1875 4303 2022 4600 
L 2384 4600 
L 2384 0 
z
" transform="scale(0.015625)"/>
        <path id="ArialMT-2d" d="M 203 1375 
L 203 1941 
L 1931 1941 
L 1931 1375 
L 203 1375 
z
" transform="scale(0.015625)"/>
        <path id="ArialMT-36" d="M 3184 3459 
L 2625 3416 
Q 2550 3747 2413 3897 
Q 2184 4138 1850 4138 
Q 1581 4138 1378 3988 
Q 1113 3794 959 3422 
Q 806 3050 800 2363 
Q 1003 2672 1297 2822 
Q 1591 2972 1913 2972 
Q 2475 2972 2870 2558 
Q 3266 2144 3266 1488 
Q 3266 1056 3080 686 
Q 2894 316 2569 119 
Q 2244 -78 1831 -78 
Q 1128 -78 684 439 
Q 241 956 241 2144 
Q 241 3472 731 4075 
Q 1159 4600 1884 4600 
Q 2425 4600 2770 4297 
Q 3116 3994 3184 3459 
z
M 888 1484 
Q 888 1194 1011 928 
Q 1134 663 1356 523 
Q 1578 384 1822 384 
Q 2178 384 2434 671 
Q 2691 959 2691 1453 
Q 2691 1928 2437 2201 
Q 2184 2475 1800 2475 
Q 1419 2475 1153 2201 
Q 888 1928 888 1484 
z
" transform="scale(0.015625)"/>
       </defs>
       <use xlink:href="#ArialMT-32"/>
       <use xlink:href="#ArialMT-30" x="55.615234"/>
       <use xlink:href="#ArialMT-31" x="111.230469"/>
       <use xlink:href="#ArialMT-31" x="159.470703"/>
       <use xlink:href="#ArialMT-2d" x="215.085938"/>
       <use xlink:href="#ArialMT-30" x="248.386719"/>
       <use xlink:href="#ArialMT-36" x="304.001953"/>
      </g>
     </g>
    </g>
    <g id="xtick_2">
     <g id="line2d_2">
      <path d="M 209.76544 249.316875 
L 209.76544 21.935625 
" clip-path="url(#pc71c74d725)" style="fill: none; stroke: #cccccc; stroke-linecap: round"/>
     </g>
     <g id="text_2">
      <!-- 2011-07 -->
      <g style="fill: #262626" transform="translate(189.988643 266.690469) scale(0.11 -0.11)">
       <defs>
        <path id="ArialMT-37" d="M 303 3981 
L 303 4522 
L 3269 4522 
L 3269 4084 
Q 2831 3619 2401 2847 
Q 1972 2075 1738 1259 
Q 1569 684 1522 0 
L 944 0 
Q 953 541 1156 1306 
Q 1359 2072 1739 2783 
Q 2119 3494 2547 3981 
L 303 3981 
z
" transform="scale(0.015625)"/>
       </defs>
       <use xlink:href="#ArialMT-32"/>
       <use xlink:href="#ArialMT-30" x="55.615234"/>
       <use xlink:href="#ArialMT-31" x="111.230469"/>
       <use xlink:href="#ArialMT-31" x="159.470703"/>
       <use xlink:href="#ArialMT-2d" x="215.085938"/>
       <use xlink:href="#ArialMT-30" x="248.386719"/>
       <use xlink:href="#ArialMT-37" x="304.001953"/>
      </g>
     </g>
    </g>
    <g id="xtick_3">
     <g id="line2d_3">
      <path d="M 351.774235 249.316875 
L 351.774235 21.935625 
" clip-path="url(#pc71c74d725)" style="fill: none; stroke: #cccccc; stroke-linecap: round"/>
     </g>
     <g id="text_3">
      <!-- 2011-08 -->
      <g style="fill: #262626" transform="translate(331.997438 266.690469) scale(0.11 -0.11)">
       <defs>
        <path id="ArialMT-38" d="M 1131 2484 
Q 781 2613 612 2850 
Q 444 3088 444 3419 
Q 444 3919 803 4259 
Q 1163 4600 1759 4600 
Q 2359 4600 2725 4251 
Q 3091 3903 3091 3403 
Q 3091 3084 2923 2848 
Q 2756 2613 2416 2484 
Q 2838 2347 3058 2040 
Q 3278 1734 3278 1309 
Q 3278 722 2862 322 
Q 2447 -78 1769 -78 
Q 1091 -78 675 323 
Q 259 725 259 1325 
Q 259 1772 486 2073 
Q 713 2375 1131 2484 
z
M 1019 3438 
Q 1019 3113 1228 2906 
Q 1438 2700 1772 2700 
Q 2097 2700 2305 2904 
Q 2513 3109 2513 3406 
Q 2513 3716 2298 3927 
Q 2084 4138 1766 4138 
Q 1444 4138 1231 3931 
Q 1019 3725 1019 3438 
z
M 838 1322 
Q 838 1081 952 856 
Q 1066 631 1291 507 
Q 1516 384 1775 384 
Q 2178 384 2440 643 
Q 2703 903 2703 1303 
Q 2703 1709 2433 1975 
Q 2163 2241 1756 2241 
Q 1359 2241 1098 1978 
Q 838 1716 838 1322 
z
" transform="scale(0.015625)"/>
       </defs>
       <use xlink:href="#ArialMT-32"/>
       <use xlink:href="#ArialMT-30" x="55.615234"/>
       <use xlink:href="#ArialMT-31" x="111.230469"/>
       <use xlink:href="#ArialMT-31" x="159.470703"/>
       <use xlink:href="#ArialMT-2d" x="215.085938"/>
       <use xlink:href="#ArialMT-30" x="248.386719"/>
       <use xlink:href="#ArialMT-38" x="304.001953"/>
      </g>
     </g>
    </g>
    <g id="xtick_4">
     <g id="line2d_4">
      <path d="M 493.783029 249.316875 
L 493.783029 21.935625 
" clip-path="url(#pc71c74d725)" style="fill: none; stroke: #cccccc; stroke-linecap: round"/>
     </g>
     <g id="text_4">
      <!-- 2011-09 -->
      <g style="fill: #262626" transform="translate(474.006232 266.690469) scale(0.11 -0.11)">
       <defs>
        <path id="ArialMT-39" d="M 350 1059 
L 891 1109 
Q 959 728 1153 556 
Q 1347 384 1650 384 
Q 1909 384 2104 503 
Q 2300 622 2425 820 
Q 2550 1019 2634 1356 
Q 2719 1694 2719 2044 
Q 2719 2081 2716 2156 
Q 2547 1888 2255 1720 
Q 1963 1553 1622 1553 
Q 1053 1553 659 1965 
Q 266 2378 266 3053 
Q 266 3750 677 4175 
Q 1088 4600 1706 4600 
Q 2153 4600 2523 4359 
Q 2894 4119 3086 3673 
Q 3278 3228 3278 2384 
Q 3278 1506 3087 986 
Q 2897 466 2520 194 
Q 2144 -78 1638 -78 
Q 1100 -78 759 220 
Q 419 519 350 1059 
z
M 2653 3081 
Q 2653 3566 2395 3850 
Q 2138 4134 1775 4134 
Q 1400 4134 1122 3828 
Q 844 3522 844 3034 
Q 844 2597 1108 2323 
Q 1372 2050 1759 2050 
Q 2150 2050 2401 2323 
Q 2653 2597 2653 3081 
z
" transform="scale(0.015625)"/>
       </defs>
       <use xlink:href="#ArialMT-32"/>
       <use xlink:href="#ArialMT-30" x="55.615234"/>
       <use xlink:href="#ArialMT-31" x="111.230469"/>
       <use xlink:href="#ArialMT-31" x="159.470703"/>
       <use xlink:href="#ArialMT-2d" x="215.085938"/>
       <use xlink:href="#ArialMT-30" x="248.386719"/>
       <use xlink:href="#ArialMT-39" x="304.001953"/>
      </g>
     </g>
    </g>
    <g id="xtick_5">
     <g id="line2d_5">
      <path d="M 631.210895 249.316875 
L 631.210895 21.935625 
" clip-path="url(#pc71c74d725)" style="fill: none; stroke: #cccccc; stroke-linecap: round"/>
     </g>
     <g id="text_5">
      <!-- 2011-10 -->
      <g style="fill: #262626" transform="translate(611.434098 266.690469) scale(0.11 -0.11)">
       <use xlink:href="#ArialMT-32"/>
       <use xlink:href="#ArialMT-30" x="55.615234"/>
       <use xlink:href="#ArialMT-31" x="111.230469"/>
       <use xlink:href="#ArialMT-31" x="159.470703"/>
       <use xlink:href="#ArialMT-2d" x="215.085938"/>
       <use xlink:href="#ArialMT-31" x="248.386719"/>
       <use xlink:href="#ArialMT-30" x="304.001953"/>
      </g>
     </g>
    </g>
    <g id="xtick_6">
     <g id="line2d_6">
      <path d="M 773.219689 249.316875 
L 773.219689 21.935625 
" clip-path="url(#pc71c74d725)" style="fill: none; stroke: #cccccc; stroke-linecap: round"/>
     </g>
     <g id="text_6">
      <!-- 2011-11 -->
      <g style="fill: #262626" transform="translate(753.848517 266.690469) scale(0.11 -0.11)">
       <use xlink:href="#ArialMT-32"/>
       <use xlink:href="#ArialMT-30" x="55.615234"/>
       <use xlink:href="#ArialMT-31" x="111.230469"/>
       <use xlink:href="#ArialMT-31" x="159.470703"/>
       <use xlink:href="#ArialMT-2d" x="215.085938"/>
       <use xlink:href="#ArialMT-31" x="248.386719"/>
       <use xlink:href="#ArialMT-31" x="296.626953"/>
      </g>
     </g>
    </g>
    <g id="xtick_7">
     <g id="line2d_7">
      <path d="M 910.647555 249.316875 
L 910.647555 21.935625 
" clip-path="url(#pc71c74d725)" style="fill: none; stroke: #cccccc; stroke-linecap: round"/>
     </g>
     <g id="text_7">
      <!-- 2011-12 -->
      <g style="fill: #262626" transform="translate(890.870758 266.690469) scale(0.11 -0.11)">
       <use xlink:href="#ArialMT-32"/>
       <use xlink:href="#ArialMT-30" x="55.615234"/>
       <use xlink:href="#ArialMT-31" x="111.230469"/>
       <use xlink:href="#ArialMT-31" x="159.470703"/>
       <use xlink:href="#ArialMT-2d" x="215.085938"/>
       <use xlink:href="#ArialMT-31" x="248.386719"/>
       <use xlink:href="#ArialMT-32" x="304.001953"/>
      </g>
     </g>
    </g>
    <g id="text_8">
     <!-- Date -->
     <g style="fill: #262626" transform="translate(513.176406 281.466094) scale(0.12 -0.12)">
      <defs>
       <path id="ArialMT-44" d="M 494 0 
L 494 4581 
L 2072 4581 
Q 2606 4581 2888 4516 
Q 3281 4425 3559 4188 
Q 3922 3881 4101 3404 
Q 4281 2928 4281 2316 
Q 4281 1794 4159 1391 
Q 4038 988 3847 723 
Q 3656 459 3429 307 
Q 3203 156 2883 78 
Q 2563 0 2147 0 
L 494 0 
z
M 1100 541 
L 2078 541 
Q 2531 541 2789 625 
Q 3047 709 3200 863 
Q 3416 1078 3536 1442 
Q 3656 1806 3656 2325 
Q 3656 3044 3420 3430 
Q 3184 3816 2847 3947 
Q 2603 4041 2063 4041 
L 1100 4041 
L 1100 541 
z
" transform="scale(0.015625)"/>
       <path id="ArialMT-61" d="M 2588 409 
Q 2275 144 1986 34 
Q 1697 -75 1366 -75 
Q 819 -75 525 192 
Q 231 459 231 875 
Q 231 1119 342 1320 
Q 453 1522 633 1644 
Q 813 1766 1038 1828 
Q 1203 1872 1538 1913 
Q 2219 1994 2541 2106 
Q 2544 2222 2544 2253 
Q 2544 2597 2384 2738 
Q 2169 2928 1744 2928 
Q 1347 2928 1158 2789 
Q 969 2650 878 2297 
L 328 2372 
Q 403 2725 575 2942 
Q 747 3159 1072 3276 
Q 1397 3394 1825 3394 
Q 2250 3394 2515 3294 
Q 2781 3194 2906 3042 
Q 3031 2891 3081 2659 
Q 3109 2516 3109 2141 
L 3109 1391 
Q 3109 606 3145 398 
Q 3181 191 3288 0 
L 2700 0 
Q 2613 175 2588 409 
z
M 2541 1666 
Q 2234 1541 1622 1453 
Q 1275 1403 1131 1340 
Q 988 1278 909 1158 
Q 831 1038 831 891 
Q 831 666 1001 516 
Q 1172 366 1500 366 
Q 1825 366 2078 508 
Q 2331 650 2450 897 
Q 2541 1088 2541 1459 
L 2541 1666 
z
" transform="scale(0.015625)"/>
       <path id="ArialMT-74" d="M 1650 503 
L 1731 6 
Q 1494 -44 1306 -44 
Q 1000 -44 831 53 
Q 663 150 594 308 
Q 525 466 525 972 
L 525 2881 
L 113 2881 
L 113 3319 
L 525 3319 
L 525 4141 
L 1084 4478 
L 1084 3319 
L 1650 3319 
L 1650 2881 
L 1084 2881 
L 1084 941 
Q 1084 700 1114 631 
Q 1144 563 1211 522 
Q 1278 481 1403 481 
Q 1497 481 1650 503 
z
" transform="scale(0.015625)"/>
       <path id="ArialMT-65" d="M 2694 1069 
L 3275 997 
Q 3138 488 2766 206 
Q 2394 -75 1816 -75 
Q 1088 -75 661 373 
Q 234 822 234 1631 
Q 234 2469 665 2931 
Q 1097 3394 1784 3394 
Q 2450 3394 2872 2941 
Q 3294 2488 3294 1666 
Q 3294 1616 3291 1516 
L 816 1516 
Q 847 969 1125 678 
Q 1403 388 1819 388 
Q 2128 388 2347 550 
Q 2566 713 2694 1069 
z
M 847 1978 
L 2700 1978 
Q 2663 2397 2488 2606 
Q 2219 2931 1791 2931 
Q 1403 2931 1139 2672 
Q 875 2413 847 1978 
z
" transform="scale(0.015625)"/>
      </defs>
      <use xlink:href="#ArialMT-44"/>
      <use xlink:href="#ArialMT-61" x="72.216797"/>
      <use xlink:href="#ArialMT-74" x="127.832031"/>
      <use xlink:href="#ArialMT-65" x="155.615234"/>
     </g>
    </g>
   </g>
   <g id="matplotlib.axis_2">
    <g id="ytick_1">
     <g id="line2d_8">
      <path d="M 62.259531 216.809905 
L 989.439531 216.809905 
" clip-path="url(#pc71c74d725)" style="fill: none; stroke: #cccccc; stroke-linecap: round"/>
     </g>
     <g id="text_9">
      <!-- 0 -->
      <g style="fill: #262626" transform="translate(46.6425 220.746702) scale(0.11 -0.11)">
       <use xlink:href="#ArialMT-30"/>
      </g>
     </g>
    </g>
    <g id="ytick_2">
     <g id="line2d_9">
      <path d="M 62.259531 171.958558 
L 989.439531 171.958558 
" clip-path="url(#pc71c74d725)" style="fill: none; stroke: #cccccc; stroke-linecap: round"/>
     </g>
     <g id="text_10">
      <!-- 10000 -->
      <g style="fill: #262626" transform="translate(22.174375 175.895355) scale(0.11 -0.11)">
       <use xlink:href="#ArialMT-31"/>
       <use xlink:href="#ArialMT-30" x="55.615234"/>
       <use xlink:href="#ArialMT-30" x="111.230469"/>
       <use xlink:href="#ArialMT-30" x="166.845703"/>
       <use xlink:href="#ArialMT-30" x="222.460938"/>
      </g>
     </g>
    </g>
    <g id="ytick_3">
     <g id="line2d_10">
      <path d="M 62.259531 127.107212 
L 989.439531 127.107212 
" clip-path="url(#pc71c74d725)" style="fill: none; stroke: #cccccc; stroke-linecap: round"/>
     </g>
     <g id="text_11">
      <!-- 20000 -->
      <g style="fill: #262626" transform="translate(22.174375 131.044009) scale(0.11 -0.11)">
       <use xlink:href="#ArialMT-32"/>
       <use xlink:href="#ArialMT-30" x="55.615234"/>
       <use xlink:href="#ArialMT-30" x="111.230469"/>
       <use xlink:href="#ArialMT-30" x="166.845703"/>
       <use xlink:href="#ArialMT-30" x="222.460938"/>
      </g>
     </g>
    </g>
    <g id="ytick_4">
     <g id="line2d_11">
      <path d="M 62.259531 82.255865 
L 989.439531 82.255865 
" clip-path="url(#pc71c74d725)" style="fill: none; stroke: #cccccc; stroke-linecap: round"/>
     </g>
     <g id="text_12">
      <!-- 30000 -->
      <g style="fill: #262626" transform="translate(22.174375 86.192662) scale(0.11 -0.11)">
       <defs>
        <path id="ArialMT-33" d="M 269 1209 
L 831 1284 
Q 928 806 1161 595 
Q 1394 384 1728 384 
Q 2125 384 2398 659 
Q 2672 934 2672 1341 
Q 2672 1728 2419 1979 
Q 2166 2231 1775 2231 
Q 1616 2231 1378 2169 
L 1441 2663 
Q 1497 2656 1531 2656 
Q 1891 2656 2178 2843 
Q 2466 3031 2466 3422 
Q 2466 3731 2256 3934 
Q 2047 4138 1716 4138 
Q 1388 4138 1169 3931 
Q 950 3725 888 3313 
L 325 3413 
Q 428 3978 793 4289 
Q 1159 4600 1703 4600 
Q 2078 4600 2393 4439 
Q 2709 4278 2876 4000 
Q 3044 3722 3044 3409 
Q 3044 3113 2884 2869 
Q 2725 2625 2413 2481 
Q 2819 2388 3044 2092 
Q 3269 1797 3269 1353 
Q 3269 753 2831 336 
Q 2394 -81 1725 -81 
Q 1122 -81 723 278 
Q 325 638 269 1209 
z
" transform="scale(0.015625)"/>
       </defs>
       <use xlink:href="#ArialMT-33"/>
       <use xlink:href="#ArialMT-30" x="55.615234"/>
       <use xlink:href="#ArialMT-30" x="111.230469"/>
       <use xlink:href="#ArialMT-30" x="166.845703"/>
       <use xlink:href="#ArialMT-30" x="222.460938"/>
      </g>
     </g>
    </g>
    <g id="ytick_5">
     <g id="line2d_12">
      <path d="M 62.259531 37.404519 
L 989.439531 37.404519 
" clip-path="url(#pc71c74d725)" style="fill: none; stroke: #cccccc; stroke-linecap: round"/>
     </g>
     <g id="text_13">
      <!-- 40000 -->
      <g style="fill: #262626" transform="translate(22.174375 41.341316) scale(0.11 -0.11)">
       <defs>
        <path id="ArialMT-34" d="M 2069 0 
L 2069 1097 
L 81 1097 
L 81 1613 
L 2172 4581 
L 2631 4581 
L 2631 1613 
L 3250 1613 
L 3250 1097 
L 2631 1097 
L 2631 0 
L 2069 0 
z
M 2069 1613 
L 2069 3678 
L 634 1613 
L 2069 1613 
z
" transform="scale(0.015625)"/>
       </defs>
       <use xlink:href="#ArialMT-34"/>
       <use xlink:href="#ArialMT-30" x="55.615234"/>
       <use xlink:href="#ArialMT-30" x="111.230469"/>
       <use xlink:href="#ArialMT-30" x="166.845703"/>
       <use xlink:href="#ArialMT-30" x="222.460938"/>
      </g>
     </g>
    </g>
    <g id="text_14">
     <!-- Residual -->
     <g style="fill: #262626" transform="translate(15.789375 158.971875) rotate(-90) scale(0.12 -0.12)">
      <defs>
       <path id="ArialMT-52" d="M 503 0 
L 503 4581 
L 2534 4581 
Q 3147 4581 3465 4457 
Q 3784 4334 3975 4021 
Q 4166 3709 4166 3331 
Q 4166 2844 3850 2509 
Q 3534 2175 2875 2084 
Q 3116 1969 3241 1856 
Q 3506 1613 3744 1247 
L 4541 0 
L 3778 0 
L 3172 953 
Q 2906 1366 2734 1584 
Q 2563 1803 2427 1890 
Q 2291 1978 2150 2013 
Q 2047 2034 1813 2034 
L 1109 2034 
L 1109 0 
L 503 0 
z
M 1109 2559 
L 2413 2559 
Q 2828 2559 3062 2645 
Q 3297 2731 3419 2920 
Q 3541 3109 3541 3331 
Q 3541 3656 3305 3865 
Q 3069 4075 2559 4075 
L 1109 4075 
L 1109 2559 
z
" transform="scale(0.015625)"/>
       <path id="ArialMT-73" d="M 197 991 
L 753 1078 
Q 800 744 1014 566 
Q 1228 388 1613 388 
Q 2000 388 2187 545 
Q 2375 703 2375 916 
Q 2375 1106 2209 1216 
Q 2094 1291 1634 1406 
Q 1016 1563 777 1677 
Q 538 1791 414 1992 
Q 291 2194 291 2438 
Q 291 2659 392 2848 
Q 494 3038 669 3163 
Q 800 3259 1026 3326 
Q 1253 3394 1513 3394 
Q 1903 3394 2198 3281 
Q 2494 3169 2634 2976 
Q 2775 2784 2828 2463 
L 2278 2388 
Q 2241 2644 2061 2787 
Q 1881 2931 1553 2931 
Q 1166 2931 1000 2803 
Q 834 2675 834 2503 
Q 834 2394 903 2306 
Q 972 2216 1119 2156 
Q 1203 2125 1616 2013 
Q 2213 1853 2448 1751 
Q 2684 1650 2818 1456 
Q 2953 1263 2953 975 
Q 2953 694 2789 445 
Q 2625 197 2315 61 
Q 2006 -75 1616 -75 
Q 969 -75 630 194 
Q 291 463 197 991 
z
" transform="scale(0.015625)"/>
       <path id="ArialMT-69" d="M 425 3934 
L 425 4581 
L 988 4581 
L 988 3934 
L 425 3934 
z
M 425 0 
L 425 3319 
L 988 3319 
L 988 0 
L 425 0 
z
" transform="scale(0.015625)"/>
       <path id="ArialMT-64" d="M 2575 0 
L 2575 419 
Q 2259 -75 1647 -75 
Q 1250 -75 917 144 
Q 584 363 401 755 
Q 219 1147 219 1656 
Q 219 2153 384 2558 
Q 550 2963 881 3178 
Q 1213 3394 1622 3394 
Q 1922 3394 2156 3267 
Q 2391 3141 2538 2938 
L 2538 4581 
L 3097 4581 
L 3097 0 
L 2575 0 
z
M 797 1656 
Q 797 1019 1065 703 
Q 1334 388 1700 388 
Q 2069 388 2326 689 
Q 2584 991 2584 1609 
Q 2584 2291 2321 2609 
Q 2059 2928 1675 2928 
Q 1300 2928 1048 2622 
Q 797 2316 797 1656 
z
" transform="scale(0.015625)"/>
       <path id="ArialMT-75" d="M 2597 0 
L 2597 488 
Q 2209 -75 1544 -75 
Q 1250 -75 995 37 
Q 741 150 617 320 
Q 494 491 444 738 
Q 409 903 409 1263 
L 409 3319 
L 972 3319 
L 972 1478 
Q 972 1038 1006 884 
Q 1059 663 1231 536 
Q 1403 409 1656 409 
Q 1909 409 2131 539 
Q 2353 669 2445 892 
Q 2538 1116 2538 1541 
L 2538 3319 
L 3100 3319 
L 3100 0 
L 2597 0 
z
" transform="scale(0.015625)"/>
       <path id="ArialMT-6c" d="M 409 0 
L 409 4581 
L 972 4581 
L 972 0 
L 409 0 
z
" transform="scale(0.015625)"/>
      </defs>
      <use xlink:href="#ArialMT-52"/>
      <use xlink:href="#ArialMT-65" x="72.216797"/>
      <use xlink:href="#ArialMT-73" x="127.832031"/>
      <use xlink:href="#ArialMT-69" x="177.832031"/>
      <use xlink:href="#ArialMT-64" x="200.048828"/>
      <use xlink:href="#ArialMT-75" x="255.664062"/>
      <use xlink:href="#ArialMT-61" x="311.279297"/>
      <use xlink:href="#ArialMT-6c" x="366.894531"/>
     </g>
    </g>
   </g>
   <g id="line2d_13">
    <path d="M 62.259531 216.809905 
L 989.439531 216.809905 
" clip-path="url(#pc71c74d725)" style="fill: none; stroke-dasharray: 4.44,1.92; stroke-dashoffset: 0; stroke: #000000; stroke-opacity: 0.8; stroke-width: 1.2"/>
   </g>
   <g id="line2d_14">
    <path d="M 104.404077 211.77325 
L 108.985006 136.962048 
L 113.565934 199.303628 
L 118.146863 224.098974 
L 122.727792 218.08459 
L 127.308721 228.099623 
L 131.88965 206.494302 
L 136.470579 220.09787 
L 141.051508 212.555161 
L 145.632436 203.682107 
L 150.213365 224.060442 
L 154.794294 215.600852 
L 159.375223 208.823532 
L 163.956152 211.303011 
L 168.537081 220.639634 
L 173.11801 210.711324 
L 177.698938 201.451293 
L 182.279867 224.02248 
L 186.860796 223.561886 
L 191.441725 221.805464 
L 196.022654 217.678404 
L 200.603583 223.702307 
L 205.184511 209.273579 
L 209.76544 204.169065 
L 214.346369 223.985077 
L 218.927298 220.463612 
L 223.508227 163.253234 
L 228.089156 196.105942 
L 232.670085 217.200445 
L 237.251013 192.989182 
L 241.831942 177.55648 
L 246.412871 223.948225 
L 250.9938 224.064684 
L 255.574729 220.576783 
L 260.155658 205.879178 
L 264.736587 221.658269 
L 269.317515 196.291306 
L 273.898444 208.23481 
L 278.479373 223.911914 
L 283.060302 210.268032 
L 287.641231 215.495169 
L 292.22216 206.714677 
L 296.803089 216.262891 
L 301.384017 196.082887 
L 305.964946 198.821331 
L 310.545875 223.876134 
L 315.126804 202.955104 
L 319.707733 214.250536 
L 324.288662 213.431576 
L 328.869591 215.929739 
L 333.450519 183.598615 
L 338.031448 197.986167 
L 342.612377 223.840878 
L 347.193306 217.093186 
L 351.774235 215.860887 
L 356.355164 216.030293 
L 360.936093 221.501277 
L 365.517021 168.478467 
L 370.09795 204.613058 
L 374.678879 223.806135 
L 379.259808 220.679487 
L 383.840737 218.76654 
L 388.421666 212.462765 
L 393.002594 209.545838 
L 397.583523 163.040989 
L 402.164452 204.46511 
L 406.745381 223.771898 
L 411.32631 220.961076 
L 415.907239 228.182118 
L 420.488168 211.857974 
L 425.069096 194.9096 
L 429.650025 199.069538 
L 434.230954 203.707908 
L 438.811883 223.738157 
L 443.392812 217.165378 
L 447.973741 217.296227 
L 452.55467 214.92258 
L 457.135598 158.97986 
L 461.716527 210.46201 
L 466.297456 204.436176 
L 470.878385 223.704905 
L 475.459314 219.689555 
L 480.040243 238.981364 
L 484.621172 200.460673 
L 489.2021 216.028184 
L 493.783029 200.98927 
L 498.363958 182.751329 
L 502.944887 223.672134 
L 507.525816 217.535999 
L 512.106745 205.103851 
L 516.687674 207.699718 
L 521.268602 190.032214 
L 525.849531 214.396711 
L 530.43046 193.565992 
L 535.011389 223.639834 
L 539.592318 196.886675 
L 544.173247 212.451978 
L 548.754176 187.780706 
L 553.335104 215.087811 
L 557.916033 32.271136 
L 562.496962 187.666038 
L 567.077891 223.607998 
L 571.65882 212.433529 
L 576.239749 221.158575 
L 580.820677 137.929207 
L 585.401606 189.307407 
L 589.982535 200.917276 
L 594.563464 187.682381 
L 599.144393 223.576619 
L 603.725322 199.241669 
L 608.306251 216.222553 
L 612.887179 196.294349 
L 617.468108 192.138774 
L 622.049037 179.277809 
L 626.629966 173.442723 
L 631.210895 223.545689 
L 635.791824 215.976692 
L 640.372753 191.972306 
L 644.953681 184.209569 
L 649.53461 186.197354 
L 654.115539 167.247596 
L 658.696468 186.181375 
L 663.277397 223.5152 
L 667.858326 216.725386 
L 672.439255 195.863143 
L 681.601112 214.665016 
L 686.182041 203.561057 
L 690.76297 189.779188 
L 695.343899 223.485145 
L 699.924828 207.814788 
L 704.505757 189.518754 
L 709.086685 205.281998 
L 713.667614 209.141645 
L 718.248543 204.146444 
L 722.829472 195.950571 
L 727.410401 223.455516 
L 731.99133 217.95881 
L 736.572259 184.388863 
L 741.153187 203.818201 
L 745.734116 200.706155 
L 750.315045 201.283394 
L 754.895974 187.482161 
L 759.476903 223.426306 
L 764.057832 201.823631 
L 768.63876 179.503363 
L 773.219689 212.502876 
L 777.800618 203.218222 
L 782.381547 158.499277 
L 786.962476 172.219131 
L 791.543405 223.397509 
L 796.124334 191.744282 
L 800.705262 131.459816 
L 805.286191 178.278931 
L 809.86712 166.500923 
L 814.448049 178.308295 
L 819.028978 171.073959 
L 823.609907 223.369118 
L 828.190836 200.01599 
L 832.771764 97.842981 
L 837.352693 182.276832 
L 841.933622 179.925706 
L 846.514551 186.809684 
L 851.09548 163.65386 
L 855.676409 223.341125 
L 860.257338 191.001616 
L 864.838266 181.783044 
L 869.419195 176.831963 
L 874.000124 166.024322 
L 878.581053 185.30632 
L 883.161982 161.362378 
L 887.742911 223.313524 
L 892.32384 206.929232 
L 896.904768 182.992129 
L 901.485697 155.28734 
L 906.066626 162.195241 
L 910.647555 179.421434 
L 915.228484 152.297535 
L 919.809413 223.286309 
L 924.390342 209.250085 
L 928.97127 137.519311 
L 933.552199 179.589702 
L 938.133128 168.770526 
L 942.714057 149.480031 
L 947.294986 183.155907 
L 947.294986 183.155907 
" clip-path="url(#pc71c74d725)" style="fill: none; stroke: #ff7f0e; stroke-opacity: 0.35; stroke-width: 1.2; stroke-linecap: round"/>
   </g>
   <g id="line2d_15">
    <path d="M 104.404077 210.599122 
L 108.985006 145.067087 
L 113.565934 200.721297 
L 118.146863 216.809905 
L 122.727792 208.438383 
L 127.308721 216.736921 
L 131.88965 207.375304 
L 136.470579 217.666449 
L 141.051508 218.739838 
L 145.632436 208.143373 
L 150.213365 216.809905 
L 154.794294 205.842816 
L 159.375223 196.73472 
L 163.956152 211.261803 
L 168.537081 217.386931 
L 173.11801 217.29376 
L 177.698938 212.53436 
L 182.279867 216.809905 
L 186.860796 213.676983 
L 191.441725 210.049339 
L 196.022654 216.807299 
L 200.603583 222.256216 
L 205.184511 216.090492 
L 209.76544 215.272715 
L 214.346369 216.809905 
L 218.927298 210.832623 
L 223.508227 152.259216 
L 228.089156 193.555861 
L 232.670085 212.223855 
L 237.251013 197.176115 
L 241.831942 191.453471 
L 246.412871 216.809905 
L 250.9938 214.413076 
L 255.574729 209.249686 
L 260.155658 205.402284 
L 264.736587 217.746712 
L 269.317515 201.132681 
L 273.898444 221.336098 
L 278.479373 216.809905 
L 283.060302 200.58891 
L 287.641231 204.721665 
L 292.22216 205.845502 
L 296.803089 212.869107 
L 301.384017 201.692124 
L 305.964946 213.377227 
L 310.545875 216.809905 
L 315.126804 193.264262 
L 319.707733 200.252316 
L 324.288662 212.362641 
L 328.869591 212.90619 
L 333.450519 189.377592 
L 338.031448 214.955598 
L 342.612377 216.809905 
L 347.193306 207.593627 
L 351.774235 203.380511 
L 356.355164 213.394651 
L 360.936093 216.272403 
L 365.517021 173.582326 
L 370.09795 220.43797 
L 374.678879 216.809905 
L 379.259808 211.195762 
L 383.840737 207.461095 
L 388.421666 211.498428 
L 393.002594 205.673088 
L 397.583523 168.945585 
L 402.164452 219.075535 
L 406.745381 216.809905 
L 411.32631 211.478597 
L 415.907239 217.182207 
L 420.488168 211.495376 
L 425.069096 191.248649 
L 429.650025 204.198226 
L 434.230954 218.95185 
L 438.811883 216.809905 
L 443.392812 207.707627 
L 447.973741 206.041173 
L 452.55467 213.517365 
L 457.135598 155.392927 
L 461.716527 215.695299 
L 466.297456 218.260417 
L 470.878385 216.809905 
L 475.459314 210.265067 
L 480.040243 223.361148 
L 484.621172 183.984276 
L 489.2021 209.799126 
L 493.783029 203.030222 
L 498.363958 194.348052 
L 502.944887 216.809905 
L 507.525816 208.225888 
L 512.106745 191.575255 
L 516.687674 203.630002 
L 521.268602 185.809766 
L 525.849531 218.238296 
L 530.43046 209.499407 
L 535.011389 216.809905 
L 539.592318 187.53673 
L 544.173247 201.027899 
L 548.754176 186.550134 
L 553.335104 211.852441 
L 557.916033 37.962302 
L 562.496962 203.092229 
L 567.077891 216.809905 
L 571.65882 203.110528 
L 576.239749 213.07419 
L 580.820677 139.364739 
L 585.401606 187.07085 
L 589.982535 208.549539 
L 594.563464 203.068181 
L 599.144393 216.809905 
L 603.725322 189.961496 
L 608.306251 209.524896 
L 612.887179 197.161064 
L 617.468108 191.321012 
L 622.049037 188.723132 
L 626.629966 194.319959 
L 631.210895 216.809905 
L 635.791824 206.920501 
L 640.372753 177.83726 
L 644.953681 185.023622 
L 649.53461 185.33962 
L 654.115539 173.069693 
L 658.696468 207.244925 
L 663.277397 216.809905 
L 667.858326 207.543739 
L 672.439255 188.131407 
L 677.020183 207.72874 
L 681.601112 213.322841 
L 686.182041 211.061265 
L 690.76297 205.955924 
L 695.343899 216.809905 
L 699.924828 198.639716 
L 704.505757 182.072598 
L 709.086685 206.408728 
L 713.667614 207.269933 
L 718.248543 212.00446 
L 722.829472 212.95121 
L 727.410401 216.809905 
L 731.99133 208.843259 
L 736.572259 173.986832 
L 741.153187 205.713503 
L 745.734116 200.272857 
L 750.315045 209.859658 
L 754.895974 204.752081 
L 759.476903 216.809905 
L 764.057832 192.593064 
L 768.63876 160.437744 
L 773.219689 212.788428 
L 777.800618 204.284203 
L 782.381547 167.346166 
L 786.962476 192.759291 
L 791.543405 216.809905 
L 796.124334 182.758605 
L 800.705262 125.544612 
L 805.286191 183.502517 
L 809.86712 169.172519 
L 814.448049 190.36642 
L 819.028978 192.995773 
L 823.609907 216.809905 
L 828.190836 190.982235 
L 832.771764 96.190442 
L 837.352693 190.452616 
L 841.933622 184.270774 
L 846.514551 201.709257 
L 851.09548 184.489014 
L 855.676409 216.809905 
L 860.257338 182.004129 
L 864.838266 179.539334 
L 869.419195 186.54158 
L 874.000124 172.13268 
L 878.581053 201.860493 
L 883.161982 182.344013 
L 887.742911 216.809905 
L 896.904768 179.128658 
L 901.485697 168.851354 
L 906.066626 172.366958 
L 910.647555 196.328824 
L 915.228484 173.428213 
L 919.809413 216.809905 
L 924.390342 200.812721 
L 928.97127 138.003222 
L 933.552199 197.690046 
L 938.133128 184.643689 
L 942.714057 172.009335 
L 947.294986 209.719686 
L 947.294986 209.719686 
" clip-path="url(#pc71c74d725)" style="fill: none; stroke: #2ca02c; stroke-opacity: 0.35; stroke-width: 1.2; stroke-linecap: round"/>
   </g>
   <g id="line2d_16">
    <path d="M 131.88965 203.545202 
L 136.470579 204.734433 
L 141.051508 215.53345 
L 145.632436 216.158947 
L 150.213365 216.153442 
L 154.794294 215.798622 
L 159.375223 213.044895 
L 163.956152 213.731854 
L 168.537081 213.809248 
L 177.698938 213.227155 
L 182.279867 213.221732 
L 186.860796 214.359023 
L 191.441725 216.213584 
L 196.022654 217.124355 
L 200.603583 217.561879 
L 205.184511 217.356487 
L 209.76544 217.74474 
L 214.346369 217.739397 
L 218.927298 217.296787 
L 223.508227 208.932182 
L 228.089156 205.850402 
L 232.670085 204.921565 
L 237.251013 202.595222 
L 241.831942 198.793424 
L 246.412871 198.78816 
L 250.9938 199.302599 
L 255.574729 207.491677 
L 260.155658 208.887854 
L 264.736587 209.524686 
L 269.317515 209.996418 
L 273.898444 214.379036 
L 278.479373 214.373849 
L 283.060302 212.402899 
L 287.641231 211.676954 
L 292.22216 211.796311 
L 296.803089 211.025543 
L 301.384017 210.995769 
L 305.964946 209.650986 
L 310.545875 209.645874 
L 315.126804 208.60117 
L 319.707733 208.423366 
L 324.288662 209.382923 
L 328.869591 209.335329 
L 333.450519 207.551862 
L 338.031448 207.432553 
L 342.612377 207.427516 
L 347.193306 209.447242 
L 351.774235 209.677292 
L 356.355164 210.048538 
L 360.936093 210.844472 
L 365.517021 208.684451 
L 370.09795 209.631149 
L 374.678879 209.626186 
L 383.840737 210.553608 
L 388.421666 210.043961 
L 393.002594 208.336041 
L 397.583523 207.559259 
L 411.32631 207.573459 
L 415.907239 208.918542 
L 420.488168 208.832143 
L 425.069096 206.741252 
L 429.650025 211.888188 
L 438.811883 211.775196 
L 443.392812 211.232953 
L 447.973741 209.677826 
L 452.55467 210.115627 
L 457.135598 204.982807 
L 461.716527 206.610303 
L 470.878385 206.709591 
L 475.459314 207.070187 
L 480.040243 210.168064 
L 484.621172 208.102077 
L 489.2021 216.251838 
L 493.783029 214.89859 
L 498.363958 211.800754 
L 502.944887 211.796073 
L 507.525816 211.488422 
L 512.106745 206.648777 
L 516.687674 207.682926 
L 521.268602 203.969216 
L 525.849531 205.884565 
L 530.43046 207.429517 
L 535.011389 207.424903 
L 539.592318 204.474999 
L 544.173247 205.524732 
L 548.754176 202.679159 
L 553.335104 206.25853 
L 557.916033 180.24059 
L 562.496962 179.39774 
L 567.077891 179.393192 
L 571.65882 181.614171 
L 576.239749 182.857971 
L 580.820677 175.736328 
L 585.401606 172.053413 
L 589.982535 196.145719 
L 599.144393 196.143571 
L 603.725322 194.259019 
L 608.306251 193.553873 
L 612.887179 201.891751 
L 617.468108 202.296232 
L 622.049037 199.204879 
L 626.629966 197.170642 
L 631.210895 197.166224 
L 635.791824 199.556941 
L 640.372753 196.09262 
L 644.953681 194.366223 
L 649.53461 193.517449 
L 654.115539 191.798847 
L 658.696468 193.618654 
L 663.277397 193.614299 
L 667.858326 193.721255 
L 672.439255 194.277089 
L 677.020183 197.275807 
L 681.601112 201.342616 
L 686.182041 206.530253 
L 690.76297 207.044226 
L 695.343899 207.039933 
L 699.924828 205.76699 
L 704.505757 204.860649 
L 709.086685 204.872278 
L 713.667614 204.083225 
L 718.248543 204.166851 
L 722.829472 205.048478 
L 727.410401 205.044245 
L 731.99133 206.493391 
L 736.572259 205.760549 
L 741.153187 205.551435 
L 745.734116 204.346365 
L 750.315045 203.937358 
L 754.895974 202.727585 
L 759.476903 202.723413 
L 764.057832 200.418387 
L 768.63876 199.720459 
L 773.219689 200.961127 
L 777.800618 201.319993 
L 782.381547 195.207977 
L 786.962476 193.027544 
L 791.543405 193.02343 
L 796.124334 191.583523 
L 800.705262 184.720159 
L 805.286191 179.831024 
L 809.86712 174.585696 
L 814.448049 177.415555 
L 819.028978 177.251959 
L 823.609907 177.247903 
L 828.190836 178.429576 
L 832.771764 173.627171 
L 837.352693 174.1983 
L 841.933622 176.116126 
L 846.514551 177.33061 
L 851.09548 176.270596 
L 855.676409 176.266597 
L 860.257338 174.978829 
L 864.838266 186.970267 
L 869.419195 186.192428 
L 874.000124 184.206516 
L 878.581053 183.99175 
L 883.161982 183.664395 
L 887.742911 183.660452 
L 892.32384 185.935826 
L 896.904768 186.108553 
L 901.485697 183.030749 
L 906.066626 182.483738 
L 910.647555 181.64304 
L 915.228484 180.348062 
L 919.809413 180.344174 
L 924.390342 180.675725 
L 928.97127 174.179608 
L 933.552199 177.651374 
L 938.133128 178.5907 
L 942.714057 174.313357 
L 947.294986 178.721696 
L 947.294986 178.721696 
" clip-path="url(#pc71c74d725)" style="fill: none; stroke: #ff7f0e; stroke-width: 2; stroke-linecap: round"/>
   </g>
   <g id="line2d_17">
    <path d="M 131.88965 200.821145 
L 136.470579 201.830764 
L 141.051508 212.355442 
L 145.632436 213.415739 
L 150.213365 213.415739 
L 154.794294 213.044944 
L 159.375223 210.187486 
L 163.956152 210.7427 
L 168.537081 210.702769 
L 173.11801 210.496187 
L 177.698938 211.123471 
L 182.279867 211.123471 
L 186.860796 212.242638 
L 191.441725 214.144726 
L 200.603583 215.632552 
L 205.184511 215.460656 
L 209.76544 215.85185 
L 214.346369 215.85185 
L 218.927298 215.445513 
L 223.508227 207.189781 
L 228.089156 203.868147 
L 232.670085 202.434952 
L 237.251013 199.732899 
L 241.831942 196.330149 
L 246.412871 196.330149 
L 250.9938 196.841643 
L 255.574729 204.983138 
L 260.155658 206.675484 
L 264.736587 207.464464 
L 269.317515 208.029688 
L 273.898444 212.298634 
L 278.479373 212.298634 
L 283.060302 210.323753 
L 287.641231 209.676893 
L 292.22216 209.74021 
L 296.803089 209.04341 
L 301.384017 209.12333 
L 305.964946 207.986349 
L 310.545875 207.986349 
L 315.126804 206.93997 
L 319.707733 206.301492 
L 324.288662 207.232512 
L 328.869591 207.237809 
L 333.450519 205.47859 
L 338.031448 205.704072 
L 342.612377 205.704072 
L 347.193306 207.751124 
L 351.774235 208.198009 
L 356.355164 208.345439 
L 360.936093 208.826327 
L 365.517021 206.56986 
L 370.09795 207.353056 
L 374.678879 207.353056 
L 383.840737 208.450587 
L 388.421666 208.179698 
L 393.002594 206.66551 
L 397.583523 206.003119 
L 402.164452 205.808485 
L 411.32631 205.84889 
L 415.907239 207.237621 
L 420.488168 207.237185 
L 425.069096 205.17655 
L 429.650025 210.212642 
L 438.811883 210.194973 
L 443.392812 209.656263 
L 447.973741 208.064687 
L 452.55467 208.353542 
L 457.135598 203.231296 
L 461.716527 204.873735 
L 470.878385 204.774959 
L 475.459314 205.140308 
L 480.040243 207.61459 
L 484.621172 203.395577 
L 489.2021 211.167891 
L 493.783029 209.358594 
L 498.363958 205.942542 
L 502.944887 205.942542 
L 507.525816 205.651231 
L 512.106745 201.110389 
L 516.687674 203.916921 
L 521.268602 200.48987 
L 530.43046 204.826931 
L 535.011389 204.826931 
L 539.592318 201.871337 
L 544.173247 203.221715 
L 548.754176 200.781734 
L 553.335104 204.502116 
L 557.916033 178.748403 
L 562.496962 177.833091 
L 567.077891 177.833091 
L 571.65882 180.05792 
L 576.239749 181.778818 
L 580.820677 175.038048 
L 585.401606 171.49782 
L 589.982535 195.867426 
L 599.144393 195.86399 
L 603.725322 193.985557 
L 608.306251 193.478515 
L 612.887179 201.735133 
L 617.468108 202.342299 
L 622.049037 199.509955 
L 626.629966 198.260209 
L 631.210895 198.260209 
L 635.791824 200.682924 
L 640.372753 196.156119 
L 644.953681 194.422199 
L 649.53461 193.567714 
L 654.115539 191.331509 
L 658.696468 193.177932 
L 667.858326 193.266966 
L 672.439255 194.737559 
L 677.020183 197.981147 
L 681.601112 201.97875 
L 686.182041 207.406117 
L 690.76297 207.221975 
L 695.343899 207.221975 
L 699.924828 205.949971 
L 704.505757 205.084427 
L 709.086685 204.895854 
L 713.667614 204.031153 
L 718.248543 204.165895 
L 722.829472 205.165222 
L 727.410401 205.165222 
L 731.99133 206.622871 
L 736.572259 205.467761 
L 741.153187 205.368443 
L 745.734116 204.368861 
L 750.315045 204.062461 
L 754.895974 202.891156 
L 759.476903 202.891156 
L 764.057832 200.5697 
L 768.63876 198.634116 
L 773.219689 199.644819 
L 777.800618 200.217869 
L 782.381547 194.144513 
L 786.962476 192.431257 
L 791.543405 192.431257 
L 796.124334 191.026334 
L 800.705262 186.041601 
L 805.286191 181.8579 
L 809.86712 176.841945 
L 814.448049 180.130552 
L 823.609907 180.164336 
L 828.190836 181.33914 
L 832.771764 177.145687 
L 837.352693 178.138559 
L 841.933622 180.295452 
L 846.514551 181.915858 
L 851.09548 180.700606 
L 855.676409 180.700606 
L 860.257338 179.41802 
L 864.838266 191.325004 
L 869.419195 190.766285 
L 874.000124 189.032271 
L 878.581053 189.053876 
L 883.161982 188.747448 
L 887.742911 188.747448 
L 892.32384 191.018608 
L 896.904768 190.95994 
L 901.485697 188.432765 
L 906.066626 188.466233 
L 910.647555 187.675995 
L 915.228484 186.402309 
L 919.809413 186.402309 
L 924.390342 186.81809 
L 928.97127 180.943028 
L 933.552199 185.062841 
L 938.133128 186.81666 
L 942.714057 183.342447 
L 947.294986 188.526943 
L 947.294986 188.526943 
" clip-path="url(#pc71c74d725)" style="fill: none; stroke: #2ca02c; stroke-width: 2; stroke-linecap: round"/>
   </g>
   <g id="patch_3">
    <path d="M 62.259531 249.316875 
L 62.259531 21.935625 
" style="fill: none; stroke: #cccccc; stroke-width: 1.25; stroke-linejoin: miter; stroke-linecap: square"/>
   </g>
   <g id="patch_4">
    <path d="M 989.439531 249.316875 
L 989.439531 21.935625 
" style="fill: none; stroke: #cccccc; stroke-width: 1.25; stroke-linejoin: miter; stroke-linecap: square"/>
   </g>
   <g id="patch_5">
    <path d="M 62.259531 249.316875 
L 989.439531 249.316875 
" style="fill: none; stroke: #cccccc; stroke-width: 1.25; stroke-linejoin: miter; stroke-linecap: square"/>
   </g>
   <g id="patch_6">
    <path d="M 62.259531 21.935625 
L 989.439531 21.935625 
" style="fill: none; stroke: #cccccc; stroke-width: 1.25; stroke-linejoin: miter; stroke-linecap: square"/>
   </g>
   <g id="text_15">
    <!-- Cluster 2: Residual Trend (Actual Minus Forecast) -->
    <g style="fill: #262626" transform="translate(383.830469 15.935625) scale(0.12 -0.12)">
     <defs>
      <path id="Arial-BoldMT-43" d="M 3397 1684 
L 4294 1400 
Q 4088 650 3608 286 
Q 3128 -78 2391 -78 
Q 1478 -78 890 545 
Q 303 1169 303 2250 
Q 303 3394 893 4026 
Q 1484 4659 2447 4659 
Q 3288 4659 3813 4163 
Q 4125 3869 4281 3319 
L 3366 3100 
Q 3284 3456 3026 3662 
Q 2769 3869 2400 3869 
Q 1891 3869 1573 3503 
Q 1256 3138 1256 2319 
Q 1256 1450 1568 1081 
Q 1881 713 2381 713 
Q 2750 713 3015 947 
Q 3281 1181 3397 1684 
z
" transform="scale(0.015625)"/>
      <path id="Arial-BoldMT-6c" d="M 459 0 
L 459 4581 
L 1338 4581 
L 1338 0 
L 459 0 
z
" transform="scale(0.015625)"/>
      <path id="Arial-BoldMT-75" d="M 2644 0 
L 2644 497 
Q 2463 231 2167 78 
Q 1872 -75 1544 -75 
Q 1209 -75 943 72 
Q 678 219 559 484 
Q 441 750 441 1219 
L 441 3319 
L 1319 3319 
L 1319 1794 
Q 1319 1094 1367 936 
Q 1416 778 1544 686 
Q 1672 594 1869 594 
Q 2094 594 2272 717 
Q 2450 841 2515 1023 
Q 2581 1206 2581 1919 
L 2581 3319 
L 3459 3319 
L 3459 0 
L 2644 0 
z
" transform="scale(0.015625)"/>
      <path id="Arial-BoldMT-73" d="M 150 947 
L 1031 1081 
Q 1088 825 1259 692 
Q 1431 559 1741 559 
Q 2081 559 2253 684 
Q 2369 772 2369 919 
Q 2369 1019 2306 1084 
Q 2241 1147 2013 1200 
Q 950 1434 666 1628 
Q 272 1897 272 2375 
Q 272 2806 612 3100 
Q 953 3394 1669 3394 
Q 2350 3394 2681 3172 
Q 3013 2950 3138 2516 
L 2309 2363 
Q 2256 2556 2107 2659 
Q 1959 2763 1684 2763 
Q 1338 2763 1188 2666 
Q 1088 2597 1088 2488 
Q 1088 2394 1175 2328 
Q 1294 2241 1995 2081 
Q 2697 1922 2975 1691 
Q 3250 1456 3250 1038 
Q 3250 581 2869 253 
Q 2488 -75 1741 -75 
Q 1063 -75 667 200 
Q 272 475 150 947 
z
" transform="scale(0.015625)"/>
      <path id="Arial-BoldMT-74" d="M 1981 3319 
L 1981 2619 
L 1381 2619 
L 1381 1281 
Q 1381 875 1398 808 
Q 1416 741 1477 697 
Q 1538 653 1625 653 
Q 1747 653 1978 738 
L 2053 56 
Q 1747 -75 1359 -75 
Q 1122 -75 931 4 
Q 741 84 652 211 
Q 563 338 528 553 
Q 500 706 500 1172 
L 500 2619 
L 97 2619 
L 97 3319 
L 500 3319 
L 500 3978 
L 1381 4491 
L 1381 3319 
L 1981 3319 
z
" transform="scale(0.015625)"/>
      <path id="Arial-BoldMT-65" d="M 2381 1056 
L 3256 909 
Q 3088 428 2723 176 
Q 2359 -75 1813 -75 
Q 947 -75 531 491 
Q 203 944 203 1634 
Q 203 2459 634 2926 
Q 1066 3394 1725 3394 
Q 2466 3394 2894 2905 
Q 3322 2416 3303 1406 
L 1103 1406 
Q 1113 1016 1316 798 
Q 1519 581 1822 581 
Q 2028 581 2168 693 
Q 2309 806 2381 1056 
z
M 2431 1944 
Q 2422 2325 2234 2523 
Q 2047 2722 1778 2722 
Q 1491 2722 1303 2513 
Q 1116 2303 1119 1944 
L 2431 1944 
z
" transform="scale(0.015625)"/>
      <path id="Arial-BoldMT-72" d="M 1300 0 
L 422 0 
L 422 3319 
L 1238 3319 
L 1238 2847 
Q 1447 3181 1614 3287 
Q 1781 3394 1994 3394 
Q 2294 3394 2572 3228 
L 2300 2463 
Q 2078 2606 1888 2606 
Q 1703 2606 1575 2504 
Q 1447 2403 1373 2137 
Q 1300 1872 1300 1025 
L 1300 0 
z
" transform="scale(0.015625)"/>
      <path id="Arial-BoldMT-20" transform="scale(0.015625)"/>
      <path id="Arial-BoldMT-32" d="M 3238 816 
L 3238 0 
L 159 0 
Q 209 463 459 877 
Q 709 1291 1447 1975 
Q 2041 2528 2175 2725 
Q 2356 2997 2356 3263 
Q 2356 3556 2198 3714 
Q 2041 3872 1763 3872 
Q 1488 3872 1325 3706 
Q 1163 3541 1138 3156 
L 263 3244 
Q 341 3969 753 4284 
Q 1166 4600 1784 4600 
Q 2463 4600 2850 4234 
Q 3238 3869 3238 3325 
Q 3238 3016 3127 2736 
Q 3016 2456 2775 2150 
Q 2616 1947 2200 1565 
Q 1784 1184 1673 1059 
Q 1563 934 1494 816 
L 3238 816 
z
" transform="scale(0.015625)"/>
      <path id="Arial-BoldMT-3a" d="M 628 2441 
L 628 3319 
L 1506 3319 
L 1506 2441 
L 628 2441 
z
M 628 0 
L 628 878 
L 1506 878 
L 1506 0 
L 628 0 
z
" transform="scale(0.015625)"/>
      <path id="Arial-BoldMT-52" d="M 469 0 
L 469 4581 
L 2416 4581 
Q 3150 4581 3483 4457 
Q 3816 4334 4016 4018 
Q 4216 3703 4216 3297 
Q 4216 2781 3912 2445 
Q 3609 2109 3006 2022 
Q 3306 1847 3501 1637 
Q 3697 1428 4028 894 
L 4588 0 
L 3481 0 
L 2813 997 
Q 2456 1531 2325 1670 
Q 2194 1809 2047 1861 
Q 1900 1913 1581 1913 
L 1394 1913 
L 1394 0 
L 469 0 
z
M 1394 2644 
L 2078 2644 
Q 2744 2644 2909 2700 
Q 3075 2756 3169 2893 
Q 3263 3031 3263 3238 
Q 3263 3469 3139 3611 
Q 3016 3753 2791 3791 
Q 2678 3806 2116 3806 
L 1394 3806 
L 1394 2644 
z
" transform="scale(0.015625)"/>
      <path id="Arial-BoldMT-69" d="M 459 3769 
L 459 4581 
L 1338 4581 
L 1338 3769 
L 459 3769 
z
M 459 0 
L 459 3319 
L 1338 3319 
L 1338 0 
L 459 0 
z
" transform="scale(0.015625)"/>
      <path id="Arial-BoldMT-64" d="M 3503 0 
L 2688 0 
L 2688 488 
Q 2484 203 2207 64 
Q 1931 -75 1650 -75 
Q 1078 -75 670 386 
Q 263 847 263 1672 
Q 263 2516 659 2955 
Q 1056 3394 1663 3394 
Q 2219 3394 2625 2931 
L 2625 4581 
L 3503 4581 
L 3503 0 
z
M 1159 1731 
Q 1159 1200 1306 963 
Q 1519 619 1900 619 
Q 2203 619 2415 876 
Q 2628 1134 2628 1647 
Q 2628 2219 2422 2470 
Q 2216 2722 1894 2722 
Q 1581 2722 1370 2473 
Q 1159 2225 1159 1731 
z
" transform="scale(0.015625)"/>
      <path id="Arial-BoldMT-61" d="M 1116 2306 
L 319 2450 
Q 453 2931 781 3162 
Q 1109 3394 1756 3394 
Q 2344 3394 2631 3255 
Q 2919 3116 3036 2902 
Q 3153 2688 3153 2116 
L 3144 1091 
Q 3144 653 3186 445 
Q 3228 238 3344 0 
L 2475 0 
Q 2441 88 2391 259 
Q 2369 338 2359 363 
Q 2134 144 1878 34 
Q 1622 -75 1331 -75 
Q 819 -75 523 203 
Q 228 481 228 906 
Q 228 1188 362 1408 
Q 497 1628 739 1745 
Q 981 1863 1438 1950 
Q 2053 2066 2291 2166 
L 2291 2253 
Q 2291 2506 2166 2614 
Q 2041 2722 1694 2722 
Q 1459 2722 1328 2630 
Q 1197 2538 1116 2306 
z
M 2291 1594 
Q 2122 1538 1756 1459 
Q 1391 1381 1278 1306 
Q 1106 1184 1106 997 
Q 1106 813 1243 678 
Q 1381 544 1594 544 
Q 1831 544 2047 700 
Q 2206 819 2256 991 
Q 2291 1103 2291 1419 
L 2291 1594 
z
" transform="scale(0.015625)"/>
      <path id="Arial-BoldMT-54" d="M 1497 0 
L 1497 3806 
L 138 3806 
L 138 4581 
L 3778 4581 
L 3778 3806 
L 2422 3806 
L 2422 0 
L 1497 0 
z
" transform="scale(0.015625)"/>
      <path id="Arial-BoldMT-6e" d="M 3478 0 
L 2600 0 
L 2600 1694 
Q 2600 2231 2544 2389 
Q 2488 2547 2361 2634 
Q 2234 2722 2056 2722 
Q 1828 2722 1647 2597 
Q 1466 2472 1398 2265 
Q 1331 2059 1331 1503 
L 1331 0 
L 453 0 
L 453 3319 
L 1269 3319 
L 1269 2831 
Q 1703 3394 2363 3394 
Q 2653 3394 2893 3289 
Q 3134 3184 3257 3021 
Q 3381 2859 3429 2653 
Q 3478 2447 3478 2063 
L 3478 0 
z
" transform="scale(0.015625)"/>
      <path id="Arial-BoldMT-28" d="M 1916 -1347 
L 1313 -1347 
Q 834 -625 584 153 
Q 334 931 334 1659 
Q 334 2563 644 3369 
Q 913 4069 1325 4659 
L 1925 4659 
Q 1497 3713 1336 3048 
Q 1175 2384 1175 1641 
Q 1175 1128 1270 590 
Q 1366 53 1531 -431 
Q 1641 -750 1916 -1347 
z
" transform="scale(0.015625)"/>
      <path id="Arial-BoldMT-41" d="M 4597 0 
L 3591 0 
L 3191 1041 
L 1359 1041 
L 981 0 
L 0 0 
L 1784 4581 
L 2763 4581 
L 4597 0 
z
M 2894 1813 
L 2263 3513 
L 1644 1813 
L 2894 1813 
z
" transform="scale(0.015625)"/>
      <path id="Arial-BoldMT-63" d="M 3353 2338 
L 2488 2181 
Q 2444 2441 2289 2572 
Q 2134 2703 1888 2703 
Q 1559 2703 1364 2476 
Q 1169 2250 1169 1719 
Q 1169 1128 1367 884 
Q 1566 641 1900 641 
Q 2150 641 2309 783 
Q 2469 925 2534 1272 
L 3397 1125 
Q 3263 531 2881 228 
Q 2500 -75 1859 -75 
Q 1131 -75 698 384 
Q 266 844 266 1656 
Q 266 2478 700 2936 
Q 1134 3394 1875 3394 
Q 2481 3394 2839 3133 
Q 3197 2872 3353 2338 
z
" transform="scale(0.015625)"/>
      <path id="Arial-BoldMT-4d" d="M 453 0 
L 453 4581 
L 1838 4581 
L 2669 1456 
L 3491 4581 
L 4878 4581 
L 4878 0 
L 4019 0 
L 4019 3606 
L 3109 0 
L 2219 0 
L 1313 3606 
L 1313 0 
L 453 0 
z
" transform="scale(0.015625)"/>
      <path id="Arial-BoldMT-46" d="M 472 0 
L 472 4581 
L 3613 4581 
L 3613 3806 
L 1397 3806 
L 1397 2722 
L 3309 2722 
L 3309 1947 
L 1397 1947 
L 1397 0 
L 472 0 
z
" transform="scale(0.015625)"/>
      <path id="Arial-BoldMT-6f" d="M 256 1706 
Q 256 2144 472 2553 
Q 688 2963 1083 3178 
Q 1478 3394 1966 3394 
Q 2719 3394 3200 2905 
Q 3681 2416 3681 1669 
Q 3681 916 3195 420 
Q 2709 -75 1972 -75 
Q 1516 -75 1102 131 
Q 688 338 472 736 
Q 256 1134 256 1706 
z
M 1156 1659 
Q 1156 1166 1390 903 
Q 1625 641 1969 641 
Q 2313 641 2545 903 
Q 2778 1166 2778 1666 
Q 2778 2153 2545 2415 
Q 2313 2678 1969 2678 
Q 1625 2678 1390 2415 
Q 1156 2153 1156 1659 
z
" transform="scale(0.015625)"/>
      <path id="Arial-BoldMT-29" d="M 216 -1347 
Q 475 -791 581 -494 
Q 688 -197 778 190 
Q 869 578 912 926 
Q 956 1275 956 1641 
Q 956 2384 797 3048 
Q 638 3713 209 4659 
L 806 4659 
Q 1278 3988 1539 3234 
Q 1800 2481 1800 1706 
Q 1800 1053 1594 306 
Q 1359 -531 822 -1347 
L 216 -1347 
z
" transform="scale(0.015625)"/>
     </defs>
     <use xlink:href="#Arial-BoldMT-43"/>
     <use xlink:href="#Arial-BoldMT-6c" x="72.216797"/>
     <use xlink:href="#Arial-BoldMT-75" x="100"/>
     <use xlink:href="#Arial-BoldMT-73" x="161.083984"/>
     <use xlink:href="#Arial-BoldMT-74" x="216.699219"/>
     <use xlink:href="#Arial-BoldMT-65" x="250"/>
     <use xlink:href="#Arial-BoldMT-72" x="305.615234"/>
     <use xlink:href="#Arial-BoldMT-20" x="344.53125"/>
     <use xlink:href="#Arial-BoldMT-32" x="372.314453"/>
     <use xlink:href="#Arial-BoldMT-3a" x="427.929688"/>
     <use xlink:href="#Arial-BoldMT-20" x="461.230469"/>
     <use xlink:href="#Arial-BoldMT-52" x="489.013672"/>
     <use xlink:href="#Arial-BoldMT-65" x="561.230469"/>
     <use xlink:href="#Arial-BoldMT-73" x="616.845703"/>
     <use xlink:href="#Arial-BoldMT-69" x="672.460938"/>
     <use xlink:href="#Arial-BoldMT-64" x="700.244141"/>
     <use xlink:href="#Arial-BoldMT-75" x="761.328125"/>
     <use xlink:href="#Arial-BoldMT-61" x="822.412109"/>
     <use xlink:href="#Arial-BoldMT-6c" x="878.027344"/>
     <use xlink:href="#Arial-BoldMT-20" x="905.810547"/>
     <use xlink:href="#Arial-BoldMT-54" x="933.59375"/>
     <use xlink:href="#Arial-BoldMT-72" x="989.177734"/>
     <use xlink:href="#Arial-BoldMT-65" x="1028.09375"/>
     <use xlink:href="#Arial-BoldMT-6e" x="1083.708984"/>
     <use xlink:href="#Arial-BoldMT-64" x="1144.792969"/>
     <use xlink:href="#Arial-BoldMT-20" x="1205.876953"/>
     <use xlink:href="#Arial-BoldMT-28" x="1233.660156"/>
     <use xlink:href="#Arial-BoldMT-41" x="1266.960938"/>
     <use xlink:href="#Arial-BoldMT-63" x="1339.177734"/>
     <use xlink:href="#Arial-BoldMT-74" x="1394.792969"/>
     <use xlink:href="#Arial-BoldMT-75" x="1428.09375"/>
     <use xlink:href="#Arial-BoldMT-61" x="1489.177734"/>
     <use xlink:href="#Arial-BoldMT-6c" x="1544.792969"/>
     <use xlink:href="#Arial-BoldMT-20" x="1572.576172"/>
     <use xlink:href="#Arial-BoldMT-4d" x="1600.359375"/>
     <use xlink:href="#Arial-BoldMT-69" x="1683.660156"/>
     <use xlink:href="#Arial-BoldMT-6e" x="1711.443359"/>
     <use xlink:href="#Arial-BoldMT-75" x="1772.527344"/>
     <use xlink:href="#Arial-BoldMT-73" x="1833.611328"/>
     <use xlink:href="#Arial-BoldMT-20" x="1889.226562"/>
     <use xlink:href="#Arial-BoldMT-46" x="1917.009766"/>
     <use xlink:href="#Arial-BoldMT-6f" x="1978.09375"/>
     <use xlink:href="#Arial-BoldMT-72" x="2039.177734"/>
     <use xlink:href="#Arial-BoldMT-65" x="2078.09375"/>
     <use xlink:href="#Arial-BoldMT-63" x="2133.708984"/>
     <use xlink:href="#Arial-BoldMT-61" x="2189.324219"/>
     <use xlink:href="#Arial-BoldMT-73" x="2244.939453"/>
     <use xlink:href="#Arial-BoldMT-74" x="2300.554688"/>
     <use xlink:href="#Arial-BoldMT-29" x="2333.855469"/>
    </g>
   </g>
   <g id="legend_1">
    <g id="line2d_18">
     <path d="M 694.690781 32.159375 
L 702.690781 32.159375 
L 710.690781 32.159375 
" style="fill: none; stroke: #ff7f0e; stroke-opacity: 0.35; stroke-width: 1.2; stroke-linecap: round"/>
    </g>
    <g id="text_16">
     <!-- Model 1 (Holt-Winters / ETS) residual -->
     <g style="fill: #262626" transform="translate(717.090781 34.959375) scale(0.08 -0.08)">
      <defs>
       <path id="ArialMT-4d" d="M 475 0 
L 475 4581 
L 1388 4581 
L 2472 1338 
Q 2622 884 2691 659 
Q 2769 909 2934 1394 
L 4031 4581 
L 4847 4581 
L 4847 0 
L 4263 0 
L 4263 3834 
L 2931 0 
L 2384 0 
L 1059 3900 
L 1059 0 
L 475 0 
z
" transform="scale(0.015625)"/>
       <path id="ArialMT-6f" d="M 213 1659 
Q 213 2581 725 3025 
Q 1153 3394 1769 3394 
Q 2453 3394 2887 2945 
Q 3322 2497 3322 1706 
Q 3322 1066 3130 698 
Q 2938 331 2570 128 
Q 2203 -75 1769 -75 
Q 1072 -75 642 372 
Q 213 819 213 1659 
z
M 791 1659 
Q 791 1022 1069 705 
Q 1347 388 1769 388 
Q 2188 388 2466 706 
Q 2744 1025 2744 1678 
Q 2744 2294 2464 2611 
Q 2184 2928 1769 2928 
Q 1347 2928 1069 2612 
Q 791 2297 791 1659 
z
" transform="scale(0.015625)"/>
       <path id="ArialMT-20" transform="scale(0.015625)"/>
       <path id="ArialMT-28" d="M 1497 -1347 
Q 1031 -759 709 28 
Q 388 816 388 1659 
Q 388 2403 628 3084 
Q 909 3875 1497 4659 
L 1900 4659 
Q 1522 4009 1400 3731 
Q 1209 3300 1100 2831 
Q 966 2247 966 1656 
Q 966 153 1900 -1347 
L 1497 -1347 
z
" transform="scale(0.015625)"/>
       <path id="ArialMT-48" d="M 513 0 
L 513 4581 
L 1119 4581 
L 1119 2700 
L 3500 2700 
L 3500 4581 
L 4106 4581 
L 4106 0 
L 3500 0 
L 3500 2159 
L 1119 2159 
L 1119 0 
L 513 0 
z
" transform="scale(0.015625)"/>
       <path id="ArialMT-57" d="M 1294 0 
L 78 4581 
L 700 4581 
L 1397 1578 
Q 1509 1106 1591 641 
Q 1766 1375 1797 1488 
L 2669 4581 
L 3400 4581 
L 4056 2263 
Q 4303 1400 4413 641 
Q 4500 1075 4641 1638 
L 5359 4581 
L 5969 4581 
L 4713 0 
L 4128 0 
L 3163 3491 
Q 3041 3928 3019 4028 
Q 2947 3713 2884 3491 
L 1913 0 
L 1294 0 
z
" transform="scale(0.015625)"/>
       <path id="ArialMT-6e" d="M 422 0 
L 422 3319 
L 928 3319 
L 928 2847 
Q 1294 3394 1984 3394 
Q 2284 3394 2536 3286 
Q 2788 3178 2913 3003 
Q 3038 2828 3088 2588 
Q 3119 2431 3119 2041 
L 3119 0 
L 2556 0 
L 2556 2019 
Q 2556 2363 2490 2533 
Q 2425 2703 2258 2804 
Q 2091 2906 1866 2906 
Q 1506 2906 1245 2678 
Q 984 2450 984 1813 
L 984 0 
L 422 0 
z
" transform="scale(0.015625)"/>
       <path id="ArialMT-72" d="M 416 0 
L 416 3319 
L 922 3319 
L 922 2816 
Q 1116 3169 1280 3281 
Q 1444 3394 1641 3394 
Q 1925 3394 2219 3213 
L 2025 2691 
Q 1819 2813 1613 2813 
Q 1428 2813 1281 2702 
Q 1134 2591 1072 2394 
Q 978 2094 978 1738 
L 978 0 
L 416 0 
z
" transform="scale(0.015625)"/>
       <path id="ArialMT-2f" d="M 0 -78 
L 1328 4659 
L 1778 4659 
L 453 -78 
L 0 -78 
z
" transform="scale(0.015625)"/>
       <path id="ArialMT-45" d="M 506 0 
L 506 4581 
L 3819 4581 
L 3819 4041 
L 1113 4041 
L 1113 2638 
L 3647 2638 
L 3647 2100 
L 1113 2100 
L 1113 541 
L 3925 541 
L 3925 0 
L 506 0 
z
" transform="scale(0.015625)"/>
       <path id="ArialMT-54" d="M 1659 0 
L 1659 4041 
L 150 4041 
L 150 4581 
L 3781 4581 
L 3781 4041 
L 2266 4041 
L 2266 0 
L 1659 0 
z
" transform="scale(0.015625)"/>
       <path id="ArialMT-53" d="M 288 1472 
L 859 1522 
Q 900 1178 1048 958 
Q 1197 738 1509 602 
Q 1822 466 2213 466 
Q 2559 466 2825 569 
Q 3091 672 3220 851 
Q 3350 1031 3350 1244 
Q 3350 1459 3225 1620 
Q 3100 1781 2813 1891 
Q 2628 1963 1997 2114 
Q 1366 2266 1113 2400 
Q 784 2572 623 2826 
Q 463 3081 463 3397 
Q 463 3744 659 4045 
Q 856 4347 1234 4503 
Q 1613 4659 2075 4659 
Q 2584 4659 2973 4495 
Q 3363 4331 3572 4012 
Q 3781 3694 3797 3291 
L 3216 3247 
Q 3169 3681 2898 3903 
Q 2628 4125 2100 4125 
Q 1550 4125 1298 3923 
Q 1047 3722 1047 3438 
Q 1047 3191 1225 3031 
Q 1400 2872 2139 2705 
Q 2878 2538 3153 2413 
Q 3553 2228 3743 1945 
Q 3934 1663 3934 1294 
Q 3934 928 3725 604 
Q 3516 281 3123 101 
Q 2731 -78 2241 -78 
Q 1619 -78 1198 103 
Q 778 284 539 648 
Q 300 1013 288 1472 
z
" transform="scale(0.015625)"/>
       <path id="ArialMT-29" d="M 791 -1347 
L 388 -1347 
Q 1322 153 1322 1656 
Q 1322 2244 1188 2822 
Q 1081 3291 891 3722 
Q 769 4003 388 4659 
L 791 4659 
Q 1378 3875 1659 3084 
Q 1900 2403 1900 1659 
Q 1900 816 1576 28 
Q 1253 -759 791 -1347 
z
" transform="scale(0.015625)"/>
      </defs>
      <use xlink:href="#ArialMT-4d"/>
      <use xlink:href="#ArialMT-6f" x="83.300781"/>
      <use xlink:href="#ArialMT-64" x="138.916016"/>
      <use xlink:href="#ArialMT-65" x="194.53125"/>
      <use xlink:href="#ArialMT-6c" x="250.146484"/>
      <use xlink:href="#ArialMT-20" x="272.363281"/>
      <use xlink:href="#ArialMT-31" x="300.146484"/>
      <use xlink:href="#ArialMT-20" x="355.761719"/>
      <use xlink:href="#ArialMT-28" x="383.544922"/>
      <use xlink:href="#ArialMT-48" x="416.845703"/>
      <use xlink:href="#ArialMT-6f" x="489.0625"/>
      <use xlink:href="#ArialMT-6c" x="544.677734"/>
      <use xlink:href="#ArialMT-74" x="566.894531"/>
      <use xlink:href="#ArialMT-2d" x="594.677734"/>
      <use xlink:href="#ArialMT-57" x="627.978516"/>
      <use xlink:href="#ArialMT-69" x="722.363281"/>
      <use xlink:href="#ArialMT-6e" x="744.580078"/>
      <use xlink:href="#ArialMT-74" x="800.195312"/>
      <use xlink:href="#ArialMT-65" x="827.978516"/>
      <use xlink:href="#ArialMT-72" x="883.59375"/>
      <use xlink:href="#ArialMT-73" x="916.894531"/>
      <use xlink:href="#ArialMT-20" x="966.894531"/>
      <use xlink:href="#ArialMT-2f" x="994.677734"/>
      <use xlink:href="#ArialMT-20" x="1022.460938"/>
      <use xlink:href="#ArialMT-45" x="1050.244141"/>
      <use xlink:href="#ArialMT-54" x="1116.943359"/>
      <use xlink:href="#ArialMT-53" x="1178.027344"/>
      <use xlink:href="#ArialMT-29" x="1244.726562"/>
      <use xlink:href="#ArialMT-20" x="1278.027344"/>
      <use xlink:href="#ArialMT-72" x="1305.810547"/>
      <use xlink:href="#ArialMT-65" x="1339.111328"/>
      <use xlink:href="#ArialMT-73" x="1394.726562"/>
      <use xlink:href="#ArialMT-69" x="1444.726562"/>
      <use xlink:href="#ArialMT-64" x="1466.943359"/>
      <use xlink:href="#ArialMT-75" x="1522.558594"/>
      <use xlink:href="#ArialMT-61" x="1578.173828"/>
      <use xlink:href="#ArialMT-6c" x="1633.789062"/>
     </g>
    </g>
    <g id="line2d_19">
     <path d="M 694.690781 43.666875 
L 702.690781 43.666875 
L 710.690781 43.666875 
" style="fill: none; stroke: #2ca02c; stroke-opacity: 0.35; stroke-width: 1.2; stroke-linecap: round"/>
    </g>
    <g id="text_17">
     <!-- Model 2 (Global LGBM) residual -->
     <g style="fill: #262626" transform="translate(717.090781 46.466875) scale(0.08 -0.08)">
      <defs>
       <path id="ArialMT-47" d="M 2638 1797 
L 2638 2334 
L 4578 2338 
L 4578 638 
Q 4131 281 3656 101 
Q 3181 -78 2681 -78 
Q 2006 -78 1454 211 
Q 903 500 622 1047 
Q 341 1594 341 2269 
Q 341 2938 620 3517 
Q 900 4097 1425 4378 
Q 1950 4659 2634 4659 
Q 3131 4659 3532 4498 
Q 3934 4338 4162 4050 
Q 4391 3763 4509 3300 
L 3963 3150 
Q 3859 3500 3706 3700 
Q 3553 3900 3268 4020 
Q 2984 4141 2638 4141 
Q 2222 4141 1919 4014 
Q 1616 3888 1430 3681 
Q 1244 3475 1141 3228 
Q 966 2803 966 2306 
Q 966 1694 1177 1281 
Q 1388 869 1791 669 
Q 2194 469 2647 469 
Q 3041 469 3416 620 
Q 3791 772 3984 944 
L 3984 1797 
L 2638 1797 
z
" transform="scale(0.015625)"/>
       <path id="ArialMT-62" d="M 941 0 
L 419 0 
L 419 4581 
L 981 4581 
L 981 2947 
Q 1338 3394 1891 3394 
Q 2197 3394 2470 3270 
Q 2744 3147 2920 2923 
Q 3097 2700 3197 2384 
Q 3297 2069 3297 1709 
Q 3297 856 2875 390 
Q 2453 -75 1863 -75 
Q 1275 -75 941 416 
L 941 0 
z
M 934 1684 
Q 934 1088 1097 822 
Q 1363 388 1816 388 
Q 2184 388 2453 708 
Q 2722 1028 2722 1663 
Q 2722 2313 2464 2622 
Q 2206 2931 1841 2931 
Q 1472 2931 1203 2611 
Q 934 2291 934 1684 
z
" transform="scale(0.015625)"/>
       <path id="ArialMT-4c" d="M 469 0 
L 469 4581 
L 1075 4581 
L 1075 541 
L 3331 541 
L 3331 0 
L 469 0 
z
" transform="scale(0.015625)"/>
       <path id="ArialMT-42" d="M 469 0 
L 469 4581 
L 2188 4581 
Q 2713 4581 3030 4442 
Q 3347 4303 3526 4014 
Q 3706 3725 3706 3409 
Q 3706 3116 3547 2856 
Q 3388 2597 3066 2438 
Q 3481 2316 3704 2022 
Q 3928 1728 3928 1328 
Q 3928 1006 3792 729 
Q 3656 453 3456 303 
Q 3256 153 2954 76 
Q 2653 0 2216 0 
L 469 0 
z
M 1075 2656 
L 2066 2656 
Q 2469 2656 2644 2709 
Q 2875 2778 2992 2937 
Q 3109 3097 3109 3338 
Q 3109 3566 3000 3739 
Q 2891 3913 2687 3977 
Q 2484 4041 1991 4041 
L 1075 4041 
L 1075 2656 
z
M 1075 541 
L 2216 541 
Q 2509 541 2628 563 
Q 2838 600 2978 687 
Q 3119 775 3209 942 
Q 3300 1109 3300 1328 
Q 3300 1584 3169 1773 
Q 3038 1963 2805 2039 
Q 2572 2116 2134 2116 
L 1075 2116 
L 1075 541 
z
" transform="scale(0.015625)"/>
      </defs>
      <use xlink:href="#ArialMT-4d"/>
      <use xlink:href="#ArialMT-6f" x="83.300781"/>
      <use xlink:href="#ArialMT-64" x="138.916016"/>
      <use xlink:href="#ArialMT-65" x="194.53125"/>
      <use xlink:href="#ArialMT-6c" x="250.146484"/>
      <use xlink:href="#ArialMT-20" x="272.363281"/>
      <use xlink:href="#ArialMT-32" x="300.146484"/>
      <use xlink:href="#ArialMT-20" x="355.761719"/>
      <use xlink:href="#ArialMT-28" x="383.544922"/>
      <use xlink:href="#ArialMT-47" x="416.845703"/>
      <use xlink:href="#ArialMT-6c" x="494.628906"/>
      <use xlink:href="#ArialMT-6f" x="516.845703"/>
      <use xlink:href="#ArialMT-62" x="572.460938"/>
      <use xlink:href="#ArialMT-61" x="628.076172"/>
      <use xlink:href="#ArialMT-6c" x="683.691406"/>
      <use xlink:href="#ArialMT-20" x="705.908203"/>
      <use xlink:href="#ArialMT-4c" x="733.691406"/>
      <use xlink:href="#ArialMT-47" x="789.306641"/>
      <use xlink:href="#ArialMT-42" x="867.089844"/>
      <use xlink:href="#ArialMT-4d" x="933.789062"/>
      <use xlink:href="#ArialMT-29" x="1017.089844"/>
      <use xlink:href="#ArialMT-20" x="1050.390625"/>
      <use xlink:href="#ArialMT-72" x="1078.173828"/>
      <use xlink:href="#ArialMT-65" x="1111.474609"/>
      <use xlink:href="#ArialMT-73" x="1167.089844"/>
      <use xlink:href="#ArialMT-69" x="1217.089844"/>
      <use xlink:href="#ArialMT-64" x="1239.306641"/>
      <use xlink:href="#ArialMT-75" x="1294.921875"/>
      <use xlink:href="#ArialMT-61" x="1350.537109"/>
      <use xlink:href="#ArialMT-6c" x="1406.152344"/>
     </g>
    </g>
    <g id="line2d_20">
     <path d="M 865.564531 32.159375 
L 873.564531 32.159375 
L 881.564531 32.159375 
" style="fill: none; stroke: #ff7f0e; stroke-width: 2; stroke-linecap: round"/>
    </g>
    <g id="text_18">
     <!-- Baseline residual 7d mean -->
     <g style="fill: #262626" transform="translate(887.964531 34.959375) scale(0.08 -0.08)">
      <defs>
       <path id="ArialMT-6d" d="M 422 0 
L 422 3319 
L 925 3319 
L 925 2853 
Q 1081 3097 1340 3245 
Q 1600 3394 1931 3394 
Q 2300 3394 2536 3241 
Q 2772 3088 2869 2813 
Q 3263 3394 3894 3394 
Q 4388 3394 4653 3120 
Q 4919 2847 4919 2278 
L 4919 0 
L 4359 0 
L 4359 2091 
Q 4359 2428 4304 2576 
Q 4250 2725 4106 2815 
Q 3963 2906 3769 2906 
Q 3419 2906 3187 2673 
Q 2956 2441 2956 1928 
L 2956 0 
L 2394 0 
L 2394 2156 
Q 2394 2531 2256 2718 
Q 2119 2906 1806 2906 
Q 1569 2906 1367 2781 
Q 1166 2656 1075 2415 
Q 984 2175 984 1722 
L 984 0 
L 422 0 
z
" transform="scale(0.015625)"/>
      </defs>
      <use xlink:href="#ArialMT-42"/>
      <use xlink:href="#ArialMT-61" x="66.699219"/>
      <use xlink:href="#ArialMT-73" x="122.314453"/>
      <use xlink:href="#ArialMT-65" x="172.314453"/>
      <use xlink:href="#ArialMT-6c" x="227.929688"/>
      <use xlink:href="#ArialMT-69" x="250.146484"/>
      <use xlink:href="#ArialMT-6e" x="272.363281"/>
      <use xlink:href="#ArialMT-65" x="327.978516"/>
      <use xlink:href="#ArialMT-20" x="383.59375"/>
      <use xlink:href="#ArialMT-72" x="411.376953"/>
      <use xlink:href="#ArialMT-65" x="444.677734"/>
      <use xlink:href="#ArialMT-73" x="500.292969"/>
      <use xlink:href="#ArialMT-69" x="550.292969"/>
      <use xlink:href="#ArialMT-64" x="572.509766"/>
      <use xlink:href="#ArialMT-75" x="628.125"/>
      <use xlink:href="#ArialMT-61" x="683.740234"/>
      <use xlink:href="#ArialMT-6c" x="739.355469"/>
      <use xlink:href="#ArialMT-20" x="761.572266"/>
      <use xlink:href="#ArialMT-37" x="789.355469"/>
      <use xlink:href="#ArialMT-64" x="844.970703"/>
      <use xlink:href="#ArialMT-20" x="900.585938"/>
      <use xlink:href="#ArialMT-6d" x="928.369141"/>
      <use xlink:href="#ArialMT-65" x="1011.669922"/>
      <use xlink:href="#ArialMT-61" x="1067.285156"/>
      <use xlink:href="#ArialMT-6e" x="1122.900391"/>
     </g>
    </g>
    <g id="line2d_21">
     <path d="M 865.564531 43.475625 
L 873.564531 43.475625 
L 881.564531 43.475625 
" style="fill: none; stroke: #2ca02c; stroke-width: 2; stroke-linecap: round"/>
    </g>
    <g id="text_19">
     <!-- Model residual 7d mean -->
     <g style="fill: #262626" transform="translate(887.964531 46.275625) scale(0.08 -0.08)">
      <use xlink:href="#ArialMT-4d"/>
      <use xlink:href="#ArialMT-6f" x="83.300781"/>
      <use xlink:href="#ArialMT-64" x="138.916016"/>
      <use xlink:href="#ArialMT-65" x="194.53125"/>
      <use xlink:href="#ArialMT-6c" x="250.146484"/>
      <use xlink:href="#ArialMT-20" x="272.363281"/>
      <use xlink:href="#ArialMT-72" x="300.146484"/>
      <use xlink:href="#ArialMT-65" x="333.447266"/>
      <use xlink:href="#ArialMT-73" x="389.0625"/>
      <use xlink:href="#ArialMT-69" x="439.0625"/>
      <use xlink:href="#ArialMT-64" x="461.279297"/>
      <use xlink:href="#ArialMT-75" x="516.894531"/>
      <use xlink:href="#ArialMT-61" x="572.509766"/>
      <use xlink:href="#ArialMT-6c" x="628.125"/>
      <use xlink:href="#ArialMT-20" x="650.341797"/>
      <use xlink:href="#ArialMT-37" x="678.125"/>
      <use xlink:href="#ArialMT-64" x="733.740234"/>
      <use xlink:href="#ArialMT-20" x="789.355469"/>
      <use xlink:href="#ArialMT-6d" x="817.138672"/>
      <use xlink:href="#ArialMT-65" x="900.439453"/>
      <use xlink:href="#ArialMT-61" x="956.054688"/>
      <use xlink:href="#ArialMT-6e" x="1011.669922"/>
     </g>
    </g>
   </g>
  </g>
 </g>
 <defs>
  <clipPath id="pc71c74d725">
   <rect x="62.259531" y="21.935625" width="927.18" height="227.38125"/>
  </clipPath>
 </defs>
</svg>
