<?xml version="1.0" encoding="utf-8" standalone="no"?>
<!DOCTYPE svg PUBLIC "-//W3C//DTD SVG 1.1//EN"
  "http://www.w3.org/Graphics/SVG/1.1/DTD/svg11.dtd">
<svg xmlns:xlink="http://www.w3.org/1999/xlink" width="996.723906pt" height="348.651094pt" viewBox="0 0 996.723906 348.651094" xmlns="http://www.w3.org/2000/svg" version="1.1">
 <metadata>
  <rdf:RDF xmlns:dc="http://purl.org/dc/elements/1.1/" xmlns:cc="http://creativecommons.org/ns#" xmlns:rdf="http://www.w3.org/1999/02/22-rdf-syntax-ns#">
   <cc:Work>
    <dc:type rdf:resource="http://purl.org/dc/dcmitype/StillImage"/>
    <dc:date>2026-03-17T14:01:33.549800</dc:date>
    <dc:format>image/svg+xml</dc:format>
    <dc:creator>
     <cc:Agent>
      <dc:title>Matplotlib v3.10.8, https://matplotlib.org/</dc:title>
     </cc:Agent>
    </dc:creator>
   </cc:Work>
  </rdf:RDF>
 </metadata>
 <defs>
  <style type="text/css">*{stroke-linejoin: round; stroke-linecap: butt}</style>
 </defs>
 <g id="figure_1">
  <g id="patch_1">
   <path d="M 0 348.651094 
L 996.723906 348.651094 
L 996.723906 0 
L 0 0 
z
" style="fill: #ffffff"/>
  </g>
  <g id="axes_1">
   <g id="patch_2">
    <path d="M 62.546406 306.916875 
L 989.523906 306.916875 
L 989.523906 21.935625 
L 62.546406 21.935625 
z
" style="fill: #ffffff"/>
   </g>
   <g id="matplotlib.axis_1">
    <g id="xtick_1">
     <g id="line2d_1">
      <path d="M 72.622249 306.916875 
L 72.622249 21.935625 
" clip-path="url(#p6e216daacd)" style="fill: none; stroke: #cccccc; stroke-linecap: round"/>
     </g>
     <g id="text_1">
      <!-- 2011-06 -->
      <g style="fill: #262626" transform="translate(52.845452 324.290469) scale(0.11 -0.11)">
       <defs>
        <path id="ArialMT-32" d="M 3222 541 
L 3222 0 
L 194 0 
Q 188 203 259 391 
Q 375 700 629 1000 
Q 884 1300 1366 1694 
Q 2113 2306 2375 2664 
Q 2638 3022 2638 3341 
Q 2638 3675 2398 3904 
Q 2159 4134 1775 4134 
Q 1369 4134 1125 3890 
Q 881 3647 878 3216 
L 300 3275 
Q 359 3922 746 4261 
Q 1134 4600 1788 4600 
Q 2447 4600 2831 4234 
Q 3216 3869 3216 3328 
Q 3216 3053 3103 2787 
Q 2991 2522 2730 2228 
Q 2469 1934 1863 1422 
Q 1356 997 1212 845 
Q 1069 694 975 541 
L 3222 541 
z
" transform="scale(0.015625)"/>
        <path id="ArialMT-30" d="M 266 2259 
Q 266 3072 433 3567 
Q 600 4063 929 4331 
Q 1259 4600 1759 4600 
Q 2128 4600 2406 4451 
Q 2684 4303 2865 4023 
Q 3047 3744 3150 3342 
Q 3253 2941 3253 2259 
Q 3253 1453 3087 958 
Q 2922 463 2592 192 
Q 2263 -78 1759 -78 
Q 1097 -78 719 397 
Q 266 969 266 2259 
z
M 844 2259 
Q 844 1131 1108 757 
Q 1372 384 1759 384 
Q 2147 384 2411 759 
Q 2675 1134 2675 2259 
Q 2675 3391 2411 3762 
Q 2147 4134 1753 4134 
Q 1366 4134 1134 3806 
Q 844 3388 844 2259 
z
" transform="scale(0.015625)"/>
        <path id="ArialMT-31" d="M 2384 0 
L 1822 0 
L 1822 3584 
Q 1619 3391 1289 3197 
Q 959 3003 697 2906 
L 697 3450 
Q 1169 3672 1522 3987 
Q 1875 4303 2022 4600 
L 2384 4600 
L 2384 0 
z
" transform="scale(0.015625)"/>
        <path id="ArialMT-2d" d="M 203 1375 
L 203 1941 
L 1931 1941 
L 1931 1375 
L 203 1375 
z
" transform="scale(0.015625)"/>
        <path id="ArialMT-36" d="M 3184 3459 
L 2625 3416 
Q 2550 3747 2413 3897 
Q 2184 4138 1850 4138 
Q 1581 4138 1378 3988 
Q 1113 3794 959 3422 
Q 806 3050 800 2363 
Q 1003 2672 1297 2822 
Q 1591 2972 1913 2972 
Q 2475 2972 2870 2558 
Q 3266 2144 3266 1488 
Q 3266 1056 3080 686 
Q 2894 316 2569 119 
Q 2244 -78 1831 -78 
Q 1128 -78 684 439 
Q 241 956 241 2144 
Q 241 3472 731 4075 
Q 1159 4600 1884 4600 
Q 2425 4600 2770 4297 
Q 3116 3994 3184 3459 
z
M 888 1484 
Q 888 1194 1011 928 
Q 1134 663 1356 523 
Q 1578 384 1822 384 
Q 2178 384 2434 671 
Q 2691 959 2691 1453 
Q 2691 1928 2437 2201 
Q 2184 2475 1800 2475 
Q 1419 2475 1153 2201 
Q 888 1928 888 1484 
z
" transform="scale(0.015625)"/>
       </defs>
       <use xlink:href="#ArialMT-32"/>
       <use xlink:href="#ArialMT-30" transform="translate(55.615234 0)"/>
       <use xlink:href="#ArialMT-31" transform="translate(111.230469 0)"/>
       <use xlink:href="#ArialMT-31" transform="translate(159.470703 0)"/>
       <use xlink:href="#ArialMT-2d" transform="translate(215.085938 0)"/>
       <use xlink:href="#ArialMT-30" transform="translate(248.386719 0)"/>
       <use xlink:href="#ArialMT-36" transform="translate(304.001953 0)"/>
      </g>
     </g>
    </g>
    <g id="xtick_2">
     <g id="line2d_2">
      <path d="M 210.020099 306.916875 
L 210.020099 21.935625 
" clip-path="url(#p6e216daacd)" style="fill: none; stroke: #cccccc; stroke-linecap: round"/>
     </g>
     <g id="text_2">
      <!-- 2011-07 -->
      <g style="fill: #262626" transform="translate(190.243303 324.290469) scale(0.11 -0.11)">
       <defs>
        <path id="ArialMT-37" d="M 303 3981 
L 303 4522 
L 3269 4522 
L 3269 4084 
Q 2831 3619 2401 2847 
Q 1972 2075 1738 1259 
Q 1569 684 1522 0 
L 944 0 
Q 953 541 1156 1306 
Q 1359 2072 1739 2783 
Q 2119 3494 2547 3981 
L 303 3981 
z
" transform="scale(0.015625)"/>
       </defs>
       <use xlink:href="#ArialMT-32"/>
       <use xlink:href="#ArialMT-30" transform="translate(55.615234 0)"/>
       <use xlink:href="#ArialMT-31" transform="translate(111.230469 0)"/>
       <use xlink:href="#ArialMT-31" transform="translate(159.470703 0)"/>
       <use xlink:href="#ArialMT-2d" transform="translate(215.085938 0)"/>
       <use xlink:href="#ArialMT-30" transform="translate(248.386719 0)"/>
       <use xlink:href="#ArialMT-37" transform="translate(304.001953 0)"/>
      </g>
     </g>
    </g>
    <g id="xtick_3">
     <g id="line2d_3">
      <path d="M 351.997879 306.916875 
L 351.997879 21.935625 
" clip-path="url(#p6e216daacd)" style="fill: none; stroke: #cccccc; stroke-linecap: round"/>
     </g>
     <g id="text_3">
      <!-- 2011-08 -->
      <g style="fill: #262626" transform="translate(332.221082 324.290469) scale(0.11 -0.11)">
       <defs>
        <path id="ArialMT-38" d="M 1131 2484 
Q 781 2613 612 2850 
Q 444 3088 444 3419 
Q 444 3919 803 4259 
Q 1163 4600 1759 4600 
Q 2359 4600 2725 4251 
Q 3091 3903 3091 3403 
Q 3091 3084 2923 2848 
Q 2756 2613 2416 2484 
Q 2838 2347 3058 2040 
Q 3278 1734 3278 1309 
Q 3278 722 2862 322 
Q 2447 -78 1769 -78 
Q 1091 -78 675 323 
Q 259 725 259 1325 
Q 259 1772 486 2073 
Q 713 2375 1131 2484 
z
M 1019 3438 
Q 1019 3113 1228 2906 
Q 1438 2700 1772 2700 
Q 2097 2700 2305 2904 
Q 2513 3109 2513 3406 
Q 2513 3716 2298 3927 
Q 2084 4138 1766 4138 
Q 1444 4138 1231 3931 
Q 1019 3725 1019 3438 
z
M 838 1322 
Q 838 1081 952 856 
Q 1066 631 1291 507 
Q 1516 384 1775 384 
Q 2178 384 2440 643 
Q 2703 903 2703 1303 
Q 2703 1709 2433 1975 
Q 2163 2241 1756 2241 
Q 1359 2241 1098 1978 
Q 838 1716 838 1322 
z
" transform="scale(0.015625)"/>
       </defs>
       <use xlink:href="#ArialMT-32"/>
       <use xlink:href="#ArialMT-30" transform="translate(55.615234 0)"/>
       <use xlink:href="#ArialMT-31" transform="translate(111.230469 0)"/>
       <use xlink:href="#ArialMT-31" transform="translate(159.470703 0)"/>
       <use xlink:href="#ArialMT-2d" transform="translate(215.085938 0)"/>
       <use xlink:href="#ArialMT-30" transform="translate(248.386719 0)"/>
       <use xlink:href="#ArialMT-38" transform="translate(304.001953 0)"/>
      </g>
     </g>
    </g>
    <g id="xtick_4">
     <g id="line2d_4">
      <path d="M 493.975658 306.916875 
L 493.975658 21.935625 
" clip-path="url(#p6e216daacd)" style="fill: none; stroke: #cccccc; stroke-linecap: round"/>
     </g>
     <g id="text_4">
      <!-- 2011-09 -->
      <g style="fill: #262626" transform="translate(474.198861 324.290469) scale(0.11 -0.11)">
       <defs>
        <path id="ArialMT-39" d="M 350 1059 
L 891 1109 
Q 959 728 1153 556 
Q 1347 384 1650 384 
Q 1909 384 2104 503 
Q 2300 622 2425 820 
Q 2550 1019 2634 1356 
Q 2719 1694 2719 2044 
Q 2719 2081 2716 2156 
Q 2547 1888 2255 1720 
Q 1963 1553 1622 1553 
Q 1053 1553 659 1965 
Q 266 2378 266 3053 
Q 266 3750 677 4175 
Q 1088 4600 1706 4600 
Q 2153 4600 2523 4359 
Q 2894 4119 3086 3673 
Q 3278 3228 3278 2384 
Q 3278 1506 3087 986 
Q 2897 466 2520 194 
Q 2144 -78 1638 -78 
Q 1100 -78 759 220 
Q 419 519 350 1059 
z
M 2653 3081 
Q 2653 3566 2395 3850 
Q 2138 4134 1775 4134 
Q 1400 4134 1122 3828 
Q 844 3522 844 3034 
Q 844 2597 1108 2323 
Q 1372 2050 1759 2050 
Q 2150 2050 2401 2323 
Q 2653 2597 2653 3081 
z
" transform="scale(0.015625)"/>
       </defs>
       <use xlink:href="#ArialMT-32"/>
       <use xlink:href="#ArialMT-30" transform="translate(55.615234 0)"/>
       <use xlink:href="#ArialMT-31" transform="translate(111.230469 0)"/>
       <use xlink:href="#ArialMT-31" transform="translate(159.470703 0)"/>
       <use xlink:href="#ArialMT-2d" transform="translate(215.085938 0)"/>
       <use xlink:href="#ArialMT-30" transform="translate(248.386719 0)"/>
       <use xlink:href="#ArialMT-39" transform="translate(304.001953 0)"/>
      </g>
     </g>
    </g>
    <g id="xtick_5">
     <g id="line2d_5">
      <path d="M 631.373509 306.916875 
L 631.373509 21.935625 
" clip-path="url(#p6e216daacd)" style="fill: none; stroke: #cccccc; stroke-linecap: round"/>
     </g>
     <g id="text_5">
      <!-- 2011-10 -->
      <g style="fill: #262626" transform="translate(611.596712 324.290469) scale(0.11 -0.11)">
       <use xlink:href="#ArialMT-32"/>
       <use xlink:href="#ArialMT-30" transform="translate(55.615234 0)"/>
       <use xlink:href="#ArialMT-31" transform="translate(111.230469 0)"/>
       <use xlink:href="#ArialMT-31" transform="translate(159.470703 0)"/>
       <use xlink:href="#ArialMT-2d" transform="translate(215.085938 0)"/>
       <use xlink:href="#ArialMT-31" transform="translate(248.386719 0)"/>
       <use xlink:href="#ArialMT-30" transform="translate(304.001953 0)"/>
      </g>
     </g>
    </g>
    <g id="xtick_6">
     <g id="line2d_6">
      <path d="M 773.351288 306.916875 
L 773.351288 21.935625 
" clip-path="url(#p6e216daacd)" style="fill: none; stroke: #cccccc; stroke-linecap: round"/>
     </g>
     <g id="text_6">
      <!-- 2011-11 -->
      <g style="fill: #262626" transform="translate(753.980116 324.290469) scale(0.11 -0.11)">
       <use xlink:href="#ArialMT-32"/>
       <use xlink:href="#ArialMT-30" transform="translate(55.615234 0)"/>
       <use xlink:href="#ArialMT-31" transform="translate(111.230469 0)"/>
       <use xlink:href="#ArialMT-31" transform="translate(159.470703 0)"/>
       <use xlink:href="#ArialMT-2d" transform="translate(215.085938 0)"/>
       <use xlink:href="#ArialMT-31" transform="translate(248.386719 0)"/>
       <use xlink:href="#ArialMT-31" transform="translate(296.626953 0)"/>
      </g>
     </g>
    </g>
    <g id="xtick_7">
     <g id="line2d_7">
      <path d="M 910.749138 306.916875 
L 910.749138 21.935625 
" clip-path="url(#p6e216daacd)" style="fill: none; stroke: #cccccc; stroke-linecap: round"/>
     </g>
     <g id="text_7">
      <!-- 2011-12 -->
      <g style="fill: #262626" transform="translate(890.972342 324.290469) scale(0.11 -0.11)">
       <use xlink:href="#ArialMT-32"/>
       <use xlink:href="#ArialMT-30" transform="translate(55.615234 0)"/>
       <use xlink:href="#ArialMT-31" transform="translate(111.230469 0)"/>
       <use xlink:href="#ArialMT-31" transform="translate(159.470703 0)"/>
       <use xlink:href="#ArialMT-2d" transform="translate(215.085938 0)"/>
       <use xlink:href="#ArialMT-31" transform="translate(248.386719 0)"/>
       <use xlink:href="#ArialMT-32" transform="translate(304.001953 0)"/>
      </g>
     </g>
    </g>
    <g id="text_8">
     <!-- Date -->
     <g style="fill: #262626" transform="translate(513.362031 339.066094) scale(0.12 -0.12)">
      <defs>
       <path id="ArialMT-44" d="M 494 0 
L 494 4581 
L 2072 4581 
Q 2606 4581 2888 4516 
Q 3281 4425 3559 4188 
Q 3922 3881 4101 3404 
Q 4281 2928 4281 2316 
Q 4281 1794 4159 1391 
Q 4038 988 3847 723 
Q 3656 459 3429 307 
Q 3203 156 2883 78 
Q 2563 0 2147 0 
L 494 0 
z
M 1100 541 
L 2078 541 
Q 2531 541 2789 625 
Q 3047 709 3200 863 
Q 3416 1078 3536 1442 
Q 3656 1806 3656 2325 
Q 3656 3044 3420 3430 
Q 3184 3816 2847 3947 
Q 2603 4041 2063 4041 
L 1100 4041 
L 1100 541 
z
" transform="scale(0.015625)"/>
       <path id="ArialMT-61" d="M 2588 409 
Q 2275 144 1986 34 
Q 1697 -75 1366 -75 
Q 819 -75 525 192 
Q 231 459 231 875 
Q 231 1119 342 1320 
Q 453 1522 633 1644 
Q 813 1766 1038 1828 
Q 1203 1872 1538 1913 
Q 2219 1994 2541 2106 
Q 2544 2222 2544 2253 
Q 2544 2597 2384 2738 
Q 2169 2928 1744 2928 
Q 1347 2928 1158 2789 
Q 969 2650 878 2297 
L 328 2372 
Q 403 2725 575 2942 
Q 747 3159 1072 3276 
Q 1397 3394 1825 3394 
Q 2250 3394 2515 3294 
Q 2781 3194 2906 3042 
Q 3031 2891 3081 2659 
Q 3109 2516 3109 2141 
L 3109 1391 
Q 3109 606 3145 398 
Q 3181 191 3288 0 
L 2700 0 
Q 2613 175 2588 409 
z
M 2541 1666 
Q 2234 1541 1622 1453 
Q 1275 1403 1131 1340 
Q 988 1278 909 1158 
Q 831 1038 831 891 
Q 831 666 1001 516 
Q 1172 366 1500 366 
Q 1825 366 2078 508 
Q 2331 650 2450 897 
Q 2541 1088 2541 1459 
L 2541 1666 
z
" transform="scale(0.015625)"/>
       <path id="ArialMT-74" d="M 1650 503 
L 1731 6 
Q 1494 -44 1306 -44 
Q 1000 -44 831 53 
Q 663 150 594 308 
Q 525 466 525 972 
L 525 2881 
L 113 2881 
L 113 3319 
L 525 3319 
L 525 4141 
L 1084 4478 
L 1084 3319 
L 1650 3319 
L 1650 2881 
L 1084 2881 
L 1084 941 
Q 1084 700 1114 631 
Q 1144 563 1211 522 
Q 1278 481 1403 481 
Q 1497 481 1650 503 
z
" transform="scale(0.015625)"/>
       <path id="ArialMT-65" d="M 2694 1069 
L 3275 997 
Q 3138 488 2766 206 
Q 2394 -75 1816 -75 
Q 1088 -75 661 373 
Q 234 822 234 1631 
Q 234 2469 665 2931 
Q 1097 3394 1784 3394 
Q 2450 3394 2872 2941 
Q 3294 2488 3294 1666 
Q 3294 1616 3291 1516 
L 816 1516 
Q 847 969 1125 678 
Q 1403 388 1819 388 
Q 2128 388 2347 550 
Q 2566 713 2694 1069 
z
M 847 1978 
L 2700 1978 
Q 2663 2397 2488 2606 
Q 2219 2931 1791 2931 
Q 1403 2931 1139 2672 
Q 875 2413 847 1978 
z
" transform="scale(0.015625)"/>
      </defs>
      <use xlink:href="#ArialMT-44"/>
      <use xlink:href="#ArialMT-61" transform="translate(72.216797 0)"/>
      <use xlink:href="#ArialMT-74" transform="translate(127.832031 0)"/>
      <use xlink:href="#ArialMT-65" transform="translate(155.615234 0)"/>
     </g>
    </g>
   </g>
   <g id="matplotlib.axis_2">
    <g id="ytick_1">
     <g id="line2d_8">
      <path d="M 62.546406 293.963182 
L 989.523906 293.963182 
" clip-path="url(#p6e216daacd)" style="fill: none; stroke: #cccccc; stroke-linecap: round"/>
     </g>
     <g id="text_9">
      <!-- 0 -->
      <g style="fill: #262626" transform="translate(46.929375 297.899979) scale(0.11 -0.11)">
       <use xlink:href="#ArialMT-30"/>
      </g>
     </g>
    </g>
    <g id="ytick_2">
     <g id="line2d_9">
      <path d="M 62.546406 261.059019 
L 989.523906 261.059019 
" clip-path="url(#p6e216daacd)" style="fill: none; stroke: #cccccc; stroke-linecap: round"/>
     </g>
     <g id="text_10">
      <!-- 5000 -->
      <g style="fill: #262626" transform="translate(28.578281 264.995816) scale(0.11 -0.11)">
       <defs>
        <path id="ArialMT-35" d="M 266 1200 
L 856 1250 
Q 922 819 1161 601 
Q 1400 384 1738 384 
Q 2144 384 2425 690 
Q 2706 997 2706 1503 
Q 2706 1984 2436 2262 
Q 2166 2541 1728 2541 
Q 1456 2541 1237 2417 
Q 1019 2294 894 2097 
L 366 2166 
L 809 4519 
L 3088 4519 
L 3088 3981 
L 1259 3981 
L 1013 2750 
Q 1425 3038 1878 3038 
Q 2478 3038 2890 2622 
Q 3303 2206 3303 1553 
Q 3303 931 2941 478 
Q 2500 -78 1738 -78 
Q 1113 -78 717 272 
Q 322 622 266 1200 
z
" transform="scale(0.015625)"/>
       </defs>
       <use xlink:href="#ArialMT-35"/>
       <use xlink:href="#ArialMT-30" transform="translate(55.615234 0)"/>
       <use xlink:href="#ArialMT-30" transform="translate(111.230469 0)"/>
       <use xlink:href="#ArialMT-30" transform="translate(166.845703 0)"/>
      </g>
     </g>
    </g>
    <g id="ytick_3">
     <g id="line2d_10">
      <path d="M 62.546406 228.154856 
L 989.523906 228.154856 
" clip-path="url(#p6e216daacd)" style="fill: none; stroke: #cccccc; stroke-linecap: round"/>
     </g>
     <g id="text_11">
      <!-- 10000 -->
      <g style="fill: #262626" transform="translate(22.46125 232.091653) scale(0.11 -0.11)">
       <use xlink:href="#ArialMT-31"/>
       <use xlink:href="#ArialMT-30" transform="translate(55.615234 0)"/>
       <use xlink:href="#ArialMT-30" transform="translate(111.230469 0)"/>
       <use xlink:href="#ArialMT-30" transform="translate(166.845703 0)"/>
       <use xlink:href="#ArialMT-30" transform="translate(222.460938 0)"/>
      </g>
     </g>
    </g>
    <g id="ytick_4">
     <g id="line2d_11">
      <path d="M 62.546406 195.250693 
L 989.523906 195.250693 
" clip-path="url(#p6e216daacd)" style="fill: none; stroke: #cccccc; stroke-linecap: round"/>
     </g>
     <g id="text_12">
      <!-- 15000 -->
      <g style="fill: #262626" transform="translate(22.46125 199.18749) scale(0.11 -0.11)">
       <use xlink:href="#ArialMT-31"/>
       <use xlink:href="#ArialMT-35" transform="translate(55.615234 0)"/>
       <use xlink:href="#ArialMT-30" transform="translate(111.230469 0)"/>
       <use xlink:href="#ArialMT-30" transform="translate(166.845703 0)"/>
       <use xlink:href="#ArialMT-30" transform="translate(222.460938 0)"/>
      </g>
     </g>
    </g>
    <g id="ytick_5">
     <g id="line2d_12">
      <path d="M 62.546406 162.34653 
L 989.523906 162.34653 
" clip-path="url(#p6e216daacd)" style="fill: none; stroke: #cccccc; stroke-linecap: round"/>
     </g>
     <g id="text_13">
      <!-- 20000 -->
      <g style="fill: #262626" transform="translate(22.46125 166.283327) scale(0.11 -0.11)">
       <use xlink:href="#ArialMT-32"/>
       <use xlink:href="#ArialMT-30" transform="translate(55.615234 0)"/>
       <use xlink:href="#ArialMT-30" transform="translate(111.230469 0)"/>
       <use xlink:href="#ArialMT-30" transform="translate(166.845703 0)"/>
       <use xlink:href="#ArialMT-30" transform="translate(222.460938 0)"/>
      </g>
     </g>
    </g>
    <g id="ytick_6">
     <g id="line2d_13">
      <path d="M 62.546406 129.442367 
L 989.523906 129.442367 
" clip-path="url(#p6e216daacd)" style="fill: none; stroke: #cccccc; stroke-linecap: round"/>
     </g>
     <g id="text_14">
      <!-- 25000 -->
      <g style="fill: #262626" transform="translate(22.46125 133.379163) scale(0.11 -0.11)">
       <use xlink:href="#ArialMT-32"/>
       <use xlink:href="#ArialMT-35" transform="translate(55.615234 0)"/>
       <use xlink:href="#ArialMT-30" transform="translate(111.230469 0)"/>
       <use xlink:href="#ArialMT-30" transform="translate(166.845703 0)"/>
       <use xlink:href="#ArialMT-30" transform="translate(222.460938 0)"/>
      </g>
     </g>
    </g>
    <g id="ytick_7">
     <g id="line2d_14">
      <path d="M 62.546406 96.538204 
L 989.523906 96.538204 
" clip-path="url(#p6e216daacd)" style="fill: none; stroke: #cccccc; stroke-linecap: round"/>
     </g>
     <g id="text_15">
      <!-- 30000 -->
      <g style="fill: #262626" transform="translate(22.46125 100.475) scale(0.11 -0.11)">
       <defs>
        <path id="ArialMT-33" d="M 269 1209 
L 831 1284 
Q 928 806 1161 595 
Q 1394 384 1728 384 
Q 2125 384 2398 659 
Q 2672 934 2672 1341 
Q 2672 1728 2419 1979 
Q 2166 2231 1775 2231 
Q 1616 2231 1378 2169 
L 1441 2663 
Q 1497 2656 1531 2656 
Q 1891 2656 2178 2843 
Q 2466 3031 2466 3422 
Q 2466 3731 2256 3934 
Q 2047 4138 1716 4138 
Q 1388 4138 1169 3931 
Q 950 3725 888 3313 
L 325 3413 
Q 428 3978 793 4289 
Q 1159 4600 1703 4600 
Q 2078 4600 2393 4439 
Q 2709 4278 2876 4000 
Q 3044 3722 3044 3409 
Q 3044 3113 2884 2869 
Q 2725 2625 2413 2481 
Q 2819 2388 3044 2092 
Q 3269 1797 3269 1353 
Q 3269 753 2831 336 
Q 2394 -81 1725 -81 
Q 1122 -81 723 278 
Q 325 638 269 1209 
z
" transform="scale(0.015625)"/>
       </defs>
       <use xlink:href="#ArialMT-33"/>
       <use xlink:href="#ArialMT-30" transform="translate(55.615234 0)"/>
       <use xlink:href="#ArialMT-30" transform="translate(111.230469 0)"/>
       <use xlink:href="#ArialMT-30" transform="translate(166.845703 0)"/>
       <use xlink:href="#ArialMT-30" transform="translate(222.460938 0)"/>
      </g>
     </g>
    </g>
    <g id="ytick_8">
     <g id="line2d_15">
      <path d="M 62.546406 63.634041 
L 989.523906 63.634041 
" clip-path="url(#p6e216daacd)" style="fill: none; stroke: #cccccc; stroke-linecap: round"/>
     </g>
     <g id="text_16">
      <!-- 35000 -->
      <g style="fill: #262626" transform="translate(22.46125 67.570837) scale(0.11 -0.11)">
       <use xlink:href="#ArialMT-33"/>
       <use xlink:href="#ArialMT-35" transform="translate(55.615234 0)"/>
       <use xlink:href="#ArialMT-30" transform="translate(111.230469 0)"/>
       <use xlink:href="#ArialMT-30" transform="translate(166.845703 0)"/>
       <use xlink:href="#ArialMT-30" transform="translate(222.460938 0)"/>
      </g>
     </g>
    </g>
    <g id="ytick_9">
     <g id="line2d_16">
      <path d="M 62.546406 30.729877 
L 989.523906 30.729877 
" clip-path="url(#p6e216daacd)" style="fill: none; stroke: #cccccc; stroke-linecap: round"/>
     </g>
     <g id="text_17">
      <!-- 40000 -->
      <g style="fill: #262626" transform="translate(22.46125 34.666674) scale(0.11 -0.11)">
       <defs>
        <path id="ArialMT-34" d="M 2069 0 
L 2069 1097 
L 81 1097 
L 81 1613 
L 2172 4581 
L 2631 4581 
L 2631 1613 
L 3250 1613 
L 3250 1097 
L 2631 1097 
L 2631 0 
L 2069 0 
z
M 2069 1613 
L 2069 3678 
L 634 1613 
L 2069 1613 
z
" transform="scale(0.015625)"/>
       </defs>
       <use xlink:href="#ArialMT-34"/>
       <use xlink:href="#ArialMT-30" transform="translate(55.615234 0)"/>
       <use xlink:href="#ArialMT-30" transform="translate(111.230469 0)"/>
       <use xlink:href="#ArialMT-30" transform="translate(166.845703 0)"/>
       <use xlink:href="#ArialMT-30" transform="translate(222.460938 0)"/>
      </g>
     </g>
    </g>
    <g id="text_18">
     <!-- Cluster daily total_sales -->
     <g style="fill: #262626" transform="translate(15.935625 227.78625) rotate(-90) scale(0.12 -0.12)">
      <defs>
       <path id="ArialMT-43" d="M 3763 1606 
L 4369 1453 
Q 4178 706 3683 314 
Q 3188 -78 2472 -78 
Q 1731 -78 1267 223 
Q 803 525 561 1097 
Q 319 1669 319 2325 
Q 319 3041 592 3573 
Q 866 4106 1370 4382 
Q 1875 4659 2481 4659 
Q 3169 4659 3637 4309 
Q 4106 3959 4291 3325 
L 3694 3184 
Q 3534 3684 3231 3912 
Q 2928 4141 2469 4141 
Q 1941 4141 1586 3887 
Q 1231 3634 1087 3207 
Q 944 2781 944 2328 
Q 944 1744 1114 1308 
Q 1284 872 1643 656 
Q 2003 441 2422 441 
Q 2931 441 3284 734 
Q 3638 1028 3763 1606 
z
" transform="scale(0.015625)"/>
       <path id="ArialMT-6c" d="M 409 0 
L 409 4581 
L 972 4581 
L 972 0 
L 409 0 
z
" transform="scale(0.015625)"/>
       <path id="ArialMT-75" d="M 2597 0 
L 2597 488 
Q 2209 -75 1544 -75 
Q 1250 -75 995 37 
Q 741 150 617 320 
Q 494 491 444 738 
Q 409 903 409 1263 
L 409 3319 
L 972 3319 
L 972 1478 
Q 972 1038 1006 884 
Q 1059 663 1231 536 
Q 1403 409 1656 409 
Q 1909 409 2131 539 
Q 2353 669 2445 892 
Q 2538 1116 2538 1541 
L 2538 3319 
L 3100 3319 
L 3100 0 
L 2597 0 
z
" transform="scale(0.015625)"/>
       <path id="ArialMT-73" d="M 197 991 
L 753 1078 
Q 800 744 1014 566 
Q 1228 388 1613 388 
Q 2000 388 2187 545 
Q 2375 703 2375 916 
Q 2375 1106 2209 1216 
Q 2094 1291 1634 1406 
Q 1016 1563 777 1677 
Q 538 1791 414 1992 
Q 291 2194 291 2438 
Q 291 2659 392 2848 
Q 494 3038 669 3163 
Q 800 3259 1026 3326 
Q 1253 3394 1513 3394 
Q 1903 3394 2198 3281 
Q 2494 3169 2634 2976 
Q 2775 2784 2828 2463 
L 2278 2388 
Q 2241 2644 2061 2787 
Q 1881 2931 1553 2931 
Q 1166 2931 1000 2803 
Q 834 2675 834 2503 
Q 834 2394 903 2306 
Q 972 2216 1119 2156 
Q 1203 2125 1616 2013 
Q 2213 1853 2448 1751 
Q 2684 1650 2818 1456 
Q 2953 1263 2953 975 
Q 2953 694 2789 445 
Q 2625 197 2315 61 
Q 2006 -75 1616 -75 
Q 969 -75 630 194 
Q 291 463 197 991 
z
" transform="scale(0.015625)"/>
       <path id="ArialMT-72" d="M 416 0 
L 416 3319 
L 922 3319 
L 922 2816 
Q 1116 3169 1280 3281 
Q 1444 3394 1641 3394 
Q 1925 3394 2219 3213 
L 2025 2691 
Q 1819 2813 1613 2813 
Q 1428 2813 1281 2702 
Q 1134 2591 1072 2394 
Q 978 2094 978 1738 
L 978 0 
L 416 0 
z
" transform="scale(0.015625)"/>
       <path id="ArialMT-20" transform="scale(0.015625)"/>
       <path id="ArialMT-64" d="M 2575 0 
L 2575 419 
Q 2259 -75 1647 -75 
Q 1250 -75 917 144 
Q 584 363 401 755 
Q 219 1147 219 1656 
Q 219 2153 384 2558 
Q 550 2963 881 3178 
Q 1213 3394 1622 3394 
Q 1922 3394 2156 3267 
Q 2391 3141 2538 2938 
L 2538 4581 
L 3097 4581 
L 3097 0 
L 2575 0 
z
M 797 1656 
Q 797 1019 1065 703 
Q 1334 388 1700 388 
Q 2069 388 2326 689 
Q 2584 991 2584 1609 
Q 2584 2291 2321 2609 
Q 2059 2928 1675 2928 
Q 1300 2928 1048 2622 
Q 797 2316 797 1656 
z
" transform="scale(0.015625)"/>
       <path id="ArialMT-69" d="M 425 3934 
L 425 4581 
L 988 4581 
L 988 3934 
L 425 3934 
z
M 425 0 
L 425 3319 
L 988 3319 
L 988 0 
L 425 0 
z
" transform="scale(0.015625)"/>
       <path id="ArialMT-79" d="M 397 -1278 
L 334 -750 
Q 519 -800 656 -800 
Q 844 -800 956 -737 
Q 1069 -675 1141 -563 
Q 1194 -478 1313 -144 
Q 1328 -97 1363 -6 
L 103 3319 
L 709 3319 
L 1400 1397 
Q 1534 1031 1641 628 
Q 1738 1016 1872 1384 
L 2581 3319 
L 3144 3319 
L 1881 -56 
Q 1678 -603 1566 -809 
Q 1416 -1088 1222 -1217 
Q 1028 -1347 759 -1347 
Q 597 -1347 397 -1278 
z
" transform="scale(0.015625)"/>
       <path id="ArialMT-6f" d="M 213 1659 
Q 213 2581 725 3025 
Q 1153 3394 1769 3394 
Q 2453 3394 2887 2945 
Q 3322 2497 3322 1706 
Q 3322 1066 3130 698 
Q 2938 331 2570 128 
Q 2203 -75 1769 -75 
Q 1072 -75 642 372 
Q 213 819 213 1659 
z
M 791 1659 
Q 791 1022 1069 705 
Q 1347 388 1769 388 
Q 2188 388 2466 706 
Q 2744 1025 2744 1678 
Q 2744 2294 2464 2611 
Q 2184 2928 1769 2928 
Q 1347 2928 1069 2612 
Q 791 2297 791 1659 
z
" transform="scale(0.015625)"/>
       <path id="ArialMT-5f" d="M -97 -1272 
L -97 -866 
L 3631 -866 
L 3631 -1272 
L -97 -1272 
z
" transform="scale(0.015625)"/>
      </defs>
      <use xlink:href="#ArialMT-43"/>
      <use xlink:href="#ArialMT-6c" transform="translate(72.216797 0)"/>
      <use xlink:href="#ArialMT-75" transform="translate(94.433594 0)"/>
      <use xlink:href="#ArialMT-73" transform="translate(150.048828 0)"/>
      <use xlink:href="#ArialMT-74" transform="translate(200.048828 0)"/>
      <use xlink:href="#ArialMT-65" transform="translate(227.832031 0)"/>
      <use xlink:href="#ArialMT-72" transform="translate(283.447266 0)"/>
      <use xlink:href="#ArialMT-20" transform="translate(316.748047 0)"/>
      <use xlink:href="#ArialMT-64" transform="translate(344.53125 0)"/>
      <use xlink:href="#ArialMT-61" transform="translate(400.146484 0)"/>
      <use xlink:href="#ArialMT-69" transform="translate(455.761719 0)"/>
      <use xlink:href="#ArialMT-6c" transform="translate(477.978516 0)"/>
      <use xlink:href="#ArialMT-79" transform="translate(500.195312 0)"/>
      <use xlink:href="#ArialMT-20" transform="translate(550.195312 0)"/>
      <use xlink:href="#ArialMT-74" transform="translate(577.978516 0)"/>
      <use xlink:href="#ArialMT-6f" transform="translate(605.761719 0)"/>
      <use xlink:href="#ArialMT-74" transform="translate(661.376953 0)"/>
      <use xlink:href="#ArialMT-61" transform="translate(689.160156 0)"/>
      <use xlink:href="#ArialMT-6c" transform="translate(744.775391 0)"/>
      <use xlink:href="#ArialMT-5f" transform="translate(766.992188 0)"/>
      <use xlink:href="#ArialMT-73" transform="translate(822.607422 0)"/>
      <use xlink:href="#ArialMT-61" transform="translate(872.607422 0)"/>
      <use xlink:href="#ArialMT-6c" transform="translate(928.222656 0)"/>
      <use xlink:href="#ArialMT-65" transform="translate(950.439453 0)"/>
      <use xlink:href="#ArialMT-73" transform="translate(1006.054688 0)"/>
     </g>
    </g>
   </g>
   <g id="FillBetweenPolyCollection_1">
    <defs>
     <path id="m1f89900252" d="M 104.681747 -126.973375 
L 104.681747 -54.687912 
L 109.261676 -54.687912 
L 113.841604 -54.687912 
L 118.421532 -54.687912 
L 123.001461 -54.687912 
L 127.581389 -54.687912 
L 132.161317 -54.687912 
L 136.741246 -54.687912 
L 141.321174 -54.687912 
L 145.901102 -54.687912 
L 150.481031 -54.687912 
L 155.060959 -54.687912 
L 159.640887 -54.687912 
L 164.220816 -66.031159 
L 168.800744 -54.687912 
L 173.380673 -81.824164 
L 177.960601 -54.687912 
L 182.540529 -54.687912 
L 187.120458 -54.687912 
L 191.700386 -55.703947 
L 196.280314 -54.687912 
L 200.860243 -54.687912 
L 205.440171 -61.615107 
L 210.020099 -54.687912 
L 214.600028 -54.687912 
L 219.179956 -54.687912 
L 223.759885 -54.687912 
L 228.339813 -54.687912 
L 232.919741 -54.687912 
L 237.49967 -110.132933 
L 242.079598 -54.687912 
L 246.659526 -54.687912 
L 251.239455 -54.687912 
L 255.819383 -54.687912 
L 260.399311 -66.089639 
L 264.97924 -54.687912 
L 269.559168 -57.141661 
L 274.139096 -54.687912 
L 278.719025 -54.687912 
L 283.298953 -54.687912 
L 287.878882 -54.687912 
L 292.45881 -54.687912 
L 297.038738 -54.687912 
L 301.618667 -54.687912 
L 306.198595 -54.687912 
L 310.778523 -54.687912 
L 315.358452 -54.687912 
L 319.93838 -54.687912 
L 324.518308 -64.814847 
L 329.098237 -58.625221 
L 333.678165 -68.364133 
L 338.258094 -54.687912 
L 342.838022 -54.687912 
L 347.41795 -59.689803 
L 351.997879 -54.687912 
L 356.577807 -54.687912 
L 361.157735 -54.687912 
L 365.737664 -93.503908 
L 370.317592 -54.687912 
L 374.89752 -54.687912 
L 379.477449 -54.687912 
L 384.057377 -54.687912 
L 388.637305 -54.687912 
L 393.217234 -63.388738 
L 397.797162 -80.192058 
L 402.377091 -55.913969 
L 406.957019 -54.687912 
L 411.536947 -54.687912 
L 416.116876 -54.687912 
L 420.696804 -54.687912 
L 425.276732 -62.04167 
L 429.856661 -71.188201 
L 434.436589 -54.687912 
L 439.016517 -54.687912 
L 443.596446 -54.687912 
L 448.176374 -54.687912 
L 452.756302 -54.687912 
L 457.336231 -114.716452 
L 461.916159 -57.388125 
L 466.496088 -54.687912 
L 471.076016 -54.687912 
L 475.655944 -54.687912 
L 480.235873 -77.927221 
L 484.815801 -54.687912 
L 489.395729 -68.903616 
L 493.975658 -54.687912 
L 498.555586 -54.687912 
L 503.135514 -54.687912 
L 507.715443 -54.687912 
L 512.295371 -54.687912 
L 516.8753 -60.786727 
L 521.455228 -54.687912 
L 526.035156 -60.274509 
L 530.615085 -68.709544 
L 535.195013 -54.687912 
L 539.774941 -54.687912 
L 544.35487 -58.156593 
L 548.934798 -54.687912 
L 553.514726 -54.687912 
L 558.094655 -54.687912 
L 562.674583 -54.687912 
L 567.254511 -54.687912 
L 571.83444 -75.547739 
L 576.414368 -58.442832 
L 580.994297 -82.514111 
L 585.574225 -54.687912 
L 590.154153 -63.815276 
L 594.734082 -54.687912 
L 599.31401 -54.687912 
L 603.893938 -54.687912 
L 608.473867 -54.687912 
L 613.053795 -223.400809 
L 617.633723 -56.930107 
L 622.213652 -74.311936 
L 626.79358 -54.687912 
L 631.373509 -54.687912 
L 635.953437 -54.687912 
L 640.533365 -54.687912 
L 645.113294 -54.687912 
L 649.693222 -56.294698 
L 654.27315 -60.028223 
L 658.853079 -71.008969 
L 663.433007 -54.687912 
L 668.012935 -54.687912 
L 672.592864 -79.546922 
L 677.172792 -67.045233 
L 681.75272 -57.538997 
L 686.332649 -72.112121 
L 690.912577 -57.487528 
L 695.492506 -54.687912 
L 700.072434 -54.687912 
L 704.652362 -56.132298 
L 709.232291 -59.03055 
L 713.812219 -54.687912 
L 718.392147 -54.687912 
L 722.972076 -54.687912 
L 727.552004 -54.687912 
L 732.131932 -54.687912 
L 736.711861 -54.687912 
L 741.291789 -61.192704 
L 745.871718 -54.687912 
L 750.451646 -54.687912 
L 755.031574 -56.425968 
L 759.611503 -54.687912 
L 764.191431 -54.687912 
L 768.771359 -54.687912 
L 773.351288 -75.183448 
L 777.931216 -54.687912 
L 782.511144 -54.687912 
L 787.091073 -54.687912 
L 791.671001 -54.687912 
L 796.250929 -54.687912 
L 800.830858 -96.284131 
L 805.410786 -54.687912 
L 809.990715 -67.283889 
L 814.570643 -83.061552 
L 819.150571 -76.389124 
L 823.7305 -54.687912 
L 828.310428 -55.242488 
L 832.890356 -128.002779 
L 837.470285 -91.479667 
L 842.050213 -94.681922 
L 846.630141 -96.009871 
L 851.21007 -81.125859 
L 855.789998 -54.687912 
L 860.369927 -54.687912 
L 864.949855 -177.473885 
L 869.529783 -70.808626 
L 874.109712 -81.73719 
L 878.68964 -61.697372 
L 883.269568 -68.110619 
L 887.849497 -54.687912 
L 892.429425 -54.687912 
L 897.009353 -63.086252 
L 901.589282 -75.823812 
L 906.16921 -99.6756 
L 910.749138 -58.719123 
L 915.329067 -73.086752 
L 919.908995 -54.687912 
L 924.488924 -54.687912 
L 929.068852 -79.56393 
L 933.64878 -105.510025 
L 938.228709 -68.266245 
L 942.808637 -70.758432 
L 947.388565 -67.552097 
L 947.388565 -172.345987 
L 947.388565 -172.345987 
L 942.808637 -175.578864 
L 938.228709 -173.361677 
L 933.64878 -210.463405 
L 929.068852 -183.564756 
L 924.488924 -138.758557 
L 919.908995 -106.977005 
L 915.329067 -177.940573 
L 910.749138 -163.827279 
L 906.16921 -204.629882 
L 901.589282 -180.747601 
L 897.009353 -168.226346 
L 892.429425 -152.976518 
L 887.849497 -107.516521 
L 883.269568 -174.076409 
L 878.68964 -167.966858 
L 874.109712 -188.218452 
L 869.529783 -177.607161 
L 864.949855 -278.762095 
L 860.369927 -149.107032 
L 855.789998 -105.640701 
L 851.21007 -183.263452 
L 846.630141 -197.909346 
L 842.050213 -196.816733 
L 837.470285 -193.727186 
L 832.890356 -229.527819 
L 828.310428 -157.040053 
L 823.7305 -105.74814 
L 819.150571 -178.836245 
L 814.570643 -185.790879 
L 809.990715 -170.048328 
L 805.410786 -145.144639 
L 800.830858 -198.221701 
L 796.250929 -154.020827 
L 791.671001 -105.996292 
L 787.091073 -147.337497 
L 782.511144 -155.473302 
L 777.931216 -147.602571 
L 773.351288 -177.516066 
L 768.771359 -149.965414 
L 764.191431 -122.509779 
L 759.611503 -105.574622 
L 755.031574 -158.479034 
L 750.451646 -153.564515 
L 745.871718 -144.169554 
L 741.291789 -164.257425 
L 736.711861 -147.928058 
L 732.131932 -139.392853 
L 727.552004 -106.712439 
L 722.972076 -150.8071 
L 718.392147 -150.339829 
L 713.812219 -145.049415 
L 709.232291 -164.614325 
L 704.652362 -162.015213 
L 700.072434 -131.113837 
L 695.492506 -108.020225 
L 690.912577 -164.470548 
L 686.332649 -179.047742 
L 681.75272 -164.672704 
L 677.172792 -174.547415 
L 672.592864 -187.097903 
L 668.012935 -123.76814 
L 663.433007 -108.892728 
L 658.853079 -179.716559 
L 654.27315 -169.141129 
L 649.693222 -165.867252 
L 645.113294 -152.258729 
L 640.533365 -147.334361 
L 635.953437 -156.655743 
L 631.373509 -109.465866 
L 626.79358 -164.544995 
L 622.213652 -184.548949 
L 617.633723 -167.657801 
L 613.053795 -313.761776 
L 608.473867 -127.172111 
L 603.893938 -126.227078 
L 599.31401 -100.337832 
L 594.734082 -139.557661 
L 590.154153 -155.616286 
L 585.574225 -126.591116 
L 580.994297 -154.473007 
L 576.414368 -130.558171 
L 571.83444 -146.957731 
L 567.254511 -90.569972 
L 562.674583 -120.761129 
L 558.094655 -114.263086 
L 553.514726 -121.214401 
L 548.934798 -118.815208 
L 544.35487 -129.371356 
L 539.774941 -111.580498 
L 535.195013 -89.996052 
L 530.615085 -139.250048 
L 526.035156 -130.828675 
L 521.455228 -102.469181 
L 516.8753 -131.539439 
L 512.295371 -89.339736 
L 507.715443 -107.423519 
L 503.135514 -89.731984 
L 498.555586 -116.006425 
L 493.975658 -118.432884 
L 489.395729 -137.637412 
L 484.815801 -115.661264 
L 480.235873 -142.757595 
L 475.655944 -105.71154 
L 471.076016 -87.509148 
L 466.496088 -103.379465 
L 461.916159 -123.637172 
L 457.336231 -178.352259 
L 452.756302 -106.589389 
L 448.176374 -98.258089 
L 443.596446 -91.729425 
L 439.016517 -85.774791 
L 434.436589 -109.342769 
L 429.856661 -133.838446 
L 425.276732 -119.497063 
L 420.696804 -101.21782 
L 416.116876 -111.611135 
L 411.536947 -93.169867 
L 406.957019 -84.03194 
L 402.377091 -114.937756 
L 397.797162 -139.555384 
L 393.217234 -123.208681 
L 388.637305 -109.36928 
L 384.057377 -106.295239 
L 379.477449 -109.391551 
L 374.89752 -85.239006 
L 370.317592 -105.511747 
L 365.737664 -154.959261 
L 361.157735 -106.188472 
L 356.577807 -112.797336 
L 351.997879 -114.073545 
L 347.41795 -122.238911 
L 342.838022 -86.265949 
L 338.258094 -108.491409 
L 333.678165 -131.436411 
L 329.098237 -121.735938 
L 324.518308 -127.950655 
L 319.93838 -111.684111 
L 315.358452 -106.711473 
L 310.778523 -87.006808 
L 306.198595 -102.606984 
L 301.618667 -117.106903 
L 297.038738 -109.048788 
L 292.45881 -118.498728 
L 287.878882 -111.698914 
L 283.298953 -96.903107 
L 278.719025 -88.900496 
L 274.139096 -114.753085 
L 269.559168 -126.986367 
L 264.97924 -117.256734 
L 260.399311 -136.990002 
L 255.819383 -117.913319 
L 251.239455 -98.61839 
L 246.659526 -91.828908 
L 242.079598 -103.289796 
L 237.49967 -175.767935 
L 232.919741 -108.525729 
L 228.339813 -116.970951 
L 223.759885 -105.084006 
L 219.179956 -96.643598 
L 214.600028 -90.031095 
L 210.020099 -114.145222 
L 205.440171 -119.823203 
L 200.860243 -101.218381 
L 196.280314 -106.271808 
L 191.700386 -116.555944 
L 187.120458 -109.340297 
L 182.540529 -85.816218 
L 177.960601 -114.262078 
L 173.380673 -143.386291 
L 168.800744 -109.551107 
L 164.220816 -125.746034 
L 159.640887 -100.04668 
L 155.060959 -109.016603 
L 150.481031 -88.116863 
L 145.901102 -110.799882 
L 141.321174 -118.850699 
L 136.741246 -111.618848 
L 132.161317 -130.250037 
L 127.581389 -145.609174 
L 123.001461 -128.63668 
L 118.421532 -129.834984 
L 113.841604 -106.963235 
L 109.261676 -123.43269 
L 104.681747 -126.973375 
z
" style="stroke: #ff7f0e; stroke-opacity: 0.16"/>
    </defs>
    <g clip-path="url(#p6e216daacd)">
     <use xlink:href="#m1f89900252" x="0" y="348.651094" style="fill: #ff7f0e; fill-opacity: 0.16; stroke: #ff7f0e; stroke-opacity: 0.16"/>
    </g>
   </g>
   <g id="FillBetweenPolyCollection_2">
    <defs>
     <path id="m606c5b0d0b" d="M 104.681747 -118.883672 
L 104.681747 -54.687912 
L 109.261676 -54.687912 
L 113.841604 -54.687912 
L 118.421532 -54.687912 
L 123.001461 -54.687912 
L 127.581389 -54.687912 
L 132.161317 -54.687912 
L 136.741246 -59.796027 
L 141.321174 -61.223601 
L 145.901102 -54.687912 
L 150.481031 -54.687912 
L 155.060959 -54.687912 
L 159.640887 -54.98692 
L 164.220816 -54.687912 
L 168.800744 -54.687912 
L 173.380673 -58.780498 
L 177.960601 -54.687912 
L 182.540529 -54.687912 
L 187.120458 -54.687912 
L 191.700386 -54.687912 
L 196.280314 -54.687912 
L 200.860243 -56.866492 
L 205.440171 -57.998637 
L 210.020099 -54.687912 
L 214.600028 -54.687912 
L 219.179956 -54.687912 
L 223.759885 -54.687912 
L 228.339813 -54.687912 
L 232.919741 -54.687912 
L 237.49967 -54.687912 
L 242.079598 -54.687912 
L 246.659526 -54.687912 
L 251.239455 -54.687912 
L 255.819383 -54.687912 
L 260.399311 -54.687912 
L 264.97924 -54.687912 
L 269.559168 -54.687912 
L 274.139096 -54.687912 
L 278.719025 -54.687912 
L 283.298953 -54.687912 
L 287.878882 -54.687912 
L 292.45881 -54.687912 
L 297.038738 -54.687912 
L 301.618667 -54.687912 
L 306.198595 -54.687912 
L 310.778523 -54.687912 
L 315.358452 -54.687912 
L 319.93838 -54.687912 
L 324.518308 -54.687912 
L 329.098237 -54.687912 
L 333.678165 -54.687912 
L 338.258094 -54.687912 
L 342.838022 -54.687912 
L 347.41795 -54.687912 
L 351.997879 -54.687912 
L 356.577807 -54.687912 
L 361.157735 -54.687912 
L 365.737664 -55.356209 
L 370.317592 -54.687912 
L 374.89752 -54.687912 
L 379.477449 -54.687912 
L 384.057377 -54.687912 
L 388.637305 -54.687912 
L 393.217234 -54.687912 
L 397.797162 -55.217115 
L 402.377091 -54.687912 
L 406.957019 -54.687912 
L 411.536947 -54.687912 
L 416.116876 -54.687912 
L 420.696804 -54.687912 
L 425.276732 -54.687912 
L 429.856661 -54.687912 
L 434.436589 -54.687912 
L 439.016517 -54.687912 
L 443.596446 -54.687912 
L 448.176374 -54.687912 
L 452.756302 -54.687912 
L 457.336231 -55.256198 
L 461.916159 -54.687912 
L 466.496088 -54.687912 
L 471.076016 -54.687912 
L 475.655944 -54.687912 
L 480.235873 -54.687912 
L 484.815801 -54.687912 
L 489.395729 -54.687912 
L 493.975658 -54.687912 
L 498.555586 -54.687912 
L 503.135514 -54.687912 
L 507.715443 -54.687912 
L 512.295371 -54.687912 
L 516.8753 -54.687912 
L 521.455228 -54.687912 
L 526.035156 -54.687912 
L 530.615085 -54.687912 
L 535.195013 -54.687912 
L 539.774941 -54.687912 
L 544.35487 -59.622458 
L 548.934798 -59.41572 
L 553.514726 -54.687912 
L 558.094655 -56.669157 
L 562.674583 -54.687912 
L 567.254511 -54.687912 
L 571.83444 -54.687912 
L 576.414368 -54.687912 
L 580.994297 -61.570869 
L 585.574225 -55.797983 
L 590.154153 -57.837473 
L 594.734082 -57.660196 
L 599.31401 -54.687912 
L 603.893938 -54.687912 
L 608.473867 -56.38212 
L 613.053795 -64.082823 
L 617.633723 -54.687912 
L 622.213652 -59.55274 
L 626.79358 -54.687912 
L 631.373509 -54.687912 
L 635.953437 -54.687912 
L 640.533365 -54.687912 
L 645.113294 -66.610194 
L 649.693222 -56.953728 
L 654.27315 -61.463921 
L 658.853079 -61.382394 
L 663.433007 -54.687912 
L 668.012935 -54.687912 
L 672.592864 -55.685998 
L 677.172792 -58.15814 
L 681.75272 -54.687912 
L 686.332649 -55.800511 
L 690.912577 -54.687912 
L 695.492506 -54.687912 
L 700.072434 -54.687912 
L 704.652362 -54.873078 
L 709.232291 -55.186777 
L 713.812219 -54.687912 
L 718.392147 -54.687912 
L 722.972076 -54.687912 
L 727.552004 -54.687912 
L 732.131932 -54.687912 
L 736.711861 -54.687912 
L 741.291789 -54.687912 
L 745.871718 -54.687912 
L 750.451646 -54.687912 
L 755.031574 -54.687912 
L 759.611503 -54.687912 
L 764.191431 -54.687912 
L 768.771359 -56.431317 
L 773.351288 -56.00779 
L 777.931216 -59.558635 
L 782.511144 -60.24842 
L 787.091073 -63.115069 
L 791.671001 -54.687912 
L 796.250929 -54.687912 
L 800.830858 -93.256764 
L 805.410786 -81.564069 
L 809.990715 -68.800251 
L 814.570643 -71.263736 
L 819.150571 -67.276703 
L 823.7305 -54.687912 
L 828.310428 -54.687912 
L 832.890356 -84.611424 
L 837.470285 -79.516779 
L 842.050213 -75.066096 
L 846.630141 -73.394103 
L 851.21007 -67.971848 
L 855.789998 -54.687912 
L 860.369927 -54.687912 
L 864.949855 -69.720055 
L 869.529783 -69.028451 
L 874.109712 -69.147568 
L 878.68964 -70.984638 
L 883.269568 -63.174815 
L 887.849497 -54.687912 
L 892.429425 -54.687912 
L 897.009353 -59.815694 
L 901.589282 -74.75529 
L 906.16921 -74.955418 
L 910.749138 -94.882733 
L 915.329067 -88.821845 
L 919.908995 -54.687912 
L 924.488924 -65.838123 
L 929.068852 -101.850111 
L 933.64878 -94.71499 
L 938.228709 -76.277345 
L 942.808637 -82.853012 
L 947.388565 -66.19075 
L 947.388565 -145.698004 
L 947.388565 -145.698004 
L 942.808637 -162.451575 
L 938.228709 -156.09549 
L 933.64878 -174.543724 
L 929.068852 -181.259237 
L 924.488924 -145.122634 
L 919.908995 -94.400429 
L 915.329067 -168.22997 
L 910.749138 -174.201072 
L 906.16921 -154.477567 
L 901.589282 -153.96818 
L 897.009353 -139.039799 
L 892.429425 -122.253854 
L 887.849497 -94.468603 
L 883.269568 -142.914166 
L 878.68964 -150.876828 
L 874.109712 -148.73208 
L 869.529783 -148.823416 
L 864.949855 -149.732856 
L 860.369927 -133.645137 
L 855.789998 -94.884987 
L 851.21007 -148.613663 
L 846.630141 -154.208878 
L 842.050213 -156.10466 
L 837.470285 -160.767706 
L 832.890356 -160.758209 
L 828.310428 -127.813182 
L 823.7305 -92.95507 
L 819.150571 -143.919258 
L 814.570643 -147.727528 
L 809.990715 -145.028946 
L 805.410786 -157.958714 
L 800.830858 -169.027408 
L 796.250929 -125.930486 
L 791.671001 -92.767367 
L 787.091073 -139.375412 
L 782.511144 -136.338992 
L 777.931216 -135.840807 
L 773.351288 -132.467009 
L 768.771359 -131.907586 
L 764.191431 -118.015753 
L 759.611503 -92.598917 
L 755.031574 -122.6846 
L 750.451646 -122.58822 
L 745.871718 -127.789304 
L 741.291789 -126.031916 
L 736.711861 -125.435085 
L 732.131932 -114.799645 
L 727.552004 -93.119808 
L 722.972076 -118.86136 
L 718.392147 -126.59586 
L 713.812219 -127.643782 
L 709.232291 -132.917102 
L 704.652362 -132.850863 
L 700.072434 -113.568339 
L 695.492506 -93.934794 
L 690.912577 -127.854907 
L 686.332649 -134.864504 
L 681.75272 -132.967511 
L 677.172792 -137.744662 
L 672.592864 -135.589804 
L 668.012935 -119.768109 
L 663.433007 -94.859826 
L 658.853079 -142.058025 
L 654.27315 -142.347743 
L 649.693222 -138.173699 
L 645.113294 -148.171125 
L 640.533365 -133.634134 
L 635.953437 -121.658962 
L 631.373509 -95.395664 
L 626.79358 -132.179729 
L 622.213652 -141.233874 
L 617.633723 -136.258158 
L 613.053795 -146.192402 
L 608.473867 -138.658545 
L 603.893938 -128.774732 
L 599.31401 -96.151316 
L 594.734082 -140.976871 
L 590.154153 -141.232102 
L 585.574225 -139.579393 
L 580.994297 -113.768195 
L 576.414368 -104.324926 
L 571.83444 -103.324323 
L 567.254511 -81.070819 
L 562.674583 -107.440105 
L 558.094655 -109.500668 
L 553.514726 -107.115435 
L 548.934798 -111.813836 
L 544.35487 -112.295418 
L 539.774941 -99.825287 
L 535.195013 -80.608378 
L 530.615085 -101.591412 
L 526.035156 -102.428383 
L 521.455228 -106.85748 
L 516.8753 -102.650373 
L 512.295371 -102.24443 
L 507.715443 -96.519125 
L 503.135514 -81.45246 
L 498.555586 -104.52817 
L 493.975658 -100.528266 
L 489.395729 -103.850882 
L 484.815801 -106.831147 
L 480.235873 -81.433314 
L 475.655944 -97.110417 
L 471.076016 -81.661585 
L 466.496088 -97.993275 
L 461.916159 -104.786441 
L 457.336231 -109.98281 
L 452.756302 -104.314725 
L 448.176374 -102.293483 
L 443.596446 -95.486844 
L 439.016517 -82.02651 
L 434.436589 -95.722517 
L 429.856661 -105.46079 
L 425.276732 -102.588908 
L 420.696804 -95.231204 
L 416.116876 -92.394813 
L 411.536947 -89.273242 
L 406.957019 -79.087024 
L 402.377091 -95.973548 
L 397.797162 -104.256664 
L 393.217234 -100.036843 
L 388.637305 -96.399594 
L 384.057377 -100.363375 
L 379.477449 -90.347451 
L 374.89752 -79.891133 
L 370.317592 -101.073016 
L 365.737664 -105.432569 
L 361.157735 -101.184 
L 356.577807 -99.619546 
L 351.997879 -97.899349 
L 347.41795 -97.516837 
L 342.838022 -80.665302 
L 338.258094 -99.005689 
L 333.678165 -98.041698 
L 329.098237 -96.689417 
L 324.518308 -102.161209 
L 319.93838 -101.864598 
L 315.358452 -94.60574 
L 310.778523 -79.209043 
L 306.198595 -97.368615 
L 301.618667 -100.936342 
L 297.038738 -99.352802 
L 292.45881 -97.361008 
L 287.878882 -98.542579 
L 283.298953 -93.846054 
L 278.719025 -80.10486 
L 274.139096 -96.794676 
L 269.559168 -100.692344 
L 264.97924 -100.116055 
L 260.399311 -101.963033 
L 255.819383 -100.572201 
L 251.239455 -92.555676 
L 246.659526 -82.317526 
L 242.079598 -101.258944 
L 237.49967 -110.922319 
L 232.919741 -106.915046 
L 228.339813 -108.130233 
L 223.759885 -106.139824 
L 219.179956 -95.516362 
L 214.600028 -85.081167 
L 210.020099 -102.379149 
L 205.440171 -94.214022 
L 200.860243 -93.560011 
L 196.280314 -89.562723 
L 191.700386 -90.955223 
L 187.120458 -84.458897 
L 182.540529 -73.656614 
L 177.960601 -91.263377 
L 173.380673 -99.062744 
L 168.800744 -91.106352 
L 164.220816 -96.623153 
L 159.640887 -98.86231 
L 155.060959 -93.039153 
L 150.481031 -78.298106 
L 145.901102 -95.246219 
L 141.321174 -89.208761 
L 136.741246 -89.88282 
L 132.161317 -115.795296 
L 127.581389 -111.695679 
L 123.001461 -108.33865 
L 118.421532 -94.390713 
L 113.841604 -110.974383 
L 109.261676 -118.132422 
L 104.681747 -118.883672 
z
" style="stroke: #2ca02c; stroke-opacity: 0.16"/>
    </defs>
    <g clip-path="url(#p6e216daacd)">
     <use xlink:href="#m606c5b0d0b" x="0" y="348.651094" style="fill: #2ca02c; fill-opacity: 0.16; stroke: #2ca02c; stroke-opacity: 0.16"/>
    </g>
   </g>
   <g id="line2d_17">
    <path d="M 104.681747 270.676379 
L 109.261676 263.203646 
L 113.841604 273.273834 
L 118.421532 293.963182 
L 123.001461 271.468909 
L 127.581389 278.985404 
L 132.161317 252.762497 
L 136.741246 270.623996 
L 141.321174 236.045866 
L 145.901102 266.453459 
L 150.481031 293.963182 
L 155.060959 269.511835 
L 159.640887 262.521148 
L 164.220816 272.691167 
L 168.800744 277.200353 
L 173.380673 257.931939 
L 177.960601 270.145832 
L 182.540529 293.963182 
L 187.120458 286.610483 
L 191.700386 277.474313 
L 196.280314 265.123078 
L 200.860243 273.50232 
L 205.440171 205.70066 
L 210.020099 282.811303 
L 214.600028 293.963182 
L 219.179956 286.571393 
L 228.339813 247.111273 
L 232.919741 266.769734 
L 237.49967 256.58708 
L 242.079598 268.425208 
L 246.659526 293.963182 
L 251.239455 285.507536 
L 255.819383 270.479612 
L 260.399311 263.261689 
L 264.97924 272.472617 
L 269.559168 264.277901 
L 274.139096 278.693347 
L 278.719025 293.963182 
L 283.298953 273.898947 
L 287.878882 268.87231 
L 292.45881 252.268343 
L 297.038738 258.470514 
L 301.618667 248.750822 
L 306.198595 272.040915 
L 310.778523 293.963182 
L 315.358452 257.686737 
L 319.93838 265.749902 
L 324.518308 266.805402 
L 329.098237 273.144126 
L 333.678165 224.419509 
L 338.258094 273.852289 
L 342.838022 293.963182 
L 347.41795 269.551517 
L 351.997879 272.66004 
L 356.577807 269.374427 
L 361.157735 255.352384 
L 365.737664 238.777372 
L 370.317592 263.225231 
L 374.89752 293.963182 
L 379.477449 284.602211 
L 384.057377 265.954895 
L 388.637305 276.366562 
L 393.217234 257.881727 
L 397.797162 246.137771 
L 402.377091 270.553712 
L 406.957019 293.963182 
L 411.536947 287.795165 
L 416.116876 281.170833 
L 420.696804 274.068206 
L 425.276732 202.116739 
L 429.856661 258.138445 
L 434.436589 278.228938 
L 439.016517 293.963182 
L 443.596446 275.555474 
L 448.176374 238.308686 
L 452.756302 267.417946 
L 457.336231 245.38058 
L 461.916159 265.243441 
L 466.496088 267.560223 
L 471.076016 293.963182 
L 475.655944 276.069701 
L 480.235873 293.963182 
L 484.815801 252.488011 
L 489.395729 281.470129 
L 493.975658 253.099502 
L 498.555586 244.671298 
L 503.135514 293.963182 
L 507.715443 272.190497 
L 512.295371 254.887119 
L 516.8753 265.257327 
L 521.455228 263.326774 
L 526.035156 270.111415 
L 530.615085 263.921023 
L 535.195013 293.963182 
L 539.774941 237.398359 
L 544.35487 254.150592 
L 548.934798 230.157535 
L 553.514726 267.842673 
L 558.094655 238.935312 
L 562.674583 254.891528 
L 567.254511 293.963182 
L 571.83444 267.865377 
L 576.414368 266.842649 
L 580.994297 80.069802 
L 585.574225 236.35714 
L 590.154153 219.220652 
L 594.734082 239.06252 
L 599.31401 293.963182 
L 603.893938 246.535319 
L 608.473867 255.966112 
L 613.053795 251.270623 
L 617.633723 237.570119 
L 622.213652 234.066418 
L 626.79358 223.28833 
L 631.373509 293.963182 
L 635.953437 278.865962 
L 640.533365 215.328681 
L 645.113294 227.85477 
L 649.693222 237.545243 
L 654.27315 223.071163 
L 658.853079 237.672056 
L 663.433007 293.963182 
L 668.012935 270.662691 
L 672.592864 239.577339 
L 677.172792 236.828656 
L 681.75272 256.193217 
L 686.332649 250.704803 
L 690.912577 250.045074 
L 695.492506 293.963182 
L 700.072434 261.091396 
L 704.652362 252.441879 
L 709.232291 235.926029 
L 713.812219 255.871809 
L 718.392147 246.294789 
L 722.972076 241.198592 
L 727.552004 293.963182 
L 732.131932 276.84999 
L 741.291789 222.301337 
L 745.871718 252.328228 
L 750.451646 244.396482 
L 755.031574 252.568823 
L 759.611503 293.963182 
L 764.191431 245.768059 
L 768.771359 201.398177 
L 773.351288 254.526358 
L 777.931216 229.984985 
L 782.511144 214.224878 
L 787.091073 221.038409 
L 791.671001 293.963182 
L 796.250929 242.509823 
L 800.830858 169.885795 
L 805.410786 206.047667 
L 809.990715 202.901766 
L 814.570643 201.691485 
L 819.150571 216.456439 
L 823.7305 293.963182 
L 828.310428 250.34233 
L 832.890356 120.533104 
L 837.470285 224.4432 
L 842.050213 213.673273 
L 846.630141 233.818978 
L 851.21007 227.557579 
L 855.789998 293.963182 
L 860.369927 248.348996 
L 864.949855 232.994795 
L 869.529783 220.365387 
L 874.109712 196.498353 
L 878.68964 237.377893 
L 883.269568 223.137432 
L 887.849497 293.963182 
L 892.429425 262.035022 
L 897.009353 217.086751 
L 901.589282 190.664379 
L 906.16921 227.837133 
L 910.749138 225.482445 
L 915.329067 228.702052 
L 919.908995 293.963182 
L 924.488924 256.226516 
L 929.068852 160.299035 
L 933.64878 221.593831 
L 938.228709 220.234297 
L 942.808637 198.244182 
L 947.388565 255.513154 
L 947.388565 255.513154 
" clip-path="url(#p6e216daacd)" style="fill: none; stroke: #1f77b4; stroke-width: 2.2; stroke-linecap: round"/>
   </g>
   <g id="line2d_18">
    <path d="M 104.681747 273.953042 
L 109.261676 277.493727 
L 113.841604 293.963182 
L 118.421532 271.091432 
L 123.001461 272.289736 
L 127.581389 255.317242 
L 132.161317 270.676379 
L 136.741246 273.104312 
L 141.321174 263.203646 
L 145.901102 273.273834 
L 150.481031 293.963182 
L 155.060959 271.468909 
L 159.640887 278.985404 
L 164.220816 252.762497 
L 168.800744 270.623996 
L 173.380673 236.045866 
L 177.960601 266.453459 
L 182.540529 293.963182 
L 187.120458 269.511835 
L 191.700386 262.521148 
L 196.280314 272.691167 
L 200.860243 277.200353 
L 205.440171 257.931939 
L 210.020099 270.145832 
L 214.600028 293.963182 
L 219.179956 286.610483 
L 223.759885 277.474313 
L 228.339813 265.123078 
L 232.919741 273.50232 
L 237.49967 205.70066 
L 242.079598 282.811303 
L 246.659526 293.963182 
L 251.239455 286.571393 
L 260.399311 247.111273 
L 264.97924 266.769734 
L 269.559168 256.58708 
L 274.139096 268.425208 
L 278.719025 293.963182 
L 283.298953 285.507536 
L 287.878882 270.479612 
L 292.45881 263.261689 
L 297.038738 272.472617 
L 301.618667 264.277901 
L 306.198595 278.693347 
L 310.778523 293.963182 
L 315.358452 273.898947 
L 319.93838 268.87231 
L 324.518308 252.268343 
L 329.098237 258.470514 
L 333.678165 248.750822 
L 338.258094 272.040915 
L 342.838022 293.963182 
L 347.41795 257.686737 
L 351.997879 265.749902 
L 356.577807 266.805402 
L 361.157735 273.144126 
L 365.737664 224.419509 
L 370.317592 273.852289 
L 374.89752 293.963182 
L 379.477449 269.551517 
L 384.057377 272.66004 
L 388.637305 269.374427 
L 393.217234 255.352384 
L 397.797162 238.777372 
L 402.377091 263.225231 
L 406.957019 293.963182 
L 411.536947 284.602211 
L 416.116876 265.954895 
L 420.696804 276.366562 
L 425.276732 257.881727 
L 429.856661 246.137771 
L 434.436589 270.553712 
L 439.016517 293.963182 
L 443.596446 287.795165 
L 448.176374 281.170833 
L 452.756302 274.068206 
L 457.336231 202.116739 
L 461.916159 258.138445 
L 466.496088 278.228938 
L 471.076016 293.963182 
L 475.655944 275.555474 
L 480.235873 238.308686 
L 484.815801 267.417946 
L 489.395729 245.38058 
L 493.975658 265.243441 
L 498.555586 267.560223 
L 503.135514 293.963182 
L 507.715443 276.069701 
L 512.295371 293.963182 
L 516.8753 252.488011 
L 521.455228 281.470129 
L 526.035156 253.099502 
L 530.615085 244.671298 
L 535.195013 293.963182 
L 539.774941 272.190497 
L 544.35487 254.887119 
L 548.934798 265.257327 
L 553.514726 263.326774 
L 558.094655 270.111415 
L 562.674583 263.921023 
L 567.254511 293.963182 
L 571.83444 237.398359 
L 576.414368 254.150592 
L 580.994297 230.157535 
L 585.574225 267.842673 
L 590.154153 238.935312 
L 594.734082 254.891528 
L 599.31401 293.963182 
L 603.893938 267.865377 
L 608.473867 266.842649 
L 613.053795 80.069802 
L 617.633723 236.35714 
L 622.213652 219.220652 
L 626.79358 239.06252 
L 631.373509 293.963182 
L 635.953437 246.535319 
L 640.533365 255.966112 
L 645.113294 251.270623 
L 649.693222 237.570119 
L 654.27315 234.066418 
L 658.853079 223.28833 
L 663.433007 293.963182 
L 668.012935 278.865962 
L 672.592864 215.328681 
L 677.172792 227.85477 
L 681.75272 237.545243 
L 686.332649 223.071163 
L 690.912577 237.672056 
L 695.492506 293.963182 
L 700.072434 270.662691 
L 704.652362 239.577339 
L 709.232291 236.828656 
L 713.812219 256.193217 
L 718.392147 250.704803 
L 722.972076 250.045074 
L 727.552004 293.963182 
L 732.131932 261.091396 
L 736.711861 252.441879 
L 741.291789 235.926029 
L 745.871718 255.871809 
L 750.451646 246.294789 
L 755.031574 241.198592 
L 759.611503 293.963182 
L 764.191431 276.84999 
L 773.351288 222.301337 
L 777.931216 252.328228 
L 782.511144 244.396482 
L 787.091073 252.568823 
L 791.671001 293.963182 
L 796.250929 245.768059 
L 800.830858 201.398177 
L 805.410786 254.526358 
L 809.990715 229.984985 
L 814.570643 214.224878 
L 819.150571 221.038409 
L 823.7305 293.963182 
L 828.310428 242.509823 
L 832.890356 169.885795 
L 837.470285 206.047667 
L 842.050213 202.901766 
L 846.630141 201.691485 
L 851.21007 216.456439 
L 855.789998 293.963182 
L 860.369927 250.34233 
L 864.949855 120.533104 
L 869.529783 224.4432 
L 874.109712 213.673273 
L 878.68964 233.818978 
L 883.269568 227.557579 
L 887.849497 293.963182 
L 892.429425 248.348996 
L 897.009353 232.994795 
L 901.589282 220.365387 
L 906.16921 196.498353 
L 910.749138 237.377893 
L 915.329067 223.137432 
L 919.908995 293.963182 
L 924.488924 262.035022 
L 929.068852 217.086751 
L 933.64878 190.664379 
L 938.228709 227.837133 
L 942.808637 225.482445 
L 947.388565 228.702052 
L 947.388565 228.702052 
" clip-path="url(#p6e216daacd)" style="fill: none; stroke: #ff7f0e; stroke-width: 1.8; stroke-linecap: round"/>
   </g>
   <g id="line2d_19">
    <path d="M 104.681747 269.470223 
L 109.261676 270.221473 
L 113.841604 277.379512 
L 118.421532 293.963182 
L 123.001461 280.015245 
L 127.581389 276.658215 
L 132.161317 272.558599 
L 136.741246 273.811671 
L 141.321174 273.434913 
L 145.901102 278.347716 
L 150.481031 293.963182 
L 155.060959 278.611737 
L 159.640887 271.726479 
L 164.220816 273.039889 
L 168.800744 278.147922 
L 173.380673 269.729473 
L 177.960601 276.975846 
L 182.540529 293.963182 
L 187.120458 282.913535 
L 191.700386 276.518853 
L 196.280314 277.69613 
L 200.860243 273.437842 
L 205.440171 272.544764 
L 210.020099 276.751753 
L 214.600028 293.963182 
L 223.759885 272.151816 
L 228.339813 269.594873 
L 232.919741 270.815319 
L 237.49967 266.317538 
L 242.079598 275.492934 
L 246.659526 293.963182 
L 251.239455 283.408378 
L 255.819383 275.161168 
L 260.399311 273.370547 
L 264.97924 274.840471 
L 269.559168 273.934374 
L 274.139096 277.481973 
L 278.719025 293.963182 
L 283.298953 279.979959 
L 287.878882 274.959501 
L 292.45881 275.829316 
L 301.618667 272.314782 
L 306.198595 276.063235 
L 310.778523 293.963182 
L 315.358452 278.392316 
L 319.93838 271.163497 
L 324.518308 270.615121 
L 329.098237 275.858984 
L 333.678165 274.300481 
L 338.258094 275.822907 
L 342.838022 293.963182 
L 347.41795 276.955666 
L 351.997879 276.329003 
L 356.577807 274.397346 
L 361.157735 272.613111 
L 365.737664 268.256704 
L 370.317592 272.999146 
L 374.89752 293.963182 
L 379.477449 283.384224 
L 384.057377 273.273677 
L 388.637305 277.03273 
L 393.217234 273.264449 
L 397.797162 268.914204 
L 402.377091 277.263164 
L 406.957019 293.963182 
L 411.536947 283.674004 
L 416.116876 280.548598 
L 420.696804 277.619645 
L 425.276732 270.107797 
L 429.856661 270.85871 
L 434.436589 280.417048 
L 439.016517 293.963182 
L 443.596446 280.386831 
L 448.176374 273.408792 
L 452.756302 271.863607 
L 457.336231 266.03159 
L 461.916159 271.176572 
L 466.496088 277.802273 
L 471.076016 293.963182 
L 475.655944 278.41573 
L 480.235873 293.963182 
L 484.815801 268.468237 
L 489.395729 271.333983 
L 493.975658 274.801248 
L 498.555586 270.790243 
L 503.135514 293.963182 
L 507.715443 278.806531 
L 512.295371 272.932962 
L 516.8753 272.447657 
L 521.455228 268.095387 
L 526.035156 272.392656 
L 530.615085 273.120445 
L 535.195013 293.963182 
L 539.774941 274.667452 
L 544.35487 262.692156 
L 548.934798 263.036316 
L 553.514726 268.027732 
L 558.094655 265.566181 
L 562.674583 267.717502 
L 567.254511 293.963182 
L 571.83444 271.640417 
L 576.414368 270.531358 
L 580.994297 260.981562 
L 585.574225 250.962406 
L 590.154153 249.116307 
L 594.734082 249.33256 
L 599.31401 293.963182 
L 603.893938 261.198317 
L 608.473867 251.130761 
L 613.053795 243.513481 
L 617.633723 253.405403 
L 622.213652 248.257786 
L 626.79358 257.136157 
L 631.373509 293.963182 
L 635.953437 267.57045 
L 640.533365 255.61686 
L 645.113294 241.260434 
L 649.693222 251.08738 
L 654.27315 246.745262 
L 658.853079 246.930884 
L 663.433007 293.963182 
L 668.012935 268.936634 
L 672.592864 253.013193 
L 677.172792 250.699693 
L 681.75272 255.321041 
L 686.332649 253.318586 
L 690.912577 260.197189 
L 695.492506 293.963182 
L 704.652362 254.789123 
L 709.232291 254.599154 
L 713.812219 259.749797 
L 718.392147 260.668455 
L 722.972076 268.264081 
L 727.552004 293.963182 
L 732.131932 272.183503 
L 736.711861 261.492734 
L 741.291789 260.757836 
L 745.871718 259.144174 
L 750.451646 264.213672 
L 755.031574 264.01152 
L 759.611503 293.963182 
L 764.191431 268.454265 
L 768.771359 254.481642 
L 773.351288 254.413694 
L 777.931216 250.951373 
L 782.511144 250.357387 
L 787.091073 247.405853 
L 791.671001 293.963182 
L 796.250929 260.715692 
L 800.830858 217.509008 
L 805.410786 228.889702 
L 809.990715 241.736495 
L 814.570643 239.155462 
L 819.150571 243.053113 
L 823.7305 293.963182 
L 828.310428 259.028995 
L 832.890356 225.966277 
L 837.470285 228.508851 
L 842.050213 233.065716 
L 846.630141 234.849603 
L 851.21007 240.358338 
L 855.789998 293.963182 
L 860.369927 255.125125 
L 864.949855 238.924638 
L 869.529783 239.72516 
L 874.109712 239.71127 
L 878.68964 237.72036 
L 883.269568 245.606603 
L 887.849497 293.963182 
L 892.429425 266.105351 
L 897.009353 249.223347 
L 901.589282 234.289359 
L 906.16921 233.934602 
L 910.749138 214.109191 
L 915.329067 220.125186 
L 919.908995 293.963182 
L 924.488924 243.170715 
L 929.068852 207.09642 
L 933.64878 214.021737 
L 938.228709 232.464676 
L 942.808637 225.998801 
L 947.388565 242.706717 
L 947.388565 242.706717 
" clip-path="url(#p6e216daacd)" style="fill: none; stroke: #2ca02c; stroke-width: 1.8; stroke-linecap: round"/>
   </g>
   <g id="patch_3">
    <path d="M 62.546406 306.916875 
L 62.546406 21.935625 
" style="fill: none; stroke: #cccccc; stroke-width: 1.25; stroke-linejoin: miter; stroke-linecap: square"/>
   </g>
   <g id="patch_4">
    <path d="M 989.523906 306.916875 
L 989.523906 21.935625 
" style="fill: none; stroke: #cccccc; stroke-width: 1.25; stroke-linejoin: miter; stroke-linecap: square"/>
   </g>
   <g id="patch_5">
    <path d="M 62.546406 306.916875 
L 989.523906 306.916875 
" style="fill: none; stroke: #cccccc; stroke-width: 1.25; stroke-linejoin: miter; stroke-linecap: square"/>
   </g>
   <g id="patch_6">
    <path d="M 62.546406 21.935625 
L 989.523906 21.935625 
" style="fill: none; stroke: #cccccc; stroke-width: 1.25; stroke-linejoin: miter; stroke-linecap: square"/>
   </g>
   <g id="text_19">
    <!-- C1 Test Daily Aggregate: Actual vs Prediction with 95% Intervals -->
    <g style="fill: #262626" transform="translate(342.885156 15.935625) scale(0.12 -0.12)">
     <defs>
      <path id="Arial-BoldMT-43" d="M 3397 1684 
L 4294 1400 
Q 4088 650 3608 286 
Q 3128 -78 2391 -78 
Q 1478 -78 890 545 
Q 303 1169 303 2250 
Q 303 3394 893 4026 
Q 1484 4659 2447 4659 
Q 3288 4659 3813 4163 
Q 4125 3869 4281 3319 
L 3366 3100 
Q 3284 3456 3026 3662 
Q 2769 3869 2400 3869 
Q 1891 3869 1573 3503 
Q 1256 3138 1256 2319 
Q 1256 1450 1568 1081 
Q 1881 713 2381 713 
Q 2750 713 3015 947 
Q 3281 1181 3397 1684 
z
" transform="scale(0.015625)"/>
      <path id="Arial-BoldMT-31" d="M 2519 0 
L 1641 0 
L 1641 3309 
Q 1159 2859 506 2644 
L 506 3441 
Q 850 3553 1253 3867 
Q 1656 4181 1806 4600 
L 2519 4600 
L 2519 0 
z
" transform="scale(0.015625)"/>
      <path id="Arial-BoldMT-20" transform="scale(0.015625)"/>
      <path id="Arial-BoldMT-54" d="M 1497 0 
L 1497 3806 
L 138 3806 
L 138 4581 
L 3778 4581 
L 3778 3806 
L 2422 3806 
L 2422 0 
L 1497 0 
z
" transform="scale(0.015625)"/>
      <path id="Arial-BoldMT-65" d="M 2381 1056 
L 3256 909 
Q 3088 428 2723 176 
Q 2359 -75 1813 -75 
Q 947 -75 531 491 
Q 203 944 203 1634 
Q 203 2459 634 2926 
Q 1066 3394 1725 3394 
Q 2466 3394 2894 2905 
Q 3322 2416 3303 1406 
L 1103 1406 
Q 1113 1016 1316 798 
Q 1519 581 1822 581 
Q 2028 581 2168 693 
Q 2309 806 2381 1056 
z
M 2431 1944 
Q 2422 2325 2234 2523 
Q 2047 2722 1778 2722 
Q 1491 2722 1303 2513 
Q 1116 2303 1119 1944 
L 2431 1944 
z
" transform="scale(0.015625)"/>
      <path id="Arial-BoldMT-73" d="M 150 947 
L 1031 1081 
Q 1088 825 1259 692 
Q 1431 559 1741 559 
Q 2081 559 2253 684 
Q 2369 772 2369 919 
Q 2369 1019 2306 1084 
Q 2241 1147 2013 1200 
Q 950 1434 666 1628 
Q 272 1897 272 2375 
Q 272 2806 612 3100 
Q 953 3394 1669 3394 
Q 2350 3394 2681 3172 
Q 3013 2950 3138 2516 
L 2309 2363 
Q 2256 2556 2107 2659 
Q 1959 2763 1684 2763 
Q 1338 2763 1188 2666 
Q 1088 2597 1088 2488 
Q 1088 2394 1175 2328 
Q 1294 2241 1995 2081 
Q 2697 1922 2975 1691 
Q 3250 1456 3250 1038 
Q 3250 581 2869 253 
Q 2488 -75 1741 -75 
Q 1063 -75 667 200 
Q 272 475 150 947 
z
" transform="scale(0.015625)"/>
      <path id="Arial-BoldMT-74" d="M 1981 3319 
L 1981 2619 
L 1381 2619 
L 1381 1281 
Q 1381 875 1398 808 
Q 1416 741 1477 697 
Q 1538 653 1625 653 
Q 1747 653 1978 738 
L 2053 56 
Q 1747 -75 1359 -75 
Q 1122 -75 931 4 
Q 741 84 652 211 
Q 563 338 528 553 
Q 500 706 500 1172 
L 500 2619 
L 97 2619 
L 97 3319 
L 500 3319 
L 500 3978 
L 1381 4491 
L 1381 3319 
L 1981 3319 
z
" transform="scale(0.015625)"/>
      <path id="Arial-BoldMT-44" d="M 463 4581 
L 2153 4581 
Q 2725 4581 3025 4494 
Q 3428 4375 3715 4072 
Q 4003 3769 4153 3330 
Q 4303 2891 4303 2247 
Q 4303 1681 4163 1272 
Q 3991 772 3672 463 
Q 3431 228 3022 97 
Q 2716 0 2203 0 
L 463 0 
L 463 4581 
z
M 1388 3806 
L 1388 772 
L 2078 772 
Q 2466 772 2638 816 
Q 2863 872 3011 1006 
Q 3159 1141 3253 1448 
Q 3347 1756 3347 2288 
Q 3347 2819 3253 3103 
Q 3159 3388 2990 3547 
Q 2822 3706 2563 3763 
Q 2369 3806 1803 3806 
L 1388 3806 
z
" transform="scale(0.015625)"/>
      <path id="Arial-BoldMT-61" d="M 1116 2306 
L 319 2450 
Q 453 2931 781 3162 
Q 1109 3394 1756 3394 
Q 2344 3394 2631 3255 
Q 2919 3116 3036 2902 
Q 3153 2688 3153 2116 
L 3144 1091 
Q 3144 653 3186 445 
Q 3228 238 3344 0 
L 2475 0 
Q 2441 88 2391 259 
Q 2369 338 2359 363 
Q 2134 144 1878 34 
Q 1622 -75 1331 -75 
Q 819 -75 523 203 
Q 228 481 228 906 
Q 228 1188 362 1408 
Q 497 1628 739 1745 
Q 981 1863 1438 1950 
Q 2053 2066 2291 2166 
L 2291 2253 
Q 2291 2506 2166 2614 
Q 2041 2722 1694 2722 
Q 1459 2722 1328 2630 
Q 1197 2538 1116 2306 
z
M 2291 1594 
Q 2122 1538 1756 1459 
Q 1391 1381 1278 1306 
Q 1106 1184 1106 997 
Q 1106 813 1243 678 
Q 1381 544 1594 544 
Q 1831 544 2047 700 
Q 2206 819 2256 991 
Q 2291 1103 2291 1419 
L 2291 1594 
z
" transform="scale(0.015625)"/>
      <path id="Arial-BoldMT-69" d="M 459 3769 
L 459 4581 
L 1338 4581 
L 1338 3769 
L 459 3769 
z
M 459 0 
L 459 3319 
L 1338 3319 
L 1338 0 
L 459 0 
z
" transform="scale(0.015625)"/>
      <path id="Arial-BoldMT-6c" d="M 459 0 
L 459 4581 
L 1338 4581 
L 1338 0 
L 459 0 
z
" transform="scale(0.015625)"/>
      <path id="Arial-BoldMT-79" d="M 44 3319 
L 978 3319 
L 1772 963 
L 2547 3319 
L 3456 3319 
L 2284 125 
L 2075 -453 
Q 1959 -744 1854 -897 
Q 1750 -1050 1614 -1145 
Q 1478 -1241 1279 -1294 
Q 1081 -1347 831 -1347 
Q 578 -1347 334 -1294 
L 256 -606 
Q 463 -647 628 -647 
Q 934 -647 1081 -467 
Q 1228 -288 1306 -9 
L 44 3319 
z
" transform="scale(0.015625)"/>
      <path id="Arial-BoldMT-41" d="M 4597 0 
L 3591 0 
L 3191 1041 
L 1359 1041 
L 981 0 
L 0 0 
L 1784 4581 
L 2763 4581 
L 4597 0 
z
M 2894 1813 
L 2263 3513 
L 1644 1813 
L 2894 1813 
z
" transform="scale(0.015625)"/>
      <path id="Arial-BoldMT-67" d="M 378 -219 
L 1381 -341 
Q 1406 -516 1497 -581 
Q 1622 -675 1891 -675 
Q 2234 -675 2406 -572 
Q 2522 -503 2581 -350 
Q 2622 -241 2622 53 
L 2622 538 
Q 2228 0 1628 0 
Q 959 0 569 566 
Q 263 1013 263 1678 
Q 263 2513 664 2953 
Q 1066 3394 1663 3394 
Q 2278 3394 2678 2853 
L 2678 3319 
L 3500 3319 
L 3500 341 
Q 3500 -247 3403 -537 
Q 3306 -828 3131 -993 
Q 2956 -1159 2664 -1253 
Q 2372 -1347 1925 -1347 
Q 1081 -1347 728 -1058 
Q 375 -769 375 -325 
Q 375 -281 378 -219 
z
M 1163 1728 
Q 1163 1200 1367 954 
Q 1572 709 1872 709 
Q 2194 709 2416 961 
Q 2638 1213 2638 1706 
Q 2638 2222 2425 2472 
Q 2213 2722 1888 2722 
Q 1572 2722 1367 2476 
Q 1163 2231 1163 1728 
z
" transform="scale(0.015625)"/>
      <path id="Arial-BoldMT-72" d="M 1300 0 
L 422 0 
L 422 3319 
L 1238 3319 
L 1238 2847 
Q 1447 3181 1614 3287 
Q 1781 3394 1994 3394 
Q 2294 3394 2572 3228 
L 2300 2463 
Q 2078 2606 1888 2606 
Q 1703 2606 1575 2504 
Q 1447 2403 1373 2137 
Q 1300 1872 1300 1025 
L 1300 0 
z
" transform="scale(0.015625)"/>
      <path id="Arial-BoldMT-3a" d="M 628 2441 
L 628 3319 
L 1506 3319 
L 1506 2441 
L 628 2441 
z
M 628 0 
L 628 878 
L 1506 878 
L 1506 0 
L 628 0 
z
" transform="scale(0.015625)"/>
      <path id="Arial-BoldMT-63" d="M 3353 2338 
L 2488 2181 
Q 2444 2441 2289 2572 
Q 2134 2703 1888 2703 
Q 1559 2703 1364 2476 
Q 1169 2250 1169 1719 
Q 1169 1128 1367 884 
Q 1566 641 1900 641 
Q 2150 641 2309 783 
Q 2469 925 2534 1272 
L 3397 1125 
Q 3263 531 2881 228 
Q 2500 -75 1859 -75 
Q 1131 -75 698 384 
Q 266 844 266 1656 
Q 266 2478 700 2936 
Q 1134 3394 1875 3394 
Q 2481 3394 2839 3133 
Q 3197 2872 3353 2338 
z
" transform="scale(0.015625)"/>
      <path id="Arial-BoldMT-75" d="M 2644 0 
L 2644 497 
Q 2463 231 2167 78 
Q 1872 -75 1544 -75 
Q 1209 -75 943 72 
Q 678 219 559 484 
Q 441 750 441 1219 
L 441 3319 
L 1319 3319 
L 1319 1794 
Q 1319 1094 1367 936 
Q 1416 778 1544 686 
Q 1672 594 1869 594 
Q 2094 594 2272 717 
Q 2450 841 2515 1023 
Q 2581 1206 2581 1919 
L 2581 3319 
L 3459 3319 
L 3459 0 
L 2644 0 
z
" transform="scale(0.015625)"/>
      <path id="Arial-BoldMT-76" d="M 1372 0 
L 34 3319 
L 956 3319 
L 1581 1625 
L 1763 1059 
Q 1834 1275 1853 1344 
Q 1897 1484 1947 1625 
L 2578 3319 
L 3481 3319 
L 2163 0 
L 1372 0 
z
" transform="scale(0.015625)"/>
      <path id="Arial-BoldMT-50" d="M 466 0 
L 466 4581 
L 1950 4581 
Q 2794 4581 3050 4513 
Q 3444 4409 3709 4064 
Q 3975 3719 3975 3172 
Q 3975 2750 3822 2462 
Q 3669 2175 3433 2011 
Q 3197 1847 2953 1794 
Q 2622 1728 1994 1728 
L 1391 1728 
L 1391 0 
L 466 0 
z
M 1391 3806 
L 1391 2506 
L 1897 2506 
Q 2444 2506 2628 2578 
Q 2813 2650 2917 2803 
Q 3022 2956 3022 3159 
Q 3022 3409 2875 3571 
Q 2728 3734 2503 3775 
Q 2338 3806 1838 3806 
L 1391 3806 
z
" transform="scale(0.015625)"/>
      <path id="Arial-BoldMT-64" d="M 3503 0 
L 2688 0 
L 2688 488 
Q 2484 203 2207 64 
Q 1931 -75 1650 -75 
Q 1078 -75 670 386 
Q 263 847 263 1672 
Q 263 2516 659 2955 
Q 1056 3394 1663 3394 
Q 2219 3394 2625 2931 
L 2625 4581 
L 3503 4581 
L 3503 0 
z
M 1159 1731 
Q 1159 1200 1306 963 
Q 1519 619 1900 619 
Q 2203 619 2415 876 
Q 2628 1134 2628 1647 
Q 2628 2219 2422 2470 
Q 2216 2722 1894 2722 
Q 1581 2722 1370 2473 
Q 1159 2225 1159 1731 
z
" transform="scale(0.015625)"/>
      <path id="Arial-BoldMT-6f" d="M 256 1706 
Q 256 2144 472 2553 
Q 688 2963 1083 3178 
Q 1478 3394 1966 3394 
Q 2719 3394 3200 2905 
Q 3681 2416 3681 1669 
Q 3681 916 3195 420 
Q 2709 -75 1972 -75 
Q 1516 -75 1102 131 
Q 688 338 472 736 
Q 256 1134 256 1706 
z
M 1156 1659 
Q 1156 1166 1390 903 
Q 1625 641 1969 641 
Q 2313 641 2545 903 
Q 2778 1166 2778 1666 
Q 2778 2153 2545 2415 
Q 2313 2678 1969 2678 
Q 1625 2678 1390 2415 
Q 1156 2153 1156 1659 
z
" transform="scale(0.015625)"/>
      <path id="Arial-BoldMT-6e" d="M 3478 0 
L 2600 0 
L 2600 1694 
Q 2600 2231 2544 2389 
Q 2488 2547 2361 2634 
Q 2234 2722 2056 2722 
Q 1828 2722 1647 2597 
Q 1466 2472 1398 2265 
Q 1331 2059 1331 1503 
L 1331 0 
L 453 0 
L 453 3319 
L 1269 3319 
L 1269 2831 
Q 1703 3394 2363 3394 
Q 2653 3394 2893 3289 
Q 3134 3184 3257 3021 
Q 3381 2859 3429 2653 
Q 3478 2447 3478 2063 
L 3478 0 
z
" transform="scale(0.015625)"/>
      <path id="Arial-BoldMT-77" d="M 1078 0 
L 28 3319 
L 881 3319 
L 1503 1144 
L 2075 3319 
L 2922 3319 
L 3475 1144 
L 4109 3319 
L 4975 3319 
L 3909 0 
L 3066 0 
L 2494 2134 
L 1931 0 
L 1078 0 
z
" transform="scale(0.015625)"/>
      <path id="Arial-BoldMT-68" d="M 1334 4581 
L 1334 2897 
Q 1759 3394 2350 3394 
Q 2653 3394 2897 3281 
Q 3141 3169 3264 2994 
Q 3388 2819 3433 2606 
Q 3478 2394 3478 1947 
L 3478 0 
L 2600 0 
L 2600 1753 
Q 2600 2275 2550 2415 
Q 2500 2556 2373 2639 
Q 2247 2722 2056 2722 
Q 1838 2722 1666 2615 
Q 1494 2509 1414 2295 
Q 1334 2081 1334 1663 
L 1334 0 
L 456 0 
L 456 4581 
L 1334 4581 
z
" transform="scale(0.015625)"/>
      <path id="Arial-BoldMT-39" d="M 291 1059 
L 1141 1153 
Q 1172 894 1303 769 
Q 1434 644 1650 644 
Q 1922 644 2112 894 
Q 2303 1144 2356 1931 
Q 2025 1547 1528 1547 
Q 988 1547 595 1964 
Q 203 2381 203 3050 
Q 203 3747 617 4173 
Q 1031 4600 1672 4600 
Q 2369 4600 2816 4061 
Q 3263 3522 3263 2288 
Q 3263 1031 2797 475 
Q 2331 -81 1584 -81 
Q 1047 -81 715 205 
Q 384 491 291 1059 
z
M 2278 2978 
Q 2278 3403 2083 3637 
Q 1888 3872 1631 3872 
Q 1388 3872 1227 3680 
Q 1066 3488 1066 3050 
Q 1066 2606 1241 2398 
Q 1416 2191 1678 2191 
Q 1931 2191 2104 2391 
Q 2278 2591 2278 2978 
z
" transform="scale(0.015625)"/>
      <path id="Arial-BoldMT-35" d="M 284 1178 
L 1159 1269 
Q 1197 972 1381 798 
Q 1566 625 1806 625 
Q 2081 625 2272 848 
Q 2463 1072 2463 1522 
Q 2463 1944 2273 2155 
Q 2084 2366 1781 2366 
Q 1403 2366 1103 2031 
L 391 2134 
L 841 4519 
L 3163 4519 
L 3163 3697 
L 1506 3697 
L 1369 2919 
Q 1663 3066 1969 3066 
Q 2553 3066 2959 2641 
Q 3366 2216 3366 1538 
Q 3366 972 3038 528 
Q 2591 -78 1797 -78 
Q 1163 -78 763 262 
Q 363 603 284 1178 
z
" transform="scale(0.015625)"/>
      <path id="Arial-BoldMT-25" d="M 278 3450 
Q 278 4066 548 4362 
Q 819 4659 1281 4659 
Q 1759 4659 2029 4364 
Q 2300 4069 2300 3450 
Q 2300 2834 2029 2537 
Q 1759 2241 1297 2241 
Q 819 2241 548 2536 
Q 278 2831 278 3450 
z
M 963 3456 
Q 963 3009 1066 2856 
Q 1144 2744 1281 2744 
Q 1422 2744 1500 2856 
Q 1600 3009 1600 3456 
Q 1600 3903 1500 4053 
Q 1422 4169 1281 4169 
Q 1144 4169 1066 4056 
Q 963 3903 963 3456 
z
M 1950 -175 
L 1300 -175 
L 3741 4659 
L 4372 4659 
L 1950 -175 
z
M 3369 1028 
Q 3369 1644 3639 1941 
Q 3909 2238 4378 2238 
Q 4850 2238 5120 1941 
Q 5391 1644 5391 1028 
Q 5391 409 5120 112 
Q 4850 -184 4388 -184 
Q 3909 -184 3639 112 
Q 3369 409 3369 1028 
z
M 4053 1031 
Q 4053 584 4156 434 
Q 4234 319 4372 319 
Q 4513 319 4588 431 
Q 4691 584 4691 1031 
Q 4691 1478 4591 1631 
Q 4513 1744 4372 1744 
Q 4231 1744 4156 1631 
Q 4053 1478 4053 1031 
z
" transform="scale(0.015625)"/>
      <path id="Arial-BoldMT-49" d="M 438 0 
L 438 4581 
L 1363 4581 
L 1363 0 
L 438 0 
z
" transform="scale(0.015625)"/>
     </defs>
     <use xlink:href="#Arial-BoldMT-43"/>
     <use xlink:href="#Arial-BoldMT-31" transform="translate(72.216797 0)"/>
     <use xlink:href="#Arial-BoldMT-20" transform="translate(127.832031 0)"/>
     <use xlink:href="#Arial-BoldMT-54" transform="translate(155.615234 0)"/>
     <use xlink:href="#Arial-BoldMT-65" transform="translate(209.324219 0)"/>
     <use xlink:href="#Arial-BoldMT-73" transform="translate(264.939453 0)"/>
     <use xlink:href="#Arial-BoldMT-74" transform="translate(320.554688 0)"/>
     <use xlink:href="#Arial-BoldMT-20" transform="translate(353.855469 0)"/>
     <use xlink:href="#Arial-BoldMT-44" transform="translate(381.638672 0)"/>
     <use xlink:href="#Arial-BoldMT-61" transform="translate(453.855469 0)"/>
     <use xlink:href="#Arial-BoldMT-69" transform="translate(509.470703 0)"/>
     <use xlink:href="#Arial-BoldMT-6c" transform="translate(537.253906 0)"/>
     <use xlink:href="#Arial-BoldMT-79" transform="translate(565.037109 0)"/>
     <use xlink:href="#Arial-BoldMT-20" transform="translate(620.652344 0)"/>
     <use xlink:href="#Arial-BoldMT-41" transform="translate(644.685547 0)"/>
     <use xlink:href="#Arial-BoldMT-67" transform="translate(716.902344 0)"/>
     <use xlink:href="#Arial-BoldMT-67" transform="translate(777.986328 0)"/>
     <use xlink:href="#Arial-BoldMT-72" transform="translate(839.070312 0)"/>
     <use xlink:href="#Arial-BoldMT-65" transform="translate(877.986328 0)"/>
     <use xlink:href="#Arial-BoldMT-67" transform="translate(933.601562 0)"/>
     <use xlink:href="#Arial-BoldMT-61" transform="translate(994.685547 0)"/>
     <use xlink:href="#Arial-BoldMT-74" transform="translate(1050.300781 0)"/>
     <use xlink:href="#Arial-BoldMT-65" transform="translate(1083.601562 0)"/>
     <use xlink:href="#Arial-BoldMT-3a" transform="translate(1139.216797 0)"/>
     <use xlink:href="#Arial-BoldMT-20" transform="translate(1172.517578 0)"/>
     <use xlink:href="#Arial-BoldMT-41" transform="translate(1196.550781 0)"/>
     <use xlink:href="#Arial-BoldMT-63" transform="translate(1268.767578 0)"/>
     <use xlink:href="#Arial-BoldMT-74" transform="translate(1324.382812 0)"/>
     <use xlink:href="#Arial-BoldMT-75" transform="translate(1357.683594 0)"/>
     <use xlink:href="#Arial-BoldMT-61" transform="translate(1418.767578 0)"/>
     <use xlink:href="#Arial-BoldMT-6c" transform="translate(1474.382812 0)"/>
     <use xlink:href="#Arial-BoldMT-20" transform="translate(1502.166016 0)"/>
     <use xlink:href="#Arial-BoldMT-76" transform="translate(1529.949219 0)"/>
     <use xlink:href="#Arial-BoldMT-73" transform="translate(1585.564453 0)"/>
     <use xlink:href="#Arial-BoldMT-20" transform="translate(1641.179688 0)"/>
     <use xlink:href="#Arial-BoldMT-50" transform="translate(1668.962891 0)"/>
     <use xlink:href="#Arial-BoldMT-72" transform="translate(1735.662109 0)"/>
     <use xlink:href="#Arial-BoldMT-65" transform="translate(1774.578125 0)"/>
     <use xlink:href="#Arial-BoldMT-64" transform="translate(1830.193359 0)"/>
     <use xlink:href="#Arial-BoldMT-69" transform="translate(1891.277344 0)"/>
     <use xlink:href="#Arial-BoldMT-63" transform="translate(1919.060547 0)"/>
     <use xlink:href="#Arial-BoldMT-74" transform="translate(1974.675781 0)"/>
     <use xlink:href="#Arial-BoldMT-69" transform="translate(2007.976562 0)"/>
     <use xlink:href="#Arial-BoldMT-6f" transform="translate(2035.759766 0)"/>
     <use xlink:href="#Arial-BoldMT-6e" transform="translate(2096.84375 0)"/>
     <use xlink:href="#Arial-BoldMT-20" transform="translate(2157.927734 0)"/>
     <use xlink:href="#Arial-BoldMT-77" transform="translate(2185.710938 0)"/>
     <use xlink:href="#Arial-BoldMT-69" transform="translate(2263.494141 0)"/>
     <use xlink:href="#Arial-BoldMT-74" transform="translate(2291.277344 0)"/>
     <use xlink:href="#Arial-BoldMT-68" transform="translate(2324.578125 0)"/>
     <use xlink:href="#Arial-BoldMT-20" transform="translate(2385.662109 0)"/>
     <use xlink:href="#Arial-BoldMT-39" transform="translate(2413.445312 0)"/>
     <use xlink:href="#Arial-BoldMT-35" transform="translate(2469.060547 0)"/>
     <use xlink:href="#Arial-BoldMT-25" transform="translate(2524.675781 0)"/>
     <use xlink:href="#Arial-BoldMT-20" transform="translate(2613.591797 0)"/>
     <use xlink:href="#Arial-BoldMT-49" transform="translate(2641.375 0)"/>
     <use xlink:href="#Arial-BoldMT-6e" transform="translate(2669.158203 0)"/>
     <use xlink:href="#Arial-BoldMT-74" transform="translate(2730.242188 0)"/>
     <use xlink:href="#Arial-BoldMT-65" transform="translate(2763.542969 0)"/>
     <use xlink:href="#Arial-BoldMT-72" transform="translate(2819.158203 0)"/>
     <use xlink:href="#Arial-BoldMT-76" transform="translate(2858.074219 0)"/>
     <use xlink:href="#Arial-BoldMT-61" transform="translate(2913.689453 0)"/>
     <use xlink:href="#Arial-BoldMT-6c" transform="translate(2969.304688 0)"/>
     <use xlink:href="#Arial-BoldMT-73" transform="translate(2997.087891 0)"/>
    </g>
   </g>
   <g id="legend_1">
    <g id="patch_7">
     <path d="M 70.246406 109.060781 
L 290.083125 109.060781 
Q 292.283125 109.060781 292.283125 106.860781 
L 292.283125 29.635625 
Q 292.283125 27.435625 290.083125 27.435625 
L 70.246406 27.435625 
Q 68.046406 27.435625 68.046406 29.635625 
L 68.046406 106.860781 
Q 68.046406 109.060781 70.246406 109.060781 
z
" style="fill: #ffffff; opacity: 0.8; stroke: #cccccc; stroke-linejoin: miter"/>
    </g>
    <g id="line2d_20">
     <path d="M 72.446406 35.859219 
L 83.446406 35.859219 
L 94.446406 35.859219 
" style="fill: none; stroke: #1f77b4; stroke-width: 2.2; stroke-linecap: round"/>
    </g>
    <g id="text_20">
     <!-- Actual -->
     <g style="fill: #262626" transform="translate(103.246406 39.709219) scale(0.11 -0.11)">
      <defs>
       <path id="ArialMT-41" d="M -9 0 
L 1750 4581 
L 2403 4581 
L 4278 0 
L 3588 0 
L 3053 1388 
L 1138 1388 
L 634 0 
L -9 0 
z
M 1313 1881 
L 2866 1881 
L 2388 3150 
Q 2169 3728 2063 4100 
Q 1975 3659 1816 3225 
L 1313 1881 
z
" transform="scale(0.015625)"/>
       <path id="ArialMT-63" d="M 2588 1216 
L 3141 1144 
Q 3050 572 2676 248 
Q 2303 -75 1759 -75 
Q 1078 -75 664 370 
Q 250 816 250 1647 
Q 250 2184 428 2587 
Q 606 2991 970 3192 
Q 1334 3394 1763 3394 
Q 2303 3394 2647 3120 
Q 2991 2847 3088 2344 
L 2541 2259 
Q 2463 2594 2264 2762 
Q 2066 2931 1784 2931 
Q 1359 2931 1093 2626 
Q 828 2322 828 1663 
Q 828 994 1084 691 
Q 1341 388 1753 388 
Q 2084 388 2306 591 
Q 2528 794 2588 1216 
z
" transform="scale(0.015625)"/>
      </defs>
      <use xlink:href="#ArialMT-41"/>
      <use xlink:href="#ArialMT-63" transform="translate(66.699219 0)"/>
      <use xlink:href="#ArialMT-74" transform="translate(116.699219 0)"/>
      <use xlink:href="#ArialMT-75" transform="translate(144.482422 0)"/>
      <use xlink:href="#ArialMT-61" transform="translate(200.097656 0)"/>
      <use xlink:href="#ArialMT-6c" transform="translate(255.712891 0)"/>
     </g>
    </g>
    <g id="line2d_21">
     <path d="M 72.446406 51.553125 
L 83.446406 51.553125 
L 94.446406 51.553125 
" style="fill: none; stroke: #ff7f0e; stroke-width: 1.8; stroke-linecap: round"/>
    </g>
    <g id="text_21">
     <!-- Baseline Forecast (Seasonal Naive 7) -->
     <g style="fill: #262626" transform="translate(103.246406 55.403125) scale(0.11 -0.11)">
      <defs>
       <path id="ArialMT-42" d="M 469 0 
L 469 4581 
L 2188 4581 
Q 2713 4581 3030 4442 
Q 3347 4303 3526 4014 
Q 3706 3725 3706 3409 
Q 3706 3116 3547 2856 
Q 3388 2597 3066 2438 
Q 3481 2316 3704 2022 
Q 3928 1728 3928 1328 
Q 3928 1006 3792 729 
Q 3656 453 3456 303 
Q 3256 153 2954 76 
Q 2653 0 2216 0 
L 469 0 
z
M 1075 2656 
L 2066 2656 
Q 2469 2656 2644 2709 
Q 2875 2778 2992 2937 
Q 3109 3097 3109 3338 
Q 3109 3566 3000 3739 
Q 2891 3913 2687 3977 
Q 2484 4041 1991 4041 
L 1075 4041 
L 1075 2656 
z
M 1075 541 
L 2216 541 
Q 2509 541 2628 563 
Q 2838 600 2978 687 
Q 3119 775 3209 942 
Q 3300 1109 3300 1328 
Q 3300 1584 3169 1773 
Q 3038 1963 2805 2039 
Q 2572 2116 2134 2116 
L 1075 2116 
L 1075 541 
z
" transform="scale(0.015625)"/>
       <path id="ArialMT-6e" d="M 422 0 
L 422 3319 
L 928 3319 
L 928 2847 
Q 1294 3394 1984 3394 
Q 2284 3394 2536 3286 
Q 2788 3178 2913 3003 
Q 3038 2828 3088 2588 
Q 3119 2431 3119 2041 
L 3119 0 
L 2556 0 
L 2556 2019 
Q 2556 2363 2490 2533 
Q 2425 2703 2258 2804 
Q 2091 2906 1866 2906 
Q 1506 2906 1245 2678 
Q 984 2450 984 1813 
L 984 0 
L 422 0 
z
" transform="scale(0.015625)"/>
       <path id="ArialMT-46" d="M 525 0 
L 525 4581 
L 3616 4581 
L 3616 4041 
L 1131 4041 
L 1131 2622 
L 3281 2622 
L 3281 2081 
L 1131 2081 
L 1131 0 
L 525 0 
z
" transform="scale(0.015625)"/>
       <path id="ArialMT-28" d="M 1497 -1347 
Q 1031 -759 709 28 
Q 388 816 388 1659 
Q 388 2403 628 3084 
Q 909 3875 1497 4659 
L 1900 4659 
Q 1522 4009 1400 3731 
Q 1209 3300 1100 2831 
Q 966 2247 966 1656 
Q 966 153 1900 -1347 
L 1497 -1347 
z
" transform="scale(0.015625)"/>
       <path id="ArialMT-53" d="M 288 1472 
L 859 1522 
Q 900 1178 1048 958 
Q 1197 738 1509 602 
Q 1822 466 2213 466 
Q 2559 466 2825 569 
Q 3091 672 3220 851 
Q 3350 1031 3350 1244 
Q 3350 1459 3225 1620 
Q 3100 1781 2813 1891 
Q 2628 1963 1997 2114 
Q 1366 2266 1113 2400 
Q 784 2572 623 2826 
Q 463 3081 463 3397 
Q 463 3744 659 4045 
Q 856 4347 1234 4503 
Q 1613 4659 2075 4659 
Q 2584 4659 2973 4495 
Q 3363 4331 3572 4012 
Q 3781 3694 3797 3291 
L 3216 3247 
Q 3169 3681 2898 3903 
Q 2628 4125 2100 4125 
Q 1550 4125 1298 3923 
Q 1047 3722 1047 3438 
Q 1047 3191 1225 3031 
Q 1400 2872 2139 2705 
Q 2878 2538 3153 2413 
Q 3553 2228 3743 1945 
Q 3934 1663 3934 1294 
Q 3934 928 3725 604 
Q 3516 281 3123 101 
Q 2731 -78 2241 -78 
Q 1619 -78 1198 103 
Q 778 284 539 648 
Q 300 1013 288 1472 
z
" transform="scale(0.015625)"/>
       <path id="ArialMT-4e" d="M 488 0 
L 488 4581 
L 1109 4581 
L 3516 984 
L 3516 4581 
L 4097 4581 
L 4097 0 
L 3475 0 
L 1069 3600 
L 1069 0 
L 488 0 
z
" transform="scale(0.015625)"/>
       <path id="ArialMT-76" d="M 1344 0 
L 81 3319 
L 675 3319 
L 1388 1331 
Q 1503 1009 1600 663 
Q 1675 925 1809 1294 
L 2547 3319 
L 3125 3319 
L 1869 0 
L 1344 0 
z
" transform="scale(0.015625)"/>
       <path id="ArialMT-29" d="M 791 -1347 
L 388 -1347 
Q 1322 153 1322 1656 
Q 1322 2244 1188 2822 
Q 1081 3291 891 3722 
Q 769 4003 388 4659 
L 791 4659 
Q 1378 3875 1659 3084 
Q 1900 2403 1900 1659 
Q 1900 816 1576 28 
Q 1253 -759 791 -1347 
z
" transform="scale(0.015625)"/>
      </defs>
      <use xlink:href="#ArialMT-42"/>
      <use xlink:href="#ArialMT-61" transform="translate(66.699219 0)"/>
      <use xlink:href="#ArialMT-73" transform="translate(122.314453 0)"/>
      <use xlink:href="#ArialMT-65" transform="translate(172.314453 0)"/>
      <use xlink:href="#ArialMT-6c" transform="translate(227.929688 0)"/>
      <use xlink:href="#ArialMT-69" transform="translate(250.146484 0)"/>
      <use xlink:href="#ArialMT-6e" transform="translate(272.363281 0)"/>
      <use xlink:href="#ArialMT-65" transform="translate(327.978516 0)"/>
      <use xlink:href="#ArialMT-20" transform="translate(383.59375 0)"/>
      <use xlink:href="#ArialMT-46" transform="translate(411.376953 0)"/>
      <use xlink:href="#ArialMT-6f" transform="translate(472.460938 0)"/>
      <use xlink:href="#ArialMT-72" transform="translate(528.076172 0)"/>
      <use xlink:href="#ArialMT-65" transform="translate(561.376953 0)"/>
      <use xlink:href="#ArialMT-63" transform="translate(616.992188 0)"/>
      <use xlink:href="#ArialMT-61" transform="translate(666.992188 0)"/>
      <use xlink:href="#ArialMT-73" transform="translate(722.607422 0)"/>
      <use xlink:href="#ArialMT-74" transform="translate(772.607422 0)"/>
      <use xlink:href="#ArialMT-20" transform="translate(800.390625 0)"/>
      <use xlink:href="#ArialMT-28" transform="translate(828.173828 0)"/>
      <use xlink:href="#ArialMT-53" transform="translate(861.474609 0)"/>
      <use xlink:href="#ArialMT-65" transform="translate(928.173828 0)"/>
      <use xlink:href="#ArialMT-61" transform="translate(983.789062 0)"/>
      <use xlink:href="#ArialMT-73" transform="translate(1039.404297 0)"/>
      <use xlink:href="#ArialMT-6f" transform="translate(1089.404297 0)"/>
      <use xlink:href="#ArialMT-6e" transform="translate(1145.019531 0)"/>
      <use xlink:href="#ArialMT-61" transform="translate(1200.634766 0)"/>
      <use xlink:href="#ArialMT-6c" transform="translate(1256.25 0)"/>
      <use xlink:href="#ArialMT-20" transform="translate(1278.466797 0)"/>
      <use xlink:href="#ArialMT-4e" transform="translate(1306.25 0)"/>
      <use xlink:href="#ArialMT-61" transform="translate(1378.466797 0)"/>
      <use xlink:href="#ArialMT-69" transform="translate(1434.082031 0)"/>
      <use xlink:href="#ArialMT-76" transform="translate(1456.298828 0)"/>
      <use xlink:href="#ArialMT-65" transform="translate(1506.298828 0)"/>
      <use xlink:href="#ArialMT-20" transform="translate(1561.914062 0)"/>
      <use xlink:href="#ArialMT-37" transform="translate(1589.697266 0)"/>
      <use xlink:href="#ArialMT-29" transform="translate(1645.3125 0)"/>
     </g>
    </g>
    <g id="patch_8">
     <path d="M 72.446406 71.091875 
L 94.446406 71.091875 
L 94.446406 63.391875 
L 72.446406 63.391875 
z
" style="fill: #ff7f0e; fill-opacity: 0.16; stroke: #ff7f0e; stroke-opacity: 0.16; stroke-linejoin: miter"/>
    </g>
    <g id="text_22">
     <!-- Baseline 95% interval -->
     <g style="fill: #262626" transform="translate(103.246406 71.091875) scale(0.11 -0.11)">
      <defs>
       <path id="ArialMT-25" d="M 372 3481 
Q 372 3972 619 4315 
Q 866 4659 1334 4659 
Q 1766 4659 2048 4351 
Q 2331 4044 2331 3447 
Q 2331 2866 2045 2552 
Q 1759 2238 1341 2238 
Q 925 2238 648 2547 
Q 372 2856 372 3481 
z
M 1350 4272 
Q 1141 4272 1002 4090 
Q 863 3909 863 3425 
Q 863 2984 1003 2804 
Q 1144 2625 1350 2625 
Q 1563 2625 1702 2806 
Q 1841 2988 1841 3469 
Q 1841 3913 1700 4092 
Q 1559 4272 1350 4272 
z
M 1353 -169 
L 3859 4659 
L 4316 4659 
L 1819 -169 
L 1353 -169 
z
M 3334 1075 
Q 3334 1569 3581 1911 
Q 3828 2253 4300 2253 
Q 4731 2253 5014 1945 
Q 5297 1638 5297 1041 
Q 5297 459 5011 145 
Q 4725 -169 4303 -169 
Q 3888 -169 3611 142 
Q 3334 453 3334 1075 
z
M 4316 1866 
Q 4103 1866 3964 1684 
Q 3825 1503 3825 1019 
Q 3825 581 3965 400 
Q 4106 219 4313 219 
Q 4528 219 4667 400 
Q 4806 581 4806 1063 
Q 4806 1506 4665 1686 
Q 4525 1866 4316 1866 
z
" transform="scale(0.015625)"/>
      </defs>
      <use xlink:href="#ArialMT-42"/>
      <use xlink:href="#ArialMT-61" transform="translate(66.699219 0)"/>
      <use xlink:href="#ArialMT-73" transform="translate(122.314453 0)"/>
      <use xlink:href="#ArialMT-65" transform="translate(172.314453 0)"/>
      <use xlink:href="#ArialMT-6c" transform="translate(227.929688 0)"/>
      <use xlink:href="#ArialMT-69" transform="translate(250.146484 0)"/>
      <use xlink:href="#ArialMT-6e" transform="translate(272.363281 0)"/>
      <use xlink:href="#ArialMT-65" transform="translate(327.978516 0)"/>
      <use xlink:href="#ArialMT-20" transform="translate(383.59375 0)"/>
      <use xlink:href="#ArialMT-39" transform="translate(411.376953 0)"/>
      <use xlink:href="#ArialMT-35" transform="translate(466.992188 0)"/>
      <use xlink:href="#ArialMT-25" transform="translate(522.607422 0)"/>
      <use xlink:href="#ArialMT-20" transform="translate(611.523438 0)"/>
      <use xlink:href="#ArialMT-69" transform="translate(639.306641 0)"/>
      <use xlink:href="#ArialMT-6e" transform="translate(661.523438 0)"/>
      <use xlink:href="#ArialMT-74" transform="translate(717.138672 0)"/>
      <use xlink:href="#ArialMT-65" transform="translate(744.921875 0)"/>
      <use xlink:href="#ArialMT-72" transform="translate(800.537109 0)"/>
      <use xlink:href="#ArialMT-76" transform="translate(833.837891 0)"/>
      <use xlink:href="#ArialMT-61" transform="translate(883.837891 0)"/>
      <use xlink:href="#ArialMT-6c" transform="translate(939.453125 0)"/>
     </g>
    </g>
    <g id="line2d_22">
     <path d="M 72.446406 82.935781 
L 83.446406 82.935781 
L 94.446406 82.935781 
" style="fill: none; stroke: #2ca02c; stroke-width: 1.8; stroke-linecap: round"/>
    </g>
    <g id="text_23">
     <!-- Model Forecast (Two-stage HGB) -->
     <g style="fill: #262626" transform="translate(103.246406 86.785781) scale(0.11 -0.11)">
      <defs>
       <path id="ArialMT-4d" d="M 475 0 
L 475 4581 
L 1388 4581 
L 2472 1338 
Q 2622 884 2691 659 
Q 2769 909 2934 1394 
L 4031 4581 
L 4847 4581 
L 4847 0 
L 4263 0 
L 4263 3834 
L 2931 0 
L 2384 0 
L 1059 3900 
L 1059 0 
L 475 0 
z
" transform="scale(0.015625)"/>
       <path id="ArialMT-54" d="M 1659 0 
L 1659 4041 
L 150 4041 
L 150 4581 
L 3781 4581 
L 3781 4041 
L 2266 4041 
L 2266 0 
L 1659 0 
z
" transform="scale(0.015625)"/>
       <path id="ArialMT-77" d="M 1034 0 
L 19 3319 
L 600 3319 
L 1128 1403 
L 1325 691 
Q 1338 744 1497 1375 
L 2025 3319 
L 2603 3319 
L 3100 1394 
L 3266 759 
L 3456 1400 
L 4025 3319 
L 4572 3319 
L 3534 0 
L 2950 0 
L 2422 1988 
L 2294 2553 
L 1622 0 
L 1034 0 
z
" transform="scale(0.015625)"/>
       <path id="ArialMT-67" d="M 319 -275 
L 866 -356 
Q 900 -609 1056 -725 
Q 1266 -881 1628 -881 
Q 2019 -881 2231 -725 
Q 2444 -569 2519 -288 
Q 2563 -116 2559 434 
Q 2191 0 1641 0 
Q 956 0 581 494 
Q 206 988 206 1678 
Q 206 2153 378 2554 
Q 550 2956 876 3175 
Q 1203 3394 1644 3394 
Q 2231 3394 2613 2919 
L 2613 3319 
L 3131 3319 
L 3131 450 
Q 3131 -325 2973 -648 
Q 2816 -972 2473 -1159 
Q 2131 -1347 1631 -1347 
Q 1038 -1347 672 -1080 
Q 306 -813 319 -275 
z
M 784 1719 
Q 784 1066 1043 766 
Q 1303 466 1694 466 
Q 2081 466 2343 764 
Q 2606 1063 2606 1700 
Q 2606 2309 2336 2618 
Q 2066 2928 1684 2928 
Q 1309 2928 1046 2623 
Q 784 2319 784 1719 
z
" transform="scale(0.015625)"/>
       <path id="ArialMT-48" d="M 513 0 
L 513 4581 
L 1119 4581 
L 1119 2700 
L 3500 2700 
L 3500 4581 
L 4106 4581 
L 4106 0 
L 3500 0 
L 3500 2159 
L 1119 2159 
L 1119 0 
L 513 0 
z
" transform="scale(0.015625)"/>
       <path id="ArialMT-47" d="M 2638 1797 
L 2638 2334 
L 4578 2338 
L 4578 638 
Q 4131 281 3656 101 
Q 3181 -78 2681 -78 
Q 2006 -78 1454 211 
Q 903 500 622 1047 
Q 341 1594 341 2269 
Q 341 2938 620 3517 
Q 900 4097 1425 4378 
Q 1950 4659 2634 4659 
Q 3131 4659 3532 4498 
Q 3934 4338 4162 4050 
Q 4391 3763 4509 3300 
L 3963 3150 
Q 3859 3500 3706 3700 
Q 3553 3900 3268 4020 
Q 2984 4141 2638 4141 
Q 2222 4141 1919 4014 
Q 1616 3888 1430 3681 
Q 1244 3475 1141 3228 
Q 966 2803 966 2306 
Q 966 1694 1177 1281 
Q 1388 869 1791 669 
Q 2194 469 2647 469 
Q 3041 469 3416 620 
Q 3791 772 3984 944 
L 3984 1797 
L 2638 1797 
z
" transform="scale(0.015625)"/>
      </defs>
      <use xlink:href="#ArialMT-4d"/>
      <use xlink:href="#ArialMT-6f" transform="translate(83.300781 0)"/>
      <use xlink:href="#ArialMT-64" transform="translate(138.916016 0)"/>
      <use xlink:href="#ArialMT-65" transform="translate(194.53125 0)"/>
      <use xlink:href="#ArialMT-6c" transform="translate(250.146484 0)"/>
      <use xlink:href="#ArialMT-20" transform="translate(272.363281 0)"/>
      <use xlink:href="#ArialMT-46" transform="translate(300.146484 0)"/>
      <use xlink:href="#ArialMT-6f" transform="translate(361.230469 0)"/>
      <use xlink:href="#ArialMT-72" transform="translate(416.845703 0)"/>
      <use xlink:href="#ArialMT-65" transform="translate(450.146484 0)"/>
      <use xlink:href="#ArialMT-63" transform="translate(505.761719 0)"/>
      <use xlink:href="#ArialMT-61" transform="translate(555.761719 0)"/>
      <use xlink:href="#ArialMT-73" transform="translate(611.376953 0)"/>
      <use xlink:href="#ArialMT-74" transform="translate(661.376953 0)"/>
      <use xlink:href="#ArialMT-20" transform="translate(689.160156 0)"/>
      <use xlink:href="#ArialMT-28" transform="translate(716.943359 0)"/>
      <use xlink:href="#ArialMT-54" transform="translate(750.244141 0)"/>
      <use xlink:href="#ArialMT-77" transform="translate(805.828125 0)"/>
      <use xlink:href="#ArialMT-6f" transform="translate(878.044922 0)"/>
      <use xlink:href="#ArialMT-2d" transform="translate(933.660156 0)"/>
      <use xlink:href="#ArialMT-73" transform="translate(966.960938 0)"/>
      <use xlink:href="#ArialMT-74" transform="translate(1016.960938 0)"/>
      <use xlink:href="#ArialMT-61" transform="translate(1044.744141 0)"/>
      <use xlink:href="#ArialMT-67" transform="translate(1100.359375 0)"/>
      <use xlink:href="#ArialMT-65" transform="translate(1155.974609 0)"/>
      <use xlink:href="#ArialMT-20" transform="translate(1211.589844 0)"/>
      <use xlink:href="#ArialMT-48" transform="translate(1239.373047 0)"/>
      <use xlink:href="#ArialMT-47" transform="translate(1311.589844 0)"/>
      <use xlink:href="#ArialMT-42" transform="translate(1389.373047 0)"/>
      <use xlink:href="#ArialMT-29" transform="translate(1456.072266 0)"/>
     </g>
    </g>
    <g id="patch_9">
     <path d="M 72.446406 102.474531 
L 94.446406 102.474531 
L 94.446406 94.774531 
L 72.446406 94.774531 
z
" style="fill: #2ca02c; fill-opacity: 0.16; stroke: #2ca02c; stroke-opacity: 0.16; stroke-linejoin: miter"/>
    </g>
    <g id="text_24">
     <!-- Model 95% interval -->
     <g style="fill: #262626" transform="translate(103.246406 102.474531) scale(0.11 -0.11)">
      <use xlink:href="#ArialMT-4d"/>
      <use xlink:href="#ArialMT-6f" transform="translate(83.300781 0)"/>
      <use xlink:href="#ArialMT-64" transform="translate(138.916016 0)"/>
      <use xlink:href="#ArialMT-65" transform="translate(194.53125 0)"/>
      <use xlink:href="#ArialMT-6c" transform="translate(250.146484 0)"/>
      <use xlink:href="#ArialMT-20" transform="translate(272.363281 0)"/>
      <use xlink:href="#ArialMT-39" transform="translate(300.146484 0)"/>
      <use xlink:href="#ArialMT-35" transform="translate(355.761719 0)"/>
      <use xlink:href="#ArialMT-25" transform="translate(411.376953 0)"/>
      <use xlink:href="#ArialMT-20" transform="translate(500.292969 0)"/>
      <use xlink:href="#ArialMT-69" transform="translate(528.076172 0)"/>
      <use xlink:href="#ArialMT-6e" transform="translate(550.292969 0)"/>
      <use xlink:href="#ArialMT-74" transform="translate(605.908203 0)"/>
      <use xlink:href="#ArialMT-65" transform="translate(633.691406 0)"/>
      <use xlink:href="#ArialMT-72" transform="translate(689.306641 0)"/>
      <use xlink:href="#ArialMT-76" transform="translate(722.607422 0)"/>
      <use xlink:href="#ArialMT-61" transform="translate(772.607422 0)"/>
      <use xlink:href="#ArialMT-6c" transform="translate(828.222656 0)"/>
     </g>
    </g>
   </g>
  </g>
 </g>
 <defs>
  <clipPath id="p6e216daacd">
   <rect x="62.546406" y="21.935625" width="926.9775" height="284.98125"/>
  </clipPath>
 </defs>
</svg>
