<?xml version="1.0" encoding="utf-8" standalone="no"?>
<!DOCTYPE svg PUBLIC "-//W3C//DTD SVG 1.1//EN"
  "http://www.w3.org/Graphics/SVG/1.1/DTD/svg11.dtd">
<svg xmlns:xlink="http://www.w3.org/1999/xlink" width="996.639531pt" height="276.583594pt" viewBox="0 0 996.639531 276.583594" xmlns="http://www.w3.org/2000/svg" version="1.1">
 <metadata>
  <rdf:RDF xmlns:dc="http://purl.org/dc/elements/1.1/" xmlns:cc="http://creativecommons.org/ns#" xmlns:rdf="http://www.w3.org/1999/02/22-rdf-syntax-ns#">
   <cc:Work>
    <dc:type rdf:resource="http://purl.org/dc/dcmitype/StillImage"/>
    <dc:date>2026-03-19T20:42:18.187747</dc:date>
    <dc:format>image/svg+xml</dc:format>
    <dc:creator>
     <cc:Agent>
      <dc:title>Matplotlib v3.10.8, https://matplotlib.org/</dc:title>
     </cc:Agent>
    </dc:creator>
   </cc:Work>
  </rdf:RDF>
 </metadata>
 <defs>
  <style type="text/css">*{stroke-linejoin: round; stroke-linecap: butt}</style>
 </defs>
 <g id="figure_1">
  <g id="patch_1">
   <path d="M 0 276.583594 
L 996.639531 276.583594 
L 996.639531 0 
L 0 0 
z
" style="fill: #ffffff"/>
  </g>
  <g id="axes_1">
   <g id="patch_2">
    <path d="M 62.259531 234.849375 
L 989.439531 234.849375 
L 989.439531 21.789375 
L 62.259531 21.789375 
z
" style="fill: #ffffff"/>
   </g>
   <g id="matplotlib.axis_1">
    <g id="xtick_1">
     <g id="line2d_1">
      <path d="M 72.337575 234.849375 
L 72.337575 21.789375 
" clip-path="url(#p781b294869)" style="fill: none; stroke: #cccccc; stroke-linecap: round"/>
     </g>
     <g id="text_1">
      <!-- 2011-06 -->
      <g style="fill: #262626" transform="translate(52.560778 252.222969) scale(0.11 -0.11)">
       <defs>
        <path id="ArialMT-32" d="M 3222 541 
L 3222 0 
L 194 0 
Q 188 203 259 391 
Q 375 700 629 1000 
Q 884 1300 1366 1694 
Q 2113 2306 2375 2664 
Q 2638 3022 2638 3341 
Q 2638 3675 2398 3904 
Q 2159 4134 1775 4134 
Q 1369 4134 1125 3890 
Q 881 3647 878 3216 
L 300 3275 
Q 359 3922 746 4261 
Q 1134 4600 1788 4600 
Q 2447 4600 2831 4234 
Q 3216 3869 3216 3328 
Q 3216 3053 3103 2787 
Q 2991 2522 2730 2228 
Q 2469 1934 1863 1422 
Q 1356 997 1212 845 
Q 1069 694 975 541 
L 3222 541 
z
" transform="scale(0.015625)"/>
        <path id="ArialMT-30" d="M 266 2259 
Q 266 3072 433 3567 
Q 600 4063 929 4331 
Q 1259 4600 1759 4600 
Q 2128 4600 2406 4451 
Q 2684 4303 2865 4023 
Q 3047 3744 3150 3342 
Q 3253 2941 3253 2259 
Q 3253 1453 3087 958 
Q 2922 463 2592 192 
Q 2263 -78 1759 -78 
Q 1097 -78 719 397 
Q 266 969 266 2259 
z
M 844 2259 
Q 844 1131 1108 757 
Q 1372 384 1759 384 
Q 2147 384 2411 759 
Q 2675 1134 2675 2259 
Q 2675 3391 2411 3762 
Q 2147 4134 1753 4134 
Q 1366 4134 1134 3806 
Q 844 3388 844 2259 
z
" transform="scale(0.015625)"/>
        <path id="ArialMT-31" d="M 2384 0 
L 1822 0 
L 1822 3584 
Q 1619 3391 1289 3197 
Q 959 3003 697 2906 
L 697 3450 
Q 1169 3672 1522 3987 
Q 1875 4303 2022 4600 
L 2384 4600 
L 2384 0 
z
" transform="scale(0.015625)"/>
        <path id="ArialMT-2d" d="M 203 1375 
L 203 1941 
L 1931 1941 
L 1931 1375 
L 203 1375 
z
" transform="scale(0.015625)"/>
        <path id="ArialMT-36" d="M 3184 3459 
L 2625 3416 
Q 2550 3747 2413 3897 
Q 2184 4138 1850 4138 
Q 1581 4138 1378 3988 
Q 1113 3794 959 3422 
Q 806 3050 800 2363 
Q 1003 2672 1297 2822 
Q 1591 2972 1913 2972 
Q 2475 2972 2870 2558 
Q 3266 2144 3266 1488 
Q 3266 1056 3080 686 
Q 2894 316 2569 119 
Q 2244 -78 1831 -78 
Q 1128 -78 684 439 
Q 241 956 241 2144 
Q 241 3472 731 4075 
Q 1159 4600 1884 4600 
Q 2425 4600 2770 4297 
Q 3116 3994 3184 3459 
z
M 888 1484 
Q 888 1194 1011 928 
Q 1134 663 1356 523 
Q 1578 384 1822 384 
Q 2178 384 2434 671 
Q 2691 959 2691 1453 
Q 2691 1928 2437 2201 
Q 2184 2475 1800 2475 
Q 1419 2475 1153 2201 
Q 888 1928 888 1484 
z
" transform="scale(0.015625)"/>
       </defs>
       <use xlink:href="#ArialMT-32"/>
       <use xlink:href="#ArialMT-30" transform="translate(55.615234 0)"/>
       <use xlink:href="#ArialMT-31" transform="translate(111.230469 0)"/>
       <use xlink:href="#ArialMT-31" transform="translate(159.470703 0)"/>
       <use xlink:href="#ArialMT-2d" transform="translate(215.085938 0)"/>
       <use xlink:href="#ArialMT-30" transform="translate(248.386719 0)"/>
       <use xlink:href="#ArialMT-36" transform="translate(304.001953 0)"/>
      </g>
     </g>
    </g>
    <g id="xtick_2">
     <g id="line2d_2">
      <path d="M 209.76544 234.849375 
L 209.76544 21.789375 
" clip-path="url(#p781b294869)" style="fill: none; stroke: #cccccc; stroke-linecap: round"/>
     </g>
     <g id="text_2">
      <!-- 2011-07 -->
      <g style="fill: #262626" transform="translate(189.988643 252.222969) scale(0.11 -0.11)">
       <defs>
        <path id="ArialMT-37" d="M 303 3981 
L 303 4522 
L 3269 4522 
L 3269 4084 
Q 2831 3619 2401 2847 
Q 1972 2075 1738 1259 
Q 1569 684 1522 0 
L 944 0 
Q 953 541 1156 1306 
Q 1359 2072 1739 2783 
Q 2119 3494 2547 3981 
L 303 3981 
z
" transform="scale(0.015625)"/>
       </defs>
       <use xlink:href="#ArialMT-32"/>
       <use xlink:href="#ArialMT-30" transform="translate(55.615234 0)"/>
       <use xlink:href="#ArialMT-31" transform="translate(111.230469 0)"/>
       <use xlink:href="#ArialMT-31" transform="translate(159.470703 0)"/>
       <use xlink:href="#ArialMT-2d" transform="translate(215.085938 0)"/>
       <use xlink:href="#ArialMT-30" transform="translate(248.386719 0)"/>
       <use xlink:href="#ArialMT-37" transform="translate(304.001953 0)"/>
      </g>
     </g>
    </g>
    <g id="xtick_3">
     <g id="line2d_3">
      <path d="M 351.774235 234.849375 
L 351.774235 21.789375 
" clip-path="url(#p781b294869)" style="fill: none; stroke: #cccccc; stroke-linecap: round"/>
     </g>
     <g id="text_3">
      <!-- 2011-08 -->
      <g style="fill: #262626" transform="translate(331.997438 252.222969) scale(0.11 -0.11)">
       <defs>
        <path id="ArialMT-38" d="M 1131 2484 
Q 781 2613 612 2850 
Q 444 3088 444 3419 
Q 444 3919 803 4259 
Q 1163 4600 1759 4600 
Q 2359 4600 2725 4251 
Q 3091 3903 3091 3403 
Q 3091 3084 2923 2848 
Q 2756 2613 2416 2484 
Q 2838 2347 3058 2040 
Q 3278 1734 3278 1309 
Q 3278 722 2862 322 
Q 2447 -78 1769 -78 
Q 1091 -78 675 323 
Q 259 725 259 1325 
Q 259 1772 486 2073 
Q 713 2375 1131 2484 
z
M 1019 3438 
Q 1019 3113 1228 2906 
Q 1438 2700 1772 2700 
Q 2097 2700 2305 2904 
Q 2513 3109 2513 3406 
Q 2513 3716 2298 3927 
Q 2084 4138 1766 4138 
Q 1444 4138 1231 3931 
Q 1019 3725 1019 3438 
z
M 838 1322 
Q 838 1081 952 856 
Q 1066 631 1291 507 
Q 1516 384 1775 384 
Q 2178 384 2440 643 
Q 2703 903 2703 1303 
Q 2703 1709 2433 1975 
Q 2163 2241 1756 2241 
Q 1359 2241 1098 1978 
Q 838 1716 838 1322 
z
" transform="scale(0.015625)"/>
       </defs>
       <use xlink:href="#ArialMT-32"/>
       <use xlink:href="#ArialMT-30" transform="translate(55.615234 0)"/>
       <use xlink:href="#ArialMT-31" transform="translate(111.230469 0)"/>
       <use xlink:href="#ArialMT-31" transform="translate(159.470703 0)"/>
       <use xlink:href="#ArialMT-2d" transform="translate(215.085938 0)"/>
       <use xlink:href="#ArialMT-30" transform="translate(248.386719 0)"/>
       <use xlink:href="#ArialMT-38" transform="translate(304.001953 0)"/>
      </g>
     </g>
    </g>
    <g id="xtick_4">
     <g id="line2d_4">
      <path d="M 493.783029 234.849375 
L 493.783029 21.789375 
" clip-path="url(#p781b294869)" style="fill: none; stroke: #cccccc; stroke-linecap: round"/>
     </g>
     <g id="text_4">
      <!-- 2011-09 -->
      <g style="fill: #262626" transform="translate(474.006232 252.222969) scale(0.11 -0.11)">
       <defs>
        <path id="ArialMT-39" d="M 350 1059 
L 891 1109 
Q 959 728 1153 556 
Q 1347 384 1650 384 
Q 1909 384 2104 503 
Q 2300 622 2425 820 
Q 2550 1019 2634 1356 
Q 2719 1694 2719 2044 
Q 2719 2081 2716 2156 
Q 2547 1888 2255 1720 
Q 1963 1553 1622 1553 
Q 1053 1553 659 1965 
Q 266 2378 266 3053 
Q 266 3750 677 4175 
Q 1088 4600 1706 4600 
Q 2153 4600 2523 4359 
Q 2894 4119 3086 3673 
Q 3278 3228 3278 2384 
Q 3278 1506 3087 986 
Q 2897 466 2520 194 
Q 2144 -78 1638 -78 
Q 1100 -78 759 220 
Q 419 519 350 1059 
z
M 2653 3081 
Q 2653 3566 2395 3850 
Q 2138 4134 1775 4134 
Q 1400 4134 1122 3828 
Q 844 3522 844 3034 
Q 844 2597 1108 2323 
Q 1372 2050 1759 2050 
Q 2150 2050 2401 2323 
Q 2653 2597 2653 3081 
z
" transform="scale(0.015625)"/>
       </defs>
       <use xlink:href="#ArialMT-32"/>
       <use xlink:href="#ArialMT-30" transform="translate(55.615234 0)"/>
       <use xlink:href="#ArialMT-31" transform="translate(111.230469 0)"/>
       <use xlink:href="#ArialMT-31" transform="translate(159.470703 0)"/>
       <use xlink:href="#ArialMT-2d" transform="translate(215.085938 0)"/>
       <use xlink:href="#ArialMT-30" transform="translate(248.386719 0)"/>
       <use xlink:href="#ArialMT-39" transform="translate(304.001953 0)"/>
      </g>
     </g>
    </g>
    <g id="xtick_5">
     <g id="line2d_5">
      <path d="M 631.210895 234.849375 
L 631.210895 21.789375 
" clip-path="url(#p781b294869)" style="fill: none; stroke: #cccccc; stroke-linecap: round"/>
     </g>
     <g id="text_5">
      <!-- 2011-10 -->
      <g style="fill: #262626" transform="translate(611.434098 252.222969) scale(0.11 -0.11)">
       <use xlink:href="#ArialMT-32"/>
       <use xlink:href="#ArialMT-30" transform="translate(55.615234 0)"/>
       <use xlink:href="#ArialMT-31" transform="translate(111.230469 0)"/>
       <use xlink:href="#ArialMT-31" transform="translate(159.470703 0)"/>
       <use xlink:href="#ArialMT-2d" transform="translate(215.085938 0)"/>
       <use xlink:href="#ArialMT-31" transform="translate(248.386719 0)"/>
       <use xlink:href="#ArialMT-30" transform="translate(304.001953 0)"/>
      </g>
     </g>
    </g>
    <g id="xtick_6">
     <g id="line2d_6">
      <path d="M 773.219689 234.849375 
L 773.219689 21.789375 
" clip-path="url(#p781b294869)" style="fill: none; stroke: #cccccc; stroke-linecap: round"/>
     </g>
     <g id="text_6">
      <!-- 2011-11 -->
      <g style="fill: #262626" transform="translate(753.848517 252.222969) scale(0.11 -0.11)">
       <use xlink:href="#ArialMT-32"/>
       <use xlink:href="#ArialMT-30" transform="translate(55.615234 0)"/>
       <use xlink:href="#ArialMT-31" transform="translate(111.230469 0)"/>
       <use xlink:href="#ArialMT-31" transform="translate(159.470703 0)"/>
       <use xlink:href="#ArialMT-2d" transform="translate(215.085938 0)"/>
       <use xlink:href="#ArialMT-31" transform="translate(248.386719 0)"/>
       <use xlink:href="#ArialMT-31" transform="translate(296.626953 0)"/>
      </g>
     </g>
    </g>
    <g id="xtick_7">
     <g id="line2d_7">
      <path d="M 910.647555 234.849375 
L 910.647555 21.789375 
" clip-path="url(#p781b294869)" style="fill: none; stroke: #cccccc; stroke-linecap: round"/>
     </g>
     <g id="text_7">
      <!-- 2011-12 -->
      <g style="fill: #262626" transform="translate(890.870758 252.222969) scale(0.11 -0.11)">
       <use xlink:href="#ArialMT-32"/>
       <use xlink:href="#ArialMT-30" transform="translate(55.615234 0)"/>
       <use xlink:href="#ArialMT-31" transform="translate(111.230469 0)"/>
       <use xlink:href="#ArialMT-31" transform="translate(159.470703 0)"/>
       <use xlink:href="#ArialMT-2d" transform="translate(215.085938 0)"/>
       <use xlink:href="#ArialMT-31" transform="translate(248.386719 0)"/>
       <use xlink:href="#ArialMT-32" transform="translate(304.001953 0)"/>
      </g>
     </g>
    </g>
    <g id="text_8">
     <!-- Date -->
     <g style="fill: #262626" transform="translate(513.176406 266.998594) scale(0.12 -0.12)">
      <defs>
       <path id="ArialMT-44" d="M 494 0 
L 494 4581 
L 2072 4581 
Q 2606 4581 2888 4516 
Q 3281 4425 3559 4188 
Q 3922 3881 4101 3404 
Q 4281 2928 4281 2316 
Q 4281 1794 4159 1391 
Q 4038 988 3847 723 
Q 3656 459 3429 307 
Q 3203 156 2883 78 
Q 2563 0 2147 0 
L 494 0 
z
M 1100 541 
L 2078 541 
Q 2531 541 2789 625 
Q 3047 709 3200 863 
Q 3416 1078 3536 1442 
Q 3656 1806 3656 2325 
Q 3656 3044 3420 3430 
Q 3184 3816 2847 3947 
Q 2603 4041 2063 4041 
L 1100 4041 
L 1100 541 
z
" transform="scale(0.015625)"/>
       <path id="ArialMT-61" d="M 2588 409 
Q 2275 144 1986 34 
Q 1697 -75 1366 -75 
Q 819 -75 525 192 
Q 231 459 231 875 
Q 231 1119 342 1320 
Q 453 1522 633 1644 
Q 813 1766 1038 1828 
Q 1203 1872 1538 1913 
Q 2219 1994 2541 2106 
Q 2544 2222 2544 2253 
Q 2544 2597 2384 2738 
Q 2169 2928 1744 2928 
Q 1347 2928 1158 2789 
Q 969 2650 878 2297 
L 328 2372 
Q 403 2725 575 2942 
Q 747 3159 1072 3276 
Q 1397 3394 1825 3394 
Q 2250 3394 2515 3294 
Q 2781 3194 2906 3042 
Q 3031 2891 3081 2659 
Q 3109 2516 3109 2141 
L 3109 1391 
Q 3109 606 3145 398 
Q 3181 191 3288 0 
L 2700 0 
Q 2613 175 2588 409 
z
M 2541 1666 
Q 2234 1541 1622 1453 
Q 1275 1403 1131 1340 
Q 988 1278 909 1158 
Q 831 1038 831 891 
Q 831 666 1001 516 
Q 1172 366 1500 366 
Q 1825 366 2078 508 
Q 2331 650 2450 897 
Q 2541 1088 2541 1459 
L 2541 1666 
z
" transform="scale(0.015625)"/>
       <path id="ArialMT-74" d="M 1650 503 
L 1731 6 
Q 1494 -44 1306 -44 
Q 1000 -44 831 53 
Q 663 150 594 308 
Q 525 466 525 972 
L 525 2881 
L 113 2881 
L 113 3319 
L 525 3319 
L 525 4141 
L 1084 4478 
L 1084 3319 
L 1650 3319 
L 1650 2881 
L 1084 2881 
L 1084 941 
Q 1084 700 1114 631 
Q 1144 563 1211 522 
Q 1278 481 1403 481 
Q 1497 481 1650 503 
z
" transform="scale(0.015625)"/>
       <path id="ArialMT-65" d="M 2694 1069 
L 3275 997 
Q 3138 488 2766 206 
Q 2394 -75 1816 -75 
Q 1088 -75 661 373 
Q 234 822 234 1631 
Q 234 2469 665 2931 
Q 1097 3394 1784 3394 
Q 2450 3394 2872 2941 
Q 3294 2488 3294 1666 
Q 3294 1616 3291 1516 
L 816 1516 
Q 847 969 1125 678 
Q 1403 388 1819 388 
Q 2128 388 2347 550 
Q 2566 713 2694 1069 
z
M 847 1978 
L 2700 1978 
Q 2663 2397 2488 2606 
Q 2219 2931 1791 2931 
Q 1403 2931 1139 2672 
Q 875 2413 847 1978 
z
" transform="scale(0.015625)"/>
      </defs>
      <use xlink:href="#ArialMT-44"/>
      <use xlink:href="#ArialMT-61" transform="translate(72.216797 0)"/>
      <use xlink:href="#ArialMT-74" transform="translate(127.832031 0)"/>
      <use xlink:href="#ArialMT-65" transform="translate(155.615234 0)"/>
     </g>
    </g>
   </g>
   <g id="matplotlib.axis_2">
    <g id="ytick_1">
     <g id="line2d_8">
      <path d="M 62.259531 211.942406 
L 989.439531 211.942406 
" clip-path="url(#p781b294869)" style="fill: none; stroke: #cccccc; stroke-linecap: round"/>
     </g>
     <g id="text_9">
      <!-- 8000 -->
      <g style="fill: #262626" transform="translate(28.291406 215.879203) scale(0.11 -0.11)">
       <use xlink:href="#ArialMT-38"/>
       <use xlink:href="#ArialMT-30" transform="translate(55.615234 0)"/>
       <use xlink:href="#ArialMT-30" transform="translate(111.230469 0)"/>
       <use xlink:href="#ArialMT-30" transform="translate(166.845703 0)"/>
      </g>
     </g>
    </g>
    <g id="ytick_2">
     <g id="line2d_9">
      <path d="M 62.259531 182.183555 
L 989.439531 182.183555 
" clip-path="url(#p781b294869)" style="fill: none; stroke: #cccccc; stroke-linecap: round"/>
     </g>
     <g id="text_10">
      <!-- 10000 -->
      <g style="fill: #262626" transform="translate(22.174375 186.120352) scale(0.11 -0.11)">
       <use xlink:href="#ArialMT-31"/>
       <use xlink:href="#ArialMT-30" transform="translate(55.615234 0)"/>
       <use xlink:href="#ArialMT-30" transform="translate(111.230469 0)"/>
       <use xlink:href="#ArialMT-30" transform="translate(166.845703 0)"/>
       <use xlink:href="#ArialMT-30" transform="translate(222.460938 0)"/>
      </g>
     </g>
    </g>
    <g id="ytick_3">
     <g id="line2d_10">
      <path d="M 62.259531 152.424704 
L 989.439531 152.424704 
" clip-path="url(#p781b294869)" style="fill: none; stroke: #cccccc; stroke-linecap: round"/>
     </g>
     <g id="text_11">
      <!-- 12000 -->
      <g style="fill: #262626" transform="translate(22.174375 156.361501) scale(0.11 -0.11)">
       <use xlink:href="#ArialMT-31"/>
       <use xlink:href="#ArialMT-32" transform="translate(55.615234 0)"/>
       <use xlink:href="#ArialMT-30" transform="translate(111.230469 0)"/>
       <use xlink:href="#ArialMT-30" transform="translate(166.845703 0)"/>
       <use xlink:href="#ArialMT-30" transform="translate(222.460938 0)"/>
      </g>
     </g>
    </g>
    <g id="ytick_4">
     <g id="line2d_11">
      <path d="M 62.259531 122.665853 
L 989.439531 122.665853 
" clip-path="url(#p781b294869)" style="fill: none; stroke: #cccccc; stroke-linecap: round"/>
     </g>
     <g id="text_12">
      <!-- 14000 -->
      <g style="fill: #262626" transform="translate(22.174375 126.60265) scale(0.11 -0.11)">
       <defs>
        <path id="ArialMT-34" d="M 2069 0 
L 2069 1097 
L 81 1097 
L 81 1613 
L 2172 4581 
L 2631 4581 
L 2631 1613 
L 3250 1613 
L 3250 1097 
L 2631 1097 
L 2631 0 
L 2069 0 
z
M 2069 1613 
L 2069 3678 
L 634 1613 
L 2069 1613 
z
" transform="scale(0.015625)"/>
       </defs>
       <use xlink:href="#ArialMT-31"/>
       <use xlink:href="#ArialMT-34" transform="translate(55.615234 0)"/>
       <use xlink:href="#ArialMT-30" transform="translate(111.230469 0)"/>
       <use xlink:href="#ArialMT-30" transform="translate(166.845703 0)"/>
       <use xlink:href="#ArialMT-30" transform="translate(222.460938 0)"/>
      </g>
     </g>
    </g>
    <g id="ytick_5">
     <g id="line2d_12">
      <path d="M 62.259531 92.907002 
L 989.439531 92.907002 
" clip-path="url(#p781b294869)" style="fill: none; stroke: #cccccc; stroke-linecap: round"/>
     </g>
     <g id="text_13">
      <!-- 16000 -->
      <g style="fill: #262626" transform="translate(22.174375 96.843799) scale(0.11 -0.11)">
       <use xlink:href="#ArialMT-31"/>
       <use xlink:href="#ArialMT-36" transform="translate(55.615234 0)"/>
       <use xlink:href="#ArialMT-30" transform="translate(111.230469 0)"/>
       <use xlink:href="#ArialMT-30" transform="translate(166.845703 0)"/>
       <use xlink:href="#ArialMT-30" transform="translate(222.460938 0)"/>
      </g>
     </g>
    </g>
    <g id="ytick_6">
     <g id="line2d_13">
      <path d="M 62.259531 63.148151 
L 989.439531 63.148151 
" clip-path="url(#p781b294869)" style="fill: none; stroke: #cccccc; stroke-linecap: round"/>
     </g>
     <g id="text_14">
      <!-- 18000 -->
      <g style="fill: #262626" transform="translate(22.174375 67.084948) scale(0.11 -0.11)">
       <use xlink:href="#ArialMT-31"/>
       <use xlink:href="#ArialMT-38" transform="translate(55.615234 0)"/>
       <use xlink:href="#ArialMT-30" transform="translate(111.230469 0)"/>
       <use xlink:href="#ArialMT-30" transform="translate(166.845703 0)"/>
       <use xlink:href="#ArialMT-30" transform="translate(222.460938 0)"/>
      </g>
     </g>
    </g>
    <g id="ytick_7">
     <g id="line2d_14">
      <path d="M 62.259531 33.3893 
L 989.439531 33.3893 
" clip-path="url(#p781b294869)" style="fill: none; stroke: #cccccc; stroke-linecap: round"/>
     </g>
     <g id="text_15">
      <!-- 20000 -->
      <g style="fill: #262626" transform="translate(22.174375 37.326097) scale(0.11 -0.11)">
       <use xlink:href="#ArialMT-32"/>
       <use xlink:href="#ArialMT-30" transform="translate(55.615234 0)"/>
       <use xlink:href="#ArialMT-30" transform="translate(111.230469 0)"/>
       <use xlink:href="#ArialMT-30" transform="translate(166.845703 0)"/>
       <use xlink:href="#ArialMT-30" transform="translate(222.460938 0)"/>
      </g>
     </g>
    </g>
    <g id="text_16">
     <!-- Interval width -->
     <g style="fill: #262626" transform="translate(15.789375 163.666875) rotate(-90) scale(0.12 -0.12)">
      <defs>
       <path id="ArialMT-49" d="M 597 0 
L 597 4581 
L 1203 4581 
L 1203 0 
L 597 0 
z
" transform="scale(0.015625)"/>
       <path id="ArialMT-6e" d="M 422 0 
L 422 3319 
L 928 3319 
L 928 2847 
Q 1294 3394 1984 3394 
Q 2284 3394 2536 3286 
Q 2788 3178 2913 3003 
Q 3038 2828 3088 2588 
Q 3119 2431 3119 2041 
L 3119 0 
L 2556 0 
L 2556 2019 
Q 2556 2363 2490 2533 
Q 2425 2703 2258 2804 
Q 2091 2906 1866 2906 
Q 1506 2906 1245 2678 
Q 984 2450 984 1813 
L 984 0 
L 422 0 
z
" transform="scale(0.015625)"/>
       <path id="ArialMT-72" d="M 416 0 
L 416 3319 
L 922 3319 
L 922 2816 
Q 1116 3169 1280 3281 
Q 1444 3394 1641 3394 
Q 1925 3394 2219 3213 
L 2025 2691 
Q 1819 2813 1613 2813 
Q 1428 2813 1281 2702 
Q 1134 2591 1072 2394 
Q 978 2094 978 1738 
L 978 0 
L 416 0 
z
" transform="scale(0.015625)"/>
       <path id="ArialMT-76" d="M 1344 0 
L 81 3319 
L 675 3319 
L 1388 1331 
Q 1503 1009 1600 663 
Q 1675 925 1809 1294 
L 2547 3319 
L 3125 3319 
L 1869 0 
L 1344 0 
z
" transform="scale(0.015625)"/>
       <path id="ArialMT-6c" d="M 409 0 
L 409 4581 
L 972 4581 
L 972 0 
L 409 0 
z
" transform="scale(0.015625)"/>
       <path id="ArialMT-20" transform="scale(0.015625)"/>
       <path id="ArialMT-77" d="M 1034 0 
L 19 3319 
L 600 3319 
L 1128 1403 
L 1325 691 
Q 1338 744 1497 1375 
L 2025 3319 
L 2603 3319 
L 3100 1394 
L 3266 759 
L 3456 1400 
L 4025 3319 
L 4572 3319 
L 3534 0 
L 2950 0 
L 2422 1988 
L 2294 2553 
L 1622 0 
L 1034 0 
z
" transform="scale(0.015625)"/>
       <path id="ArialMT-69" d="M 425 3934 
L 425 4581 
L 988 4581 
L 988 3934 
L 425 3934 
z
M 425 0 
L 425 3319 
L 988 3319 
L 988 0 
L 425 0 
z
" transform="scale(0.015625)"/>
       <path id="ArialMT-64" d="M 2575 0 
L 2575 419 
Q 2259 -75 1647 -75 
Q 1250 -75 917 144 
Q 584 363 401 755 
Q 219 1147 219 1656 
Q 219 2153 384 2558 
Q 550 2963 881 3178 
Q 1213 3394 1622 3394 
Q 1922 3394 2156 3267 
Q 2391 3141 2538 2938 
L 2538 4581 
L 3097 4581 
L 3097 0 
L 2575 0 
z
M 797 1656 
Q 797 1019 1065 703 
Q 1334 388 1700 388 
Q 2069 388 2326 689 
Q 2584 991 2584 1609 
Q 2584 2291 2321 2609 
Q 2059 2928 1675 2928 
Q 1300 2928 1048 2622 
Q 797 2316 797 1656 
z
" transform="scale(0.015625)"/>
       <path id="ArialMT-68" d="M 422 0 
L 422 4581 
L 984 4581 
L 984 2938 
Q 1378 3394 1978 3394 
Q 2347 3394 2619 3248 
Q 2891 3103 3008 2847 
Q 3125 2591 3125 2103 
L 3125 0 
L 2563 0 
L 2563 2103 
Q 2563 2525 2380 2717 
Q 2197 2909 1863 2909 
Q 1613 2909 1392 2779 
Q 1172 2650 1078 2428 
Q 984 2206 984 1816 
L 984 0 
L 422 0 
z
" transform="scale(0.015625)"/>
      </defs>
      <use xlink:href="#ArialMT-49"/>
      <use xlink:href="#ArialMT-6e" transform="translate(27.783203 0)"/>
      <use xlink:href="#ArialMT-74" transform="translate(83.398438 0)"/>
      <use xlink:href="#ArialMT-65" transform="translate(111.181641 0)"/>
      <use xlink:href="#ArialMT-72" transform="translate(166.796875 0)"/>
      <use xlink:href="#ArialMT-76" transform="translate(200.097656 0)"/>
      <use xlink:href="#ArialMT-61" transform="translate(250.097656 0)"/>
      <use xlink:href="#ArialMT-6c" transform="translate(305.712891 0)"/>
      <use xlink:href="#ArialMT-20" transform="translate(327.929688 0)"/>
      <use xlink:href="#ArialMT-77" transform="translate(355.712891 0)"/>
      <use xlink:href="#ArialMT-69" transform="translate(427.929688 0)"/>
      <use xlink:href="#ArialMT-64" transform="translate(450.146484 0)"/>
      <use xlink:href="#ArialMT-74" transform="translate(505.761719 0)"/>
      <use xlink:href="#ArialMT-68" transform="translate(533.544922 0)"/>
     </g>
    </g>
   </g>
   <g id="line2d_15">
    <path d="M 104.404077 32.732363 
L 131.88965 32.732363 
L 136.470579 150.622843 
L 141.051508 154.980556 
L 145.632436 119.306616 
L 150.213365 118.435317 
L 154.794294 116.911996 
L 159.375223 126.851127 
L 163.956152 134.3246 
L 168.537081 142.034436 
L 173.11801 138.96445 
L 177.698938 140.056691 
L 182.279867 139.41805 
L 186.860796 138.107106 
L 191.441725 141.148309 
L 196.022654 141.211341 
L 200.603583 145.125895 
L 205.184511 145.302779 
L 209.76544 104.112521 
L 214.346369 108.381907 
L 218.927298 108.760193 
L 223.508227 111.69575 
L 228.089156 115.058309 
L 232.670085 114.568695 
L 237.251013 116.861079 
L 241.831942 117.907652 
L 250.9938 117.80971 
L 255.574729 120.051053 
L 260.155658 121.9288 
L 264.736587 124.492597 
L 269.317515 125.070341 
L 273.898444 126.988429 
L 278.479373 128.570239 
L 283.060302 128.537509 
L 287.641231 131.139876 
L 292.22216 132.793104 
L 296.803089 133.05155 
L 301.384017 135.198391 
L 305.964946 133.660351 
L 310.545875 133.863951 
L 315.126804 133.599917 
L 319.707733 134.897128 
L 324.288662 136.470734 
L 328.869591 138.36671 
L 333.450519 138.314922 
L 338.031448 129.260598 
L 342.612377 129.899348 
L 347.193306 129.633228 
L 351.774235 131.531935 
L 356.355164 132.15801 
L 365.517021 135.632574 
L 370.09795 132.379361 
L 374.678879 131.212884 
L 379.259808 130.892908 
L 383.840737 131.949035 
L 388.421666 133.132283 
L 393.002594 134.674346 
L 397.583523 136.066592 
L 402.164452 134.717842 
L 406.745381 134.754119 
L 411.32631 134.437037 
L 415.907239 135.071446 
L 420.488168 134.40428 
L 425.069096 135.826007 
L 429.650025 130.562646 
L 434.230954 131.09305 
L 438.811883 131.945788 
L 443.392812 131.68571 
L 447.973741 132.977581 
L 452.55467 133.663251 
L 461.716527 136.148194 
L 466.297456 137.116549 
L 475.459314 136.466258 
L 480.040243 137.592109 
L 484.621172 134.79184 
L 489.2021 135.084193 
L 493.783029 133.914691 
L 498.363958 133.822255 
L 502.944887 129.763578 
L 507.525816 129.550561 
L 516.687674 131.817682 
L 521.268602 132.843852 
L 525.849531 133.538115 
L 530.43046 134.541745 
L 535.011389 133.883553 
L 539.592318 133.639953 
L 544.173247 132.396354 
L 548.754176 133.431807 
L 553.335104 131.066259 
L 557.916033 131.386814 
L 567.077891 128.249156 
L 571.65882 127.984029 
L 576.239749 128.976071 
L 580.820677 129.577205 
L 585.401606 71.547185 
L 589.982535 72.620174 
L 594.563464 69.7487 
L 599.144393 67.514687 
L 603.725322 67.635053 
L 608.306251 68.272045 
L 612.887179 69.419281 
L 617.468108 70.234504 
L 622.049037 71.305827 
L 626.629966 70.554643 
L 631.210895 66.23083 
L 635.791824 66.280879 
L 640.372753 67.215927 
L 644.953681 66.894543 
L 649.53461 66.127622 
L 654.115539 67.177715 
L 658.696468 65.489268 
L 663.277397 63.667021 
L 667.858326 63.655003 
L 677.020183 65.696346 
L 681.601112 65.774348 
L 686.182041 66.652708 
L 690.76297 67.261401 
L 695.343899 66.772006 
L 699.924828 66.712082 
L 709.086685 68.696609 
L 713.667614 68.70962 
L 718.248543 69.528978 
L 722.829472 69.895491 
L 727.410401 68.646101 
L 731.99133 68.548453 
L 736.572259 69.334249 
L 741.153187 70.279072 
L 745.734116 69.244287 
L 750.315045 70.092371 
L 754.895974 70.360911 
L 764.057832 70.005605 
L 768.63876 70.571391 
L 773.219689 69.343106 
L 782.381547 70.869447 
L 786.962476 68.770175 
L 791.543405 65.632375 
L 796.124334 65.472229 
L 800.705262 65.953768 
L 805.286191 61.309156 
L 809.86712 59.140013 
L 814.448049 58.673285 
L 823.609907 52.567954 
L 828.190836 52.39125 
L 832.771764 53.175682 
L 837.352693 40.886946 
L 841.933622 40.679003 
L 846.514551 41.044037 
L 851.09548 41.138372 
L 855.676409 39.659358 
L 860.257338 39.486894 
L 869.419195 41.079477 
L 874.000124 40.677975 
L 878.581053 40.149475 
L 883.161982 40.4491 
L 887.742911 38.728571 
L 892.32384 38.518916 
L 896.904768 39.360436 
L 901.485697 39.741434 
L 906.066626 36.975152 
L 910.647555 37.749971 
L 915.228484 37.51159 
L 919.809413 36.412479 
L 924.390342 36.178298 
L 928.97127 37.001472 
L 933.552199 33.07954 
L 938.133128 32.943182 
L 942.714057 33.579396 
L 947.294986 31.47392 
L 947.294986 31.47392 
" clip-path="url(#p781b294869)" style="fill: none; stroke: #ff7f0e; stroke-opacity: 0.35; stroke-width: 1.2; stroke-linecap: round"/>
   </g>
   <g id="line2d_16">
    <path d="M 104.404077 77.831906 
L 131.88965 77.831906 
L 136.470579 217.080357 
L 141.051508 225.16483 
L 145.632436 178.808809 
L 150.213365 184.287318 
L 154.794294 183.623968 
L 159.375223 189.061037 
L 163.956152 195.0529 
L 168.537081 199.056176 
L 173.11801 201.551751 
L 177.698938 202.180111 
L 182.279867 205.300756 
L 186.860796 203.905876 
L 191.441725 206.281532 
L 196.022654 207.105644 
L 200.603583 210.174774 
L 205.184511 212.568465 
L 209.76544 160.763361 
L 214.346369 164.079063 
L 218.927298 164.719988 
L 223.508227 167.272258 
L 228.089156 170.340237 
L 232.670085 170.69833 
L 237.251013 173.550046 
L 241.831942 174.703867 
L 246.412871 176.797499 
L 250.9938 176.882145 
L 255.574729 178.748066 
L 260.155658 180.390846 
L 264.736587 182.605755 
L 269.317515 184.210031 
L 273.898444 185.993399 
L 278.479373 187.952453 
L 283.060302 187.994841 
L 287.641231 189.718265 
L 296.803089 192.217425 
L 301.384017 193.746075 
L 305.964946 192.58995 
L 310.545875 194.014377 
L 315.126804 193.839256 
L 319.707733 192.894966 
L 328.869591 194.700191 
L 333.450519 195.172055 
L 338.031448 185.981703 
L 342.612377 187.372257 
L 347.193306 187.288051 
L 351.774235 188.346341 
L 356.355164 187.741921 
L 360.936093 187.835817 
L 365.517021 189.084311 
L 370.09795 186.711986 
L 374.678879 187.180319 
L 379.259808 187.114504 
L 383.840737 188.07527 
L 388.421666 187.888585 
L 393.002594 185.838305 
L 397.583523 186.950518 
L 402.164452 186.659863 
L 406.745381 187.670754 
L 411.32631 187.705924 
L 415.907239 188.38693 
L 420.488168 183.522359 
L 425.069096 181.188571 
L 429.650025 173.748699 
L 438.811883 175.847819 
L 443.392812 176.103279 
L 452.55467 178.106327 
L 457.135598 175.940841 
L 461.716527 176.947592 
L 470.878385 178.68384 
L 475.459314 178.943995 
L 480.040243 179.869009 
L 484.621172 166.753192 
L 489.2021 166.225731 
L 493.783029 162.1308 
L 498.363958 163.107842 
L 502.944887 162.370686 
L 507.525816 162.868284 
L 512.106745 163.729492 
L 516.687674 160.684822 
L 521.268602 156.406394 
L 525.849531 154.83258 
L 530.43046 154.892461 
L 535.011389 155.834733 
L 539.592318 156.435992 
L 544.173247 153.594439 
L 548.754176 148.871226 
L 553.335104 148.780153 
L 557.916033 145.178486 
L 567.077891 146.900453 
L 571.65882 147.554411 
L 576.239749 148.339811 
L 580.820677 138.031414 
L 585.401606 113.913284 
L 589.982535 113.92567 
L 594.563464 114.312358 
L 603.725322 115.746588 
L 608.306251 115.672527 
L 612.887179 107.251064 
L 617.468108 101.417147 
L 622.049037 100.740792 
L 626.629966 101.761803 
L 631.210895 101.839809 
L 644.953681 104.240117 
L 649.53461 104.534105 
L 654.115539 105.231525 
L 658.696468 105.318764 
L 663.277397 105.69227 
L 667.858326 106.465068 
L 672.439255 107.370121 
L 677.020183 106.849982 
L 681.601112 106.965053 
L 686.182041 106.845088 
L 695.343899 108.507057 
L 704.505757 109.886339 
L 709.086685 108.671537 
L 713.667614 109.100841 
L 718.248543 109.283217 
L 722.829472 110.062563 
L 727.410401 110.404191 
L 736.572259 111.899061 
L 741.153187 111.425515 
L 745.734116 112.216416 
L 750.315045 112.710832 
L 764.057832 114.670463 
L 768.63876 114.324158 
L 777.800618 114.321608 
L 782.381547 114.862993 
L 791.543405 111.800648 
L 796.124334 112.421157 
L 800.705262 111.855056 
L 805.286191 108.257909 
L 809.86712 108.096314 
L 814.448049 106.720214 
L 819.028978 103.769967 
L 823.609907 101.987286 
L 828.190836 102.579548 
L 832.771764 102.652984 
L 837.352693 89.630673 
L 841.933622 90.212177 
L 846.514551 89.744853 
L 851.09548 89.800595 
L 855.676409 89.157477 
L 860.257338 89.737219 
L 864.838266 89.803486 
L 869.419195 90.492482 
L 874.000124 90.754275 
L 878.581053 88.532166 
L 883.161982 88.68075 
L 887.742911 87.652022 
L 896.904768 88.758964 
L 901.485697 88.775943 
L 906.066626 86.58833 
L 910.647555 86.626335 
L 919.809413 85.368381 
L 924.390342 85.879478 
L 928.97127 86.271246 
L 933.552199 80.131007 
L 938.133128 80.119908 
L 942.714057 79.631287 
L 947.294986 76.575352 
L 947.294986 76.575352 
" clip-path="url(#p781b294869)" style="fill: none; stroke: #2ca02c; stroke-opacity: 0.35; stroke-width: 1.2; stroke-linecap: round"/>
   </g>
   <g id="line2d_17">
    <path d="M 131.88965 32.732363 
L 136.470579 49.57386 
L 141.051508 67.037888 
L 150.213365 91.648917 
L 154.794294 103.674579 
L 159.375223 117.120117 
L 163.956152 131.633294 
L 168.537081 130.406378 
L 173.11801 128.118363 
L 186.860796 137.108066 
L 191.441725 139.15052 
L 196.022654 140.13434 
L 200.603583 140.575977 
L 205.184511 141.481453 
L 209.76544 136.346572 
L 214.346369 131.912837 
L 223.508227 123.512912 
L 228.089156 119.776765 
L 232.670085 115.411451 
L 237.251013 111.348351 
L 241.831942 113.319084 
L 250.9938 115.959786 
L 255.574729 117.153401 
L 260.155658 118.134899 
L 264.736587 119.5526 
L 269.317515 120.725351 
L 273.898444 122.022605 
L 292.22216 128.227442 
L 296.803089 129.45015 
L 301.384017 130.897014 
L 305.964946 131.850146 
L 315.126804 133.329591 
L 324.288662 134.391717 
L 328.869591 135.151026 
L 333.450519 135.596245 
L 342.612377 134.401337 
L 360.936093 132.105868 
L 365.517021 131.722675 
L 370.09795 132.168212 
L 379.259808 132.535815 
L 388.421666 132.734582 
L 397.583523 132.901058 
L 402.164452 133.235127 
L 415.907239 134.693381 
L 425.069096 135.039618 
L 429.650025 134.253339 
L 434.230954 133.735512 
L 447.973741 132.642152 
L 457.135598 132.407209 
L 470.878385 134.76159 
L 480.040243 136.103744 
L 484.621172 136.264971 
L 489.2021 136.288079 
L 493.783029 135.969007 
L 498.363958 135.498394 
L 512.106745 132.517117 
L 521.268602 131.772189 
L 525.849531 131.718392 
L 530.43046 131.821177 
L 539.592318 132.993944 
L 548.754176 133.467911 
L 557.916033 132.906641 
L 562.496962 132.230223 
L 571.65882 130.61732 
L 580.820677 129.57805 
L 599.144393 95.424007 
L 612.887179 69.536732 
L 622.049037 69.161443 
L 626.629966 69.276577 
L 640.372753 68.748842 
L 644.953681 68.388165 
L 654.115539 67.211737 
L 658.696468 66.488112 
L 672.439255 65.388055 
L 677.020183 65.216884 
L 686.182041 65.091416 
L 690.76297 65.344578 
L 718.248543 67.913863 
L 727.410401 68.55789 
L 741.153187 69.277423 
L 754.895974 69.500778 
L 768.63876 70.097703 
L 773.219689 69.963993 
L 782.381547 70.203442 
L 786.962476 69.976194 
L 800.705262 68.026351 
L 805.286191 66.878643 
L 809.86712 65.306737 
L 814.448049 63.564429 
L 832.771764 56.131247 
L 837.352693 53.213789 
L 846.514551 48.058038 
L 851.09548 45.98332 
L 864.838266 40.452514 
L 874.000124 40.479872 
L 901.485697 39.660844 
L 906.066626 39.131869 
L 928.97127 37.367199 
L 933.552199 36.4155 
L 942.714057 35.243708 
L 947.294986 34.381184 
L 947.294986 34.381184 
" clip-path="url(#p781b294869)" style="fill: none; stroke: #ff7f0e; stroke-width: 2; stroke-linecap: round"/>
   </g>
   <g id="line2d_18">
    <path d="M 131.88965 77.831906 
L 136.470579 97.724541 
L 141.051508 118.772102 
L 145.632436 133.197374 
L 154.794294 163.518442 
L 159.375223 179.408318 
L 163.956152 196.154174 
L 168.537081 193.579291 
L 173.11801 190.205994 
L 177.698938 193.544752 
L 186.860796 199.444087 
L 191.441725 201.904158 
L 196.022654 203.625978 
L 205.184511 206.788165 
L 214.346369 194.982674 
L 223.508227 183.811936 
L 228.089156 178.559735 
L 237.251013 167.346183 
L 241.831942 169.337684 
L 250.9938 172.892054 
L 255.574729 174.531456 
L 260.155658 175.967257 
L 264.736587 177.668318 
L 273.898444 180.803963 
L 287.641231 185.552227 
L 292.22216 187.057021 
L 301.384017 189.792409 
L 310.545875 191.600763 
L 315.126804 192.435679 
L 324.288662 193.30737 
L 328.869591 193.662051 
L 333.450519 193.865763 
L 347.193306 191.036967 
L 351.774235 190.387163 
L 365.517021 187.664343 
L 370.09795 187.768669 
L 388.421666 187.698684 
L 397.583523 187.108498 
L 406.745381 187.171114 
L 415.907239 187.300126 
L 425.069096 186.012131 
L 429.650025 184.126157 
L 443.392812 179.088056 
L 447.973741 177.479447 
L 457.135598 175.956052 
L 470.878385 177.241549 
L 480.040243 178.039129 
L 484.621172 176.417252 
L 489.2021 175.029379 
L 498.363958 170.816344 
L 512.106745 163.883718 
L 516.687674 163.016808 
L 521.268602 161.614046 
L 525.849531 160.571443 
L 530.43046 159.397817 
L 539.592318 157.545211 
L 544.173247 156.097346 
L 548.754176 154.409689 
L 553.335104 153.320226 
L 562.496962 150.674836 
L 571.65882 148.129713 
L 576.239749 147.379052 
L 580.820677 145.830507 
L 585.401606 140.849526 
L 594.563464 131.853915 
L 612.887179 113.685787 
L 626.629966 108.224134 
L 635.791824 104.479675 
L 640.372753 102.757213 
L 644.953681 102.327078 
L 649.53461 102.772358 
L 654.115539 103.413891 
L 677.020183 105.923119 
L 681.601112 106.270398 
L 686.182041 106.500907 
L 699.924828 107.644252 
L 709.086685 108.263934 
L 741.153187 110.468475 
L 754.895974 111.873062 
L 764.057832 112.897863 
L 782.381547 114.274059 
L 786.962476 114.263214 
L 800.705262 113.273354 
L 809.86712 111.50995 
L 814.448049 110.346696 
L 832.771764 104.866317 
L 841.933622 99.650407 
L 846.514551 97.225355 
L 851.09548 95.229731 
L 864.838266 89.72664 
L 874.000124 89.927198 
L 896.904768 89.009602 
L 901.485697 88.764382 
L 906.066626 88.169247 
L 915.228484 87.514599 
L 928.97127 86.501966 
L 933.552199 85.266975 
L 942.714057 83.343622 
L 947.294986 81.996666 
L 947.294986 81.996666 
" clip-path="url(#p781b294869)" style="fill: none; stroke: #2ca02c; stroke-width: 2; stroke-linecap: round"/>
   </g>
   <g id="patch_3">
    <path d="M 62.259531 234.849375 
L 62.259531 21.789375 
" style="fill: none; stroke: #cccccc; stroke-width: 1.25; stroke-linejoin: miter; stroke-linecap: square"/>
   </g>
   <g id="patch_4">
    <path d="M 989.439531 234.849375 
L 989.439531 21.789375 
" style="fill: none; stroke: #cccccc; stroke-width: 1.25; stroke-linejoin: miter; stroke-linecap: square"/>
   </g>
   <g id="patch_5">
    <path d="M 62.259531 234.849375 
L 989.439531 234.849375 
" style="fill: none; stroke: #cccccc; stroke-width: 1.25; stroke-linejoin: miter; stroke-linecap: square"/>
   </g>
   <g id="patch_6">
    <path d="M 62.259531 21.789375 
L 989.439531 21.789375 
" style="fill: none; stroke: #cccccc; stroke-width: 1.25; stroke-linejoin: miter; stroke-linecap: square"/>
   </g>
   <g id="text_17">
    <!-- Cluster 1: 95% Prediction Interval Width Over Time -->
    <g style="fill: #262626" transform="translate(381.311406 15.789375) scale(0.12 -0.12)">
     <defs>
      <path id="Arial-BoldMT-43" d="M 3397 1684 
L 4294 1400 
Q 4088 650 3608 286 
Q 3128 -78 2391 -78 
Q 1478 -78 890 545 
Q 303 1169 303 2250 
Q 303 3394 893 4026 
Q 1484 4659 2447 4659 
Q 3288 4659 3813 4163 
Q 4125 3869 4281 3319 
L 3366 3100 
Q 3284 3456 3026 3662 
Q 2769 3869 2400 3869 
Q 1891 3869 1573 3503 
Q 1256 3138 1256 2319 
Q 1256 1450 1568 1081 
Q 1881 713 2381 713 
Q 2750 713 3015 947 
Q 3281 1181 3397 1684 
z
" transform="scale(0.015625)"/>
      <path id="Arial-BoldMT-6c" d="M 459 0 
L 459 4581 
L 1338 4581 
L 1338 0 
L 459 0 
z
" transform="scale(0.015625)"/>
      <path id="Arial-BoldMT-75" d="M 2644 0 
L 2644 497 
Q 2463 231 2167 78 
Q 1872 -75 1544 -75 
Q 1209 -75 943 72 
Q 678 219 559 484 
Q 441 750 441 1219 
L 441 3319 
L 1319 3319 
L 1319 1794 
Q 1319 1094 1367 936 
Q 1416 778 1544 686 
Q 1672 594 1869 594 
Q 2094 594 2272 717 
Q 2450 841 2515 1023 
Q 2581 1206 2581 1919 
L 2581 3319 
L 3459 3319 
L 3459 0 
L 2644 0 
z
" transform="scale(0.015625)"/>
      <path id="Arial-BoldMT-73" d="M 150 947 
L 1031 1081 
Q 1088 825 1259 692 
Q 1431 559 1741 559 
Q 2081 559 2253 684 
Q 2369 772 2369 919 
Q 2369 1019 2306 1084 
Q 2241 1147 2013 1200 
Q 950 1434 666 1628 
Q 272 1897 272 2375 
Q 272 2806 612 3100 
Q 953 3394 1669 3394 
Q 2350 3394 2681 3172 
Q 3013 2950 3138 2516 
L 2309 2363 
Q 2256 2556 2107 2659 
Q 1959 2763 1684 2763 
Q 1338 2763 1188 2666 
Q 1088 2597 1088 2488 
Q 1088 2394 1175 2328 
Q 1294 2241 1995 2081 
Q 2697 1922 2975 1691 
Q 3250 1456 3250 1038 
Q 3250 581 2869 253 
Q 2488 -75 1741 -75 
Q 1063 -75 667 200 
Q 272 475 150 947 
z
" transform="scale(0.015625)"/>
      <path id="Arial-BoldMT-74" d="M 1981 3319 
L 1981 2619 
L 1381 2619 
L 1381 1281 
Q 1381 875 1398 808 
Q 1416 741 1477 697 
Q 1538 653 1625 653 
Q 1747 653 1978 738 
L 2053 56 
Q 1747 -75 1359 -75 
Q 1122 -75 931 4 
Q 741 84 652 211 
Q 563 338 528 553 
Q 500 706 500 1172 
L 500 2619 
L 97 2619 
L 97 3319 
L 500 3319 
L 500 3978 
L 1381 4491 
L 1381 3319 
L 1981 3319 
z
" transform="scale(0.015625)"/>
      <path id="Arial-BoldMT-65" d="M 2381 1056 
L 3256 909 
Q 3088 428 2723 176 
Q 2359 -75 1813 -75 
Q 947 -75 531 491 
Q 203 944 203 1634 
Q 203 2459 634 2926 
Q 1066 3394 1725 3394 
Q 2466 3394 2894 2905 
Q 3322 2416 3303 1406 
L 1103 1406 
Q 1113 1016 1316 798 
Q 1519 581 1822 581 
Q 2028 581 2168 693 
Q 2309 806 2381 1056 
z
M 2431 1944 
Q 2422 2325 2234 2523 
Q 2047 2722 1778 2722 
Q 1491 2722 1303 2513 
Q 1116 2303 1119 1944 
L 2431 1944 
z
" transform="scale(0.015625)"/>
      <path id="Arial-BoldMT-72" d="M 1300 0 
L 422 0 
L 422 3319 
L 1238 3319 
L 1238 2847 
Q 1447 3181 1614 3287 
Q 1781 3394 1994 3394 
Q 2294 3394 2572 3228 
L 2300 2463 
Q 2078 2606 1888 2606 
Q 1703 2606 1575 2504 
Q 1447 2403 1373 2137 
Q 1300 1872 1300 1025 
L 1300 0 
z
" transform="scale(0.015625)"/>
      <path id="Arial-BoldMT-20" transform="scale(0.015625)"/>
      <path id="Arial-BoldMT-31" d="M 2519 0 
L 1641 0 
L 1641 3309 
Q 1159 2859 506 2644 
L 506 3441 
Q 850 3553 1253 3867 
Q 1656 4181 1806 4600 
L 2519 4600 
L 2519 0 
z
" transform="scale(0.015625)"/>
      <path id="Arial-BoldMT-3a" d="M 628 2441 
L 628 3319 
L 1506 3319 
L 1506 2441 
L 628 2441 
z
M 628 0 
L 628 878 
L 1506 878 
L 1506 0 
L 628 0 
z
" transform="scale(0.015625)"/>
      <path id="Arial-BoldMT-39" d="M 291 1059 
L 1141 1153 
Q 1172 894 1303 769 
Q 1434 644 1650 644 
Q 1922 644 2112 894 
Q 2303 1144 2356 1931 
Q 2025 1547 1528 1547 
Q 988 1547 595 1964 
Q 203 2381 203 3050 
Q 203 3747 617 4173 
Q 1031 4600 1672 4600 
Q 2369 4600 2816 4061 
Q 3263 3522 3263 2288 
Q 3263 1031 2797 475 
Q 2331 -81 1584 -81 
Q 1047 -81 715 205 
Q 384 491 291 1059 
z
M 2278 2978 
Q 2278 3403 2083 3637 
Q 1888 3872 1631 3872 
Q 1388 3872 1227 3680 
Q 1066 3488 1066 3050 
Q 1066 2606 1241 2398 
Q 1416 2191 1678 2191 
Q 1931 2191 2104 2391 
Q 2278 2591 2278 2978 
z
" transform="scale(0.015625)"/>
      <path id="Arial-BoldMT-35" d="M 284 1178 
L 1159 1269 
Q 1197 972 1381 798 
Q 1566 625 1806 625 
Q 2081 625 2272 848 
Q 2463 1072 2463 1522 
Q 2463 1944 2273 2155 
Q 2084 2366 1781 2366 
Q 1403 2366 1103 2031 
L 391 2134 
L 841 4519 
L 3163 4519 
L 3163 3697 
L 1506 3697 
L 1369 2919 
Q 1663 3066 1969 3066 
Q 2553 3066 2959 2641 
Q 3366 2216 3366 1538 
Q 3366 972 3038 528 
Q 2591 -78 1797 -78 
Q 1163 -78 763 262 
Q 363 603 284 1178 
z
" transform="scale(0.015625)"/>
      <path id="Arial-BoldMT-25" d="M 278 3450 
Q 278 4066 548 4362 
Q 819 4659 1281 4659 
Q 1759 4659 2029 4364 
Q 2300 4069 2300 3450 
Q 2300 2834 2029 2537 
Q 1759 2241 1297 2241 
Q 819 2241 548 2536 
Q 278 2831 278 3450 
z
M 963 3456 
Q 963 3009 1066 2856 
Q 1144 2744 1281 2744 
Q 1422 2744 1500 2856 
Q 1600 3009 1600 3456 
Q 1600 3903 1500 4053 
Q 1422 4169 1281 4169 
Q 1144 4169 1066 4056 
Q 963 3903 963 3456 
z
M 1950 -175 
L 1300 -175 
L 3741 4659 
L 4372 4659 
L 1950 -175 
z
M 3369 1028 
Q 3369 1644 3639 1941 
Q 3909 2238 4378 2238 
Q 4850 2238 5120 1941 
Q 5391 1644 5391 1028 
Q 5391 409 5120 112 
Q 4850 -184 4388 -184 
Q 3909 -184 3639 112 
Q 3369 409 3369 1028 
z
M 4053 1031 
Q 4053 584 4156 434 
Q 4234 319 4372 319 
Q 4513 319 4588 431 
Q 4691 584 4691 1031 
Q 4691 1478 4591 1631 
Q 4513 1744 4372 1744 
Q 4231 1744 4156 1631 
Q 4053 1478 4053 1031 
z
" transform="scale(0.015625)"/>
      <path id="Arial-BoldMT-50" d="M 466 0 
L 466 4581 
L 1950 4581 
Q 2794 4581 3050 4513 
Q 3444 4409 3709 4064 
Q 3975 3719 3975 3172 
Q 3975 2750 3822 2462 
Q 3669 2175 3433 2011 
Q 3197 1847 2953 1794 
Q 2622 1728 1994 1728 
L 1391 1728 
L 1391 0 
L 466 0 
z
M 1391 3806 
L 1391 2506 
L 1897 2506 
Q 2444 2506 2628 2578 
Q 2813 2650 2917 2803 
Q 3022 2956 3022 3159 
Q 3022 3409 2875 3571 
Q 2728 3734 2503 3775 
Q 2338 3806 1838 3806 
L 1391 3806 
z
" transform="scale(0.015625)"/>
      <path id="Arial-BoldMT-64" d="M 3503 0 
L 2688 0 
L 2688 488 
Q 2484 203 2207 64 
Q 1931 -75 1650 -75 
Q 1078 -75 670 386 
Q 263 847 263 1672 
Q 263 2516 659 2955 
Q 1056 3394 1663 3394 
Q 2219 3394 2625 2931 
L 2625 4581 
L 3503 4581 
L 3503 0 
z
M 1159 1731 
Q 1159 1200 1306 963 
Q 1519 619 1900 619 
Q 2203 619 2415 876 
Q 2628 1134 2628 1647 
Q 2628 2219 2422 2470 
Q 2216 2722 1894 2722 
Q 1581 2722 1370 2473 
Q 1159 2225 1159 1731 
z
" transform="scale(0.015625)"/>
      <path id="Arial-BoldMT-69" d="M 459 3769 
L 459 4581 
L 1338 4581 
L 1338 3769 
L 459 3769 
z
M 459 0 
L 459 3319 
L 1338 3319 
L 1338 0 
L 459 0 
z
" transform="scale(0.015625)"/>
      <path id="Arial-BoldMT-63" d="M 3353 2338 
L 2488 2181 
Q 2444 2441 2289 2572 
Q 2134 2703 1888 2703 
Q 1559 2703 1364 2476 
Q 1169 2250 1169 1719 
Q 1169 1128 1367 884 
Q 1566 641 1900 641 
Q 2150 641 2309 783 
Q 2469 925 2534 1272 
L 3397 1125 
Q 3263 531 2881 228 
Q 2500 -75 1859 -75 
Q 1131 -75 698 384 
Q 266 844 266 1656 
Q 266 2478 700 2936 
Q 1134 3394 1875 3394 
Q 2481 3394 2839 3133 
Q 3197 2872 3353 2338 
z
" transform="scale(0.015625)"/>
      <path id="Arial-BoldMT-6f" d="M 256 1706 
Q 256 2144 472 2553 
Q 688 2963 1083 3178 
Q 1478 3394 1966 3394 
Q 2719 3394 3200 2905 
Q 3681 2416 3681 1669 
Q 3681 916 3195 420 
Q 2709 -75 1972 -75 
Q 1516 -75 1102 131 
Q 688 338 472 736 
Q 256 1134 256 1706 
z
M 1156 1659 
Q 1156 1166 1390 903 
Q 1625 641 1969 641 
Q 2313 641 2545 903 
Q 2778 1166 2778 1666 
Q 2778 2153 2545 2415 
Q 2313 2678 1969 2678 
Q 1625 2678 1390 2415 
Q 1156 2153 1156 1659 
z
" transform="scale(0.015625)"/>
      <path id="Arial-BoldMT-6e" d="M 3478 0 
L 2600 0 
L 2600 1694 
Q 2600 2231 2544 2389 
Q 2488 2547 2361 2634 
Q 2234 2722 2056 2722 
Q 1828 2722 1647 2597 
Q 1466 2472 1398 2265 
Q 1331 2059 1331 1503 
L 1331 0 
L 453 0 
L 453 3319 
L 1269 3319 
L 1269 2831 
Q 1703 3394 2363 3394 
Q 2653 3394 2893 3289 
Q 3134 3184 3257 3021 
Q 3381 2859 3429 2653 
Q 3478 2447 3478 2063 
L 3478 0 
z
" transform="scale(0.015625)"/>
      <path id="Arial-BoldMT-49" d="M 438 0 
L 438 4581 
L 1363 4581 
L 1363 0 
L 438 0 
z
" transform="scale(0.015625)"/>
      <path id="Arial-BoldMT-76" d="M 1372 0 
L 34 3319 
L 956 3319 
L 1581 1625 
L 1763 1059 
Q 1834 1275 1853 1344 
Q 1897 1484 1947 1625 
L 2578 3319 
L 3481 3319 
L 2163 0 
L 1372 0 
z
" transform="scale(0.015625)"/>
      <path id="Arial-BoldMT-61" d="M 1116 2306 
L 319 2450 
Q 453 2931 781 3162 
Q 1109 3394 1756 3394 
Q 2344 3394 2631 3255 
Q 2919 3116 3036 2902 
Q 3153 2688 3153 2116 
L 3144 1091 
Q 3144 653 3186 445 
Q 3228 238 3344 0 
L 2475 0 
Q 2441 88 2391 259 
Q 2369 338 2359 363 
Q 2134 144 1878 34 
Q 1622 -75 1331 -75 
Q 819 -75 523 203 
Q 228 481 228 906 
Q 228 1188 362 1408 
Q 497 1628 739 1745 
Q 981 1863 1438 1950 
Q 2053 2066 2291 2166 
L 2291 2253 
Q 2291 2506 2166 2614 
Q 2041 2722 1694 2722 
Q 1459 2722 1328 2630 
Q 1197 2538 1116 2306 
z
M 2291 1594 
Q 2122 1538 1756 1459 
Q 1391 1381 1278 1306 
Q 1106 1184 1106 997 
Q 1106 813 1243 678 
Q 1381 544 1594 544 
Q 1831 544 2047 700 
Q 2206 819 2256 991 
Q 2291 1103 2291 1419 
L 2291 1594 
z
" transform="scale(0.015625)"/>
      <path id="Arial-BoldMT-57" d="M 1116 0 
L 22 4581 
L 969 4581 
L 1659 1434 
L 2497 4581 
L 3597 4581 
L 4400 1381 
L 5103 4581 
L 6034 4581 
L 4922 0 
L 3941 0 
L 3028 3425 
L 2119 0 
L 1116 0 
z
" transform="scale(0.015625)"/>
      <path id="Arial-BoldMT-68" d="M 1334 4581 
L 1334 2897 
Q 1759 3394 2350 3394 
Q 2653 3394 2897 3281 
Q 3141 3169 3264 2994 
Q 3388 2819 3433 2606 
Q 3478 2394 3478 1947 
L 3478 0 
L 2600 0 
L 2600 1753 
Q 2600 2275 2550 2415 
Q 2500 2556 2373 2639 
Q 2247 2722 2056 2722 
Q 1838 2722 1666 2615 
Q 1494 2509 1414 2295 
Q 1334 2081 1334 1663 
L 1334 0 
L 456 0 
L 456 4581 
L 1334 4581 
z
" transform="scale(0.015625)"/>
      <path id="Arial-BoldMT-4f" d="M 278 2263 
Q 278 2963 488 3438 
Q 644 3788 914 4066 
Q 1184 4344 1506 4478 
Q 1934 4659 2494 4659 
Q 3506 4659 4114 4031 
Q 4722 3403 4722 2284 
Q 4722 1175 4119 548 
Q 3516 -78 2506 -78 
Q 1484 -78 881 545 
Q 278 1169 278 2263 
z
M 1231 2294 
Q 1231 1516 1590 1114 
Q 1950 713 2503 713 
Q 3056 713 3411 1111 
Q 3766 1509 3766 2306 
Q 3766 3094 3420 3481 
Q 3075 3869 2503 3869 
Q 1931 3869 1581 3476 
Q 1231 3084 1231 2294 
z
" transform="scale(0.015625)"/>
      <path id="Arial-BoldMT-54" d="M 1497 0 
L 1497 3806 
L 138 3806 
L 138 4581 
L 3778 4581 
L 3778 3806 
L 2422 3806 
L 2422 0 
L 1497 0 
z
" transform="scale(0.015625)"/>
      <path id="Arial-BoldMT-6d" d="M 394 3319 
L 1203 3319 
L 1203 2866 
Q 1638 3394 2238 3394 
Q 2556 3394 2790 3262 
Q 3025 3131 3175 2866 
Q 3394 3131 3647 3262 
Q 3900 3394 4188 3394 
Q 4553 3394 4806 3245 
Q 5059 3097 5184 2809 
Q 5275 2597 5275 2122 
L 5275 0 
L 4397 0 
L 4397 1897 
Q 4397 2391 4306 2534 
Q 4184 2722 3931 2722 
Q 3747 2722 3584 2609 
Q 3422 2497 3350 2280 
Q 3278 2063 3278 1594 
L 3278 0 
L 2400 0 
L 2400 1819 
Q 2400 2303 2353 2443 
Q 2306 2584 2207 2653 
Q 2109 2722 1941 2722 
Q 1738 2722 1575 2612 
Q 1413 2503 1342 2297 
Q 1272 2091 1272 1613 
L 1272 0 
L 394 0 
L 394 3319 
z
" transform="scale(0.015625)"/>
     </defs>
     <use xlink:href="#Arial-BoldMT-43"/>
     <use xlink:href="#Arial-BoldMT-6c" transform="translate(72.216797 0)"/>
     <use xlink:href="#Arial-BoldMT-75" transform="translate(100 0)"/>
     <use xlink:href="#Arial-BoldMT-73" transform="translate(161.083984 0)"/>
     <use xlink:href="#Arial-BoldMT-74" transform="translate(216.699219 0)"/>
     <use xlink:href="#Arial-BoldMT-65" transform="translate(250 0)"/>
     <use xlink:href="#Arial-BoldMT-72" transform="translate(305.615234 0)"/>
     <use xlink:href="#Arial-BoldMT-20" transform="translate(344.53125 0)"/>
     <use xlink:href="#Arial-BoldMT-31" transform="translate(372.314453 0)"/>
     <use xlink:href="#Arial-BoldMT-3a" transform="translate(427.929688 0)"/>
     <use xlink:href="#Arial-BoldMT-20" transform="translate(461.230469 0)"/>
     <use xlink:href="#Arial-BoldMT-39" transform="translate(489.013672 0)"/>
     <use xlink:href="#Arial-BoldMT-35" transform="translate(544.628906 0)"/>
     <use xlink:href="#Arial-BoldMT-25" transform="translate(600.244141 0)"/>
     <use xlink:href="#Arial-BoldMT-20" transform="translate(689.160156 0)"/>
     <use xlink:href="#Arial-BoldMT-50" transform="translate(716.943359 0)"/>
     <use xlink:href="#Arial-BoldMT-72" transform="translate(783.642578 0)"/>
     <use xlink:href="#Arial-BoldMT-65" transform="translate(822.558594 0)"/>
     <use xlink:href="#Arial-BoldMT-64" transform="translate(878.173828 0)"/>
     <use xlink:href="#Arial-BoldMT-69" transform="translate(939.257812 0)"/>
     <use xlink:href="#Arial-BoldMT-63" transform="translate(967.041016 0)"/>
     <use xlink:href="#Arial-BoldMT-74" transform="translate(1022.65625 0)"/>
     <use xlink:href="#Arial-BoldMT-69" transform="translate(1055.957031 0)"/>
     <use xlink:href="#Arial-BoldMT-6f" transform="translate(1083.740234 0)"/>
     <use xlink:href="#Arial-BoldMT-6e" transform="translate(1144.824219 0)"/>
     <use xlink:href="#Arial-BoldMT-20" transform="translate(1205.908203 0)"/>
     <use xlink:href="#Arial-BoldMT-49" transform="translate(1233.691406 0)"/>
     <use xlink:href="#Arial-BoldMT-6e" transform="translate(1261.474609 0)"/>
     <use xlink:href="#Arial-BoldMT-74" transform="translate(1322.558594 0)"/>
     <use xlink:href="#Arial-BoldMT-65" transform="translate(1355.859375 0)"/>
     <use xlink:href="#Arial-BoldMT-72" transform="translate(1411.474609 0)"/>
     <use xlink:href="#Arial-BoldMT-76" transform="translate(1450.390625 0)"/>
     <use xlink:href="#Arial-BoldMT-61" transform="translate(1506.005859 0)"/>
     <use xlink:href="#Arial-BoldMT-6c" transform="translate(1561.621094 0)"/>
     <use xlink:href="#Arial-BoldMT-20" transform="translate(1589.404297 0)"/>
     <use xlink:href="#Arial-BoldMT-57" transform="translate(1617.1875 0)"/>
     <use xlink:href="#Arial-BoldMT-69" transform="translate(1710.697266 0)"/>
     <use xlink:href="#Arial-BoldMT-64" transform="translate(1738.480469 0)"/>
     <use xlink:href="#Arial-BoldMT-74" transform="translate(1799.564453 0)"/>
     <use xlink:href="#Arial-BoldMT-68" transform="translate(1832.865234 0)"/>
     <use xlink:href="#Arial-BoldMT-20" transform="translate(1893.949219 0)"/>
     <use xlink:href="#Arial-BoldMT-4f" transform="translate(1921.732422 0)"/>
     <use xlink:href="#Arial-BoldMT-76" transform="translate(1999.515625 0)"/>
     <use xlink:href="#Arial-BoldMT-65" transform="translate(2055.130859 0)"/>
     <use xlink:href="#Arial-BoldMT-72" transform="translate(2110.746094 0)"/>
     <use xlink:href="#Arial-BoldMT-20" transform="translate(2149.662109 0)"/>
     <use xlink:href="#Arial-BoldMT-54" transform="translate(2177.445312 0)"/>
     <use xlink:href="#Arial-BoldMT-69" transform="translate(2236.779297 0)"/>
     <use xlink:href="#Arial-BoldMT-6d" transform="translate(2264.5625 0)"/>
     <use xlink:href="#Arial-BoldMT-65" transform="translate(2353.478516 0)"/>
    </g>
   </g>
   <g id="legend_1">
    <g id="patch_7">
     <path d="M 479.660781 230.849375 
L 983.839531 230.849375 
Q 985.439531 230.849375 985.439531 229.249375 
L 985.439531 207.034375 
Q 985.439531 205.434375 983.839531 205.434375 
L 479.660781 205.434375 
Q 478.060781 205.434375 478.060781 207.034375 
L 478.060781 229.249375 
Q 478.060781 230.849375 479.660781 230.849375 
z
" style="fill: #ffffff; opacity: 0.8; stroke: #cccccc; stroke-linejoin: miter"/>
    </g>
    <g id="line2d_19">
     <path d="M 481.260781 211.658125 
L 489.260781 211.658125 
L 497.260781 211.658125 
" style="fill: none; stroke: #ff7f0e; stroke-opacity: 0.35; stroke-width: 1.2; stroke-linecap: round"/>
    </g>
    <g id="text_18">
     <!-- Naive 7-Day Baseline 95% interval width -->
     <g style="fill: #262626" transform="translate(503.660781 214.458125) scale(0.08 -0.08)">
      <defs>
       <path id="ArialMT-4e" d="M 488 0 
L 488 4581 
L 1109 4581 
L 3516 984 
L 3516 4581 
L 4097 4581 
L 4097 0 
L 3475 0 
L 1069 3600 
L 1069 0 
L 488 0 
z
" transform="scale(0.015625)"/>
       <path id="ArialMT-79" d="M 397 -1278 
L 334 -750 
Q 519 -800 656 -800 
Q 844 -800 956 -737 
Q 1069 -675 1141 -563 
Q 1194 -478 1313 -144 
Q 1328 -97 1363 -6 
L 103 3319 
L 709 3319 
L 1400 1397 
Q 1534 1031 1641 628 
Q 1738 1016 1872 1384 
L 2581 3319 
L 3144 3319 
L 1881 -56 
Q 1678 -603 1566 -809 
Q 1416 -1088 1222 -1217 
Q 1028 -1347 759 -1347 
Q 597 -1347 397 -1278 
z
" transform="scale(0.015625)"/>
       <path id="ArialMT-42" d="M 469 0 
L 469 4581 
L 2188 4581 
Q 2713 4581 3030 4442 
Q 3347 4303 3526 4014 
Q 3706 3725 3706 3409 
Q 3706 3116 3547 2856 
Q 3388 2597 3066 2438 
Q 3481 2316 3704 2022 
Q 3928 1728 3928 1328 
Q 3928 1006 3792 729 
Q 3656 453 3456 303 
Q 3256 153 2954 76 
Q 2653 0 2216 0 
L 469 0 
z
M 1075 2656 
L 2066 2656 
Q 2469 2656 2644 2709 
Q 2875 2778 2992 2937 
Q 3109 3097 3109 3338 
Q 3109 3566 3000 3739 
Q 2891 3913 2687 3977 
Q 2484 4041 1991 4041 
L 1075 4041 
L 1075 2656 
z
M 1075 541 
L 2216 541 
Q 2509 541 2628 563 
Q 2838 600 2978 687 
Q 3119 775 3209 942 
Q 3300 1109 3300 1328 
Q 3300 1584 3169 1773 
Q 3038 1963 2805 2039 
Q 2572 2116 2134 2116 
L 1075 2116 
L 1075 541 
z
" transform="scale(0.015625)"/>
       <path id="ArialMT-73" d="M 197 991 
L 753 1078 
Q 800 744 1014 566 
Q 1228 388 1613 388 
Q 2000 388 2187 545 
Q 2375 703 2375 916 
Q 2375 1106 2209 1216 
Q 2094 1291 1634 1406 
Q 1016 1563 777 1677 
Q 538 1791 414 1992 
Q 291 2194 291 2438 
Q 291 2659 392 2848 
Q 494 3038 669 3163 
Q 800 3259 1026 3326 
Q 1253 3394 1513 3394 
Q 1903 3394 2198 3281 
Q 2494 3169 2634 2976 
Q 2775 2784 2828 2463 
L 2278 2388 
Q 2241 2644 2061 2787 
Q 1881 2931 1553 2931 
Q 1166 2931 1000 2803 
Q 834 2675 834 2503 
Q 834 2394 903 2306 
Q 972 2216 1119 2156 
Q 1203 2125 1616 2013 
Q 2213 1853 2448 1751 
Q 2684 1650 2818 1456 
Q 2953 1263 2953 975 
Q 2953 694 2789 445 
Q 2625 197 2315 61 
Q 2006 -75 1616 -75 
Q 969 -75 630 194 
Q 291 463 197 991 
z
" transform="scale(0.015625)"/>
       <path id="ArialMT-35" d="M 266 1200 
L 856 1250 
Q 922 819 1161 601 
Q 1400 384 1738 384 
Q 2144 384 2425 690 
Q 2706 997 2706 1503 
Q 2706 1984 2436 2262 
Q 2166 2541 1728 2541 
Q 1456 2541 1237 2417 
Q 1019 2294 894 2097 
L 366 2166 
L 809 4519 
L 3088 4519 
L 3088 3981 
L 1259 3981 
L 1013 2750 
Q 1425 3038 1878 3038 
Q 2478 3038 2890 2622 
Q 3303 2206 3303 1553 
Q 3303 931 2941 478 
Q 2500 -78 1738 -78 
Q 1113 -78 717 272 
Q 322 622 266 1200 
z
" transform="scale(0.015625)"/>
       <path id="ArialMT-25" d="M 372 3481 
Q 372 3972 619 4315 
Q 866 4659 1334 4659 
Q 1766 4659 2048 4351 
Q 2331 4044 2331 3447 
Q 2331 2866 2045 2552 
Q 1759 2238 1341 2238 
Q 925 2238 648 2547 
Q 372 2856 372 3481 
z
M 1350 4272 
Q 1141 4272 1002 4090 
Q 863 3909 863 3425 
Q 863 2984 1003 2804 
Q 1144 2625 1350 2625 
Q 1563 2625 1702 2806 
Q 1841 2988 1841 3469 
Q 1841 3913 1700 4092 
Q 1559 4272 1350 4272 
z
M 1353 -169 
L 3859 4659 
L 4316 4659 
L 1819 -169 
L 1353 -169 
z
M 3334 1075 
Q 3334 1569 3581 1911 
Q 3828 2253 4300 2253 
Q 4731 2253 5014 1945 
Q 5297 1638 5297 1041 
Q 5297 459 5011 145 
Q 4725 -169 4303 -169 
Q 3888 -169 3611 142 
Q 3334 453 3334 1075 
z
M 4316 1866 
Q 4103 1866 3964 1684 
Q 3825 1503 3825 1019 
Q 3825 581 3965 400 
Q 4106 219 4313 219 
Q 4528 219 4667 400 
Q 4806 581 4806 1063 
Q 4806 1506 4665 1686 
Q 4525 1866 4316 1866 
z
" transform="scale(0.015625)"/>
      </defs>
      <use xlink:href="#ArialMT-4e"/>
      <use xlink:href="#ArialMT-61" transform="translate(72.216797 0)"/>
      <use xlink:href="#ArialMT-69" transform="translate(127.832031 0)"/>
      <use xlink:href="#ArialMT-76" transform="translate(150.048828 0)"/>
      <use xlink:href="#ArialMT-65" transform="translate(200.048828 0)"/>
      <use xlink:href="#ArialMT-20" transform="translate(255.664062 0)"/>
      <use xlink:href="#ArialMT-37" transform="translate(283.447266 0)"/>
      <use xlink:href="#ArialMT-2d" transform="translate(339.0625 0)"/>
      <use xlink:href="#ArialMT-44" transform="translate(372.363281 0)"/>
      <use xlink:href="#ArialMT-61" transform="translate(444.580078 0)"/>
      <use xlink:href="#ArialMT-79" transform="translate(500.195312 0)"/>
      <use xlink:href="#ArialMT-20" transform="translate(550.195312 0)"/>
      <use xlink:href="#ArialMT-42" transform="translate(577.978516 0)"/>
      <use xlink:href="#ArialMT-61" transform="translate(644.677734 0)"/>
      <use xlink:href="#ArialMT-73" transform="translate(700.292969 0)"/>
      <use xlink:href="#ArialMT-65" transform="translate(750.292969 0)"/>
      <use xlink:href="#ArialMT-6c" transform="translate(805.908203 0)"/>
      <use xlink:href="#ArialMT-69" transform="translate(828.125 0)"/>
      <use xlink:href="#ArialMT-6e" transform="translate(850.341797 0)"/>
      <use xlink:href="#ArialMT-65" transform="translate(905.957031 0)"/>
      <use xlink:href="#ArialMT-20" transform="translate(961.572266 0)"/>
      <use xlink:href="#ArialMT-39" transform="translate(989.355469 0)"/>
      <use xlink:href="#ArialMT-35" transform="translate(1044.970703 0)"/>
      <use xlink:href="#ArialMT-25" transform="translate(1100.585938 0)"/>
      <use xlink:href="#ArialMT-20" transform="translate(1189.501953 0)"/>
      <use xlink:href="#ArialMT-69" transform="translate(1217.285156 0)"/>
      <use xlink:href="#ArialMT-6e" transform="translate(1239.501953 0)"/>
      <use xlink:href="#ArialMT-74" transform="translate(1295.117188 0)"/>
      <use xlink:href="#ArialMT-65" transform="translate(1322.900391 0)"/>
      <use xlink:href="#ArialMT-72" transform="translate(1378.515625 0)"/>
      <use xlink:href="#ArialMT-76" transform="translate(1411.816406 0)"/>
      <use xlink:href="#ArialMT-61" transform="translate(1461.816406 0)"/>
      <use xlink:href="#ArialMT-6c" transform="translate(1517.431641 0)"/>
      <use xlink:href="#ArialMT-20" transform="translate(1539.648438 0)"/>
      <use xlink:href="#ArialMT-77" transform="translate(1567.431641 0)"/>
      <use xlink:href="#ArialMT-69" transform="translate(1639.648438 0)"/>
      <use xlink:href="#ArialMT-64" transform="translate(1661.865234 0)"/>
      <use xlink:href="#ArialMT-74" transform="translate(1717.480469 0)"/>
      <use xlink:href="#ArialMT-68" transform="translate(1745.263672 0)"/>
     </g>
    </g>
    <g id="line2d_20">
     <path d="M 481.260781 223.165625 
L 489.260781 223.165625 
L 497.260781 223.165625 
" style="fill: none; stroke: #2ca02c; stroke-opacity: 0.35; stroke-width: 1.2; stroke-linecap: round"/>
    </g>
    <g id="text_19">
     <!-- Zero-Inflated Negative Binomial Forecast 95% interval width -->
     <g style="fill: #262626" transform="translate(503.660781 225.965625) scale(0.08 -0.08)">
      <defs>
       <path id="ArialMT-5a" d="M 128 0 
L 128 563 
L 2475 3497 
Q 2725 3809 2950 4041 
L 394 4041 
L 394 4581 
L 3675 4581 
L 3675 4041 
L 1103 863 
L 825 541 
L 3750 541 
L 3750 0 
L 128 0 
z
" transform="scale(0.015625)"/>
       <path id="ArialMT-6f" d="M 213 1659 
Q 213 2581 725 3025 
Q 1153 3394 1769 3394 
Q 2453 3394 2887 2945 
Q 3322 2497 3322 1706 
Q 3322 1066 3130 698 
Q 2938 331 2570 128 
Q 2203 -75 1769 -75 
Q 1072 -75 642 372 
Q 213 819 213 1659 
z
M 791 1659 
Q 791 1022 1069 705 
Q 1347 388 1769 388 
Q 2188 388 2466 706 
Q 2744 1025 2744 1678 
Q 2744 2294 2464 2611 
Q 2184 2928 1769 2928 
Q 1347 2928 1069 2612 
Q 791 2297 791 1659 
z
" transform="scale(0.015625)"/>
       <path id="ArialMT-66" d="M 556 0 
L 556 2881 
L 59 2881 
L 59 3319 
L 556 3319 
L 556 3672 
Q 556 4006 616 4169 
Q 697 4388 901 4523 
Q 1106 4659 1475 4659 
Q 1713 4659 2000 4603 
L 1916 4113 
Q 1741 4144 1584 4144 
Q 1328 4144 1222 4034 
Q 1116 3925 1116 3625 
L 1116 3319 
L 1763 3319 
L 1763 2881 
L 1116 2881 
L 1116 0 
L 556 0 
z
" transform="scale(0.015625)"/>
       <path id="ArialMT-67" d="M 319 -275 
L 866 -356 
Q 900 -609 1056 -725 
Q 1266 -881 1628 -881 
Q 2019 -881 2231 -725 
Q 2444 -569 2519 -288 
Q 2563 -116 2559 434 
Q 2191 0 1641 0 
Q 956 0 581 494 
Q 206 988 206 1678 
Q 206 2153 378 2554 
Q 550 2956 876 3175 
Q 1203 3394 1644 3394 
Q 2231 3394 2613 2919 
L 2613 3319 
L 3131 3319 
L 3131 450 
Q 3131 -325 2973 -648 
Q 2816 -972 2473 -1159 
Q 2131 -1347 1631 -1347 
Q 1038 -1347 672 -1080 
Q 306 -813 319 -275 
z
M 784 1719 
Q 784 1066 1043 766 
Q 1303 466 1694 466 
Q 2081 466 2343 764 
Q 2606 1063 2606 1700 
Q 2606 2309 2336 2618 
Q 2066 2928 1684 2928 
Q 1309 2928 1046 2623 
Q 784 2319 784 1719 
z
" transform="scale(0.015625)"/>
       <path id="ArialMT-6d" d="M 422 0 
L 422 3319 
L 925 3319 
L 925 2853 
Q 1081 3097 1340 3245 
Q 1600 3394 1931 3394 
Q 2300 3394 2536 3241 
Q 2772 3088 2869 2813 
Q 3263 3394 3894 3394 
Q 4388 3394 4653 3120 
Q 4919 2847 4919 2278 
L 4919 0 
L 4359 0 
L 4359 2091 
Q 4359 2428 4304 2576 
Q 4250 2725 4106 2815 
Q 3963 2906 3769 2906 
Q 3419 2906 3187 2673 
Q 2956 2441 2956 1928 
L 2956 0 
L 2394 0 
L 2394 2156 
Q 2394 2531 2256 2718 
Q 2119 2906 1806 2906 
Q 1569 2906 1367 2781 
Q 1166 2656 1075 2415 
Q 984 2175 984 1722 
L 984 0 
L 422 0 
z
" transform="scale(0.015625)"/>
       <path id="ArialMT-46" d="M 525 0 
L 525 4581 
L 3616 4581 
L 3616 4041 
L 1131 4041 
L 1131 2622 
L 3281 2622 
L 3281 2081 
L 1131 2081 
L 1131 0 
L 525 0 
z
" transform="scale(0.015625)"/>
       <path id="ArialMT-63" d="M 2588 1216 
L 3141 1144 
Q 3050 572 2676 248 
Q 2303 -75 1759 -75 
Q 1078 -75 664 370 
Q 250 816 250 1647 
Q 250 2184 428 2587 
Q 606 2991 970 3192 
Q 1334 3394 1763 3394 
Q 2303 3394 2647 3120 
Q 2991 2847 3088 2344 
L 2541 2259 
Q 2463 2594 2264 2762 
Q 2066 2931 1784 2931 
Q 1359 2931 1093 2626 
Q 828 2322 828 1663 
Q 828 994 1084 691 
Q 1341 388 1753 388 
Q 2084 388 2306 591 
Q 2528 794 2588 1216 
z
" transform="scale(0.015625)"/>
      </defs>
      <use xlink:href="#ArialMT-5a"/>
      <use xlink:href="#ArialMT-65" transform="translate(61.083984 0)"/>
      <use xlink:href="#ArialMT-72" transform="translate(116.699219 0)"/>
      <use xlink:href="#ArialMT-6f" transform="translate(150 0)"/>
      <use xlink:href="#ArialMT-2d" transform="translate(205.615234 0)"/>
      <use xlink:href="#ArialMT-49" transform="translate(238.916016 0)"/>
      <use xlink:href="#ArialMT-6e" transform="translate(266.699219 0)"/>
      <use xlink:href="#ArialMT-66" transform="translate(322.314453 0)"/>
      <use xlink:href="#ArialMT-6c" transform="translate(350.097656 0)"/>
      <use xlink:href="#ArialMT-61" transform="translate(372.314453 0)"/>
      <use xlink:href="#ArialMT-74" transform="translate(427.929688 0)"/>
      <use xlink:href="#ArialMT-65" transform="translate(455.712891 0)"/>
      <use xlink:href="#ArialMT-64" transform="translate(511.328125 0)"/>
      <use xlink:href="#ArialMT-20" transform="translate(566.943359 0)"/>
      <use xlink:href="#ArialMT-4e" transform="translate(594.726562 0)"/>
      <use xlink:href="#ArialMT-65" transform="translate(666.943359 0)"/>
      <use xlink:href="#ArialMT-67" transform="translate(722.558594 0)"/>
      <use xlink:href="#ArialMT-61" transform="translate(778.173828 0)"/>
      <use xlink:href="#ArialMT-74" transform="translate(833.789062 0)"/>
      <use xlink:href="#ArialMT-69" transform="translate(861.572266 0)"/>
      <use xlink:href="#ArialMT-76" transform="translate(883.789062 0)"/>
      <use xlink:href="#ArialMT-65" transform="translate(933.789062 0)"/>
      <use xlink:href="#ArialMT-20" transform="translate(989.404297 0)"/>
      <use xlink:href="#ArialMT-42" transform="translate(1017.1875 0)"/>
      <use xlink:href="#ArialMT-69" transform="translate(1083.886719 0)"/>
      <use xlink:href="#ArialMT-6e" transform="translate(1106.103516 0)"/>
      <use xlink:href="#ArialMT-6f" transform="translate(1161.71875 0)"/>
      <use xlink:href="#ArialMT-6d" transform="translate(1217.333984 0)"/>
      <use xlink:href="#ArialMT-69" transform="translate(1300.634766 0)"/>
      <use xlink:href="#ArialMT-61" transform="translate(1322.851562 0)"/>
      <use xlink:href="#ArialMT-6c" transform="translate(1378.466797 0)"/>
      <use xlink:href="#ArialMT-20" transform="translate(1400.683594 0)"/>
      <use xlink:href="#ArialMT-46" transform="translate(1428.466797 0)"/>
      <use xlink:href="#ArialMT-6f" transform="translate(1489.550781 0)"/>
      <use xlink:href="#ArialMT-72" transform="translate(1545.166016 0)"/>
      <use xlink:href="#ArialMT-65" transform="translate(1578.466797 0)"/>
      <use xlink:href="#ArialMT-63" transform="translate(1634.082031 0)"/>
      <use xlink:href="#ArialMT-61" transform="translate(1684.082031 0)"/>
      <use xlink:href="#ArialMT-73" transform="translate(1739.697266 0)"/>
      <use xlink:href="#ArialMT-74" transform="translate(1789.697266 0)"/>
      <use xlink:href="#ArialMT-20" transform="translate(1817.480469 0)"/>
      <use xlink:href="#ArialMT-39" transform="translate(1845.263672 0)"/>
      <use xlink:href="#ArialMT-35" transform="translate(1900.878906 0)"/>
      <use xlink:href="#ArialMT-25" transform="translate(1956.494141 0)"/>
      <use xlink:href="#ArialMT-20" transform="translate(2045.410156 0)"/>
      <use xlink:href="#ArialMT-69" transform="translate(2073.193359 0)"/>
      <use xlink:href="#ArialMT-6e" transform="translate(2095.410156 0)"/>
      <use xlink:href="#ArialMT-74" transform="translate(2151.025391 0)"/>
      <use xlink:href="#ArialMT-65" transform="translate(2178.808594 0)"/>
      <use xlink:href="#ArialMT-72" transform="translate(2234.423828 0)"/>
      <use xlink:href="#ArialMT-76" transform="translate(2267.724609 0)"/>
      <use xlink:href="#ArialMT-61" transform="translate(2317.724609 0)"/>
      <use xlink:href="#ArialMT-6c" transform="translate(2373.339844 0)"/>
      <use xlink:href="#ArialMT-20" transform="translate(2395.556641 0)"/>
      <use xlink:href="#ArialMT-77" transform="translate(2423.339844 0)"/>
      <use xlink:href="#ArialMT-69" transform="translate(2495.556641 0)"/>
      <use xlink:href="#ArialMT-64" transform="translate(2517.773438 0)"/>
      <use xlink:href="#ArialMT-74" transform="translate(2573.388672 0)"/>
      <use xlink:href="#ArialMT-68" transform="translate(2601.171875 0)"/>
     </g>
    </g>
    <g id="line2d_21">
     <path d="M 732.190781 211.658125 
L 740.190781 211.658125 
L 748.190781 211.658125 
" style="fill: none; stroke: #ff7f0e; stroke-width: 2; stroke-linecap: round"/>
    </g>
    <g id="text_20">
     <!-- Naive 7-Day Baseline interval width 7d mean -->
     <g style="fill: #262626" transform="translate(754.590781 214.458125) scale(0.08 -0.08)">
      <use xlink:href="#ArialMT-4e"/>
      <use xlink:href="#ArialMT-61" transform="translate(72.216797 0)"/>
      <use xlink:href="#ArialMT-69" transform="translate(127.832031 0)"/>
      <use xlink:href="#ArialMT-76" transform="translate(150.048828 0)"/>
      <use xlink:href="#ArialMT-65" transform="translate(200.048828 0)"/>
      <use xlink:href="#ArialMT-20" transform="translate(255.664062 0)"/>
      <use xlink:href="#ArialMT-37" transform="translate(283.447266 0)"/>
      <use xlink:href="#ArialMT-2d" transform="translate(339.0625 0)"/>
      <use xlink:href="#ArialMT-44" transform="translate(372.363281 0)"/>
      <use xlink:href="#ArialMT-61" transform="translate(444.580078 0)"/>
      <use xlink:href="#ArialMT-79" transform="translate(500.195312 0)"/>
      <use xlink:href="#ArialMT-20" transform="translate(550.195312 0)"/>
      <use xlink:href="#ArialMT-42" transform="translate(577.978516 0)"/>
      <use xlink:href="#ArialMT-61" transform="translate(644.677734 0)"/>
      <use xlink:href="#ArialMT-73" transform="translate(700.292969 0)"/>
      <use xlink:href="#ArialMT-65" transform="translate(750.292969 0)"/>
      <use xlink:href="#ArialMT-6c" transform="translate(805.908203 0)"/>
      <use xlink:href="#ArialMT-69" transform="translate(828.125 0)"/>
      <use xlink:href="#ArialMT-6e" transform="translate(850.341797 0)"/>
      <use xlink:href="#ArialMT-65" transform="translate(905.957031 0)"/>
      <use xlink:href="#ArialMT-20" transform="translate(961.572266 0)"/>
      <use xlink:href="#ArialMT-69" transform="translate(989.355469 0)"/>
      <use xlink:href="#ArialMT-6e" transform="translate(1011.572266 0)"/>
      <use xlink:href="#ArialMT-74" transform="translate(1067.1875 0)"/>
      <use xlink:href="#ArialMT-65" transform="translate(1094.970703 0)"/>
      <use xlink:href="#ArialMT-72" transform="translate(1150.585938 0)"/>
      <use xlink:href="#ArialMT-76" transform="translate(1183.886719 0)"/>
      <use xlink:href="#ArialMT-61" transform="translate(1233.886719 0)"/>
      <use xlink:href="#ArialMT-6c" transform="translate(1289.501953 0)"/>
      <use xlink:href="#ArialMT-20" transform="translate(1311.71875 0)"/>
      <use xlink:href="#ArialMT-77" transform="translate(1339.501953 0)"/>
      <use xlink:href="#ArialMT-69" transform="translate(1411.71875 0)"/>
      <use xlink:href="#ArialMT-64" transform="translate(1433.935547 0)"/>
      <use xlink:href="#ArialMT-74" transform="translate(1489.550781 0)"/>
      <use xlink:href="#ArialMT-68" transform="translate(1517.333984 0)"/>
      <use xlink:href="#ArialMT-20" transform="translate(1572.949219 0)"/>
      <use xlink:href="#ArialMT-37" transform="translate(1600.732422 0)"/>
      <use xlink:href="#ArialMT-64" transform="translate(1656.347656 0)"/>
      <use xlink:href="#ArialMT-20" transform="translate(1711.962891 0)"/>
      <use xlink:href="#ArialMT-6d" transform="translate(1739.746094 0)"/>
      <use xlink:href="#ArialMT-65" transform="translate(1823.046875 0)"/>
      <use xlink:href="#ArialMT-61" transform="translate(1878.662109 0)"/>
      <use xlink:href="#ArialMT-6e" transform="translate(1934.277344 0)"/>
     </g>
    </g>
    <g id="line2d_22">
     <path d="M 732.190781 223.165625 
L 740.190781 223.165625 
L 748.190781 223.165625 
" style="fill: none; stroke: #2ca02c; stroke-width: 2; stroke-linecap: round"/>
    </g>
    <g id="text_21">
     <!-- Zero-Inflated Negative Binomial Forecast interval width 7d mean -->
     <g style="fill: #262626" transform="translate(754.590781 225.965625) scale(0.08 -0.08)">
      <use xlink:href="#ArialMT-5a"/>
      <use xlink:href="#ArialMT-65" transform="translate(61.083984 0)"/>
      <use xlink:href="#ArialMT-72" transform="translate(116.699219 0)"/>
      <use xlink:href="#ArialMT-6f" transform="translate(150 0)"/>
      <use xlink:href="#ArialMT-2d" transform="translate(205.615234 0)"/>
      <use xlink:href="#ArialMT-49" transform="translate(238.916016 0)"/>
      <use xlink:href="#ArialMT-6e" transform="translate(266.699219 0)"/>
      <use xlink:href="#ArialMT-66" transform="translate(322.314453 0)"/>
      <use xlink:href="#ArialMT-6c" transform="translate(350.097656 0)"/>
      <use xlink:href="#ArialMT-61" transform="translate(372.314453 0)"/>
      <use xlink:href="#ArialMT-74" transform="translate(427.929688 0)"/>
      <use xlink:href="#ArialMT-65" transform="translate(455.712891 0)"/>
      <use xlink:href="#ArialMT-64" transform="translate(511.328125 0)"/>
      <use xlink:href="#ArialMT-20" transform="translate(566.943359 0)"/>
      <use xlink:href="#ArialMT-4e" transform="translate(594.726562 0)"/>
      <use xlink:href="#ArialMT-65" transform="translate(666.943359 0)"/>
      <use xlink:href="#ArialMT-67" transform="translate(722.558594 0)"/>
      <use xlink:href="#ArialMT-61" transform="translate(778.173828 0)"/>
      <use xlink:href="#ArialMT-74" transform="translate(833.789062 0)"/>
      <use xlink:href="#ArialMT-69" transform="translate(861.572266 0)"/>
      <use xlink:href="#ArialMT-76" transform="translate(883.789062 0)"/>
      <use xlink:href="#ArialMT-65" transform="translate(933.789062 0)"/>
      <use xlink:href="#ArialMT-20" transform="translate(989.404297 0)"/>
      <use xlink:href="#ArialMT-42" transform="translate(1017.1875 0)"/>
      <use xlink:href="#ArialMT-69" transform="translate(1083.886719 0)"/>
      <use xlink:href="#ArialMT-6e" transform="translate(1106.103516 0)"/>
      <use xlink:href="#ArialMT-6f" transform="translate(1161.71875 0)"/>
      <use xlink:href="#ArialMT-6d" transform="translate(1217.333984 0)"/>
      <use xlink:href="#ArialMT-69" transform="translate(1300.634766 0)"/>
      <use xlink:href="#ArialMT-61" transform="translate(1322.851562 0)"/>
      <use xlink:href="#ArialMT-6c" transform="translate(1378.466797 0)"/>
      <use xlink:href="#ArialMT-20" transform="translate(1400.683594 0)"/>
      <use xlink:href="#ArialMT-46" transform="translate(1428.466797 0)"/>
      <use xlink:href="#ArialMT-6f" transform="translate(1489.550781 0)"/>
      <use xlink:href="#ArialMT-72" transform="translate(1545.166016 0)"/>
      <use xlink:href="#ArialMT-65" transform="translate(1578.466797 0)"/>
      <use xlink:href="#ArialMT-63" transform="translate(1634.082031 0)"/>
      <use xlink:href="#ArialMT-61" transform="translate(1684.082031 0)"/>
      <use xlink:href="#ArialMT-73" transform="translate(1739.697266 0)"/>
      <use xlink:href="#ArialMT-74" transform="translate(1789.697266 0)"/>
      <use xlink:href="#ArialMT-20" transform="translate(1817.480469 0)"/>
      <use xlink:href="#ArialMT-69" transform="translate(1845.263672 0)"/>
      <use xlink:href="#ArialMT-6e" transform="translate(1867.480469 0)"/>
      <use xlink:href="#ArialMT-74" transform="translate(1923.095703 0)"/>
      <use xlink:href="#ArialMT-65" transform="translate(1950.878906 0)"/>
      <use xlink:href="#ArialMT-72" transform="translate(2006.494141 0)"/>
      <use xlink:href="#ArialMT-76" transform="translate(2039.794922 0)"/>
      <use xlink:href="#ArialMT-61" transform="translate(2089.794922 0)"/>
      <use xlink:href="#ArialMT-6c" transform="translate(2145.410156 0)"/>
      <use xlink:href="#ArialMT-20" transform="translate(2167.626953 0)"/>
      <use xlink:href="#ArialMT-77" transform="translate(2195.410156 0)"/>
      <use xlink:href="#ArialMT-69" transform="translate(2267.626953 0)"/>
      <use xlink:href="#ArialMT-64" transform="translate(2289.84375 0)"/>
      <use xlink:href="#ArialMT-74" transform="translate(2345.458984 0)"/>
      <use xlink:href="#ArialMT-68" transform="translate(2373.242188 0)"/>
      <use xlink:href="#ArialMT-20" transform="translate(2428.857422 0)"/>
      <use xlink:href="#ArialMT-37" transform="translate(2456.640625 0)"/>
      <use xlink:href="#ArialMT-64" transform="translate(2512.255859 0)"/>
      <use xlink:href="#ArialMT-20" transform="translate(2567.871094 0)"/>
      <use xlink:href="#ArialMT-6d" transform="translate(2595.654297 0)"/>
      <use xlink:href="#ArialMT-65" transform="translate(2678.955078 0)"/>
      <use xlink:href="#ArialMT-61" transform="translate(2734.570312 0)"/>
      <use xlink:href="#ArialMT-6e" transform="translate(2790.185547 0)"/>
     </g>
    </g>
   </g>
  </g>
 </g>
 <defs>
  <clipPath id="p781b294869">
   <rect x="62.259531" y="21.789375" width="927.18" height="213.06"/>
  </clipPath>
 </defs>
</svg>
