<?xml version="1.0" encoding="utf-8" standalone="no"?>
<!DOCTYPE svg PUBLIC "-//W3C//DTD SVG 1.1//EN"
  "http://www.w3.org/Graphics/SVG/1.1/DTD/svg11.dtd">
<svg xmlns:xlink="http://www.w3.org/1999/xlink" width="996.639531pt" height="276.583594pt" viewBox="0 0 996.639531 276.583594" xmlns="http://www.w3.org/2000/svg" version="1.1">
 <metadata>
  <rdf:RDF xmlns:dc="http://purl.org/dc/elements/1.1/" xmlns:cc="http://creativecommons.org/ns#" xmlns:rdf="http://www.w3.org/1999/02/22-rdf-syntax-ns#">
   <cc:Work>
    <dc:type rdf:resource="http://purl.org/dc/dcmitype/StillImage"/>
    <dc:date>2026-03-17T14:01:35.182035</dc:date>
    <dc:format>image/svg+xml</dc:format>
    <dc:creator>
     <cc:Agent>
      <dc:title>Matplotlib v3.10.8, https://matplotlib.org/</dc:title>
     </cc:Agent>
    </dc:creator>
   </cc:Work>
  </rdf:RDF>
 </metadata>
 <defs>
  <style type="text/css">*{stroke-linejoin: round; stroke-linecap: butt}</style>
 </defs>
 <g id="figure_1">
  <g id="patch_1">
   <path d="M 0 276.583594 
L 996.639531 276.583594 
L 996.639531 0 
L 0 0 
z
" style="fill: #ffffff"/>
  </g>
  <g id="axes_1">
   <g id="patch_2">
    <path d="M 62.259531 234.849375 
L 989.439531 234.849375 
L 989.439531 21.789375 
L 62.259531 21.789375 
z
" style="fill: #ffffff"/>
   </g>
   <g id="matplotlib.axis_1">
    <g id="xtick_1">
     <g id="line2d_1">
      <path d="M 72.337575 234.849375 
L 72.337575 21.789375 
" clip-path="url(#p2a5f791a9a)" style="fill: none; stroke: #cccccc; stroke-linecap: round"/>
     </g>
     <g id="text_1">
      <!-- 2011-06 -->
      <g style="fill: #262626" transform="translate(52.560778 252.222969) scale(0.11 -0.11)">
       <defs>
        <path id="ArialMT-32" d="M 3222 541 
L 3222 0 
L 194 0 
Q 188 203 259 391 
Q 375 700 629 1000 
Q 884 1300 1366 1694 
Q 2113 2306 2375 2664 
Q 2638 3022 2638 3341 
Q 2638 3675 2398 3904 
Q 2159 4134 1775 4134 
Q 1369 4134 1125 3890 
Q 881 3647 878 3216 
L 300 3275 
Q 359 3922 746 4261 
Q 1134 4600 1788 4600 
Q 2447 4600 2831 4234 
Q 3216 3869 3216 3328 
Q 3216 3053 3103 2787 
Q 2991 2522 2730 2228 
Q 2469 1934 1863 1422 
Q 1356 997 1212 845 
Q 1069 694 975 541 
L 3222 541 
z
" transform="scale(0.015625)"/>
        <path id="ArialMT-30" d="M 266 2259 
Q 266 3072 433 3567 
Q 600 4063 929 4331 
Q 1259 4600 1759 4600 
Q 2128 4600 2406 4451 
Q 2684 4303 2865 4023 
Q 3047 3744 3150 3342 
Q 3253 2941 3253 2259 
Q 3253 1453 3087 958 
Q 2922 463 2592 192 
Q 2263 -78 1759 -78 
Q 1097 -78 719 397 
Q 266 969 266 2259 
z
M 844 2259 
Q 844 1131 1108 757 
Q 1372 384 1759 384 
Q 2147 384 2411 759 
Q 2675 1134 2675 2259 
Q 2675 3391 2411 3762 
Q 2147 4134 1753 4134 
Q 1366 4134 1134 3806 
Q 844 3388 844 2259 
z
" transform="scale(0.015625)"/>
        <path id="ArialMT-31" d="M 2384 0 
L 1822 0 
L 1822 3584 
Q 1619 3391 1289 3197 
Q 959 3003 697 2906 
L 697 3450 
Q 1169 3672 1522 3987 
Q 1875 4303 2022 4600 
L 2384 4600 
L 2384 0 
z
" transform="scale(0.015625)"/>
        <path id="ArialMT-2d" d="M 203 1375 
L 203 1941 
L 1931 1941 
L 1931 1375 
L 203 1375 
z
" transform="scale(0.015625)"/>
        <path id="ArialMT-36" d="M 3184 3459 
L 2625 3416 
Q 2550 3747 2413 3897 
Q 2184 4138 1850 4138 
Q 1581 4138 1378 3988 
Q 1113 3794 959 3422 
Q 806 3050 800 2363 
Q 1003 2672 1297 2822 
Q 1591 2972 1913 2972 
Q 2475 2972 2870 2558 
Q 3266 2144 3266 1488 
Q 3266 1056 3080 686 
Q 2894 316 2569 119 
Q 2244 -78 1831 -78 
Q 1128 -78 684 439 
Q 241 956 241 2144 
Q 241 3472 731 4075 
Q 1159 4600 1884 4600 
Q 2425 4600 2770 4297 
Q 3116 3994 3184 3459 
z
M 888 1484 
Q 888 1194 1011 928 
Q 1134 663 1356 523 
Q 1578 384 1822 384 
Q 2178 384 2434 671 
Q 2691 959 2691 1453 
Q 2691 1928 2437 2201 
Q 2184 2475 1800 2475 
Q 1419 2475 1153 2201 
Q 888 1928 888 1484 
z
" transform="scale(0.015625)"/>
       </defs>
       <use xlink:href="#ArialMT-32"/>
       <use xlink:href="#ArialMT-30" transform="translate(55.615234 0)"/>
       <use xlink:href="#ArialMT-31" transform="translate(111.230469 0)"/>
       <use xlink:href="#ArialMT-31" transform="translate(159.470703 0)"/>
       <use xlink:href="#ArialMT-2d" transform="translate(215.085938 0)"/>
       <use xlink:href="#ArialMT-30" transform="translate(248.386719 0)"/>
       <use xlink:href="#ArialMT-36" transform="translate(304.001953 0)"/>
      </g>
     </g>
    </g>
    <g id="xtick_2">
     <g id="line2d_2">
      <path d="M 209.76544 234.849375 
L 209.76544 21.789375 
" clip-path="url(#p2a5f791a9a)" style="fill: none; stroke: #cccccc; stroke-linecap: round"/>
     </g>
     <g id="text_2">
      <!-- 2011-07 -->
      <g style="fill: #262626" transform="translate(189.988643 252.222969) scale(0.11 -0.11)">
       <defs>
        <path id="ArialMT-37" d="M 303 3981 
L 303 4522 
L 3269 4522 
L 3269 4084 
Q 2831 3619 2401 2847 
Q 1972 2075 1738 1259 
Q 1569 684 1522 0 
L 944 0 
Q 953 541 1156 1306 
Q 1359 2072 1739 2783 
Q 2119 3494 2547 3981 
L 303 3981 
z
" transform="scale(0.015625)"/>
       </defs>
       <use xlink:href="#ArialMT-32"/>
       <use xlink:href="#ArialMT-30" transform="translate(55.615234 0)"/>
       <use xlink:href="#ArialMT-31" transform="translate(111.230469 0)"/>
       <use xlink:href="#ArialMT-31" transform="translate(159.470703 0)"/>
       <use xlink:href="#ArialMT-2d" transform="translate(215.085938 0)"/>
       <use xlink:href="#ArialMT-30" transform="translate(248.386719 0)"/>
       <use xlink:href="#ArialMT-37" transform="translate(304.001953 0)"/>
      </g>
     </g>
    </g>
    <g id="xtick_3">
     <g id="line2d_3">
      <path d="M 351.774235 234.849375 
L 351.774235 21.789375 
" clip-path="url(#p2a5f791a9a)" style="fill: none; stroke: #cccccc; stroke-linecap: round"/>
     </g>
     <g id="text_3">
      <!-- 2011-08 -->
      <g style="fill: #262626" transform="translate(331.997438 252.222969) scale(0.11 -0.11)">
       <defs>
        <path id="ArialMT-38" d="M 1131 2484 
Q 781 2613 612 2850 
Q 444 3088 444 3419 
Q 444 3919 803 4259 
Q 1163 4600 1759 4600 
Q 2359 4600 2725 4251 
Q 3091 3903 3091 3403 
Q 3091 3084 2923 2848 
Q 2756 2613 2416 2484 
Q 2838 2347 3058 2040 
Q 3278 1734 3278 1309 
Q 3278 722 2862 322 
Q 2447 -78 1769 -78 
Q 1091 -78 675 323 
Q 259 725 259 1325 
Q 259 1772 486 2073 
Q 713 2375 1131 2484 
z
M 1019 3438 
Q 1019 3113 1228 2906 
Q 1438 2700 1772 2700 
Q 2097 2700 2305 2904 
Q 2513 3109 2513 3406 
Q 2513 3716 2298 3927 
Q 2084 4138 1766 4138 
Q 1444 4138 1231 3931 
Q 1019 3725 1019 3438 
z
M 838 1322 
Q 838 1081 952 856 
Q 1066 631 1291 507 
Q 1516 384 1775 384 
Q 2178 384 2440 643 
Q 2703 903 2703 1303 
Q 2703 1709 2433 1975 
Q 2163 2241 1756 2241 
Q 1359 2241 1098 1978 
Q 838 1716 838 1322 
z
" transform="scale(0.015625)"/>
       </defs>
       <use xlink:href="#ArialMT-32"/>
       <use xlink:href="#ArialMT-30" transform="translate(55.615234 0)"/>
       <use xlink:href="#ArialMT-31" transform="translate(111.230469 0)"/>
       <use xlink:href="#ArialMT-31" transform="translate(159.470703 0)"/>
       <use xlink:href="#ArialMT-2d" transform="translate(215.085938 0)"/>
       <use xlink:href="#ArialMT-30" transform="translate(248.386719 0)"/>
       <use xlink:href="#ArialMT-38" transform="translate(304.001953 0)"/>
      </g>
     </g>
    </g>
    <g id="xtick_4">
     <g id="line2d_4">
      <path d="M 493.783029 234.849375 
L 493.783029 21.789375 
" clip-path="url(#p2a5f791a9a)" style="fill: none; stroke: #cccccc; stroke-linecap: round"/>
     </g>
     <g id="text_4">
      <!-- 2011-09 -->
      <g style="fill: #262626" transform="translate(474.006232 252.222969) scale(0.11 -0.11)">
       <defs>
        <path id="ArialMT-39" d="M 350 1059 
L 891 1109 
Q 959 728 1153 556 
Q 1347 384 1650 384 
Q 1909 384 2104 503 
Q 2300 622 2425 820 
Q 2550 1019 2634 1356 
Q 2719 1694 2719 2044 
Q 2719 2081 2716 2156 
Q 2547 1888 2255 1720 
Q 1963 1553 1622 1553 
Q 1053 1553 659 1965 
Q 266 2378 266 3053 
Q 266 3750 677 4175 
Q 1088 4600 1706 4600 
Q 2153 4600 2523 4359 
Q 2894 4119 3086 3673 
Q 3278 3228 3278 2384 
Q 3278 1506 3087 986 
Q 2897 466 2520 194 
Q 2144 -78 1638 -78 
Q 1100 -78 759 220 
Q 419 519 350 1059 
z
M 2653 3081 
Q 2653 3566 2395 3850 
Q 2138 4134 1775 4134 
Q 1400 4134 1122 3828 
Q 844 3522 844 3034 
Q 844 2597 1108 2323 
Q 1372 2050 1759 2050 
Q 2150 2050 2401 2323 
Q 2653 2597 2653 3081 
z
" transform="scale(0.015625)"/>
       </defs>
       <use xlink:href="#ArialMT-32"/>
       <use xlink:href="#ArialMT-30" transform="translate(55.615234 0)"/>
       <use xlink:href="#ArialMT-31" transform="translate(111.230469 0)"/>
       <use xlink:href="#ArialMT-31" transform="translate(159.470703 0)"/>
       <use xlink:href="#ArialMT-2d" transform="translate(215.085938 0)"/>
       <use xlink:href="#ArialMT-30" transform="translate(248.386719 0)"/>
       <use xlink:href="#ArialMT-39" transform="translate(304.001953 0)"/>
      </g>
     </g>
    </g>
    <g id="xtick_5">
     <g id="line2d_5">
      <path d="M 631.210895 234.849375 
L 631.210895 21.789375 
" clip-path="url(#p2a5f791a9a)" style="fill: none; stroke: #cccccc; stroke-linecap: round"/>
     </g>
     <g id="text_5">
      <!-- 2011-10 -->
      <g style="fill: #262626" transform="translate(611.434098 252.222969) scale(0.11 -0.11)">
       <use xlink:href="#ArialMT-32"/>
       <use xlink:href="#ArialMT-30" transform="translate(55.615234 0)"/>
       <use xlink:href="#ArialMT-31" transform="translate(111.230469 0)"/>
       <use xlink:href="#ArialMT-31" transform="translate(159.470703 0)"/>
       <use xlink:href="#ArialMT-2d" transform="translate(215.085938 0)"/>
       <use xlink:href="#ArialMT-31" transform="translate(248.386719 0)"/>
       <use xlink:href="#ArialMT-30" transform="translate(304.001953 0)"/>
      </g>
     </g>
    </g>
    <g id="xtick_6">
     <g id="line2d_6">
      <path d="M 773.219689 234.849375 
L 773.219689 21.789375 
" clip-path="url(#p2a5f791a9a)" style="fill: none; stroke: #cccccc; stroke-linecap: round"/>
     </g>
     <g id="text_6">
      <!-- 2011-11 -->
      <g style="fill: #262626" transform="translate(753.848517 252.222969) scale(0.11 -0.11)">
       <use xlink:href="#ArialMT-32"/>
       <use xlink:href="#ArialMT-30" transform="translate(55.615234 0)"/>
       <use xlink:href="#ArialMT-31" transform="translate(111.230469 0)"/>
       <use xlink:href="#ArialMT-31" transform="translate(159.470703 0)"/>
       <use xlink:href="#ArialMT-2d" transform="translate(215.085938 0)"/>
       <use xlink:href="#ArialMT-31" transform="translate(248.386719 0)"/>
       <use xlink:href="#ArialMT-31" transform="translate(296.626953 0)"/>
      </g>
     </g>
    </g>
    <g id="xtick_7">
     <g id="line2d_7">
      <path d="M 910.647555 234.849375 
L 910.647555 21.789375 
" clip-path="url(#p2a5f791a9a)" style="fill: none; stroke: #cccccc; stroke-linecap: round"/>
     </g>
     <g id="text_7">
      <!-- 2011-12 -->
      <g style="fill: #262626" transform="translate(890.870758 252.222969) scale(0.11 -0.11)">
       <use xlink:href="#ArialMT-32"/>
       <use xlink:href="#ArialMT-30" transform="translate(55.615234 0)"/>
       <use xlink:href="#ArialMT-31" transform="translate(111.230469 0)"/>
       <use xlink:href="#ArialMT-31" transform="translate(159.470703 0)"/>
       <use xlink:href="#ArialMT-2d" transform="translate(215.085938 0)"/>
       <use xlink:href="#ArialMT-31" transform="translate(248.386719 0)"/>
       <use xlink:href="#ArialMT-32" transform="translate(304.001953 0)"/>
      </g>
     </g>
    </g>
    <g id="text_8">
     <!-- Date -->
     <g style="fill: #262626" transform="translate(513.176406 266.998594) scale(0.12 -0.12)">
      <defs>
       <path id="ArialMT-44" d="M 494 0 
L 494 4581 
L 2072 4581 
Q 2606 4581 2888 4516 
Q 3281 4425 3559 4188 
Q 3922 3881 4101 3404 
Q 4281 2928 4281 2316 
Q 4281 1794 4159 1391 
Q 4038 988 3847 723 
Q 3656 459 3429 307 
Q 3203 156 2883 78 
Q 2563 0 2147 0 
L 494 0 
z
M 1100 541 
L 2078 541 
Q 2531 541 2789 625 
Q 3047 709 3200 863 
Q 3416 1078 3536 1442 
Q 3656 1806 3656 2325 
Q 3656 3044 3420 3430 
Q 3184 3816 2847 3947 
Q 2603 4041 2063 4041 
L 1100 4041 
L 1100 541 
z
" transform="scale(0.015625)"/>
       <path id="ArialMT-61" d="M 2588 409 
Q 2275 144 1986 34 
Q 1697 -75 1366 -75 
Q 819 -75 525 192 
Q 231 459 231 875 
Q 231 1119 342 1320 
Q 453 1522 633 1644 
Q 813 1766 1038 1828 
Q 1203 1872 1538 1913 
Q 2219 1994 2541 2106 
Q 2544 2222 2544 2253 
Q 2544 2597 2384 2738 
Q 2169 2928 1744 2928 
Q 1347 2928 1158 2789 
Q 969 2650 878 2297 
L 328 2372 
Q 403 2725 575 2942 
Q 747 3159 1072 3276 
Q 1397 3394 1825 3394 
Q 2250 3394 2515 3294 
Q 2781 3194 2906 3042 
Q 3031 2891 3081 2659 
Q 3109 2516 3109 2141 
L 3109 1391 
Q 3109 606 3145 398 
Q 3181 191 3288 0 
L 2700 0 
Q 2613 175 2588 409 
z
M 2541 1666 
Q 2234 1541 1622 1453 
Q 1275 1403 1131 1340 
Q 988 1278 909 1158 
Q 831 1038 831 891 
Q 831 666 1001 516 
Q 1172 366 1500 366 
Q 1825 366 2078 508 
Q 2331 650 2450 897 
Q 2541 1088 2541 1459 
L 2541 1666 
z
" transform="scale(0.015625)"/>
       <path id="ArialMT-74" d="M 1650 503 
L 1731 6 
Q 1494 -44 1306 -44 
Q 1000 -44 831 53 
Q 663 150 594 308 
Q 525 466 525 972 
L 525 2881 
L 113 2881 
L 113 3319 
L 525 3319 
L 525 4141 
L 1084 4478 
L 1084 3319 
L 1650 3319 
L 1650 2881 
L 1084 2881 
L 1084 941 
Q 1084 700 1114 631 
Q 1144 563 1211 522 
Q 1278 481 1403 481 
Q 1497 481 1650 503 
z
" transform="scale(0.015625)"/>
       <path id="ArialMT-65" d="M 2694 1069 
L 3275 997 
Q 3138 488 2766 206 
Q 2394 -75 1816 -75 
Q 1088 -75 661 373 
Q 234 822 234 1631 
Q 234 2469 665 2931 
Q 1097 3394 1784 3394 
Q 2450 3394 2872 2941 
Q 3294 2488 3294 1666 
Q 3294 1616 3291 1516 
L 816 1516 
Q 847 969 1125 678 
Q 1403 388 1819 388 
Q 2128 388 2347 550 
Q 2566 713 2694 1069 
z
M 847 1978 
L 2700 1978 
Q 2663 2397 2488 2606 
Q 2219 2931 1791 2931 
Q 1403 2931 1139 2672 
Q 875 2413 847 1978 
z
" transform="scale(0.015625)"/>
      </defs>
      <use xlink:href="#ArialMT-44"/>
      <use xlink:href="#ArialMT-61" transform="translate(72.216797 0)"/>
      <use xlink:href="#ArialMT-74" transform="translate(127.832031 0)"/>
      <use xlink:href="#ArialMT-65" transform="translate(155.615234 0)"/>
     </g>
    </g>
   </g>
   <g id="matplotlib.axis_2">
    <g id="ytick_1">
     <g id="line2d_8">
      <path d="M 62.259531 229.054986 
L 989.439531 229.054986 
" clip-path="url(#p2a5f791a9a)" style="fill: none; stroke: #cccccc; stroke-linecap: round"/>
     </g>
     <g id="text_9">
      <!-- 4000 -->
      <g style="fill: #262626" transform="translate(28.291406 232.991783) scale(0.11 -0.11)">
       <defs>
        <path id="ArialMT-34" d="M 2069 0 
L 2069 1097 
L 81 1097 
L 81 1613 
L 2172 4581 
L 2631 4581 
L 2631 1613 
L 3250 1613 
L 3250 1097 
L 2631 1097 
L 2631 0 
L 2069 0 
z
M 2069 1613 
L 2069 3678 
L 634 1613 
L 2069 1613 
z
" transform="scale(0.015625)"/>
       </defs>
       <use xlink:href="#ArialMT-34"/>
       <use xlink:href="#ArialMT-30" transform="translate(55.615234 0)"/>
       <use xlink:href="#ArialMT-30" transform="translate(111.230469 0)"/>
       <use xlink:href="#ArialMT-30" transform="translate(166.845703 0)"/>
      </g>
     </g>
    </g>
    <g id="ytick_2">
     <g id="line2d_9">
      <path d="M 62.259531 198.245017 
L 989.439531 198.245017 
" clip-path="url(#p2a5f791a9a)" style="fill: none; stroke: #cccccc; stroke-linecap: round"/>
     </g>
     <g id="text_10">
      <!-- 6000 -->
      <g style="fill: #262626" transform="translate(28.291406 202.181814) scale(0.11 -0.11)">
       <use xlink:href="#ArialMT-36"/>
       <use xlink:href="#ArialMT-30" transform="translate(55.615234 0)"/>
       <use xlink:href="#ArialMT-30" transform="translate(111.230469 0)"/>
       <use xlink:href="#ArialMT-30" transform="translate(166.845703 0)"/>
      </g>
     </g>
    </g>
    <g id="ytick_3">
     <g id="line2d_10">
      <path d="M 62.259531 167.435048 
L 989.439531 167.435048 
" clip-path="url(#p2a5f791a9a)" style="fill: none; stroke: #cccccc; stroke-linecap: round"/>
     </g>
     <g id="text_11">
      <!-- 8000 -->
      <g style="fill: #262626" transform="translate(28.291406 171.371845) scale(0.11 -0.11)">
       <use xlink:href="#ArialMT-38"/>
       <use xlink:href="#ArialMT-30" transform="translate(55.615234 0)"/>
       <use xlink:href="#ArialMT-30" transform="translate(111.230469 0)"/>
       <use xlink:href="#ArialMT-30" transform="translate(166.845703 0)"/>
      </g>
     </g>
    </g>
    <g id="ytick_4">
     <g id="line2d_11">
      <path d="M 62.259531 136.62508 
L 989.439531 136.62508 
" clip-path="url(#p2a5f791a9a)" style="fill: none; stroke: #cccccc; stroke-linecap: round"/>
     </g>
     <g id="text_12">
      <!-- 10000 -->
      <g style="fill: #262626" transform="translate(22.174375 140.561876) scale(0.11 -0.11)">
       <use xlink:href="#ArialMT-31"/>
       <use xlink:href="#ArialMT-30" transform="translate(55.615234 0)"/>
       <use xlink:href="#ArialMT-30" transform="translate(111.230469 0)"/>
       <use xlink:href="#ArialMT-30" transform="translate(166.845703 0)"/>
       <use xlink:href="#ArialMT-30" transform="translate(222.460938 0)"/>
      </g>
     </g>
    </g>
    <g id="ytick_5">
     <g id="line2d_12">
      <path d="M 62.259531 105.815111 
L 989.439531 105.815111 
" clip-path="url(#p2a5f791a9a)" style="fill: none; stroke: #cccccc; stroke-linecap: round"/>
     </g>
     <g id="text_13">
      <!-- 12000 -->
      <g style="fill: #262626" transform="translate(22.174375 109.751907) scale(0.11 -0.11)">
       <use xlink:href="#ArialMT-31"/>
       <use xlink:href="#ArialMT-32" transform="translate(55.615234 0)"/>
       <use xlink:href="#ArialMT-30" transform="translate(111.230469 0)"/>
       <use xlink:href="#ArialMT-30" transform="translate(166.845703 0)"/>
       <use xlink:href="#ArialMT-30" transform="translate(222.460938 0)"/>
      </g>
     </g>
    </g>
    <g id="ytick_6">
     <g id="line2d_13">
      <path d="M 62.259531 75.005142 
L 989.439531 75.005142 
" clip-path="url(#p2a5f791a9a)" style="fill: none; stroke: #cccccc; stroke-linecap: round"/>
     </g>
     <g id="text_14">
      <!-- 14000 -->
      <g style="fill: #262626" transform="translate(22.174375 78.941939) scale(0.11 -0.11)">
       <use xlink:href="#ArialMT-31"/>
       <use xlink:href="#ArialMT-34" transform="translate(55.615234 0)"/>
       <use xlink:href="#ArialMT-30" transform="translate(111.230469 0)"/>
       <use xlink:href="#ArialMT-30" transform="translate(166.845703 0)"/>
       <use xlink:href="#ArialMT-30" transform="translate(222.460938 0)"/>
      </g>
     </g>
    </g>
    <g id="ytick_7">
     <g id="line2d_14">
      <path d="M 62.259531 44.195173 
L 989.439531 44.195173 
" clip-path="url(#p2a5f791a9a)" style="fill: none; stroke: #cccccc; stroke-linecap: round"/>
     </g>
     <g id="text_15">
      <!-- 16000 -->
      <g style="fill: #262626" transform="translate(22.174375 48.13197) scale(0.11 -0.11)">
       <use xlink:href="#ArialMT-31"/>
       <use xlink:href="#ArialMT-36" transform="translate(55.615234 0)"/>
       <use xlink:href="#ArialMT-30" transform="translate(111.230469 0)"/>
       <use xlink:href="#ArialMT-30" transform="translate(166.845703 0)"/>
       <use xlink:href="#ArialMT-30" transform="translate(222.460938 0)"/>
      </g>
     </g>
    </g>
    <g id="text_16">
     <!-- Interval width -->
     <g style="fill: #262626" transform="translate(15.789375 163.666875) rotate(-90) scale(0.12 -0.12)">
      <defs>
       <path id="ArialMT-49" d="M 597 0 
L 597 4581 
L 1203 4581 
L 1203 0 
L 597 0 
z
" transform="scale(0.015625)"/>
       <path id="ArialMT-6e" d="M 422 0 
L 422 3319 
L 928 3319 
L 928 2847 
Q 1294 3394 1984 3394 
Q 2284 3394 2536 3286 
Q 2788 3178 2913 3003 
Q 3038 2828 3088 2588 
Q 3119 2431 3119 2041 
L 3119 0 
L 2556 0 
L 2556 2019 
Q 2556 2363 2490 2533 
Q 2425 2703 2258 2804 
Q 2091 2906 1866 2906 
Q 1506 2906 1245 2678 
Q 984 2450 984 1813 
L 984 0 
L 422 0 
z
" transform="scale(0.015625)"/>
       <path id="ArialMT-72" d="M 416 0 
L 416 3319 
L 922 3319 
L 922 2816 
Q 1116 3169 1280 3281 
Q 1444 3394 1641 3394 
Q 1925 3394 2219 3213 
L 2025 2691 
Q 1819 2813 1613 2813 
Q 1428 2813 1281 2702 
Q 1134 2591 1072 2394 
Q 978 2094 978 1738 
L 978 0 
L 416 0 
z
" transform="scale(0.015625)"/>
       <path id="ArialMT-76" d="M 1344 0 
L 81 3319 
L 675 3319 
L 1388 1331 
Q 1503 1009 1600 663 
Q 1675 925 1809 1294 
L 2547 3319 
L 3125 3319 
L 1869 0 
L 1344 0 
z
" transform="scale(0.015625)"/>
       <path id="ArialMT-6c" d="M 409 0 
L 409 4581 
L 972 4581 
L 972 0 
L 409 0 
z
" transform="scale(0.015625)"/>
       <path id="ArialMT-20" transform="scale(0.015625)"/>
       <path id="ArialMT-77" d="M 1034 0 
L 19 3319 
L 600 3319 
L 1128 1403 
L 1325 691 
Q 1338 744 1497 1375 
L 2025 3319 
L 2603 3319 
L 3100 1394 
L 3266 759 
L 3456 1400 
L 4025 3319 
L 4572 3319 
L 3534 0 
L 2950 0 
L 2422 1988 
L 2294 2553 
L 1622 0 
L 1034 0 
z
" transform="scale(0.015625)"/>
       <path id="ArialMT-69" d="M 425 3934 
L 425 4581 
L 988 4581 
L 988 3934 
L 425 3934 
z
M 425 0 
L 425 3319 
L 988 3319 
L 988 0 
L 425 0 
z
" transform="scale(0.015625)"/>
       <path id="ArialMT-64" d="M 2575 0 
L 2575 419 
Q 2259 -75 1647 -75 
Q 1250 -75 917 144 
Q 584 363 401 755 
Q 219 1147 219 1656 
Q 219 2153 384 2558 
Q 550 2963 881 3178 
Q 1213 3394 1622 3394 
Q 1922 3394 2156 3267 
Q 2391 3141 2538 2938 
L 2538 4581 
L 3097 4581 
L 3097 0 
L 2575 0 
z
M 797 1656 
Q 797 1019 1065 703 
Q 1334 388 1700 388 
Q 2069 388 2326 689 
Q 2584 991 2584 1609 
Q 2584 2291 2321 2609 
Q 2059 2928 1675 2928 
Q 1300 2928 1048 2622 
Q 797 2316 797 1656 
z
" transform="scale(0.015625)"/>
       <path id="ArialMT-68" d="M 422 0 
L 422 4581 
L 984 4581 
L 984 2938 
Q 1378 3394 1978 3394 
Q 2347 3394 2619 3248 
Q 2891 3103 3008 2847 
Q 3125 2591 3125 2103 
L 3125 0 
L 2563 0 
L 2563 2103 
Q 2563 2525 2380 2717 
Q 2197 2909 1863 2909 
Q 1613 2909 1392 2779 
Q 1172 2650 1078 2428 
Q 984 2206 984 1816 
L 984 0 
L 422 0 
z
" transform="scale(0.015625)"/>
      </defs>
      <use xlink:href="#ArialMT-49"/>
      <use xlink:href="#ArialMT-6e" transform="translate(27.783203 0)"/>
      <use xlink:href="#ArialMT-74" transform="translate(83.398438 0)"/>
      <use xlink:href="#ArialMT-65" transform="translate(111.181641 0)"/>
      <use xlink:href="#ArialMT-72" transform="translate(166.796875 0)"/>
      <use xlink:href="#ArialMT-76" transform="translate(200.097656 0)"/>
      <use xlink:href="#ArialMT-61" transform="translate(250.097656 0)"/>
      <use xlink:href="#ArialMT-6c" transform="translate(305.712891 0)"/>
      <use xlink:href="#ArialMT-20" transform="translate(327.929688 0)"/>
      <use xlink:href="#ArialMT-77" transform="translate(355.712891 0)"/>
      <use xlink:href="#ArialMT-69" transform="translate(427.929688 0)"/>
      <use xlink:href="#ArialMT-64" transform="translate(450.146484 0)"/>
      <use xlink:href="#ArialMT-74" transform="translate(505.761719 0)"/>
      <use xlink:href="#ArialMT-68" transform="translate(533.544922 0)"/>
     </g>
    </g>
   </g>
   <g id="line2d_15">
    <path d="M 104.404077 45.933694 
L 131.88965 45.933694 
L 136.470579 121.793675 
L 141.051508 134.28846 
L 145.632436 124.834223 
L 150.213365 134.168142 
L 154.794294 141.633383 
L 159.375223 148.438001 
L 163.956152 150.889157 
L 168.537081 143.086646 
L 173.11801 146.564953 
L 177.698938 140.556458 
L 186.860796 149.280499 
L 191.441725 148.227286 
L 196.022654 148.761556 
L 200.603583 151.309566 
L 205.184511 154.416356 
L 209.76544 123.816693 
L 214.346369 125.206138 
L 218.927298 128.671569 
L 223.508227 131.928965 
L 228.089156 134.10267 
L 232.670085 134.411573 
L 237.251013 137.030812 
L 241.831942 115.342476 
L 246.412871 116.789184 
L 255.574729 122.303104 
L 260.155658 124.705198 
L 264.736587 125.05543 
L 269.317515 127.176369 
L 273.898444 129.026391 
L 278.479373 130.49935 
L 283.060302 132.620355 
L 287.641231 133.707074 
L 292.22216 135.664564 
L 296.803089 136.783566 
L 301.384017 137.4231 
L 305.964946 137.818587 
L 310.545875 139.365166 
L 315.126804 141.048593 
L 319.707733 141.301406 
L 324.288662 142.881142 
L 333.450519 143.029857 
L 338.031448 141.414222 
L 347.193306 144.25454 
L 351.774235 144.73302 
L 356.355164 145.766333 
L 360.936093 147.031065 
L 365.517021 146.814897 
L 370.09795 146.88388 
L 374.678879 147.641618 
L 379.259808 148.854752 
L 383.840737 148.79759 
L 388.421666 149.788116 
L 393.002594 150.643207 
L 397.583523 151.712096 
L 406.745381 153.292824 
L 415.907239 155.301737 
L 420.488168 155.215819 
L 425.069096 156.17835 
L 429.650025 144.01779 
L 434.230954 144.391091 
L 438.811883 145.133192 
L 443.392812 146.132204 
L 447.973741 146.5801 
L 452.55467 140.827727 
L 457.135598 141.710701 
L 461.716527 135.593401 
L 466.297456 136.376263 
L 470.878385 137.013323 
L 480.040243 138.914354 
L 484.621172 129.490277 
L 489.2021 129.776884 
L 493.783029 126.694719 
L 498.363958 127.208198 
L 502.944887 126.606508 
L 512.106745 128.442926 
L 516.687674 125.050832 
L 521.268602 125.463482 
L 530.43046 125.547587 
L 535.011389 125.370205 
L 539.592318 126.251493 
L 544.173247 123.969224 
L 548.754176 124.839754 
L 553.335104 122.645689 
L 557.916033 123.426017 
L 562.496962 121.985664 
L 567.077891 122.683238 
L 571.65882 123.512213 
L 576.239749 121.861076 
L 580.820677 122.227292 
L 585.401606 76.330707 
L 589.982535 75.779148 
L 594.563464 76.258605 
L 599.144393 76.952331 
L 603.725322 77.928757 
L 608.306251 78.292502 
L 612.887179 79.150126 
L 617.468108 31.47392 
L 622.049037 32.622551 
L 631.210895 34.216942 
L 635.791824 35.331137 
L 640.372753 34.818898 
L 644.953681 33.747341 
L 649.53461 34.177975 
L 654.115539 35.253958 
L 658.696468 36.202757 
L 663.277397 36.900244 
L 672.439255 38.910249 
L 677.020183 39.02448 
L 681.601112 39.887037 
L 686.182041 40.350735 
L 690.76297 40.239782 
L 695.343899 40.985104 
L 704.505757 42.815002 
L 709.086685 43.515255 
L 722.829472 46.28128 
L 731.99133 48.003818 
L 736.572259 48.539002 
L 741.153187 49.412075 
L 745.734116 50.077314 
L 754.895974 51.780244 
L 759.476903 52.434863 
L 764.057832 53.268386 
L 768.63876 52.976581 
L 773.219689 51.125846 
L 777.800618 50.594947 
L 782.381547 50.880606 
L 791.543405 50.460699 
L 800.705262 52.050608 
L 805.286191 51.811284 
L 809.86712 50.114999 
L 814.448049 50.197193 
L 823.609907 51.622493 
L 828.190836 52.378342 
L 832.771764 53.016296 
L 837.352693 51.325053 
L 841.933622 51.58889 
L 846.514551 52.139784 
L 851.09548 51.582377 
L 855.676409 52.125499 
L 864.838266 53.570686 
L 869.419195 40.671638 
L 874.000124 41.41434 
L 878.581053 41.910082 
L 892.32384 44.065209 
L 901.485697 45.060209 
L 906.066626 44.988828 
L 910.647555 44.628624 
L 919.809413 45.869223 
L 928.97127 47.22076 
L 933.552199 44.990938 
L 938.133128 44.65841 
L 942.714057 45.302155 
L 947.294986 45.364286 
L 947.294986 45.364286 
" clip-path="url(#p2a5f791a9a)" style="fill: none; stroke: #ff7f0e; stroke-opacity: 0.35; stroke-width: 1.2; stroke-linecap: round"/>
   </g>
   <g id="line2d_16">
    <path d="M 104.404077 104.795395 
L 131.88965 104.795395 
L 136.470579 220.245147 
L 141.051508 225.16483 
L 145.632436 173.898188 
L 150.213365 180.137339 
L 154.794294 182.995084 
L 159.375223 187.967602 
L 163.956152 192.301739 
L 168.537081 194.215493 
L 173.11801 196.378744 
L 177.698938 198.967733 
L 182.279867 201.867756 
L 186.860796 203.025859 
L 191.441725 202.549983 
L 196.022654 203.557608 
L 205.184511 205.898805 
L 209.76544 147.97536 
L 214.346369 148.380582 
L 218.927298 150.578523 
L 223.508227 151.904592 
L 228.089156 154.556978 
L 232.670085 154.532357 
L 246.412871 161.319324 
L 250.9938 162.801829 
L 255.574729 163.88184 
L 264.736587 167.518845 
L 273.898444 170.701875 
L 278.479373 171.678524 
L 283.060302 172.811649 
L 292.22216 175.787806 
L 296.803089 174.724077 
L 301.384017 175.503153 
L 305.964946 174.657032 
L 310.545875 175.872537 
L 315.126804 176.687955 
L 319.707733 176.547321 
L 328.869591 178.793142 
L 333.450519 179.758626 
L 338.031448 168.11778 
L 342.612377 169.054662 
L 347.193306 169.784933 
L 351.774235 170.927991 
L 360.936093 172.946964 
L 365.517021 173.451833 
L 370.09795 171.659236 
L 374.678879 172.679145 
L 379.259808 173.253315 
L 383.840737 173.696325 
L 388.421666 174.65481 
L 397.583523 175.878889 
L 402.164452 175.570623 
L 406.745381 176.443805 
L 411.32631 176.925838 
L 415.907239 176.943793 
L 420.488168 177.377148 
L 425.069096 178.098816 
L 429.650025 161.137707 
L 434.230954 161.980124 
L 438.811883 162.681795 
L 443.392812 163.224958 
L 447.973741 164.027415 
L 452.55467 161.798623 
L 457.135598 162.566118 
L 461.716527 162.806698 
L 470.878385 164.390293 
L 475.459314 164.852004 
L 480.040243 165.459004 
L 489.2021 166.449812 
L 493.783029 165.772599 
L 498.363958 165.824568 
L 502.944887 165.369367 
L 507.525816 165.79066 
L 512.106745 166.484796 
L 516.687674 166.856353 
L 525.849531 168.15316 
L 530.43046 168.664327 
L 535.011389 169.321167 
L 539.592318 169.69019 
L 544.173247 167.373485 
L 548.754176 168.016864 
L 553.335104 166.645031 
L 557.916033 167.002335 
L 562.496962 166.577429 
L 567.077891 167.156124 
L 571.65882 167.480388 
L 580.820677 168.486891 
L 585.401606 94.552124 
L 589.982535 95.457534 
L 594.563464 95.640017 
L 599.144393 96.55265 
L 603.725322 97.214886 
L 608.306251 98.075124 
L 612.887179 98.46569 
L 617.468108 98.663835 
L 626.629966 100.291572 
L 631.210895 100.090443 
L 635.791824 100.696423 
L 640.372753 100.59538 
L 644.953681 99.750013 
L 654.115539 101.335051 
L 658.696468 101.822401 
L 663.277397 102.599113 
L 677.020183 104.37188 
L 681.601112 105.101315 
L 686.182041 105.595062 
L 722.829472 110.546741 
L 727.410401 110.745485 
L 731.99133 111.212923 
L 736.572259 111.471961 
L 741.153187 112.11836 
L 745.734116 111.445468 
L 750.315045 112.061519 
L 754.895974 112.556722 
L 759.476903 113.184177 
L 768.63876 113.993521 
L 773.219689 111.692544 
L 782.381547 112.555504 
L 786.962476 112.158092 
L 791.543405 112.395532 
L 796.124334 112.790538 
L 800.705262 113.304419 
L 805.286191 111.843705 
L 809.86712 112.232176 
L 814.448049 111.68184 
L 819.028978 111.263377 
L 828.190836 111.872914 
L 832.771764 112.423917 
L 837.352693 100.475698 
L 855.676409 102.481316 
L 860.257338 102.84606 
L 874.000124 104.376587 
L 878.581053 103.656347 
L 892.32384 104.770536 
L 896.904768 105.22026 
L 901.485697 105.246512 
L 906.066626 104.522572 
L 910.647555 104.999668 
L 915.228484 104.789489 
L 919.809413 104.749907 
L 924.390342 105.078854 
L 928.97127 104.787147 
L 933.552199 103.804891 
L 938.133128 103.829678 
L 942.714057 104.343696 
L 947.294986 104.557441 
L 947.294986 104.557441 
" clip-path="url(#p2a5f791a9a)" style="fill: none; stroke: #2ca02c; stroke-opacity: 0.35; stroke-width: 1.2; stroke-linecap: round"/>
   </g>
   <g id="line2d_17">
    <path d="M 131.88965 45.933694 
L 136.470579 56.770834 
L 141.051508 69.392943 
L 145.632436 80.664447 
L 150.213365 93.269369 
L 154.794294 106.940753 
L 163.956152 136.577863 
L 168.537081 139.619716 
L 173.11801 141.373501 
L 177.698938 143.619534 
L 182.279867 145.158263 
L 186.860796 146.250708 
L 191.441725 146.220606 
L 196.022654 145.916663 
L 205.184511 148.212995 
L 209.76544 145.8216 
L 218.927298 140.058452 
L 223.508227 137.73012 
L 228.089156 135.635994 
L 237.251013 130.738346 
L 250.9938 127.030676 
L 269.317515 121.568687 
L 283.060302 127.340885 
L 296.803089 132.211096 
L 301.384017 133.674914 
L 315.126804 137.401521 
L 324.288662 139.517366 
L 333.450519 141.197804 
L 351.774235 143.155194 
L 356.355164 143.567364 
L 365.517021 144.69254 
L 374.678879 146.160765 
L 383.840737 147.398591 
L 397.583523 149.188751 
L 425.069096 154.07783 
L 434.230954 151.81924 
L 447.973741 148.235506 
L 457.135598 144.113258 
L 470.878385 140.604817 
L 480.040243 138.344333 
L 489.2021 135.019867 
L 498.363958 132.438903 
L 512.106745 127.967356 
L 521.268602 126.716949 
L 539.592318 125.948876 
L 544.173247 125.309775 
L 548.754176 125.279621 
L 571.65882 123.294543 
L 580.820677 122.62017 
L 603.725322 89.619702 
L 631.210895 52.438028 
L 640.372753 40.142139 
L 644.953681 33.656027 
L 667.858326 35.577124 
L 672.439255 36.161603 
L 686.182041 38.459171 
L 709.086685 41.392369 
L 718.248543 42.763185 
L 745.734116 47.828799 
L 764.057832 50.920222 
L 768.63876 51.554162 
L 773.219689 51.798987 
L 782.381547 51.865925 
L 786.962476 51.712969 
L 796.124334 51.143941 
L 800.705262 51.011659 
L 805.286191 51.109579 
L 819.028978 50.964563 
L 832.771764 51.428345 
L 837.352693 51.358883 
L 851.09548 51.950462 
L 864.838266 52.168745 
L 874.000124 49.193322 
L 878.581053 47.731936 
L 896.904768 42.654209 
L 901.485697 43.281148 
L 906.066626 43.791789 
L 928.97127 45.649606 
L 947.294986 45.708768 
L 947.294986 45.708768 
" clip-path="url(#p2a5f791a9a)" style="fill: none; stroke: #ff7f0e; stroke-width: 2; stroke-linecap: round"/>
   </g>
   <g id="line2d_18">
    <path d="M 131.88965 104.795395 
L 136.470579 121.288217 
L 141.051508 138.48385 
L 145.632436 148.355678 
L 150.213365 159.118813 
L 154.794294 170.290197 
L 159.375223 182.171941 
L 163.956152 194.672847 
L 168.537081 190.954325 
L 173.11801 186.842027 
L 177.698938 190.423391 
L 182.279867 193.527736 
L 186.860796 196.389275 
L 191.441725 198.472472 
L 200.603583 201.589604 
L 205.184511 202.949613 
L 209.76544 195.664988 
L 218.927298 180.531487 
L 223.508227 173.296431 
L 237.251013 152.108171 
L 241.831942 153.699321 
L 250.9938 157.293899 
L 273.898444 165.862886 
L 292.22216 171.698552 
L 301.384017 173.647902 
L 315.126804 175.365827 
L 324.288662 175.959729 
L 333.450519 177.148949 
L 351.774235 173.451881 
L 365.517021 170.886023 
L 383.840737 172.800688 
L 402.164452 174.428769 
L 415.907239 175.955147 
L 425.069096 176.748416 
L 429.650025 174.642533 
L 447.973741 166.932566 
L 457.135598 162.488106 
L 480.040243 163.637639 
L 489.2021 164.780314 
L 498.363958 165.523134 
L 521.268602 166.233474 
L 530.43046 166.979234 
L 539.592318 168.100852 
L 548.754176 168.393595 
L 557.916033 168.101914 
L 571.65882 167.178808 
L 580.820677 167.333765 
L 594.563464 136.680177 
L 612.887179 96.565432 
L 635.791824 99.393103 
L 640.372753 99.753139 
L 649.53461 100.205804 
L 663.277397 101.049506 
L 672.439255 101.833814 
L 690.76297 104.379668 
L 727.410401 109.254035 
L 736.572259 110.268868 
L 741.153187 110.754773 
L 768.63876 112.710721 
L 773.219689 112.64989 
L 782.381547 112.814963 
L 791.543405 112.645352 
L 800.705262 112.429089 
L 809.86712 112.468567 
L 832.771764 111.833525 
L 841.933622 108.601044 
L 846.514551 107.146022 
L 860.257338 103.228292 
L 864.838266 101.935449 
L 874.000124 102.908594 
L 892.32384 104.072326 
L 901.485697 104.530729 
L 906.066626 104.551584 
L 915.228484 104.854253 
L 928.97127 104.882021 
L 938.133128 104.577091 
L 947.294986 104.450231 
L 947.294986 104.450231 
" clip-path="url(#p2a5f791a9a)" style="fill: none; stroke: #2ca02c; stroke-width: 2; stroke-linecap: round"/>
   </g>
   <g id="patch_3">
    <path d="M 62.259531 234.849375 
L 62.259531 21.789375 
" style="fill: none; stroke: #cccccc; stroke-width: 1.25; stroke-linejoin: miter; stroke-linecap: square"/>
   </g>
   <g id="patch_4">
    <path d="M 989.439531 234.849375 
L 989.439531 21.789375 
" style="fill: none; stroke: #cccccc; stroke-width: 1.25; stroke-linejoin: miter; stroke-linecap: square"/>
   </g>
   <g id="patch_5">
    <path d="M 62.259531 234.849375 
L 989.439531 234.849375 
" style="fill: none; stroke: #cccccc; stroke-width: 1.25; stroke-linejoin: miter; stroke-linecap: square"/>
   </g>
   <g id="patch_6">
    <path d="M 62.259531 21.789375 
L 989.439531 21.789375 
" style="fill: none; stroke: #cccccc; stroke-width: 1.25; stroke-linejoin: miter; stroke-linecap: square"/>
   </g>
   <g id="text_17">
    <!-- C1 95% Prediction Interval Width Over Time -->
    <g style="fill: #262626" transform="translate(401.313906 15.789375) scale(0.12 -0.12)">
     <defs>
      <path id="Arial-BoldMT-43" d="M 3397 1684 
L 4294 1400 
Q 4088 650 3608 286 
Q 3128 -78 2391 -78 
Q 1478 -78 890 545 
Q 303 1169 303 2250 
Q 303 3394 893 4026 
Q 1484 4659 2447 4659 
Q 3288 4659 3813 4163 
Q 4125 3869 4281 3319 
L 3366 3100 
Q 3284 3456 3026 3662 
Q 2769 3869 2400 3869 
Q 1891 3869 1573 3503 
Q 1256 3138 1256 2319 
Q 1256 1450 1568 1081 
Q 1881 713 2381 713 
Q 2750 713 3015 947 
Q 3281 1181 3397 1684 
z
" transform="scale(0.015625)"/>
      <path id="Arial-BoldMT-31" d="M 2519 0 
L 1641 0 
L 1641 3309 
Q 1159 2859 506 2644 
L 506 3441 
Q 850 3553 1253 3867 
Q 1656 4181 1806 4600 
L 2519 4600 
L 2519 0 
z
" transform="scale(0.015625)"/>
      <path id="Arial-BoldMT-20" transform="scale(0.015625)"/>
      <path id="Arial-BoldMT-39" d="M 291 1059 
L 1141 1153 
Q 1172 894 1303 769 
Q 1434 644 1650 644 
Q 1922 644 2112 894 
Q 2303 1144 2356 1931 
Q 2025 1547 1528 1547 
Q 988 1547 595 1964 
Q 203 2381 203 3050 
Q 203 3747 617 4173 
Q 1031 4600 1672 4600 
Q 2369 4600 2816 4061 
Q 3263 3522 3263 2288 
Q 3263 1031 2797 475 
Q 2331 -81 1584 -81 
Q 1047 -81 715 205 
Q 384 491 291 1059 
z
M 2278 2978 
Q 2278 3403 2083 3637 
Q 1888 3872 1631 3872 
Q 1388 3872 1227 3680 
Q 1066 3488 1066 3050 
Q 1066 2606 1241 2398 
Q 1416 2191 1678 2191 
Q 1931 2191 2104 2391 
Q 2278 2591 2278 2978 
z
" transform="scale(0.015625)"/>
      <path id="Arial-BoldMT-35" d="M 284 1178 
L 1159 1269 
Q 1197 972 1381 798 
Q 1566 625 1806 625 
Q 2081 625 2272 848 
Q 2463 1072 2463 1522 
Q 2463 1944 2273 2155 
Q 2084 2366 1781 2366 
Q 1403 2366 1103 2031 
L 391 2134 
L 841 4519 
L 3163 4519 
L 3163 3697 
L 1506 3697 
L 1369 2919 
Q 1663 3066 1969 3066 
Q 2553 3066 2959 2641 
Q 3366 2216 3366 1538 
Q 3366 972 3038 528 
Q 2591 -78 1797 -78 
Q 1163 -78 763 262 
Q 363 603 284 1178 
z
" transform="scale(0.015625)"/>
      <path id="Arial-BoldMT-25" d="M 278 3450 
Q 278 4066 548 4362 
Q 819 4659 1281 4659 
Q 1759 4659 2029 4364 
Q 2300 4069 2300 3450 
Q 2300 2834 2029 2537 
Q 1759 2241 1297 2241 
Q 819 2241 548 2536 
Q 278 2831 278 3450 
z
M 963 3456 
Q 963 3009 1066 2856 
Q 1144 2744 1281 2744 
Q 1422 2744 1500 2856 
Q 1600 3009 1600 3456 
Q 1600 3903 1500 4053 
Q 1422 4169 1281 4169 
Q 1144 4169 1066 4056 
Q 963 3903 963 3456 
z
M 1950 -175 
L 1300 -175 
L 3741 4659 
L 4372 4659 
L 1950 -175 
z
M 3369 1028 
Q 3369 1644 3639 1941 
Q 3909 2238 4378 2238 
Q 4850 2238 5120 1941 
Q 5391 1644 5391 1028 
Q 5391 409 5120 112 
Q 4850 -184 4388 -184 
Q 3909 -184 3639 112 
Q 3369 409 3369 1028 
z
M 4053 1031 
Q 4053 584 4156 434 
Q 4234 319 4372 319 
Q 4513 319 4588 431 
Q 4691 584 4691 1031 
Q 4691 1478 4591 1631 
Q 4513 1744 4372 1744 
Q 4231 1744 4156 1631 
Q 4053 1478 4053 1031 
z
" transform="scale(0.015625)"/>
      <path id="Arial-BoldMT-50" d="M 466 0 
L 466 4581 
L 1950 4581 
Q 2794 4581 3050 4513 
Q 3444 4409 3709 4064 
Q 3975 3719 3975 3172 
Q 3975 2750 3822 2462 
Q 3669 2175 3433 2011 
Q 3197 1847 2953 1794 
Q 2622 1728 1994 1728 
L 1391 1728 
L 1391 0 
L 466 0 
z
M 1391 3806 
L 1391 2506 
L 1897 2506 
Q 2444 2506 2628 2578 
Q 2813 2650 2917 2803 
Q 3022 2956 3022 3159 
Q 3022 3409 2875 3571 
Q 2728 3734 2503 3775 
Q 2338 3806 1838 3806 
L 1391 3806 
z
" transform="scale(0.015625)"/>
      <path id="Arial-BoldMT-72" d="M 1300 0 
L 422 0 
L 422 3319 
L 1238 3319 
L 1238 2847 
Q 1447 3181 1614 3287 
Q 1781 3394 1994 3394 
Q 2294 3394 2572 3228 
L 2300 2463 
Q 2078 2606 1888 2606 
Q 1703 2606 1575 2504 
Q 1447 2403 1373 2137 
Q 1300 1872 1300 1025 
L 1300 0 
z
" transform="scale(0.015625)"/>
      <path id="Arial-BoldMT-65" d="M 2381 1056 
L 3256 909 
Q 3088 428 2723 176 
Q 2359 -75 1813 -75 
Q 947 -75 531 491 
Q 203 944 203 1634 
Q 203 2459 634 2926 
Q 1066 3394 1725 3394 
Q 2466 3394 2894 2905 
Q 3322 2416 3303 1406 
L 1103 1406 
Q 1113 1016 1316 798 
Q 1519 581 1822 581 
Q 2028 581 2168 693 
Q 2309 806 2381 1056 
z
M 2431 1944 
Q 2422 2325 2234 2523 
Q 2047 2722 1778 2722 
Q 1491 2722 1303 2513 
Q 1116 2303 1119 1944 
L 2431 1944 
z
" transform="scale(0.015625)"/>
      <path id="Arial-BoldMT-64" d="M 3503 0 
L 2688 0 
L 2688 488 
Q 2484 203 2207 64 
Q 1931 -75 1650 -75 
Q 1078 -75 670 386 
Q 263 847 263 1672 
Q 263 2516 659 2955 
Q 1056 3394 1663 3394 
Q 2219 3394 2625 2931 
L 2625 4581 
L 3503 4581 
L 3503 0 
z
M 1159 1731 
Q 1159 1200 1306 963 
Q 1519 619 1900 619 
Q 2203 619 2415 876 
Q 2628 1134 2628 1647 
Q 2628 2219 2422 2470 
Q 2216 2722 1894 2722 
Q 1581 2722 1370 2473 
Q 1159 2225 1159 1731 
z
" transform="scale(0.015625)"/>
      <path id="Arial-BoldMT-69" d="M 459 3769 
L 459 4581 
L 1338 4581 
L 1338 3769 
L 459 3769 
z
M 459 0 
L 459 3319 
L 1338 3319 
L 1338 0 
L 459 0 
z
" transform="scale(0.015625)"/>
      <path id="Arial-BoldMT-63" d="M 3353 2338 
L 2488 2181 
Q 2444 2441 2289 2572 
Q 2134 2703 1888 2703 
Q 1559 2703 1364 2476 
Q 1169 2250 1169 1719 
Q 1169 1128 1367 884 
Q 1566 641 1900 641 
Q 2150 641 2309 783 
Q 2469 925 2534 1272 
L 3397 1125 
Q 3263 531 2881 228 
Q 2500 -75 1859 -75 
Q 1131 -75 698 384 
Q 266 844 266 1656 
Q 266 2478 700 2936 
Q 1134 3394 1875 3394 
Q 2481 3394 2839 3133 
Q 3197 2872 3353 2338 
z
" transform="scale(0.015625)"/>
      <path id="Arial-BoldMT-74" d="M 1981 3319 
L 1981 2619 
L 1381 2619 
L 1381 1281 
Q 1381 875 1398 808 
Q 1416 741 1477 697 
Q 1538 653 1625 653 
Q 1747 653 1978 738 
L 2053 56 
Q 1747 -75 1359 -75 
Q 1122 -75 931 4 
Q 741 84 652 211 
Q 563 338 528 553 
Q 500 706 500 1172 
L 500 2619 
L 97 2619 
L 97 3319 
L 500 3319 
L 500 3978 
L 1381 4491 
L 1381 3319 
L 1981 3319 
z
" transform="scale(0.015625)"/>
      <path id="Arial-BoldMT-6f" d="M 256 1706 
Q 256 2144 472 2553 
Q 688 2963 1083 3178 
Q 1478 3394 1966 3394 
Q 2719 3394 3200 2905 
Q 3681 2416 3681 1669 
Q 3681 916 3195 420 
Q 2709 -75 1972 -75 
Q 1516 -75 1102 131 
Q 688 338 472 736 
Q 256 1134 256 1706 
z
M 1156 1659 
Q 1156 1166 1390 903 
Q 1625 641 1969 641 
Q 2313 641 2545 903 
Q 2778 1166 2778 1666 
Q 2778 2153 2545 2415 
Q 2313 2678 1969 2678 
Q 1625 2678 1390 2415 
Q 1156 2153 1156 1659 
z
" transform="scale(0.015625)"/>
      <path id="Arial-BoldMT-6e" d="M 3478 0 
L 2600 0 
L 2600 1694 
Q 2600 2231 2544 2389 
Q 2488 2547 2361 2634 
Q 2234 2722 2056 2722 
Q 1828 2722 1647 2597 
Q 1466 2472 1398 2265 
Q 1331 2059 1331 1503 
L 1331 0 
L 453 0 
L 453 3319 
L 1269 3319 
L 1269 2831 
Q 1703 3394 2363 3394 
Q 2653 3394 2893 3289 
Q 3134 3184 3257 3021 
Q 3381 2859 3429 2653 
Q 3478 2447 3478 2063 
L 3478 0 
z
" transform="scale(0.015625)"/>
      <path id="Arial-BoldMT-49" d="M 438 0 
L 438 4581 
L 1363 4581 
L 1363 0 
L 438 0 
z
" transform="scale(0.015625)"/>
      <path id="Arial-BoldMT-76" d="M 1372 0 
L 34 3319 
L 956 3319 
L 1581 1625 
L 1763 1059 
Q 1834 1275 1853 1344 
Q 1897 1484 1947 1625 
L 2578 3319 
L 3481 3319 
L 2163 0 
L 1372 0 
z
" transform="scale(0.015625)"/>
      <path id="Arial-BoldMT-61" d="M 1116 2306 
L 319 2450 
Q 453 2931 781 3162 
Q 1109 3394 1756 3394 
Q 2344 3394 2631 3255 
Q 2919 3116 3036 2902 
Q 3153 2688 3153 2116 
L 3144 1091 
Q 3144 653 3186 445 
Q 3228 238 3344 0 
L 2475 0 
Q 2441 88 2391 259 
Q 2369 338 2359 363 
Q 2134 144 1878 34 
Q 1622 -75 1331 -75 
Q 819 -75 523 203 
Q 228 481 228 906 
Q 228 1188 362 1408 
Q 497 1628 739 1745 
Q 981 1863 1438 1950 
Q 2053 2066 2291 2166 
L 2291 2253 
Q 2291 2506 2166 2614 
Q 2041 2722 1694 2722 
Q 1459 2722 1328 2630 
Q 1197 2538 1116 2306 
z
M 2291 1594 
Q 2122 1538 1756 1459 
Q 1391 1381 1278 1306 
Q 1106 1184 1106 997 
Q 1106 813 1243 678 
Q 1381 544 1594 544 
Q 1831 544 2047 700 
Q 2206 819 2256 991 
Q 2291 1103 2291 1419 
L 2291 1594 
z
" transform="scale(0.015625)"/>
      <path id="Arial-BoldMT-6c" d="M 459 0 
L 459 4581 
L 1338 4581 
L 1338 0 
L 459 0 
z
" transform="scale(0.015625)"/>
      <path id="Arial-BoldMT-57" d="M 1116 0 
L 22 4581 
L 969 4581 
L 1659 1434 
L 2497 4581 
L 3597 4581 
L 4400 1381 
L 5103 4581 
L 6034 4581 
L 4922 0 
L 3941 0 
L 3028 3425 
L 2119 0 
L 1116 0 
z
" transform="scale(0.015625)"/>
      <path id="Arial-BoldMT-68" d="M 1334 4581 
L 1334 2897 
Q 1759 3394 2350 3394 
Q 2653 3394 2897 3281 
Q 3141 3169 3264 2994 
Q 3388 2819 3433 2606 
Q 3478 2394 3478 1947 
L 3478 0 
L 2600 0 
L 2600 1753 
Q 2600 2275 2550 2415 
Q 2500 2556 2373 2639 
Q 2247 2722 2056 2722 
Q 1838 2722 1666 2615 
Q 1494 2509 1414 2295 
Q 1334 2081 1334 1663 
L 1334 0 
L 456 0 
L 456 4581 
L 1334 4581 
z
" transform="scale(0.015625)"/>
      <path id="Arial-BoldMT-4f" d="M 278 2263 
Q 278 2963 488 3438 
Q 644 3788 914 4066 
Q 1184 4344 1506 4478 
Q 1934 4659 2494 4659 
Q 3506 4659 4114 4031 
Q 4722 3403 4722 2284 
Q 4722 1175 4119 548 
Q 3516 -78 2506 -78 
Q 1484 -78 881 545 
Q 278 1169 278 2263 
z
M 1231 2294 
Q 1231 1516 1590 1114 
Q 1950 713 2503 713 
Q 3056 713 3411 1111 
Q 3766 1509 3766 2306 
Q 3766 3094 3420 3481 
Q 3075 3869 2503 3869 
Q 1931 3869 1581 3476 
Q 1231 3084 1231 2294 
z
" transform="scale(0.015625)"/>
      <path id="Arial-BoldMT-54" d="M 1497 0 
L 1497 3806 
L 138 3806 
L 138 4581 
L 3778 4581 
L 3778 3806 
L 2422 3806 
L 2422 0 
L 1497 0 
z
" transform="scale(0.015625)"/>
      <path id="Arial-BoldMT-6d" d="M 394 3319 
L 1203 3319 
L 1203 2866 
Q 1638 3394 2238 3394 
Q 2556 3394 2790 3262 
Q 3025 3131 3175 2866 
Q 3394 3131 3647 3262 
Q 3900 3394 4188 3394 
Q 4553 3394 4806 3245 
Q 5059 3097 5184 2809 
Q 5275 2597 5275 2122 
L 5275 0 
L 4397 0 
L 4397 1897 
Q 4397 2391 4306 2534 
Q 4184 2722 3931 2722 
Q 3747 2722 3584 2609 
Q 3422 2497 3350 2280 
Q 3278 2063 3278 1594 
L 3278 0 
L 2400 0 
L 2400 1819 
Q 2400 2303 2353 2443 
Q 2306 2584 2207 2653 
Q 2109 2722 1941 2722 
Q 1738 2722 1575 2612 
Q 1413 2503 1342 2297 
Q 1272 2091 1272 1613 
L 1272 0 
L 394 0 
L 394 3319 
z
" transform="scale(0.015625)"/>
     </defs>
     <use xlink:href="#Arial-BoldMT-43"/>
     <use xlink:href="#Arial-BoldMT-31" transform="translate(72.216797 0)"/>
     <use xlink:href="#Arial-BoldMT-20" transform="translate(127.832031 0)"/>
     <use xlink:href="#Arial-BoldMT-39" transform="translate(155.615234 0)"/>
     <use xlink:href="#Arial-BoldMT-35" transform="translate(211.230469 0)"/>
     <use xlink:href="#Arial-BoldMT-25" transform="translate(266.845703 0)"/>
     <use xlink:href="#Arial-BoldMT-20" transform="translate(355.761719 0)"/>
     <use xlink:href="#Arial-BoldMT-50" transform="translate(383.544922 0)"/>
     <use xlink:href="#Arial-BoldMT-72" transform="translate(450.244141 0)"/>
     <use xlink:href="#Arial-BoldMT-65" transform="translate(489.160156 0)"/>
     <use xlink:href="#Arial-BoldMT-64" transform="translate(544.775391 0)"/>
     <use xlink:href="#Arial-BoldMT-69" transform="translate(605.859375 0)"/>
     <use xlink:href="#Arial-BoldMT-63" transform="translate(633.642578 0)"/>
     <use xlink:href="#Arial-BoldMT-74" transform="translate(689.257812 0)"/>
     <use xlink:href="#Arial-BoldMT-69" transform="translate(722.558594 0)"/>
     <use xlink:href="#Arial-BoldMT-6f" transform="translate(750.341797 0)"/>
     <use xlink:href="#Arial-BoldMT-6e" transform="translate(811.425781 0)"/>
     <use xlink:href="#Arial-BoldMT-20" transform="translate(872.509766 0)"/>
     <use xlink:href="#Arial-BoldMT-49" transform="translate(900.292969 0)"/>
     <use xlink:href="#Arial-BoldMT-6e" transform="translate(928.076172 0)"/>
     <use xlink:href="#Arial-BoldMT-74" transform="translate(989.160156 0)"/>
     <use xlink:href="#Arial-BoldMT-65" transform="translate(1022.460938 0)"/>
     <use xlink:href="#Arial-BoldMT-72" transform="translate(1078.076172 0)"/>
     <use xlink:href="#Arial-BoldMT-76" transform="translate(1116.992188 0)"/>
     <use xlink:href="#Arial-BoldMT-61" transform="translate(1172.607422 0)"/>
     <use xlink:href="#Arial-BoldMT-6c" transform="translate(1228.222656 0)"/>
     <use xlink:href="#Arial-BoldMT-20" transform="translate(1256.005859 0)"/>
     <use xlink:href="#Arial-BoldMT-57" transform="translate(1283.789062 0)"/>
     <use xlink:href="#Arial-BoldMT-69" transform="translate(1377.298828 0)"/>
     <use xlink:href="#Arial-BoldMT-64" transform="translate(1405.082031 0)"/>
     <use xlink:href="#Arial-BoldMT-74" transform="translate(1466.166016 0)"/>
     <use xlink:href="#Arial-BoldMT-68" transform="translate(1499.466797 0)"/>
     <use xlink:href="#Arial-BoldMT-20" transform="translate(1560.550781 0)"/>
     <use xlink:href="#Arial-BoldMT-4f" transform="translate(1588.333984 0)"/>
     <use xlink:href="#Arial-BoldMT-76" transform="translate(1666.117188 0)"/>
     <use xlink:href="#Arial-BoldMT-65" transform="translate(1721.732422 0)"/>
     <use xlink:href="#Arial-BoldMT-72" transform="translate(1777.347656 0)"/>
     <use xlink:href="#Arial-BoldMT-20" transform="translate(1816.263672 0)"/>
     <use xlink:href="#Arial-BoldMT-54" transform="translate(1844.046875 0)"/>
     <use xlink:href="#Arial-BoldMT-69" transform="translate(1903.380859 0)"/>
     <use xlink:href="#Arial-BoldMT-6d" transform="translate(1931.164062 0)"/>
     <use xlink:href="#Arial-BoldMT-65" transform="translate(2020.080078 0)"/>
    </g>
   </g>
   <g id="legend_1">
    <g id="patch_7">
     <path d="M 744.640781 230.849375 
L 983.839531 230.849375 
Q 985.439531 230.849375 985.439531 229.249375 
L 985.439531 207.416875 
Q 985.439531 205.816875 983.839531 205.816875 
L 744.640781 205.816875 
Q 743.040781 205.816875 743.040781 207.416875 
L 743.040781 229.249375 
Q 743.040781 230.849375 744.640781 230.849375 
z
" style="fill: #ffffff; opacity: 0.8; stroke: #cccccc; stroke-linejoin: miter"/>
    </g>
    <g id="line2d_19">
     <path d="M 746.240781 211.943125 
L 754.240781 211.943125 
L 762.240781 211.943125 
" style="fill: none; stroke: #ff7f0e; stroke-opacity: 0.35; stroke-width: 1.2; stroke-linecap: round"/>
    </g>
    <g id="text_18">
     <!-- Baseline 95% CI width -->
     <g style="fill: #262626" transform="translate(768.640781 214.743125) scale(0.08 -0.08)">
      <defs>
       <path id="ArialMT-42" d="M 469 0 
L 469 4581 
L 2188 4581 
Q 2713 4581 3030 4442 
Q 3347 4303 3526 4014 
Q 3706 3725 3706 3409 
Q 3706 3116 3547 2856 
Q 3388 2597 3066 2438 
Q 3481 2316 3704 2022 
Q 3928 1728 3928 1328 
Q 3928 1006 3792 729 
Q 3656 453 3456 303 
Q 3256 153 2954 76 
Q 2653 0 2216 0 
L 469 0 
z
M 1075 2656 
L 2066 2656 
Q 2469 2656 2644 2709 
Q 2875 2778 2992 2937 
Q 3109 3097 3109 3338 
Q 3109 3566 3000 3739 
Q 2891 3913 2687 3977 
Q 2484 4041 1991 4041 
L 1075 4041 
L 1075 2656 
z
M 1075 541 
L 2216 541 
Q 2509 541 2628 563 
Q 2838 600 2978 687 
Q 3119 775 3209 942 
Q 3300 1109 3300 1328 
Q 3300 1584 3169 1773 
Q 3038 1963 2805 2039 
Q 2572 2116 2134 2116 
L 1075 2116 
L 1075 541 
z
" transform="scale(0.015625)"/>
       <path id="ArialMT-73" d="M 197 991 
L 753 1078 
Q 800 744 1014 566 
Q 1228 388 1613 388 
Q 2000 388 2187 545 
Q 2375 703 2375 916 
Q 2375 1106 2209 1216 
Q 2094 1291 1634 1406 
Q 1016 1563 777 1677 
Q 538 1791 414 1992 
Q 291 2194 291 2438 
Q 291 2659 392 2848 
Q 494 3038 669 3163 
Q 800 3259 1026 3326 
Q 1253 3394 1513 3394 
Q 1903 3394 2198 3281 
Q 2494 3169 2634 2976 
Q 2775 2784 2828 2463 
L 2278 2388 
Q 2241 2644 2061 2787 
Q 1881 2931 1553 2931 
Q 1166 2931 1000 2803 
Q 834 2675 834 2503 
Q 834 2394 903 2306 
Q 972 2216 1119 2156 
Q 1203 2125 1616 2013 
Q 2213 1853 2448 1751 
Q 2684 1650 2818 1456 
Q 2953 1263 2953 975 
Q 2953 694 2789 445 
Q 2625 197 2315 61 
Q 2006 -75 1616 -75 
Q 969 -75 630 194 
Q 291 463 197 991 
z
" transform="scale(0.015625)"/>
       <path id="ArialMT-35" d="M 266 1200 
L 856 1250 
Q 922 819 1161 601 
Q 1400 384 1738 384 
Q 2144 384 2425 690 
Q 2706 997 2706 1503 
Q 2706 1984 2436 2262 
Q 2166 2541 1728 2541 
Q 1456 2541 1237 2417 
Q 1019 2294 894 2097 
L 366 2166 
L 809 4519 
L 3088 4519 
L 3088 3981 
L 1259 3981 
L 1013 2750 
Q 1425 3038 1878 3038 
Q 2478 3038 2890 2622 
Q 3303 2206 3303 1553 
Q 3303 931 2941 478 
Q 2500 -78 1738 -78 
Q 1113 -78 717 272 
Q 322 622 266 1200 
z
" transform="scale(0.015625)"/>
       <path id="ArialMT-25" d="M 372 3481 
Q 372 3972 619 4315 
Q 866 4659 1334 4659 
Q 1766 4659 2048 4351 
Q 2331 4044 2331 3447 
Q 2331 2866 2045 2552 
Q 1759 2238 1341 2238 
Q 925 2238 648 2547 
Q 372 2856 372 3481 
z
M 1350 4272 
Q 1141 4272 1002 4090 
Q 863 3909 863 3425 
Q 863 2984 1003 2804 
Q 1144 2625 1350 2625 
Q 1563 2625 1702 2806 
Q 1841 2988 1841 3469 
Q 1841 3913 1700 4092 
Q 1559 4272 1350 4272 
z
M 1353 -169 
L 3859 4659 
L 4316 4659 
L 1819 -169 
L 1353 -169 
z
M 3334 1075 
Q 3334 1569 3581 1911 
Q 3828 2253 4300 2253 
Q 4731 2253 5014 1945 
Q 5297 1638 5297 1041 
Q 5297 459 5011 145 
Q 4725 -169 4303 -169 
Q 3888 -169 3611 142 
Q 3334 453 3334 1075 
z
M 4316 1866 
Q 4103 1866 3964 1684 
Q 3825 1503 3825 1019 
Q 3825 581 3965 400 
Q 4106 219 4313 219 
Q 4528 219 4667 400 
Q 4806 581 4806 1063 
Q 4806 1506 4665 1686 
Q 4525 1866 4316 1866 
z
" transform="scale(0.015625)"/>
       <path id="ArialMT-43" d="M 3763 1606 
L 4369 1453 
Q 4178 706 3683 314 
Q 3188 -78 2472 -78 
Q 1731 -78 1267 223 
Q 803 525 561 1097 
Q 319 1669 319 2325 
Q 319 3041 592 3573 
Q 866 4106 1370 4382 
Q 1875 4659 2481 4659 
Q 3169 4659 3637 4309 
Q 4106 3959 4291 3325 
L 3694 3184 
Q 3534 3684 3231 3912 
Q 2928 4141 2469 4141 
Q 1941 4141 1586 3887 
Q 1231 3634 1087 3207 
Q 944 2781 944 2328 
Q 944 1744 1114 1308 
Q 1284 872 1643 656 
Q 2003 441 2422 441 
Q 2931 441 3284 734 
Q 3638 1028 3763 1606 
z
" transform="scale(0.015625)"/>
      </defs>
      <use xlink:href="#ArialMT-42"/>
      <use xlink:href="#ArialMT-61" transform="translate(66.699219 0)"/>
      <use xlink:href="#ArialMT-73" transform="translate(122.314453 0)"/>
      <use xlink:href="#ArialMT-65" transform="translate(172.314453 0)"/>
      <use xlink:href="#ArialMT-6c" transform="translate(227.929688 0)"/>
      <use xlink:href="#ArialMT-69" transform="translate(250.146484 0)"/>
      <use xlink:href="#ArialMT-6e" transform="translate(272.363281 0)"/>
      <use xlink:href="#ArialMT-65" transform="translate(327.978516 0)"/>
      <use xlink:href="#ArialMT-20" transform="translate(383.59375 0)"/>
      <use xlink:href="#ArialMT-39" transform="translate(411.376953 0)"/>
      <use xlink:href="#ArialMT-35" transform="translate(466.992188 0)"/>
      <use xlink:href="#ArialMT-25" transform="translate(522.607422 0)"/>
      <use xlink:href="#ArialMT-20" transform="translate(611.523438 0)"/>
      <use xlink:href="#ArialMT-43" transform="translate(639.306641 0)"/>
      <use xlink:href="#ArialMT-49" transform="translate(711.523438 0)"/>
      <use xlink:href="#ArialMT-20" transform="translate(739.306641 0)"/>
      <use xlink:href="#ArialMT-77" transform="translate(767.089844 0)"/>
      <use xlink:href="#ArialMT-69" transform="translate(839.306641 0)"/>
      <use xlink:href="#ArialMT-64" transform="translate(861.523438 0)"/>
      <use xlink:href="#ArialMT-74" transform="translate(917.138672 0)"/>
      <use xlink:href="#ArialMT-68" transform="translate(944.921875 0)"/>
     </g>
    </g>
    <g id="line2d_20">
     <path d="M 746.240781 223.259375 
L 754.240781 223.259375 
L 762.240781 223.259375 
" style="fill: none; stroke: #2ca02c; stroke-opacity: 0.35; stroke-width: 1.2; stroke-linecap: round"/>
    </g>
    <g id="text_19">
     <!-- Model 95% CI width -->
     <g style="fill: #262626" transform="translate(768.640781 226.059375) scale(0.08 -0.08)">
      <defs>
       <path id="ArialMT-4d" d="M 475 0 
L 475 4581 
L 1388 4581 
L 2472 1338 
Q 2622 884 2691 659 
Q 2769 909 2934 1394 
L 4031 4581 
L 4847 4581 
L 4847 0 
L 4263 0 
L 4263 3834 
L 2931 0 
L 2384 0 
L 1059 3900 
L 1059 0 
L 475 0 
z
" transform="scale(0.015625)"/>
       <path id="ArialMT-6f" d="M 213 1659 
Q 213 2581 725 3025 
Q 1153 3394 1769 3394 
Q 2453 3394 2887 2945 
Q 3322 2497 3322 1706 
Q 3322 1066 3130 698 
Q 2938 331 2570 128 
Q 2203 -75 1769 -75 
Q 1072 -75 642 372 
Q 213 819 213 1659 
z
M 791 1659 
Q 791 1022 1069 705 
Q 1347 388 1769 388 
Q 2188 388 2466 706 
Q 2744 1025 2744 1678 
Q 2744 2294 2464 2611 
Q 2184 2928 1769 2928 
Q 1347 2928 1069 2612 
Q 791 2297 791 1659 
z
" transform="scale(0.015625)"/>
      </defs>
      <use xlink:href="#ArialMT-4d"/>
      <use xlink:href="#ArialMT-6f" transform="translate(83.300781 0)"/>
      <use xlink:href="#ArialMT-64" transform="translate(138.916016 0)"/>
      <use xlink:href="#ArialMT-65" transform="translate(194.53125 0)"/>
      <use xlink:href="#ArialMT-6c" transform="translate(250.146484 0)"/>
      <use xlink:href="#ArialMT-20" transform="translate(272.363281 0)"/>
      <use xlink:href="#ArialMT-39" transform="translate(300.146484 0)"/>
      <use xlink:href="#ArialMT-35" transform="translate(355.761719 0)"/>
      <use xlink:href="#ArialMT-25" transform="translate(411.376953 0)"/>
      <use xlink:href="#ArialMT-20" transform="translate(500.292969 0)"/>
      <use xlink:href="#ArialMT-43" transform="translate(528.076172 0)"/>
      <use xlink:href="#ArialMT-49" transform="translate(600.292969 0)"/>
      <use xlink:href="#ArialMT-20" transform="translate(628.076172 0)"/>
      <use xlink:href="#ArialMT-77" transform="translate(655.859375 0)"/>
      <use xlink:href="#ArialMT-69" transform="translate(728.076172 0)"/>
      <use xlink:href="#ArialMT-64" transform="translate(750.292969 0)"/>
      <use xlink:href="#ArialMT-74" transform="translate(805.908203 0)"/>
      <use xlink:href="#ArialMT-68" transform="translate(833.691406 0)"/>
     </g>
    </g>
    <g id="line2d_21">
     <path d="M 864.680781 211.943125 
L 872.680781 211.943125 
L 880.680781 211.943125 
" style="fill: none; stroke: #ff7f0e; stroke-width: 2; stroke-linecap: round"/>
    </g>
    <g id="text_20">
     <!-- Baseline CI width 7d mean -->
     <g style="fill: #262626" transform="translate(887.080781 214.743125) scale(0.08 -0.08)">
      <defs>
       <path id="ArialMT-6d" d="M 422 0 
L 422 3319 
L 925 3319 
L 925 2853 
Q 1081 3097 1340 3245 
Q 1600 3394 1931 3394 
Q 2300 3394 2536 3241 
Q 2772 3088 2869 2813 
Q 3263 3394 3894 3394 
Q 4388 3394 4653 3120 
Q 4919 2847 4919 2278 
L 4919 0 
L 4359 0 
L 4359 2091 
Q 4359 2428 4304 2576 
Q 4250 2725 4106 2815 
Q 3963 2906 3769 2906 
Q 3419 2906 3187 2673 
Q 2956 2441 2956 1928 
L 2956 0 
L 2394 0 
L 2394 2156 
Q 2394 2531 2256 2718 
Q 2119 2906 1806 2906 
Q 1569 2906 1367 2781 
Q 1166 2656 1075 2415 
Q 984 2175 984 1722 
L 984 0 
L 422 0 
z
" transform="scale(0.015625)"/>
      </defs>
      <use xlink:href="#ArialMT-42"/>
      <use xlink:href="#ArialMT-61" transform="translate(66.699219 0)"/>
      <use xlink:href="#ArialMT-73" transform="translate(122.314453 0)"/>
      <use xlink:href="#ArialMT-65" transform="translate(172.314453 0)"/>
      <use xlink:href="#ArialMT-6c" transform="translate(227.929688 0)"/>
      <use xlink:href="#ArialMT-69" transform="translate(250.146484 0)"/>
      <use xlink:href="#ArialMT-6e" transform="translate(272.363281 0)"/>
      <use xlink:href="#ArialMT-65" transform="translate(327.978516 0)"/>
      <use xlink:href="#ArialMT-20" transform="translate(383.59375 0)"/>
      <use xlink:href="#ArialMT-43" transform="translate(411.376953 0)"/>
      <use xlink:href="#ArialMT-49" transform="translate(483.59375 0)"/>
      <use xlink:href="#ArialMT-20" transform="translate(511.376953 0)"/>
      <use xlink:href="#ArialMT-77" transform="translate(539.160156 0)"/>
      <use xlink:href="#ArialMT-69" transform="translate(611.376953 0)"/>
      <use xlink:href="#ArialMT-64" transform="translate(633.59375 0)"/>
      <use xlink:href="#ArialMT-74" transform="translate(689.208984 0)"/>
      <use xlink:href="#ArialMT-68" transform="translate(716.992188 0)"/>
      <use xlink:href="#ArialMT-20" transform="translate(772.607422 0)"/>
      <use xlink:href="#ArialMT-37" transform="translate(800.390625 0)"/>
      <use xlink:href="#ArialMT-64" transform="translate(856.005859 0)"/>
      <use xlink:href="#ArialMT-20" transform="translate(911.621094 0)"/>
      <use xlink:href="#ArialMT-6d" transform="translate(939.404297 0)"/>
      <use xlink:href="#ArialMT-65" transform="translate(1022.705078 0)"/>
      <use xlink:href="#ArialMT-61" transform="translate(1078.320312 0)"/>
      <use xlink:href="#ArialMT-6e" transform="translate(1133.935547 0)"/>
     </g>
    </g>
    <g id="line2d_22">
     <path d="M 864.680781 223.259375 
L 872.680781 223.259375 
L 880.680781 223.259375 
" style="fill: none; stroke: #2ca02c; stroke-width: 2; stroke-linecap: round"/>
    </g>
    <g id="text_21">
     <!-- Model CI width 7d mean -->
     <g style="fill: #262626" transform="translate(887.080781 226.059375) scale(0.08 -0.08)">
      <use xlink:href="#ArialMT-4d"/>
      <use xlink:href="#ArialMT-6f" transform="translate(83.300781 0)"/>
      <use xlink:href="#ArialMT-64" transform="translate(138.916016 0)"/>
      <use xlink:href="#ArialMT-65" transform="translate(194.53125 0)"/>
      <use xlink:href="#ArialMT-6c" transform="translate(250.146484 0)"/>
      <use xlink:href="#ArialMT-20" transform="translate(272.363281 0)"/>
      <use xlink:href="#ArialMT-43" transform="translate(300.146484 0)"/>
      <use xlink:href="#ArialMT-49" transform="translate(372.363281 0)"/>
      <use xlink:href="#ArialMT-20" transform="translate(400.146484 0)"/>
      <use xlink:href="#ArialMT-77" transform="translate(427.929688 0)"/>
      <use xlink:href="#ArialMT-69" transform="translate(500.146484 0)"/>
      <use xlink:href="#ArialMT-64" transform="translate(522.363281 0)"/>
      <use xlink:href="#ArialMT-74" transform="translate(577.978516 0)"/>
      <use xlink:href="#ArialMT-68" transform="translate(605.761719 0)"/>
      <use xlink:href="#ArialMT-20" transform="translate(661.376953 0)"/>
      <use xlink:href="#ArialMT-37" transform="translate(689.160156 0)"/>
      <use xlink:href="#ArialMT-64" transform="translate(744.775391 0)"/>
      <use xlink:href="#ArialMT-20" transform="translate(800.390625 0)"/>
      <use xlink:href="#ArialMT-6d" transform="translate(828.173828 0)"/>
      <use xlink:href="#ArialMT-65" transform="translate(911.474609 0)"/>
      <use xlink:href="#ArialMT-61" transform="translate(967.089844 0)"/>
      <use xlink:href="#ArialMT-6e" transform="translate(1022.705078 0)"/>
     </g>
    </g>
   </g>
  </g>
 </g>
 <defs>
  <clipPath id="p2a5f791a9a">
   <rect x="62.259531" y="21.789375" width="927.18" height="213.06"/>
  </clipPath>
 </defs>
</svg>
