<?xml version="1.0" encoding="utf-8" standalone="no"?>
<!DOCTYPE svg PUBLIC "-//W3C//DTD SVG 1.1//EN"
  "http://www.w3.org/Graphics/SVG/1.1/DTD/svg11.dtd">
<svg xmlns:xlink="http://www.w3.org/1999/xlink" width="996.722812pt" height="348.735469pt" viewBox="0 0 996.722812 348.735469" xmlns="http://www.w3.org/2000/svg" version="1.1">
 <metadata>
  <rdf:RDF xmlns:dc="http://purl.org/dc/elements/1.1/" xmlns:cc="http://creativecommons.org/ns#" xmlns:rdf="http://www.w3.org/1999/02/22-rdf-syntax-ns#">
   <cc:Work>
    <dc:type rdf:resource="http://purl.org/dc/dcmitype/StillImage"/>
    <dc:date>2026-03-21T00:29:05.085405</dc:date>
    <dc:format>image/svg+xml</dc:format>
    <dc:creator>
     <cc:Agent>
      <dc:title>Matplotlib v3.10.8, https://matplotlib.org/</dc:title>
     </cc:Agent>
    </dc:creator>
   </cc:Work>
  </rdf:RDF>
 </metadata>
 <defs>
  <style type="text/css">*{stroke-linejoin: round; stroke-linecap: butt}</style>
 </defs>
 <g id="figure_1">
  <g id="patch_1">
   <path d="M 0 348.735469 
L 996.722812 348.735469 
L 996.722812 0 
L 0 0 
z
" style="fill: #ffffff"/>
  </g>
  <g id="axes_1">
   <g id="patch_2">
    <path d="M 59.339063 306.860625 
L 989.522812 306.860625 
L 989.522812 21.935625 
L 59.339063 21.935625 
z
" style="fill: #ffffff"/>
   </g>
   <g id="matplotlib.axis_1">
    <g id="xtick_1">
     <g id="line2d_1">
      <path d="M 101.620142 306.860625 
L 101.620142 21.935625 
" clip-path="url(#p86adc9bb9a)" style="fill: none; stroke: #cccccc; stroke-linecap: round"/>
     </g>
     <g id="text_1">
      <!-- 0 -->
      <g style="fill: #262626" transform="translate(98.561626 324.234219) scale(0.11 -0.11)">
       <defs>
        <path id="ArialMT-30" d="M 266 2259 
Q 266 3072 433 3567 
Q 600 4063 929 4331 
Q 1259 4600 1759 4600 
Q 2128 4600 2406 4451 
Q 2684 4303 2865 4023 
Q 3047 3744 3150 3342 
Q 3253 2941 3253 2259 
Q 3253 1453 3087 958 
Q 2922 463 2592 192 
Q 2263 -78 1759 -78 
Q 1097 -78 719 397 
Q 266 969 266 2259 
z
M 844 2259 
Q 844 1131 1108 757 
Q 1372 384 1759 384 
Q 2147 384 2411 759 
Q 2675 1134 2675 2259 
Q 2675 3391 2411 3762 
Q 2147 4134 1753 4134 
Q 1366 4134 1134 3806 
Q 844 3388 844 2259 
z
" transform="scale(0.015625)"/>
       </defs>
       <use xlink:href="#ArialMT-30"/>
      </g>
     </g>
    </g>
    <g id="xtick_2">
     <g id="line2d_2">
      <path d="M 270.913754 306.860625 
L 270.913754 21.935625 
" clip-path="url(#p86adc9bb9a)" style="fill: none; stroke: #cccccc; stroke-linecap: round"/>
     </g>
     <g id="text_2">
      <!-- 200 -->
      <g style="fill: #262626" transform="translate(261.738207 324.234219) scale(0.11 -0.11)">
       <defs>
        <path id="ArialMT-32" d="M 3222 541 
L 3222 0 
L 194 0 
Q 188 203 259 391 
Q 375 700 629 1000 
Q 884 1300 1366 1694 
Q 2113 2306 2375 2664 
Q 2638 3022 2638 3341 
Q 2638 3675 2398 3904 
Q 2159 4134 1775 4134 
Q 1369 4134 1125 3890 
Q 881 3647 878 3216 
L 300 3275 
Q 359 3922 746 4261 
Q 1134 4600 1788 4600 
Q 2447 4600 2831 4234 
Q 3216 3869 3216 3328 
Q 3216 3053 3103 2787 
Q 2991 2522 2730 2228 
Q 2469 1934 1863 1422 
Q 1356 997 1212 845 
Q 1069 694 975 541 
L 3222 541 
z
" transform="scale(0.015625)"/>
       </defs>
       <use xlink:href="#ArialMT-32"/>
       <use xlink:href="#ArialMT-30" transform="translate(55.615234 0)"/>
       <use xlink:href="#ArialMT-30" transform="translate(111.230469 0)"/>
      </g>
     </g>
    </g>
    <g id="xtick_3">
     <g id="line2d_3">
      <path d="M 440.207366 306.860625 
L 440.207366 21.935625 
" clip-path="url(#p86adc9bb9a)" style="fill: none; stroke: #cccccc; stroke-linecap: round"/>
     </g>
     <g id="text_3">
      <!-- 400 -->
      <g style="fill: #262626" transform="translate(431.031819 324.234219) scale(0.11 -0.11)">
       <defs>
        <path id="ArialMT-34" d="M 2069 0 
L 2069 1097 
L 81 1097 
L 81 1613 
L 2172 4581 
L 2631 4581 
L 2631 1613 
L 3250 1613 
L 3250 1097 
L 2631 1097 
L 2631 0 
L 2069 0 
z
M 2069 1613 
L 2069 3678 
L 634 1613 
L 2069 1613 
z
" transform="scale(0.015625)"/>
       </defs>
       <use xlink:href="#ArialMT-34"/>
       <use xlink:href="#ArialMT-30" transform="translate(55.615234 0)"/>
       <use xlink:href="#ArialMT-30" transform="translate(111.230469 0)"/>
      </g>
     </g>
    </g>
    <g id="xtick_4">
     <g id="line2d_4">
      <path d="M 609.500977 306.860625 
L 609.500977 21.935625 
" clip-path="url(#p86adc9bb9a)" style="fill: none; stroke: #cccccc; stroke-linecap: round"/>
     </g>
     <g id="text_4">
      <!-- 600 -->
      <g style="fill: #262626" transform="translate(600.325431 324.234219) scale(0.11 -0.11)">
       <defs>
        <path id="ArialMT-36" d="M 3184 3459 
L 2625 3416 
Q 2550 3747 2413 3897 
Q 2184 4138 1850 4138 
Q 1581 4138 1378 3988 
Q 1113 3794 959 3422 
Q 806 3050 800 2363 
Q 1003 2672 1297 2822 
Q 1591 2972 1913 2972 
Q 2475 2972 2870 2558 
Q 3266 2144 3266 1488 
Q 3266 1056 3080 686 
Q 2894 316 2569 119 
Q 2244 -78 1831 -78 
Q 1128 -78 684 439 
Q 241 956 241 2144 
Q 241 3472 731 4075 
Q 1159 4600 1884 4600 
Q 2425 4600 2770 4297 
Q 3116 3994 3184 3459 
z
M 888 1484 
Q 888 1194 1011 928 
Q 1134 663 1356 523 
Q 1578 384 1822 384 
Q 2178 384 2434 671 
Q 2691 959 2691 1453 
Q 2691 1928 2437 2201 
Q 2184 2475 1800 2475 
Q 1419 2475 1153 2201 
Q 888 1928 888 1484 
z
" transform="scale(0.015625)"/>
       </defs>
       <use xlink:href="#ArialMT-36"/>
       <use xlink:href="#ArialMT-30" transform="translate(55.615234 0)"/>
       <use xlink:href="#ArialMT-30" transform="translate(111.230469 0)"/>
      </g>
     </g>
    </g>
    <g id="xtick_5">
     <g id="line2d_5">
      <path d="M 778.794589 306.860625 
L 778.794589 21.935625 
" clip-path="url(#p86adc9bb9a)" style="fill: none; stroke: #cccccc; stroke-linecap: round"/>
     </g>
     <g id="text_5">
      <!-- 800 -->
      <g style="fill: #262626" transform="translate(769.619042 324.234219) scale(0.11 -0.11)">
       <defs>
        <path id="ArialMT-38" d="M 1131 2484 
Q 781 2613 612 2850 
Q 444 3088 444 3419 
Q 444 3919 803 4259 
Q 1163 4600 1759 4600 
Q 2359 4600 2725 4251 
Q 3091 3903 3091 3403 
Q 3091 3084 2923 2848 
Q 2756 2613 2416 2484 
Q 2838 2347 3058 2040 
Q 3278 1734 3278 1309 
Q 3278 722 2862 322 
Q 2447 -78 1769 -78 
Q 1091 -78 675 323 
Q 259 725 259 1325 
Q 259 1772 486 2073 
Q 713 2375 1131 2484 
z
M 1019 3438 
Q 1019 3113 1228 2906 
Q 1438 2700 1772 2700 
Q 2097 2700 2305 2904 
Q 2513 3109 2513 3406 
Q 2513 3716 2298 3927 
Q 2084 4138 1766 4138 
Q 1444 4138 1231 3931 
Q 1019 3725 1019 3438 
z
M 838 1322 
Q 838 1081 952 856 
Q 1066 631 1291 507 
Q 1516 384 1775 384 
Q 2178 384 2440 643 
Q 2703 903 2703 1303 
Q 2703 1709 2433 1975 
Q 2163 2241 1756 2241 
Q 1359 2241 1098 1978 
Q 838 1716 838 1322 
z
" transform="scale(0.015625)"/>
       </defs>
       <use xlink:href="#ArialMT-38"/>
       <use xlink:href="#ArialMT-30" transform="translate(55.615234 0)"/>
       <use xlink:href="#ArialMT-30" transform="translate(111.230469 0)"/>
      </g>
     </g>
    </g>
    <g id="xtick_6">
     <g id="line2d_6">
      <path d="M 948.088201 306.860625 
L 948.088201 21.935625 
" clip-path="url(#p86adc9bb9a)" style="fill: none; stroke: #cccccc; stroke-linecap: round"/>
     </g>
     <g id="text_6">
      <!-- 1000 -->
      <g style="fill: #262626" transform="translate(935.854139 324.234219) scale(0.11 -0.11)">
       <defs>
        <path id="ArialMT-31" d="M 2384 0 
L 1822 0 
L 1822 3584 
Q 1619 3391 1289 3197 
Q 959 3003 697 2906 
L 697 3450 
Q 1169 3672 1522 3987 
Q 1875 4303 2022 4600 
L 2384 4600 
L 2384 0 
z
" transform="scale(0.015625)"/>
       </defs>
       <use xlink:href="#ArialMT-31"/>
       <use xlink:href="#ArialMT-30" transform="translate(55.615234 0)"/>
       <use xlink:href="#ArialMT-30" transform="translate(111.230469 0)"/>
       <use xlink:href="#ArialMT-30" transform="translate(166.845703 0)"/>
      </g>
     </g>
    </g>
    <g id="text_7">
     <!-- Days since last sale -->
     <g style="fill: #262626" transform="translate(471.411563 339.009844) scale(0.12 -0.12)">
      <defs>
       <path id="ArialMT-44" d="M 494 0 
L 494 4581 
L 2072 4581 
Q 2606 4581 2888 4516 
Q 3281 4425 3559 4188 
Q 3922 3881 4101 3404 
Q 4281 2928 4281 2316 
Q 4281 1794 4159 1391 
Q 4038 988 3847 723 
Q 3656 459 3429 307 
Q 3203 156 2883 78 
Q 2563 0 2147 0 
L 494 0 
z
M 1100 541 
L 2078 541 
Q 2531 541 2789 625 
Q 3047 709 3200 863 
Q 3416 1078 3536 1442 
Q 3656 1806 3656 2325 
Q 3656 3044 3420 3430 
Q 3184 3816 2847 3947 
Q 2603 4041 2063 4041 
L 1100 4041 
L 1100 541 
z
" transform="scale(0.015625)"/>
       <path id="ArialMT-61" d="M 2588 409 
Q 2275 144 1986 34 
Q 1697 -75 1366 -75 
Q 819 -75 525 192 
Q 231 459 231 875 
Q 231 1119 342 1320 
Q 453 1522 633 1644 
Q 813 1766 1038 1828 
Q 1203 1872 1538 1913 
Q 2219 1994 2541 2106 
Q 2544 2222 2544 2253 
Q 2544 2597 2384 2738 
Q 2169 2928 1744 2928 
Q 1347 2928 1158 2789 
Q 969 2650 878 2297 
L 328 2372 
Q 403 2725 575 2942 
Q 747 3159 1072 3276 
Q 1397 3394 1825 3394 
Q 2250 3394 2515 3294 
Q 2781 3194 2906 3042 
Q 3031 2891 3081 2659 
Q 3109 2516 3109 2141 
L 3109 1391 
Q 3109 606 3145 398 
Q 3181 191 3288 0 
L 2700 0 
Q 2613 175 2588 409 
z
M 2541 1666 
Q 2234 1541 1622 1453 
Q 1275 1403 1131 1340 
Q 988 1278 909 1158 
Q 831 1038 831 891 
Q 831 666 1001 516 
Q 1172 366 1500 366 
Q 1825 366 2078 508 
Q 2331 650 2450 897 
Q 2541 1088 2541 1459 
L 2541 1666 
z
" transform="scale(0.015625)"/>
       <path id="ArialMT-79" d="M 397 -1278 
L 334 -750 
Q 519 -800 656 -800 
Q 844 -800 956 -737 
Q 1069 -675 1141 -563 
Q 1194 -478 1313 -144 
Q 1328 -97 1363 -6 
L 103 3319 
L 709 3319 
L 1400 1397 
Q 1534 1031 1641 628 
Q 1738 1016 1872 1384 
L 2581 3319 
L 3144 3319 
L 1881 -56 
Q 1678 -603 1566 -809 
Q 1416 -1088 1222 -1217 
Q 1028 -1347 759 -1347 
Q 597 -1347 397 -1278 
z
" transform="scale(0.015625)"/>
       <path id="ArialMT-73" d="M 197 991 
L 753 1078 
Q 800 744 1014 566 
Q 1228 388 1613 388 
Q 2000 388 2187 545 
Q 2375 703 2375 916 
Q 2375 1106 2209 1216 
Q 2094 1291 1634 1406 
Q 1016 1563 777 1677 
Q 538 1791 414 1992 
Q 291 2194 291 2438 
Q 291 2659 392 2848 
Q 494 3038 669 3163 
Q 800 3259 1026 3326 
Q 1253 3394 1513 3394 
Q 1903 3394 2198 3281 
Q 2494 3169 2634 2976 
Q 2775 2784 2828 2463 
L 2278 2388 
Q 2241 2644 2061 2787 
Q 1881 2931 1553 2931 
Q 1166 2931 1000 2803 
Q 834 2675 834 2503 
Q 834 2394 903 2306 
Q 972 2216 1119 2156 
Q 1203 2125 1616 2013 
Q 2213 1853 2448 1751 
Q 2684 1650 2818 1456 
Q 2953 1263 2953 975 
Q 2953 694 2789 445 
Q 2625 197 2315 61 
Q 2006 -75 1616 -75 
Q 969 -75 630 194 
Q 291 463 197 991 
z
" transform="scale(0.015625)"/>
       <path id="ArialMT-20" transform="scale(0.015625)"/>
       <path id="ArialMT-69" d="M 425 3934 
L 425 4581 
L 988 4581 
L 988 3934 
L 425 3934 
z
M 425 0 
L 425 3319 
L 988 3319 
L 988 0 
L 425 0 
z
" transform="scale(0.015625)"/>
       <path id="ArialMT-6e" d="M 422 0 
L 422 3319 
L 928 3319 
L 928 2847 
Q 1294 3394 1984 3394 
Q 2284 3394 2536 3286 
Q 2788 3178 2913 3003 
Q 3038 2828 3088 2588 
Q 3119 2431 3119 2041 
L 3119 0 
L 2556 0 
L 2556 2019 
Q 2556 2363 2490 2533 
Q 2425 2703 2258 2804 
Q 2091 2906 1866 2906 
Q 1506 2906 1245 2678 
Q 984 2450 984 1813 
L 984 0 
L 422 0 
z
" transform="scale(0.015625)"/>
       <path id="ArialMT-63" d="M 2588 1216 
L 3141 1144 
Q 3050 572 2676 248 
Q 2303 -75 1759 -75 
Q 1078 -75 664 370 
Q 250 816 250 1647 
Q 250 2184 428 2587 
Q 606 2991 970 3192 
Q 1334 3394 1763 3394 
Q 2303 3394 2647 3120 
Q 2991 2847 3088 2344 
L 2541 2259 
Q 2463 2594 2264 2762 
Q 2066 2931 1784 2931 
Q 1359 2931 1093 2626 
Q 828 2322 828 1663 
Q 828 994 1084 691 
Q 1341 388 1753 388 
Q 2084 388 2306 591 
Q 2528 794 2588 1216 
z
" transform="scale(0.015625)"/>
       <path id="ArialMT-65" d="M 2694 1069 
L 3275 997 
Q 3138 488 2766 206 
Q 2394 -75 1816 -75 
Q 1088 -75 661 373 
Q 234 822 234 1631 
Q 234 2469 665 2931 
Q 1097 3394 1784 3394 
Q 2450 3394 2872 2941 
Q 3294 2488 3294 1666 
Q 3294 1616 3291 1516 
L 816 1516 
Q 847 969 1125 678 
Q 1403 388 1819 388 
Q 2128 388 2347 550 
Q 2566 713 2694 1069 
z
M 847 1978 
L 2700 1978 
Q 2663 2397 2488 2606 
Q 2219 2931 1791 2931 
Q 1403 2931 1139 2672 
Q 875 2413 847 1978 
z
" transform="scale(0.015625)"/>
       <path id="ArialMT-6c" d="M 409 0 
L 409 4581 
L 972 4581 
L 972 0 
L 409 0 
z
" transform="scale(0.015625)"/>
       <path id="ArialMT-74" d="M 1650 503 
L 1731 6 
Q 1494 -44 1306 -44 
Q 1000 -44 831 53 
Q 663 150 594 308 
Q 525 466 525 972 
L 525 2881 
L 113 2881 
L 113 3319 
L 525 3319 
L 525 4141 
L 1084 4478 
L 1084 3319 
L 1650 3319 
L 1650 2881 
L 1084 2881 
L 1084 941 
Q 1084 700 1114 631 
Q 1144 563 1211 522 
Q 1278 481 1403 481 
Q 1497 481 1650 503 
z
" transform="scale(0.015625)"/>
      </defs>
      <use xlink:href="#ArialMT-44"/>
      <use xlink:href="#ArialMT-61" transform="translate(72.216797 0)"/>
      <use xlink:href="#ArialMT-79" transform="translate(127.832031 0)"/>
      <use xlink:href="#ArialMT-73" transform="translate(177.832031 0)"/>
      <use xlink:href="#ArialMT-20" transform="translate(227.832031 0)"/>
      <use xlink:href="#ArialMT-73" transform="translate(255.615234 0)"/>
      <use xlink:href="#ArialMT-69" transform="translate(305.615234 0)"/>
      <use xlink:href="#ArialMT-6e" transform="translate(327.832031 0)"/>
      <use xlink:href="#ArialMT-63" transform="translate(383.447266 0)"/>
      <use xlink:href="#ArialMT-65" transform="translate(433.447266 0)"/>
      <use xlink:href="#ArialMT-20" transform="translate(489.0625 0)"/>
      <use xlink:href="#ArialMT-6c" transform="translate(516.845703 0)"/>
      <use xlink:href="#ArialMT-61" transform="translate(539.0625 0)"/>
      <use xlink:href="#ArialMT-73" transform="translate(594.677734 0)"/>
      <use xlink:href="#ArialMT-74" transform="translate(644.677734 0)"/>
      <use xlink:href="#ArialMT-20" transform="translate(672.460938 0)"/>
      <use xlink:href="#ArialMT-73" transform="translate(700.244141 0)"/>
      <use xlink:href="#ArialMT-61" transform="translate(750.244141 0)"/>
      <use xlink:href="#ArialMT-6c" transform="translate(805.859375 0)"/>
      <use xlink:href="#ArialMT-65" transform="translate(828.076172 0)"/>
     </g>
    </g>
   </g>
   <g id="matplotlib.axis_2">
    <g id="ytick_1">
     <g id="line2d_7">
      <path d="M 59.339063 306.860625 
L 989.522812 306.860625 
" clip-path="url(#p86adc9bb9a)" style="fill: none; stroke: #cccccc; stroke-linecap: round"/>
     </g>
     <g id="text_8">
      <!-- 0.000 -->
      <g style="fill: #262626" transform="translate(22.315 310.797422) scale(0.11 -0.11)">
       <defs>
        <path id="ArialMT-2e" d="M 581 0 
L 581 641 
L 1222 641 
L 1222 0 
L 581 0 
z
" transform="scale(0.015625)"/>
       </defs>
       <use xlink:href="#ArialMT-30"/>
       <use xlink:href="#ArialMT-2e" transform="translate(55.615234 0)"/>
       <use xlink:href="#ArialMT-30" transform="translate(83.398438 0)"/>
       <use xlink:href="#ArialMT-30" transform="translate(139.013672 0)"/>
       <use xlink:href="#ArialMT-30" transform="translate(194.628906 0)"/>
      </g>
     </g>
    </g>
    <g id="ytick_2">
     <g id="line2d_8">
      <path d="M 59.339063 255.408007 
L 989.522812 255.408007 
" clip-path="url(#p86adc9bb9a)" style="fill: none; stroke: #cccccc; stroke-linecap: round"/>
     </g>
     <g id="text_9">
      <!-- 0.002 -->
      <g style="fill: #262626" transform="translate(22.315 259.344804) scale(0.11 -0.11)">
       <use xlink:href="#ArialMT-30"/>
       <use xlink:href="#ArialMT-2e" transform="translate(55.615234 0)"/>
       <use xlink:href="#ArialMT-30" transform="translate(83.398438 0)"/>
       <use xlink:href="#ArialMT-30" transform="translate(139.013672 0)"/>
       <use xlink:href="#ArialMT-32" transform="translate(194.628906 0)"/>
      </g>
     </g>
    </g>
    <g id="ytick_3">
     <g id="line2d_9">
      <path d="M 59.339063 203.95539 
L 989.522812 203.95539 
" clip-path="url(#p86adc9bb9a)" style="fill: none; stroke: #cccccc; stroke-linecap: round"/>
     </g>
     <g id="text_10">
      <!-- 0.004 -->
      <g style="fill: #262626" transform="translate(22.315 207.892187) scale(0.11 -0.11)">
       <use xlink:href="#ArialMT-30"/>
       <use xlink:href="#ArialMT-2e" transform="translate(55.615234 0)"/>
       <use xlink:href="#ArialMT-30" transform="translate(83.398438 0)"/>
       <use xlink:href="#ArialMT-30" transform="translate(139.013672 0)"/>
       <use xlink:href="#ArialMT-34" transform="translate(194.628906 0)"/>
      </g>
     </g>
    </g>
    <g id="ytick_4">
     <g id="line2d_10">
      <path d="M 59.339063 152.502772 
L 989.522812 152.502772 
" clip-path="url(#p86adc9bb9a)" style="fill: none; stroke: #cccccc; stroke-linecap: round"/>
     </g>
     <g id="text_11">
      <!-- 0.006 -->
      <g style="fill: #262626" transform="translate(22.315 156.439569) scale(0.11 -0.11)">
       <use xlink:href="#ArialMT-30"/>
       <use xlink:href="#ArialMT-2e" transform="translate(55.615234 0)"/>
       <use xlink:href="#ArialMT-30" transform="translate(83.398438 0)"/>
       <use xlink:href="#ArialMT-30" transform="translate(139.013672 0)"/>
       <use xlink:href="#ArialMT-36" transform="translate(194.628906 0)"/>
      </g>
     </g>
    </g>
    <g id="ytick_5">
     <g id="line2d_11">
      <path d="M 59.339063 101.050155 
L 989.522812 101.050155 
" clip-path="url(#p86adc9bb9a)" style="fill: none; stroke: #cccccc; stroke-linecap: round"/>
     </g>
     <g id="text_12">
      <!-- 0.008 -->
      <g style="fill: #262626" transform="translate(22.315 104.986951) scale(0.11 -0.11)">
       <use xlink:href="#ArialMT-30"/>
       <use xlink:href="#ArialMT-2e" transform="translate(55.615234 0)"/>
       <use xlink:href="#ArialMT-30" transform="translate(83.398438 0)"/>
       <use xlink:href="#ArialMT-30" transform="translate(139.013672 0)"/>
       <use xlink:href="#ArialMT-38" transform="translate(194.628906 0)"/>
      </g>
     </g>
    </g>
    <g id="ytick_6">
     <g id="line2d_12">
      <path d="M 59.339063 49.597537 
L 989.522812 49.597537 
" clip-path="url(#p86adc9bb9a)" style="fill: none; stroke: #cccccc; stroke-linecap: round"/>
     </g>
     <g id="text_13">
      <!-- 0.010 -->
      <g style="fill: #262626" transform="translate(22.315 53.534334) scale(0.11 -0.11)">
       <use xlink:href="#ArialMT-30"/>
       <use xlink:href="#ArialMT-2e" transform="translate(55.615234 0)"/>
       <use xlink:href="#ArialMT-30" transform="translate(83.398438 0)"/>
       <use xlink:href="#ArialMT-31" transform="translate(139.013672 0)"/>
       <use xlink:href="#ArialMT-30" transform="translate(194.628906 0)"/>
      </g>
     </g>
    </g>
    <g id="text_14">
     <!-- Density -->
     <g style="fill: #262626" transform="translate(15.789375 184.404375) rotate(-90) scale(0.12 -0.12)">
      <use xlink:href="#ArialMT-44"/>
      <use xlink:href="#ArialMT-65" transform="translate(72.216797 0)"/>
      <use xlink:href="#ArialMT-6e" transform="translate(127.832031 0)"/>
      <use xlink:href="#ArialMT-73" transform="translate(183.447266 0)"/>
      <use xlink:href="#ArialMT-69" transform="translate(233.447266 0)"/>
      <use xlink:href="#ArialMT-74" transform="translate(255.664062 0)"/>
      <use xlink:href="#ArialMT-79" transform="translate(283.447266 0)"/>
     </g>
    </g>
   </g>
   <g id="FillBetweenPolyCollection_1">
    <defs>
     <path id="mc7c3bb115e" d="M 102.46661 -152.441007 
L 102.46661 -41.874844 
L 106.711711 -41.874844 
L 110.956812 -41.874844 
L 115.201913 -41.874844 
L 119.447015 -41.874844 
L 123.692116 -41.874844 
L 127.937217 -41.874844 
L 132.182318 -41.874844 
L 136.427419 -41.874844 
L 140.67252 -41.874844 
L 144.917621 -41.874844 
L 149.162722 -41.874844 
L 153.407824 -41.874844 
L 157.652925 -41.874844 
L 161.898026 -41.874844 
L 166.143127 -41.874844 
L 170.388228 -41.874844 
L 174.633329 -41.874844 
L 178.87843 -41.874844 
L 183.123531 -41.874844 
L 187.368633 -41.874844 
L 191.613734 -41.874844 
L 195.858835 -41.874844 
L 200.103936 -41.874844 
L 204.349037 -41.874844 
L 208.594138 -41.874844 
L 212.839239 -41.874844 
L 217.08434 -41.874844 
L 221.329441 -41.874844 
L 225.574543 -41.874844 
L 229.819644 -41.874844 
L 234.064745 -41.874844 
L 238.309846 -41.874844 
L 242.554947 -41.874844 
L 246.800048 -41.874844 
L 251.045149 -41.874844 
L 255.29025 -41.874844 
L 259.535352 -41.874844 
L 263.780453 -41.874844 
L 268.025554 -41.874844 
L 272.270655 -41.874844 
L 276.515756 -41.874844 
L 280.760857 -41.874844 
L 285.005958 -41.874844 
L 289.251059 -41.874844 
L 293.49616 -41.874844 
L 297.741262 -41.874844 
L 301.986363 -41.874844 
L 306.231464 -41.874844 
L 310.476565 -41.874844 
L 314.721666 -41.874844 
L 318.966767 -41.874844 
L 323.211868 -41.874844 
L 327.456969 -41.874844 
L 331.702071 -41.874844 
L 335.947172 -41.874844 
L 340.192273 -41.874844 
L 344.437374 -41.874844 
L 348.682475 -41.874844 
L 352.927576 -41.874844 
L 357.172677 -41.874844 
L 361.417778 -41.874844 
L 365.66288 -41.874844 
L 369.907981 -41.874844 
L 374.153082 -41.874844 
L 378.398183 -41.874844 
L 382.643284 -41.874844 
L 386.888385 -41.874844 
L 391.133486 -41.874844 
L 395.378587 -41.874844 
L 399.623688 -41.874844 
L 403.86879 -41.874844 
L 408.113891 -41.874844 
L 412.358992 -41.874844 
L 416.604093 -41.874844 
L 420.849194 -41.874844 
L 425.094295 -41.874844 
L 429.339396 -41.874844 
L 433.584497 -41.874844 
L 437.829599 -41.874844 
L 442.0747 -41.874844 
L 446.319801 -41.874844 
L 450.564902 -41.874844 
L 454.810003 -41.874844 
L 459.055104 -41.874844 
L 463.300205 -41.874844 
L 467.545306 -41.874844 
L 471.790408 -41.874844 
L 476.035509 -41.874844 
L 480.28061 -41.874844 
L 484.525711 -41.874844 
L 488.770812 -41.874844 
L 493.015913 -41.874844 
L 497.261014 -41.874844 
L 501.506115 -41.874844 
L 505.751216 -41.874844 
L 509.996318 -41.874844 
L 514.241419 -41.874844 
L 518.48652 -41.874844 
L 522.731621 -41.874844 
L 526.976722 -41.874844 
L 531.221823 -41.874844 
L 535.466924 -41.874844 
L 539.712025 -41.874844 
L 543.957127 -41.874844 
L 548.202228 -41.874844 
L 552.447329 -41.874844 
L 556.69243 -41.874844 
L 560.937531 -41.874844 
L 565.182632 -41.874844 
L 569.427733 -41.874844 
L 573.672834 -41.874844 
L 577.917936 -41.874844 
L 582.163037 -41.874844 
L 586.408138 -41.874844 
L 590.653239 -41.874844 
L 594.89834 -41.874844 
L 599.143441 -41.874844 
L 603.388542 -41.874844 
L 607.633643 -41.874844 
L 611.878744 -41.874844 
L 616.123846 -41.874844 
L 620.368947 -41.874844 
L 624.614048 -41.874844 
L 628.859149 -41.874844 
L 633.10425 -41.874844 
L 637.349351 -41.874844 
L 641.594452 -41.874844 
L 645.839553 -41.874844 
L 650.084655 -41.874844 
L 654.329756 -41.874844 
L 658.574857 -41.874844 
L 662.819958 -41.874844 
L 667.065059 -41.874844 
L 671.31016 -41.874844 
L 675.555261 -41.874844 
L 679.800362 -41.874844 
L 684.045464 -41.874844 
L 688.290565 -41.874844 
L 692.535666 -41.874844 
L 696.780767 -41.874844 
L 701.025868 -41.874844 
L 705.270969 -41.874844 
L 709.51607 -41.874844 
L 713.761171 -41.874844 
L 718.006272 -41.874844 
L 722.251374 -41.874844 
L 726.496475 -41.874844 
L 730.741576 -41.874844 
L 734.986677 -41.874844 
L 739.231778 -41.874844 
L 743.476879 -41.874844 
L 747.72198 -41.874844 
L 751.967081 -41.874844 
L 756.212183 -41.874844 
L 760.457284 -41.874844 
L 764.702385 -41.874844 
L 768.947486 -41.874844 
L 773.192587 -41.874844 
L 777.437688 -41.874844 
L 781.682789 -41.874844 
L 785.92789 -41.874844 
L 790.172992 -41.874844 
L 794.418093 -41.874844 
L 798.663194 -41.874844 
L 802.908295 -41.874844 
L 807.153396 -41.874844 
L 811.398497 -41.874844 
L 815.643598 -41.874844 
L 819.888699 -41.874844 
L 824.1338 -41.874844 
L 828.378902 -41.874844 
L 832.624003 -41.874844 
L 836.869104 -41.874844 
L 841.114205 -41.874844 
L 845.359306 -41.874844 
L 849.604407 -41.874844 
L 853.849508 -41.874844 
L 858.094609 -41.874844 
L 862.339711 -41.874844 
L 866.584812 -41.874844 
L 870.829913 -41.874844 
L 875.075014 -41.874844 
L 879.320115 -41.874844 
L 883.565216 -41.874844 
L 887.810317 -41.874844 
L 892.055418 -41.874844 
L 896.30052 -41.874844 
L 900.545621 -41.874844 
L 904.790722 -41.874844 
L 909.035823 -41.874844 
L 913.280924 -41.874844 
L 917.526025 -41.874844 
L 921.771126 -41.874844 
L 926.016227 -41.874844 
L 930.261328 -41.874844 
L 934.50643 -41.874844 
L 938.751531 -41.874844 
L 942.996632 -41.874844 
L 947.241733 -41.874844 
L 947.241733 -129.867454 
L 947.241733 -129.867454 
L 942.996632 -129.221017 
L 938.751531 -127.310063 
L 934.50643 -124.217593 
L 930.261328 -120.075277 
L 926.016227 -115.054156 
L 921.771126 -109.352946 
L 917.526025 -103.185048 
L 913.280924 -96.765452 
L 909.035823 -90.298623 
L 904.790722 -83.968311 
L 900.545621 -77.929892 
L 896.30052 -72.305607 
L 892.055418 -67.182677 
L 887.810317 -62.614066 
L 883.565216 -58.621393 
L 879.320115 -55.199425 
L 875.075014 -52.321497 
L 870.829913 -49.945264 
L 866.584812 -48.018268 
L 862.339711 -46.482926 
L 858.094609 -45.280692 
L 853.849508 -44.355267 
L 849.604407 -43.65485 
L 845.359306 -43.133516 
L 841.114205 -42.751843 
L 836.869104 -42.476961 
L 832.624003 -42.282185 
L 828.378902 -42.146382 
L 824.1338 -42.053204 
L 819.888699 -41.990285 
L 815.643598 -41.948468 
L 811.398497 -41.921111 
L 807.153396 -41.903494 
L 802.908295 -41.892325 
L 798.663194 -41.885354 
L 794.418093 -41.88107 
L 790.172992 -41.878479 
L 785.92789 -41.876935 
L 781.682789 -41.876029 
L 777.437688 -41.875506 
L 773.192587 -41.875208 
L 768.947486 -41.875041 
L 764.702385 -41.874949 
L 760.457284 -41.874899 
L 756.212183 -41.874873 
L 751.967081 -41.874858 
L 747.72198 -41.874851 
L 743.476879 -41.874847 
L 739.231778 -41.874846 
L 734.986677 -41.874845 
L 730.741576 -41.874844 
L 726.496475 -41.874844 
L 722.251374 -41.874844 
L 718.006272 -41.874844 
L 713.761171 -41.874844 
L 709.51607 -41.874844 
L 705.270969 -41.874845 
L 701.025868 -41.874846 
L 696.780767 -41.874848 
L 692.535666 -41.87485 
L 688.290565 -41.874855 
L 684.045464 -41.874862 
L 679.800362 -41.874874 
L 675.555261 -41.874893 
L 671.31016 -41.874922 
L 667.065059 -41.874968 
L 662.819958 -41.875038 
L 658.574857 -41.875145 
L 654.329756 -41.875303 
L 650.084655 -41.875536 
L 645.839553 -41.875875 
L 641.594452 -41.876361 
L 637.349351 -41.877049 
L 633.10425 -41.878011 
L 628.859149 -41.879337 
L 624.614048 -41.881144 
L 620.368947 -41.883574 
L 616.123846 -41.886805 
L 611.878744 -41.891046 
L 607.633643 -41.896547 
L 603.388542 -41.9036 
L 599.143441 -41.912536 
L 594.89834 -41.923732 
L 590.653239 -41.937605 
L 586.408138 -41.954608 
L 582.163037 -41.975229 
L 577.917936 -41.999984 
L 573.672834 -42.029408 
L 569.427733 -42.06405 
L 565.182632 -42.104461 
L 560.937531 -42.151185 
L 556.69243 -42.204752 
L 552.447329 -42.265667 
L 548.202228 -42.334399 
L 543.957127 -42.411374 
L 539.712025 -42.496966 
L 535.466924 -42.591488 
L 531.221823 -42.695181 
L 526.976722 -42.808209 
L 522.731621 -42.930649 
L 518.48652 -43.062484 
L 514.241419 -43.203598 
L 509.996318 -43.353766 
L 505.751216 -43.512659 
L 501.506115 -43.679841 
L 497.261014 -43.85477 
L 493.015913 -44.03681 
L 488.770812 -44.225239 
L 484.525711 -44.419266 
L 480.28061 -44.618045 
L 476.035509 -44.820696 
L 471.790408 -45.026329 
L 467.545306 -45.234063 
L 463.300205 -45.443048 
L 459.055104 -45.652482 
L 454.810003 -45.861637 
L 450.564902 -46.069864 
L 446.319801 -46.276611 
L 442.0747 -46.48143 
L 437.829599 -46.683981 
L 433.584497 -46.884037 
L 429.339396 -47.08148 
L 425.094295 -47.276295 
L 420.849194 -47.468568 
L 416.604093 -47.658474 
L 412.358992 -47.846264 
L 408.113891 -48.032256 
L 403.86879 -48.216817 
L 399.623688 -48.400351 
L 395.378587 -48.58328 
L 391.133486 -48.766036 
L 386.888385 -48.949043 
L 382.643284 -49.132711 
L 378.398183 -49.317424 
L 374.153082 -49.503538 
L 369.907981 -49.69138 
L 365.66288 -49.881248 
L 361.417778 -50.073415 
L 357.172677 -50.26814 
L 352.927576 -50.465669 
L 348.682475 -50.666253 
L 344.437374 -50.870147 
L 340.192273 -51.077629 
L 335.947172 -51.288998 
L 331.702071 -51.504582 
L 327.456969 -51.724741 
L 323.211868 -51.949865 
L 318.966767 -52.180369 
L 314.721666 -52.416693 
L 310.476565 -52.659288 
L 306.231464 -52.908618 
L 301.986363 -53.165145 
L 297.741262 -53.429333 
L 293.49616 -53.701645 
L 289.251059 -53.982549 
L 285.005958 -54.272529 
L 280.760857 -54.572101 
L 276.515756 -54.881844 
L 272.270655 -55.202428 
L 268.025554 -55.534666 
L 263.780453 -55.879565 
L 259.535352 -56.238401 
L 255.29025 -56.612821 
L 251.045149 -57.004958 
L 246.800048 -57.417606 
L 242.554947 -57.85443 
L 238.309846 -58.320242 
L 234.064745 -58.821359 
L 229.819644 -59.366032 
L 225.574543 -59.964963 
L 221.329441 -60.631894 
L 217.08434 -61.384248 
L 212.839239 -62.243763 
L 208.594138 -63.237081 
L 204.349037 -64.396162 
L 200.103936 -65.758438 
L 195.858835 -67.366554 
L 191.613734 -69.267549 
L 187.368633 -71.511348 
L 183.123531 -74.148447 
L 178.87843 -77.226729 
L 174.633329 -80.787439 
L 170.388228 -84.860437 
L 166.143127 -89.458979 
L 161.898026 -94.574384 
L 157.652925 -100.171089 
L 153.407824 -106.182639 
L 149.162722 -112.509222 
L 144.917621 -119.017299 
L 140.67252 -125.541776 
L 136.427419 -131.890972 
L 132.182318 -137.854375 
L 127.937217 -143.212881 
L 123.692116 -147.750912 
L 119.447015 -151.269535 
L 115.201913 -153.599503 
L 110.956812 -154.61307 
L 106.711711 -154.233453 
L 102.46661 -152.441007 
z
" style="stroke: #1f77b4; stroke-width: 2"/>
    </defs>
    <g clip-path="url(#p86adc9bb9a)">
     <use xlink:href="#mc7c3bb115e" x="0" y="348.735469" style="fill: #1f77b4; fill-opacity: 0.3; stroke: #1f77b4; stroke-width: 2"/>
    </g>
   </g>
   <g id="FillBetweenPolyCollection_2">
    <defs>
     <path id="md1017265f5" d="M 101.620142 -309.485209 
L 101.620142 -41.874844 
L 104.674233 -41.874844 
L 107.728324 -41.874844 
L 110.782414 -41.874844 
L 113.836505 -41.874844 
L 116.890596 -41.874844 
L 119.944687 -41.874844 
L 122.998778 -41.874844 
L 126.052868 -41.874844 
L 129.106959 -41.874844 
L 132.16105 -41.874844 
L 135.215141 -41.874844 
L 138.269231 -41.874844 
L 141.323322 -41.874844 
L 144.377413 -41.874844 
L 147.431504 -41.874844 
L 150.485595 -41.874844 
L 153.539685 -41.874844 
L 156.593776 -41.874844 
L 159.647867 -41.874844 
L 162.701958 -41.874844 
L 165.756049 -41.874844 
L 168.810139 -41.874844 
L 171.86423 -41.874844 
L 174.918321 -41.874844 
L 177.972412 -41.874844 
L 181.026502 -41.874844 
L 184.080593 -41.874844 
L 187.134684 -41.874844 
L 190.188775 -41.874844 
L 193.242866 -41.874844 
L 196.296956 -41.874844 
L 199.351047 -41.874844 
L 202.405138 -41.874844 
L 205.459229 -41.874844 
L 208.51332 -41.874844 
L 211.56741 -41.874844 
L 214.621501 -41.874844 
L 217.675592 -41.874844 
L 220.729683 -41.874844 
L 223.783773 -41.874844 
L 226.837864 -41.874844 
L 229.891955 -41.874844 
L 232.946046 -41.874844 
L 236.000137 -41.874844 
L 239.054227 -41.874844 
L 242.108318 -41.874844 
L 245.162409 -41.874844 
L 248.2165 -41.874844 
L 251.270591 -41.874844 
L 254.324681 -41.874844 
L 257.378772 -41.874844 
L 260.432863 -41.874844 
L 263.486954 -41.874844 
L 266.541044 -41.874844 
L 269.595135 -41.874844 
L 272.649226 -41.874844 
L 275.703317 -41.874844 
L 278.757408 -41.874844 
L 281.811498 -41.874844 
L 284.865589 -41.874844 
L 287.91968 -41.874844 
L 290.973771 -41.874844 
L 294.027862 -41.874844 
L 297.081952 -41.874844 
L 300.136043 -41.874844 
L 303.190134 -41.874844 
L 306.244225 -41.874844 
L 309.298315 -41.874844 
L 312.352406 -41.874844 
L 315.406497 -41.874844 
L 318.460588 -41.874844 
L 321.514679 -41.874844 
L 324.568769 -41.874844 
L 327.62286 -41.874844 
L 330.676951 -41.874844 
L 333.731042 -41.874844 
L 336.785133 -41.874844 
L 339.839223 -41.874844 
L 342.893314 -41.874844 
L 345.947405 -41.874844 
L 349.001496 -41.874844 
L 352.055586 -41.874844 
L 355.109677 -41.874844 
L 358.163768 -41.874844 
L 361.217859 -41.874844 
L 364.27195 -41.874844 
L 367.32604 -41.874844 
L 370.380131 -41.874844 
L 373.434222 -41.874844 
L 376.488313 -41.874844 
L 379.542404 -41.874844 
L 382.596494 -41.874844 
L 385.650585 -41.874844 
L 388.704676 -41.874844 
L 391.758767 -41.874844 
L 394.812857 -41.874844 
L 397.866948 -41.874844 
L 400.921039 -41.874844 
L 403.97513 -41.874844 
L 407.029221 -41.874844 
L 410.083311 -41.874844 
L 413.137402 -41.874844 
L 416.191493 -41.874844 
L 419.245584 -41.874844 
L 422.299675 -41.874844 
L 425.353765 -41.874844 
L 428.407856 -41.874844 
L 431.461947 -41.874844 
L 434.516038 -41.874844 
L 437.570128 -41.874844 
L 440.624219 -41.874844 
L 443.67831 -41.874844 
L 446.732401 -41.874844 
L 449.786492 -41.874844 
L 452.840582 -41.874844 
L 455.894673 -41.874844 
L 458.948764 -41.874844 
L 462.002855 -41.874844 
L 465.056946 -41.874844 
L 468.111036 -41.874844 
L 471.165127 -41.874844 
L 474.219218 -41.874844 
L 477.273309 -41.874844 
L 480.327399 -41.874844 
L 483.38149 -41.874844 
L 486.435581 -41.874844 
L 489.489672 -41.874844 
L 492.543763 -41.874844 
L 495.597853 -41.874844 
L 498.651944 -41.874844 
L 501.706035 -41.874844 
L 504.760126 -41.874844 
L 507.814217 -41.874844 
L 510.868307 -41.874844 
L 513.922398 -41.874844 
L 516.976489 -41.874844 
L 520.03058 -41.874844 
L 523.08467 -41.874844 
L 526.138761 -41.874844 
L 529.192852 -41.874844 
L 532.246943 -41.874844 
L 535.301034 -41.874844 
L 538.355124 -41.874844 
L 541.409215 -41.874844 
L 544.463306 -41.874844 
L 547.517397 -41.874844 
L 550.571488 -41.874844 
L 553.625578 -41.874844 
L 556.679669 -41.874844 
L 559.73376 -41.874844 
L 562.787851 -41.874844 
L 565.841941 -41.874844 
L 568.896032 -41.874844 
L 571.950123 -41.874844 
L 575.004214 -41.874844 
L 578.058305 -41.874844 
L 581.112395 -41.874844 
L 584.166486 -41.874844 
L 587.220577 -41.874844 
L 590.274668 -41.874844 
L 593.328759 -41.874844 
L 596.382849 -41.874844 
L 599.43694 -41.874844 
L 602.491031 -41.874844 
L 605.545122 -41.874844 
L 608.599212 -41.874844 
L 611.653303 -41.874844 
L 614.707394 -41.874844 
L 617.761485 -41.874844 
L 620.815576 -41.874844 
L 623.869666 -41.874844 
L 626.923757 -41.874844 
L 629.977848 -41.874844 
L 633.031939 -41.874844 
L 636.08603 -41.874844 
L 639.14012 -41.874844 
L 642.194211 -41.874844 
L 645.248302 -41.874844 
L 648.302393 -41.874844 
L 651.356483 -41.874844 
L 654.410574 -41.874844 
L 657.464665 -41.874844 
L 660.518756 -41.874844 
L 663.572847 -41.874844 
L 666.626937 -41.874844 
L 669.681028 -41.874844 
L 672.735119 -41.874844 
L 675.78921 -41.874844 
L 678.843301 -41.874844 
L 681.897391 -41.874844 
L 684.951482 -41.874844 
L 688.005573 -41.874844 
L 691.059664 -41.874844 
L 694.113754 -41.874844 
L 697.167845 -41.874844 
L 700.221936 -41.874844 
L 703.276027 -41.874844 
L 706.330118 -41.874844 
L 709.384208 -41.874844 
L 709.384208 -42.403381 
L 709.384208 -42.403381 
L 706.330118 -42.519951 
L 703.276027 -42.652098 
L 700.221936 -42.799936 
L 697.167845 -42.963379 
L 694.113754 -43.142225 
L 691.059664 -43.336264 
L 688.005573 -43.545385 
L 684.951482 -43.769671 
L 681.897391 -44.00946 
L 678.843301 -44.265367 
L 675.78921 -44.538244 
L 672.735119 -44.829095 
L 669.681028 -45.138948 
L 666.626937 -45.468711 
L 663.572847 -45.819022 
L 660.518756 -46.190128 
L 657.464665 -46.581805 
L 654.410574 -46.993321 
L 651.356483 -47.423452 
L 648.302393 -47.87054 
L 645.248302 -48.332564 
L 642.194211 -48.807231 
L 639.14012 -49.292057 
L 636.08603 -49.784447 
L 633.031939 -50.281762 
L 629.977848 -50.78139 
L 626.923757 -51.280822 
L 623.869666 -51.777737 
L 620.815576 -52.270099 
L 617.761485 -52.756251 
L 614.707394 -53.23499 
L 611.653303 -53.705607 
L 608.599212 -54.167877 
L 605.545122 -54.62199 
L 602.491031 -55.068423 
L 599.43694 -55.50777 
L 596.382849 -55.940561 
L 593.328759 -56.36708 
L 590.274668 -56.787236 
L 587.220577 -57.200488 
L 584.166486 -57.605851 
L 581.112395 -58.001971 
L 578.058305 -58.387267 
L 575.004214 -58.760107 
L 571.950123 -59.11899 
L 568.896032 -59.46272 
L 565.841941 -59.790531 
L 562.787851 -60.102156 
L 559.73376 -60.397834 
L 556.679669 -60.678255 
L 553.625578 -60.944453 
L 550.571488 -61.19766 
L 547.517397 -61.439134 
L 544.463306 -61.669982 
L 541.409215 -61.890989 
L 538.355124 -62.102477 
L 535.301034 -62.304195 
L 532.246943 -62.49527 
L 529.192852 -62.674221 
L 526.138761 -62.839046 
L 523.08467 -62.987385 
L 520.03058 -63.116738 
L 516.976489 -63.224739 
L 513.922398 -63.309426 
L 510.868307 -63.369494 
L 507.814217 -63.404484 
L 504.760126 -63.414875 
L 501.706035 -63.402066 
L 498.651944 -63.368257 
L 495.597853 -63.316229 
L 492.543763 -63.249091 
L 489.489672 -63.170006 
L 486.435581 -63.081975 
L 483.38149 -62.987687 
L 480.327399 -62.889471 
L 477.273309 -62.789341 
L 474.219218 -62.689104 
L 471.165127 -62.590513 
L 468.111036 -62.495395 
L 465.056946 -62.405732 
L 462.002855 -62.323672 
L 458.948764 -62.251436 
L 455.894673 -62.191167 
L 452.840582 -62.144705 
L 449.786492 -62.113368 
L 446.732401 -62.09774 
L 443.67831 -62.097528 
L 440.624219 -62.111504 
L 437.570128 -62.137536 
L 434.516038 -62.172718 
L 431.461947 -62.213571 
L 428.407856 -62.256298 
L 425.353765 -62.297048 
L 422.299675 -62.332182 
L 419.245584 -62.358483 
L 416.191493 -62.373326 
L 413.137402 -62.374757 
L 410.083311 -62.361517 
L 407.029221 -62.332985 
L 403.97513 -62.28907 
L 400.921039 -62.230064 
L 397.866948 -62.156476 
L 394.812857 -62.06887 
L 391.758767 -61.967737 
L 388.704676 -61.853413 
L 385.650585 -61.726047 
L 382.596494 -61.585648 
L 379.542404 -61.432171 
L 376.488313 -61.26565 
L 373.434222 -61.086335 
L 370.380131 -60.894818 
L 367.32604 -60.692107 
L 364.27195 -60.479641 
L 361.217859 -60.259233 
L 358.163768 -60.032947 
L 355.109677 -59.802933 
L 352.055586 -59.571236 
L 349.001496 -59.339628 
L 345.947405 -59.109477 
L 342.893314 -58.881675 
L 339.839223 -58.656636 
L 336.785133 -58.434359 
L 333.731042 -58.214528 
L 330.676951 -57.996646 
L 327.62286 -57.780156 
L 324.568769 -57.564537 
L 321.514679 -57.349365 
L 318.460588 -57.134317 
L 315.406497 -56.919149 
L 312.352406 -56.703641 
L 309.298315 -56.487541 
L 306.244225 -56.270533 
L 303.190134 -56.05223 
L 300.136043 -55.832226 
L 297.081952 -55.610189 
L 294.027862 -55.38599 
L 290.973771 -55.15985 
L 287.91968 -54.932473 
L 284.865589 -54.705144 
L 281.811498 -54.47976 
L 278.757408 -54.258774 
L 275.703317 -54.045058 
L 272.649226 -53.841676 
L 269.595135 -53.651602 
L 266.541044 -53.477401 
L 263.486954 -53.320926 
L 260.432863 -53.18307 
L 257.378772 -53.063598 
L 254.324681 -52.961119 
L 251.270591 -52.873173 
L 248.2165 -52.796471 
L 245.162409 -52.727232 
L 242.108318 -52.661599 
L 239.054227 -52.596073 
L 236.000137 -52.527924 
L 232.946046 -52.455504 
L 229.891955 -52.378452 
L 226.837864 -52.297747 
L 223.783773 -52.21563 
L 220.729683 -52.135397 
L 217.675592 -52.061122 
L 214.621501 -51.997345 
L 211.56741 -51.948772 
L 208.51332 -51.920032 
L 205.459229 -51.915524 
L 202.405138 -51.939355 
L 199.351047 -51.995387 
L 196.296956 -52.087405 
L 193.242866 -52.219401 
L 190.188775 -52.396049 
L 187.134684 -52.623432 
L 184.080593 -52.910157 
L 181.026502 -53.26904 
L 177.972412 -53.719582 
L 174.918321 -54.291454 
L 171.86423 -55.029196 
L 168.810139 -55.99816 
L 165.756049 -57.291552 
L 162.701958 -59.037991 
L 159.647867 -61.40858 
L 156.593776 -64.621852 
L 153.539685 -68.944463 
L 150.485595 -74.685066 
L 147.431504 -82.178871 
L 144.377413 -91.760902 
L 141.323322 -103.727359 
L 138.269231 -118.286502 
L 135.215141 -135.503157 
L 132.16105 -155.243723 
L 129.106959 -177.130867 
L 126.052868 -200.518163 
L 122.998778 -224.494145 
L 119.944687 -247.922211 
L 116.890596 -269.517679 
L 113.836505 -287.956845 
L 110.782414 -302.006262 
L 107.728324 -310.65523 
L 104.674233 -313.231987 
L 101.620142 -309.485209 
z
" style="stroke: #ff7f0e; stroke-width: 2"/>
    </defs>
    <g clip-path="url(#p86adc9bb9a)">
     <use xlink:href="#md1017265f5" x="0" y="348.735469" style="fill: #ff7f0e; fill-opacity: 0.3; stroke: #ff7f0e; stroke-width: 2"/>
    </g>
   </g>
   <g id="patch_3">
    <path d="M 59.339063 306.860625 
L 59.339063 21.935625 
" style="fill: none; stroke: #cccccc; stroke-width: 1.25; stroke-linejoin: miter; stroke-linecap: square"/>
   </g>
   <g id="patch_4">
    <path d="M 989.522812 306.860625 
L 989.522812 21.935625 
" style="fill: none; stroke: #cccccc; stroke-width: 1.25; stroke-linejoin: miter; stroke-linecap: square"/>
   </g>
   <g id="patch_5">
    <path d="M 59.339062 306.860625 
L 989.522812 306.860625 
" style="fill: none; stroke: #cccccc; stroke-width: 1.25; stroke-linejoin: miter; stroke-linecap: square"/>
   </g>
   <g id="patch_6">
    <path d="M 59.339062 21.935625 
L 989.522812 21.935625 
" style="fill: none; stroke: #cccccc; stroke-width: 1.25; stroke-linejoin: miter; stroke-linecap: square"/>
   </g>
   <g id="text_15">
    <!-- Cluster 1: Time Since Last Sale in Train vs Test (Clipped at P99) -->
    <g style="fill: #262626" transform="translate(343.60125 15.935625) scale(0.12 -0.12)">
     <defs>
      <path id="Arial-BoldMT-43" d="M 3397 1684 
L 4294 1400 
Q 4088 650 3608 286 
Q 3128 -78 2391 -78 
Q 1478 -78 890 545 
Q 303 1169 303 2250 
Q 303 3394 893 4026 
Q 1484 4659 2447 4659 
Q 3288 4659 3813 4163 
Q 4125 3869 4281 3319 
L 3366 3100 
Q 3284 3456 3026 3662 
Q 2769 3869 2400 3869 
Q 1891 3869 1573 3503 
Q 1256 3138 1256 2319 
Q 1256 1450 1568 1081 
Q 1881 713 2381 713 
Q 2750 713 3015 947 
Q 3281 1181 3397 1684 
z
" transform="scale(0.015625)"/>
      <path id="Arial-BoldMT-6c" d="M 459 0 
L 459 4581 
L 1338 4581 
L 1338 0 
L 459 0 
z
" transform="scale(0.015625)"/>
      <path id="Arial-BoldMT-75" d="M 2644 0 
L 2644 497 
Q 2463 231 2167 78 
Q 1872 -75 1544 -75 
Q 1209 -75 943 72 
Q 678 219 559 484 
Q 441 750 441 1219 
L 441 3319 
L 1319 3319 
L 1319 1794 
Q 1319 1094 1367 936 
Q 1416 778 1544 686 
Q 1672 594 1869 594 
Q 2094 594 2272 717 
Q 2450 841 2515 1023 
Q 2581 1206 2581 1919 
L 2581 3319 
L 3459 3319 
L 3459 0 
L 2644 0 
z
" transform="scale(0.015625)"/>
      <path id="Arial-BoldMT-73" d="M 150 947 
L 1031 1081 
Q 1088 825 1259 692 
Q 1431 559 1741 559 
Q 2081 559 2253 684 
Q 2369 772 2369 919 
Q 2369 1019 2306 1084 
Q 2241 1147 2013 1200 
Q 950 1434 666 1628 
Q 272 1897 272 2375 
Q 272 2806 612 3100 
Q 953 3394 1669 3394 
Q 2350 3394 2681 3172 
Q 3013 2950 3138 2516 
L 2309 2363 
Q 2256 2556 2107 2659 
Q 1959 2763 1684 2763 
Q 1338 2763 1188 2666 
Q 1088 2597 1088 2488 
Q 1088 2394 1175 2328 
Q 1294 2241 1995 2081 
Q 2697 1922 2975 1691 
Q 3250 1456 3250 1038 
Q 3250 581 2869 253 
Q 2488 -75 1741 -75 
Q 1063 -75 667 200 
Q 272 475 150 947 
z
" transform="scale(0.015625)"/>
      <path id="Arial-BoldMT-74" d="M 1981 3319 
L 1981 2619 
L 1381 2619 
L 1381 1281 
Q 1381 875 1398 808 
Q 1416 741 1477 697 
Q 1538 653 1625 653 
Q 1747 653 1978 738 
L 2053 56 
Q 1747 -75 1359 -75 
Q 1122 -75 931 4 
Q 741 84 652 211 
Q 563 338 528 553 
Q 500 706 500 1172 
L 500 2619 
L 97 2619 
L 97 3319 
L 500 3319 
L 500 3978 
L 1381 4491 
L 1381 3319 
L 1981 3319 
z
" transform="scale(0.015625)"/>
      <path id="Arial-BoldMT-65" d="M 2381 1056 
L 3256 909 
Q 3088 428 2723 176 
Q 2359 -75 1813 -75 
Q 947 -75 531 491 
Q 203 944 203 1634 
Q 203 2459 634 2926 
Q 1066 3394 1725 3394 
Q 2466 3394 2894 2905 
Q 3322 2416 3303 1406 
L 1103 1406 
Q 1113 1016 1316 798 
Q 1519 581 1822 581 
Q 2028 581 2168 693 
Q 2309 806 2381 1056 
z
M 2431 1944 
Q 2422 2325 2234 2523 
Q 2047 2722 1778 2722 
Q 1491 2722 1303 2513 
Q 1116 2303 1119 1944 
L 2431 1944 
z
" transform="scale(0.015625)"/>
      <path id="Arial-BoldMT-72" d="M 1300 0 
L 422 0 
L 422 3319 
L 1238 3319 
L 1238 2847 
Q 1447 3181 1614 3287 
Q 1781 3394 1994 3394 
Q 2294 3394 2572 3228 
L 2300 2463 
Q 2078 2606 1888 2606 
Q 1703 2606 1575 2504 
Q 1447 2403 1373 2137 
Q 1300 1872 1300 1025 
L 1300 0 
z
" transform="scale(0.015625)"/>
      <path id="Arial-BoldMT-20" transform="scale(0.015625)"/>
      <path id="Arial-BoldMT-31" d="M 2519 0 
L 1641 0 
L 1641 3309 
Q 1159 2859 506 2644 
L 506 3441 
Q 850 3553 1253 3867 
Q 1656 4181 1806 4600 
L 2519 4600 
L 2519 0 
z
" transform="scale(0.015625)"/>
      <path id="Arial-BoldMT-3a" d="M 628 2441 
L 628 3319 
L 1506 3319 
L 1506 2441 
L 628 2441 
z
M 628 0 
L 628 878 
L 1506 878 
L 1506 0 
L 628 0 
z
" transform="scale(0.015625)"/>
      <path id="Arial-BoldMT-54" d="M 1497 0 
L 1497 3806 
L 138 3806 
L 138 4581 
L 3778 4581 
L 3778 3806 
L 2422 3806 
L 2422 0 
L 1497 0 
z
" transform="scale(0.015625)"/>
      <path id="Arial-BoldMT-69" d="M 459 3769 
L 459 4581 
L 1338 4581 
L 1338 3769 
L 459 3769 
z
M 459 0 
L 459 3319 
L 1338 3319 
L 1338 0 
L 459 0 
z
" transform="scale(0.015625)"/>
      <path id="Arial-BoldMT-6d" d="M 394 3319 
L 1203 3319 
L 1203 2866 
Q 1638 3394 2238 3394 
Q 2556 3394 2790 3262 
Q 3025 3131 3175 2866 
Q 3394 3131 3647 3262 
Q 3900 3394 4188 3394 
Q 4553 3394 4806 3245 
Q 5059 3097 5184 2809 
Q 5275 2597 5275 2122 
L 5275 0 
L 4397 0 
L 4397 1897 
Q 4397 2391 4306 2534 
Q 4184 2722 3931 2722 
Q 3747 2722 3584 2609 
Q 3422 2497 3350 2280 
Q 3278 2063 3278 1594 
L 3278 0 
L 2400 0 
L 2400 1819 
Q 2400 2303 2353 2443 
Q 2306 2584 2207 2653 
Q 2109 2722 1941 2722 
Q 1738 2722 1575 2612 
Q 1413 2503 1342 2297 
Q 1272 2091 1272 1613 
L 1272 0 
L 394 0 
L 394 3319 
z
" transform="scale(0.015625)"/>
      <path id="Arial-BoldMT-53" d="M 231 1491 
L 1131 1578 
Q 1213 1125 1461 912 
Q 1709 700 2131 700 
Q 2578 700 2804 889 
Q 3031 1078 3031 1331 
Q 3031 1494 2936 1608 
Q 2841 1722 2603 1806 
Q 2441 1863 1863 2006 
Q 1119 2191 819 2459 
Q 397 2838 397 3381 
Q 397 3731 595 4036 
Q 794 4341 1167 4500 
Q 1541 4659 2069 4659 
Q 2931 4659 3367 4281 
Q 3803 3903 3825 3272 
L 2900 3231 
Q 2841 3584 2645 3739 
Q 2450 3894 2059 3894 
Q 1656 3894 1428 3728 
Q 1281 3622 1281 3444 
Q 1281 3281 1419 3166 
Q 1594 3019 2269 2859 
Q 2944 2700 3267 2529 
Q 3591 2359 3773 2064 
Q 3956 1769 3956 1334 
Q 3956 941 3737 597 
Q 3519 253 3119 86 
Q 2719 -81 2122 -81 
Q 1253 -81 787 320 
Q 322 722 231 1491 
z
" transform="scale(0.015625)"/>
      <path id="Arial-BoldMT-6e" d="M 3478 0 
L 2600 0 
L 2600 1694 
Q 2600 2231 2544 2389 
Q 2488 2547 2361 2634 
Q 2234 2722 2056 2722 
Q 1828 2722 1647 2597 
Q 1466 2472 1398 2265 
Q 1331 2059 1331 1503 
L 1331 0 
L 453 0 
L 453 3319 
L 1269 3319 
L 1269 2831 
Q 1703 3394 2363 3394 
Q 2653 3394 2893 3289 
Q 3134 3184 3257 3021 
Q 3381 2859 3429 2653 
Q 3478 2447 3478 2063 
L 3478 0 
z
" transform="scale(0.015625)"/>
      <path id="Arial-BoldMT-63" d="M 3353 2338 
L 2488 2181 
Q 2444 2441 2289 2572 
Q 2134 2703 1888 2703 
Q 1559 2703 1364 2476 
Q 1169 2250 1169 1719 
Q 1169 1128 1367 884 
Q 1566 641 1900 641 
Q 2150 641 2309 783 
Q 2469 925 2534 1272 
L 3397 1125 
Q 3263 531 2881 228 
Q 2500 -75 1859 -75 
Q 1131 -75 698 384 
Q 266 844 266 1656 
Q 266 2478 700 2936 
Q 1134 3394 1875 3394 
Q 2481 3394 2839 3133 
Q 3197 2872 3353 2338 
z
" transform="scale(0.015625)"/>
      <path id="Arial-BoldMT-4c" d="M 491 0 
L 491 4544 
L 1416 4544 
L 1416 772 
L 3716 772 
L 3716 0 
L 491 0 
z
" transform="scale(0.015625)"/>
      <path id="Arial-BoldMT-61" d="M 1116 2306 
L 319 2450 
Q 453 2931 781 3162 
Q 1109 3394 1756 3394 
Q 2344 3394 2631 3255 
Q 2919 3116 3036 2902 
Q 3153 2688 3153 2116 
L 3144 1091 
Q 3144 653 3186 445 
Q 3228 238 3344 0 
L 2475 0 
Q 2441 88 2391 259 
Q 2369 338 2359 363 
Q 2134 144 1878 34 
Q 1622 -75 1331 -75 
Q 819 -75 523 203 
Q 228 481 228 906 
Q 228 1188 362 1408 
Q 497 1628 739 1745 
Q 981 1863 1438 1950 
Q 2053 2066 2291 2166 
L 2291 2253 
Q 2291 2506 2166 2614 
Q 2041 2722 1694 2722 
Q 1459 2722 1328 2630 
Q 1197 2538 1116 2306 
z
M 2291 1594 
Q 2122 1538 1756 1459 
Q 1391 1381 1278 1306 
Q 1106 1184 1106 997 
Q 1106 813 1243 678 
Q 1381 544 1594 544 
Q 1831 544 2047 700 
Q 2206 819 2256 991 
Q 2291 1103 2291 1419 
L 2291 1594 
z
" transform="scale(0.015625)"/>
      <path id="Arial-BoldMT-76" d="M 1372 0 
L 34 3319 
L 956 3319 
L 1581 1625 
L 1763 1059 
Q 1834 1275 1853 1344 
Q 1897 1484 1947 1625 
L 2578 3319 
L 3481 3319 
L 2163 0 
L 1372 0 
z
" transform="scale(0.015625)"/>
      <path id="Arial-BoldMT-28" d="M 1916 -1347 
L 1313 -1347 
Q 834 -625 584 153 
Q 334 931 334 1659 
Q 334 2563 644 3369 
Q 913 4069 1325 4659 
L 1925 4659 
Q 1497 3713 1336 3048 
Q 1175 2384 1175 1641 
Q 1175 1128 1270 590 
Q 1366 53 1531 -431 
Q 1641 -750 1916 -1347 
z
" transform="scale(0.015625)"/>
      <path id="Arial-BoldMT-70" d="M 434 3319 
L 1253 3319 
L 1253 2831 
Q 1413 3081 1684 3237 
Q 1956 3394 2288 3394 
Q 2866 3394 3269 2941 
Q 3672 2488 3672 1678 
Q 3672 847 3265 386 
Q 2859 -75 2281 -75 
Q 2006 -75 1782 34 
Q 1559 144 1313 409 
L 1313 -1263 
L 434 -1263 
L 434 3319 
z
M 1303 1716 
Q 1303 1156 1525 889 
Q 1747 622 2066 622 
Q 2372 622 2575 867 
Q 2778 1113 2778 1672 
Q 2778 2194 2568 2447 
Q 2359 2700 2050 2700 
Q 1728 2700 1515 2451 
Q 1303 2203 1303 1716 
z
" transform="scale(0.015625)"/>
      <path id="Arial-BoldMT-64" d="M 3503 0 
L 2688 0 
L 2688 488 
Q 2484 203 2207 64 
Q 1931 -75 1650 -75 
Q 1078 -75 670 386 
Q 263 847 263 1672 
Q 263 2516 659 2955 
Q 1056 3394 1663 3394 
Q 2219 3394 2625 2931 
L 2625 4581 
L 3503 4581 
L 3503 0 
z
M 1159 1731 
Q 1159 1200 1306 963 
Q 1519 619 1900 619 
Q 2203 619 2415 876 
Q 2628 1134 2628 1647 
Q 2628 2219 2422 2470 
Q 2216 2722 1894 2722 
Q 1581 2722 1370 2473 
Q 1159 2225 1159 1731 
z
" transform="scale(0.015625)"/>
      <path id="Arial-BoldMT-50" d="M 466 0 
L 466 4581 
L 1950 4581 
Q 2794 4581 3050 4513 
Q 3444 4409 3709 4064 
Q 3975 3719 3975 3172 
Q 3975 2750 3822 2462 
Q 3669 2175 3433 2011 
Q 3197 1847 2953 1794 
Q 2622 1728 1994 1728 
L 1391 1728 
L 1391 0 
L 466 0 
z
M 1391 3806 
L 1391 2506 
L 1897 2506 
Q 2444 2506 2628 2578 
Q 2813 2650 2917 2803 
Q 3022 2956 3022 3159 
Q 3022 3409 2875 3571 
Q 2728 3734 2503 3775 
Q 2338 3806 1838 3806 
L 1391 3806 
z
" transform="scale(0.015625)"/>
      <path id="Arial-BoldMT-39" d="M 291 1059 
L 1141 1153 
Q 1172 894 1303 769 
Q 1434 644 1650 644 
Q 1922 644 2112 894 
Q 2303 1144 2356 1931 
Q 2025 1547 1528 1547 
Q 988 1547 595 1964 
Q 203 2381 203 3050 
Q 203 3747 617 4173 
Q 1031 4600 1672 4600 
Q 2369 4600 2816 4061 
Q 3263 3522 3263 2288 
Q 3263 1031 2797 475 
Q 2331 -81 1584 -81 
Q 1047 -81 715 205 
Q 384 491 291 1059 
z
M 2278 2978 
Q 2278 3403 2083 3637 
Q 1888 3872 1631 3872 
Q 1388 3872 1227 3680 
Q 1066 3488 1066 3050 
Q 1066 2606 1241 2398 
Q 1416 2191 1678 2191 
Q 1931 2191 2104 2391 
Q 2278 2591 2278 2978 
z
" transform="scale(0.015625)"/>
      <path id="Arial-BoldMT-29" d="M 216 -1347 
Q 475 -791 581 -494 
Q 688 -197 778 190 
Q 869 578 912 926 
Q 956 1275 956 1641 
Q 956 2384 797 3048 
Q 638 3713 209 4659 
L 806 4659 
Q 1278 3988 1539 3234 
Q 1800 2481 1800 1706 
Q 1800 1053 1594 306 
Q 1359 -531 822 -1347 
L 216 -1347 
z
" transform="scale(0.015625)"/>
     </defs>
     <use xlink:href="#Arial-BoldMT-43"/>
     <use xlink:href="#Arial-BoldMT-6c" transform="translate(72.216797 0)"/>
     <use xlink:href="#Arial-BoldMT-75" transform="translate(100 0)"/>
     <use xlink:href="#Arial-BoldMT-73" transform="translate(161.083984 0)"/>
     <use xlink:href="#Arial-BoldMT-74" transform="translate(216.699219 0)"/>
     <use xlink:href="#Arial-BoldMT-65" transform="translate(250 0)"/>
     <use xlink:href="#Arial-BoldMT-72" transform="translate(305.615234 0)"/>
     <use xlink:href="#Arial-BoldMT-20" transform="translate(344.53125 0)"/>
     <use xlink:href="#Arial-BoldMT-31" transform="translate(372.314453 0)"/>
     <use xlink:href="#Arial-BoldMT-3a" transform="translate(427.929688 0)"/>
     <use xlink:href="#Arial-BoldMT-20" transform="translate(461.230469 0)"/>
     <use xlink:href="#Arial-BoldMT-54" transform="translate(489.013672 0)"/>
     <use xlink:href="#Arial-BoldMT-69" transform="translate(548.347656 0)"/>
     <use xlink:href="#Arial-BoldMT-6d" transform="translate(576.130859 0)"/>
     <use xlink:href="#Arial-BoldMT-65" transform="translate(665.046875 0)"/>
     <use xlink:href="#Arial-BoldMT-20" transform="translate(720.662109 0)"/>
     <use xlink:href="#Arial-BoldMT-53" transform="translate(748.445312 0)"/>
     <use xlink:href="#Arial-BoldMT-69" transform="translate(815.144531 0)"/>
     <use xlink:href="#Arial-BoldMT-6e" transform="translate(842.927734 0)"/>
     <use xlink:href="#Arial-BoldMT-63" transform="translate(904.011719 0)"/>
     <use xlink:href="#Arial-BoldMT-65" transform="translate(959.626953 0)"/>
     <use xlink:href="#Arial-BoldMT-20" transform="translate(1015.242188 0)"/>
     <use xlink:href="#Arial-BoldMT-4c" transform="translate(1043.025391 0)"/>
     <use xlink:href="#Arial-BoldMT-61" transform="translate(1104.109375 0)"/>
     <use xlink:href="#Arial-BoldMT-73" transform="translate(1159.724609 0)"/>
     <use xlink:href="#Arial-BoldMT-74" transform="translate(1215.339844 0)"/>
     <use xlink:href="#Arial-BoldMT-20" transform="translate(1248.640625 0)"/>
     <use xlink:href="#Arial-BoldMT-53" transform="translate(1276.423828 0)"/>
     <use xlink:href="#Arial-BoldMT-61" transform="translate(1343.123047 0)"/>
     <use xlink:href="#Arial-BoldMT-6c" transform="translate(1398.738281 0)"/>
     <use xlink:href="#Arial-BoldMT-65" transform="translate(1426.521484 0)"/>
     <use xlink:href="#Arial-BoldMT-20" transform="translate(1482.136719 0)"/>
     <use xlink:href="#Arial-BoldMT-69" transform="translate(1509.919922 0)"/>
     <use xlink:href="#Arial-BoldMT-6e" transform="translate(1537.703125 0)"/>
     <use xlink:href="#Arial-BoldMT-20" transform="translate(1598.787109 0)"/>
     <use xlink:href="#Arial-BoldMT-54" transform="translate(1626.570312 0)"/>
     <use xlink:href="#Arial-BoldMT-72" transform="translate(1682.154297 0)"/>
     <use xlink:href="#Arial-BoldMT-61" transform="translate(1721.070312 0)"/>
     <use xlink:href="#Arial-BoldMT-69" transform="translate(1776.685547 0)"/>
     <use xlink:href="#Arial-BoldMT-6e" transform="translate(1804.46875 0)"/>
     <use xlink:href="#Arial-BoldMT-20" transform="translate(1865.552734 0)"/>
     <use xlink:href="#Arial-BoldMT-76" transform="translate(1893.335938 0)"/>
     <use xlink:href="#Arial-BoldMT-73" transform="translate(1948.951172 0)"/>
     <use xlink:href="#Arial-BoldMT-20" transform="translate(2004.566406 0)"/>
     <use xlink:href="#Arial-BoldMT-54" transform="translate(2032.349609 0)"/>
     <use xlink:href="#Arial-BoldMT-65" transform="translate(2086.058594 0)"/>
     <use xlink:href="#Arial-BoldMT-73" transform="translate(2141.673828 0)"/>
     <use xlink:href="#Arial-BoldMT-74" transform="translate(2197.289062 0)"/>
     <use xlink:href="#Arial-BoldMT-20" transform="translate(2230.589844 0)"/>
     <use xlink:href="#Arial-BoldMT-28" transform="translate(2258.373047 0)"/>
     <use xlink:href="#Arial-BoldMT-43" transform="translate(2291.673828 0)"/>
     <use xlink:href="#Arial-BoldMT-6c" transform="translate(2363.890625 0)"/>
     <use xlink:href="#Arial-BoldMT-69" transform="translate(2391.673828 0)"/>
     <use xlink:href="#Arial-BoldMT-70" transform="translate(2419.457031 0)"/>
     <use xlink:href="#Arial-BoldMT-70" transform="translate(2480.541016 0)"/>
     <use xlink:href="#Arial-BoldMT-65" transform="translate(2541.625 0)"/>
     <use xlink:href="#Arial-BoldMT-64" transform="translate(2597.240234 0)"/>
     <use xlink:href="#Arial-BoldMT-20" transform="translate(2658.324219 0)"/>
     <use xlink:href="#Arial-BoldMT-61" transform="translate(2686.107422 0)"/>
     <use xlink:href="#Arial-BoldMT-74" transform="translate(2741.722656 0)"/>
     <use xlink:href="#Arial-BoldMT-20" transform="translate(2775.023438 0)"/>
     <use xlink:href="#Arial-BoldMT-50" transform="translate(2802.806641 0)"/>
     <use xlink:href="#Arial-BoldMT-39" transform="translate(2869.505859 0)"/>
     <use xlink:href="#Arial-BoldMT-39" transform="translate(2925.121094 0)"/>
     <use xlink:href="#Arial-BoldMT-29" transform="translate(2980.736328 0)"/>
    </g>
   </g>
   <g id="legend_1">
    <g id="patch_7">
     <path d="M 921.975937 61.855312 
L 981.822812 61.855312 
Q 984.022812 61.855312 984.022812 59.655312 
L 984.022812 29.635625 
Q 984.022812 27.435625 981.822812 27.435625 
L 921.975937 27.435625 
Q 919.775937 27.435625 919.775937 29.635625 
L 919.775937 59.655312 
Q 919.775937 61.855312 921.975937 61.855312 
z
" style="fill: #ffffff; opacity: 0.8; stroke: #cccccc; stroke-linejoin: miter"/>
    </g>
    <g id="patch_8">
     <path d="M 924.175937 39.709219 
L 946.175937 39.709219 
L 946.175937 32.009219 
L 924.175937 32.009219 
z
" style="fill: #1f77b4; fill-opacity: 0.3; stroke: #1f77b4; stroke-width: 2; stroke-linejoin: miter"/>
    </g>
    <g id="text_16">
     <!-- Train -->
     <g style="fill: #262626" transform="translate(954.975937 39.709219) scale(0.11 -0.11)">
      <defs>
       <path id="ArialMT-54" d="M 1659 0 
L 1659 4041 
L 150 4041 
L 150 4581 
L 3781 4581 
L 3781 4041 
L 2266 4041 
L 2266 0 
L 1659 0 
z
" transform="scale(0.015625)"/>
       <path id="ArialMT-72" d="M 416 0 
L 416 3319 
L 922 3319 
L 922 2816 
Q 1116 3169 1280 3281 
Q 1444 3394 1641 3394 
Q 1925 3394 2219 3213 
L 2025 2691 
Q 1819 2813 1613 2813 
Q 1428 2813 1281 2702 
Q 1134 2591 1072 2394 
Q 978 2094 978 1738 
L 978 0 
L 416 0 
z
" transform="scale(0.015625)"/>
      </defs>
      <use xlink:href="#ArialMT-54"/>
      <use xlink:href="#ArialMT-72" transform="translate(57.333984 0)"/>
      <use xlink:href="#ArialMT-61" transform="translate(90.634766 0)"/>
      <use xlink:href="#ArialMT-69" transform="translate(146.25 0)"/>
      <use xlink:href="#ArialMT-6e" transform="translate(168.466797 0)"/>
     </g>
    </g>
    <g id="patch_9">
     <path d="M 924.175937 55.269063 
L 946.175937 55.269063 
L 946.175937 47.569063 
L 924.175937 47.569063 
z
" style="fill: #ff7f0e; fill-opacity: 0.3; stroke: #ff7f0e; stroke-width: 2; stroke-linejoin: miter"/>
    </g>
    <g id="text_17">
     <!-- Test -->
     <g style="fill: #262626" transform="translate(954.975937 55.269063) scale(0.11 -0.11)">
      <use xlink:href="#ArialMT-54"/>
      <use xlink:href="#ArialMT-65" transform="translate(49.958984 0)"/>
      <use xlink:href="#ArialMT-73" transform="translate(105.574219 0)"/>
      <use xlink:href="#ArialMT-74" transform="translate(155.574219 0)"/>
     </g>
    </g>
   </g>
  </g>
 </g>
 <defs>
  <clipPath id="p86adc9bb9a">
   <rect x="59.339063" y="21.935625" width="930.18375" height="284.925"/>
  </clipPath>
 </defs>
</svg>
