<?xml version="1.0" encoding="utf-8" standalone="no"?>
<!DOCTYPE svg PUBLIC "-//W3C//DTD SVG 1.1//EN"
  "http://www.w3.org/Graphics/SVG/1.1/DTD/svg11.dtd">
<svg xmlns:xlink="http://www.w3.org/1999/xlink" width="996.674219pt" height="291.051094pt" viewBox="0 0 996.674219 291.051094" xmlns="http://www.w3.org/2000/svg" version="1.1">
 <metadata>
  <rdf:RDF xmlns:dc="http://purl.org/dc/elements/1.1/" xmlns:cc="http://creativecommons.org/ns#" xmlns:rdf="http://www.w3.org/1999/02/22-rdf-syntax-ns#">
   <cc:Work>
    <dc:type rdf:resource="http://purl.org/dc/dcmitype/StillImage"/>
    <dc:date>2026-03-21T00:29:05.253338</dc:date>
    <dc:format>image/svg+xml</dc:format>
    <dc:creator>
     <cc:Agent>
      <dc:title>Matplotlib v3.10.8, https://matplotlib.org/</dc:title>
     </cc:Agent>
    </dc:creator>
   </cc:Work>
  </rdf:RDF>
 </metadata>
 <defs>
  <style type="text/css">*{stroke-linejoin: round; stroke-linecap: butt}</style>
 </defs>
 <g id="figure_1">
  <g id="patch_1">
   <path d="M 0 291.051094 
L 996.674219 291.051094 
L 996.674219 0 
L 0 0 
z
" style="fill: #ffffff"/>
  </g>
  <g id="axes_1">
   <g id="patch_2">
    <path d="M 68.684219 249.316875 
L 989.474219 249.316875 
L 989.474219 21.935625 
L 68.684219 21.935625 
z
" style="fill: #ffffff"/>
   </g>
   <g id="matplotlib.axis_1">
    <g id="xtick_1">
     <g id="line2d_1">
      <path d="M 78.692806 249.316875 
L 78.692806 21.935625 
" clip-path="url(#p0465dcf568)" style="fill: none; stroke: #cccccc; stroke-linecap: round"/>
     </g>
     <g id="text_1">
      <!-- 2011-06 -->
      <g style="fill: #262626" transform="translate(58.916009 266.690469) scale(0.11 -0.11)">
       <defs>
        <path id="ArialMT-32" d="M 3222 541 
L 3222 0 
L 194 0 
Q 188 203 259 391 
Q 375 700 629 1000 
Q 884 1300 1366 1694 
Q 2113 2306 2375 2664 
Q 2638 3022 2638 3341 
Q 2638 3675 2398 3904 
Q 2159 4134 1775 4134 
Q 1369 4134 1125 3890 
Q 881 3647 878 3216 
L 300 3275 
Q 359 3922 746 4261 
Q 1134 4600 1788 4600 
Q 2447 4600 2831 4234 
Q 3216 3869 3216 3328 
Q 3216 3053 3103 2787 
Q 2991 2522 2730 2228 
Q 2469 1934 1863 1422 
Q 1356 997 1212 845 
Q 1069 694 975 541 
L 3222 541 
z
" transform="scale(0.015625)"/>
        <path id="ArialMT-30" d="M 266 2259 
Q 266 3072 433 3567 
Q 600 4063 929 4331 
Q 1259 4600 1759 4600 
Q 2128 4600 2406 4451 
Q 2684 4303 2865 4023 
Q 3047 3744 3150 3342 
Q 3253 2941 3253 2259 
Q 3253 1453 3087 958 
Q 2922 463 2592 192 
Q 2263 -78 1759 -78 
Q 1097 -78 719 397 
Q 266 969 266 2259 
z
M 844 2259 
Q 844 1131 1108 757 
Q 1372 384 1759 384 
Q 2147 384 2411 759 
Q 2675 1134 2675 2259 
Q 2675 3391 2411 3762 
Q 2147 4134 1753 4134 
Q 1366 4134 1134 3806 
Q 844 3388 844 2259 
z
" transform="scale(0.015625)"/>
        <path id="ArialMT-31" d="M 2384 0 
L 1822 0 
L 1822 3584 
Q 1619 3391 1289 3197 
Q 959 3003 697 2906 
L 697 3450 
Q 1169 3672 1522 3987 
Q 1875 4303 2022 4600 
L 2384 4600 
L 2384 0 
z
" transform="scale(0.015625)"/>
        <path id="ArialMT-2d" d="M 203 1375 
L 203 1941 
L 1931 1941 
L 1931 1375 
L 203 1375 
z
" transform="scale(0.015625)"/>
        <path id="ArialMT-36" d="M 3184 3459 
L 2625 3416 
Q 2550 3747 2413 3897 
Q 2184 4138 1850 4138 
Q 1581 4138 1378 3988 
Q 1113 3794 959 3422 
Q 806 3050 800 2363 
Q 1003 2672 1297 2822 
Q 1591 2972 1913 2972 
Q 2475 2972 2870 2558 
Q 3266 2144 3266 1488 
Q 3266 1056 3080 686 
Q 2894 316 2569 119 
Q 2244 -78 1831 -78 
Q 1128 -78 684 439 
Q 241 956 241 2144 
Q 241 3472 731 4075 
Q 1159 4600 1884 4600 
Q 2425 4600 2770 4297 
Q 3116 3994 3184 3459 
z
M 888 1484 
Q 888 1194 1011 928 
Q 1134 663 1356 523 
Q 1578 384 1822 384 
Q 2178 384 2434 671 
Q 2691 959 2691 1453 
Q 2691 1928 2437 2201 
Q 2184 2475 1800 2475 
Q 1419 2475 1153 2201 
Q 888 1928 888 1484 
z
" transform="scale(0.015625)"/>
       </defs>
       <use xlink:href="#ArialMT-32"/>
       <use xlink:href="#ArialMT-30" transform="translate(55.615234 0)"/>
       <use xlink:href="#ArialMT-31" transform="translate(111.230469 0)"/>
       <use xlink:href="#ArialMT-31" transform="translate(159.470703 0)"/>
       <use xlink:href="#ArialMT-2d" transform="translate(215.085938 0)"/>
       <use xlink:href="#ArialMT-30" transform="translate(248.386719 0)"/>
       <use xlink:href="#ArialMT-36" transform="translate(304.001953 0)"/>
      </g>
     </g>
    </g>
    <g id="xtick_2">
     <g id="line2d_2">
      <path d="M 215.173537 249.316875 
L 215.173537 21.935625 
" clip-path="url(#p0465dcf568)" style="fill: none; stroke: #cccccc; stroke-linecap: round"/>
     </g>
     <g id="text_2">
      <!-- 2011-07 -->
      <g style="fill: #262626" transform="translate(195.39674 266.690469) scale(0.11 -0.11)">
       <defs>
        <path id="ArialMT-37" d="M 303 3981 
L 303 4522 
L 3269 4522 
L 3269 4084 
Q 2831 3619 2401 2847 
Q 1972 2075 1738 1259 
Q 1569 684 1522 0 
L 944 0 
Q 953 541 1156 1306 
Q 1359 2072 1739 2783 
Q 2119 3494 2547 3981 
L 303 3981 
z
" transform="scale(0.015625)"/>
       </defs>
       <use xlink:href="#ArialMT-32"/>
       <use xlink:href="#ArialMT-30" transform="translate(55.615234 0)"/>
       <use xlink:href="#ArialMT-31" transform="translate(111.230469 0)"/>
       <use xlink:href="#ArialMT-31" transform="translate(159.470703 0)"/>
       <use xlink:href="#ArialMT-2d" transform="translate(215.085938 0)"/>
       <use xlink:href="#ArialMT-30" transform="translate(248.386719 0)"/>
       <use xlink:href="#ArialMT-37" transform="translate(304.001953 0)"/>
      </g>
     </g>
    </g>
    <g id="xtick_3">
     <g id="line2d_3">
      <path d="M 356.203626 249.316875 
L 356.203626 21.935625 
" clip-path="url(#p0465dcf568)" style="fill: none; stroke: #cccccc; stroke-linecap: round"/>
     </g>
     <g id="text_3">
      <!-- 2011-08 -->
      <g style="fill: #262626" transform="translate(336.426829 266.690469) scale(0.11 -0.11)">
       <defs>
        <path id="ArialMT-38" d="M 1131 2484 
Q 781 2613 612 2850 
Q 444 3088 444 3419 
Q 444 3919 803 4259 
Q 1163 4600 1759 4600 
Q 2359 4600 2725 4251 
Q 3091 3903 3091 3403 
Q 3091 3084 2923 2848 
Q 2756 2613 2416 2484 
Q 2838 2347 3058 2040 
Q 3278 1734 3278 1309 
Q 3278 722 2862 322 
Q 2447 -78 1769 -78 
Q 1091 -78 675 323 
Q 259 725 259 1325 
Q 259 1772 486 2073 
Q 713 2375 1131 2484 
z
M 1019 3438 
Q 1019 3113 1228 2906 
Q 1438 2700 1772 2700 
Q 2097 2700 2305 2904 
Q 2513 3109 2513 3406 
Q 2513 3716 2298 3927 
Q 2084 4138 1766 4138 
Q 1444 4138 1231 3931 
Q 1019 3725 1019 3438 
z
M 838 1322 
Q 838 1081 952 856 
Q 1066 631 1291 507 
Q 1516 384 1775 384 
Q 2178 384 2440 643 
Q 2703 903 2703 1303 
Q 2703 1709 2433 1975 
Q 2163 2241 1756 2241 
Q 1359 2241 1098 1978 
Q 838 1716 838 1322 
z
" transform="scale(0.015625)"/>
       </defs>
       <use xlink:href="#ArialMT-32"/>
       <use xlink:href="#ArialMT-30" transform="translate(55.615234 0)"/>
       <use xlink:href="#ArialMT-31" transform="translate(111.230469 0)"/>
       <use xlink:href="#ArialMT-31" transform="translate(159.470703 0)"/>
       <use xlink:href="#ArialMT-2d" transform="translate(215.085938 0)"/>
       <use xlink:href="#ArialMT-30" transform="translate(248.386719 0)"/>
       <use xlink:href="#ArialMT-38" transform="translate(304.001953 0)"/>
      </g>
     </g>
    </g>
    <g id="xtick_4">
     <g id="line2d_4">
      <path d="M 497.233715 249.316875 
L 497.233715 21.935625 
" clip-path="url(#p0465dcf568)" style="fill: none; stroke: #cccccc; stroke-linecap: round"/>
     </g>
     <g id="text_4">
      <!-- 2011-09 -->
      <g style="fill: #262626" transform="translate(477.456918 266.690469) scale(0.11 -0.11)">
       <defs>
        <path id="ArialMT-39" d="M 350 1059 
L 891 1109 
Q 959 728 1153 556 
Q 1347 384 1650 384 
Q 1909 384 2104 503 
Q 2300 622 2425 820 
Q 2550 1019 2634 1356 
Q 2719 1694 2719 2044 
Q 2719 2081 2716 2156 
Q 2547 1888 2255 1720 
Q 1963 1553 1622 1553 
Q 1053 1553 659 1965 
Q 266 2378 266 3053 
Q 266 3750 677 4175 
Q 1088 4600 1706 4600 
Q 2153 4600 2523 4359 
Q 2894 4119 3086 3673 
Q 3278 3228 3278 2384 
Q 3278 1506 3087 986 
Q 2897 466 2520 194 
Q 2144 -78 1638 -78 
Q 1100 -78 759 220 
Q 419 519 350 1059 
z
M 2653 3081 
Q 2653 3566 2395 3850 
Q 2138 4134 1775 4134 
Q 1400 4134 1122 3828 
Q 844 3522 844 3034 
Q 844 2597 1108 2323 
Q 1372 2050 1759 2050 
Q 2150 2050 2401 2323 
Q 2653 2597 2653 3081 
z
" transform="scale(0.015625)"/>
       </defs>
       <use xlink:href="#ArialMT-32"/>
       <use xlink:href="#ArialMT-30" transform="translate(55.615234 0)"/>
       <use xlink:href="#ArialMT-31" transform="translate(111.230469 0)"/>
       <use xlink:href="#ArialMT-31" transform="translate(159.470703 0)"/>
       <use xlink:href="#ArialMT-2d" transform="translate(215.085938 0)"/>
       <use xlink:href="#ArialMT-30" transform="translate(248.386719 0)"/>
       <use xlink:href="#ArialMT-39" transform="translate(304.001953 0)"/>
      </g>
     </g>
    </g>
    <g id="xtick_5">
     <g id="line2d_5">
      <path d="M 633.714446 249.316875 
L 633.714446 21.935625 
" clip-path="url(#p0465dcf568)" style="fill: none; stroke: #cccccc; stroke-linecap: round"/>
     </g>
     <g id="text_5">
      <!-- 2011-10 -->
      <g style="fill: #262626" transform="translate(613.937649 266.690469) scale(0.11 -0.11)">
       <use xlink:href="#ArialMT-32"/>
       <use xlink:href="#ArialMT-30" transform="translate(55.615234 0)"/>
       <use xlink:href="#ArialMT-31" transform="translate(111.230469 0)"/>
       <use xlink:href="#ArialMT-31" transform="translate(159.470703 0)"/>
       <use xlink:href="#ArialMT-2d" transform="translate(215.085938 0)"/>
       <use xlink:href="#ArialMT-31" transform="translate(248.386719 0)"/>
       <use xlink:href="#ArialMT-30" transform="translate(304.001953 0)"/>
      </g>
     </g>
    </g>
    <g id="xtick_6">
     <g id="line2d_6">
      <path d="M 774.744535 249.316875 
L 774.744535 21.935625 
" clip-path="url(#p0465dcf568)" style="fill: none; stroke: #cccccc; stroke-linecap: round"/>
     </g>
     <g id="text_6">
      <!-- 2011-11 -->
      <g style="fill: #262626" transform="translate(755.373363 266.690469) scale(0.11 -0.11)">
       <use xlink:href="#ArialMT-32"/>
       <use xlink:href="#ArialMT-30" transform="translate(55.615234 0)"/>
       <use xlink:href="#ArialMT-31" transform="translate(111.230469 0)"/>
       <use xlink:href="#ArialMT-31" transform="translate(159.470703 0)"/>
       <use xlink:href="#ArialMT-2d" transform="translate(215.085938 0)"/>
       <use xlink:href="#ArialMT-31" transform="translate(248.386719 0)"/>
       <use xlink:href="#ArialMT-31" transform="translate(296.626953 0)"/>
      </g>
     </g>
    </g>
    <g id="xtick_7">
     <g id="line2d_7">
      <path d="M 911.225266 249.316875 
L 911.225266 21.935625 
" clip-path="url(#p0465dcf568)" style="fill: none; stroke: #cccccc; stroke-linecap: round"/>
     </g>
     <g id="text_7">
      <!-- 2011-12 -->
      <g style="fill: #262626" transform="translate(891.448469 266.690469) scale(0.11 -0.11)">
       <use xlink:href="#ArialMT-32"/>
       <use xlink:href="#ArialMT-30" transform="translate(55.615234 0)"/>
       <use xlink:href="#ArialMT-31" transform="translate(111.230469 0)"/>
       <use xlink:href="#ArialMT-31" transform="translate(159.470703 0)"/>
       <use xlink:href="#ArialMT-2d" transform="translate(215.085938 0)"/>
       <use xlink:href="#ArialMT-31" transform="translate(248.386719 0)"/>
       <use xlink:href="#ArialMT-32" transform="translate(304.001953 0)"/>
      </g>
     </g>
    </g>
    <g id="text_8">
     <!-- Date -->
     <g style="fill: #262626" transform="translate(516.406094 281.466094) scale(0.12 -0.12)">
      <defs>
       <path id="ArialMT-44" d="M 494 0 
L 494 4581 
L 2072 4581 
Q 2606 4581 2888 4516 
Q 3281 4425 3559 4188 
Q 3922 3881 4101 3404 
Q 4281 2928 4281 2316 
Q 4281 1794 4159 1391 
Q 4038 988 3847 723 
Q 3656 459 3429 307 
Q 3203 156 2883 78 
Q 2563 0 2147 0 
L 494 0 
z
M 1100 541 
L 2078 541 
Q 2531 541 2789 625 
Q 3047 709 3200 863 
Q 3416 1078 3536 1442 
Q 3656 1806 3656 2325 
Q 3656 3044 3420 3430 
Q 3184 3816 2847 3947 
Q 2603 4041 2063 4041 
L 1100 4041 
L 1100 541 
z
" transform="scale(0.015625)"/>
       <path id="ArialMT-61" d="M 2588 409 
Q 2275 144 1986 34 
Q 1697 -75 1366 -75 
Q 819 -75 525 192 
Q 231 459 231 875 
Q 231 1119 342 1320 
Q 453 1522 633 1644 
Q 813 1766 1038 1828 
Q 1203 1872 1538 1913 
Q 2219 1994 2541 2106 
Q 2544 2222 2544 2253 
Q 2544 2597 2384 2738 
Q 2169 2928 1744 2928 
Q 1347 2928 1158 2789 
Q 969 2650 878 2297 
L 328 2372 
Q 403 2725 575 2942 
Q 747 3159 1072 3276 
Q 1397 3394 1825 3394 
Q 2250 3394 2515 3294 
Q 2781 3194 2906 3042 
Q 3031 2891 3081 2659 
Q 3109 2516 3109 2141 
L 3109 1391 
Q 3109 606 3145 398 
Q 3181 191 3288 0 
L 2700 0 
Q 2613 175 2588 409 
z
M 2541 1666 
Q 2234 1541 1622 1453 
Q 1275 1403 1131 1340 
Q 988 1278 909 1158 
Q 831 1038 831 891 
Q 831 666 1001 516 
Q 1172 366 1500 366 
Q 1825 366 2078 508 
Q 2331 650 2450 897 
Q 2541 1088 2541 1459 
L 2541 1666 
z
" transform="scale(0.015625)"/>
       <path id="ArialMT-74" d="M 1650 503 
L 1731 6 
Q 1494 -44 1306 -44 
Q 1000 -44 831 53 
Q 663 150 594 308 
Q 525 466 525 972 
L 525 2881 
L 113 2881 
L 113 3319 
L 525 3319 
L 525 4141 
L 1084 4478 
L 1084 3319 
L 1650 3319 
L 1650 2881 
L 1084 2881 
L 1084 941 
Q 1084 700 1114 631 
Q 1144 563 1211 522 
Q 1278 481 1403 481 
Q 1497 481 1650 503 
z
" transform="scale(0.015625)"/>
       <path id="ArialMT-65" d="M 2694 1069 
L 3275 997 
Q 3138 488 2766 206 
Q 2394 -75 1816 -75 
Q 1088 -75 661 373 
Q 234 822 234 1631 
Q 234 2469 665 2931 
Q 1097 3394 1784 3394 
Q 2450 3394 2872 2941 
Q 3294 2488 3294 1666 
Q 3294 1616 3291 1516 
L 816 1516 
Q 847 969 1125 678 
Q 1403 388 1819 388 
Q 2128 388 2347 550 
Q 2566 713 2694 1069 
z
M 847 1978 
L 2700 1978 
Q 2663 2397 2488 2606 
Q 2219 2931 1791 2931 
Q 1403 2931 1139 2672 
Q 875 2413 847 1978 
z
" transform="scale(0.015625)"/>
      </defs>
      <use xlink:href="#ArialMT-44"/>
      <use xlink:href="#ArialMT-61" transform="translate(72.216797 0)"/>
      <use xlink:href="#ArialMT-74" transform="translate(127.832031 0)"/>
      <use xlink:href="#ArialMT-65" transform="translate(155.615234 0)"/>
     </g>
    </g>
   </g>
   <g id="matplotlib.axis_2">
    <g id="ytick_1">
     <g id="line2d_8">
      <path d="M 68.684219 239.45546 
L 989.474219 239.45546 
" clip-path="url(#p0465dcf568)" style="fill: none; stroke: #cccccc; stroke-linecap: round"/>
     </g>
     <g id="text_9">
      <!-- −10000 -->
      <g style="fill: #262626" transform="translate(22.174375 243.392257) scale(0.11 -0.11)">
       <defs>
        <path id="ArialMT-2212" d="M 3381 1997 
L 356 1997 
L 356 2522 
L 3381 2522 
L 3381 1997 
z
" transform="scale(0.015625)"/>
       </defs>
       <use xlink:href="#ArialMT-2212"/>
       <use xlink:href="#ArialMT-31" transform="translate(58.398438 0)"/>
       <use xlink:href="#ArialMT-30" transform="translate(114.013672 0)"/>
       <use xlink:href="#ArialMT-30" transform="translate(169.628906 0)"/>
       <use xlink:href="#ArialMT-30" transform="translate(225.244141 0)"/>
       <use xlink:href="#ArialMT-30" transform="translate(280.859375 0)"/>
      </g>
     </g>
    </g>
    <g id="ytick_2">
     <g id="line2d_9">
      <path d="M 68.684219 213.118139 
L 989.474219 213.118139 
" clip-path="url(#p0465dcf568)" style="fill: none; stroke: #cccccc; stroke-linecap: round"/>
     </g>
     <g id="text_10">
      <!-- −5000 -->
      <g style="fill: #262626" transform="translate(28.291406 217.054936) scale(0.11 -0.11)">
       <defs>
        <path id="ArialMT-35" d="M 266 1200 
L 856 1250 
Q 922 819 1161 601 
Q 1400 384 1738 384 
Q 2144 384 2425 690 
Q 2706 997 2706 1503 
Q 2706 1984 2436 2262 
Q 2166 2541 1728 2541 
Q 1456 2541 1237 2417 
Q 1019 2294 894 2097 
L 366 2166 
L 809 4519 
L 3088 4519 
L 3088 3981 
L 1259 3981 
L 1013 2750 
Q 1425 3038 1878 3038 
Q 2478 3038 2890 2622 
Q 3303 2206 3303 1553 
Q 3303 931 2941 478 
Q 2500 -78 1738 -78 
Q 1113 -78 717 272 
Q 322 622 266 1200 
z
" transform="scale(0.015625)"/>
       </defs>
       <use xlink:href="#ArialMT-2212"/>
       <use xlink:href="#ArialMT-35" transform="translate(58.398438 0)"/>
       <use xlink:href="#ArialMT-30" transform="translate(114.013672 0)"/>
       <use xlink:href="#ArialMT-30" transform="translate(169.628906 0)"/>
       <use xlink:href="#ArialMT-30" transform="translate(225.244141 0)"/>
      </g>
     </g>
    </g>
    <g id="ytick_3">
     <g id="line2d_10">
      <path d="M 68.684219 186.780819 
L 989.474219 186.780819 
" clip-path="url(#p0465dcf568)" style="fill: none; stroke: #cccccc; stroke-linecap: round"/>
     </g>
     <g id="text_11">
      <!-- 0 -->
      <g style="fill: #262626" transform="translate(53.067188 190.717616) scale(0.11 -0.11)">
       <use xlink:href="#ArialMT-30"/>
      </g>
     </g>
    </g>
    <g id="ytick_4">
     <g id="line2d_11">
      <path d="M 68.684219 160.443498 
L 989.474219 160.443498 
" clip-path="url(#p0465dcf568)" style="fill: none; stroke: #cccccc; stroke-linecap: round"/>
     </g>
     <g id="text_12">
      <!-- 5000 -->
      <g style="fill: #262626" transform="translate(34.716094 164.380295) scale(0.11 -0.11)">
       <use xlink:href="#ArialMT-35"/>
       <use xlink:href="#ArialMT-30" transform="translate(55.615234 0)"/>
       <use xlink:href="#ArialMT-30" transform="translate(111.230469 0)"/>
       <use xlink:href="#ArialMT-30" transform="translate(166.845703 0)"/>
      </g>
     </g>
    </g>
    <g id="ytick_5">
     <g id="line2d_12">
      <path d="M 68.684219 134.106178 
L 989.474219 134.106178 
" clip-path="url(#p0465dcf568)" style="fill: none; stroke: #cccccc; stroke-linecap: round"/>
     </g>
     <g id="text_13">
      <!-- 10000 -->
      <g style="fill: #262626" transform="translate(28.599062 138.042974) scale(0.11 -0.11)">
       <use xlink:href="#ArialMT-31"/>
       <use xlink:href="#ArialMT-30" transform="translate(55.615234 0)"/>
       <use xlink:href="#ArialMT-30" transform="translate(111.230469 0)"/>
       <use xlink:href="#ArialMT-30" transform="translate(166.845703 0)"/>
       <use xlink:href="#ArialMT-30" transform="translate(222.460938 0)"/>
      </g>
     </g>
    </g>
    <g id="ytick_6">
     <g id="line2d_13">
      <path d="M 68.684219 107.768857 
L 989.474219 107.768857 
" clip-path="url(#p0465dcf568)" style="fill: none; stroke: #cccccc; stroke-linecap: round"/>
     </g>
     <g id="text_14">
      <!-- 15000 -->
      <g style="fill: #262626" transform="translate(28.599062 111.705654) scale(0.11 -0.11)">
       <use xlink:href="#ArialMT-31"/>
       <use xlink:href="#ArialMT-35" transform="translate(55.615234 0)"/>
       <use xlink:href="#ArialMT-30" transform="translate(111.230469 0)"/>
       <use xlink:href="#ArialMT-30" transform="translate(166.845703 0)"/>
       <use xlink:href="#ArialMT-30" transform="translate(222.460938 0)"/>
      </g>
     </g>
    </g>
    <g id="ytick_7">
     <g id="line2d_14">
      <path d="M 68.684219 81.431536 
L 989.474219 81.431536 
" clip-path="url(#p0465dcf568)" style="fill: none; stroke: #cccccc; stroke-linecap: round"/>
     </g>
     <g id="text_15">
      <!-- 20000 -->
      <g style="fill: #262626" transform="translate(28.599062 85.368333) scale(0.11 -0.11)">
       <use xlink:href="#ArialMT-32"/>
       <use xlink:href="#ArialMT-30" transform="translate(55.615234 0)"/>
       <use xlink:href="#ArialMT-30" transform="translate(111.230469 0)"/>
       <use xlink:href="#ArialMT-30" transform="translate(166.845703 0)"/>
       <use xlink:href="#ArialMT-30" transform="translate(222.460938 0)"/>
      </g>
     </g>
    </g>
    <g id="ytick_8">
     <g id="line2d_15">
      <path d="M 68.684219 55.094216 
L 989.474219 55.094216 
" clip-path="url(#p0465dcf568)" style="fill: none; stroke: #cccccc; stroke-linecap: round"/>
     </g>
     <g id="text_16">
      <!-- 25000 -->
      <g style="fill: #262626" transform="translate(28.599062 59.031013) scale(0.11 -0.11)">
       <use xlink:href="#ArialMT-32"/>
       <use xlink:href="#ArialMT-35" transform="translate(55.615234 0)"/>
       <use xlink:href="#ArialMT-30" transform="translate(111.230469 0)"/>
       <use xlink:href="#ArialMT-30" transform="translate(166.845703 0)"/>
       <use xlink:href="#ArialMT-30" transform="translate(222.460938 0)"/>
      </g>
     </g>
    </g>
    <g id="ytick_9">
     <g id="line2d_16">
      <path d="M 68.684219 28.756895 
L 989.474219 28.756895 
" clip-path="url(#p0465dcf568)" style="fill: none; stroke: #cccccc; stroke-linecap: round"/>
     </g>
     <g id="text_17">
      <!-- 30000 -->
      <g style="fill: #262626" transform="translate(28.599062 32.693692) scale(0.11 -0.11)">
       <defs>
        <path id="ArialMT-33" d="M 269 1209 
L 831 1284 
Q 928 806 1161 595 
Q 1394 384 1728 384 
Q 2125 384 2398 659 
Q 2672 934 2672 1341 
Q 2672 1728 2419 1979 
Q 2166 2231 1775 2231 
Q 1616 2231 1378 2169 
L 1441 2663 
Q 1497 2656 1531 2656 
Q 1891 2656 2178 2843 
Q 2466 3031 2466 3422 
Q 2466 3731 2256 3934 
Q 2047 4138 1716 4138 
Q 1388 4138 1169 3931 
Q 950 3725 888 3313 
L 325 3413 
Q 428 3978 793 4289 
Q 1159 4600 1703 4600 
Q 2078 4600 2393 4439 
Q 2709 4278 2876 4000 
Q 3044 3722 3044 3409 
Q 3044 3113 2884 2869 
Q 2725 2625 2413 2481 
Q 2819 2388 3044 2092 
Q 3269 1797 3269 1353 
Q 3269 753 2831 336 
Q 2394 -81 1725 -81 
Q 1122 -81 723 278 
Q 325 638 269 1209 
z
" transform="scale(0.015625)"/>
       </defs>
       <use xlink:href="#ArialMT-33"/>
       <use xlink:href="#ArialMT-30" transform="translate(55.615234 0)"/>
       <use xlink:href="#ArialMT-30" transform="translate(111.230469 0)"/>
       <use xlink:href="#ArialMT-30" transform="translate(166.845703 0)"/>
       <use xlink:href="#ArialMT-30" transform="translate(222.460938 0)"/>
      </g>
     </g>
    </g>
    <g id="text_18">
     <!-- Residual -->
     <g style="fill: #262626" transform="translate(15.789375 158.971875) rotate(-90) scale(0.12 -0.12)">
      <defs>
       <path id="ArialMT-52" d="M 503 0 
L 503 4581 
L 2534 4581 
Q 3147 4581 3465 4457 
Q 3784 4334 3975 4021 
Q 4166 3709 4166 3331 
Q 4166 2844 3850 2509 
Q 3534 2175 2875 2084 
Q 3116 1969 3241 1856 
Q 3506 1613 3744 1247 
L 4541 0 
L 3778 0 
L 3172 953 
Q 2906 1366 2734 1584 
Q 2563 1803 2427 1890 
Q 2291 1978 2150 2013 
Q 2047 2034 1813 2034 
L 1109 2034 
L 1109 0 
L 503 0 
z
M 1109 2559 
L 2413 2559 
Q 2828 2559 3062 2645 
Q 3297 2731 3419 2920 
Q 3541 3109 3541 3331 
Q 3541 3656 3305 3865 
Q 3069 4075 2559 4075 
L 1109 4075 
L 1109 2559 
z
" transform="scale(0.015625)"/>
       <path id="ArialMT-73" d="M 197 991 
L 753 1078 
Q 800 744 1014 566 
Q 1228 388 1613 388 
Q 2000 388 2187 545 
Q 2375 703 2375 916 
Q 2375 1106 2209 1216 
Q 2094 1291 1634 1406 
Q 1016 1563 777 1677 
Q 538 1791 414 1992 
Q 291 2194 291 2438 
Q 291 2659 392 2848 
Q 494 3038 669 3163 
Q 800 3259 1026 3326 
Q 1253 3394 1513 3394 
Q 1903 3394 2198 3281 
Q 2494 3169 2634 2976 
Q 2775 2784 2828 2463 
L 2278 2388 
Q 2241 2644 2061 2787 
Q 1881 2931 1553 2931 
Q 1166 2931 1000 2803 
Q 834 2675 834 2503 
Q 834 2394 903 2306 
Q 972 2216 1119 2156 
Q 1203 2125 1616 2013 
Q 2213 1853 2448 1751 
Q 2684 1650 2818 1456 
Q 2953 1263 2953 975 
Q 2953 694 2789 445 
Q 2625 197 2315 61 
Q 2006 -75 1616 -75 
Q 969 -75 630 194 
Q 291 463 197 991 
z
" transform="scale(0.015625)"/>
       <path id="ArialMT-69" d="M 425 3934 
L 425 4581 
L 988 4581 
L 988 3934 
L 425 3934 
z
M 425 0 
L 425 3319 
L 988 3319 
L 988 0 
L 425 0 
z
" transform="scale(0.015625)"/>
       <path id="ArialMT-64" d="M 2575 0 
L 2575 419 
Q 2259 -75 1647 -75 
Q 1250 -75 917 144 
Q 584 363 401 755 
Q 219 1147 219 1656 
Q 219 2153 384 2558 
Q 550 2963 881 3178 
Q 1213 3394 1622 3394 
Q 1922 3394 2156 3267 
Q 2391 3141 2538 2938 
L 2538 4581 
L 3097 4581 
L 3097 0 
L 2575 0 
z
M 797 1656 
Q 797 1019 1065 703 
Q 1334 388 1700 388 
Q 2069 388 2326 689 
Q 2584 991 2584 1609 
Q 2584 2291 2321 2609 
Q 2059 2928 1675 2928 
Q 1300 2928 1048 2622 
Q 797 2316 797 1656 
z
" transform="scale(0.015625)"/>
       <path id="ArialMT-75" d="M 2597 0 
L 2597 488 
Q 2209 -75 1544 -75 
Q 1250 -75 995 37 
Q 741 150 617 320 
Q 494 491 444 738 
Q 409 903 409 1263 
L 409 3319 
L 972 3319 
L 972 1478 
Q 972 1038 1006 884 
Q 1059 663 1231 536 
Q 1403 409 1656 409 
Q 1909 409 2131 539 
Q 2353 669 2445 892 
Q 2538 1116 2538 1541 
L 2538 3319 
L 3100 3319 
L 3100 0 
L 2597 0 
z
" transform="scale(0.015625)"/>
       <path id="ArialMT-6c" d="M 409 0 
L 409 4581 
L 972 4581 
L 972 0 
L 409 0 
z
" transform="scale(0.015625)"/>
      </defs>
      <use xlink:href="#ArialMT-52"/>
      <use xlink:href="#ArialMT-65" transform="translate(72.216797 0)"/>
      <use xlink:href="#ArialMT-73" transform="translate(127.832031 0)"/>
      <use xlink:href="#ArialMT-69" transform="translate(177.832031 0)"/>
      <use xlink:href="#ArialMT-64" transform="translate(200.048828 0)"/>
      <use xlink:href="#ArialMT-75" transform="translate(255.664062 0)"/>
      <use xlink:href="#ArialMT-61" transform="translate(311.279297 0)"/>
      <use xlink:href="#ArialMT-6c" transform="translate(366.894531 0)"/>
     </g>
    </g>
   </g>
   <g id="line2d_17">
    <path d="M 68.684219 186.780819 
L 989.474219 186.780819 
" clip-path="url(#p0465dcf568)" style="fill: none; stroke-dasharray: 4.44,1.92; stroke-dashoffset: 0; stroke: #000000; stroke-opacity: 0.8; stroke-width: 1.2"/>
   </g>
   <g id="line2d_18">
    <path d="M 110.53831 202.124731 
L 115.087667 175.342678 
L 119.637025 170.220544 
L 124.186383 205.087943 
L 128.73574 186.123808 
L 133.285098 205.725412 
L 137.834456 170.498718 
L 142.383814 202.082802 
L 146.933171 153.604908 
L 151.482529 164.761344 
L 156.031887 205.087943 
L 160.581244 184.557317 
L 165.130602 192.547006 
L 169.67996 186.450127 
L 174.229318 207.346684 
L 178.778675 171.123071 
L 183.328033 167.716813 
L 187.877391 205.087943 
L 192.426748 198.243506 
L 196.976106 204.515896 
L 201.525464 180.392438 
L 206.074822 204.386686 
L 210.624179 129.31584 
L 215.173537 177.854574 
L 219.722895 205.087943 
L 224.272252 198.212217 
L 228.82161 195.892689 
L 233.370968 165.975336 
L 237.920325 198.997754 
L 242.469683 170.046612 
L 247.019041 166.339581 
L 251.568399 205.087943 
L 256.117756 197.360679 
L 260.667114 198.917161 
L 265.216472 178.902536 
L 269.765829 203.562485 
L 274.315187 176.202539 
L 278.864545 174.558458 
L 283.413903 205.087943 
L 287.96326 188.068872 
L 292.512618 197.630636 
L 297.061976 170.103185 
L 301.611333 192.354849 
L 306.160691 163.774274 
L 310.710049 169.233684 
L 315.259406 205.087943 
L 319.808764 175.092211 
L 324.358122 195.131382 
L 328.90748 181.739013 
L 333.456837 204.099977 
L 338.006195 144.298879 
L 342.555553 170.683554 
L 347.10491 205.087943 
L 351.654268 184.58908 
L 356.203626 200.66243 
L 360.752984 183.795325 
L 365.302341 189.859019 
L 369.851699 155.791274 
L 374.401057 162.177389 
L 378.950414 205.087943 
L 383.499772 196.636033 
L 388.04913 195.295464 
L 392.598488 189.392006 
L 397.147845 191.883569 
L 401.697203 161.682722 
L 406.246561 168.04329 
L 410.795918 205.087943 
L 415.345276 199.191754 
L 419.894634 207.474684 
L 424.443991 187.552344 
L 428.993349 147.247868 
L 433.542707 171.288364 
L 438.092065 174.186733 
L 442.641422 205.087943 
L 447.19078 189.394798 
L 451.740138 173.166742 
L 456.289495 182.229308 
L 460.838853 181.877336 
L 465.388211 176.975382 
L 469.937569 165.647226 
L 474.486926 205.087943 
L 479.036284 189.806398 
L 483.585642 217.714002 
L 488.134999 170.279013 
L 492.684357 210.76432 
L 497.233715 167.255067 
L 501.783073 147.326354 
L 506.33243 205.087943 
L 510.881788 186.701385 
L 515.431146 186.436537 
L 519.980503 180.499895 
L 524.529861 196.241922 
L 529.079219 180.87183 
L 533.628576 162.734318 
L 538.177934 205.087943 
L 542.727292 158.852882 
L 547.27665 185.847003 
L 551.826007 152.405137 
L 556.375365 199.856561 
L 560.924723 155.917693 
L 565.47408 155.506883 
L 570.023438 205.087943 
L 574.572796 183.23945 
L 579.122154 196.006045 
L 583.671511 32.271136 
L 588.220869 174.654748 
L 592.770227 140.137582 
L 597.319584 142.836947 
L 601.868942 205.087943 
L 606.4183 166.166335 
L 610.967657 187.300191 
L 615.517015 169.304584 
L 620.066373 175.625647 
L 624.615731 152.020507 
L 629.165088 130.210888 
L 633.714446 205.087943 
L 638.263804 192.044596 
L 642.813161 154.772968 
L 647.362519 150.561946 
L 651.911877 175.605736 
L 656.461235 143.219628 
L 661.010592 141.723984 
L 665.55995 205.087943 
L 670.109308 185.478491 
L 674.658665 174.182203 
L 679.208023 157.744871 
L 683.757381 190.532043 
L 688.306739 165.338289 
L 692.856096 151.62766 
L 697.405454 205.087943 
L 701.954812 177.817386 
L 706.504169 184.479306 
L 711.053527 157.022386 
L 715.602885 190.27478 
L 720.152242 161.808403 
L 724.7016 144.546713 
L 729.250958 205.087943 
L 733.800316 190.430961 
L 738.349673 182.089879 
L 742.899031 146.116839 
L 747.448389 187.438409 
L 751.997746 160.288951 
L 756.547104 153.647732 
L 761.096462 205.087943 
L 765.64582 165.552201 
L 770.195177 143.622642 
L 774.744535 171.910557 
L 779.293893 169.554315 
L 783.84325 136.138839 
L 788.392608 128.409994 
L 792.941966 205.087943 
L 797.491323 162.944227 
L 802.040681 118.399337 
L 811.139397 147.876224 
L 815.688754 126.106796 
L 820.238112 124.74247 
L 824.78747 205.087943 
L 829.336827 169.213563 
L 833.886185 78.8962 
L 838.435543 147.83124 
L 842.984901 156.49801 
L 847.534258 151.82245 
L 852.083616 133.628102 
L 856.632974 205.087943 
L 861.182331 167.618048 
L 865.731689 168.91337 
L 870.281047 144.567256 
L 874.830405 142.750771 
L 879.379762 154.671095 
L 883.92912 130.090105 
L 888.478478 205.087943 
L 893.027835 178.572687 
L 897.577193 156.180171 
L 902.126551 120.793821 
L 906.675908 167.83512 
L 911.225266 145.149679 
L 915.774624 134.544167 
L 920.323982 205.087943 
L 924.873339 173.923413 
L 929.422697 110.725853 
L 933.972055 145.550533 
L 938.521412 161.749619 
L 943.07077 123.347487 
L 947.620128 156.004448 
L 947.620128 156.004448 
" clip-path="url(#p0465dcf568)" style="fill: none; stroke: #ff7f0e; stroke-opacity: 0.35; stroke-width: 1.2; stroke-linecap: round"/>
   </g>
   <g id="line2d_19">
    <path d="M 110.53831 186.961067 
L 115.087667 171.249367 
L 119.637025 170.400548 
L 124.186383 187.554441 
L 128.73574 169.218498 
L 133.285098 188.554437 
L 137.834456 164.609181 
L 142.383814 179.176616 
L 146.933171 145.902097 
L 151.482529 165.0014 
L 156.031887 187.372842 
L 160.581244 167.916195 
L 165.130602 172.460043 
L 169.67996 179.879421 
L 174.229318 182.520375 
L 178.778675 163.424864 
L 183.328033 168.087043 
L 187.877391 187.26313 
L 192.426748 181.114703 
L 196.976106 184.670373 
L 201.525464 173.497249 
L 206.074822 179.772151 
L 210.624179 121.223687 
L 215.173537 178.219806 
L 219.722895 187.065005 
L 224.272252 181.199652 
L 228.82161 176.814784 
L 233.370968 160.259338 
L 237.920325 175.268201 
L 242.469683 162.698925 
L 247.019041 166.87118 
L 251.568399 187.007915 
L 256.117756 180.311972 
L 260.667114 181.279306 
L 265.216472 175.134409 
L 269.765829 180.75559 
L 274.315187 169.333371 
L 278.864545 175.153993 
L 283.413903 187.021388 
L 287.96326 171.069085 
L 292.512618 181.636581 
L 297.061976 168.15552 
L 301.611333 170.779282 
L 306.160691 157.798341 
L 310.710049 169.927186 
L 315.259406 187.019169 
L 319.808764 158.089682 
L 324.358122 181.240724 
L 328.90748 181.891209 
L 333.456837 184.187631 
L 338.006195 139.254343 
L 342.555553 171.441919 
L 347.10491 187.038572 
L 351.654268 167.632767 
L 356.203626 189.392444 
L 360.752984 186.55106 
L 365.302341 172.043938 
L 369.851699 152.069076 
L 374.401057 163.403193 
L 378.950414 187.052379 
L 383.499772 179.708772 
L 388.04913 187.937804 
L 392.598488 195.909641 
L 397.147845 177.079776 
L 401.697203 159.834099 
L 406.246561 170.317176 
L 410.795918 187.079439 
L 415.345276 182.314776 
L 419.894634 205.580304 
L 424.443991 199.008177 
L 428.993349 136.516127 
L 433.542707 172.058753 
L 438.092065 178.072197 
L 442.641422 187.107344 
L 447.19078 172.740493 
L 451.740138 178.010104 
L 456.289495 199.724234 
L 460.838853 176.111251 
L 465.388211 180.865959 
L 469.937569 171.631327 
L 474.486926 187.142993 
L 479.036284 173.670017 
L 483.585642 230.131155 
L 488.134999 194.605131 
L 492.684357 210.565841 
L 497.233715 174.626968 
L 501.783073 156.512602 
L 506.33243 187.181075 
L 510.881788 171.768517 
L 515.431146 207.943823 
L 519.980503 213.433785 
L 524.529861 203.104497 
L 529.079219 193.074506 
L 533.628576 176.386244 
L 538.177934 187.224497 
L 542.727292 145.684488 
L 547.27665 217.537513 
L 551.826007 195.232439 
L 556.375365 214.750927 
L 560.924723 173.243166 
L 565.47408 174.313368 
L 570.023438 187.269938 
L 574.572796 172.496097 
L 579.122154 238.055938 
L 583.671511 85.302429 
L 588.220869 197.661035 
L 592.770227 162.728052 
L 597.319584 166.617421 
L 601.868942 187.491659 
L 606.4183 157.857879 
L 610.967657 238.981364 
L 615.517015 231.642856 
L 620.066373 205.781183 
L 624.615731 179.163855 
L 629.165088 159.213455 
L 633.714446 187.414375 
L 638.263804 183.522305 
L 642.813161 191.453066 
L 647.362519 196.355619 
L 651.911877 190.000118 
L 656.461235 159.956047 
L 661.010592 163.446614 
L 665.55995 187.448366 
L 670.109308 177.162855 
L 674.658665 204.680488 
L 679.208023 198.39164 
L 683.757381 201.2072 
L 688.306739 180.588129 
L 692.856096 173.098662 
L 697.405454 187.398534 
L 701.954812 169.727752 
L 706.504169 211.007609 
L 711.053527 194.030989 
L 715.602885 197.800428 
L 720.152242 175.250738 
L 724.7016 164.830673 
L 729.250958 187.444829 
L 733.800316 182.142915 
L 738.349673 205.169008 
L 742.899031 179.880518 
L 747.448389 192.277883 
L 751.997746 172.098163 
L 756.547104 172.892111 
L 761.096462 187.381853 
L 765.64582 156.58038 
L 770.195177 161.180351 
L 774.744535 200.324809 
L 779.293893 169.992311 
L 783.84325 145.121117 
L 788.392608 145.506492 
L 792.941966 187.330662 
L 797.491323 153.198051 
L 802.040681 130.709696 
L 806.590039 156.841939 
L 811.139397 144.572323 
L 815.688754 132.876268 
L 820.238112 140.212532 
L 824.78747 187.261658 
L 829.336827 158.689326 
L 833.886185 86.478195 
L 838.435543 167.121638 
L 842.984901 149.731724 
L 847.534258 156.349749 
L 852.083616 147.360356 
L 856.632974 187.204593 
L 861.182331 156.280609 
L 865.731689 171.969522 
L 870.281047 159.583236 
L 874.830405 132.681318 
L 879.379762 157.044192 
L 883.92912 142.156495 
L 888.478478 186.977664 
L 893.027835 166.41233 
L 897.577193 154.617421 
L 902.126551 131.436619 
L 906.675908 154.384504 
L 911.225266 145.300761 
L 915.774624 144.87329 
L 920.323982 186.780819 
L 924.873339 160.9784 
L 929.422697 104.833683 
L 933.972055 152.135356 
L 938.521412 145.203527 
L 943.07077 121.47786 
L 947.620128 164.763146 
L 947.620128 164.763146 
" clip-path="url(#p0465dcf568)" style="fill: none; stroke: #2ca02c; stroke-opacity: 0.35; stroke-width: 1.2; stroke-linecap: round"/>
   </g>
   <g id="line2d_20">
    <path d="M 137.834456 187.874833 
L 142.383814 187.868844 
L 146.933171 184.763448 
L 151.482529 183.983562 
L 156.031887 183.983562 
L 160.581244 183.759778 
L 165.130602 181.877148 
L 169.67996 184.155921 
L 174.229318 184.907904 
L 178.778675 187.410499 
L 183.328033 187.832709 
L 187.877391 187.832709 
L 192.426748 189.787879 
L 196.976106 191.49772 
L 201.525464 190.632336 
L 206.074822 190.209479 
L 210.624179 184.237017 
L 215.173537 185.685269 
L 224.272252 185.680799 
L 228.82161 184.448912 
L 233.370968 182.389326 
L 237.920325 181.619479 
L 242.469683 187.438161 
L 247.019041 185.793162 
L 251.568399 185.793162 
L 256.117756 185.671513 
L 260.667114 186.103581 
L 265.216472 187.950324 
L 269.765829 188.602428 
L 274.315187 189.481846 
L 278.864545 190.655972 
L 283.413903 190.655972 
L 287.96326 189.328571 
L 292.512618 189.144781 
L 297.061976 187.887731 
L 301.611333 186.28664 
L 306.160691 184.511174 
L 310.710049 183.750492 
L 315.259406 183.750492 
L 319.808764 181.896683 
L 324.358122 181.539647 
L 333.456837 184.879783 
L 338.006195 182.097584 
L 342.555553 182.304708 
L 347.10491 182.304708 
L 351.654268 183.661404 
L 356.203626 184.451554 
L 360.752984 184.745313 
L 365.302341 182.71089 
L 369.851699 184.352661 
L 374.401057 183.137494 
L 378.950414 183.137494 
L 383.499772 184.858488 
L 388.04913 184.091778 
L 392.598488 184.891304 
L 397.147845 185.180526 
L 406.246561 186.860147 
L 410.795918 186.860147 
L 415.345276 187.22525 
L 419.894634 188.965138 
L 424.443991 188.70233 
L 428.993349 182.325801 
L 433.542707 183.698035 
L 438.092065 184.57567 
L 442.641422 184.57567 
L 447.19078 183.176105 
L 451.740138 178.27497 
L 456.289495 177.514537 
L 460.838853 182.461604 
L 465.388211 183.274035 
L 469.937569 182.054105 
L 479.036284 182.112905 
L 483.585642 188.476799 
L 488.134999 186.769614 
L 492.684357 190.896326 
L 497.233715 189.50771 
L 501.783073 186.890442 
L 506.33243 186.890442 
L 510.881788 186.446869 
L 515.431146 181.97866 
L 519.980503 183.438786 
L 524.529861 181.364158 
L 529.079219 183.309409 
L 533.628576 185.510547 
L 538.177934 185.510547 
L 542.727292 181.53219 
L 547.27665 181.44797 
L 551.826007 177.434434 
L 556.375365 177.950811 
L 560.924723 174.385934 
L 565.47408 173.353443 
L 570.023438 173.353443 
L 574.572796 176.837239 
L 579.122154 178.28853 
L 583.671511 161.12653 
L 588.220869 157.526271 
L 592.770227 155.27197 
L 597.319584 153.461979 
L 601.868942 153.461979 
L 606.4183 151.022962 
L 610.967657 149.779269 
L 615.517015 169.355476 
L 620.066373 169.494175 
L 624.615731 171.191736 
L 629.165088 169.388013 
L 633.714446 169.388013 
L 638.263804 173.084908 
L 642.813161 168.438162 
L 647.362519 165.760642 
L 651.911877 165.757798 
L 656.461235 164.500529 
L 661.010592 166.145257 
L 665.55995 166.145257 
L 670.109308 165.207242 
L 674.658665 167.97999 
L 679.208023 169.006122 
L 683.757381 171.138452 
L 688.306739 174.298261 
L 692.856096 175.713071 
L 697.405454 175.713071 
L 701.954812 174.618628 
L 706.504169 176.089643 
L 715.602885 175.949678 
L 720.152242 175.445409 
L 724.7016 174.433845 
L 729.250958 174.433845 
L 733.800316 176.235785 
L 738.349673 175.894438 
L 742.899031 174.336503 
L 747.448389 173.931307 
L 751.997746 173.714242 
L 756.547104 175.014388 
L 761.096462 175.014388 
L 765.64582 171.460279 
L 770.195177 165.964959 
L 774.744535 169.649776 
L 779.293893 167.094906 
L 783.84325 163.64489 
L 788.392608 160.039499 
L 792.941966 160.039499 
L 797.491323 159.666931 
L 802.040681 156.063602 
L 806.590039 150.520235 
L 811.139397 147.423365 
L 815.688754 145.990216 
L 820.238112 145.466284 
L 824.78747 145.466284 
L 829.336827 146.361904 
L 833.886185 140.718598 
L 838.435543 142.822062 
L 842.984901 144.053746 
L 847.534258 147.727411 
L 852.083616 148.996787 
L 856.632974 148.996787 
L 861.182331 148.768856 
L 865.731689 161.628452 
L 870.281047 161.162168 
L 874.830405 159.198277 
L 879.379762 159.605226 
L 883.92912 159.099798 
L 888.478478 159.099798 
L 893.027835 160.664747 
L 897.577193 158.845718 
L 902.126551 155.449513 
L 906.675908 159.032992 
L 911.225266 157.672789 
L 915.774624 158.309084 
L 920.323982 158.309084 
L 924.873339 157.644902 
L 929.422697 151.151428 
L 933.972055 154.688101 
L 938.521412 153.818744 
L 943.07077 150.704145 
L 947.620128 153.7699 
L 947.620128 153.7699 
" clip-path="url(#p0465dcf568)" style="fill: none; stroke: #ff7f0e; stroke-width: 2; stroke-linecap: round"/>
   </g>
   <g id="line2d_21">
    <path d="M 137.834456 176.935363 
L 142.383814 175.823298 
L 146.933171 172.20226 
L 151.482529 171.430953 
L 156.031887 171.40501 
L 160.581244 171.218967 
L 165.130602 168.919768 
L 169.67996 171.101231 
L 174.229318 171.57891 
L 178.778675 174.082163 
L 183.328033 174.522969 
L 187.877391 174.507296 
L 192.426748 176.392797 
L 196.976106 178.13713 
L 201.525464 177.225391 
L 206.074822 176.832788 
L 210.624179 170.804048 
L 215.173537 172.251586 
L 224.272252 172.235418 
L 228.82161 171.113191 
L 233.370968 169.22206 
L 237.920325 168.578639 
L 242.469683 174.503673 
L 247.019041 172.882441 
L 251.568399 172.874285 
L 256.117756 172.747473 
L 260.667114 173.385262 
L 265.216472 175.510273 
L 269.765829 176.294185 
L 274.315187 177.241963 
L 278.864545 178.425222 
L 283.413903 178.427147 
L 287.96326 177.106735 
L 292.512618 177.157774 
L 297.061976 176.16079 
L 301.611333 174.735603 
L 306.160691 173.087741 
L 310.710049 172.341055 
L 315.259406 172.340738 
L 319.808764 170.486537 
L 324.358122 170.429986 
L 333.456837 174.307706 
L 338.006195 171.658563 
L 342.555553 171.874954 
L 347.10491 171.877726 
L 351.654268 173.241023 
L 356.203626 174.405555 
L 360.752984 175.071248 
L 365.302341 173.336435 
L 369.851699 175.167111 
L 374.401057 174.018721 
L 378.950414 174.020694 
L 383.499772 175.745837 
L 388.04913 175.538032 
L 392.598488 176.874972 
L 397.147845 177.594377 
L 401.697203 178.703666 
L 406.246561 179.691378 
L 410.795918 179.695244 
L 415.345276 180.06753 
L 419.894634 182.587887 
L 424.443991 183.030535 
L 428.993349 177.235728 
L 433.542707 178.982108 
L 438.092065 180.089968 
L 442.641422 180.093954 
L 447.19078 178.726199 
L 451.740138 174.787599 
L 456.289495 174.889893 
L 460.838853 180.546339 
L 465.388211 181.804511 
L 469.937569 180.884387 
L 474.486926 180.88948 
L 479.036284 181.022269 
L 483.585642 188.468134 
L 488.134999 187.736833 
L 492.684357 192.658918 
L 497.233715 191.767633 
L 501.783073 189.607815 
L 506.33243 189.613256 
L 510.881788 189.341613 
L 515.431146 186.171994 
L 519.980503 188.861802 
L 524.529861 187.795895 
L 529.079219 190.431258 
L 533.628576 193.27035 
L 538.177934 193.276553 
L 542.727292 189.550263 
L 547.27665 190.92079 
L 551.826007 188.320598 
L 556.375365 189.984373 
L 560.924723 187.151325 
L 565.47408 186.8552 
L 570.023438 186.861691 
L 574.572796 190.691921 
L 579.122154 193.623125 
L 583.671511 177.918838 
L 588.220869 175.477424 
L 592.770227 173.975265 
L 597.319584 172.875844 
L 601.868942 172.907519 
L 606.4183 170.816345 
L 610.967657 170.948548 
L 615.517015 191.854324 
L 620.066373 193.014345 
L 624.615731 195.362317 
L 629.165088 194.304607 
L 633.714446 194.293566 
L 638.263804 197.959913 
L 642.813161 191.170156 
L 647.362519 186.129122 
L 651.911877 183.874685 
L 656.461235 181.130712 
L 661.010592 181.735449 
L 665.55995 181.740305 
L 670.109308 180.831812 
L 674.658665 182.721444 
L 679.208023 183.012304 
L 683.757381 184.613316 
L 688.306739 187.560756 
L 692.856096 188.93962 
L 697.405454 188.932501 
L 701.954812 187.870344 
L 706.504169 188.774218 
L 711.053527 188.151268 
L 715.602885 187.664586 
L 720.152242 186.902102 
L 724.7016 185.720961 
L 729.250958 185.727574 
L 733.800316 187.501169 
L 738.349673 186.667083 
L 742.899031 184.645587 
L 747.448389 183.856652 
L 751.997746 183.406284 
L 756.547104 184.557918 
L 761.096462 184.548922 
L 765.64582 180.897131 
L 770.195177 174.613037 
L 774.744535 177.53365 
L 779.293893 174.349997 
L 788.392608 166.583902 
L 792.941966 166.576589 
L 797.491323 166.093399 
L 802.040681 161.740449 
L 806.590039 155.52861 
L 811.139397 151.897183 
L 815.688754 150.147919 
L 820.238112 149.391639 
L 824.78747 149.381781 
L 829.336827 150.166249 
L 833.886185 143.847463 
L 838.435543 145.315992 
L 842.984901 146.053049 
L 847.534258 149.406403 
L 852.083616 150.427521 
L 856.632974 150.419369 
L 861.182331 150.075266 
L 865.731689 162.288313 
L 870.281047 161.211399 
L 874.830405 158.775626 
L 879.379762 158.874833 
L 883.92912 158.131424 
L 888.478478 158.099005 
L 893.027835 159.546394 
L 897.577193 157.067522 
L 902.126551 153.046577 
L 906.675908 156.147032 
L 911.225266 154.469399 
L 915.774624 154.857513 
L 920.323982 154.829392 
L 924.873339 154.053116 
L 929.422697 146.941154 
L 933.972055 149.898116 
L 938.521412 148.586548 
L 943.07077 145.183277 
L 947.620128 148.024684 
L 947.620128 148.024684 
" clip-path="url(#p0465dcf568)" style="fill: none; stroke: #2ca02c; stroke-width: 2; stroke-linecap: round"/>
   </g>
   <g id="patch_3">
    <path d="M 68.684219 249.316875 
L 68.684219 21.935625 
" style="fill: none; stroke: #cccccc; stroke-width: 1.25; stroke-linejoin: miter; stroke-linecap: square"/>
   </g>
   <g id="patch_4">
    <path d="M 989.474219 249.316875 
L 989.474219 21.935625 
" style="fill: none; stroke: #cccccc; stroke-width: 1.25; stroke-linejoin: miter; stroke-linecap: square"/>
   </g>
   <g id="patch_5">
    <path d="M 68.684219 249.316875 
L 989.474219 249.316875 
" style="fill: none; stroke: #cccccc; stroke-width: 1.25; stroke-linejoin: miter; stroke-linecap: square"/>
   </g>
   <g id="patch_6">
    <path d="M 68.684219 21.935625 
L 989.474219 21.935625 
" style="fill: none; stroke: #cccccc; stroke-width: 1.25; stroke-linejoin: miter; stroke-linecap: square"/>
   </g>
   <g id="text_19">
    <!-- Cluster 1: Residual Trend (Actual Minus Forecast) -->
    <g style="fill: #262626" transform="translate(387.060156 15.935625) scale(0.12 -0.12)">
     <defs>
      <path id="Arial-BoldMT-43" d="M 3397 1684 
L 4294 1400 
Q 4088 650 3608 286 
Q 3128 -78 2391 -78 
Q 1478 -78 890 545 
Q 303 1169 303 2250 
Q 303 3394 893 4026 
Q 1484 4659 2447 4659 
Q 3288 4659 3813 4163 
Q 4125 3869 4281 3319 
L 3366 3100 
Q 3284 3456 3026 3662 
Q 2769 3869 2400 3869 
Q 1891 3869 1573 3503 
Q 1256 3138 1256 2319 
Q 1256 1450 1568 1081 
Q 1881 713 2381 713 
Q 2750 713 3015 947 
Q 3281 1181 3397 1684 
z
" transform="scale(0.015625)"/>
      <path id="Arial-BoldMT-6c" d="M 459 0 
L 459 4581 
L 1338 4581 
L 1338 0 
L 459 0 
z
" transform="scale(0.015625)"/>
      <path id="Arial-BoldMT-75" d="M 2644 0 
L 2644 497 
Q 2463 231 2167 78 
Q 1872 -75 1544 -75 
Q 1209 -75 943 72 
Q 678 219 559 484 
Q 441 750 441 1219 
L 441 3319 
L 1319 3319 
L 1319 1794 
Q 1319 1094 1367 936 
Q 1416 778 1544 686 
Q 1672 594 1869 594 
Q 2094 594 2272 717 
Q 2450 841 2515 1023 
Q 2581 1206 2581 1919 
L 2581 3319 
L 3459 3319 
L 3459 0 
L 2644 0 
z
" transform="scale(0.015625)"/>
      <path id="Arial-BoldMT-73" d="M 150 947 
L 1031 1081 
Q 1088 825 1259 692 
Q 1431 559 1741 559 
Q 2081 559 2253 684 
Q 2369 772 2369 919 
Q 2369 1019 2306 1084 
Q 2241 1147 2013 1200 
Q 950 1434 666 1628 
Q 272 1897 272 2375 
Q 272 2806 612 3100 
Q 953 3394 1669 3394 
Q 2350 3394 2681 3172 
Q 3013 2950 3138 2516 
L 2309 2363 
Q 2256 2556 2107 2659 
Q 1959 2763 1684 2763 
Q 1338 2763 1188 2666 
Q 1088 2597 1088 2488 
Q 1088 2394 1175 2328 
Q 1294 2241 1995 2081 
Q 2697 1922 2975 1691 
Q 3250 1456 3250 1038 
Q 3250 581 2869 253 
Q 2488 -75 1741 -75 
Q 1063 -75 667 200 
Q 272 475 150 947 
z
" transform="scale(0.015625)"/>
      <path id="Arial-BoldMT-74" d="M 1981 3319 
L 1981 2619 
L 1381 2619 
L 1381 1281 
Q 1381 875 1398 808 
Q 1416 741 1477 697 
Q 1538 653 1625 653 
Q 1747 653 1978 738 
L 2053 56 
Q 1747 -75 1359 -75 
Q 1122 -75 931 4 
Q 741 84 652 211 
Q 563 338 528 553 
Q 500 706 500 1172 
L 500 2619 
L 97 2619 
L 97 3319 
L 500 3319 
L 500 3978 
L 1381 4491 
L 1381 3319 
L 1981 3319 
z
" transform="scale(0.015625)"/>
      <path id="Arial-BoldMT-65" d="M 2381 1056 
L 3256 909 
Q 3088 428 2723 176 
Q 2359 -75 1813 -75 
Q 947 -75 531 491 
Q 203 944 203 1634 
Q 203 2459 634 2926 
Q 1066 3394 1725 3394 
Q 2466 3394 2894 2905 
Q 3322 2416 3303 1406 
L 1103 1406 
Q 1113 1016 1316 798 
Q 1519 581 1822 581 
Q 2028 581 2168 693 
Q 2309 806 2381 1056 
z
M 2431 1944 
Q 2422 2325 2234 2523 
Q 2047 2722 1778 2722 
Q 1491 2722 1303 2513 
Q 1116 2303 1119 1944 
L 2431 1944 
z
" transform="scale(0.015625)"/>
      <path id="Arial-BoldMT-72" d="M 1300 0 
L 422 0 
L 422 3319 
L 1238 3319 
L 1238 2847 
Q 1447 3181 1614 3287 
Q 1781 3394 1994 3394 
Q 2294 3394 2572 3228 
L 2300 2463 
Q 2078 2606 1888 2606 
Q 1703 2606 1575 2504 
Q 1447 2403 1373 2137 
Q 1300 1872 1300 1025 
L 1300 0 
z
" transform="scale(0.015625)"/>
      <path id="Arial-BoldMT-20" transform="scale(0.015625)"/>
      <path id="Arial-BoldMT-31" d="M 2519 0 
L 1641 0 
L 1641 3309 
Q 1159 2859 506 2644 
L 506 3441 
Q 850 3553 1253 3867 
Q 1656 4181 1806 4600 
L 2519 4600 
L 2519 0 
z
" transform="scale(0.015625)"/>
      <path id="Arial-BoldMT-3a" d="M 628 2441 
L 628 3319 
L 1506 3319 
L 1506 2441 
L 628 2441 
z
M 628 0 
L 628 878 
L 1506 878 
L 1506 0 
L 628 0 
z
" transform="scale(0.015625)"/>
      <path id="Arial-BoldMT-52" d="M 469 0 
L 469 4581 
L 2416 4581 
Q 3150 4581 3483 4457 
Q 3816 4334 4016 4018 
Q 4216 3703 4216 3297 
Q 4216 2781 3912 2445 
Q 3609 2109 3006 2022 
Q 3306 1847 3501 1637 
Q 3697 1428 4028 894 
L 4588 0 
L 3481 0 
L 2813 997 
Q 2456 1531 2325 1670 
Q 2194 1809 2047 1861 
Q 1900 1913 1581 1913 
L 1394 1913 
L 1394 0 
L 469 0 
z
M 1394 2644 
L 2078 2644 
Q 2744 2644 2909 2700 
Q 3075 2756 3169 2893 
Q 3263 3031 3263 3238 
Q 3263 3469 3139 3611 
Q 3016 3753 2791 3791 
Q 2678 3806 2116 3806 
L 1394 3806 
L 1394 2644 
z
" transform="scale(0.015625)"/>
      <path id="Arial-BoldMT-69" d="M 459 3769 
L 459 4581 
L 1338 4581 
L 1338 3769 
L 459 3769 
z
M 459 0 
L 459 3319 
L 1338 3319 
L 1338 0 
L 459 0 
z
" transform="scale(0.015625)"/>
      <path id="Arial-BoldMT-64" d="M 3503 0 
L 2688 0 
L 2688 488 
Q 2484 203 2207 64 
Q 1931 -75 1650 -75 
Q 1078 -75 670 386 
Q 263 847 263 1672 
Q 263 2516 659 2955 
Q 1056 3394 1663 3394 
Q 2219 3394 2625 2931 
L 2625 4581 
L 3503 4581 
L 3503 0 
z
M 1159 1731 
Q 1159 1200 1306 963 
Q 1519 619 1900 619 
Q 2203 619 2415 876 
Q 2628 1134 2628 1647 
Q 2628 2219 2422 2470 
Q 2216 2722 1894 2722 
Q 1581 2722 1370 2473 
Q 1159 2225 1159 1731 
z
" transform="scale(0.015625)"/>
      <path id="Arial-BoldMT-61" d="M 1116 2306 
L 319 2450 
Q 453 2931 781 3162 
Q 1109 3394 1756 3394 
Q 2344 3394 2631 3255 
Q 2919 3116 3036 2902 
Q 3153 2688 3153 2116 
L 3144 1091 
Q 3144 653 3186 445 
Q 3228 238 3344 0 
L 2475 0 
Q 2441 88 2391 259 
Q 2369 338 2359 363 
Q 2134 144 1878 34 
Q 1622 -75 1331 -75 
Q 819 -75 523 203 
Q 228 481 228 906 
Q 228 1188 362 1408 
Q 497 1628 739 1745 
Q 981 1863 1438 1950 
Q 2053 2066 2291 2166 
L 2291 2253 
Q 2291 2506 2166 2614 
Q 2041 2722 1694 2722 
Q 1459 2722 1328 2630 
Q 1197 2538 1116 2306 
z
M 2291 1594 
Q 2122 1538 1756 1459 
Q 1391 1381 1278 1306 
Q 1106 1184 1106 997 
Q 1106 813 1243 678 
Q 1381 544 1594 544 
Q 1831 544 2047 700 
Q 2206 819 2256 991 
Q 2291 1103 2291 1419 
L 2291 1594 
z
" transform="scale(0.015625)"/>
      <path id="Arial-BoldMT-54" d="M 1497 0 
L 1497 3806 
L 138 3806 
L 138 4581 
L 3778 4581 
L 3778 3806 
L 2422 3806 
L 2422 0 
L 1497 0 
z
" transform="scale(0.015625)"/>
      <path id="Arial-BoldMT-6e" d="M 3478 0 
L 2600 0 
L 2600 1694 
Q 2600 2231 2544 2389 
Q 2488 2547 2361 2634 
Q 2234 2722 2056 2722 
Q 1828 2722 1647 2597 
Q 1466 2472 1398 2265 
Q 1331 2059 1331 1503 
L 1331 0 
L 453 0 
L 453 3319 
L 1269 3319 
L 1269 2831 
Q 1703 3394 2363 3394 
Q 2653 3394 2893 3289 
Q 3134 3184 3257 3021 
Q 3381 2859 3429 2653 
Q 3478 2447 3478 2063 
L 3478 0 
z
" transform="scale(0.015625)"/>
      <path id="Arial-BoldMT-28" d="M 1916 -1347 
L 1313 -1347 
Q 834 -625 584 153 
Q 334 931 334 1659 
Q 334 2563 644 3369 
Q 913 4069 1325 4659 
L 1925 4659 
Q 1497 3713 1336 3048 
Q 1175 2384 1175 1641 
Q 1175 1128 1270 590 
Q 1366 53 1531 -431 
Q 1641 -750 1916 -1347 
z
" transform="scale(0.015625)"/>
      <path id="Arial-BoldMT-41" d="M 4597 0 
L 3591 0 
L 3191 1041 
L 1359 1041 
L 981 0 
L 0 0 
L 1784 4581 
L 2763 4581 
L 4597 0 
z
M 2894 1813 
L 2263 3513 
L 1644 1813 
L 2894 1813 
z
" transform="scale(0.015625)"/>
      <path id="Arial-BoldMT-63" d="M 3353 2338 
L 2488 2181 
Q 2444 2441 2289 2572 
Q 2134 2703 1888 2703 
Q 1559 2703 1364 2476 
Q 1169 2250 1169 1719 
Q 1169 1128 1367 884 
Q 1566 641 1900 641 
Q 2150 641 2309 783 
Q 2469 925 2534 1272 
L 3397 1125 
Q 3263 531 2881 228 
Q 2500 -75 1859 -75 
Q 1131 -75 698 384 
Q 266 844 266 1656 
Q 266 2478 700 2936 
Q 1134 3394 1875 3394 
Q 2481 3394 2839 3133 
Q 3197 2872 3353 2338 
z
" transform="scale(0.015625)"/>
      <path id="Arial-BoldMT-4d" d="M 453 0 
L 453 4581 
L 1838 4581 
L 2669 1456 
L 3491 4581 
L 4878 4581 
L 4878 0 
L 4019 0 
L 4019 3606 
L 3109 0 
L 2219 0 
L 1313 3606 
L 1313 0 
L 453 0 
z
" transform="scale(0.015625)"/>
      <path id="Arial-BoldMT-46" d="M 472 0 
L 472 4581 
L 3613 4581 
L 3613 3806 
L 1397 3806 
L 1397 2722 
L 3309 2722 
L 3309 1947 
L 1397 1947 
L 1397 0 
L 472 0 
z
" transform="scale(0.015625)"/>
      <path id="Arial-BoldMT-6f" d="M 256 1706 
Q 256 2144 472 2553 
Q 688 2963 1083 3178 
Q 1478 3394 1966 3394 
Q 2719 3394 3200 2905 
Q 3681 2416 3681 1669 
Q 3681 916 3195 420 
Q 2709 -75 1972 -75 
Q 1516 -75 1102 131 
Q 688 338 472 736 
Q 256 1134 256 1706 
z
M 1156 1659 
Q 1156 1166 1390 903 
Q 1625 641 1969 641 
Q 2313 641 2545 903 
Q 2778 1166 2778 1666 
Q 2778 2153 2545 2415 
Q 2313 2678 1969 2678 
Q 1625 2678 1390 2415 
Q 1156 2153 1156 1659 
z
" transform="scale(0.015625)"/>
      <path id="Arial-BoldMT-29" d="M 216 -1347 
Q 475 -791 581 -494 
Q 688 -197 778 190 
Q 869 578 912 926 
Q 956 1275 956 1641 
Q 956 2384 797 3048 
Q 638 3713 209 4659 
L 806 4659 
Q 1278 3988 1539 3234 
Q 1800 2481 1800 1706 
Q 1800 1053 1594 306 
Q 1359 -531 822 -1347 
L 216 -1347 
z
" transform="scale(0.015625)"/>
     </defs>
     <use xlink:href="#Arial-BoldMT-43"/>
     <use xlink:href="#Arial-BoldMT-6c" transform="translate(72.216797 0)"/>
     <use xlink:href="#Arial-BoldMT-75" transform="translate(100 0)"/>
     <use xlink:href="#Arial-BoldMT-73" transform="translate(161.083984 0)"/>
     <use xlink:href="#Arial-BoldMT-74" transform="translate(216.699219 0)"/>
     <use xlink:href="#Arial-BoldMT-65" transform="translate(250 0)"/>
     <use xlink:href="#Arial-BoldMT-72" transform="translate(305.615234 0)"/>
     <use xlink:href="#Arial-BoldMT-20" transform="translate(344.53125 0)"/>
     <use xlink:href="#Arial-BoldMT-31" transform="translate(372.314453 0)"/>
     <use xlink:href="#Arial-BoldMT-3a" transform="translate(427.929688 0)"/>
     <use xlink:href="#Arial-BoldMT-20" transform="translate(461.230469 0)"/>
     <use xlink:href="#Arial-BoldMT-52" transform="translate(489.013672 0)"/>
     <use xlink:href="#Arial-BoldMT-65" transform="translate(561.230469 0)"/>
     <use xlink:href="#Arial-BoldMT-73" transform="translate(616.845703 0)"/>
     <use xlink:href="#Arial-BoldMT-69" transform="translate(672.460938 0)"/>
     <use xlink:href="#Arial-BoldMT-64" transform="translate(700.244141 0)"/>
     <use xlink:href="#Arial-BoldMT-75" transform="translate(761.328125 0)"/>
     <use xlink:href="#Arial-BoldMT-61" transform="translate(822.412109 0)"/>
     <use xlink:href="#Arial-BoldMT-6c" transform="translate(878.027344 0)"/>
     <use xlink:href="#Arial-BoldMT-20" transform="translate(905.810547 0)"/>
     <use xlink:href="#Arial-BoldMT-54" transform="translate(933.59375 0)"/>
     <use xlink:href="#Arial-BoldMT-72" transform="translate(989.177734 0)"/>
     <use xlink:href="#Arial-BoldMT-65" transform="translate(1028.09375 0)"/>
     <use xlink:href="#Arial-BoldMT-6e" transform="translate(1083.708984 0)"/>
     <use xlink:href="#Arial-BoldMT-64" transform="translate(1144.792969 0)"/>
     <use xlink:href="#Arial-BoldMT-20" transform="translate(1205.876953 0)"/>
     <use xlink:href="#Arial-BoldMT-28" transform="translate(1233.660156 0)"/>
     <use xlink:href="#Arial-BoldMT-41" transform="translate(1266.960938 0)"/>
     <use xlink:href="#Arial-BoldMT-63" transform="translate(1339.177734 0)"/>
     <use xlink:href="#Arial-BoldMT-74" transform="translate(1394.792969 0)"/>
     <use xlink:href="#Arial-BoldMT-75" transform="translate(1428.09375 0)"/>
     <use xlink:href="#Arial-BoldMT-61" transform="translate(1489.177734 0)"/>
     <use xlink:href="#Arial-BoldMT-6c" transform="translate(1544.792969 0)"/>
     <use xlink:href="#Arial-BoldMT-20" transform="translate(1572.576172 0)"/>
     <use xlink:href="#Arial-BoldMT-4d" transform="translate(1600.359375 0)"/>
     <use xlink:href="#Arial-BoldMT-69" transform="translate(1683.660156 0)"/>
     <use xlink:href="#Arial-BoldMT-6e" transform="translate(1711.443359 0)"/>
     <use xlink:href="#Arial-BoldMT-75" transform="translate(1772.527344 0)"/>
     <use xlink:href="#Arial-BoldMT-73" transform="translate(1833.611328 0)"/>
     <use xlink:href="#Arial-BoldMT-20" transform="translate(1889.226562 0)"/>
     <use xlink:href="#Arial-BoldMT-46" transform="translate(1917.009766 0)"/>
     <use xlink:href="#Arial-BoldMT-6f" transform="translate(1978.09375 0)"/>
     <use xlink:href="#Arial-BoldMT-72" transform="translate(2039.177734 0)"/>
     <use xlink:href="#Arial-BoldMT-65" transform="translate(2078.09375 0)"/>
     <use xlink:href="#Arial-BoldMT-63" transform="translate(2133.708984 0)"/>
     <use xlink:href="#Arial-BoldMT-61" transform="translate(2189.324219 0)"/>
     <use xlink:href="#Arial-BoldMT-73" transform="translate(2244.939453 0)"/>
     <use xlink:href="#Arial-BoldMT-74" transform="translate(2300.554688 0)"/>
     <use xlink:href="#Arial-BoldMT-29" transform="translate(2333.855469 0)"/>
    </g>
   </g>
   <g id="legend_1">
    <g id="patch_7">
     <path d="M 649.974219 51.253125 
L 983.874219 51.253125 
Q 985.474219 51.253125 985.474219 49.653125 
L 985.474219 27.535625 
Q 985.474219 25.935625 983.874219 25.935625 
L 649.974219 25.935625 
Q 648.374219 25.935625 648.374219 27.535625 
L 648.374219 49.653125 
Q 648.374219 51.253125 649.974219 51.253125 
z
" style="fill: #ffffff; opacity: 0.8; stroke: #cccccc; stroke-linejoin: miter"/>
    </g>
    <g id="line2d_22">
     <path d="M 651.574219 32.061875 
L 659.574219 32.061875 
L 667.574219 32.061875 
" style="fill: none; stroke: #ff7f0e; stroke-opacity: 0.35; stroke-width: 1.2; stroke-linecap: round"/>
    </g>
    <g id="text_20">
     <!-- Naive 7-Day Baseline residual -->
     <g style="fill: #262626" transform="translate(673.974219 34.861875) scale(0.08 -0.08)">
      <defs>
       <path id="ArialMT-4e" d="M 488 0 
L 488 4581 
L 1109 4581 
L 3516 984 
L 3516 4581 
L 4097 4581 
L 4097 0 
L 3475 0 
L 1069 3600 
L 1069 0 
L 488 0 
z
" transform="scale(0.015625)"/>
       <path id="ArialMT-76" d="M 1344 0 
L 81 3319 
L 675 3319 
L 1388 1331 
Q 1503 1009 1600 663 
Q 1675 925 1809 1294 
L 2547 3319 
L 3125 3319 
L 1869 0 
L 1344 0 
z
" transform="scale(0.015625)"/>
       <path id="ArialMT-20" transform="scale(0.015625)"/>
       <path id="ArialMT-79" d="M 397 -1278 
L 334 -750 
Q 519 -800 656 -800 
Q 844 -800 956 -737 
Q 1069 -675 1141 -563 
Q 1194 -478 1313 -144 
Q 1328 -97 1363 -6 
L 103 3319 
L 709 3319 
L 1400 1397 
Q 1534 1031 1641 628 
Q 1738 1016 1872 1384 
L 2581 3319 
L 3144 3319 
L 1881 -56 
Q 1678 -603 1566 -809 
Q 1416 -1088 1222 -1217 
Q 1028 -1347 759 -1347 
Q 597 -1347 397 -1278 
z
" transform="scale(0.015625)"/>
       <path id="ArialMT-42" d="M 469 0 
L 469 4581 
L 2188 4581 
Q 2713 4581 3030 4442 
Q 3347 4303 3526 4014 
Q 3706 3725 3706 3409 
Q 3706 3116 3547 2856 
Q 3388 2597 3066 2438 
Q 3481 2316 3704 2022 
Q 3928 1728 3928 1328 
Q 3928 1006 3792 729 
Q 3656 453 3456 303 
Q 3256 153 2954 76 
Q 2653 0 2216 0 
L 469 0 
z
M 1075 2656 
L 2066 2656 
Q 2469 2656 2644 2709 
Q 2875 2778 2992 2937 
Q 3109 3097 3109 3338 
Q 3109 3566 3000 3739 
Q 2891 3913 2687 3977 
Q 2484 4041 1991 4041 
L 1075 4041 
L 1075 2656 
z
M 1075 541 
L 2216 541 
Q 2509 541 2628 563 
Q 2838 600 2978 687 
Q 3119 775 3209 942 
Q 3300 1109 3300 1328 
Q 3300 1584 3169 1773 
Q 3038 1963 2805 2039 
Q 2572 2116 2134 2116 
L 1075 2116 
L 1075 541 
z
" transform="scale(0.015625)"/>
       <path id="ArialMT-6e" d="M 422 0 
L 422 3319 
L 928 3319 
L 928 2847 
Q 1294 3394 1984 3394 
Q 2284 3394 2536 3286 
Q 2788 3178 2913 3003 
Q 3038 2828 3088 2588 
Q 3119 2431 3119 2041 
L 3119 0 
L 2556 0 
L 2556 2019 
Q 2556 2363 2490 2533 
Q 2425 2703 2258 2804 
Q 2091 2906 1866 2906 
Q 1506 2906 1245 2678 
Q 984 2450 984 1813 
L 984 0 
L 422 0 
z
" transform="scale(0.015625)"/>
       <path id="ArialMT-72" d="M 416 0 
L 416 3319 
L 922 3319 
L 922 2816 
Q 1116 3169 1280 3281 
Q 1444 3394 1641 3394 
Q 1925 3394 2219 3213 
L 2025 2691 
Q 1819 2813 1613 2813 
Q 1428 2813 1281 2702 
Q 1134 2591 1072 2394 
Q 978 2094 978 1738 
L 978 0 
L 416 0 
z
" transform="scale(0.015625)"/>
      </defs>
      <use xlink:href="#ArialMT-4e"/>
      <use xlink:href="#ArialMT-61" transform="translate(72.216797 0)"/>
      <use xlink:href="#ArialMT-69" transform="translate(127.832031 0)"/>
      <use xlink:href="#ArialMT-76" transform="translate(150.048828 0)"/>
      <use xlink:href="#ArialMT-65" transform="translate(200.048828 0)"/>
      <use xlink:href="#ArialMT-20" transform="translate(255.664062 0)"/>
      <use xlink:href="#ArialMT-37" transform="translate(283.447266 0)"/>
      <use xlink:href="#ArialMT-2d" transform="translate(339.0625 0)"/>
      <use xlink:href="#ArialMT-44" transform="translate(372.363281 0)"/>
      <use xlink:href="#ArialMT-61" transform="translate(444.580078 0)"/>
      <use xlink:href="#ArialMT-79" transform="translate(500.195312 0)"/>
      <use xlink:href="#ArialMT-20" transform="translate(550.195312 0)"/>
      <use xlink:href="#ArialMT-42" transform="translate(577.978516 0)"/>
      <use xlink:href="#ArialMT-61" transform="translate(644.677734 0)"/>
      <use xlink:href="#ArialMT-73" transform="translate(700.292969 0)"/>
      <use xlink:href="#ArialMT-65" transform="translate(750.292969 0)"/>
      <use xlink:href="#ArialMT-6c" transform="translate(805.908203 0)"/>
      <use xlink:href="#ArialMT-69" transform="translate(828.125 0)"/>
      <use xlink:href="#ArialMT-6e" transform="translate(850.341797 0)"/>
      <use xlink:href="#ArialMT-65" transform="translate(905.957031 0)"/>
      <use xlink:href="#ArialMT-20" transform="translate(961.572266 0)"/>
      <use xlink:href="#ArialMT-72" transform="translate(989.355469 0)"/>
      <use xlink:href="#ArialMT-65" transform="translate(1022.65625 0)"/>
      <use xlink:href="#ArialMT-73" transform="translate(1078.271484 0)"/>
      <use xlink:href="#ArialMT-69" transform="translate(1128.271484 0)"/>
      <use xlink:href="#ArialMT-64" transform="translate(1150.488281 0)"/>
      <use xlink:href="#ArialMT-75" transform="translate(1206.103516 0)"/>
      <use xlink:href="#ArialMT-61" transform="translate(1261.71875 0)"/>
      <use xlink:href="#ArialMT-6c" transform="translate(1317.333984 0)"/>
     </g>
    </g>
    <g id="line2d_23">
     <path d="M 651.574219 43.569375 
L 659.574219 43.569375 
L 667.574219 43.569375 
" style="fill: none; stroke: #2ca02c; stroke-opacity: 0.35; stroke-width: 1.2; stroke-linecap: round"/>
    </g>
    <g id="text_21">
     <!-- Zero-Inflated Negative Binomial Forecast residual -->
     <g style="fill: #262626" transform="translate(673.974219 46.369375) scale(0.08 -0.08)">
      <defs>
       <path id="ArialMT-5a" d="M 128 0 
L 128 563 
L 2475 3497 
Q 2725 3809 2950 4041 
L 394 4041 
L 394 4581 
L 3675 4581 
L 3675 4041 
L 1103 863 
L 825 541 
L 3750 541 
L 3750 0 
L 128 0 
z
" transform="scale(0.015625)"/>
       <path id="ArialMT-6f" d="M 213 1659 
Q 213 2581 725 3025 
Q 1153 3394 1769 3394 
Q 2453 3394 2887 2945 
Q 3322 2497 3322 1706 
Q 3322 1066 3130 698 
Q 2938 331 2570 128 
Q 2203 -75 1769 -75 
Q 1072 -75 642 372 
Q 213 819 213 1659 
z
M 791 1659 
Q 791 1022 1069 705 
Q 1347 388 1769 388 
Q 2188 388 2466 706 
Q 2744 1025 2744 1678 
Q 2744 2294 2464 2611 
Q 2184 2928 1769 2928 
Q 1347 2928 1069 2612 
Q 791 2297 791 1659 
z
" transform="scale(0.015625)"/>
       <path id="ArialMT-49" d="M 597 0 
L 597 4581 
L 1203 4581 
L 1203 0 
L 597 0 
z
" transform="scale(0.015625)"/>
       <path id="ArialMT-66" d="M 556 0 
L 556 2881 
L 59 2881 
L 59 3319 
L 556 3319 
L 556 3672 
Q 556 4006 616 4169 
Q 697 4388 901 4523 
Q 1106 4659 1475 4659 
Q 1713 4659 2000 4603 
L 1916 4113 
Q 1741 4144 1584 4144 
Q 1328 4144 1222 4034 
Q 1116 3925 1116 3625 
L 1116 3319 
L 1763 3319 
L 1763 2881 
L 1116 2881 
L 1116 0 
L 556 0 
z
" transform="scale(0.015625)"/>
       <path id="ArialMT-67" d="M 319 -275 
L 866 -356 
Q 900 -609 1056 -725 
Q 1266 -881 1628 -881 
Q 2019 -881 2231 -725 
Q 2444 -569 2519 -288 
Q 2563 -116 2559 434 
Q 2191 0 1641 0 
Q 956 0 581 494 
Q 206 988 206 1678 
Q 206 2153 378 2554 
Q 550 2956 876 3175 
Q 1203 3394 1644 3394 
Q 2231 3394 2613 2919 
L 2613 3319 
L 3131 3319 
L 3131 450 
Q 3131 -325 2973 -648 
Q 2816 -972 2473 -1159 
Q 2131 -1347 1631 -1347 
Q 1038 -1347 672 -1080 
Q 306 -813 319 -275 
z
M 784 1719 
Q 784 1066 1043 766 
Q 1303 466 1694 466 
Q 2081 466 2343 764 
Q 2606 1063 2606 1700 
Q 2606 2309 2336 2618 
Q 2066 2928 1684 2928 
Q 1309 2928 1046 2623 
Q 784 2319 784 1719 
z
" transform="scale(0.015625)"/>
       <path id="ArialMT-6d" d="M 422 0 
L 422 3319 
L 925 3319 
L 925 2853 
Q 1081 3097 1340 3245 
Q 1600 3394 1931 3394 
Q 2300 3394 2536 3241 
Q 2772 3088 2869 2813 
Q 3263 3394 3894 3394 
Q 4388 3394 4653 3120 
Q 4919 2847 4919 2278 
L 4919 0 
L 4359 0 
L 4359 2091 
Q 4359 2428 4304 2576 
Q 4250 2725 4106 2815 
Q 3963 2906 3769 2906 
Q 3419 2906 3187 2673 
Q 2956 2441 2956 1928 
L 2956 0 
L 2394 0 
L 2394 2156 
Q 2394 2531 2256 2718 
Q 2119 2906 1806 2906 
Q 1569 2906 1367 2781 
Q 1166 2656 1075 2415 
Q 984 2175 984 1722 
L 984 0 
L 422 0 
z
" transform="scale(0.015625)"/>
       <path id="ArialMT-46" d="M 525 0 
L 525 4581 
L 3616 4581 
L 3616 4041 
L 1131 4041 
L 1131 2622 
L 3281 2622 
L 3281 2081 
L 1131 2081 
L 1131 0 
L 525 0 
z
" transform="scale(0.015625)"/>
       <path id="ArialMT-63" d="M 2588 1216 
L 3141 1144 
Q 3050 572 2676 248 
Q 2303 -75 1759 -75 
Q 1078 -75 664 370 
Q 250 816 250 1647 
Q 250 2184 428 2587 
Q 606 2991 970 3192 
Q 1334 3394 1763 3394 
Q 2303 3394 2647 3120 
Q 2991 2847 3088 2344 
L 2541 2259 
Q 2463 2594 2264 2762 
Q 2066 2931 1784 2931 
Q 1359 2931 1093 2626 
Q 828 2322 828 1663 
Q 828 994 1084 691 
Q 1341 388 1753 388 
Q 2084 388 2306 591 
Q 2528 794 2588 1216 
z
" transform="scale(0.015625)"/>
      </defs>
      <use xlink:href="#ArialMT-5a"/>
      <use xlink:href="#ArialMT-65" transform="translate(61.083984 0)"/>
      <use xlink:href="#ArialMT-72" transform="translate(116.699219 0)"/>
      <use xlink:href="#ArialMT-6f" transform="translate(150 0)"/>
      <use xlink:href="#ArialMT-2d" transform="translate(205.615234 0)"/>
      <use xlink:href="#ArialMT-49" transform="translate(238.916016 0)"/>
      <use xlink:href="#ArialMT-6e" transform="translate(266.699219 0)"/>
      <use xlink:href="#ArialMT-66" transform="translate(322.314453 0)"/>
      <use xlink:href="#ArialMT-6c" transform="translate(350.097656 0)"/>
      <use xlink:href="#ArialMT-61" transform="translate(372.314453 0)"/>
      <use xlink:href="#ArialMT-74" transform="translate(427.929688 0)"/>
      <use xlink:href="#ArialMT-65" transform="translate(455.712891 0)"/>
      <use xlink:href="#ArialMT-64" transform="translate(511.328125 0)"/>
      <use xlink:href="#ArialMT-20" transform="translate(566.943359 0)"/>
      <use xlink:href="#ArialMT-4e" transform="translate(594.726562 0)"/>
      <use xlink:href="#ArialMT-65" transform="translate(666.943359 0)"/>
      <use xlink:href="#ArialMT-67" transform="translate(722.558594 0)"/>
      <use xlink:href="#ArialMT-61" transform="translate(778.173828 0)"/>
      <use xlink:href="#ArialMT-74" transform="translate(833.789062 0)"/>
      <use xlink:href="#ArialMT-69" transform="translate(861.572266 0)"/>
      <use xlink:href="#ArialMT-76" transform="translate(883.789062 0)"/>
      <use xlink:href="#ArialMT-65" transform="translate(933.789062 0)"/>
      <use xlink:href="#ArialMT-20" transform="translate(989.404297 0)"/>
      <use xlink:href="#ArialMT-42" transform="translate(1017.1875 0)"/>
      <use xlink:href="#ArialMT-69" transform="translate(1083.886719 0)"/>
      <use xlink:href="#ArialMT-6e" transform="translate(1106.103516 0)"/>
      <use xlink:href="#ArialMT-6f" transform="translate(1161.71875 0)"/>
      <use xlink:href="#ArialMT-6d" transform="translate(1217.333984 0)"/>
      <use xlink:href="#ArialMT-69" transform="translate(1300.634766 0)"/>
      <use xlink:href="#ArialMT-61" transform="translate(1322.851562 0)"/>
      <use xlink:href="#ArialMT-6c" transform="translate(1378.466797 0)"/>
      <use xlink:href="#ArialMT-20" transform="translate(1400.683594 0)"/>
      <use xlink:href="#ArialMT-46" transform="translate(1428.466797 0)"/>
      <use xlink:href="#ArialMT-6f" transform="translate(1489.550781 0)"/>
      <use xlink:href="#ArialMT-72" transform="translate(1545.166016 0)"/>
      <use xlink:href="#ArialMT-65" transform="translate(1578.466797 0)"/>
      <use xlink:href="#ArialMT-63" transform="translate(1634.082031 0)"/>
      <use xlink:href="#ArialMT-61" transform="translate(1684.082031 0)"/>
      <use xlink:href="#ArialMT-73" transform="translate(1739.697266 0)"/>
      <use xlink:href="#ArialMT-74" transform="translate(1789.697266 0)"/>
      <use xlink:href="#ArialMT-20" transform="translate(1817.480469 0)"/>
      <use xlink:href="#ArialMT-72" transform="translate(1845.263672 0)"/>
      <use xlink:href="#ArialMT-65" transform="translate(1878.564453 0)"/>
      <use xlink:href="#ArialMT-73" transform="translate(1934.179688 0)"/>
      <use xlink:href="#ArialMT-69" transform="translate(1984.179688 0)"/>
      <use xlink:href="#ArialMT-64" transform="translate(2006.396484 0)"/>
      <use xlink:href="#ArialMT-75" transform="translate(2062.011719 0)"/>
      <use xlink:href="#ArialMT-61" transform="translate(2117.626953 0)"/>
      <use xlink:href="#ArialMT-6c" transform="translate(2173.242188 0)"/>
     </g>
    </g>
    <g id="line2d_24">
     <path d="M 865.599219 32.061875 
L 873.599219 32.061875 
L 881.599219 32.061875 
" style="fill: none; stroke: #ff7f0e; stroke-width: 2; stroke-linecap: round"/>
    </g>
    <g id="text_22">
     <!-- Baseline residual 7d mean -->
     <g style="fill: #262626" transform="translate(887.999219 34.861875) scale(0.08 -0.08)">
      <use xlink:href="#ArialMT-42"/>
      <use xlink:href="#ArialMT-61" transform="translate(66.699219 0)"/>
      <use xlink:href="#ArialMT-73" transform="translate(122.314453 0)"/>
      <use xlink:href="#ArialMT-65" transform="translate(172.314453 0)"/>
      <use xlink:href="#ArialMT-6c" transform="translate(227.929688 0)"/>
      <use xlink:href="#ArialMT-69" transform="translate(250.146484 0)"/>
      <use xlink:href="#ArialMT-6e" transform="translate(272.363281 0)"/>
      <use xlink:href="#ArialMT-65" transform="translate(327.978516 0)"/>
      <use xlink:href="#ArialMT-20" transform="translate(383.59375 0)"/>
      <use xlink:href="#ArialMT-72" transform="translate(411.376953 0)"/>
      <use xlink:href="#ArialMT-65" transform="translate(444.677734 0)"/>
      <use xlink:href="#ArialMT-73" transform="translate(500.292969 0)"/>
      <use xlink:href="#ArialMT-69" transform="translate(550.292969 0)"/>
      <use xlink:href="#ArialMT-64" transform="translate(572.509766 0)"/>
      <use xlink:href="#ArialMT-75" transform="translate(628.125 0)"/>
      <use xlink:href="#ArialMT-61" transform="translate(683.740234 0)"/>
      <use xlink:href="#ArialMT-6c" transform="translate(739.355469 0)"/>
      <use xlink:href="#ArialMT-20" transform="translate(761.572266 0)"/>
      <use xlink:href="#ArialMT-37" transform="translate(789.355469 0)"/>
      <use xlink:href="#ArialMT-64" transform="translate(844.970703 0)"/>
      <use xlink:href="#ArialMT-20" transform="translate(900.585938 0)"/>
      <use xlink:href="#ArialMT-6d" transform="translate(928.369141 0)"/>
      <use xlink:href="#ArialMT-65" transform="translate(1011.669922 0)"/>
      <use xlink:href="#ArialMT-61" transform="translate(1067.285156 0)"/>
      <use xlink:href="#ArialMT-6e" transform="translate(1122.900391 0)"/>
     </g>
    </g>
    <g id="line2d_25">
     <path d="M 865.599219 43.378125 
L 873.599219 43.378125 
L 881.599219 43.378125 
" style="fill: none; stroke: #2ca02c; stroke-width: 2; stroke-linecap: round"/>
    </g>
    <g id="text_23">
     <!-- Model residual 7d mean -->
     <g style="fill: #262626" transform="translate(887.999219 46.178125) scale(0.08 -0.08)">
      <defs>
       <path id="ArialMT-4d" d="M 475 0 
L 475 4581 
L 1388 4581 
L 2472 1338 
Q 2622 884 2691 659 
Q 2769 909 2934 1394 
L 4031 4581 
L 4847 4581 
L 4847 0 
L 4263 0 
L 4263 3834 
L 2931 0 
L 2384 0 
L 1059 3900 
L 1059 0 
L 475 0 
z
" transform="scale(0.015625)"/>
      </defs>
      <use xlink:href="#ArialMT-4d"/>
      <use xlink:href="#ArialMT-6f" transform="translate(83.300781 0)"/>
      <use xlink:href="#ArialMT-64" transform="translate(138.916016 0)"/>
      <use xlink:href="#ArialMT-65" transform="translate(194.53125 0)"/>
      <use xlink:href="#ArialMT-6c" transform="translate(250.146484 0)"/>
      <use xlink:href="#ArialMT-20" transform="translate(272.363281 0)"/>
      <use xlink:href="#ArialMT-72" transform="translate(300.146484 0)"/>
      <use xlink:href="#ArialMT-65" transform="translate(333.447266 0)"/>
      <use xlink:href="#ArialMT-73" transform="translate(389.0625 0)"/>
      <use xlink:href="#ArialMT-69" transform="translate(439.0625 0)"/>
      <use xlink:href="#ArialMT-64" transform="translate(461.279297 0)"/>
      <use xlink:href="#ArialMT-75" transform="translate(516.894531 0)"/>
      <use xlink:href="#ArialMT-61" transform="translate(572.509766 0)"/>
      <use xlink:href="#ArialMT-6c" transform="translate(628.125 0)"/>
      <use xlink:href="#ArialMT-20" transform="translate(650.341797 0)"/>
      <use xlink:href="#ArialMT-37" transform="translate(678.125 0)"/>
      <use xlink:href="#ArialMT-64" transform="translate(733.740234 0)"/>
      <use xlink:href="#ArialMT-20" transform="translate(789.355469 0)"/>
      <use xlink:href="#ArialMT-6d" transform="translate(817.138672 0)"/>
      <use xlink:href="#ArialMT-65" transform="translate(900.439453 0)"/>
      <use xlink:href="#ArialMT-61" transform="translate(956.054688 0)"/>
      <use xlink:href="#ArialMT-6e" transform="translate(1011.669922 0)"/>
     </g>
    </g>
   </g>
  </g>
 </g>
 <defs>
  <clipPath id="p0465dcf568">
   <rect x="68.684219" y="21.935625" width="920.79" height="227.38125"/>
  </clipPath>
 </defs>
</svg>
