<?xml version="1.0" encoding="utf-8" standalone="no"?>
<!DOCTYPE svg PUBLIC "-//W3C//DTD SVG 1.1//EN"
  "http://www.w3.org/Graphics/SVG/1.1/DTD/svg11.dtd">
<svg xmlns:xlink="http://www.w3.org/1999/xlink" width="996.629844pt" height="348.735469pt" viewBox="0 0 996.629844 348.735469" xmlns="http://www.w3.org/2000/svg" version="1.1">
 <metadata>
  <rdf:RDF xmlns:dc="http://purl.org/dc/elements/1.1/" xmlns:cc="http://creativecommons.org/ns#" xmlns:rdf="http://www.w3.org/1999/02/22-rdf-syntax-ns#">
   <cc:Work>
    <dc:type rdf:resource="http://purl.org/dc/dcmitype/StillImage"/>
    <dc:date>2026-03-25T00:46:23.831980</dc:date>
    <dc:format>image/svg+xml</dc:format>
    <dc:creator>
     <cc:Agent>
      <dc:title>Matplotlib v3.9.4, https://matplotlib.org/</dc:title>
     </cc:Agent>
    </dc:creator>
   </cc:Work>
  </rdf:RDF>
 </metadata>
 <defs>
  <style type="text/css">*{stroke-linejoin: round; stroke-linecap: butt}</style>
 </defs>
 <g id="figure_1">
  <g id="patch_1">
   <path d="M 0 348.735469 
L 996.629844 348.735469 
L 996.629844 0 
L 0 0 
z
" style="fill: #ffffff"/>
  </g>
  <g id="axes_1">
   <g id="patch_2">
    <path d="M 65.456094 306.860625 
L 989.429844 306.860625 
L 989.429844 21.935625 
L 65.456094 21.935625 
z
" style="fill: #ffffff"/>
   </g>
   <g id="matplotlib.axis_1">
    <g id="xtick_1">
     <g id="line2d_1">
      <path d="M 107.454901 306.860625 
L 107.454901 21.935625 
" clip-path="url(#pd9ec6266c5)" style="fill: none; stroke: #cccccc; stroke-linecap: round"/>
     </g>
     <g id="text_1">
      <!-- 0 -->
      <g style="fill: #262626" transform="translate(104.396385 324.234219) scale(0.11 -0.11)">
       <defs>
        <path id="ArialMT-30" d="M 266 2259 
Q 266 3072 433 3567 
Q 600 4063 929 4331 
Q 1259 4600 1759 4600 
Q 2128 4600 2406 4451 
Q 2684 4303 2865 4023 
Q 3047 3744 3150 3342 
Q 3253 2941 3253 2259 
Q 3253 1453 3087 958 
Q 2922 463 2592 192 
Q 2263 -78 1759 -78 
Q 1097 -78 719 397 
Q 266 969 266 2259 
z
M 844 2259 
Q 844 1131 1108 757 
Q 1372 384 1759 384 
Q 2147 384 2411 759 
Q 2675 1134 2675 2259 
Q 2675 3391 2411 3762 
Q 2147 4134 1753 4134 
Q 1366 4134 1134 3806 
Q 844 3388 844 2259 
z
" transform="scale(0.015625)"/>
       </defs>
       <use xlink:href="#ArialMT-30"/>
      </g>
     </g>
    </g>
    <g id="xtick_2">
     <g id="line2d_2">
      <path d="M 275.618291 306.860625 
L 275.618291 21.935625 
" clip-path="url(#pd9ec6266c5)" style="fill: none; stroke: #cccccc; stroke-linecap: round"/>
     </g>
     <g id="text_2">
      <!-- 200 -->
      <g style="fill: #262626" transform="translate(266.442744 324.234219) scale(0.11 -0.11)">
       <defs>
        <path id="ArialMT-32" d="M 3222 541 
L 3222 0 
L 194 0 
Q 188 203 259 391 
Q 375 700 629 1000 
Q 884 1300 1366 1694 
Q 2113 2306 2375 2664 
Q 2638 3022 2638 3341 
Q 2638 3675 2398 3904 
Q 2159 4134 1775 4134 
Q 1369 4134 1125 3890 
Q 881 3647 878 3216 
L 300 3275 
Q 359 3922 746 4261 
Q 1134 4600 1788 4600 
Q 2447 4600 2831 4234 
Q 3216 3869 3216 3328 
Q 3216 3053 3103 2787 
Q 2991 2522 2730 2228 
Q 2469 1934 1863 1422 
Q 1356 997 1212 845 
Q 1069 694 975 541 
L 3222 541 
z
" transform="scale(0.015625)"/>
       </defs>
       <use xlink:href="#ArialMT-32"/>
       <use xlink:href="#ArialMT-30" x="55.615234"/>
       <use xlink:href="#ArialMT-30" x="111.230469"/>
      </g>
     </g>
    </g>
    <g id="xtick_3">
     <g id="line2d_3">
      <path d="M 443.781682 306.860625 
L 443.781682 21.935625 
" clip-path="url(#pd9ec6266c5)" style="fill: none; stroke: #cccccc; stroke-linecap: round"/>
     </g>
     <g id="text_3">
      <!-- 400 -->
      <g style="fill: #262626" transform="translate(434.606135 324.234219) scale(0.11 -0.11)">
       <defs>
        <path id="ArialMT-34" d="M 2069 0 
L 2069 1097 
L 81 1097 
L 81 1613 
L 2172 4581 
L 2631 4581 
L 2631 1613 
L 3250 1613 
L 3250 1097 
L 2631 1097 
L 2631 0 
L 2069 0 
z
M 2069 1613 
L 2069 3678 
L 634 1613 
L 2069 1613 
z
" transform="scale(0.015625)"/>
       </defs>
       <use xlink:href="#ArialMT-34"/>
       <use xlink:href="#ArialMT-30" x="55.615234"/>
       <use xlink:href="#ArialMT-30" x="111.230469"/>
      </g>
     </g>
    </g>
    <g id="xtick_4">
     <g id="line2d_4">
      <path d="M 611.945073 306.860625 
L 611.945073 21.935625 
" clip-path="url(#pd9ec6266c5)" style="fill: none; stroke: #cccccc; stroke-linecap: round"/>
     </g>
     <g id="text_4">
      <!-- 600 -->
      <g style="fill: #262626" transform="translate(602.769526 324.234219) scale(0.11 -0.11)">
       <defs>
        <path id="ArialMT-36" d="M 3184 3459 
L 2625 3416 
Q 2550 3747 2413 3897 
Q 2184 4138 1850 4138 
Q 1581 4138 1378 3988 
Q 1113 3794 959 3422 
Q 806 3050 800 2363 
Q 1003 2672 1297 2822 
Q 1591 2972 1913 2972 
Q 2475 2972 2870 2558 
Q 3266 2144 3266 1488 
Q 3266 1056 3080 686 
Q 2894 316 2569 119 
Q 2244 -78 1831 -78 
Q 1128 -78 684 439 
Q 241 956 241 2144 
Q 241 3472 731 4075 
Q 1159 4600 1884 4600 
Q 2425 4600 2770 4297 
Q 3116 3994 3184 3459 
z
M 888 1484 
Q 888 1194 1011 928 
Q 1134 663 1356 523 
Q 1578 384 1822 384 
Q 2178 384 2434 671 
Q 2691 959 2691 1453 
Q 2691 1928 2437 2201 
Q 2184 2475 1800 2475 
Q 1419 2475 1153 2201 
Q 888 1928 888 1484 
z
" transform="scale(0.015625)"/>
       </defs>
       <use xlink:href="#ArialMT-36"/>
       <use xlink:href="#ArialMT-30" x="55.615234"/>
       <use xlink:href="#ArialMT-30" x="111.230469"/>
      </g>
     </g>
    </g>
    <g id="xtick_5">
     <g id="line2d_5">
      <path d="M 780.108463 306.860625 
L 780.108463 21.935625 
" clip-path="url(#pd9ec6266c5)" style="fill: none; stroke: #cccccc; stroke-linecap: round"/>
     </g>
     <g id="text_5">
      <!-- 800 -->
      <g style="fill: #262626" transform="translate(770.932916 324.234219) scale(0.11 -0.11)">
       <defs>
        <path id="ArialMT-38" d="M 1131 2484 
Q 781 2613 612 2850 
Q 444 3088 444 3419 
Q 444 3919 803 4259 
Q 1163 4600 1759 4600 
Q 2359 4600 2725 4251 
Q 3091 3903 3091 3403 
Q 3091 3084 2923 2848 
Q 2756 2613 2416 2484 
Q 2838 2347 3058 2040 
Q 3278 1734 3278 1309 
Q 3278 722 2862 322 
Q 2447 -78 1769 -78 
Q 1091 -78 675 323 
Q 259 725 259 1325 
Q 259 1772 486 2073 
Q 713 2375 1131 2484 
z
M 1019 3438 
Q 1019 3113 1228 2906 
Q 1438 2700 1772 2700 
Q 2097 2700 2305 2904 
Q 2513 3109 2513 3406 
Q 2513 3716 2298 3927 
Q 2084 4138 1766 4138 
Q 1444 4138 1231 3931 
Q 1019 3725 1019 3438 
z
M 838 1322 
Q 838 1081 952 856 
Q 1066 631 1291 507 
Q 1516 384 1775 384 
Q 2178 384 2440 643 
Q 2703 903 2703 1303 
Q 2703 1709 2433 1975 
Q 2163 2241 1756 2241 
Q 1359 2241 1098 1978 
Q 838 1716 838 1322 
z
" transform="scale(0.015625)"/>
       </defs>
       <use xlink:href="#ArialMT-38"/>
       <use xlink:href="#ArialMT-30" x="55.615234"/>
       <use xlink:href="#ArialMT-30" x="111.230469"/>
      </g>
     </g>
    </g>
    <g id="xtick_6">
     <g id="line2d_6">
      <path d="M 948.271854 306.860625 
L 948.271854 21.935625 
" clip-path="url(#pd9ec6266c5)" style="fill: none; stroke: #cccccc; stroke-linecap: round"/>
     </g>
     <g id="text_6">
      <!-- 1000 -->
      <g style="fill: #262626" transform="translate(936.037791 324.234219) scale(0.11 -0.11)">
       <defs>
        <path id="ArialMT-31" d="M 2384 0 
L 1822 0 
L 1822 3584 
Q 1619 3391 1289 3197 
Q 959 3003 697 2906 
L 697 3450 
Q 1169 3672 1522 3987 
Q 1875 4303 2022 4600 
L 2384 4600 
L 2384 0 
z
" transform="scale(0.015625)"/>
       </defs>
       <use xlink:href="#ArialMT-31"/>
       <use xlink:href="#ArialMT-30" x="55.615234"/>
       <use xlink:href="#ArialMT-30" x="111.230469"/>
       <use xlink:href="#ArialMT-30" x="166.845703"/>
      </g>
     </g>
    </g>
    <g id="text_7">
     <!-- Days since last sale -->
     <g style="fill: #262626" transform="translate(474.423594 339.009844) scale(0.12 -0.12)">
      <defs>
       <path id="ArialMT-44" d="M 494 0 
L 494 4581 
L 2072 4581 
Q 2606 4581 2888 4516 
Q 3281 4425 3559 4188 
Q 3922 3881 4101 3404 
Q 4281 2928 4281 2316 
Q 4281 1794 4159 1391 
Q 4038 988 3847 723 
Q 3656 459 3429 307 
Q 3203 156 2883 78 
Q 2563 0 2147 0 
L 494 0 
z
M 1100 541 
L 2078 541 
Q 2531 541 2789 625 
Q 3047 709 3200 863 
Q 3416 1078 3536 1442 
Q 3656 1806 3656 2325 
Q 3656 3044 3420 3430 
Q 3184 3816 2847 3947 
Q 2603 4041 2063 4041 
L 1100 4041 
L 1100 541 
z
" transform="scale(0.015625)"/>
       <path id="ArialMT-61" d="M 2588 409 
Q 2275 144 1986 34 
Q 1697 -75 1366 -75 
Q 819 -75 525 192 
Q 231 459 231 875 
Q 231 1119 342 1320 
Q 453 1522 633 1644 
Q 813 1766 1038 1828 
Q 1203 1872 1538 1913 
Q 2219 1994 2541 2106 
Q 2544 2222 2544 2253 
Q 2544 2597 2384 2738 
Q 2169 2928 1744 2928 
Q 1347 2928 1158 2789 
Q 969 2650 878 2297 
L 328 2372 
Q 403 2725 575 2942 
Q 747 3159 1072 3276 
Q 1397 3394 1825 3394 
Q 2250 3394 2515 3294 
Q 2781 3194 2906 3042 
Q 3031 2891 3081 2659 
Q 3109 2516 3109 2141 
L 3109 1391 
Q 3109 606 3145 398 
Q 3181 191 3288 0 
L 2700 0 
Q 2613 175 2588 409 
z
M 2541 1666 
Q 2234 1541 1622 1453 
Q 1275 1403 1131 1340 
Q 988 1278 909 1158 
Q 831 1038 831 891 
Q 831 666 1001 516 
Q 1172 366 1500 366 
Q 1825 366 2078 508 
Q 2331 650 2450 897 
Q 2541 1088 2541 1459 
L 2541 1666 
z
" transform="scale(0.015625)"/>
       <path id="ArialMT-79" d="M 397 -1278 
L 334 -750 
Q 519 -800 656 -800 
Q 844 -800 956 -737 
Q 1069 -675 1141 -563 
Q 1194 -478 1313 -144 
Q 1328 -97 1363 -6 
L 103 3319 
L 709 3319 
L 1400 1397 
Q 1534 1031 1641 628 
Q 1738 1016 1872 1384 
L 2581 3319 
L 3144 3319 
L 1881 -56 
Q 1678 -603 1566 -809 
Q 1416 -1088 1222 -1217 
Q 1028 -1347 759 -1347 
Q 597 -1347 397 -1278 
z
" transform="scale(0.015625)"/>
       <path id="ArialMT-73" d="M 197 991 
L 753 1078 
Q 800 744 1014 566 
Q 1228 388 1613 388 
Q 2000 388 2187 545 
Q 2375 703 2375 916 
Q 2375 1106 2209 1216 
Q 2094 1291 1634 1406 
Q 1016 1563 777 1677 
Q 538 1791 414 1992 
Q 291 2194 291 2438 
Q 291 2659 392 2848 
Q 494 3038 669 3163 
Q 800 3259 1026 3326 
Q 1253 3394 1513 3394 
Q 1903 3394 2198 3281 
Q 2494 3169 2634 2976 
Q 2775 2784 2828 2463 
L 2278 2388 
Q 2241 2644 2061 2787 
Q 1881 2931 1553 2931 
Q 1166 2931 1000 2803 
Q 834 2675 834 2503 
Q 834 2394 903 2306 
Q 972 2216 1119 2156 
Q 1203 2125 1616 2013 
Q 2213 1853 2448 1751 
Q 2684 1650 2818 1456 
Q 2953 1263 2953 975 
Q 2953 694 2789 445 
Q 2625 197 2315 61 
Q 2006 -75 1616 -75 
Q 969 -75 630 194 
Q 291 463 197 991 
z
" transform="scale(0.015625)"/>
       <path id="ArialMT-20" transform="scale(0.015625)"/>
       <path id="ArialMT-69" d="M 425 3934 
L 425 4581 
L 988 4581 
L 988 3934 
L 425 3934 
z
M 425 0 
L 425 3319 
L 988 3319 
L 988 0 
L 425 0 
z
" transform="scale(0.015625)"/>
       <path id="ArialMT-6e" d="M 422 0 
L 422 3319 
L 928 3319 
L 928 2847 
Q 1294 3394 1984 3394 
Q 2284 3394 2536 3286 
Q 2788 3178 2913 3003 
Q 3038 2828 3088 2588 
Q 3119 2431 3119 2041 
L 3119 0 
L 2556 0 
L 2556 2019 
Q 2556 2363 2490 2533 
Q 2425 2703 2258 2804 
Q 2091 2906 1866 2906 
Q 1506 2906 1245 2678 
Q 984 2450 984 1813 
L 984 0 
L 422 0 
z
" transform="scale(0.015625)"/>
       <path id="ArialMT-63" d="M 2588 1216 
L 3141 1144 
Q 3050 572 2676 248 
Q 2303 -75 1759 -75 
Q 1078 -75 664 370 
Q 250 816 250 1647 
Q 250 2184 428 2587 
Q 606 2991 970 3192 
Q 1334 3394 1763 3394 
Q 2303 3394 2647 3120 
Q 2991 2847 3088 2344 
L 2541 2259 
Q 2463 2594 2264 2762 
Q 2066 2931 1784 2931 
Q 1359 2931 1093 2626 
Q 828 2322 828 1663 
Q 828 994 1084 691 
Q 1341 388 1753 388 
Q 2084 388 2306 591 
Q 2528 794 2588 1216 
z
" transform="scale(0.015625)"/>
       <path id="ArialMT-65" d="M 2694 1069 
L 3275 997 
Q 3138 488 2766 206 
Q 2394 -75 1816 -75 
Q 1088 -75 661 373 
Q 234 822 234 1631 
Q 234 2469 665 2931 
Q 1097 3394 1784 3394 
Q 2450 3394 2872 2941 
Q 3294 2488 3294 1666 
Q 3294 1616 3291 1516 
L 816 1516 
Q 847 969 1125 678 
Q 1403 388 1819 388 
Q 2128 388 2347 550 
Q 2566 713 2694 1069 
z
M 847 1978 
L 2700 1978 
Q 2663 2397 2488 2606 
Q 2219 2931 1791 2931 
Q 1403 2931 1139 2672 
Q 875 2413 847 1978 
z
" transform="scale(0.015625)"/>
       <path id="ArialMT-6c" d="M 409 0 
L 409 4581 
L 972 4581 
L 972 0 
L 409 0 
z
" transform="scale(0.015625)"/>
       <path id="ArialMT-74" d="M 1650 503 
L 1731 6 
Q 1494 -44 1306 -44 
Q 1000 -44 831 53 
Q 663 150 594 308 
Q 525 466 525 972 
L 525 2881 
L 113 2881 
L 113 3319 
L 525 3319 
L 525 4141 
L 1084 4478 
L 1084 3319 
L 1650 3319 
L 1650 2881 
L 1084 2881 
L 1084 941 
Q 1084 700 1114 631 
Q 1144 563 1211 522 
Q 1278 481 1403 481 
Q 1497 481 1650 503 
z
" transform="scale(0.015625)"/>
      </defs>
      <use xlink:href="#ArialMT-44"/>
      <use xlink:href="#ArialMT-61" x="72.216797"/>
      <use xlink:href="#ArialMT-79" x="127.832031"/>
      <use xlink:href="#ArialMT-73" x="177.832031"/>
      <use xlink:href="#ArialMT-20" x="227.832031"/>
      <use xlink:href="#ArialMT-73" x="255.615234"/>
      <use xlink:href="#ArialMT-69" x="305.615234"/>
      <use xlink:href="#ArialMT-6e" x="327.832031"/>
      <use xlink:href="#ArialMT-63" x="383.447266"/>
      <use xlink:href="#ArialMT-65" x="433.447266"/>
      <use xlink:href="#ArialMT-20" x="489.0625"/>
      <use xlink:href="#ArialMT-6c" x="516.845703"/>
      <use xlink:href="#ArialMT-61" x="539.0625"/>
      <use xlink:href="#ArialMT-73" x="594.677734"/>
      <use xlink:href="#ArialMT-74" x="644.677734"/>
      <use xlink:href="#ArialMT-20" x="672.460938"/>
      <use xlink:href="#ArialMT-73" x="700.244141"/>
      <use xlink:href="#ArialMT-61" x="750.244141"/>
      <use xlink:href="#ArialMT-6c" x="805.859375"/>
      <use xlink:href="#ArialMT-65" x="828.076172"/>
     </g>
    </g>
   </g>
   <g id="matplotlib.axis_2">
    <g id="ytick_1">
     <g id="line2d_7">
      <path d="M 65.456094 306.860625 
L 989.429844 306.860625 
" clip-path="url(#pd9ec6266c5)" style="fill: none; stroke: #cccccc; stroke-linecap: round"/>
     </g>
     <g id="text_8">
      <!-- 0.0000 -->
      <g style="fill: #262626" transform="translate(22.315 310.797422) scale(0.11 -0.11)">
       <defs>
        <path id="ArialMT-2e" d="M 581 0 
L 581 641 
L 1222 641 
L 1222 0 
L 581 0 
z
" transform="scale(0.015625)"/>
       </defs>
       <use xlink:href="#ArialMT-30"/>
       <use xlink:href="#ArialMT-2e" x="55.615234"/>
       <use xlink:href="#ArialMT-30" x="83.398438"/>
       <use xlink:href="#ArialMT-30" x="139.013672"/>
       <use xlink:href="#ArialMT-30" x="194.628906"/>
       <use xlink:href="#ArialMT-30" x="250.244141"/>
      </g>
     </g>
    </g>
    <g id="ytick_2">
     <g id="line2d_8">
      <path d="M 65.456094 272.470047 
L 989.429844 272.470047 
" clip-path="url(#pd9ec6266c5)" style="fill: none; stroke: #cccccc; stroke-linecap: round"/>
     </g>
     <g id="text_9">
      <!-- 0.0025 -->
      <g style="fill: #262626" transform="translate(22.315 276.406844) scale(0.11 -0.11)">
       <defs>
        <path id="ArialMT-35" d="M 266 1200 
L 856 1250 
Q 922 819 1161 601 
Q 1400 384 1738 384 
Q 2144 384 2425 690 
Q 2706 997 2706 1503 
Q 2706 1984 2436 2262 
Q 2166 2541 1728 2541 
Q 1456 2541 1237 2417 
Q 1019 2294 894 2097 
L 366 2166 
L 809 4519 
L 3088 4519 
L 3088 3981 
L 1259 3981 
L 1013 2750 
Q 1425 3038 1878 3038 
Q 2478 3038 2890 2622 
Q 3303 2206 3303 1553 
Q 3303 931 2941 478 
Q 2500 -78 1738 -78 
Q 1113 -78 717 272 
Q 322 622 266 1200 
z
" transform="scale(0.015625)"/>
       </defs>
       <use xlink:href="#ArialMT-30"/>
       <use xlink:href="#ArialMT-2e" x="55.615234"/>
       <use xlink:href="#ArialMT-30" x="83.398438"/>
       <use xlink:href="#ArialMT-30" x="139.013672"/>
       <use xlink:href="#ArialMT-32" x="194.628906"/>
       <use xlink:href="#ArialMT-35" x="250.244141"/>
      </g>
     </g>
    </g>
    <g id="ytick_3">
     <g id="line2d_9">
      <path d="M 65.456094 238.079469 
L 989.429844 238.079469 
" clip-path="url(#pd9ec6266c5)" style="fill: none; stroke: #cccccc; stroke-linecap: round"/>
     </g>
     <g id="text_10">
      <!-- 0.0050 -->
      <g style="fill: #262626" transform="translate(22.315 242.016266) scale(0.11 -0.11)">
       <use xlink:href="#ArialMT-30"/>
       <use xlink:href="#ArialMT-2e" x="55.615234"/>
       <use xlink:href="#ArialMT-30" x="83.398438"/>
       <use xlink:href="#ArialMT-30" x="139.013672"/>
       <use xlink:href="#ArialMT-35" x="194.628906"/>
       <use xlink:href="#ArialMT-30" x="250.244141"/>
      </g>
     </g>
    </g>
    <g id="ytick_4">
     <g id="line2d_10">
      <path d="M 65.456094 203.688891 
L 989.429844 203.688891 
" clip-path="url(#pd9ec6266c5)" style="fill: none; stroke: #cccccc; stroke-linecap: round"/>
     </g>
     <g id="text_11">
      <!-- 0.0075 -->
      <g style="fill: #262626" transform="translate(22.315 207.625688) scale(0.11 -0.11)">
       <defs>
        <path id="ArialMT-37" d="M 303 3981 
L 303 4522 
L 3269 4522 
L 3269 4084 
Q 2831 3619 2401 2847 
Q 1972 2075 1738 1259 
Q 1569 684 1522 0 
L 944 0 
Q 953 541 1156 1306 
Q 1359 2072 1739 2783 
Q 2119 3494 2547 3981 
L 303 3981 
z
" transform="scale(0.015625)"/>
       </defs>
       <use xlink:href="#ArialMT-30"/>
       <use xlink:href="#ArialMT-2e" x="55.615234"/>
       <use xlink:href="#ArialMT-30" x="83.398438"/>
       <use xlink:href="#ArialMT-30" x="139.013672"/>
       <use xlink:href="#ArialMT-37" x="194.628906"/>
       <use xlink:href="#ArialMT-35" x="250.244141"/>
      </g>
     </g>
    </g>
    <g id="ytick_5">
     <g id="line2d_11">
      <path d="M 65.456094 169.298313 
L 989.429844 169.298313 
" clip-path="url(#pd9ec6266c5)" style="fill: none; stroke: #cccccc; stroke-linecap: round"/>
     </g>
     <g id="text_12">
      <!-- 0.0100 -->
      <g style="fill: #262626" transform="translate(22.315 173.23511) scale(0.11 -0.11)">
       <use xlink:href="#ArialMT-30"/>
       <use xlink:href="#ArialMT-2e" x="55.615234"/>
       <use xlink:href="#ArialMT-30" x="83.398438"/>
       <use xlink:href="#ArialMT-31" x="139.013672"/>
       <use xlink:href="#ArialMT-30" x="194.628906"/>
       <use xlink:href="#ArialMT-30" x="250.244141"/>
      </g>
     </g>
    </g>
    <g id="ytick_6">
     <g id="line2d_12">
      <path d="M 65.456094 134.907735 
L 989.429844 134.907735 
" clip-path="url(#pd9ec6266c5)" style="fill: none; stroke: #cccccc; stroke-linecap: round"/>
     </g>
     <g id="text_13">
      <!-- 0.0125 -->
      <g style="fill: #262626" transform="translate(22.315 138.844532) scale(0.11 -0.11)">
       <use xlink:href="#ArialMT-30"/>
       <use xlink:href="#ArialMT-2e" x="55.615234"/>
       <use xlink:href="#ArialMT-30" x="83.398438"/>
       <use xlink:href="#ArialMT-31" x="139.013672"/>
       <use xlink:href="#ArialMT-32" x="194.628906"/>
       <use xlink:href="#ArialMT-35" x="250.244141"/>
      </g>
     </g>
    </g>
    <g id="ytick_7">
     <g id="line2d_13">
      <path d="M 65.456094 100.517157 
L 989.429844 100.517157 
" clip-path="url(#pd9ec6266c5)" style="fill: none; stroke: #cccccc; stroke-linecap: round"/>
     </g>
     <g id="text_14">
      <!-- 0.0150 -->
      <g style="fill: #262626" transform="translate(22.315 104.453954) scale(0.11 -0.11)">
       <use xlink:href="#ArialMT-30"/>
       <use xlink:href="#ArialMT-2e" x="55.615234"/>
       <use xlink:href="#ArialMT-30" x="83.398438"/>
       <use xlink:href="#ArialMT-31" x="139.013672"/>
       <use xlink:href="#ArialMT-35" x="194.628906"/>
       <use xlink:href="#ArialMT-30" x="250.244141"/>
      </g>
     </g>
    </g>
    <g id="ytick_8">
     <g id="line2d_14">
      <path d="M 65.456094 66.126579 
L 989.429844 66.126579 
" clip-path="url(#pd9ec6266c5)" style="fill: none; stroke: #cccccc; stroke-linecap: round"/>
     </g>
     <g id="text_15">
      <!-- 0.0175 -->
      <g style="fill: #262626" transform="translate(22.315 70.063376) scale(0.11 -0.11)">
       <use xlink:href="#ArialMT-30"/>
       <use xlink:href="#ArialMT-2e" x="55.615234"/>
       <use xlink:href="#ArialMT-30" x="83.398438"/>
       <use xlink:href="#ArialMT-31" x="139.013672"/>
       <use xlink:href="#ArialMT-37" x="194.628906"/>
       <use xlink:href="#ArialMT-35" x="250.244141"/>
      </g>
     </g>
    </g>
    <g id="ytick_9">
     <g id="line2d_15">
      <path d="M 65.456094 31.736001 
L 989.429844 31.736001 
" clip-path="url(#pd9ec6266c5)" style="fill: none; stroke: #cccccc; stroke-linecap: round"/>
     </g>
     <g id="text_16">
      <!-- 0.0200 -->
      <g style="fill: #262626" transform="translate(22.315 35.672798) scale(0.11 -0.11)">
       <use xlink:href="#ArialMT-30"/>
       <use xlink:href="#ArialMT-2e" x="55.615234"/>
       <use xlink:href="#ArialMT-30" x="83.398438"/>
       <use xlink:href="#ArialMT-32" x="139.013672"/>
       <use xlink:href="#ArialMT-30" x="194.628906"/>
       <use xlink:href="#ArialMT-30" x="250.244141"/>
      </g>
     </g>
    </g>
    <g id="text_17">
     <!-- Density -->
     <g style="fill: #262626" transform="translate(15.789375 184.404375) rotate(-90) scale(0.12 -0.12)">
      <use xlink:href="#ArialMT-44"/>
      <use xlink:href="#ArialMT-65" x="72.216797"/>
      <use xlink:href="#ArialMT-6e" x="127.832031"/>
      <use xlink:href="#ArialMT-73" x="183.447266"/>
      <use xlink:href="#ArialMT-69" x="233.447266"/>
      <use xlink:href="#ArialMT-74" x="255.664062"/>
      <use xlink:href="#ArialMT-79" x="283.447266"/>
     </g>
    </g>
   </g>
   <g id="PolyCollection_1">
    <defs>
     <path id="m374a2d771b" d="M 108.295718 -313.231987 
L 108.295718 -41.874844 
L 112.512478 -41.874844 
L 116.729238 -41.874844 
L 120.945999 -41.874844 
L 125.162759 -41.874844 
L 129.37952 -41.874844 
L 133.59628 -41.874844 
L 137.81304 -41.874844 
L 142.029801 -41.874844 
L 146.246561 -41.874844 
L 150.463322 -41.874844 
L 154.680082 -41.874844 
L 158.896842 -41.874844 
L 163.113603 -41.874844 
L 167.330363 -41.874844 
L 171.547124 -41.874844 
L 175.763884 -41.874844 
L 179.980644 -41.874844 
L 184.197405 -41.874844 
L 188.414165 -41.874844 
L 192.630926 -41.874844 
L 196.847686 -41.874844 
L 201.064446 -41.874844 
L 205.281207 -41.874844 
L 209.497967 -41.874844 
L 213.714727 -41.874844 
L 217.931488 -41.874844 
L 222.148248 -41.874844 
L 226.365009 -41.874844 
L 230.581769 -41.874844 
L 234.798529 -41.874844 
L 239.01529 -41.874844 
L 243.23205 -41.874844 
L 247.448811 -41.874844 
L 251.665571 -41.874844 
L 255.882331 -41.874844 
L 260.099092 -41.874844 
L 264.315852 -41.874844 
L 268.532613 -41.874844 
L 272.749373 -41.874844 
L 276.966133 -41.874844 
L 281.182894 -41.874844 
L 285.399654 -41.874844 
L 289.616415 -41.874844 
L 293.833175 -41.874844 
L 298.049935 -41.874844 
L 302.266696 -41.874844 
L 306.483456 -41.874844 
L 310.700217 -41.874844 
L 314.916977 -41.874844 
L 319.133737 -41.874844 
L 323.350498 -41.874844 
L 327.567258 -41.874844 
L 331.784019 -41.874844 
L 336.000779 -41.874844 
L 340.217539 -41.874844 
L 344.4343 -41.874844 
L 348.65106 -41.874844 
L 352.867821 -41.874844 
L 357.084581 -41.874844 
L 361.301341 -41.874844 
L 365.518102 -41.874844 
L 369.734862 -41.874844 
L 373.951623 -41.874844 
L 378.168383 -41.874844 
L 382.385143 -41.874844 
L 386.601904 -41.874844 
L 390.818664 -41.874844 
L 395.035425 -41.874844 
L 399.252185 -41.874844 
L 403.468945 -41.874844 
L 407.685706 -41.874844 
L 411.902466 -41.874844 
L 416.119227 -41.874844 
L 420.335987 -41.874844 
L 424.552747 -41.874844 
L 428.769508 -41.874844 
L 432.986268 -41.874844 
L 437.203029 -41.874844 
L 441.419789 -41.874844 
L 445.636549 -41.874844 
L 449.85331 -41.874844 
L 454.07007 -41.874844 
L 458.286831 -41.874844 
L 462.503591 -41.874844 
L 466.720351 -41.874844 
L 470.937112 -41.874844 
L 475.153872 -41.874844 
L 479.370633 -41.874844 
L 483.587393 -41.874844 
L 487.804153 -41.874844 
L 492.020914 -41.874844 
L 496.237674 -41.874844 
L 500.454435 -41.874844 
L 504.671195 -41.874844 
L 508.887955 -41.874844 
L 513.104716 -41.874844 
L 517.321476 -41.874844 
L 521.538237 -41.874844 
L 525.754997 -41.874844 
L 529.971757 -41.874844 
L 534.188518 -41.874844 
L 538.405278 -41.874844 
L 542.622039 -41.874844 
L 546.838799 -41.874844 
L 551.055559 -41.874844 
L 555.27232 -41.874844 
L 559.48908 -41.874844 
L 563.705841 -41.874844 
L 567.922601 -41.874844 
L 572.139361 -41.874844 
L 576.356122 -41.874844 
L 580.572882 -41.874844 
L 584.789643 -41.874844 
L 589.006403 -41.874844 
L 593.223163 -41.874844 
L 597.439924 -41.874844 
L 601.656684 -41.874844 
L 605.873445 -41.874844 
L 610.090205 -41.874844 
L 614.306965 -41.874844 
L 618.523726 -41.874844 
L 622.740486 -41.874844 
L 626.957247 -41.874844 
L 631.174007 -41.874844 
L 635.390767 -41.874844 
L 639.607528 -41.874844 
L 643.824288 -41.874844 
L 648.041049 -41.874844 
L 652.257809 -41.874844 
L 656.474569 -41.874844 
L 660.69133 -41.874844 
L 664.90809 -41.874844 
L 669.124851 -41.874844 
L 673.341611 -41.874844 
L 677.558371 -41.874844 
L 681.775132 -41.874844 
L 685.991892 -41.874844 
L 690.208653 -41.874844 
L 694.425413 -41.874844 
L 698.642173 -41.874844 
L 702.858934 -41.874844 
L 707.075694 -41.874844 
L 711.292455 -41.874844 
L 715.509215 -41.874844 
L 719.725975 -41.874844 
L 723.942736 -41.874844 
L 728.159496 -41.874844 
L 732.376257 -41.874844 
L 736.593017 -41.874844 
L 740.809777 -41.874844 
L 745.026538 -41.874844 
L 749.243298 -41.874844 
L 753.460059 -41.874844 
L 757.676819 -41.874844 
L 761.893579 -41.874844 
L 766.11034 -41.874844 
L 770.3271 -41.874844 
L 774.543861 -41.874844 
L 778.760621 -41.874844 
L 782.977381 -41.874844 
L 787.194142 -41.874844 
L 791.410902 -41.874844 
L 795.627663 -41.874844 
L 799.844423 -41.874844 
L 804.061183 -41.874844 
L 808.277944 -41.874844 
L 812.494704 -41.874844 
L 816.711465 -41.874844 
L 820.928225 -41.874844 
L 825.144985 -41.874844 
L 829.361746 -41.874844 
L 833.578506 -41.874844 
L 837.795267 -41.874844 
L 842.012027 -41.874844 
L 846.228787 -41.874844 
L 850.445548 -41.874844 
L 854.662308 -41.874844 
L 858.879069 -41.874844 
L 863.095829 -41.874844 
L 867.312589 -41.874844 
L 871.52935 -41.874844 
L 875.74611 -41.874844 
L 879.962871 -41.874844 
L 884.179631 -41.874844 
L 888.396391 -41.874844 
L 892.613152 -41.874844 
L 896.829912 -41.874844 
L 901.046673 -41.874844 
L 905.263433 -41.874844 
L 909.480193 -41.874844 
L 913.696954 -41.874844 
L 917.913714 -41.874844 
L 922.130475 -41.874844 
L 926.347235 -41.874844 
L 930.563995 -41.874844 
L 934.780756 -41.874844 
L 938.997516 -41.874844 
L 943.214277 -41.874844 
L 947.431037 -41.874844 
L 947.431037 -55.418513 
L 947.431037 -55.418513 
L 943.214277 -54.934236 
L 938.997516 -53.582848 
L 934.780756 -51.634086 
L 930.563995 -49.43834 
L 926.347235 -47.324917 
L 922.130475 -45.52621 
L 917.913714 -44.149322 
L 913.696954 -43.192134 
L 909.480193 -42.584183 
L 905.263433 -42.229984 
L 901.046673 -42.040162 
L 896.829912 -41.946394 
L 892.613152 -41.903636 
L 888.396391 -41.885616 
L 884.179631 -41.878591 
L 879.962871 -41.876056 
L 875.74611 -41.875208 
L 871.52935 -41.874946 
L 867.312589 -41.87487 
L 863.095829 -41.87485 
L 858.879069 -41.874845 
L 854.662308 -41.874844 
L 850.445548 -41.874844 
L 846.228787 -41.874844 
L 842.012027 -41.874844 
L 837.795267 -41.874844 
L 833.578506 -41.874844 
L 829.361746 -41.874844 
L 825.144985 -41.874844 
L 820.928225 -41.874844 
L 816.711465 -41.874844 
L 812.494704 -41.874844 
L 808.277944 -41.874844 
L 804.061183 -41.874844 
L 799.844423 -41.874844 
L 795.627663 -41.874844 
L 791.410902 -41.874844 
L 787.194142 -41.874844 
L 782.977381 -41.874844 
L 778.760621 -41.874844 
L 774.543861 -41.874844 
L 770.3271 -41.874844 
L 766.11034 -41.874844 
L 761.893579 -41.874844 
L 757.676819 -41.874844 
L 753.460059 -41.874844 
L 749.243298 -41.874844 
L 745.026538 -41.874844 
L 740.809777 -41.874844 
L 736.593017 -41.874844 
L 732.376257 -41.874844 
L 728.159496 -41.874844 
L 723.942736 -41.874844 
L 719.725975 -41.874844 
L 715.509215 -41.874844 
L 711.292455 -41.874844 
L 707.075694 -41.874844 
L 702.858934 -41.874844 
L 698.642173 -41.874844 
L 694.425413 -41.874844 
L 690.208653 -41.874844 
L 685.991892 -41.874844 
L 681.775132 -41.874844 
L 677.558371 -41.874844 
L 673.341611 -41.874844 
L 669.124851 -41.874844 
L 664.90809 -41.874844 
L 660.69133 -41.874844 
L 656.474569 -41.874844 
L 652.257809 -41.874844 
L 648.041049 -41.874844 
L 643.824288 -41.874844 
L 639.607528 -41.874844 
L 635.390767 -41.874844 
L 631.174007 -41.874844 
L 626.957247 -41.874844 
L 622.740486 -41.874844 
L 618.523726 -41.874844 
L 614.306965 -41.874844 
L 610.090205 -41.874844 
L 605.873445 -41.874844 
L 601.656684 -41.874844 
L 597.439924 -41.874844 
L 593.223163 -41.874844 
L 589.006403 -41.874844 
L 584.789643 -41.874844 
L 580.572882 -41.874844 
L 576.356122 -41.874844 
L 572.139361 -41.874844 
L 567.922601 -41.874844 
L 563.705841 -41.874844 
L 559.48908 -41.874844 
L 555.27232 -41.874844 
L 551.055559 -41.874844 
L 546.838799 -41.874844 
L 542.622039 -41.874844 
L 538.405278 -41.874844 
L 534.188518 -41.874844 
L 529.971757 -41.874844 
L 525.754997 -41.874844 
L 521.538237 -41.874844 
L 517.321476 -41.874844 
L 513.104716 -41.874844 
L 508.887955 -41.874844 
L 504.671195 -41.874844 
L 500.454435 -41.874844 
L 496.237674 -41.874844 
L 492.020914 -41.874844 
L 487.804153 -41.874844 
L 483.587393 -41.874844 
L 479.370633 -41.874844 
L 475.153872 -41.874844 
L 470.937112 -41.874844 
L 466.720351 -41.874844 
L 462.503591 -41.874844 
L 458.286831 -41.874844 
L 454.07007 -41.874844 
L 449.85331 -41.874844 
L 445.636549 -41.874844 
L 441.419789 -41.874844 
L 437.203029 -41.874844 
L 432.986268 -41.874844 
L 428.769508 -41.874844 
L 424.552747 -41.874844 
L 420.335987 -41.874844 
L 416.119227 -41.874844 
L 411.902466 -41.874844 
L 407.685706 -41.874844 
L 403.468945 -41.874844 
L 399.252185 -41.874844 
L 395.035425 -41.874844 
L 390.818664 -41.874844 
L 386.601904 -41.874844 
L 382.385143 -41.874844 
L 378.168383 -41.874844 
L 373.951623 -41.874844 
L 369.734862 -41.874844 
L 365.518102 -41.874846 
L 361.301341 -41.874851 
L 357.084581 -41.874864 
L 352.867821 -41.8749 
L 348.65106 -41.874988 
L 344.4343 -41.875195 
L 340.217539 -41.875642 
L 336.000779 -41.87655 
L 331.784019 -41.878275 
L 327.567258 -41.881339 
L 323.350498 -41.88644 
L 319.133737 -41.894403 
L 314.916977 -41.906067 
L 310.700217 -41.922117 
L 306.483456 -41.942882 
L 302.266696 -41.968167 
L 298.049935 -41.997181 
L 293.833175 -42.028584 
L 289.616415 -42.060683 
L 285.399654 -42.091701 
L 281.182894 -42.12007 
L 276.966133 -42.144672 
L 272.749373 -42.16497 
L 268.532613 -42.181044 
L 264.315852 -42.193532 
L 260.099092 -42.203538 
L 255.882331 -42.212525 
L 251.665571 -42.222215 
L 247.448811 -42.234484 
L 243.23205 -42.251223 
L 239.01529 -42.274148 
L 234.798529 -42.304587 
L 230.581769 -42.343281 
L 226.365009 -42.39029 
L 222.148248 -42.445061 
L 217.931488 -42.506663 
L 213.714727 -42.574159 
L 209.497967 -42.646977 
L 205.281207 -42.725192 
L 201.064446 -42.809618 
L 196.847686 -42.901769 
L 192.630926 -43.003788 
L 188.414165 -43.118659 
L 184.197405 -43.251171 
L 179.980644 -43.410607 
L 175.763884 -43.617037 
L 171.547124 -43.914893 
L 167.330363 -44.400003 
L 163.113603 -45.268425 
L 158.896842 -46.894173 
L 154.680082 -49.932788 
L 150.463322 -55.423483 
L 146.246561 -64.825147 
L 142.029801 -79.886914 
L 137.81304 -102.256133 
L 133.59628 -132.803697 
L 129.37952 -170.807203 
L 125.162759 -213.318439 
L 120.945999 -255.129796 
L 116.729238 -289.621576 
L 112.512478 -310.404858 
L 108.295718 -313.231987 
z
" style="stroke: #1f77b4; stroke-width: 2"/>
    </defs>
    <g clip-path="url(#pd9ec6266c5)">
     <use xlink:href="#m374a2d771b" x="0" y="348.735469" style="fill: #1f77b4; fill-opacity: 0.3; stroke: #1f77b4; stroke-width: 2"/>
    </g>
   </g>
   <g id="PolyCollection_2">
    <defs>
     <path id="m1fbc41457d" d="M 107.454901 -72.118296 
L 107.454901 -41.874844 
L 109.208363 -41.874844 
L 110.961826 -41.874844 
L 112.715288 -41.874844 
L 114.468751 -41.874844 
L 116.222213 -41.874844 
L 117.975676 -41.874844 
L 119.729138 -41.874844 
L 121.4826 -41.874844 
L 123.236063 -41.874844 
L 124.989525 -41.874844 
L 126.742988 -41.874844 
L 128.49645 -41.874844 
L 130.249913 -41.874844 
L 132.003375 -41.874844 
L 133.756838 -41.874844 
L 135.5103 -41.874844 
L 137.263763 -41.874844 
L 139.017225 -41.874844 
L 140.770688 -41.874844 
L 142.52415 -41.874844 
L 144.277613 -41.874844 
L 146.031075 -41.874844 
L 147.784538 -41.874844 
L 149.538 -41.874844 
L 151.291463 -41.874844 
L 153.044925 -41.874844 
L 154.798388 -41.874844 
L 156.55185 -41.874844 
L 158.305313 -41.874844 
L 160.058775 -41.874844 
L 161.812238 -41.874844 
L 163.5657 -41.874844 
L 165.319163 -41.874844 
L 167.072625 -41.874844 
L 168.826088 -41.874844 
L 170.57955 -41.874844 
L 172.333013 -41.874844 
L 174.086475 -41.874844 
L 175.839938 -41.874844 
L 177.5934 -41.874844 
L 179.346863 -41.874844 
L 181.100325 -41.874844 
L 182.853788 -41.874844 
L 184.60725 -41.874844 
L 186.360713 -41.874844 
L 188.114175 -41.874844 
L 189.867638 -41.874844 
L 191.6211 -41.874844 
L 193.374563 -41.874844 
L 195.128025 -41.874844 
L 196.881488 -41.874844 
L 198.63495 -41.874844 
L 200.388413 -41.874844 
L 202.141875 -41.874844 
L 203.895338 -41.874844 
L 205.6488 -41.874844 
L 207.402263 -41.874844 
L 209.155725 -41.874844 
L 210.909188 -41.874844 
L 212.66265 -41.874844 
L 214.416112 -41.874844 
L 216.169575 -41.874844 
L 217.923037 -41.874844 
L 219.6765 -41.874844 
L 221.429962 -41.874844 
L 223.183425 -41.874844 
L 224.936887 -41.874844 
L 226.69035 -41.874844 
L 228.443812 -41.874844 
L 230.197275 -41.874844 
L 231.950737 -41.874844 
L 233.7042 -41.874844 
L 235.457662 -41.874844 
L 237.211125 -41.874844 
L 238.964587 -41.874844 
L 240.71805 -41.874844 
L 242.471512 -41.874844 
L 244.224975 -41.874844 
L 245.978437 -41.874844 
L 247.7319 -41.874844 
L 249.485362 -41.874844 
L 251.238825 -41.874844 
L 252.992287 -41.874844 
L 254.74575 -41.874844 
L 256.499212 -41.874844 
L 258.252675 -41.874844 
L 260.006137 -41.874844 
L 261.7596 -41.874844 
L 263.513062 -41.874844 
L 265.266525 -41.874844 
L 267.019987 -41.874844 
L 268.77345 -41.874844 
L 270.526912 -41.874844 
L 272.280375 -41.874844 
L 274.033837 -41.874844 
L 275.7873 -41.874844 
L 277.540762 -41.874844 
L 279.294225 -41.874844 
L 281.047687 -41.874844 
L 282.80115 -41.874844 
L 284.554612 -41.874844 
L 286.308075 -41.874844 
L 288.061537 -41.874844 
L 289.815 -41.874844 
L 291.568462 -41.874844 
L 293.321925 -41.874844 
L 295.075387 -41.874844 
L 296.82885 -41.874844 
L 298.582312 -41.874844 
L 300.335775 -41.874844 
L 302.089237 -41.874844 
L 303.8427 -41.874844 
L 305.596162 -41.874844 
L 307.349624 -41.874844 
L 309.103087 -41.874844 
L 310.856549 -41.874844 
L 312.610012 -41.874844 
L 314.363474 -41.874844 
L 316.116937 -41.874844 
L 317.870399 -41.874844 
L 319.623862 -41.874844 
L 321.377324 -41.874844 
L 323.130787 -41.874844 
L 324.884249 -41.874844 
L 326.637712 -41.874844 
L 328.391174 -41.874844 
L 330.144637 -41.874844 
L 331.898099 -41.874844 
L 333.651562 -41.874844 
L 335.405024 -41.874844 
L 337.158487 -41.874844 
L 338.911949 -41.874844 
L 340.665412 -41.874844 
L 342.418874 -41.874844 
L 344.172337 -41.874844 
L 345.925799 -41.874844 
L 347.679262 -41.874844 
L 349.432724 -41.874844 
L 351.186187 -41.874844 
L 352.939649 -41.874844 
L 354.693112 -41.874844 
L 356.446574 -41.874844 
L 358.200037 -41.874844 
L 359.953499 -41.874844 
L 361.706962 -41.874844 
L 363.460424 -41.874844 
L 365.213887 -41.874844 
L 366.967349 -41.874844 
L 368.720812 -41.874844 
L 370.474274 -41.874844 
L 372.227737 -41.874844 
L 373.981199 -41.874844 
L 375.734662 -41.874844 
L 377.488124 -41.874844 
L 379.241587 -41.874844 
L 380.995049 -41.874844 
L 382.748512 -41.874844 
L 384.501974 -41.874844 
L 386.255437 -41.874844 
L 388.008899 -41.874844 
L 389.762362 -41.874844 
L 391.515824 -41.874844 
L 393.269287 -41.874844 
L 395.022749 -41.874844 
L 396.776212 -41.874844 
L 398.529674 -41.874844 
L 400.283136 -41.874844 
L 402.036599 -41.874844 
L 403.790061 -41.874844 
L 405.543524 -41.874844 
L 407.296986 -41.874844 
L 409.050449 -41.874844 
L 410.803911 -41.874844 
L 412.557374 -41.874844 
L 414.310836 -41.874844 
L 416.064299 -41.874844 
L 417.817761 -41.874844 
L 419.571224 -41.874844 
L 421.324686 -41.874844 
L 423.078149 -41.874844 
L 424.831611 -41.874844 
L 426.585074 -41.874844 
L 428.338536 -41.874844 
L 430.091999 -41.874844 
L 431.845461 -41.874844 
L 433.598924 -41.874844 
L 435.352386 -41.874844 
L 437.105849 -41.874844 
L 438.859311 -41.874844 
L 440.612774 -41.874844 
L 442.366236 -41.874844 
L 444.119699 -41.874844 
L 445.873161 -41.874844 
L 447.626624 -41.874844 
L 449.380086 -41.874844 
L 451.133549 -41.874844 
L 452.887011 -41.874844 
L 454.640474 -41.874844 
L 456.393936 -41.874844 
L 456.393936 -42.037242 
L 456.393936 -42.037242 
L 454.640474 -42.091759 
L 452.887011 -42.15299 
L 451.133549 -42.21928 
L 449.380086 -42.288716 
L 447.626624 -42.359125 
L 445.873161 -42.428187 
L 444.119699 -42.493746 
L 442.366236 -42.55421 
L 440.612774 -42.608813 
L 438.859311 -42.657577 
L 437.105849 -42.700994 
L 435.352386 -42.7396 
L 433.598924 -42.773661 
L 431.845461 -42.803092 
L 430.091999 -42.827619 
L 428.338536 -42.847049 
L 426.585074 -42.861507 
L 424.831611 -42.871523 
L 423.078149 -42.877939 
L 421.324686 -42.881723 
L 419.571224 -42.883769 
L 417.817761 -42.884782 
L 416.064299 -42.88524 
L 414.310836 -42.885429 
L 412.557374 -42.8855 
L 410.803911 -42.885526 
L 409.050449 -42.885536 
L 407.296986 -42.885549 
L 405.543524 -42.885584 
L 403.790061 -42.885679 
L 402.036599 -42.885925 
L 400.283136 -42.886503 
L 398.529674 -42.887744 
L 396.776212 -42.890176 
L 395.022749 -42.894536 
L 393.269287 -42.901703 
L 391.515824 -42.912548 
L 389.762362 -42.927733 
L 388.008899 -42.947548 
L 386.255437 -42.971869 
L 384.501974 -43.000251 
L 382.748512 -43.032076 
L 380.995049 -43.066655 
L 379.241587 -43.103218 
L 377.488124 -43.140835 
L 375.734662 -43.178403 
L 373.981199 -43.214785 
L 372.227737 -43.249067 
L 370.474274 -43.280788 
L 368.720812 -43.309982 
L 366.967349 -43.336979 
L 365.213887 -43.362052 
L 363.460424 -43.385144 
L 361.706962 -43.405834 
L 359.953499 -43.423584 
L 358.200037 -43.438118 
L 356.446574 -43.449742 
L 354.693112 -43.459465 
L 352.939649 -43.468894 
L 351.186187 -43.479968 
L 349.432724 -43.494578 
L 347.679262 -43.514166 
L 345.925799 -43.539371 
L 344.172337 -43.569854 
L 342.418874 -43.604373 
L 340.665412 -43.641138 
L 338.911949 -43.6783 
L 337.158487 -43.714395 
L 335.405024 -43.748549 
L 333.651562 -43.780466 
L 331.898099 -43.810312 
L 330.144637 -43.838697 
L 328.391174 -43.866803 
L 326.637712 -43.896549 
L 324.884249 -43.930558 
L 323.130787 -43.971785 
L 321.377324 -44.022894 
L 319.623862 -44.085634 
L 317.870399 -44.160515 
L 316.116937 -44.24687 
L 314.363474 -44.343144 
L 312.610012 -44.44712 
L 310.856549 -44.555857 
L 309.103087 -44.665436 
L 307.349624 -44.770861 
L 305.596162 -44.866497 
L 303.8427 -44.947149 
L 302.089237 -45.009472 
L 300.335775 -45.053101 
L 298.582312 -45.080987 
L 296.82885 -45.098869 
L 295.075387 -45.114279 
L 293.321925 -45.135628 
L 291.568462 -45.171743 
L 289.815 -45.231843 
L 288.061537 -45.325761 
L 286.308075 -45.464383 
L 284.554612 -45.66071 
L 282.80115 -45.932486 
L 281.047687 -46.307812 
L 279.294225 -46.835232 
L 277.540762 -47.598672 
L 275.7873 -48.734356 
L 274.033837 -50.4413 
L 272.280375 -52.971465 
L 270.526912 -56.585604 
L 268.77345 -61.471973 
L 267.019987 -67.647427 
L 265.266525 -74.882941 
L 263.513062 -82.700179 
L 261.7596 -90.460648 
L 260.006137 -97.522948 
L 258.252675 -103.404896 
L 256.499212 -107.8832 
L 254.74575 -110.997501 
L 252.992287 -112.974437 
L 251.238825 -114.119427 
L 249.485362 -114.724228 
L 247.7319 -115.015428 
L 245.978437 -115.143025 
L 244.224975 -115.193485 
L 242.471512 -115.210631 
L 240.71805 -115.213929 
L 238.964587 -115.210729 
L 237.211125 -115.203101 
L 235.457662 -115.191185 
L 233.7042 -115.174702 
L 231.950737 -115.15356 
L 230.197275 -115.12801 
L 228.443812 -115.098565 
L 226.69035 -115.06587 
L 224.936887 -115.030632 
L 223.183425 -114.993661 
L 221.429962 -114.95594 
L 219.6765 -114.918602 
L 217.923037 -114.882749 
L 216.169575 -114.849184 
L 214.416112 -114.818217 
L 212.66265 -114.789696 
L 210.909188 -114.763272 
L 209.155725 -114.738748 
L 207.402263 -114.716296 
L 205.6488 -114.696405 
L 203.895338 -114.679578 
L 202.141875 -114.665947 
L 200.388413 -114.655006 
L 198.63495 -114.645555 
L 196.881488 -114.635855 
L 195.128025 -114.62394 
L 193.374563 -114.608009 
L 191.6211 -114.586821 
L 189.867638 -114.560011 
L 188.114175 -114.5282 
L 186.360713 -114.492836 
L 184.60725 -114.455776 
L 182.853788 -114.418797 
L 181.100325 -114.383201 
L 179.346863 -114.349685 
L 177.5934 -114.318403 
L 175.839938 -114.289063 
L 174.086475 -114.260911 
L 172.333013 -114.232562 
L 170.57955 -114.201877 
L 168.826088 -114.166081 
L 167.072625 -114.122229 
L 165.319163 -114.067846 
L 163.5657 -114.001479 
L 161.812238 -113.922864 
L 160.058775 -113.832711 
L 158.305313 -113.732303 
L 156.55185 -113.623239 
L 154.798388 -113.507504 
L 153.044925 -113.387758 
L 151.291463 -113.267516 
L 149.538 -113.150856 
L 147.784538 -113.041567 
L 146.031075 -112.941992 
L 144.277613 -112.852099 
L 142.52415 -112.769209 
L 140.770688 -112.688493 
L 139.017225 -112.603893 
L 137.263763 -112.508919 
L 135.5103 -112.396926 
L 133.756838 -112.260821 
L 132.003375 -112.092404 
L 130.249913 -111.88146 
L 128.49645 -111.614274 
L 126.742988 -111.270512 
L 124.989525 -110.816858 
L 123.236063 -110.195848 
L 121.4826 -109.310049 
L 119.729138 -108.00578 
L 117.975676 -106.066671 
L 116.222213 -103.231963 
L 114.468751 -99.25178 
L 112.715288 -93.976673 
L 110.961826 -87.454644 
L 109.208363 -79.989549 
L 107.454901 -72.118296 
z
" style="stroke: #ff7f0e; stroke-width: 2"/>
    </defs>
    <g clip-path="url(#pd9ec6266c5)">
     <use xlink:href="#m1fbc41457d" x="0" y="348.735469" style="fill: #ff7f0e; fill-opacity: 0.3; stroke: #ff7f0e; stroke-width: 2"/>
    </g>
   </g>
   <g id="patch_3">
    <path d="M 65.456094 306.860625 
L 65.456094 21.935625 
" style="fill: none; stroke: #cccccc; stroke-width: 1.25; stroke-linejoin: miter; stroke-linecap: square"/>
   </g>
   <g id="patch_4">
    <path d="M 989.429844 306.860625 
L 989.429844 21.935625 
" style="fill: none; stroke: #cccccc; stroke-width: 1.25; stroke-linejoin: miter; stroke-linecap: square"/>
   </g>
   <g id="patch_5">
    <path d="M 65.456094 306.860625 
L 989.429844 306.860625 
" style="fill: none; stroke: #cccccc; stroke-width: 1.25; stroke-linejoin: miter; stroke-linecap: square"/>
   </g>
   <g id="patch_6">
    <path d="M 65.456094 21.935625 
L 989.429844 21.935625 
" style="fill: none; stroke: #cccccc; stroke-width: 1.25; stroke-linejoin: miter; stroke-linecap: square"/>
   </g>
   <g id="text_18">
    <!-- Cluster 0: Time Since Last Sale in Train vs Test (Clipped at P99) -->
    <g style="fill: #262626" transform="translate(346.613281 15.935625) scale(0.12 -0.12)">
     <defs>
      <path id="Arial-BoldMT-43" d="M 3397 1684 
L 4294 1400 
Q 4088 650 3608 286 
Q 3128 -78 2391 -78 
Q 1478 -78 890 545 
Q 303 1169 303 2250 
Q 303 3394 893 4026 
Q 1484 4659 2447 4659 
Q 3288 4659 3813 4163 
Q 4125 3869 4281 3319 
L 3366 3100 
Q 3284 3456 3026 3662 
Q 2769 3869 2400 3869 
Q 1891 3869 1573 3503 
Q 1256 3138 1256 2319 
Q 1256 1450 1568 1081 
Q 1881 713 2381 713 
Q 2750 713 3015 947 
Q 3281 1181 3397 1684 
z
" transform="scale(0.015625)"/>
      <path id="Arial-BoldMT-6c" d="M 459 0 
L 459 4581 
L 1338 4581 
L 1338 0 
L 459 0 
z
" transform="scale(0.015625)"/>
      <path id="Arial-BoldMT-75" d="M 2644 0 
L 2644 497 
Q 2463 231 2167 78 
Q 1872 -75 1544 -75 
Q 1209 -75 943 72 
Q 678 219 559 484 
Q 441 750 441 1219 
L 441 3319 
L 1319 3319 
L 1319 1794 
Q 1319 1094 1367 936 
Q 1416 778 1544 686 
Q 1672 594 1869 594 
Q 2094 594 2272 717 
Q 2450 841 2515 1023 
Q 2581 1206 2581 1919 
L 2581 3319 
L 3459 3319 
L 3459 0 
L 2644 0 
z
" transform="scale(0.015625)"/>
      <path id="Arial-BoldMT-73" d="M 150 947 
L 1031 1081 
Q 1088 825 1259 692 
Q 1431 559 1741 559 
Q 2081 559 2253 684 
Q 2369 772 2369 919 
Q 2369 1019 2306 1084 
Q 2241 1147 2013 1200 
Q 950 1434 666 1628 
Q 272 1897 272 2375 
Q 272 2806 612 3100 
Q 953 3394 1669 3394 
Q 2350 3394 2681 3172 
Q 3013 2950 3138 2516 
L 2309 2363 
Q 2256 2556 2107 2659 
Q 1959 2763 1684 2763 
Q 1338 2763 1188 2666 
Q 1088 2597 1088 2488 
Q 1088 2394 1175 2328 
Q 1294 2241 1995 2081 
Q 2697 1922 2975 1691 
Q 3250 1456 3250 1038 
Q 3250 581 2869 253 
Q 2488 -75 1741 -75 
Q 1063 -75 667 200 
Q 272 475 150 947 
z
" transform="scale(0.015625)"/>
      <path id="Arial-BoldMT-74" d="M 1981 3319 
L 1981 2619 
L 1381 2619 
L 1381 1281 
Q 1381 875 1398 808 
Q 1416 741 1477 697 
Q 1538 653 1625 653 
Q 1747 653 1978 738 
L 2053 56 
Q 1747 -75 1359 -75 
Q 1122 -75 931 4 
Q 741 84 652 211 
Q 563 338 528 553 
Q 500 706 500 1172 
L 500 2619 
L 97 2619 
L 97 3319 
L 500 3319 
L 500 3978 
L 1381 4491 
L 1381 3319 
L 1981 3319 
z
" transform="scale(0.015625)"/>
      <path id="Arial-BoldMT-65" d="M 2381 1056 
L 3256 909 
Q 3088 428 2723 176 
Q 2359 -75 1813 -75 
Q 947 -75 531 491 
Q 203 944 203 1634 
Q 203 2459 634 2926 
Q 1066 3394 1725 3394 
Q 2466 3394 2894 2905 
Q 3322 2416 3303 1406 
L 1103 1406 
Q 1113 1016 1316 798 
Q 1519 581 1822 581 
Q 2028 581 2168 693 
Q 2309 806 2381 1056 
z
M 2431 1944 
Q 2422 2325 2234 2523 
Q 2047 2722 1778 2722 
Q 1491 2722 1303 2513 
Q 1116 2303 1119 1944 
L 2431 1944 
z
" transform="scale(0.015625)"/>
      <path id="Arial-BoldMT-72" d="M 1300 0 
L 422 0 
L 422 3319 
L 1238 3319 
L 1238 2847 
Q 1447 3181 1614 3287 
Q 1781 3394 1994 3394 
Q 2294 3394 2572 3228 
L 2300 2463 
Q 2078 2606 1888 2606 
Q 1703 2606 1575 2504 
Q 1447 2403 1373 2137 
Q 1300 1872 1300 1025 
L 1300 0 
z
" transform="scale(0.015625)"/>
      <path id="Arial-BoldMT-20" transform="scale(0.015625)"/>
      <path id="Arial-BoldMT-30" d="M 1756 4600 
Q 2422 4600 2797 4125 
Q 3244 3563 3244 2259 
Q 3244 959 2794 391 
Q 2422 -78 1756 -78 
Q 1088 -78 678 436 
Q 269 950 269 2269 
Q 269 3563 719 4131 
Q 1091 4600 1756 4600 
z
M 1756 3872 
Q 1597 3872 1472 3770 
Q 1347 3669 1278 3406 
Q 1188 3066 1188 2259 
Q 1188 1453 1269 1151 
Q 1350 850 1473 750 
Q 1597 650 1756 650 
Q 1916 650 2041 751 
Q 2166 853 2234 1116 
Q 2325 1453 2325 2259 
Q 2325 3066 2244 3367 
Q 2163 3669 2039 3770 
Q 1916 3872 1756 3872 
z
" transform="scale(0.015625)"/>
      <path id="Arial-BoldMT-3a" d="M 628 2441 
L 628 3319 
L 1506 3319 
L 1506 2441 
L 628 2441 
z
M 628 0 
L 628 878 
L 1506 878 
L 1506 0 
L 628 0 
z
" transform="scale(0.015625)"/>
      <path id="Arial-BoldMT-54" d="M 1497 0 
L 1497 3806 
L 138 3806 
L 138 4581 
L 3778 4581 
L 3778 3806 
L 2422 3806 
L 2422 0 
L 1497 0 
z
" transform="scale(0.015625)"/>
      <path id="Arial-BoldMT-69" d="M 459 3769 
L 459 4581 
L 1338 4581 
L 1338 3769 
L 459 3769 
z
M 459 0 
L 459 3319 
L 1338 3319 
L 1338 0 
L 459 0 
z
" transform="scale(0.015625)"/>
      <path id="Arial-BoldMT-6d" d="M 394 3319 
L 1203 3319 
L 1203 2866 
Q 1638 3394 2238 3394 
Q 2556 3394 2790 3262 
Q 3025 3131 3175 2866 
Q 3394 3131 3647 3262 
Q 3900 3394 4188 3394 
Q 4553 3394 4806 3245 
Q 5059 3097 5184 2809 
Q 5275 2597 5275 2122 
L 5275 0 
L 4397 0 
L 4397 1897 
Q 4397 2391 4306 2534 
Q 4184 2722 3931 2722 
Q 3747 2722 3584 2609 
Q 3422 2497 3350 2280 
Q 3278 2063 3278 1594 
L 3278 0 
L 2400 0 
L 2400 1819 
Q 2400 2303 2353 2443 
Q 2306 2584 2207 2653 
Q 2109 2722 1941 2722 
Q 1738 2722 1575 2612 
Q 1413 2503 1342 2297 
Q 1272 2091 1272 1613 
L 1272 0 
L 394 0 
L 394 3319 
z
" transform="scale(0.015625)"/>
      <path id="Arial-BoldMT-53" d="M 231 1491 
L 1131 1578 
Q 1213 1125 1461 912 
Q 1709 700 2131 700 
Q 2578 700 2804 889 
Q 3031 1078 3031 1331 
Q 3031 1494 2936 1608 
Q 2841 1722 2603 1806 
Q 2441 1863 1863 2006 
Q 1119 2191 819 2459 
Q 397 2838 397 3381 
Q 397 3731 595 4036 
Q 794 4341 1167 4500 
Q 1541 4659 2069 4659 
Q 2931 4659 3367 4281 
Q 3803 3903 3825 3272 
L 2900 3231 
Q 2841 3584 2645 3739 
Q 2450 3894 2059 3894 
Q 1656 3894 1428 3728 
Q 1281 3622 1281 3444 
Q 1281 3281 1419 3166 
Q 1594 3019 2269 2859 
Q 2944 2700 3267 2529 
Q 3591 2359 3773 2064 
Q 3956 1769 3956 1334 
Q 3956 941 3737 597 
Q 3519 253 3119 86 
Q 2719 -81 2122 -81 
Q 1253 -81 787 320 
Q 322 722 231 1491 
z
" transform="scale(0.015625)"/>
      <path id="Arial-BoldMT-6e" d="M 3478 0 
L 2600 0 
L 2600 1694 
Q 2600 2231 2544 2389 
Q 2488 2547 2361 2634 
Q 2234 2722 2056 2722 
Q 1828 2722 1647 2597 
Q 1466 2472 1398 2265 
Q 1331 2059 1331 1503 
L 1331 0 
L 453 0 
L 453 3319 
L 1269 3319 
L 1269 2831 
Q 1703 3394 2363 3394 
Q 2653 3394 2893 3289 
Q 3134 3184 3257 3021 
Q 3381 2859 3429 2653 
Q 3478 2447 3478 2063 
L 3478 0 
z
" transform="scale(0.015625)"/>
      <path id="Arial-BoldMT-63" d="M 3353 2338 
L 2488 2181 
Q 2444 2441 2289 2572 
Q 2134 2703 1888 2703 
Q 1559 2703 1364 2476 
Q 1169 2250 1169 1719 
Q 1169 1128 1367 884 
Q 1566 641 1900 641 
Q 2150 641 2309 783 
Q 2469 925 2534 1272 
L 3397 1125 
Q 3263 531 2881 228 
Q 2500 -75 1859 -75 
Q 1131 -75 698 384 
Q 266 844 266 1656 
Q 266 2478 700 2936 
Q 1134 3394 1875 3394 
Q 2481 3394 2839 3133 
Q 3197 2872 3353 2338 
z
" transform="scale(0.015625)"/>
      <path id="Arial-BoldMT-4c" d="M 491 0 
L 491 4544 
L 1416 4544 
L 1416 772 
L 3716 772 
L 3716 0 
L 491 0 
z
" transform="scale(0.015625)"/>
      <path id="Arial-BoldMT-61" d="M 1116 2306 
L 319 2450 
Q 453 2931 781 3162 
Q 1109 3394 1756 3394 
Q 2344 3394 2631 3255 
Q 2919 3116 3036 2902 
Q 3153 2688 3153 2116 
L 3144 1091 
Q 3144 653 3186 445 
Q 3228 238 3344 0 
L 2475 0 
Q 2441 88 2391 259 
Q 2369 338 2359 363 
Q 2134 144 1878 34 
Q 1622 -75 1331 -75 
Q 819 -75 523 203 
Q 228 481 228 906 
Q 228 1188 362 1408 
Q 497 1628 739 1745 
Q 981 1863 1438 1950 
Q 2053 2066 2291 2166 
L 2291 2253 
Q 2291 2506 2166 2614 
Q 2041 2722 1694 2722 
Q 1459 2722 1328 2630 
Q 1197 2538 1116 2306 
z
M 2291 1594 
Q 2122 1538 1756 1459 
Q 1391 1381 1278 1306 
Q 1106 1184 1106 997 
Q 1106 813 1243 678 
Q 1381 544 1594 544 
Q 1831 544 2047 700 
Q 2206 819 2256 991 
Q 2291 1103 2291 1419 
L 2291 1594 
z
" transform="scale(0.015625)"/>
      <path id="Arial-BoldMT-76" d="M 1372 0 
L 34 3319 
L 956 3319 
L 1581 1625 
L 1763 1059 
Q 1834 1275 1853 1344 
Q 1897 1484 1947 1625 
L 2578 3319 
L 3481 3319 
L 2163 0 
L 1372 0 
z
" transform="scale(0.015625)"/>
      <path id="Arial-BoldMT-28" d="M 1916 -1347 
L 1313 -1347 
Q 834 -625 584 153 
Q 334 931 334 1659 
Q 334 2563 644 3369 
Q 913 4069 1325 4659 
L 1925 4659 
Q 1497 3713 1336 3048 
Q 1175 2384 1175 1641 
Q 1175 1128 1270 590 
Q 1366 53 1531 -431 
Q 1641 -750 1916 -1347 
z
" transform="scale(0.015625)"/>
      <path id="Arial-BoldMT-70" d="M 434 3319 
L 1253 3319 
L 1253 2831 
Q 1413 3081 1684 3237 
Q 1956 3394 2288 3394 
Q 2866 3394 3269 2941 
Q 3672 2488 3672 1678 
Q 3672 847 3265 386 
Q 2859 -75 2281 -75 
Q 2006 -75 1782 34 
Q 1559 144 1313 409 
L 1313 -1263 
L 434 -1263 
L 434 3319 
z
M 1303 1716 
Q 1303 1156 1525 889 
Q 1747 622 2066 622 
Q 2372 622 2575 867 
Q 2778 1113 2778 1672 
Q 2778 2194 2568 2447 
Q 2359 2700 2050 2700 
Q 1728 2700 1515 2451 
Q 1303 2203 1303 1716 
z
" transform="scale(0.015625)"/>
      <path id="Arial-BoldMT-64" d="M 3503 0 
L 2688 0 
L 2688 488 
Q 2484 203 2207 64 
Q 1931 -75 1650 -75 
Q 1078 -75 670 386 
Q 263 847 263 1672 
Q 263 2516 659 2955 
Q 1056 3394 1663 3394 
Q 2219 3394 2625 2931 
L 2625 4581 
L 3503 4581 
L 3503 0 
z
M 1159 1731 
Q 1159 1200 1306 963 
Q 1519 619 1900 619 
Q 2203 619 2415 876 
Q 2628 1134 2628 1647 
Q 2628 2219 2422 2470 
Q 2216 2722 1894 2722 
Q 1581 2722 1370 2473 
Q 1159 2225 1159 1731 
z
" transform="scale(0.015625)"/>
      <path id="Arial-BoldMT-50" d="M 466 0 
L 466 4581 
L 1950 4581 
Q 2794 4581 3050 4513 
Q 3444 4409 3709 4064 
Q 3975 3719 3975 3172 
Q 3975 2750 3822 2462 
Q 3669 2175 3433 2011 
Q 3197 1847 2953 1794 
Q 2622 1728 1994 1728 
L 1391 1728 
L 1391 0 
L 466 0 
z
M 1391 3806 
L 1391 2506 
L 1897 2506 
Q 2444 2506 2628 2578 
Q 2813 2650 2917 2803 
Q 3022 2956 3022 3159 
Q 3022 3409 2875 3571 
Q 2728 3734 2503 3775 
Q 2338 3806 1838 3806 
L 1391 3806 
z
" transform="scale(0.015625)"/>
      <path id="Arial-BoldMT-39" d="M 291 1059 
L 1141 1153 
Q 1172 894 1303 769 
Q 1434 644 1650 644 
Q 1922 644 2112 894 
Q 2303 1144 2356 1931 
Q 2025 1547 1528 1547 
Q 988 1547 595 1964 
Q 203 2381 203 3050 
Q 203 3747 617 4173 
Q 1031 4600 1672 4600 
Q 2369 4600 2816 4061 
Q 3263 3522 3263 2288 
Q 3263 1031 2797 475 
Q 2331 -81 1584 -81 
Q 1047 -81 715 205 
Q 384 491 291 1059 
z
M 2278 2978 
Q 2278 3403 2083 3637 
Q 1888 3872 1631 3872 
Q 1388 3872 1227 3680 
Q 1066 3488 1066 3050 
Q 1066 2606 1241 2398 
Q 1416 2191 1678 2191 
Q 1931 2191 2104 2391 
Q 2278 2591 2278 2978 
z
" transform="scale(0.015625)"/>
      <path id="Arial-BoldMT-29" d="M 216 -1347 
Q 475 -791 581 -494 
Q 688 -197 778 190 
Q 869 578 912 926 
Q 956 1275 956 1641 
Q 956 2384 797 3048 
Q 638 3713 209 4659 
L 806 4659 
Q 1278 3988 1539 3234 
Q 1800 2481 1800 1706 
Q 1800 1053 1594 306 
Q 1359 -531 822 -1347 
L 216 -1347 
z
" transform="scale(0.015625)"/>
     </defs>
     <use xlink:href="#Arial-BoldMT-43"/>
     <use xlink:href="#Arial-BoldMT-6c" x="72.216797"/>
     <use xlink:href="#Arial-BoldMT-75" x="100"/>
     <use xlink:href="#Arial-BoldMT-73" x="161.083984"/>
     <use xlink:href="#Arial-BoldMT-74" x="216.699219"/>
     <use xlink:href="#Arial-BoldMT-65" x="250"/>
     <use xlink:href="#Arial-BoldMT-72" x="305.615234"/>
     <use xlink:href="#Arial-BoldMT-20" x="344.53125"/>
     <use xlink:href="#Arial-BoldMT-30" x="372.314453"/>
     <use xlink:href="#Arial-BoldMT-3a" x="427.929688"/>
     <use xlink:href="#Arial-BoldMT-20" x="461.230469"/>
     <use xlink:href="#Arial-BoldMT-54" x="489.013672"/>
     <use xlink:href="#Arial-BoldMT-69" x="548.347656"/>
     <use xlink:href="#Arial-BoldMT-6d" x="576.130859"/>
     <use xlink:href="#Arial-BoldMT-65" x="665.046875"/>
     <use xlink:href="#Arial-BoldMT-20" x="720.662109"/>
     <use xlink:href="#Arial-BoldMT-53" x="748.445312"/>
     <use xlink:href="#Arial-BoldMT-69" x="815.144531"/>
     <use xlink:href="#Arial-BoldMT-6e" x="842.927734"/>
     <use xlink:href="#Arial-BoldMT-63" x="904.011719"/>
     <use xlink:href="#Arial-BoldMT-65" x="959.626953"/>
     <use xlink:href="#Arial-BoldMT-20" x="1015.242188"/>
     <use xlink:href="#Arial-BoldMT-4c" x="1043.025391"/>
     <use xlink:href="#Arial-BoldMT-61" x="1104.109375"/>
     <use xlink:href="#Arial-BoldMT-73" x="1159.724609"/>
     <use xlink:href="#Arial-BoldMT-74" x="1215.339844"/>
     <use xlink:href="#Arial-BoldMT-20" x="1248.640625"/>
     <use xlink:href="#Arial-BoldMT-53" x="1276.423828"/>
     <use xlink:href="#Arial-BoldMT-61" x="1343.123047"/>
     <use xlink:href="#Arial-BoldMT-6c" x="1398.738281"/>
     <use xlink:href="#Arial-BoldMT-65" x="1426.521484"/>
     <use xlink:href="#Arial-BoldMT-20" x="1482.136719"/>
     <use xlink:href="#Arial-BoldMT-69" x="1509.919922"/>
     <use xlink:href="#Arial-BoldMT-6e" x="1537.703125"/>
     <use xlink:href="#Arial-BoldMT-20" x="1598.787109"/>
     <use xlink:href="#Arial-BoldMT-54" x="1626.570312"/>
     <use xlink:href="#Arial-BoldMT-72" x="1682.154297"/>
     <use xlink:href="#Arial-BoldMT-61" x="1721.070312"/>
     <use xlink:href="#Arial-BoldMT-69" x="1776.685547"/>
     <use xlink:href="#Arial-BoldMT-6e" x="1804.46875"/>
     <use xlink:href="#Arial-BoldMT-20" x="1865.552734"/>
     <use xlink:href="#Arial-BoldMT-76" x="1893.335938"/>
     <use xlink:href="#Arial-BoldMT-73" x="1948.951172"/>
     <use xlink:href="#Arial-BoldMT-20" x="2004.566406"/>
     <use xlink:href="#Arial-BoldMT-54" x="2032.349609"/>
     <use xlink:href="#Arial-BoldMT-65" x="2086.058594"/>
     <use xlink:href="#Arial-BoldMT-73" x="2141.673828"/>
     <use xlink:href="#Arial-BoldMT-74" x="2197.289062"/>
     <use xlink:href="#Arial-BoldMT-20" x="2230.589844"/>
     <use xlink:href="#Arial-BoldMT-28" x="2258.373047"/>
     <use xlink:href="#Arial-BoldMT-43" x="2291.673828"/>
     <use xlink:href="#Arial-BoldMT-6c" x="2363.890625"/>
     <use xlink:href="#Arial-BoldMT-69" x="2391.673828"/>
     <use xlink:href="#Arial-BoldMT-70" x="2419.457031"/>
     <use xlink:href="#Arial-BoldMT-70" x="2480.541016"/>
     <use xlink:href="#Arial-BoldMT-65" x="2541.625"/>
     <use xlink:href="#Arial-BoldMT-64" x="2597.240234"/>
     <use xlink:href="#Arial-BoldMT-20" x="2658.324219"/>
     <use xlink:href="#Arial-BoldMT-61" x="2686.107422"/>
     <use xlink:href="#Arial-BoldMT-74" x="2741.722656"/>
     <use xlink:href="#Arial-BoldMT-20" x="2775.023438"/>
     <use xlink:href="#Arial-BoldMT-50" x="2802.806641"/>
     <use xlink:href="#Arial-BoldMT-39" x="2869.505859"/>
     <use xlink:href="#Arial-BoldMT-39" x="2925.121094"/>
     <use xlink:href="#Arial-BoldMT-29" x="2980.736328"/>
    </g>
   </g>
   <g id="legend_1">
    <g id="patch_7">
     <path d="M 924.082969 39.709219 
L 946.082969 39.709219 
L 946.082969 32.009219 
L 924.082969 32.009219 
z
" style="fill: #1f77b4; fill-opacity: 0.3; stroke: #1f77b4; stroke-width: 2; stroke-linejoin: miter"/>
    </g>
    <g id="text_19">
     <!-- Train -->
     <g style="fill: #262626" transform="translate(954.882969 39.709219) scale(0.11 -0.11)">
      <defs>
       <path id="ArialMT-54" d="M 1659 0 
L 1659 4041 
L 150 4041 
L 150 4581 
L 3781 4581 
L 3781 4041 
L 2266 4041 
L 2266 0 
L 1659 0 
z
" transform="scale(0.015625)"/>
       <path id="ArialMT-72" d="M 416 0 
L 416 3319 
L 922 3319 
L 922 2816 
Q 1116 3169 1280 3281 
Q 1444 3394 1641 3394 
Q 1925 3394 2219 3213 
L 2025 2691 
Q 1819 2813 1613 2813 
Q 1428 2813 1281 2702 
Q 1134 2591 1072 2394 
Q 978 2094 978 1738 
L 978 0 
L 416 0 
z
" transform="scale(0.015625)"/>
      </defs>
      <use xlink:href="#ArialMT-54"/>
      <use xlink:href="#ArialMT-72" x="57.333984"/>
      <use xlink:href="#ArialMT-61" x="90.634766"/>
      <use xlink:href="#ArialMT-69" x="146.25"/>
      <use xlink:href="#ArialMT-6e" x="168.466797"/>
     </g>
    </g>
    <g id="patch_8">
     <path d="M 924.082969 55.269063 
L 946.082969 55.269063 
L 946.082969 47.569063 
L 924.082969 47.569063 
z
" style="fill: #ff7f0e; fill-opacity: 0.3; stroke: #ff7f0e; stroke-width: 2; stroke-linejoin: miter"/>
    </g>
    <g id="text_20">
     <!-- Test -->
     <g style="fill: #262626" transform="translate(954.882969 55.269063) scale(0.11 -0.11)">
      <use xlink:href="#ArialMT-54"/>
      <use xlink:href="#ArialMT-65" x="49.958984"/>
      <use xlink:href="#ArialMT-73" x="105.574219"/>
      <use xlink:href="#ArialMT-74" x="155.574219"/>
     </g>
    </g>
   </g>
  </g>
 </g>
 <defs>
  <clipPath id="pd9ec6266c5">
   <rect x="65.456094" y="21.935625" width="923.97375" height="284.925"/>
  </clipPath>
 </defs>
</svg>
