<?xml version="1.0" encoding="utf-8" standalone="no"?>
<!DOCTYPE svg PUBLIC "-//W3C//DTD SVG 1.1//EN"
  "http://www.w3.org/Graphics/SVG/1.1/DTD/svg11.dtd">
<svg xmlns:xlink="http://www.w3.org/1999/xlink" width="996.723906pt" height="348.583594pt" viewBox="0 0 996.723906 348.583594" xmlns="http://www.w3.org/2000/svg" version="1.1">
 <metadata>
  <rdf:RDF xmlns:dc="http://purl.org/dc/elements/1.1/" xmlns:cc="http://creativecommons.org/ns#" xmlns:rdf="http://www.w3.org/1999/02/22-rdf-syntax-ns#">
   <cc:Work>
    <dc:type rdf:resource="http://purl.org/dc/dcmitype/StillImage"/>
    <dc:date>2026-03-27T23:01:53.928386</dc:date>
    <dc:format>image/svg+xml</dc:format>
    <dc:creator>
     <cc:Agent>
      <dc:title>Matplotlib v3.9.4, https://matplotlib.org/</dc:title>
     </cc:Agent>
    </dc:creator>
   </cc:Work>
  </rdf:RDF>
 </metadata>
 <defs>
  <style type="text/css">*{stroke-linejoin: round; stroke-linecap: butt}</style>
 </defs>
 <g id="figure_1">
  <g id="patch_1">
   <path d="M 0 348.583594 
L 996.723906 348.583594 
L 996.723906 0 
L 0 0 
z
" style="fill: #ffffff"/>
  </g>
  <g id="axes_1">
   <g id="patch_2">
    <path d="M 62.400156 306.849375 
L 989.523906 306.849375 
L 989.523906 21.789375 
L 62.400156 21.789375 
z
" style="fill: #ffffff"/>
   </g>
   <g id="matplotlib.axis_1">
    <g id="xtick_1">
     <g id="line2d_1">
      <path d="M 72.477588 306.849375 
L 72.477588 21.789375 
" clip-path="url(#p32f579fb9d)" style="fill: none; stroke: #cccccc; stroke-linecap: round"/>
     </g>
     <g id="text_1">
      <!-- 2011-06 -->
      <g style="fill: #262626" transform="translate(52.700791 324.222969) scale(0.11 -0.11)">
       <defs>
        <path id="ArialMT-32" d="M 3222 541 
L 3222 0 
L 194 0 
Q 188 203 259 391 
Q 375 700 629 1000 
Q 884 1300 1366 1694 
Q 2113 2306 2375 2664 
Q 2638 3022 2638 3341 
Q 2638 3675 2398 3904 
Q 2159 4134 1775 4134 
Q 1369 4134 1125 3890 
Q 881 3647 878 3216 
L 300 3275 
Q 359 3922 746 4261 
Q 1134 4600 1788 4600 
Q 2447 4600 2831 4234 
Q 3216 3869 3216 3328 
Q 3216 3053 3103 2787 
Q 2991 2522 2730 2228 
Q 2469 1934 1863 1422 
Q 1356 997 1212 845 
Q 1069 694 975 541 
L 3222 541 
z
" transform="scale(0.015625)"/>
        <path id="ArialMT-30" d="M 266 2259 
Q 266 3072 433 3567 
Q 600 4063 929 4331 
Q 1259 4600 1759 4600 
Q 2128 4600 2406 4451 
Q 2684 4303 2865 4023 
Q 3047 3744 3150 3342 
Q 3253 2941 3253 2259 
Q 3253 1453 3087 958 
Q 2922 463 2592 192 
Q 2263 -78 1759 -78 
Q 1097 -78 719 397 
Q 266 969 266 2259 
z
M 844 2259 
Q 844 1131 1108 757 
Q 1372 384 1759 384 
Q 2147 384 2411 759 
Q 2675 1134 2675 2259 
Q 2675 3391 2411 3762 
Q 2147 4134 1753 4134 
Q 1366 4134 1134 3806 
Q 844 3388 844 2259 
z
" transform="scale(0.015625)"/>
        <path id="ArialMT-31" d="M 2384 0 
L 1822 0 
L 1822 3584 
Q 1619 3391 1289 3197 
Q 959 3003 697 2906 
L 697 3450 
Q 1169 3672 1522 3987 
Q 1875 4303 2022 4600 
L 2384 4600 
L 2384 0 
z
" transform="scale(0.015625)"/>
        <path id="ArialMT-2d" d="M 203 1375 
L 203 1941 
L 1931 1941 
L 1931 1375 
L 203 1375 
z
" transform="scale(0.015625)"/>
        <path id="ArialMT-36" d="M 3184 3459 
L 2625 3416 
Q 2550 3747 2413 3897 
Q 2184 4138 1850 4138 
Q 1581 4138 1378 3988 
Q 1113 3794 959 3422 
Q 806 3050 800 2363 
Q 1003 2672 1297 2822 
Q 1591 2972 1913 2972 
Q 2475 2972 2870 2558 
Q 3266 2144 3266 1488 
Q 3266 1056 3080 686 
Q 2894 316 2569 119 
Q 2244 -78 1831 -78 
Q 1128 -78 684 439 
Q 241 956 241 2144 
Q 241 3472 731 4075 
Q 1159 4600 1884 4600 
Q 2425 4600 2770 4297 
Q 3116 3994 3184 3459 
z
M 888 1484 
Q 888 1194 1011 928 
Q 1134 663 1356 523 
Q 1578 384 1822 384 
Q 2178 384 2434 671 
Q 2691 959 2691 1453 
Q 2691 1928 2437 2201 
Q 2184 2475 1800 2475 
Q 1419 2475 1153 2201 
Q 888 1928 888 1484 
z
" transform="scale(0.015625)"/>
       </defs>
       <use xlink:href="#ArialMT-32"/>
       <use xlink:href="#ArialMT-30" x="55.615234"/>
       <use xlink:href="#ArialMT-31" x="111.230469"/>
       <use xlink:href="#ArialMT-31" x="159.470703"/>
       <use xlink:href="#ArialMT-2d" x="215.085938"/>
       <use xlink:href="#ArialMT-30" x="248.386719"/>
       <use xlink:href="#ArialMT-36" x="304.001953"/>
      </g>
     </g>
    </g>
    <g id="xtick_2">
     <g id="line2d_2">
      <path d="M 209.897116 306.849375 
L 209.897116 21.789375 
" clip-path="url(#p32f579fb9d)" style="fill: none; stroke: #cccccc; stroke-linecap: round"/>
     </g>
     <g id="text_2">
      <!-- 2011-07 -->
      <g style="fill: #262626" transform="translate(190.12032 324.222969) scale(0.11 -0.11)">
       <defs>
        <path id="ArialMT-37" d="M 303 3981 
L 303 4522 
L 3269 4522 
L 3269 4084 
Q 2831 3619 2401 2847 
Q 1972 2075 1738 1259 
Q 1569 684 1522 0 
L 944 0 
Q 953 541 1156 1306 
Q 1359 2072 1739 2783 
Q 2119 3494 2547 3981 
L 303 3981 
z
" transform="scale(0.015625)"/>
       </defs>
       <use xlink:href="#ArialMT-32"/>
       <use xlink:href="#ArialMT-30" x="55.615234"/>
       <use xlink:href="#ArialMT-31" x="111.230469"/>
       <use xlink:href="#ArialMT-31" x="159.470703"/>
       <use xlink:href="#ArialMT-2d" x="215.085938"/>
       <use xlink:href="#ArialMT-30" x="248.386719"/>
       <use xlink:href="#ArialMT-37" x="304.001953"/>
      </g>
     </g>
    </g>
    <g id="xtick_3">
     <g id="line2d_3">
      <path d="M 351.897296 306.849375 
L 351.897296 21.789375 
" clip-path="url(#p32f579fb9d)" style="fill: none; stroke: #cccccc; stroke-linecap: round"/>
     </g>
     <g id="text_3">
      <!-- 2011-08 -->
      <g style="fill: #262626" transform="translate(332.120499 324.222969) scale(0.11 -0.11)">
       <defs>
        <path id="ArialMT-38" d="M 1131 2484 
Q 781 2613 612 2850 
Q 444 3088 444 3419 
Q 444 3919 803 4259 
Q 1163 4600 1759 4600 
Q 2359 4600 2725 4251 
Q 3091 3903 3091 3403 
Q 3091 3084 2923 2848 
Q 2756 2613 2416 2484 
Q 2838 2347 3058 2040 
Q 3278 1734 3278 1309 
Q 3278 722 2862 322 
Q 2447 -78 1769 -78 
Q 1091 -78 675 323 
Q 259 725 259 1325 
Q 259 1772 486 2073 
Q 713 2375 1131 2484 
z
M 1019 3438 
Q 1019 3113 1228 2906 
Q 1438 2700 1772 2700 
Q 2097 2700 2305 2904 
Q 2513 3109 2513 3406 
Q 2513 3716 2298 3927 
Q 2084 4138 1766 4138 
Q 1444 4138 1231 3931 
Q 1019 3725 1019 3438 
z
M 838 1322 
Q 838 1081 952 856 
Q 1066 631 1291 507 
Q 1516 384 1775 384 
Q 2178 384 2440 643 
Q 2703 903 2703 1303 
Q 2703 1709 2433 1975 
Q 2163 2241 1756 2241 
Q 1359 2241 1098 1978 
Q 838 1716 838 1322 
z
" transform="scale(0.015625)"/>
       </defs>
       <use xlink:href="#ArialMT-32"/>
       <use xlink:href="#ArialMT-30" x="55.615234"/>
       <use xlink:href="#ArialMT-31" x="111.230469"/>
       <use xlink:href="#ArialMT-31" x="159.470703"/>
       <use xlink:href="#ArialMT-2d" x="215.085938"/>
       <use xlink:href="#ArialMT-30" x="248.386719"/>
       <use xlink:href="#ArialMT-38" x="304.001953"/>
      </g>
     </g>
    </g>
    <g id="xtick_4">
     <g id="line2d_4">
      <path d="M 493.897475 306.849375 
L 493.897475 21.789375 
" clip-path="url(#p32f579fb9d)" style="fill: none; stroke: #cccccc; stroke-linecap: round"/>
     </g>
     <g id="text_4">
      <!-- 2011-09 -->
      <g style="fill: #262626" transform="translate(474.120678 324.222969) scale(0.11 -0.11)">
       <defs>
        <path id="ArialMT-39" d="M 350 1059 
L 891 1109 
Q 959 728 1153 556 
Q 1347 384 1650 384 
Q 1909 384 2104 503 
Q 2300 622 2425 820 
Q 2550 1019 2634 1356 
Q 2719 1694 2719 2044 
Q 2719 2081 2716 2156 
Q 2547 1888 2255 1720 
Q 1963 1553 1622 1553 
Q 1053 1553 659 1965 
Q 266 2378 266 3053 
Q 266 3750 677 4175 
Q 1088 4600 1706 4600 
Q 2153 4600 2523 4359 
Q 2894 4119 3086 3673 
Q 3278 3228 3278 2384 
Q 3278 1506 3087 986 
Q 2897 466 2520 194 
Q 2144 -78 1638 -78 
Q 1100 -78 759 220 
Q 419 519 350 1059 
z
M 2653 3081 
Q 2653 3566 2395 3850 
Q 2138 4134 1775 4134 
Q 1400 4134 1122 3828 
Q 844 3522 844 3034 
Q 844 2597 1108 2323 
Q 1372 2050 1759 2050 
Q 2150 2050 2401 2323 
Q 2653 2597 2653 3081 
z
" transform="scale(0.015625)"/>
       </defs>
       <use xlink:href="#ArialMT-32"/>
       <use xlink:href="#ArialMT-30" x="55.615234"/>
       <use xlink:href="#ArialMT-31" x="111.230469"/>
       <use xlink:href="#ArialMT-31" x="159.470703"/>
       <use xlink:href="#ArialMT-2d" x="215.085938"/>
       <use xlink:href="#ArialMT-30" x="248.386719"/>
       <use xlink:href="#ArialMT-39" x="304.001953"/>
      </g>
     </g>
    </g>
    <g id="xtick_5">
     <g id="line2d_5">
      <path d="M 631.317003 306.849375 
L 631.317003 21.789375 
" clip-path="url(#p32f579fb9d)" style="fill: none; stroke: #cccccc; stroke-linecap: round"/>
     </g>
     <g id="text_5">
      <!-- 2011-10 -->
      <g style="fill: #262626" transform="translate(611.540206 324.222969) scale(0.11 -0.11)">
       <use xlink:href="#ArialMT-32"/>
       <use xlink:href="#ArialMT-30" x="55.615234"/>
       <use xlink:href="#ArialMT-31" x="111.230469"/>
       <use xlink:href="#ArialMT-31" x="159.470703"/>
       <use xlink:href="#ArialMT-2d" x="215.085938"/>
       <use xlink:href="#ArialMT-31" x="248.386719"/>
       <use xlink:href="#ArialMT-30" x="304.001953"/>
      </g>
     </g>
    </g>
    <g id="xtick_6">
     <g id="line2d_6">
      <path d="M 773.317182 306.849375 
L 773.317182 21.789375 
" clip-path="url(#p32f579fb9d)" style="fill: none; stroke: #cccccc; stroke-linecap: round"/>
     </g>
     <g id="text_6">
      <!-- 2011-11 -->
      <g style="fill: #262626" transform="translate(753.94601 324.222969) scale(0.11 -0.11)">
       <use xlink:href="#ArialMT-32"/>
       <use xlink:href="#ArialMT-30" x="55.615234"/>
       <use xlink:href="#ArialMT-31" x="111.230469"/>
       <use xlink:href="#ArialMT-31" x="159.470703"/>
       <use xlink:href="#ArialMT-2d" x="215.085938"/>
       <use xlink:href="#ArialMT-31" x="248.386719"/>
       <use xlink:href="#ArialMT-31" x="296.626953"/>
      </g>
     </g>
    </g>
    <g id="xtick_7">
     <g id="line2d_7">
      <path d="M 910.73671 306.849375 
L 910.73671 21.789375 
" clip-path="url(#p32f579fb9d)" style="fill: none; stroke: #cccccc; stroke-linecap: round"/>
     </g>
     <g id="text_7">
      <!-- 2011-12 -->
      <g style="fill: #262626" transform="translate(890.959913 324.222969) scale(0.11 -0.11)">
       <use xlink:href="#ArialMT-32"/>
       <use xlink:href="#ArialMT-30" x="55.615234"/>
       <use xlink:href="#ArialMT-31" x="111.230469"/>
       <use xlink:href="#ArialMT-31" x="159.470703"/>
       <use xlink:href="#ArialMT-2d" x="215.085938"/>
       <use xlink:href="#ArialMT-31" x="248.386719"/>
       <use xlink:href="#ArialMT-32" x="304.001953"/>
      </g>
     </g>
    </g>
    <g id="text_8">
     <!-- Date -->
     <g style="fill: #262626" transform="translate(513.288906 338.998594) scale(0.12 -0.12)">
      <defs>
       <path id="ArialMT-44" d="M 494 0 
L 494 4581 
L 2072 4581 
Q 2606 4581 2888 4516 
Q 3281 4425 3559 4188 
Q 3922 3881 4101 3404 
Q 4281 2928 4281 2316 
Q 4281 1794 4159 1391 
Q 4038 988 3847 723 
Q 3656 459 3429 307 
Q 3203 156 2883 78 
Q 2563 0 2147 0 
L 494 0 
z
M 1100 541 
L 2078 541 
Q 2531 541 2789 625 
Q 3047 709 3200 863 
Q 3416 1078 3536 1442 
Q 3656 1806 3656 2325 
Q 3656 3044 3420 3430 
Q 3184 3816 2847 3947 
Q 2603 4041 2063 4041 
L 1100 4041 
L 1100 541 
z
" transform="scale(0.015625)"/>
       <path id="ArialMT-61" d="M 2588 409 
Q 2275 144 1986 34 
Q 1697 -75 1366 -75 
Q 819 -75 525 192 
Q 231 459 231 875 
Q 231 1119 342 1320 
Q 453 1522 633 1644 
Q 813 1766 1038 1828 
Q 1203 1872 1538 1913 
Q 2219 1994 2541 2106 
Q 2544 2222 2544 2253 
Q 2544 2597 2384 2738 
Q 2169 2928 1744 2928 
Q 1347 2928 1158 2789 
Q 969 2650 878 2297 
L 328 2372 
Q 403 2725 575 2942 
Q 747 3159 1072 3276 
Q 1397 3394 1825 3394 
Q 2250 3394 2515 3294 
Q 2781 3194 2906 3042 
Q 3031 2891 3081 2659 
Q 3109 2516 3109 2141 
L 3109 1391 
Q 3109 606 3145 398 
Q 3181 191 3288 0 
L 2700 0 
Q 2613 175 2588 409 
z
M 2541 1666 
Q 2234 1541 1622 1453 
Q 1275 1403 1131 1340 
Q 988 1278 909 1158 
Q 831 1038 831 891 
Q 831 666 1001 516 
Q 1172 366 1500 366 
Q 1825 366 2078 508 
Q 2331 650 2450 897 
Q 2541 1088 2541 1459 
L 2541 1666 
z
" transform="scale(0.015625)"/>
       <path id="ArialMT-74" d="M 1650 503 
L 1731 6 
Q 1494 -44 1306 -44 
Q 1000 -44 831 53 
Q 663 150 594 308 
Q 525 466 525 972 
L 525 2881 
L 113 2881 
L 113 3319 
L 525 3319 
L 525 4141 
L 1084 4478 
L 1084 3319 
L 1650 3319 
L 1650 2881 
L 1084 2881 
L 1084 941 
Q 1084 700 1114 631 
Q 1144 563 1211 522 
Q 1278 481 1403 481 
Q 1497 481 1650 503 
z
" transform="scale(0.015625)"/>
       <path id="ArialMT-65" d="M 2694 1069 
L 3275 997 
Q 3138 488 2766 206 
Q 2394 -75 1816 -75 
Q 1088 -75 661 373 
Q 234 822 234 1631 
Q 234 2469 665 2931 
Q 1097 3394 1784 3394 
Q 2450 3394 2872 2941 
Q 3294 2488 3294 1666 
Q 3294 1616 3291 1516 
L 816 1516 
Q 847 969 1125 678 
Q 1403 388 1819 388 
Q 2128 388 2347 550 
Q 2566 713 2694 1069 
z
M 847 1978 
L 2700 1978 
Q 2663 2397 2488 2606 
Q 2219 2931 1791 2931 
Q 1403 2931 1139 2672 
Q 875 2413 847 1978 
z
" transform="scale(0.015625)"/>
      </defs>
      <use xlink:href="#ArialMT-44"/>
      <use xlink:href="#ArialMT-61" x="72.216797"/>
      <use xlink:href="#ArialMT-74" x="127.832031"/>
      <use xlink:href="#ArialMT-65" x="155.615234"/>
     </g>
    </g>
   </g>
   <g id="matplotlib.axis_2">
    <g id="ytick_1">
     <g id="line2d_8">
      <path d="M 62.400156 293.892102 
L 989.523906 293.892102 
" clip-path="url(#p32f579fb9d)" style="fill: none; stroke: #cccccc; stroke-linecap: round"/>
     </g>
     <g id="text_9">
      <!-- 0 -->
      <g style="fill: #262626" transform="translate(46.783125 297.828899) scale(0.11 -0.11)">
       <use xlink:href="#ArialMT-30"/>
      </g>
     </g>
    </g>
    <g id="ytick_2">
     <g id="line2d_9">
      <path d="M 62.400156 255.627415 
L 989.523906 255.627415 
" clip-path="url(#p32f579fb9d)" style="fill: none; stroke: #cccccc; stroke-linecap: round"/>
     </g>
     <g id="text_10">
      <!-- 5000 -->
      <g style="fill: #262626" transform="translate(28.432031 259.564211) scale(0.11 -0.11)">
       <defs>
        <path id="ArialMT-35" d="M 266 1200 
L 856 1250 
Q 922 819 1161 601 
Q 1400 384 1738 384 
Q 2144 384 2425 690 
Q 2706 997 2706 1503 
Q 2706 1984 2436 2262 
Q 2166 2541 1728 2541 
Q 1456 2541 1237 2417 
Q 1019 2294 894 2097 
L 366 2166 
L 809 4519 
L 3088 4519 
L 3088 3981 
L 1259 3981 
L 1013 2750 
Q 1425 3038 1878 3038 
Q 2478 3038 2890 2622 
Q 3303 2206 3303 1553 
Q 3303 931 2941 478 
Q 2500 -78 1738 -78 
Q 1113 -78 717 272 
Q 322 622 266 1200 
z
" transform="scale(0.015625)"/>
       </defs>
       <use xlink:href="#ArialMT-35"/>
       <use xlink:href="#ArialMT-30" x="55.615234"/>
       <use xlink:href="#ArialMT-30" x="111.230469"/>
       <use xlink:href="#ArialMT-30" x="166.845703"/>
      </g>
     </g>
    </g>
    <g id="ytick_3">
     <g id="line2d_10">
      <path d="M 62.400156 217.362727 
L 989.523906 217.362727 
" clip-path="url(#p32f579fb9d)" style="fill: none; stroke: #cccccc; stroke-linecap: round"/>
     </g>
     <g id="text_11">
      <!-- 10000 -->
      <g style="fill: #262626" transform="translate(22.315 221.299524) scale(0.11 -0.11)">
       <use xlink:href="#ArialMT-31"/>
       <use xlink:href="#ArialMT-30" x="55.615234"/>
       <use xlink:href="#ArialMT-30" x="111.230469"/>
       <use xlink:href="#ArialMT-30" x="166.845703"/>
       <use xlink:href="#ArialMT-30" x="222.460938"/>
      </g>
     </g>
    </g>
    <g id="ytick_4">
     <g id="line2d_11">
      <path d="M 62.400156 179.098039 
L 989.523906 179.098039 
" clip-path="url(#p32f579fb9d)" style="fill: none; stroke: #cccccc; stroke-linecap: round"/>
     </g>
     <g id="text_12">
      <!-- 15000 -->
      <g style="fill: #262626" transform="translate(22.315 183.034836) scale(0.11 -0.11)">
       <use xlink:href="#ArialMT-31"/>
       <use xlink:href="#ArialMT-35" x="55.615234"/>
       <use xlink:href="#ArialMT-30" x="111.230469"/>
       <use xlink:href="#ArialMT-30" x="166.845703"/>
       <use xlink:href="#ArialMT-30" x="222.460938"/>
      </g>
     </g>
    </g>
    <g id="ytick_5">
     <g id="line2d_12">
      <path d="M 62.400156 140.833352 
L 989.523906 140.833352 
" clip-path="url(#p32f579fb9d)" style="fill: none; stroke: #cccccc; stroke-linecap: round"/>
     </g>
     <g id="text_13">
      <!-- 20000 -->
      <g style="fill: #262626" transform="translate(22.315 144.770148) scale(0.11 -0.11)">
       <use xlink:href="#ArialMT-32"/>
       <use xlink:href="#ArialMT-30" x="55.615234"/>
       <use xlink:href="#ArialMT-30" x="111.230469"/>
       <use xlink:href="#ArialMT-30" x="166.845703"/>
       <use xlink:href="#ArialMT-30" x="222.460938"/>
      </g>
     </g>
    </g>
    <g id="ytick_6">
     <g id="line2d_13">
      <path d="M 62.400156 102.568664 
L 989.523906 102.568664 
" clip-path="url(#p32f579fb9d)" style="fill: none; stroke: #cccccc; stroke-linecap: round"/>
     </g>
     <g id="text_14">
      <!-- 25000 -->
      <g style="fill: #262626" transform="translate(22.315 106.505461) scale(0.11 -0.11)">
       <use xlink:href="#ArialMT-32"/>
       <use xlink:href="#ArialMT-35" x="55.615234"/>
       <use xlink:href="#ArialMT-30" x="111.230469"/>
       <use xlink:href="#ArialMT-30" x="166.845703"/>
       <use xlink:href="#ArialMT-30" x="222.460938"/>
      </g>
     </g>
    </g>
    <g id="ytick_7">
     <g id="line2d_14">
      <path d="M 62.400156 64.303976 
L 989.523906 64.303976 
" clip-path="url(#p32f579fb9d)" style="fill: none; stroke: #cccccc; stroke-linecap: round"/>
     </g>
     <g id="text_15">
      <!-- 30000 -->
      <g style="fill: #262626" transform="translate(22.315 68.240773) scale(0.11 -0.11)">
       <defs>
        <path id="ArialMT-33" d="M 269 1209 
L 831 1284 
Q 928 806 1161 595 
Q 1394 384 1728 384 
Q 2125 384 2398 659 
Q 2672 934 2672 1341 
Q 2672 1728 2419 1979 
Q 2166 2231 1775 2231 
Q 1616 2231 1378 2169 
L 1441 2663 
Q 1497 2656 1531 2656 
Q 1891 2656 2178 2843 
Q 2466 3031 2466 3422 
Q 2466 3731 2256 3934 
Q 2047 4138 1716 4138 
Q 1388 4138 1169 3931 
Q 950 3725 888 3313 
L 325 3413 
Q 428 3978 793 4289 
Q 1159 4600 1703 4600 
Q 2078 4600 2393 4439 
Q 2709 4278 2876 4000 
Q 3044 3722 3044 3409 
Q 3044 3113 2884 2869 
Q 2725 2625 2413 2481 
Q 2819 2388 3044 2092 
Q 3269 1797 3269 1353 
Q 3269 753 2831 336 
Q 2394 -81 1725 -81 
Q 1122 -81 723 278 
Q 325 638 269 1209 
z
" transform="scale(0.015625)"/>
       </defs>
       <use xlink:href="#ArialMT-33"/>
       <use xlink:href="#ArialMT-30" x="55.615234"/>
       <use xlink:href="#ArialMT-30" x="111.230469"/>
       <use xlink:href="#ArialMT-30" x="166.845703"/>
       <use xlink:href="#ArialMT-30" x="222.460938"/>
      </g>
     </g>
    </g>
    <g id="ytick_8">
     <g id="line2d_15">
      <path d="M 62.400156 26.039288 
L 989.523906 26.039288 
" clip-path="url(#p32f579fb9d)" style="fill: none; stroke: #cccccc; stroke-linecap: round"/>
     </g>
     <g id="text_16">
      <!-- 35000 -->
      <g style="fill: #262626" transform="translate(22.315 29.976085) scale(0.11 -0.11)">
       <use xlink:href="#ArialMT-33"/>
       <use xlink:href="#ArialMT-35" x="55.615234"/>
       <use xlink:href="#ArialMT-30" x="111.230469"/>
       <use xlink:href="#ArialMT-30" x="166.845703"/>
       <use xlink:href="#ArialMT-30" x="222.460938"/>
      </g>
     </g>
    </g>
    <g id="text_17">
     <!-- Daily cluster sales -->
     <g style="fill: #262626" transform="translate(15.789375 212.66625) rotate(-90) scale(0.12 -0.12)">
      <defs>
       <path id="ArialMT-69" d="M 425 3934 
L 425 4581 
L 988 4581 
L 988 3934 
L 425 3934 
z
M 425 0 
L 425 3319 
L 988 3319 
L 988 0 
L 425 0 
z
" transform="scale(0.015625)"/>
       <path id="ArialMT-6c" d="M 409 0 
L 409 4581 
L 972 4581 
L 972 0 
L 409 0 
z
" transform="scale(0.015625)"/>
       <path id="ArialMT-79" d="M 397 -1278 
L 334 -750 
Q 519 -800 656 -800 
Q 844 -800 956 -737 
Q 1069 -675 1141 -563 
Q 1194 -478 1313 -144 
Q 1328 -97 1363 -6 
L 103 3319 
L 709 3319 
L 1400 1397 
Q 1534 1031 1641 628 
Q 1738 1016 1872 1384 
L 2581 3319 
L 3144 3319 
L 1881 -56 
Q 1678 -603 1566 -809 
Q 1416 -1088 1222 -1217 
Q 1028 -1347 759 -1347 
Q 597 -1347 397 -1278 
z
" transform="scale(0.015625)"/>
       <path id="ArialMT-20" transform="scale(0.015625)"/>
       <path id="ArialMT-63" d="M 2588 1216 
L 3141 1144 
Q 3050 572 2676 248 
Q 2303 -75 1759 -75 
Q 1078 -75 664 370 
Q 250 816 250 1647 
Q 250 2184 428 2587 
Q 606 2991 970 3192 
Q 1334 3394 1763 3394 
Q 2303 3394 2647 3120 
Q 2991 2847 3088 2344 
L 2541 2259 
Q 2463 2594 2264 2762 
Q 2066 2931 1784 2931 
Q 1359 2931 1093 2626 
Q 828 2322 828 1663 
Q 828 994 1084 691 
Q 1341 388 1753 388 
Q 2084 388 2306 591 
Q 2528 794 2588 1216 
z
" transform="scale(0.015625)"/>
       <path id="ArialMT-75" d="M 2597 0 
L 2597 488 
Q 2209 -75 1544 -75 
Q 1250 -75 995 37 
Q 741 150 617 320 
Q 494 491 444 738 
Q 409 903 409 1263 
L 409 3319 
L 972 3319 
L 972 1478 
Q 972 1038 1006 884 
Q 1059 663 1231 536 
Q 1403 409 1656 409 
Q 1909 409 2131 539 
Q 2353 669 2445 892 
Q 2538 1116 2538 1541 
L 2538 3319 
L 3100 3319 
L 3100 0 
L 2597 0 
z
" transform="scale(0.015625)"/>
       <path id="ArialMT-73" d="M 197 991 
L 753 1078 
Q 800 744 1014 566 
Q 1228 388 1613 388 
Q 2000 388 2187 545 
Q 2375 703 2375 916 
Q 2375 1106 2209 1216 
Q 2094 1291 1634 1406 
Q 1016 1563 777 1677 
Q 538 1791 414 1992 
Q 291 2194 291 2438 
Q 291 2659 392 2848 
Q 494 3038 669 3163 
Q 800 3259 1026 3326 
Q 1253 3394 1513 3394 
Q 1903 3394 2198 3281 
Q 2494 3169 2634 2976 
Q 2775 2784 2828 2463 
L 2278 2388 
Q 2241 2644 2061 2787 
Q 1881 2931 1553 2931 
Q 1166 2931 1000 2803 
Q 834 2675 834 2503 
Q 834 2394 903 2306 
Q 972 2216 1119 2156 
Q 1203 2125 1616 2013 
Q 2213 1853 2448 1751 
Q 2684 1650 2818 1456 
Q 2953 1263 2953 975 
Q 2953 694 2789 445 
Q 2625 197 2315 61 
Q 2006 -75 1616 -75 
Q 969 -75 630 194 
Q 291 463 197 991 
z
" transform="scale(0.015625)"/>
       <path id="ArialMT-72" d="M 416 0 
L 416 3319 
L 922 3319 
L 922 2816 
Q 1116 3169 1280 3281 
Q 1444 3394 1641 3394 
Q 1925 3394 2219 3213 
L 2025 2691 
Q 1819 2813 1613 2813 
Q 1428 2813 1281 2702 
Q 1134 2591 1072 2394 
Q 978 2094 978 1738 
L 978 0 
L 416 0 
z
" transform="scale(0.015625)"/>
      </defs>
      <use xlink:href="#ArialMT-44"/>
      <use xlink:href="#ArialMT-61" x="72.216797"/>
      <use xlink:href="#ArialMT-69" x="127.832031"/>
      <use xlink:href="#ArialMT-6c" x="150.048828"/>
      <use xlink:href="#ArialMT-79" x="172.265625"/>
      <use xlink:href="#ArialMT-20" x="222.265625"/>
      <use xlink:href="#ArialMT-63" x="250.048828"/>
      <use xlink:href="#ArialMT-6c" x="300.048828"/>
      <use xlink:href="#ArialMT-75" x="322.265625"/>
      <use xlink:href="#ArialMT-73" x="377.880859"/>
      <use xlink:href="#ArialMT-74" x="427.880859"/>
      <use xlink:href="#ArialMT-65" x="455.664062"/>
      <use xlink:href="#ArialMT-72" x="511.279297"/>
      <use xlink:href="#ArialMT-20" x="544.580078"/>
      <use xlink:href="#ArialMT-73" x="572.363281"/>
      <use xlink:href="#ArialMT-61" x="622.363281"/>
      <use xlink:href="#ArialMT-6c" x="677.978516"/>
      <use xlink:href="#ArialMT-65" x="700.195312"/>
      <use xlink:href="#ArialMT-73" x="755.810547"/>
     </g>
    </g>
   </g>
   <g id="PolyCollection_1">
    <defs>
     <path id="m4e049506fb" d="M 104.542145 -220.580013 
L 104.542145 -54.691491 
L 109.122796 -54.691491 
L 113.703447 -54.691491 
L 118.284098 -54.691491 
L 122.864749 -54.691491 
L 127.4454 -54.691491 
L 132.026051 -54.691491 
L 136.606701 -54.691491 
L 141.187352 -54.691491 
L 145.768003 -54.691491 
L 150.348654 -54.691491 
L 154.929305 -54.691491 
L 159.509956 -54.691491 
L 164.090607 -54.691491 
L 168.671258 -54.691491 
L 173.251909 -54.691491 
L 177.83256 -55.621409 
L 182.413211 -57.483952 
L 186.993862 -54.691491 
L 191.574513 -54.691491 
L 196.155164 -54.691491 
L 200.735815 -55.895814 
L 205.316466 -57.343326 
L 209.897116 -54.691491 
L 214.477767 -54.691491 
L 219.058418 -54.691491 
L 223.639069 -54.691491 
L 228.21972 -54.691491 
L 232.800371 -54.691491 
L 237.381022 -54.691491 
L 241.961673 -54.691491 
L 246.542324 -54.691491 
L 251.122975 -54.691491 
L 255.703626 -54.691491 
L 260.284277 -54.691491 
L 264.864928 -54.691491 
L 269.445579 -54.691491 
L 274.02623 -54.691491 
L 278.606881 -54.691491 
L 283.187531 -54.691491 
L 287.768182 -54.691491 
L 292.348833 -54.691491 
L 296.929484 -54.691491 
L 301.510135 -54.691491 
L 306.090786 -54.691491 
L 310.671437 -54.691491 
L 315.252088 -54.691491 
L 319.832739 -54.691491 
L 324.41339 -54.691491 
L 328.994041 -54.691491 
L 333.574692 -54.691491 
L 338.155343 -54.691491 
L 342.735994 -54.691491 
L 347.316645 -54.691491 
L 351.897296 -54.691491 
L 356.477947 -54.691491 
L 361.058597 -54.691491 
L 365.639248 -54.691491 
L 370.219899 -54.691491 
L 374.80055 -54.691491 
L 379.381201 -54.691491 
L 383.961852 -54.691491 
L 388.542503 -54.691491 
L 393.123154 -54.691491 
L 397.703805 -54.691491 
L 402.284456 -54.691491 
L 406.865107 -54.691491 
L 411.445758 -54.691491 
L 416.026409 -54.691491 
L 420.60706 -54.691491 
L 425.187711 -54.691491 
L 429.768362 -54.691491 
L 434.349012 -54.691491 
L 438.929663 -54.691491 
L 443.510314 -54.691491 
L 448.090965 -54.691491 
L 452.671616 -54.691491 
L 457.252267 -54.691491 
L 461.832918 -54.691491 
L 466.413569 -54.691491 
L 470.99422 -54.691491 
L 475.574871 -54.691491 
L 480.155522 -54.691491 
L 484.736173 -54.691491 
L 489.316824 -54.691491 
L 493.897475 -54.691491 
L 498.478126 -54.691491 
L 503.058777 -54.691491 
L 507.639427 -54.691491 
L 512.220078 -54.691491 
L 516.800729 -54.691491 
L 521.38138 -54.691491 
L 525.962031 -54.691491 
L 530.542682 -54.691491 
L 535.123333 -54.691491 
L 539.703984 -54.691491 
L 544.284635 -54.691491 
L 548.865286 -54.691491 
L 553.445937 -54.691491 
L 558.026588 -54.691491 
L 562.607239 -54.691491 
L 567.18789 -54.691491 
L 571.768541 -54.691491 
L 576.349192 -54.691491 
L 580.929843 -54.691491 
L 585.510493 -54.691491 
L 590.091144 -54.691491 
L 594.671795 -54.691491 
L 599.252446 -54.691491 
L 603.833097 -54.691491 
L 608.413748 -54.691491 
L 612.994399 -54.691491 
L 617.57505 -54.691491 
L 622.155701 -54.691491 
L 626.736352 -54.691491 
L 631.317003 -54.691491 
L 635.897654 -54.691491 
L 640.478305 -54.691491 
L 645.058956 -54.691491 
L 649.639607 -54.691491 
L 654.220258 -54.691491 
L 658.800908 -54.691491 
L 663.381559 -54.691491 
L 667.96221 -54.691491 
L 672.542861 -54.691491 
L 677.123512 -54.691491 
L 681.704163 -54.691491 
L 686.284814 -54.691491 
L 690.865465 -54.691491 
L 695.446116 -54.691491 
L 700.026767 -54.691491 
L 704.607418 -54.691491 
L 709.188069 -54.691491 
L 713.76872 -54.691491 
L 718.349371 -54.691491 
L 722.930022 -54.691491 
L 727.510673 -54.691491 
L 732.091323 -54.691491 
L 736.671974 -54.691491 
L 741.252625 -54.691491 
L 745.833276 -54.691491 
L 750.413927 -54.691491 
L 754.994578 -54.691491 
L 759.575229 -54.691491 
L 764.15588 -54.691491 
L 768.736531 -54.691491 
L 773.317182 -54.691491 
L 777.897833 -54.691491 
L 782.478484 -54.691491 
L 787.059135 -54.691491 
L 791.639786 -54.691491 
L 796.220437 -54.691491 
L 800.801088 -54.691491 
L 805.381739 -54.691491 
L 809.962389 -54.691491 
L 814.54304 -54.691491 
L 819.123691 -54.691491 
L 823.704342 -54.691491 
L 828.284993 -54.691491 
L 832.865644 -54.691491 
L 837.446295 -54.691491 
L 842.026946 -54.691491 
L 846.607597 -54.691491 
L 851.188248 -54.691491 
L 855.768899 -54.691491 
L 860.34955 -54.691491 
L 864.930201 -54.691491 
L 869.510852 -54.691491 
L 874.091503 -54.691491 
L 878.672154 -54.691491 
L 883.252804 -54.691491 
L 887.833455 -54.691491 
L 892.414106 -54.691491 
L 896.994757 -54.691491 
L 901.575408 -54.691491 
L 906.156059 -54.691491 
L 910.73671 -54.691491 
L 915.317361 -54.691491 
L 919.898012 -54.691491 
L 924.478663 -54.691491 
L 929.059314 -54.691491 
L 933.639965 -54.691491 
L 938.220616 -54.691491 
L 942.801267 -54.691491 
L 947.381918 -54.691491 
L 947.381918 -221.120852 
L 947.381918 -221.120852 
L 942.801267 -219.938506 
L 938.220616 -220.105321 
L 933.639965 -219.978952 
L 929.059314 -218.232494 
L 924.478663 -218.48245 
L 919.898012 -218.134421 
L 915.317361 -218.059091 
L 910.73671 -217.909638 
L 906.156059 -218.045701 
L 901.575408 -217.611879 
L 896.994757 -217.406906 
L 892.414106 -217.614335 
L 887.833455 -217.263096 
L 883.252804 -217.215284 
L 878.672154 -217.402795 
L 874.091503 -216.940326 
L 869.510852 -216.476683 
L 864.930201 -216.524248 
L 860.34955 -216.804986 
L 855.768899 -216.454282 
L 851.188248 -216.624397 
L 846.607597 -216.740089 
L 842.026946 -216.645377 
L 837.446295 -216.327806 
L 832.865644 -213.963135 
L 828.284993 -214.257572 
L 823.704342 -213.896672 
L 819.123691 -213.883344 
L 814.54304 -213.475715 
L 809.962389 -212.734835 
L 805.381739 -212.443486 
L 800.801088 -212.046167 
L 796.220437 -212.340398 
L 791.639786 -211.977919 
L 787.059135 -211.418206 
L 782.478484 -209.867686 
L 777.897833 -210.015047 
L 773.317182 -210.322736 
L 768.736531 -210.100501 
L 764.15588 -210.372659 
L 759.575229 -210.00217 
L 754.994578 -210.311548 
L 750.413927 -210.543459 
L 745.833276 -210.797809 
L 741.252625 -211.102451 
L 736.671974 -211.351845 
L 732.091323 -211.529259 
L 727.510673 -211.148986 
L 722.930022 -211.409714 
L 718.349371 -211.749727 
L 713.76872 -212.091668 
L 709.188069 -212.194095 
L 704.607418 -212.390963 
L 700.026767 -212.740195 
L 695.446116 -212.357908 
L 690.865465 -212.71753 
L 686.284814 -213.04571 
L 681.704163 -213.413827 
L 677.123512 -213.739854 
L 672.542861 -213.750939 
L 667.96221 -213.901727 
L 663.381559 -213.500026 
L 658.800908 -211.072848 
L 654.220258 -210.835855 
L 649.639607 -210.478841 
L 645.058956 -209.949373 
L 640.478305 -209.964072 
L 635.897654 -210.178195 
L 631.317003 -209.756616 
L 626.736352 -210.1442 
L 622.155701 -210.218415 
L 617.57505 -210.460907 
L 612.994399 -210.600205 
L 608.413748 -210.900175 
L 603.833097 -211.300703 
L 599.252446 -210.886215 
L 594.671795 -211.220496 
L 590.091144 -210.478458 
L 585.510493 -210.564032 
L 580.929843 -202.685645 
L 576.349192 -203.086053 
L 571.768541 -203.43044 
L 567.18789 -202.932728 
L 562.607239 -203.326036 
L 558.026588 -203.416283 
L 553.445937 -203.841908 
L 548.865286 -203.359038 
L 544.284635 -203.622694 
L 539.703984 -203.587029 
L 535.123333 -203.091803 
L 530.542682 -203.516361 
L 525.962031 -203.956751 
L 521.38138 -204.3715 
L 516.800729 -204.818267 
L 512.220078 -205.292066 
L 507.639427 -205.678119 
L 503.058777 -205.163343 
L 498.478126 -204.295886 
L 493.897475 -204.600481 
L 489.316824 -204.253287 
L 484.736173 -204.376923 
L 480.155522 -203.812254 
L 475.574871 -204.034578 
L 470.99422 -203.406381 
L 466.413569 -203.75349 
L 461.832918 -204.291518 
L 457.252267 -203.817698 
L 452.671616 -204.318006 
L 448.090965 -204.868046 
L 443.510314 -205.279535 
L 438.929663 -204.586409 
L 434.349012 -205.040933 
L 429.768362 -205.533649 
L 425.187711 -204.006511 
L 420.60706 -204.593685 
L 416.026409 -205.119674 
L 411.445758 -205.131774 
L 406.865107 -204.323649 
L 402.284456 -204.910587 
L 397.703805 -202.330492 
L 393.123154 -202.801966 
L 388.542503 -203.303627 
L 383.961852 -203.979634 
L 379.381201 -204.147007 
L 374.80055 -203.197568 
L 370.219899 -203.897348 
L 365.639248 -193.75267 
L 361.058597 -193.648505 
L 356.477947 -194.321406 
L 351.897296 -194.99935 
L 347.316645 -195.509514 
L 342.735994 -194.245449 
L 338.155343 -194.957899 
L 333.574692 -191.659621 
L 328.994041 -192.357625 
L 324.41339 -193.096281 
L 319.832739 -193.756406 
L 315.252088 -194.345612 
L 310.671437 -192.928677 
L 306.090786 -193.758371 
L 301.510135 -194.449487 
L 296.929484 -194.451904 
L 292.348833 -193.063049 
L 287.768182 -193.710396 
L 283.187531 -194.650357 
L 278.606881 -193.125837 
L 274.02623 -193.988186 
L 269.445579 -194.832158 
L 264.864928 -195.914755 
L 260.284277 -196.966186 
L 255.703626 -197.928588 
L 251.122975 -197.995814 
L 246.542324 -196.091311 
L 241.961673 -197.367031 
L 237.381022 -197.680584 
L 232.800371 -198.929861 
L 228.21972 -193.478814 
L 223.639069 -193.175362 
L 219.058418 -193.086946 
L 214.477767 -190.581926 
L 209.897116 -191.568722 
L 205.316466 -183.911812 
L 200.735815 -185.359324 
L 196.155164 -186.767622 
L 191.574513 -188.577439 
L 186.993862 -188.245606 
L 182.413211 -183.771186 
L 177.83256 -185.633729 
L 173.251909 -187.725644 
L 168.671258 -190.245796 
L 164.090607 -192.737218 
L 159.509956 -194.43115 
L 154.929305 -198.009579 
L 150.348654 -191.297503 
L 145.768003 -195.401178 
L 141.187352 -197.144385 
L 136.606701 -202.949808 
L 132.026051 -220.580013 
L 127.4454 -220.580013 
L 122.864749 -220.580013 
L 118.284098 -220.580013 
L 113.703447 -220.580013 
L 109.122796 -220.580013 
L 104.542145 -220.580013 
z
" style="stroke: #ff7f0e; stroke-opacity: 0.16"/>
    </defs>
    <g clip-path="url(#p32f579fb9d)">
     <use xlink:href="#m4e049506fb" x="0" y="348.583594" style="fill: #ff7f0e; fill-opacity: 0.16; stroke: #ff7f0e; stroke-opacity: 0.16"/>
    </g>
   </g>
   <g id="PolyCollection_2">
    <defs>
     <path id="m9b81ab031f" d="M 104.542145 -181.402661 
L 104.542145 -54.691491 
L 109.122796 -58.507978 
L 113.703447 -54.691491 
L 118.284098 -54.691491 
L 122.864749 -54.691491 
L 127.4454 -54.691491 
L 132.026051 -54.691491 
L 136.606701 -58.220989 
L 141.187352 -56.335317 
L 145.768003 -54.691491 
L 150.348654 -54.691491 
L 154.929305 -54.691491 
L 159.509956 -54.691491 
L 164.090607 -54.691491 
L 168.671258 -56.012857 
L 173.251909 -57.544122 
L 177.83256 -54.691491 
L 182.413211 -54.691491 
L 186.993862 -54.691491 
L 191.574513 -66.733014 
L 196.155164 -73.029585 
L 200.735815 -72.082376 
L 205.316466 -71.803364 
L 209.897116 -54.691491 
L 214.477767 -54.691491 
L 219.058418 -54.691491 
L 223.639069 -61.061103 
L 228.21972 -72.170644 
L 232.800371 -63.625654 
L 237.381022 -63.410549 
L 241.961673 -54.691491 
L 246.542324 -54.691491 
L 251.122975 -54.691491 
L 255.703626 -54.691491 
L 260.284277 -54.691491 
L 264.864928 -54.691491 
L 269.445579 -54.691491 
L 274.02623 -54.691491 
L 278.606881 -54.691491 
L 283.187531 -54.691491 
L 287.768182 -54.691491 
L 292.348833 -61.744375 
L 296.929484 -54.691491 
L 301.510135 -55.590576 
L 306.090786 -54.691491 
L 310.671437 -54.691491 
L 315.252088 -54.691491 
L 319.832739 -54.691491 
L 324.41339 -61.383309 
L 328.994041 -57.487744 
L 333.574692 -61.981888 
L 338.155343 -54.691491 
L 342.735994 -54.691491 
L 347.316645 -54.691491 
L 351.897296 -54.691491 
L 356.477947 -57.842075 
L 361.058597 -54.691491 
L 365.639248 -62.273882 
L 370.219899 -54.691491 
L 374.80055 -54.691491 
L 379.381201 -54.691491 
L 383.961852 -54.691491 
L 388.542503 -54.691491 
L 393.123154 -54.691491 
L 397.703805 -54.691491 
L 402.284456 -54.691491 
L 406.865107 -54.691491 
L 411.445758 -54.691491 
L 416.026409 -54.691491 
L 420.60706 -54.691491 
L 425.187711 -54.691491 
L 429.768362 -54.691491 
L 434.349012 -54.691491 
L 438.929663 -54.691491 
L 443.510314 -54.691491 
L 448.090965 -54.691491 
L 452.671616 -54.691491 
L 457.252267 -54.691491 
L 461.832918 -55.094634 
L 466.413569 -54.691491 
L 470.99422 -54.691491 
L 475.574871 -54.691491 
L 480.155522 -54.691491 
L 484.736173 -72.434495 
L 489.316824 -65.448848 
L 493.897475 -54.691491 
L 498.478126 -54.691491 
L 503.058777 -54.691491 
L 507.639427 -54.691491 
L 512.220078 -56.190525 
L 516.800729 -67.733191 
L 521.38138 -54.691491 
L 525.962031 -62.52352 
L 530.542682 -54.691491 
L 535.123333 -54.691491 
L 539.703984 -54.691491 
L 544.284635 -67.892028 
L 548.865286 -75.816352 
L 553.445937 -61.783988 
L 558.026588 -72.027947 
L 562.607239 -54.691491 
L 567.18789 -54.691491 
L 571.768541 -54.691491 
L 576.349192 -78.342741 
L 580.929843 -97.876354 
L 585.510493 -58.338632 
L 590.091144 -82.085835 
L 594.671795 -54.691491 
L 599.252446 -54.691491 
L 603.833097 -54.691491 
L 608.413748 -90.029523 
L 612.994399 -105.381217 
L 617.57505 -77.955038 
L 622.155701 -89.962408 
L 626.736352 -54.691491 
L 631.317003 -54.691491 
L 635.897654 -54.691491 
L 640.478305 -77.889461 
L 645.058956 -104.977193 
L 649.639607 -72.335652 
L 654.220258 -103.948374 
L 658.800908 -56.876288 
L 663.381559 -54.691491 
L 667.96221 -54.691491 
L 672.542861 -74.861584 
L 677.123512 -91.701629 
L 681.704163 -74.24839 
L 686.284814 -95.055534 
L 690.865465 -54.691491 
L 695.446116 -54.691491 
L 700.026767 -54.691491 
L 704.607418 -56.451436 
L 709.188069 -73.27166 
L 713.76872 -64.549283 
L 718.349371 -64.416465 
L 722.930022 -54.691491 
L 727.510673 -54.691491 
L 732.091323 -54.691491 
L 736.671974 -54.691491 
L 741.252625 -66.30333 
L 745.833276 -55.027835 
L 750.413927 -54.691491 
L 754.994578 -54.691491 
L 759.575229 -54.691491 
L 764.15588 -54.691491 
L 768.736531 -62.034179 
L 773.317182 -77.399589 
L 777.897833 -70.48399 
L 782.478484 -88.058766 
L 787.059135 -55.414916 
L 791.639786 -54.691491 
L 796.220437 -54.691491 
L 800.801088 -103.558009 
L 805.381739 -120.50346 
L 809.962389 -109.986234 
L 814.54304 -105.206092 
L 819.123691 -57.221071 
L 823.704342 -54.691491 
L 828.284993 -54.691491 
L 832.865644 -96.081788 
L 837.446295 -109.322621 
L 842.026946 -95.448067 
L 846.607597 -82.270859 
L 851.188248 -54.691491 
L 855.768899 -54.691491 
L 860.34955 -54.691491 
L 864.930201 -70.465437 
L 869.510852 -88.525977 
L 874.091503 -86.476834 
L 878.672154 -85.535932 
L 883.252804 -54.691491 
L 887.833455 -54.691491 
L 892.414106 -54.691491 
L 896.994757 -76.623457 
L 901.575408 -98.579404 
L 906.156059 -82.910202 
L 910.73671 -137.272817 
L 915.317361 -77.40571 
L 919.898012 -54.691491 
L 924.478663 -58.389862 
L 929.059314 -135.25356 
L 933.639965 -143.485016 
L 938.220616 -134.386905 
L 942.801267 -135.681336 
L 947.381918 -59.737861 
L 947.381918 -187.192487 
L 947.381918 -187.192487 
L 942.801267 -263.24875 
L 938.220616 -261.188511 
L 933.639965 -270.155304 
L 929.059314 -261.588534 
L 924.478663 -184.783371 
L 919.898012 -117.977829 
L 915.317361 -204.166114 
L 910.73671 -264.031776 
L 906.156059 -210.02532 
L 901.575408 -225.878225 
L 896.994757 -203.967324 
L 892.414106 -160.417284 
L 887.833455 -118.5977 
L 883.252804 -175.247494 
L 878.672154 -213.220659 
L 874.091503 -214.10878 
L 869.510852 -216.169346 
L 864.930201 -198.409601 
L 860.34955 -165.674623 
L 855.768899 -118.934124 
L 851.188248 -177.641352 
L 846.607597 -211.338211 
L 842.026946 -224.917854 
L 837.446295 -239.198875 
L 832.865644 -223.419267 
L 828.284993 -170.943506 
L 823.704342 -118.677421 
L 819.123691 -185.221578 
L 814.54304 -233.601085 
L 809.962389 -238.690063 
L 805.381739 -249.525402 
L 800.801088 -232.995729 
L 796.220437 -170.622096 
L 791.639786 -119.747829 
L 787.059135 -184.499771 
L 782.478484 -215.94733 
L 777.897833 -198.80978 
L 773.317182 -205.503693 
L 768.736531 -190.064511 
L 764.15588 -157.639965 
L 759.575229 -118.943502 
L 754.994578 -161.783328 
L 750.413927 -184.059226 
L 745.833276 -184.888457 
L 741.252625 -196.492445 
L 736.671974 -176.655493 
L 732.091323 -159.75552 
L 727.510673 -120.243303 
L 722.930022 -168.616794 
L 718.349371 -196.00184 
L 713.76872 -196.353247 
L 709.188069 -205.577428 
L 704.607418 -189.229291 
L 700.026767 -166.507088 
L 695.446116 -121.48995 
L 690.865465 -185.637521 
L 686.284814 -228.55772 
L 681.704163 -207.442461 
L 677.123512 -222.853791 
L 672.542861 -206.530733 
L 667.96221 -170.223336 
L 663.381559 -120.512517 
L 658.800908 -183.453385 
L 654.220258 -231.010719 
L 649.639607 -199.567723 
L 645.058956 -232.751826 
L 640.478305 -206.213537 
L 635.897654 -167.686101 
L 631.317003 -118.932669 
L 626.736352 -179.876546 
L 622.155701 -219.378534 
L 617.57505 -207.800681 
L 612.994399 -235.102398 
L 608.413748 -219.683316 
L 603.833097 -161.953792 
L 599.252446 -119.947967 
L 594.671795 -168.319036 
L 590.091144 -213.392858 
L 585.510493 -190.192046 
L 580.929843 -220.164509 
L 576.349192 -199.890412 
L 571.768541 -152.664897 
L 567.18789 -115.845038 
L 562.607239 -158.2181 
L 558.026588 -195.53958 
L 553.445937 -185.361966 
L 548.865286 -199.837264 
L 544.284635 -192.493522 
L 539.703984 -151.03531 
L 535.123333 -116.726175 
L 530.542682 -157.072546 
L 525.962031 -187.505911 
L 521.38138 -179.998229 
L 516.800729 -193.478129 
L 512.220078 -182.014042 
L 507.639427 -149.4711 
L 503.058777 -118.061006 
L 498.478126 -152.657691 
L 493.897475 -176.317599 
L 489.316824 -184.616928 
L 484.736173 -192.318036 
L 480.155522 -128.742345 
L 475.574871 -144.093138 
L 470.99422 -114.650293 
L 466.413569 -141.384794 
L 461.832918 -175.979709 
L 457.252267 -170.979937 
L 452.671616 -174.707431 
L 448.090965 -147.865963 
L 443.510314 -140.752847 
L 438.929663 -115.564146 
L 434.349012 -145.717464 
L 429.768362 -174.29384 
L 425.187711 -170.609901 
L 420.60706 -170.608913 
L 416.026409 -155.222068 
L 411.445758 -141.395655 
L 406.865107 -115.498992 
L 402.284456 -147.412851 
L 397.703805 -169.736995 
L 393.123154 -166.633163 
L 388.542503 -171.140931 
L 383.961852 -160.852194 
L 379.381201 -140.364994 
L 374.80055 -114.240158 
L 370.219899 -143.177736 
L 365.639248 -158.886771 
L 361.058597 -147.570945 
L 356.477947 -154.396114 
L 351.897296 -139.112058 
L 347.316645 -120.088424 
L 342.735994 -103.858417 
L 338.155343 -130.033154 
L 333.574692 -153.739423 
L 328.994041 -150.183136 
L 324.41339 -154.899598 
L 319.832739 -144.950606 
L 315.252088 -121.959344 
L 310.671437 -101.22147 
L 306.090786 -128.771871 
L 301.510135 -150.306054 
L 296.929484 -147.482224 
L 292.348833 -152.666131 
L 287.768182 -142.376195 
L 283.187531 -122.148976 
L 278.606881 -101.010767 
L 274.02623 -130.404449 
L 269.445579 -146.799913 
L 264.864928 -147.692969 
L 260.284277 -146.922511 
L 255.703626 -139.055118 
L 251.122975 -124.266842 
L 246.542324 -104.292449 
L 241.961673 -132.173579 
L 237.381022 -164.394818 
L 232.800371 -166.375226 
L 228.21972 -165.863757 
L 223.639069 -154.106596 
L 219.058418 -121.324284 
L 214.477767 -102.070495 
L 209.897116 -128.980379 
L 205.316466 -151.633345 
L 200.735815 -153.605709 
L 196.155164 -156.502496 
L 191.574513 -151.614432 
L 186.993862 -122.135537 
L 182.413211 -97.355443 
L 177.83256 -128.951475 
L 173.251909 -148.592637 
L 168.671258 -150.117398 
L 164.090607 -151.351044 
L 159.509956 -147.378187 
L 154.929305 -126.695288 
L 150.348654 -106.427389 
L 145.768003 -145.229184 
L 141.187352 -168.137336 
L 136.606701 -173.665778 
L 132.026051 -172.030136 
L 127.4454 -170.423875 
L 122.864749 -159.73779 
L 118.284098 -118.142815 
L 113.703447 -171.446249 
L 109.122796 -185.410624 
L 104.542145 -181.402661 
z
" style="stroke: #2ca02c; stroke-opacity: 0.16"/>
    </defs>
    <g clip-path="url(#p32f579fb9d)">
     <use xlink:href="#m9b81ab031f" x="0" y="348.583594" style="fill: #2ca02c; fill-opacity: 0.16; stroke: #2ca02c; stroke-opacity: 0.16"/>
    </g>
   </g>
   <g id="line2d_16">
    <path d="M 104.542145 210.896837 
L 109.122796 211.598458 
L 113.703447 244.298312 
L 118.284098 293.892102 
L 122.864749 256.807115 
L 127.4454 233.40206 
L 132.026051 160.2549 
L 136.606701 239.952515 
L 141.187352 198.27125 
L 145.768003 235.674446 
L 150.348654 293.892102 
L 154.929305 237.686174 
L 159.509956 208.268282 
L 164.090607 219.613303 
L 168.671258 234.286356 
L 173.251909 221.964974 
L 177.83256 241.905238 
L 182.413211 293.892102 
L 186.993862 273.819365 
L 191.574513 236.074465 
L 196.155164 223.605764 
L 200.735815 227.642459 
L 205.316466 151.152419 
L 209.897116 254.883396 
L 214.477767 293.892102 
L 219.058418 274.740014 
L 223.639069 195.771265 
L 228.21972 149.612342 
L 232.800371 219.069026 
L 237.381022 197.34402 
L 241.961673 226.993413 
L 246.542324 293.892102 
L 251.122975 271.925876 
L 255.703626 217.006253 
L 260.284277 223.201153 
L 264.864928 234.354697 
L 269.445579 216.833603 
L 274.02623 246.878576 
L 278.606881 293.892102 
L 283.187531 239.661091 
L 287.768182 214.483003 
L 292.348833 174.304163 
L 301.510135 215.171997 
L 306.090786 228.548796 
L 310.671437 293.892102 
L 315.252088 213.380368 
L 319.832739 217.769787 
L 324.41339 226.240211 
L 328.994041 223.846372 
L 333.574692 144.252225 
L 338.155343 236.602365 
L 342.735994 293.892102 
L 347.316645 252.042396 
L 351.897296 226.587807 
L 356.477947 231.408469 
L 361.058597 191.416361 
L 365.639248 71.905792 
L 370.219899 235.769649 
L 374.80055 293.892102 
L 379.381201 267.10376 
L 383.961852 225.093801 
L 388.542503 251.438656 
L 393.123154 208.194584 
L 397.703805 135.246018 
L 402.284456 242.265768 
L 406.865107 293.892102 
L 411.445758 272.903156 
L 416.026409 247.670273 
L 420.60706 239.217144 
L 425.187711 149.739075 
L 429.768362 211.322722 
L 434.349012 250.138728 
L 438.929663 293.892102 
L 443.510314 253.742496 
L 448.090965 224.274477 
L 452.671616 244.039949 
L 457.252267 172.463631 
L 461.832918 230.104256 
L 466.413569 255.222498 
L 470.99422 293.892102 
L 475.574871 263.661468 
L 480.155522 293.892102 
L 484.736173 195.159489 
L 489.316824 288.011202 
L 493.897475 206.005308 
L 498.478126 160.667546 
L 503.058777 293.892102 
L 507.639427 251.957678 
L 512.220078 236.066353 
L 516.800729 223.161358 
L 521.38138 218.812499 
L 525.962031 224.887019 
L 530.542682 222.745344 
L 535.123333 293.892102 
L 539.703984 188.525004 
L 544.284635 205.699956 
L 548.865286 170.040558 
L 553.445937 231.746117 
L 558.026588 193.817546 
L 562.607239 221.453758 
L 567.18789 293.892102 
L 571.768541 248.181183 
L 576.349192 233.667157 
L 580.929843 34.746648 
L 585.510493 188.619212 
L 590.091144 152.983844 
L 594.671795 207.387659 
L 599.252446 293.892102 
L 603.833097 219.963807 
L 608.413748 205.028794 
L 612.994399 191.497635 
L 617.57505 199.550132 
L 622.155701 186.877097 
L 626.736352 222.297494 
L 631.317003 293.892102 
L 635.897654 259.069247 
L 640.478305 183.805131 
L 645.058956 157.364998 
L 649.639607 163.469593 
L 654.220258 168.148599 
L 658.800908 99.107011 
L 663.381559 293.892102 
L 667.96221 263.291832 
L 672.542861 179.504334 
L 677.123512 243.064199 
L 681.704163 228.488797 
L 686.284814 211.331753 
L 690.865465 228.390074 
L 695.446116 293.892102 
L 700.026767 232.68452 
L 704.607418 195.620272 
L 709.188069 187.135307 
L 713.76872 222.177037 
L 718.349371 224.171775 
L 722.930022 204.080442 
L 727.510673 293.892102 
L 732.091323 258.26454 
L 736.671974 203.858966 
L 741.252625 214.706316 
L 745.833276 205.256009 
L 750.413927 202.247257 
L 754.994578 232.967985 
L 759.575229 293.892102 
L 764.15588 210.241439 
L 768.736531 166.467172 
L 773.317182 226.466738 
L 777.897833 193.291024 
L 782.478484 112.292563 
L 787.059135 146.805934 
L 791.639786 293.892102 
L 796.220437 216.617178 
L 800.801088 153.709649 
L 805.381739 158.575998 
L 809.962389 136.111183 
L 814.54304 150.51692 
L 819.123691 174.333397 
L 823.704342 293.892102 
L 828.284993 219.01293 
L 832.865644 78.663719 
L 837.446295 151.966462 
L 842.026946 165.479025 
L 846.607597 183.117132 
L 851.188248 189.360782 
L 855.768899 293.892102 
L 860.34955 211.938784 
L 869.510852 141.840172 
L 874.091503 141.019777 
L 878.672154 191.163584 
L 883.252804 166.687423 
L 887.833455 293.892102 
L 892.414106 245.778161 
L 896.994757 155.175569 
L 901.575408 140.601391 
L 906.156059 183.89888 
L 910.73671 157.552724 
L 915.317361 162.733533 
L 919.898012 293.892102 
L 924.478663 233.842639 
L 929.059314 82.432714 
L 933.639965 156.993754 
L 938.220616 186.301214 
L 942.801267 100.032327 
L 947.381918 223.37365 
L 947.381918 223.37365 
" clip-path="url(#p32f579fb9d)" style="fill: none; stroke: #1f77b4; stroke-width: 2.2; stroke-linecap: round"/>
   </g>
   <g id="line2d_17">
    <path d="M 104.542145 227.956025 
L 947.381918 227.956025 
L 947.381918 227.956025 
" clip-path="url(#p32f579fb9d)" style="fill: none; stroke: #ff7f0e; stroke-width: 1.8; stroke-linecap: round"/>
   </g>
   <g id="line2d_18">
    <path d="M 104.542145 230.632256 
L 109.122796 226.624293 
L 113.703447 240.588668 
L 118.284098 293.892102 
L 122.864749 252.297126 
L 127.4454 241.611042 
L 132.026051 240.004781 
L 136.606701 232.64021 
L 141.187352 236.347267 
L 145.768003 258.074121 
L 150.348654 293.892102 
L 159.509956 250.145616 
L 164.090607 246.027727 
L 168.671258 245.518466 
L 173.251909 245.515214 
L 177.83256 263.675214 
L 182.413211 293.892102 
L 186.993862 268.780093 
L 191.574513 239.409871 
L 196.155164 233.817553 
L 200.735815 235.739551 
L 205.316466 236.865239 
L 209.897116 267.993894 
L 214.477767 293.892102 
L 219.058418 274.199762 
L 223.639069 240.999744 
L 228.21972 229.566393 
L 232.800371 233.583154 
L 237.381022 234.68091 
L 241.961673 266.408248 
L 246.542324 293.892102 
L 251.122975 273.662451 
L 255.703626 258.520094 
L 260.284277 250.443903 
L 264.864928 249.000627 
L 269.445579 249.244255 
L 274.02623 265.129191 
L 278.606881 293.892102 
L 283.187531 272.608331 
L 287.768182 251.952003 
L 292.348833 241.378341 
L 296.929484 248.109536 
L 301.510135 245.635279 
L 306.090786 266.668928 
L 310.671437 293.892102 
L 315.252088 273.128722 
L 319.832739 250.820585 
L 324.41339 240.44214 
L 328.994041 244.748154 
L 333.574692 240.722938 
L 338.155343 268.174305 
L 342.735994 293.892102 
L 347.316645 277.65648 
L 351.897296 258.167462 
L 356.477947 242.4645 
L 361.058597 248.984836 
L 365.639248 238.003267 
L 370.219899 265.472179 
L 374.80055 293.892102 
L 379.381201 267.673215 
L 383.961852 247.065422 
L 388.542503 236.300309 
L 393.123154 241.237087 
L 397.703805 237.686138 
L 402.284456 262.426973 
L 406.865107 293.892102 
L 411.445758 267.882912 
L 416.026409 254.073948 
L 420.60706 238.421702 
L 425.187711 238.308917 
L 429.768362 235.955416 
L 434.349012 264.097538 
L 438.929663 293.892102 
L 443.510314 268.581774 
L 448.090965 261.109307 
L 452.671616 233.914993 
L 457.252267 237.788413 
L 461.832918 233.046422 
L 466.413569 267.46759 
L 470.99422 293.892102 
L 475.574871 264.332468 
L 480.155522 279.549789 
L 484.736173 216.207328 
L 489.316824 223.550706 
L 493.897475 234.435035 
L 498.478126 257.737412 
L 503.058777 293.892102 
L 507.639427 262.32059 
L 512.220078 229.48131 
L 516.800729 217.977934 
L 521.38138 231.384869 
L 525.962031 223.568879 
L 530.542682 253.859153 
L 535.123333 293.892102 
L 539.703984 259.423763 
L 544.284635 218.390819 
L 548.865286 210.756786 
L 553.445937 225.010617 
L 558.026588 214.79983 
L 562.607239 251.809812 
L 567.18789 293.892102 
L 571.768541 256.932077 
L 576.349192 209.467017 
L 580.929843 189.563162 
L 585.510493 224.318255 
L 590.091144 200.844247 
L 594.671795 245.769735 
L 599.252446 293.892102 
L 603.833097 251.738479 
L 608.413748 193.727174 
L 612.994399 178.341786 
L 617.57505 205.705734 
L 622.155701 193.913123 
L 626.736352 233.1946 
L 631.317003 293.892102 
L 635.897654 244.992426 
L 640.478305 206.532095 
L 645.058956 179.719084 
L 649.639607 212.631906 
L 654.220258 181.104047 
L 658.800908 228.418757 
L 663.381559 293.892102 
L 667.96221 244.039666 
L 672.542861 207.887436 
L 677.123512 191.305884 
L 681.704163 207.738168 
L 686.284814 186.776966 
L 690.865465 229.917884 
L 695.446116 293.892102 
L 700.026767 248.716431 
L 704.607418 225.743231 
L 709.188069 209.159049 
L 713.76872 218.132329 
L 718.349371 218.374441 
L 722.930022 245.669286 
L 727.510673 293.892102 
L 732.091323 254.23268 
L 736.671974 237.225209 
L 741.252625 217.185707 
L 745.833276 228.625447 
L 750.413927 229.223998 
L 754.994578 251.278568 
L 759.575229 293.892102 
L 764.15588 255.059245 
L 768.736531 222.534249 
L 773.317182 207.131953 
L 777.897833 213.936709 
L 782.478484 196.580546 
L 787.059135 228.62625 
L 791.639786 293.892102 
L 796.220437 242.890921 
L 800.801088 180.306725 
L 805.381739 163.569163 
L 809.962389 174.245445 
L 814.54304 179.180005 
L 819.123691 227.36227 
L 823.704342 293.892102 
L 832.865644 188.833066 
L 837.446295 174.322846 
L 842.026946 188.400634 
L 846.607597 201.779058 
L 851.188248 235.278555 
L 855.768899 293.892102 
L 860.34955 247.044895 
L 864.930201 214.146075 
L 869.510852 196.235932 
L 874.091503 198.290787 
L 878.672154 199.205298 
L 883.252804 237.027044 
L 887.833455 293.892102 
L 892.414106 251.976583 
L 896.994757 208.288203 
L 901.575408 186.354779 
L 906.156059 202.115832 
L 910.73671 147.931297 
L 915.317361 207.797682 
L 919.898012 293.892102 
L 924.478663 226.996977 
L 929.059314 150.162547 
L 933.639965 141.763433 
L 938.220616 150.795886 
L 942.801267 149.118551 
L 947.381918 225.11842 
L 947.381918 225.11842 
" clip-path="url(#p32f579fb9d)" style="fill: none; stroke: #2ca02c; stroke-width: 1.8; stroke-linecap: round"/>
   </g>
   <g id="patch_3">
    <path d="M 62.400156 306.849375 
L 62.400156 21.789375 
" style="fill: none; stroke: #cccccc; stroke-width: 1.25; stroke-linejoin: miter; stroke-linecap: square"/>
   </g>
   <g id="patch_4">
    <path d="M 989.523906 306.849375 
L 989.523906 21.789375 
" style="fill: none; stroke: #cccccc; stroke-width: 1.25; stroke-linejoin: miter; stroke-linecap: square"/>
   </g>
   <g id="patch_5">
    <path d="M 62.400156 306.849375 
L 989.523906 306.849375 
" style="fill: none; stroke: #cccccc; stroke-width: 1.25; stroke-linejoin: miter; stroke-linecap: square"/>
   </g>
   <g id="patch_6">
    <path d="M 62.400156 21.789375 
L 989.523906 21.789375 
" style="fill: none; stroke: #cccccc; stroke-width: 1.25; stroke-linejoin: miter; stroke-linecap: square"/>
   </g>
   <g id="text_18">
    <!-- Cluster 0: Actual vs Forecast with 95% Prediction Intervals -->
    <g style="fill: #262626" transform="translate(358.810469 15.789375) scale(0.12 -0.12)">
     <defs>
      <path id="Arial-BoldMT-43" d="M 3397 1684 
L 4294 1400 
Q 4088 650 3608 286 
Q 3128 -78 2391 -78 
Q 1478 -78 890 545 
Q 303 1169 303 2250 
Q 303 3394 893 4026 
Q 1484 4659 2447 4659 
Q 3288 4659 3813 4163 
Q 4125 3869 4281 3319 
L 3366 3100 
Q 3284 3456 3026 3662 
Q 2769 3869 2400 3869 
Q 1891 3869 1573 3503 
Q 1256 3138 1256 2319 
Q 1256 1450 1568 1081 
Q 1881 713 2381 713 
Q 2750 713 3015 947 
Q 3281 1181 3397 1684 
z
" transform="scale(0.015625)"/>
      <path id="Arial-BoldMT-6c" d="M 459 0 
L 459 4581 
L 1338 4581 
L 1338 0 
L 459 0 
z
" transform="scale(0.015625)"/>
      <path id="Arial-BoldMT-75" d="M 2644 0 
L 2644 497 
Q 2463 231 2167 78 
Q 1872 -75 1544 -75 
Q 1209 -75 943 72 
Q 678 219 559 484 
Q 441 750 441 1219 
L 441 3319 
L 1319 3319 
L 1319 1794 
Q 1319 1094 1367 936 
Q 1416 778 1544 686 
Q 1672 594 1869 594 
Q 2094 594 2272 717 
Q 2450 841 2515 1023 
Q 2581 1206 2581 1919 
L 2581 3319 
L 3459 3319 
L 3459 0 
L 2644 0 
z
" transform="scale(0.015625)"/>
      <path id="Arial-BoldMT-73" d="M 150 947 
L 1031 1081 
Q 1088 825 1259 692 
Q 1431 559 1741 559 
Q 2081 559 2253 684 
Q 2369 772 2369 919 
Q 2369 1019 2306 1084 
Q 2241 1147 2013 1200 
Q 950 1434 666 1628 
Q 272 1897 272 2375 
Q 272 2806 612 3100 
Q 953 3394 1669 3394 
Q 2350 3394 2681 3172 
Q 3013 2950 3138 2516 
L 2309 2363 
Q 2256 2556 2107 2659 
Q 1959 2763 1684 2763 
Q 1338 2763 1188 2666 
Q 1088 2597 1088 2488 
Q 1088 2394 1175 2328 
Q 1294 2241 1995 2081 
Q 2697 1922 2975 1691 
Q 3250 1456 3250 1038 
Q 3250 581 2869 253 
Q 2488 -75 1741 -75 
Q 1063 -75 667 200 
Q 272 475 150 947 
z
" transform="scale(0.015625)"/>
      <path id="Arial-BoldMT-74" d="M 1981 3319 
L 1981 2619 
L 1381 2619 
L 1381 1281 
Q 1381 875 1398 808 
Q 1416 741 1477 697 
Q 1538 653 1625 653 
Q 1747 653 1978 738 
L 2053 56 
Q 1747 -75 1359 -75 
Q 1122 -75 931 4 
Q 741 84 652 211 
Q 563 338 528 553 
Q 500 706 500 1172 
L 500 2619 
L 97 2619 
L 97 3319 
L 500 3319 
L 500 3978 
L 1381 4491 
L 1381 3319 
L 1981 3319 
z
" transform="scale(0.015625)"/>
      <path id="Arial-BoldMT-65" d="M 2381 1056 
L 3256 909 
Q 3088 428 2723 176 
Q 2359 -75 1813 -75 
Q 947 -75 531 491 
Q 203 944 203 1634 
Q 203 2459 634 2926 
Q 1066 3394 1725 3394 
Q 2466 3394 2894 2905 
Q 3322 2416 3303 1406 
L 1103 1406 
Q 1113 1016 1316 798 
Q 1519 581 1822 581 
Q 2028 581 2168 693 
Q 2309 806 2381 1056 
z
M 2431 1944 
Q 2422 2325 2234 2523 
Q 2047 2722 1778 2722 
Q 1491 2722 1303 2513 
Q 1116 2303 1119 1944 
L 2431 1944 
z
" transform="scale(0.015625)"/>
      <path id="Arial-BoldMT-72" d="M 1300 0 
L 422 0 
L 422 3319 
L 1238 3319 
L 1238 2847 
Q 1447 3181 1614 3287 
Q 1781 3394 1994 3394 
Q 2294 3394 2572 3228 
L 2300 2463 
Q 2078 2606 1888 2606 
Q 1703 2606 1575 2504 
Q 1447 2403 1373 2137 
Q 1300 1872 1300 1025 
L 1300 0 
z
" transform="scale(0.015625)"/>
      <path id="Arial-BoldMT-20" transform="scale(0.015625)"/>
      <path id="Arial-BoldMT-30" d="M 1756 4600 
Q 2422 4600 2797 4125 
Q 3244 3563 3244 2259 
Q 3244 959 2794 391 
Q 2422 -78 1756 -78 
Q 1088 -78 678 436 
Q 269 950 269 2269 
Q 269 3563 719 4131 
Q 1091 4600 1756 4600 
z
M 1756 3872 
Q 1597 3872 1472 3770 
Q 1347 3669 1278 3406 
Q 1188 3066 1188 2259 
Q 1188 1453 1269 1151 
Q 1350 850 1473 750 
Q 1597 650 1756 650 
Q 1916 650 2041 751 
Q 2166 853 2234 1116 
Q 2325 1453 2325 2259 
Q 2325 3066 2244 3367 
Q 2163 3669 2039 3770 
Q 1916 3872 1756 3872 
z
" transform="scale(0.015625)"/>
      <path id="Arial-BoldMT-3a" d="M 628 2441 
L 628 3319 
L 1506 3319 
L 1506 2441 
L 628 2441 
z
M 628 0 
L 628 878 
L 1506 878 
L 1506 0 
L 628 0 
z
" transform="scale(0.015625)"/>
      <path id="Arial-BoldMT-41" d="M 4597 0 
L 3591 0 
L 3191 1041 
L 1359 1041 
L 981 0 
L 0 0 
L 1784 4581 
L 2763 4581 
L 4597 0 
z
M 2894 1813 
L 2263 3513 
L 1644 1813 
L 2894 1813 
z
" transform="scale(0.015625)"/>
      <path id="Arial-BoldMT-63" d="M 3353 2338 
L 2488 2181 
Q 2444 2441 2289 2572 
Q 2134 2703 1888 2703 
Q 1559 2703 1364 2476 
Q 1169 2250 1169 1719 
Q 1169 1128 1367 884 
Q 1566 641 1900 641 
Q 2150 641 2309 783 
Q 2469 925 2534 1272 
L 3397 1125 
Q 3263 531 2881 228 
Q 2500 -75 1859 -75 
Q 1131 -75 698 384 
Q 266 844 266 1656 
Q 266 2478 700 2936 
Q 1134 3394 1875 3394 
Q 2481 3394 2839 3133 
Q 3197 2872 3353 2338 
z
" transform="scale(0.015625)"/>
      <path id="Arial-BoldMT-61" d="M 1116 2306 
L 319 2450 
Q 453 2931 781 3162 
Q 1109 3394 1756 3394 
Q 2344 3394 2631 3255 
Q 2919 3116 3036 2902 
Q 3153 2688 3153 2116 
L 3144 1091 
Q 3144 653 3186 445 
Q 3228 238 3344 0 
L 2475 0 
Q 2441 88 2391 259 
Q 2369 338 2359 363 
Q 2134 144 1878 34 
Q 1622 -75 1331 -75 
Q 819 -75 523 203 
Q 228 481 228 906 
Q 228 1188 362 1408 
Q 497 1628 739 1745 
Q 981 1863 1438 1950 
Q 2053 2066 2291 2166 
L 2291 2253 
Q 2291 2506 2166 2614 
Q 2041 2722 1694 2722 
Q 1459 2722 1328 2630 
Q 1197 2538 1116 2306 
z
M 2291 1594 
Q 2122 1538 1756 1459 
Q 1391 1381 1278 1306 
Q 1106 1184 1106 997 
Q 1106 813 1243 678 
Q 1381 544 1594 544 
Q 1831 544 2047 700 
Q 2206 819 2256 991 
Q 2291 1103 2291 1419 
L 2291 1594 
z
" transform="scale(0.015625)"/>
      <path id="Arial-BoldMT-76" d="M 1372 0 
L 34 3319 
L 956 3319 
L 1581 1625 
L 1763 1059 
Q 1834 1275 1853 1344 
Q 1897 1484 1947 1625 
L 2578 3319 
L 3481 3319 
L 2163 0 
L 1372 0 
z
" transform="scale(0.015625)"/>
      <path id="Arial-BoldMT-46" d="M 472 0 
L 472 4581 
L 3613 4581 
L 3613 3806 
L 1397 3806 
L 1397 2722 
L 3309 2722 
L 3309 1947 
L 1397 1947 
L 1397 0 
L 472 0 
z
" transform="scale(0.015625)"/>
      <path id="Arial-BoldMT-6f" d="M 256 1706 
Q 256 2144 472 2553 
Q 688 2963 1083 3178 
Q 1478 3394 1966 3394 
Q 2719 3394 3200 2905 
Q 3681 2416 3681 1669 
Q 3681 916 3195 420 
Q 2709 -75 1972 -75 
Q 1516 -75 1102 131 
Q 688 338 472 736 
Q 256 1134 256 1706 
z
M 1156 1659 
Q 1156 1166 1390 903 
Q 1625 641 1969 641 
Q 2313 641 2545 903 
Q 2778 1166 2778 1666 
Q 2778 2153 2545 2415 
Q 2313 2678 1969 2678 
Q 1625 2678 1390 2415 
Q 1156 2153 1156 1659 
z
" transform="scale(0.015625)"/>
      <path id="Arial-BoldMT-77" d="M 1078 0 
L 28 3319 
L 881 3319 
L 1503 1144 
L 2075 3319 
L 2922 3319 
L 3475 1144 
L 4109 3319 
L 4975 3319 
L 3909 0 
L 3066 0 
L 2494 2134 
L 1931 0 
L 1078 0 
z
" transform="scale(0.015625)"/>
      <path id="Arial-BoldMT-69" d="M 459 3769 
L 459 4581 
L 1338 4581 
L 1338 3769 
L 459 3769 
z
M 459 0 
L 459 3319 
L 1338 3319 
L 1338 0 
L 459 0 
z
" transform="scale(0.015625)"/>
      <path id="Arial-BoldMT-68" d="M 1334 4581 
L 1334 2897 
Q 1759 3394 2350 3394 
Q 2653 3394 2897 3281 
Q 3141 3169 3264 2994 
Q 3388 2819 3433 2606 
Q 3478 2394 3478 1947 
L 3478 0 
L 2600 0 
L 2600 1753 
Q 2600 2275 2550 2415 
Q 2500 2556 2373 2639 
Q 2247 2722 2056 2722 
Q 1838 2722 1666 2615 
Q 1494 2509 1414 2295 
Q 1334 2081 1334 1663 
L 1334 0 
L 456 0 
L 456 4581 
L 1334 4581 
z
" transform="scale(0.015625)"/>
      <path id="Arial-BoldMT-39" d="M 291 1059 
L 1141 1153 
Q 1172 894 1303 769 
Q 1434 644 1650 644 
Q 1922 644 2112 894 
Q 2303 1144 2356 1931 
Q 2025 1547 1528 1547 
Q 988 1547 595 1964 
Q 203 2381 203 3050 
Q 203 3747 617 4173 
Q 1031 4600 1672 4600 
Q 2369 4600 2816 4061 
Q 3263 3522 3263 2288 
Q 3263 1031 2797 475 
Q 2331 -81 1584 -81 
Q 1047 -81 715 205 
Q 384 491 291 1059 
z
M 2278 2978 
Q 2278 3403 2083 3637 
Q 1888 3872 1631 3872 
Q 1388 3872 1227 3680 
Q 1066 3488 1066 3050 
Q 1066 2606 1241 2398 
Q 1416 2191 1678 2191 
Q 1931 2191 2104 2391 
Q 2278 2591 2278 2978 
z
" transform="scale(0.015625)"/>
      <path id="Arial-BoldMT-35" d="M 284 1178 
L 1159 1269 
Q 1197 972 1381 798 
Q 1566 625 1806 625 
Q 2081 625 2272 848 
Q 2463 1072 2463 1522 
Q 2463 1944 2273 2155 
Q 2084 2366 1781 2366 
Q 1403 2366 1103 2031 
L 391 2134 
L 841 4519 
L 3163 4519 
L 3163 3697 
L 1506 3697 
L 1369 2919 
Q 1663 3066 1969 3066 
Q 2553 3066 2959 2641 
Q 3366 2216 3366 1538 
Q 3366 972 3038 528 
Q 2591 -78 1797 -78 
Q 1163 -78 763 262 
Q 363 603 284 1178 
z
" transform="scale(0.015625)"/>
      <path id="Arial-BoldMT-25" d="M 278 3450 
Q 278 4066 548 4362 
Q 819 4659 1281 4659 
Q 1759 4659 2029 4364 
Q 2300 4069 2300 3450 
Q 2300 2834 2029 2537 
Q 1759 2241 1297 2241 
Q 819 2241 548 2536 
Q 278 2831 278 3450 
z
M 963 3456 
Q 963 3009 1066 2856 
Q 1144 2744 1281 2744 
Q 1422 2744 1500 2856 
Q 1600 3009 1600 3456 
Q 1600 3903 1500 4053 
Q 1422 4169 1281 4169 
Q 1144 4169 1066 4056 
Q 963 3903 963 3456 
z
M 1950 -175 
L 1300 -175 
L 3741 4659 
L 4372 4659 
L 1950 -175 
z
M 3369 1028 
Q 3369 1644 3639 1941 
Q 3909 2238 4378 2238 
Q 4850 2238 5120 1941 
Q 5391 1644 5391 1028 
Q 5391 409 5120 112 
Q 4850 -184 4388 -184 
Q 3909 -184 3639 112 
Q 3369 409 3369 1028 
z
M 4053 1031 
Q 4053 584 4156 434 
Q 4234 319 4372 319 
Q 4513 319 4588 431 
Q 4691 584 4691 1031 
Q 4691 1478 4591 1631 
Q 4513 1744 4372 1744 
Q 4231 1744 4156 1631 
Q 4053 1478 4053 1031 
z
" transform="scale(0.015625)"/>
      <path id="Arial-BoldMT-50" d="M 466 0 
L 466 4581 
L 1950 4581 
Q 2794 4581 3050 4513 
Q 3444 4409 3709 4064 
Q 3975 3719 3975 3172 
Q 3975 2750 3822 2462 
Q 3669 2175 3433 2011 
Q 3197 1847 2953 1794 
Q 2622 1728 1994 1728 
L 1391 1728 
L 1391 0 
L 466 0 
z
M 1391 3806 
L 1391 2506 
L 1897 2506 
Q 2444 2506 2628 2578 
Q 2813 2650 2917 2803 
Q 3022 2956 3022 3159 
Q 3022 3409 2875 3571 
Q 2728 3734 2503 3775 
Q 2338 3806 1838 3806 
L 1391 3806 
z
" transform="scale(0.015625)"/>
      <path id="Arial-BoldMT-64" d="M 3503 0 
L 2688 0 
L 2688 488 
Q 2484 203 2207 64 
Q 1931 -75 1650 -75 
Q 1078 -75 670 386 
Q 263 847 263 1672 
Q 263 2516 659 2955 
Q 1056 3394 1663 3394 
Q 2219 3394 2625 2931 
L 2625 4581 
L 3503 4581 
L 3503 0 
z
M 1159 1731 
Q 1159 1200 1306 963 
Q 1519 619 1900 619 
Q 2203 619 2415 876 
Q 2628 1134 2628 1647 
Q 2628 2219 2422 2470 
Q 2216 2722 1894 2722 
Q 1581 2722 1370 2473 
Q 1159 2225 1159 1731 
z
" transform="scale(0.015625)"/>
      <path id="Arial-BoldMT-6e" d="M 3478 0 
L 2600 0 
L 2600 1694 
Q 2600 2231 2544 2389 
Q 2488 2547 2361 2634 
Q 2234 2722 2056 2722 
Q 1828 2722 1647 2597 
Q 1466 2472 1398 2265 
Q 1331 2059 1331 1503 
L 1331 0 
L 453 0 
L 453 3319 
L 1269 3319 
L 1269 2831 
Q 1703 3394 2363 3394 
Q 2653 3394 2893 3289 
Q 3134 3184 3257 3021 
Q 3381 2859 3429 2653 
Q 3478 2447 3478 2063 
L 3478 0 
z
" transform="scale(0.015625)"/>
      <path id="Arial-BoldMT-49" d="M 438 0 
L 438 4581 
L 1363 4581 
L 1363 0 
L 438 0 
z
" transform="scale(0.015625)"/>
     </defs>
     <use xlink:href="#Arial-BoldMT-43"/>
     <use xlink:href="#Arial-BoldMT-6c" x="72.216797"/>
     <use xlink:href="#Arial-BoldMT-75" x="100"/>
     <use xlink:href="#Arial-BoldMT-73" x="161.083984"/>
     <use xlink:href="#Arial-BoldMT-74" x="216.699219"/>
     <use xlink:href="#Arial-BoldMT-65" x="250"/>
     <use xlink:href="#Arial-BoldMT-72" x="305.615234"/>
     <use xlink:href="#Arial-BoldMT-20" x="344.53125"/>
     <use xlink:href="#Arial-BoldMT-30" x="372.314453"/>
     <use xlink:href="#Arial-BoldMT-3a" x="427.929688"/>
     <use xlink:href="#Arial-BoldMT-20" x="461.230469"/>
     <use xlink:href="#Arial-BoldMT-41" x="485.263672"/>
     <use xlink:href="#Arial-BoldMT-63" x="557.480469"/>
     <use xlink:href="#Arial-BoldMT-74" x="613.095703"/>
     <use xlink:href="#Arial-BoldMT-75" x="646.396484"/>
     <use xlink:href="#Arial-BoldMT-61" x="707.480469"/>
     <use xlink:href="#Arial-BoldMT-6c" x="763.095703"/>
     <use xlink:href="#Arial-BoldMT-20" x="790.878906"/>
     <use xlink:href="#Arial-BoldMT-76" x="818.662109"/>
     <use xlink:href="#Arial-BoldMT-73" x="874.277344"/>
     <use xlink:href="#Arial-BoldMT-20" x="929.892578"/>
     <use xlink:href="#Arial-BoldMT-46" x="957.675781"/>
     <use xlink:href="#Arial-BoldMT-6f" x="1018.759766"/>
     <use xlink:href="#Arial-BoldMT-72" x="1079.84375"/>
     <use xlink:href="#Arial-BoldMT-65" x="1118.759766"/>
     <use xlink:href="#Arial-BoldMT-63" x="1174.375"/>
     <use xlink:href="#Arial-BoldMT-61" x="1229.990234"/>
     <use xlink:href="#Arial-BoldMT-73" x="1285.605469"/>
     <use xlink:href="#Arial-BoldMT-74" x="1341.220703"/>
     <use xlink:href="#Arial-BoldMT-20" x="1374.521484"/>
     <use xlink:href="#Arial-BoldMT-77" x="1402.304688"/>
     <use xlink:href="#Arial-BoldMT-69" x="1480.087891"/>
     <use xlink:href="#Arial-BoldMT-74" x="1507.871094"/>
     <use xlink:href="#Arial-BoldMT-68" x="1541.171875"/>
     <use xlink:href="#Arial-BoldMT-20" x="1602.255859"/>
     <use xlink:href="#Arial-BoldMT-39" x="1630.039062"/>
     <use xlink:href="#Arial-BoldMT-35" x="1685.654297"/>
     <use xlink:href="#Arial-BoldMT-25" x="1741.269531"/>
     <use xlink:href="#Arial-BoldMT-20" x="1830.185547"/>
     <use xlink:href="#Arial-BoldMT-50" x="1857.96875"/>
     <use xlink:href="#Arial-BoldMT-72" x="1924.667969"/>
     <use xlink:href="#Arial-BoldMT-65" x="1963.583984"/>
     <use xlink:href="#Arial-BoldMT-64" x="2019.199219"/>
     <use xlink:href="#Arial-BoldMT-69" x="2080.283203"/>
     <use xlink:href="#Arial-BoldMT-63" x="2108.066406"/>
     <use xlink:href="#Arial-BoldMT-74" x="2163.681641"/>
     <use xlink:href="#Arial-BoldMT-69" x="2196.982422"/>
     <use xlink:href="#Arial-BoldMT-6f" x="2224.765625"/>
     <use xlink:href="#Arial-BoldMT-6e" x="2285.849609"/>
     <use xlink:href="#Arial-BoldMT-20" x="2346.933594"/>
     <use xlink:href="#Arial-BoldMT-49" x="2374.716797"/>
     <use xlink:href="#Arial-BoldMT-6e" x="2402.5"/>
     <use xlink:href="#Arial-BoldMT-74" x="2463.583984"/>
     <use xlink:href="#Arial-BoldMT-65" x="2496.884766"/>
     <use xlink:href="#Arial-BoldMT-72" x="2552.5"/>
     <use xlink:href="#Arial-BoldMT-76" x="2591.416016"/>
     <use xlink:href="#Arial-BoldMT-61" x="2647.03125"/>
     <use xlink:href="#Arial-BoldMT-6c" x="2702.646484"/>
     <use xlink:href="#Arial-BoldMT-73" x="2730.429688"/>
    </g>
   </g>
   <g id="legend_1">
    <g id="line2d_19">
     <path d="M 72.300156 35.712969 
L 83.300156 35.712969 
L 94.300156 35.712969 
" style="fill: none; stroke: #1f77b4; stroke-width: 2.2; stroke-linecap: round"/>
    </g>
    <g id="text_19">
     <!-- Actual Sales -->
     <g style="fill: #262626" transform="translate(103.100156 39.562969) scale(0.11 -0.11)">
      <defs>
       <path id="ArialMT-41" d="M -9 0 
L 1750 4581 
L 2403 4581 
L 4278 0 
L 3588 0 
L 3053 1388 
L 1138 1388 
L 634 0 
L -9 0 
z
M 1313 1881 
L 2866 1881 
L 2388 3150 
Q 2169 3728 2063 4100 
Q 1975 3659 1816 3225 
L 1313 1881 
z
" transform="scale(0.015625)"/>
       <path id="ArialMT-53" d="M 288 1472 
L 859 1522 
Q 900 1178 1048 958 
Q 1197 738 1509 602 
Q 1822 466 2213 466 
Q 2559 466 2825 569 
Q 3091 672 3220 851 
Q 3350 1031 3350 1244 
Q 3350 1459 3225 1620 
Q 3100 1781 2813 1891 
Q 2628 1963 1997 2114 
Q 1366 2266 1113 2400 
Q 784 2572 623 2826 
Q 463 3081 463 3397 
Q 463 3744 659 4045 
Q 856 4347 1234 4503 
Q 1613 4659 2075 4659 
Q 2584 4659 2973 4495 
Q 3363 4331 3572 4012 
Q 3781 3694 3797 3291 
L 3216 3247 
Q 3169 3681 2898 3903 
Q 2628 4125 2100 4125 
Q 1550 4125 1298 3923 
Q 1047 3722 1047 3438 
Q 1047 3191 1225 3031 
Q 1400 2872 2139 2705 
Q 2878 2538 3153 2413 
Q 3553 2228 3743 1945 
Q 3934 1663 3934 1294 
Q 3934 928 3725 604 
Q 3516 281 3123 101 
Q 2731 -78 2241 -78 
Q 1619 -78 1198 103 
Q 778 284 539 648 
Q 300 1013 288 1472 
z
" transform="scale(0.015625)"/>
      </defs>
      <use xlink:href="#ArialMT-41"/>
      <use xlink:href="#ArialMT-63" x="66.699219"/>
      <use xlink:href="#ArialMT-74" x="116.699219"/>
      <use xlink:href="#ArialMT-75" x="144.482422"/>
      <use xlink:href="#ArialMT-61" x="200.097656"/>
      <use xlink:href="#ArialMT-6c" x="255.712891"/>
      <use xlink:href="#ArialMT-20" x="277.929688"/>
      <use xlink:href="#ArialMT-53" x="305.712891"/>
      <use xlink:href="#ArialMT-61" x="372.412109"/>
      <use xlink:href="#ArialMT-6c" x="428.027344"/>
      <use xlink:href="#ArialMT-65" x="450.244141"/>
      <use xlink:href="#ArialMT-73" x="505.859375"/>
     </g>
    </g>
    <g id="line2d_20">
     <path d="M 72.300156 51.406875 
L 83.300156 51.406875 
L 94.300156 51.406875 
" style="fill: none; stroke: #ff7f0e; stroke-width: 1.8; stroke-linecap: round"/>
    </g>
    <g id="text_20">
     <!-- Model 1 (TSB) -->
     <g style="fill: #262626" transform="translate(103.100156 55.256875) scale(0.11 -0.11)">
      <defs>
       <path id="ArialMT-4d" d="M 475 0 
L 475 4581 
L 1388 4581 
L 2472 1338 
Q 2622 884 2691 659 
Q 2769 909 2934 1394 
L 4031 4581 
L 4847 4581 
L 4847 0 
L 4263 0 
L 4263 3834 
L 2931 0 
L 2384 0 
L 1059 3900 
L 1059 0 
L 475 0 
z
" transform="scale(0.015625)"/>
       <path id="ArialMT-6f" d="M 213 1659 
Q 213 2581 725 3025 
Q 1153 3394 1769 3394 
Q 2453 3394 2887 2945 
Q 3322 2497 3322 1706 
Q 3322 1066 3130 698 
Q 2938 331 2570 128 
Q 2203 -75 1769 -75 
Q 1072 -75 642 372 
Q 213 819 213 1659 
z
M 791 1659 
Q 791 1022 1069 705 
Q 1347 388 1769 388 
Q 2188 388 2466 706 
Q 2744 1025 2744 1678 
Q 2744 2294 2464 2611 
Q 2184 2928 1769 2928 
Q 1347 2928 1069 2612 
Q 791 2297 791 1659 
z
" transform="scale(0.015625)"/>
       <path id="ArialMT-64" d="M 2575 0 
L 2575 419 
Q 2259 -75 1647 -75 
Q 1250 -75 917 144 
Q 584 363 401 755 
Q 219 1147 219 1656 
Q 219 2153 384 2558 
Q 550 2963 881 3178 
Q 1213 3394 1622 3394 
Q 1922 3394 2156 3267 
Q 2391 3141 2538 2938 
L 2538 4581 
L 3097 4581 
L 3097 0 
L 2575 0 
z
M 797 1656 
Q 797 1019 1065 703 
Q 1334 388 1700 388 
Q 2069 388 2326 689 
Q 2584 991 2584 1609 
Q 2584 2291 2321 2609 
Q 2059 2928 1675 2928 
Q 1300 2928 1048 2622 
Q 797 2316 797 1656 
z
" transform="scale(0.015625)"/>
       <path id="ArialMT-28" d="M 1497 -1347 
Q 1031 -759 709 28 
Q 388 816 388 1659 
Q 388 2403 628 3084 
Q 909 3875 1497 4659 
L 1900 4659 
Q 1522 4009 1400 3731 
Q 1209 3300 1100 2831 
Q 966 2247 966 1656 
Q 966 153 1900 -1347 
L 1497 -1347 
z
" transform="scale(0.015625)"/>
       <path id="ArialMT-54" d="M 1659 0 
L 1659 4041 
L 150 4041 
L 150 4581 
L 3781 4581 
L 3781 4041 
L 2266 4041 
L 2266 0 
L 1659 0 
z
" transform="scale(0.015625)"/>
       <path id="ArialMT-42" d="M 469 0 
L 469 4581 
L 2188 4581 
Q 2713 4581 3030 4442 
Q 3347 4303 3526 4014 
Q 3706 3725 3706 3409 
Q 3706 3116 3547 2856 
Q 3388 2597 3066 2438 
Q 3481 2316 3704 2022 
Q 3928 1728 3928 1328 
Q 3928 1006 3792 729 
Q 3656 453 3456 303 
Q 3256 153 2954 76 
Q 2653 0 2216 0 
L 469 0 
z
M 1075 2656 
L 2066 2656 
Q 2469 2656 2644 2709 
Q 2875 2778 2992 2937 
Q 3109 3097 3109 3338 
Q 3109 3566 3000 3739 
Q 2891 3913 2687 3977 
Q 2484 4041 1991 4041 
L 1075 4041 
L 1075 2656 
z
M 1075 541 
L 2216 541 
Q 2509 541 2628 563 
Q 2838 600 2978 687 
Q 3119 775 3209 942 
Q 3300 1109 3300 1328 
Q 3300 1584 3169 1773 
Q 3038 1963 2805 2039 
Q 2572 2116 2134 2116 
L 1075 2116 
L 1075 541 
z
" transform="scale(0.015625)"/>
       <path id="ArialMT-29" d="M 791 -1347 
L 388 -1347 
Q 1322 153 1322 1656 
Q 1322 2244 1188 2822 
Q 1081 3291 891 3722 
Q 769 4003 388 4659 
L 791 4659 
Q 1378 3875 1659 3084 
Q 1900 2403 1900 1659 
Q 1900 816 1576 28 
Q 1253 -759 791 -1347 
z
" transform="scale(0.015625)"/>
      </defs>
      <use xlink:href="#ArialMT-4d"/>
      <use xlink:href="#ArialMT-6f" x="83.300781"/>
      <use xlink:href="#ArialMT-64" x="138.916016"/>
      <use xlink:href="#ArialMT-65" x="194.53125"/>
      <use xlink:href="#ArialMT-6c" x="250.146484"/>
      <use xlink:href="#ArialMT-20" x="272.363281"/>
      <use xlink:href="#ArialMT-31" x="300.146484"/>
      <use xlink:href="#ArialMT-20" x="355.761719"/>
      <use xlink:href="#ArialMT-28" x="383.544922"/>
      <use xlink:href="#ArialMT-54" x="416.845703"/>
      <use xlink:href="#ArialMT-53" x="477.929688"/>
      <use xlink:href="#ArialMT-42" x="544.628906"/>
      <use xlink:href="#ArialMT-29" x="611.328125"/>
     </g>
    </g>
    <g id="patch_7">
     <path d="M 72.300156 70.945625 
L 94.300156 70.945625 
L 94.300156 63.245625 
L 72.300156 63.245625 
z
" style="fill: #ff7f0e; fill-opacity: 0.16; stroke: #ff7f0e; stroke-opacity: 0.16; stroke-linejoin: miter"/>
    </g>
    <g id="text_21">
     <!-- Baseline 95% interval -->
     <g style="fill: #262626" transform="translate(103.100156 70.945625) scale(0.11 -0.11)">
      <defs>
       <path id="ArialMT-6e" d="M 422 0 
L 422 3319 
L 928 3319 
L 928 2847 
Q 1294 3394 1984 3394 
Q 2284 3394 2536 3286 
Q 2788 3178 2913 3003 
Q 3038 2828 3088 2588 
Q 3119 2431 3119 2041 
L 3119 0 
L 2556 0 
L 2556 2019 
Q 2556 2363 2490 2533 
Q 2425 2703 2258 2804 
Q 2091 2906 1866 2906 
Q 1506 2906 1245 2678 
Q 984 2450 984 1813 
L 984 0 
L 422 0 
z
" transform="scale(0.015625)"/>
       <path id="ArialMT-25" d="M 372 3481 
Q 372 3972 619 4315 
Q 866 4659 1334 4659 
Q 1766 4659 2048 4351 
Q 2331 4044 2331 3447 
Q 2331 2866 2045 2552 
Q 1759 2238 1341 2238 
Q 925 2238 648 2547 
Q 372 2856 372 3481 
z
M 1350 4272 
Q 1141 4272 1002 4090 
Q 863 3909 863 3425 
Q 863 2984 1003 2804 
Q 1144 2625 1350 2625 
Q 1563 2625 1702 2806 
Q 1841 2988 1841 3469 
Q 1841 3913 1700 4092 
Q 1559 4272 1350 4272 
z
M 1353 -169 
L 3859 4659 
L 4316 4659 
L 1819 -169 
L 1353 -169 
z
M 3334 1075 
Q 3334 1569 3581 1911 
Q 3828 2253 4300 2253 
Q 4731 2253 5014 1945 
Q 5297 1638 5297 1041 
Q 5297 459 5011 145 
Q 4725 -169 4303 -169 
Q 3888 -169 3611 142 
Q 3334 453 3334 1075 
z
M 4316 1866 
Q 4103 1866 3964 1684 
Q 3825 1503 3825 1019 
Q 3825 581 3965 400 
Q 4106 219 4313 219 
Q 4528 219 4667 400 
Q 4806 581 4806 1063 
Q 4806 1506 4665 1686 
Q 4525 1866 4316 1866 
z
" transform="scale(0.015625)"/>
       <path id="ArialMT-76" d="M 1344 0 
L 81 3319 
L 675 3319 
L 1388 1331 
Q 1503 1009 1600 663 
Q 1675 925 1809 1294 
L 2547 3319 
L 3125 3319 
L 1869 0 
L 1344 0 
z
" transform="scale(0.015625)"/>
      </defs>
      <use xlink:href="#ArialMT-42"/>
      <use xlink:href="#ArialMT-61" x="66.699219"/>
      <use xlink:href="#ArialMT-73" x="122.314453"/>
      <use xlink:href="#ArialMT-65" x="172.314453"/>
      <use xlink:href="#ArialMT-6c" x="227.929688"/>
      <use xlink:href="#ArialMT-69" x="250.146484"/>
      <use xlink:href="#ArialMT-6e" x="272.363281"/>
      <use xlink:href="#ArialMT-65" x="327.978516"/>
      <use xlink:href="#ArialMT-20" x="383.59375"/>
      <use xlink:href="#ArialMT-39" x="411.376953"/>
      <use xlink:href="#ArialMT-35" x="466.992188"/>
      <use xlink:href="#ArialMT-25" x="522.607422"/>
      <use xlink:href="#ArialMT-20" x="611.523438"/>
      <use xlink:href="#ArialMT-69" x="639.306641"/>
      <use xlink:href="#ArialMT-6e" x="661.523438"/>
      <use xlink:href="#ArialMT-74" x="717.138672"/>
      <use xlink:href="#ArialMT-65" x="744.921875"/>
      <use xlink:href="#ArialMT-72" x="800.537109"/>
      <use xlink:href="#ArialMT-76" x="833.837891"/>
      <use xlink:href="#ArialMT-61" x="883.837891"/>
      <use xlink:href="#ArialMT-6c" x="939.453125"/>
     </g>
    </g>
    <g id="line2d_21">
     <path d="M 72.300156 82.789531 
L 83.300156 82.789531 
L 94.300156 82.789531 
" style="fill: none; stroke: #2ca02c; stroke-width: 1.8; stroke-linecap: round"/>
    </g>
    <g id="text_22">
     <!-- Model 2 (Two-stage LGBM) -->
     <g style="fill: #262626" transform="translate(103.100156 86.639531) scale(0.11 -0.11)">
      <defs>
       <path id="ArialMT-77" d="M 1034 0 
L 19 3319 
L 600 3319 
L 1128 1403 
L 1325 691 
Q 1338 744 1497 1375 
L 2025 3319 
L 2603 3319 
L 3100 1394 
L 3266 759 
L 3456 1400 
L 4025 3319 
L 4572 3319 
L 3534 0 
L 2950 0 
L 2422 1988 
L 2294 2553 
L 1622 0 
L 1034 0 
z
" transform="scale(0.015625)"/>
       <path id="ArialMT-67" d="M 319 -275 
L 866 -356 
Q 900 -609 1056 -725 
Q 1266 -881 1628 -881 
Q 2019 -881 2231 -725 
Q 2444 -569 2519 -288 
Q 2563 -116 2559 434 
Q 2191 0 1641 0 
Q 956 0 581 494 
Q 206 988 206 1678 
Q 206 2153 378 2554 
Q 550 2956 876 3175 
Q 1203 3394 1644 3394 
Q 2231 3394 2613 2919 
L 2613 3319 
L 3131 3319 
L 3131 450 
Q 3131 -325 2973 -648 
Q 2816 -972 2473 -1159 
Q 2131 -1347 1631 -1347 
Q 1038 -1347 672 -1080 
Q 306 -813 319 -275 
z
M 784 1719 
Q 784 1066 1043 766 
Q 1303 466 1694 466 
Q 2081 466 2343 764 
Q 2606 1063 2606 1700 
Q 2606 2309 2336 2618 
Q 2066 2928 1684 2928 
Q 1309 2928 1046 2623 
Q 784 2319 784 1719 
z
" transform="scale(0.015625)"/>
       <path id="ArialMT-4c" d="M 469 0 
L 469 4581 
L 1075 4581 
L 1075 541 
L 3331 541 
L 3331 0 
L 469 0 
z
" transform="scale(0.015625)"/>
       <path id="ArialMT-47" d="M 2638 1797 
L 2638 2334 
L 4578 2338 
L 4578 638 
Q 4131 281 3656 101 
Q 3181 -78 2681 -78 
Q 2006 -78 1454 211 
Q 903 500 622 1047 
Q 341 1594 341 2269 
Q 341 2938 620 3517 
Q 900 4097 1425 4378 
Q 1950 4659 2634 4659 
Q 3131 4659 3532 4498 
Q 3934 4338 4162 4050 
Q 4391 3763 4509 3300 
L 3963 3150 
Q 3859 3500 3706 3700 
Q 3553 3900 3268 4020 
Q 2984 4141 2638 4141 
Q 2222 4141 1919 4014 
Q 1616 3888 1430 3681 
Q 1244 3475 1141 3228 
Q 966 2803 966 2306 
Q 966 1694 1177 1281 
Q 1388 869 1791 669 
Q 2194 469 2647 469 
Q 3041 469 3416 620 
Q 3791 772 3984 944 
L 3984 1797 
L 2638 1797 
z
" transform="scale(0.015625)"/>
      </defs>
      <use xlink:href="#ArialMT-4d"/>
      <use xlink:href="#ArialMT-6f" x="83.300781"/>
      <use xlink:href="#ArialMT-64" x="138.916016"/>
      <use xlink:href="#ArialMT-65" x="194.53125"/>
      <use xlink:href="#ArialMT-6c" x="250.146484"/>
      <use xlink:href="#ArialMT-20" x="272.363281"/>
      <use xlink:href="#ArialMT-32" x="300.146484"/>
      <use xlink:href="#ArialMT-20" x="355.761719"/>
      <use xlink:href="#ArialMT-28" x="383.544922"/>
      <use xlink:href="#ArialMT-54" x="416.845703"/>
      <use xlink:href="#ArialMT-77" x="472.429688"/>
      <use xlink:href="#ArialMT-6f" x="544.646484"/>
      <use xlink:href="#ArialMT-2d" x="600.261719"/>
      <use xlink:href="#ArialMT-73" x="633.5625"/>
      <use xlink:href="#ArialMT-74" x="683.5625"/>
      <use xlink:href="#ArialMT-61" x="711.345703"/>
      <use xlink:href="#ArialMT-67" x="766.960938"/>
      <use xlink:href="#ArialMT-65" x="822.576172"/>
      <use xlink:href="#ArialMT-20" x="878.191406"/>
      <use xlink:href="#ArialMT-4c" x="905.974609"/>
      <use xlink:href="#ArialMT-47" x="961.589844"/>
      <use xlink:href="#ArialMT-42" x="1039.373047"/>
      <use xlink:href="#ArialMT-4d" x="1106.072266"/>
      <use xlink:href="#ArialMT-29" x="1189.373047"/>
     </g>
    </g>
    <g id="patch_8">
     <path d="M 72.300156 102.328281 
L 94.300156 102.328281 
L 94.300156 94.628281 
L 72.300156 94.628281 
z
" style="fill: #2ca02c; fill-opacity: 0.16; stroke: #2ca02c; stroke-opacity: 0.16; stroke-linejoin: miter"/>
    </g>
    <g id="text_23">
     <!-- Model 95% interval -->
     <g style="fill: #262626" transform="translate(103.100156 102.328281) scale(0.11 -0.11)">
      <use xlink:href="#ArialMT-4d"/>
      <use xlink:href="#ArialMT-6f" x="83.300781"/>
      <use xlink:href="#ArialMT-64" x="138.916016"/>
      <use xlink:href="#ArialMT-65" x="194.53125"/>
      <use xlink:href="#ArialMT-6c" x="250.146484"/>
      <use xlink:href="#ArialMT-20" x="272.363281"/>
      <use xlink:href="#ArialMT-39" x="300.146484"/>
      <use xlink:href="#ArialMT-35" x="355.761719"/>
      <use xlink:href="#ArialMT-25" x="411.376953"/>
      <use xlink:href="#ArialMT-20" x="500.292969"/>
      <use xlink:href="#ArialMT-69" x="528.076172"/>
      <use xlink:href="#ArialMT-6e" x="550.292969"/>
      <use xlink:href="#ArialMT-74" x="605.908203"/>
      <use xlink:href="#ArialMT-65" x="633.691406"/>
      <use xlink:href="#ArialMT-72" x="689.306641"/>
      <use xlink:href="#ArialMT-76" x="722.607422"/>
      <use xlink:href="#ArialMT-61" x="772.607422"/>
      <use xlink:href="#ArialMT-6c" x="828.222656"/>
     </g>
    </g>
   </g>
  </g>
 </g>
 <defs>
  <clipPath id="p32f579fb9d">
   <rect x="62.400156" y="21.789375" width="927.12375" height="285.06"/>
  </clipPath>
 </defs>
</svg>
