<?xml version="1.0" encoding="utf-8" standalone="no"?>
<!DOCTYPE svg PUBLIC "-//W3C//DTD SVG 1.1//EN"
  "http://www.w3.org/Graphics/SVG/1.1/DTD/svg11.dtd">
<svg xmlns:xlink="http://www.w3.org/1999/xlink" width="996.549531pt" height="276.583594pt" viewBox="0 0 996.549531 276.583594" xmlns="http://www.w3.org/2000/svg" version="1.1">
 <metadata>
  <rdf:RDF xmlns:dc="http://purl.org/dc/elements/1.1/" xmlns:cc="http://creativecommons.org/ns#" xmlns:rdf="http://www.w3.org/1999/02/22-rdf-syntax-ns#">
   <cc:Work>
    <dc:type rdf:resource="http://purl.org/dc/dcmitype/StillImage"/>
    <dc:date>2026-03-27T23:01:55.403905</dc:date>
    <dc:format>image/svg+xml</dc:format>
    <dc:creator>
     <cc:Agent>
      <dc:title>Matplotlib v3.9.4, https://matplotlib.org/</dc:title>
     </cc:Agent>
    </dc:creator>
   </cc:Work>
  </rdf:RDF>
 </metadata>
 <defs>
  <style type="text/css">*{stroke-linejoin: round; stroke-linecap: butt}</style>
 </defs>
 <g id="figure_1">
  <g id="patch_1">
   <path d="M 0 276.583594 
L 996.549531 276.583594 
L 996.549531 0 
L 0 0 
z
" style="fill: #ffffff"/>
  </g>
  <g id="axes_1">
   <g id="patch_2">
    <path d="M 62.259531 234.849375 
L 989.349531 234.849375 
L 989.349531 21.789375 
L 62.259531 21.789375 
z
" style="fill: #ffffff"/>
   </g>
   <g id="matplotlib.axis_1">
    <g id="xtick_1">
     <g id="line2d_1">
      <path d="M 72.336596 234.849375 
L 72.336596 21.789375 
" clip-path="url(#p03e0a8beda)" style="fill: none; stroke: #cccccc; stroke-linecap: round"/>
     </g>
     <g id="text_1">
      <!-- 2011-06 -->
      <g style="fill: #262626" transform="translate(52.5598 252.222969) scale(0.11 -0.11)">
       <defs>
        <path id="ArialMT-32" d="M 3222 541 
L 3222 0 
L 194 0 
Q 188 203 259 391 
Q 375 700 629 1000 
Q 884 1300 1366 1694 
Q 2113 2306 2375 2664 
Q 2638 3022 2638 3341 
Q 2638 3675 2398 3904 
Q 2159 4134 1775 4134 
Q 1369 4134 1125 3890 
Q 881 3647 878 3216 
L 300 3275 
Q 359 3922 746 4261 
Q 1134 4600 1788 4600 
Q 2447 4600 2831 4234 
Q 3216 3869 3216 3328 
Q 3216 3053 3103 2787 
Q 2991 2522 2730 2228 
Q 2469 1934 1863 1422 
Q 1356 997 1212 845 
Q 1069 694 975 541 
L 3222 541 
z
" transform="scale(0.015625)"/>
        <path id="ArialMT-30" d="M 266 2259 
Q 266 3072 433 3567 
Q 600 4063 929 4331 
Q 1259 4600 1759 4600 
Q 2128 4600 2406 4451 
Q 2684 4303 2865 4023 
Q 3047 3744 3150 3342 
Q 3253 2941 3253 2259 
Q 3253 1453 3087 958 
Q 2922 463 2592 192 
Q 2263 -78 1759 -78 
Q 1097 -78 719 397 
Q 266 969 266 2259 
z
M 844 2259 
Q 844 1131 1108 757 
Q 1372 384 1759 384 
Q 2147 384 2411 759 
Q 2675 1134 2675 2259 
Q 2675 3391 2411 3762 
Q 2147 4134 1753 4134 
Q 1366 4134 1134 3806 
Q 844 3388 844 2259 
z
" transform="scale(0.015625)"/>
        <path id="ArialMT-31" d="M 2384 0 
L 1822 0 
L 1822 3584 
Q 1619 3391 1289 3197 
Q 959 3003 697 2906 
L 697 3450 
Q 1169 3672 1522 3987 
Q 1875 4303 2022 4600 
L 2384 4600 
L 2384 0 
z
" transform="scale(0.015625)"/>
        <path id="ArialMT-2d" d="M 203 1375 
L 203 1941 
L 1931 1941 
L 1931 1375 
L 203 1375 
z
" transform="scale(0.015625)"/>
        <path id="ArialMT-36" d="M 3184 3459 
L 2625 3416 
Q 2550 3747 2413 3897 
Q 2184 4138 1850 4138 
Q 1581 4138 1378 3988 
Q 1113 3794 959 3422 
Q 806 3050 800 2363 
Q 1003 2672 1297 2822 
Q 1591 2972 1913 2972 
Q 2475 2972 2870 2558 
Q 3266 2144 3266 1488 
Q 3266 1056 3080 686 
Q 2894 316 2569 119 
Q 2244 -78 1831 -78 
Q 1128 -78 684 439 
Q 241 956 241 2144 
Q 241 3472 731 4075 
Q 1159 4600 1884 4600 
Q 2425 4600 2770 4297 
Q 3116 3994 3184 3459 
z
M 888 1484 
Q 888 1194 1011 928 
Q 1134 663 1356 523 
Q 1578 384 1822 384 
Q 2178 384 2434 671 
Q 2691 959 2691 1453 
Q 2691 1928 2437 2201 
Q 2184 2475 1800 2475 
Q 1419 2475 1153 2201 
Q 888 1928 888 1484 
z
" transform="scale(0.015625)"/>
       </defs>
       <use xlink:href="#ArialMT-32"/>
       <use xlink:href="#ArialMT-30" x="55.615234"/>
       <use xlink:href="#ArialMT-31" x="111.230469"/>
       <use xlink:href="#ArialMT-31" x="159.470703"/>
       <use xlink:href="#ArialMT-2d" x="215.085938"/>
       <use xlink:href="#ArialMT-30" x="248.386719"/>
       <use xlink:href="#ArialMT-36" x="304.001953"/>
      </g>
     </g>
    </g>
    <g id="xtick_2">
     <g id="line2d_2">
      <path d="M 209.751122 234.849375 
L 209.751122 21.789375 
" clip-path="url(#p03e0a8beda)" style="fill: none; stroke: #cccccc; stroke-linecap: round"/>
     </g>
     <g id="text_2">
      <!-- 2011-07 -->
      <g style="fill: #262626" transform="translate(189.974325 252.222969) scale(0.11 -0.11)">
       <defs>
        <path id="ArialMT-37" d="M 303 3981 
L 303 4522 
L 3269 4522 
L 3269 4084 
Q 2831 3619 2401 2847 
Q 1972 2075 1738 1259 
Q 1569 684 1522 0 
L 944 0 
Q 953 541 1156 1306 
Q 1359 2072 1739 2783 
Q 2119 3494 2547 3981 
L 303 3981 
z
" transform="scale(0.015625)"/>
       </defs>
       <use xlink:href="#ArialMT-32"/>
       <use xlink:href="#ArialMT-30" x="55.615234"/>
       <use xlink:href="#ArialMT-31" x="111.230469"/>
       <use xlink:href="#ArialMT-31" x="159.470703"/>
       <use xlink:href="#ArialMT-2d" x="215.085938"/>
       <use xlink:href="#ArialMT-30" x="248.386719"/>
       <use xlink:href="#ArialMT-37" x="304.001953"/>
      </g>
     </g>
    </g>
    <g id="xtick_3">
     <g id="line2d_3">
      <path d="M 351.746132 234.849375 
L 351.746132 21.789375 
" clip-path="url(#p03e0a8beda)" style="fill: none; stroke: #cccccc; stroke-linecap: round"/>
     </g>
     <g id="text_3">
      <!-- 2011-08 -->
      <g style="fill: #262626" transform="translate(331.969335 252.222969) scale(0.11 -0.11)">
       <defs>
        <path id="ArialMT-38" d="M 1131 2484 
Q 781 2613 612 2850 
Q 444 3088 444 3419 
Q 444 3919 803 4259 
Q 1163 4600 1759 4600 
Q 2359 4600 2725 4251 
Q 3091 3903 3091 3403 
Q 3091 3084 2923 2848 
Q 2756 2613 2416 2484 
Q 2838 2347 3058 2040 
Q 3278 1734 3278 1309 
Q 3278 722 2862 322 
Q 2447 -78 1769 -78 
Q 1091 -78 675 323 
Q 259 725 259 1325 
Q 259 1772 486 2073 
Q 713 2375 1131 2484 
z
M 1019 3438 
Q 1019 3113 1228 2906 
Q 1438 2700 1772 2700 
Q 2097 2700 2305 2904 
Q 2513 3109 2513 3406 
Q 2513 3716 2298 3927 
Q 2084 4138 1766 4138 
Q 1444 4138 1231 3931 
Q 1019 3725 1019 3438 
z
M 838 1322 
Q 838 1081 952 856 
Q 1066 631 1291 507 
Q 1516 384 1775 384 
Q 2178 384 2440 643 
Q 2703 903 2703 1303 
Q 2703 1709 2433 1975 
Q 2163 2241 1756 2241 
Q 1359 2241 1098 1978 
Q 838 1716 838 1322 
z
" transform="scale(0.015625)"/>
       </defs>
       <use xlink:href="#ArialMT-32"/>
       <use xlink:href="#ArialMT-30" x="55.615234"/>
       <use xlink:href="#ArialMT-31" x="111.230469"/>
       <use xlink:href="#ArialMT-31" x="159.470703"/>
       <use xlink:href="#ArialMT-2d" x="215.085938"/>
       <use xlink:href="#ArialMT-30" x="248.386719"/>
       <use xlink:href="#ArialMT-38" x="304.001953"/>
      </g>
     </g>
    </g>
    <g id="xtick_4">
     <g id="line2d_4">
      <path d="M 493.741142 234.849375 
L 493.741142 21.789375 
" clip-path="url(#p03e0a8beda)" style="fill: none; stroke: #cccccc; stroke-linecap: round"/>
     </g>
     <g id="text_4">
      <!-- 2011-09 -->
      <g style="fill: #262626" transform="translate(473.964345 252.222969) scale(0.11 -0.11)">
       <defs>
        <path id="ArialMT-39" d="M 350 1059 
L 891 1109 
Q 959 728 1153 556 
Q 1347 384 1650 384 
Q 1909 384 2104 503 
Q 2300 622 2425 820 
Q 2550 1019 2634 1356 
Q 2719 1694 2719 2044 
Q 2719 2081 2716 2156 
Q 2547 1888 2255 1720 
Q 1963 1553 1622 1553 
Q 1053 1553 659 1965 
Q 266 2378 266 3053 
Q 266 3750 677 4175 
Q 1088 4600 1706 4600 
Q 2153 4600 2523 4359 
Q 2894 4119 3086 3673 
Q 3278 3228 3278 2384 
Q 3278 1506 3087 986 
Q 2897 466 2520 194 
Q 2144 -78 1638 -78 
Q 1100 -78 759 220 
Q 419 519 350 1059 
z
M 2653 3081 
Q 2653 3566 2395 3850 
Q 2138 4134 1775 4134 
Q 1400 4134 1122 3828 
Q 844 3522 844 3034 
Q 844 2597 1108 2323 
Q 1372 2050 1759 2050 
Q 2150 2050 2401 2323 
Q 2653 2597 2653 3081 
z
" transform="scale(0.015625)"/>
       </defs>
       <use xlink:href="#ArialMT-32"/>
       <use xlink:href="#ArialMT-30" x="55.615234"/>
       <use xlink:href="#ArialMT-31" x="111.230469"/>
       <use xlink:href="#ArialMT-31" x="159.470703"/>
       <use xlink:href="#ArialMT-2d" x="215.085938"/>
       <use xlink:href="#ArialMT-30" x="248.386719"/>
       <use xlink:href="#ArialMT-39" x="304.001953"/>
      </g>
     </g>
    </g>
    <g id="xtick_5">
     <g id="line2d_5">
      <path d="M 631.155668 234.849375 
L 631.155668 21.789375 
" clip-path="url(#p03e0a8beda)" style="fill: none; stroke: #cccccc; stroke-linecap: round"/>
     </g>
     <g id="text_5">
      <!-- 2011-10 -->
      <g style="fill: #262626" transform="translate(611.378871 252.222969) scale(0.11 -0.11)">
       <use xlink:href="#ArialMT-32"/>
       <use xlink:href="#ArialMT-30" x="55.615234"/>
       <use xlink:href="#ArialMT-31" x="111.230469"/>
       <use xlink:href="#ArialMT-31" x="159.470703"/>
       <use xlink:href="#ArialMT-2d" x="215.085938"/>
       <use xlink:href="#ArialMT-31" x="248.386719"/>
       <use xlink:href="#ArialMT-30" x="304.001953"/>
      </g>
     </g>
    </g>
    <g id="xtick_6">
     <g id="line2d_6">
      <path d="M 773.150677 234.849375 
L 773.150677 21.789375 
" clip-path="url(#p03e0a8beda)" style="fill: none; stroke: #cccccc; stroke-linecap: round"/>
     </g>
     <g id="text_6">
      <!-- 2011-11 -->
      <g style="fill: #262626" transform="translate(753.779506 252.222969) scale(0.11 -0.11)">
       <use xlink:href="#ArialMT-32"/>
       <use xlink:href="#ArialMT-30" x="55.615234"/>
       <use xlink:href="#ArialMT-31" x="111.230469"/>
       <use xlink:href="#ArialMT-31" x="159.470703"/>
       <use xlink:href="#ArialMT-2d" x="215.085938"/>
       <use xlink:href="#ArialMT-31" x="248.386719"/>
       <use xlink:href="#ArialMT-31" x="296.626953"/>
      </g>
     </g>
    </g>
    <g id="xtick_7">
     <g id="line2d_7">
      <path d="M 910.565203 234.849375 
L 910.565203 21.789375 
" clip-path="url(#p03e0a8beda)" style="fill: none; stroke: #cccccc; stroke-linecap: round"/>
     </g>
     <g id="text_7">
      <!-- 2011-12 -->
      <g style="fill: #262626" transform="translate(890.788406 252.222969) scale(0.11 -0.11)">
       <use xlink:href="#ArialMT-32"/>
       <use xlink:href="#ArialMT-30" x="55.615234"/>
       <use xlink:href="#ArialMT-31" x="111.230469"/>
       <use xlink:href="#ArialMT-31" x="159.470703"/>
       <use xlink:href="#ArialMT-2d" x="215.085938"/>
       <use xlink:href="#ArialMT-31" x="248.386719"/>
       <use xlink:href="#ArialMT-32" x="304.001953"/>
      </g>
     </g>
    </g>
    <g id="text_8">
     <!-- Date -->
     <g style="fill: #262626" transform="translate(513.131406 266.998594) scale(0.12 -0.12)">
      <defs>
       <path id="ArialMT-44" d="M 494 0 
L 494 4581 
L 2072 4581 
Q 2606 4581 2888 4516 
Q 3281 4425 3559 4188 
Q 3922 3881 4101 3404 
Q 4281 2928 4281 2316 
Q 4281 1794 4159 1391 
Q 4038 988 3847 723 
Q 3656 459 3429 307 
Q 3203 156 2883 78 
Q 2563 0 2147 0 
L 494 0 
z
M 1100 541 
L 2078 541 
Q 2531 541 2789 625 
Q 3047 709 3200 863 
Q 3416 1078 3536 1442 
Q 3656 1806 3656 2325 
Q 3656 3044 3420 3430 
Q 3184 3816 2847 3947 
Q 2603 4041 2063 4041 
L 1100 4041 
L 1100 541 
z
" transform="scale(0.015625)"/>
       <path id="ArialMT-61" d="M 2588 409 
Q 2275 144 1986 34 
Q 1697 -75 1366 -75 
Q 819 -75 525 192 
Q 231 459 231 875 
Q 231 1119 342 1320 
Q 453 1522 633 1644 
Q 813 1766 1038 1828 
Q 1203 1872 1538 1913 
Q 2219 1994 2541 2106 
Q 2544 2222 2544 2253 
Q 2544 2597 2384 2738 
Q 2169 2928 1744 2928 
Q 1347 2928 1158 2789 
Q 969 2650 878 2297 
L 328 2372 
Q 403 2725 575 2942 
Q 747 3159 1072 3276 
Q 1397 3394 1825 3394 
Q 2250 3394 2515 3294 
Q 2781 3194 2906 3042 
Q 3031 2891 3081 2659 
Q 3109 2516 3109 2141 
L 3109 1391 
Q 3109 606 3145 398 
Q 3181 191 3288 0 
L 2700 0 
Q 2613 175 2588 409 
z
M 2541 1666 
Q 2234 1541 1622 1453 
Q 1275 1403 1131 1340 
Q 988 1278 909 1158 
Q 831 1038 831 891 
Q 831 666 1001 516 
Q 1172 366 1500 366 
Q 1825 366 2078 508 
Q 2331 650 2450 897 
Q 2541 1088 2541 1459 
L 2541 1666 
z
" transform="scale(0.015625)"/>
       <path id="ArialMT-74" d="M 1650 503 
L 1731 6 
Q 1494 -44 1306 -44 
Q 1000 -44 831 53 
Q 663 150 594 308 
Q 525 466 525 972 
L 525 2881 
L 113 2881 
L 113 3319 
L 525 3319 
L 525 4141 
L 1084 4478 
L 1084 3319 
L 1650 3319 
L 1650 2881 
L 1084 2881 
L 1084 941 
Q 1084 700 1114 631 
Q 1144 563 1211 522 
Q 1278 481 1403 481 
Q 1497 481 1650 503 
z
" transform="scale(0.015625)"/>
       <path id="ArialMT-65" d="M 2694 1069 
L 3275 997 
Q 3138 488 2766 206 
Q 2394 -75 1816 -75 
Q 1088 -75 661 373 
Q 234 822 234 1631 
Q 234 2469 665 2931 
Q 1097 3394 1784 3394 
Q 2450 3394 2872 2941 
Q 3294 2488 3294 1666 
Q 3294 1616 3291 1516 
L 816 1516 
Q 847 969 1125 678 
Q 1403 388 1819 388 
Q 2128 388 2347 550 
Q 2566 713 2694 1069 
z
M 847 1978 
L 2700 1978 
Q 2663 2397 2488 2606 
Q 2219 2931 1791 2931 
Q 1403 2931 1139 2672 
Q 875 2413 847 1978 
z
" transform="scale(0.015625)"/>
      </defs>
      <use xlink:href="#ArialMT-44"/>
      <use xlink:href="#ArialMT-61" x="72.216797"/>
      <use xlink:href="#ArialMT-74" x="127.832031"/>
      <use xlink:href="#ArialMT-65" x="155.615234"/>
     </g>
    </g>
   </g>
   <g id="matplotlib.axis_2">
    <g id="ytick_1">
     <g id="line2d_8">
      <path d="M 62.259531 230.441449 
L 989.349531 230.441449 
" clip-path="url(#p03e0a8beda)" style="fill: none; stroke: #cccccc; stroke-linecap: round"/>
     </g>
     <g id="text_9">
      <!-- 10000 -->
      <g style="fill: #262626" transform="translate(22.174375 234.378246) scale(0.11 -0.11)">
       <use xlink:href="#ArialMT-31"/>
       <use xlink:href="#ArialMT-30" x="55.615234"/>
       <use xlink:href="#ArialMT-30" x="111.230469"/>
       <use xlink:href="#ArialMT-30" x="166.845703"/>
       <use xlink:href="#ArialMT-30" x="222.460938"/>
      </g>
     </g>
    </g>
    <g id="ytick_2">
     <g id="line2d_9">
      <path d="M 62.259531 205.972215 
L 989.349531 205.972215 
" clip-path="url(#p03e0a8beda)" style="fill: none; stroke: #cccccc; stroke-linecap: round"/>
     </g>
     <g id="text_10">
      <!-- 12000 -->
      <g style="fill: #262626" transform="translate(22.174375 209.909012) scale(0.11 -0.11)">
       <use xlink:href="#ArialMT-31"/>
       <use xlink:href="#ArialMT-32" x="55.615234"/>
       <use xlink:href="#ArialMT-30" x="111.230469"/>
       <use xlink:href="#ArialMT-30" x="166.845703"/>
       <use xlink:href="#ArialMT-30" x="222.460938"/>
      </g>
     </g>
    </g>
    <g id="ytick_3">
     <g id="line2d_10">
      <path d="M 62.259531 181.502981 
L 989.349531 181.502981 
" clip-path="url(#p03e0a8beda)" style="fill: none; stroke: #cccccc; stroke-linecap: round"/>
     </g>
     <g id="text_11">
      <!-- 14000 -->
      <g style="fill: #262626" transform="translate(22.174375 185.439778) scale(0.11 -0.11)">
       <defs>
        <path id="ArialMT-34" d="M 2069 0 
L 2069 1097 
L 81 1097 
L 81 1613 
L 2172 4581 
L 2631 4581 
L 2631 1613 
L 3250 1613 
L 3250 1097 
L 2631 1097 
L 2631 0 
L 2069 0 
z
M 2069 1613 
L 2069 3678 
L 634 1613 
L 2069 1613 
z
" transform="scale(0.015625)"/>
       </defs>
       <use xlink:href="#ArialMT-31"/>
       <use xlink:href="#ArialMT-34" x="55.615234"/>
       <use xlink:href="#ArialMT-30" x="111.230469"/>
       <use xlink:href="#ArialMT-30" x="166.845703"/>
       <use xlink:href="#ArialMT-30" x="222.460938"/>
      </g>
     </g>
    </g>
    <g id="ytick_4">
     <g id="line2d_11">
      <path d="M 62.259531 157.033747 
L 989.349531 157.033747 
" clip-path="url(#p03e0a8beda)" style="fill: none; stroke: #cccccc; stroke-linecap: round"/>
     </g>
     <g id="text_12">
      <!-- 16000 -->
      <g style="fill: #262626" transform="translate(22.174375 160.970544) scale(0.11 -0.11)">
       <use xlink:href="#ArialMT-31"/>
       <use xlink:href="#ArialMT-36" x="55.615234"/>
       <use xlink:href="#ArialMT-30" x="111.230469"/>
       <use xlink:href="#ArialMT-30" x="166.845703"/>
       <use xlink:href="#ArialMT-30" x="222.460938"/>
      </g>
     </g>
    </g>
    <g id="ytick_5">
     <g id="line2d_12">
      <path d="M 62.259531 132.564513 
L 989.349531 132.564513 
" clip-path="url(#p03e0a8beda)" style="fill: none; stroke: #cccccc; stroke-linecap: round"/>
     </g>
     <g id="text_13">
      <!-- 18000 -->
      <g style="fill: #262626" transform="translate(22.174375 136.50131) scale(0.11 -0.11)">
       <use xlink:href="#ArialMT-31"/>
       <use xlink:href="#ArialMT-38" x="55.615234"/>
       <use xlink:href="#ArialMT-30" x="111.230469"/>
       <use xlink:href="#ArialMT-30" x="166.845703"/>
       <use xlink:href="#ArialMT-30" x="222.460938"/>
      </g>
     </g>
    </g>
    <g id="ytick_6">
     <g id="line2d_13">
      <path d="M 62.259531 108.095279 
L 989.349531 108.095279 
" clip-path="url(#p03e0a8beda)" style="fill: none; stroke: #cccccc; stroke-linecap: round"/>
     </g>
     <g id="text_14">
      <!-- 20000 -->
      <g style="fill: #262626" transform="translate(22.174375 112.032076) scale(0.11 -0.11)">
       <use xlink:href="#ArialMT-32"/>
       <use xlink:href="#ArialMT-30" x="55.615234"/>
       <use xlink:href="#ArialMT-30" x="111.230469"/>
       <use xlink:href="#ArialMT-30" x="166.845703"/>
       <use xlink:href="#ArialMT-30" x="222.460938"/>
      </g>
     </g>
    </g>
    <g id="ytick_7">
     <g id="line2d_14">
      <path d="M 62.259531 83.626045 
L 989.349531 83.626045 
" clip-path="url(#p03e0a8beda)" style="fill: none; stroke: #cccccc; stroke-linecap: round"/>
     </g>
     <g id="text_15">
      <!-- 22000 -->
      <g style="fill: #262626" transform="translate(22.174375 87.562842) scale(0.11 -0.11)">
       <use xlink:href="#ArialMT-32"/>
       <use xlink:href="#ArialMT-32" x="55.615234"/>
       <use xlink:href="#ArialMT-30" x="111.230469"/>
       <use xlink:href="#ArialMT-30" x="166.845703"/>
       <use xlink:href="#ArialMT-30" x="222.460938"/>
      </g>
     </g>
    </g>
    <g id="ytick_8">
     <g id="line2d_15">
      <path d="M 62.259531 59.156811 
L 989.349531 59.156811 
" clip-path="url(#p03e0a8beda)" style="fill: none; stroke: #cccccc; stroke-linecap: round"/>
     </g>
     <g id="text_16">
      <!-- 24000 -->
      <g style="fill: #262626" transform="translate(22.174375 63.093608) scale(0.11 -0.11)">
       <use xlink:href="#ArialMT-32"/>
       <use xlink:href="#ArialMT-34" x="55.615234"/>
       <use xlink:href="#ArialMT-30" x="111.230469"/>
       <use xlink:href="#ArialMT-30" x="166.845703"/>
       <use xlink:href="#ArialMT-30" x="222.460938"/>
      </g>
     </g>
    </g>
    <g id="ytick_9">
     <g id="line2d_16">
      <path d="M 62.259531 34.687577 
L 989.349531 34.687577 
" clip-path="url(#p03e0a8beda)" style="fill: none; stroke: #cccccc; stroke-linecap: round"/>
     </g>
     <g id="text_17">
      <!-- 26000 -->
      <g style="fill: #262626" transform="translate(22.174375 38.624374) scale(0.11 -0.11)">
       <use xlink:href="#ArialMT-32"/>
       <use xlink:href="#ArialMT-36" x="55.615234"/>
       <use xlink:href="#ArialMT-30" x="111.230469"/>
       <use xlink:href="#ArialMT-30" x="166.845703"/>
       <use xlink:href="#ArialMT-30" x="222.460938"/>
      </g>
     </g>
    </g>
    <g id="text_18">
     <!-- Interval width -->
     <g style="fill: #262626" transform="translate(15.789375 163.666875) rotate(-90) scale(0.12 -0.12)">
      <defs>
       <path id="ArialMT-49" d="M 597 0 
L 597 4581 
L 1203 4581 
L 1203 0 
L 597 0 
z
" transform="scale(0.015625)"/>
       <path id="ArialMT-6e" d="M 422 0 
L 422 3319 
L 928 3319 
L 928 2847 
Q 1294 3394 1984 3394 
Q 2284 3394 2536 3286 
Q 2788 3178 2913 3003 
Q 3038 2828 3088 2588 
Q 3119 2431 3119 2041 
L 3119 0 
L 2556 0 
L 2556 2019 
Q 2556 2363 2490 2533 
Q 2425 2703 2258 2804 
Q 2091 2906 1866 2906 
Q 1506 2906 1245 2678 
Q 984 2450 984 1813 
L 984 0 
L 422 0 
z
" transform="scale(0.015625)"/>
       <path id="ArialMT-72" d="M 416 0 
L 416 3319 
L 922 3319 
L 922 2816 
Q 1116 3169 1280 3281 
Q 1444 3394 1641 3394 
Q 1925 3394 2219 3213 
L 2025 2691 
Q 1819 2813 1613 2813 
Q 1428 2813 1281 2702 
Q 1134 2591 1072 2394 
Q 978 2094 978 1738 
L 978 0 
L 416 0 
z
" transform="scale(0.015625)"/>
       <path id="ArialMT-76" d="M 1344 0 
L 81 3319 
L 675 3319 
L 1388 1331 
Q 1503 1009 1600 663 
Q 1675 925 1809 1294 
L 2547 3319 
L 3125 3319 
L 1869 0 
L 1344 0 
z
" transform="scale(0.015625)"/>
       <path id="ArialMT-6c" d="M 409 0 
L 409 4581 
L 972 4581 
L 972 0 
L 409 0 
z
" transform="scale(0.015625)"/>
       <path id="ArialMT-20" transform="scale(0.015625)"/>
       <path id="ArialMT-77" d="M 1034 0 
L 19 3319 
L 600 3319 
L 1128 1403 
L 1325 691 
Q 1338 744 1497 1375 
L 2025 3319 
L 2603 3319 
L 3100 1394 
L 3266 759 
L 3456 1400 
L 4025 3319 
L 4572 3319 
L 3534 0 
L 2950 0 
L 2422 1988 
L 2294 2553 
L 1622 0 
L 1034 0 
z
" transform="scale(0.015625)"/>
       <path id="ArialMT-69" d="M 425 3934 
L 425 4581 
L 988 4581 
L 988 3934 
L 425 3934 
z
M 425 0 
L 425 3319 
L 988 3319 
L 988 0 
L 425 0 
z
" transform="scale(0.015625)"/>
       <path id="ArialMT-64" d="M 2575 0 
L 2575 419 
Q 2259 -75 1647 -75 
Q 1250 -75 917 144 
Q 584 363 401 755 
Q 219 1147 219 1656 
Q 219 2153 384 2558 
Q 550 2963 881 3178 
Q 1213 3394 1622 3394 
Q 1922 3394 2156 3267 
Q 2391 3141 2538 2938 
L 2538 4581 
L 3097 4581 
L 3097 0 
L 2575 0 
z
M 797 1656 
Q 797 1019 1065 703 
Q 1334 388 1700 388 
Q 2069 388 2326 689 
Q 2584 991 2584 1609 
Q 2584 2291 2321 2609 
Q 2059 2928 1675 2928 
Q 1300 2928 1048 2622 
Q 797 2316 797 1656 
z
" transform="scale(0.015625)"/>
       <path id="ArialMT-68" d="M 422 0 
L 422 4581 
L 984 4581 
L 984 2938 
Q 1378 3394 1978 3394 
Q 2347 3394 2619 3248 
Q 2891 3103 3008 2847 
Q 3125 2591 3125 2103 
L 3125 0 
L 2563 0 
L 2563 2103 
Q 2563 2525 2380 2717 
Q 2197 2909 1863 2909 
Q 1613 2909 1392 2779 
Q 1172 2650 1078 2428 
Q 984 2206 984 1816 
L 984 0 
L 422 0 
z
" transform="scale(0.015625)"/>
      </defs>
      <use xlink:href="#ArialMT-49"/>
      <use xlink:href="#ArialMT-6e" x="27.783203"/>
      <use xlink:href="#ArialMT-74" x="83.398438"/>
      <use xlink:href="#ArialMT-65" x="111.181641"/>
      <use xlink:href="#ArialMT-72" x="166.796875"/>
      <use xlink:href="#ArialMT-76" x="200.097656"/>
      <use xlink:href="#ArialMT-61" x="250.097656"/>
      <use xlink:href="#ArialMT-6c" x="305.712891"/>
      <use xlink:href="#ArialMT-20" x="327.929688"/>
      <use xlink:href="#ArialMT-77" x="355.712891"/>
      <use xlink:href="#ArialMT-69" x="427.929688"/>
      <use xlink:href="#ArialMT-64" x="450.146484"/>
      <use xlink:href="#ArialMT-74" x="505.761719"/>
      <use xlink:href="#ArialMT-68" x="533.544922"/>
     </g>
    </g>
   </g>
   <g id="line2d_17">
    <path d="M 104.399986 33.203182 
L 131.882891 33.203182 
L 136.463375 89.573382 
L 141.043859 108.135437 
L 145.624344 113.709104 
L 150.204828 126.830053 
L 154.785312 105.369096 
L 159.365796 116.810638 
L 163.94628 122.226759 
L 173.107249 138.250589 
L 177.687733 144.939204 
L 182.268217 150.894434 
L 186.848701 136.588079 
L 191.429185 135.527088 
L 196.00967 141.313733 
L 205.170638 150.4448 
L 209.751122 125.962866 
L 214.331606 129.118012 
L 218.912091 121.10855 
L 223.492575 120.82585 
L 228.073059 119.855604 
L 232.653543 102.426617 
L 237.234027 106.421013 
L 241.814511 107.423557 
L 246.394996 111.5025 
L 250.97548 105.413108 
L 255.555964 105.628052 
L 260.136448 108.705203 
L 269.297417 115.528471 
L 278.458385 120.984201 
L 283.038869 116.109753 
L 287.619353 119.115152 
L 292.199838 121.184956 
L 296.780322 116.744281 
L 301.360806 116.752007 
L 305.94129 118.961758 
L 310.521774 121.614593 
L 315.102259 117.084134 
L 319.682743 118.968041 
L 324.263227 121.078701 
L 328.843711 123.440454 
L 333.424195 125.672228 
L 338.004679 115.126431 
L 342.585164 117.404393 
L 347.165648 113.362716 
L 351.746132 114.993898 
L 360.9071 119.31304 
L 365.487585 118.979986 
L 370.068069 86.54375 
L 374.648553 88.7812 
L 379.229037 85.745497 
L 383.809521 86.28065 
L 388.390006 88.442093 
L 397.550974 91.553561 
L 402.131458 83.304053 
L 406.711942 85.180711 
L 411.292427 82.59684 
L 415.872911 82.635528 
L 420.453395 84.317307 
L 425.033879 86.194716 
L 429.614363 81.311898 
L 434.194847 82.887291 
L 438.775332 84.340569 
L 443.355816 82.124392 
L 447.9363 83.440072 
L 452.516784 85.198751 
L 457.097268 86.798421 
L 461.677753 85.283444 
L 466.258237 87.003717 
L 470.838721 88.11355 
L 475.419205 86.104974 
L 479.999689 86.815824 
L 484.580174 85.010373 
L 489.160658 85.405684 
L 493.741142 84.295578 
L 498.321626 85.269477 
L 502.90211 82.495903 
L 507.482594 80.849974 
L 512.063079 82.084327 
L 521.224047 85.027712 
L 534.9655 89.11937 
L 539.545984 87.535951 
L 544.126468 87.421917 
L 548.706952 88.264923 
L 553.287436 86.72101 
L 557.867921 88.081888 
L 562.448405 88.370441 
L 567.028889 89.627992 
L 571.609373 88.036626 
L 576.189857 89.137757 
L 580.770342 90.418005 
L 585.350826 65.227928 
L 589.93131 65.501538 
L 594.511794 63.128973 
L 599.092278 64.197791 
L 603.672762 62.872522 
L 608.253247 64.153156 
L 612.833731 65.112269 
L 617.414215 65.557657 
L 621.994699 66.33299 
L 626.575183 66.570284 
L 631.155668 67.809532 
L 635.736152 66.46159 
L 640.316636 67.14622 
L 644.89712 67.193217 
L 649.477604 65.500314 
L 654.058089 64.358811 
L 658.638573 63.601056 
L 663.219057 55.840485 
L 667.799541 54.556098 
L 672.380025 55.038224 
L 676.96051 55.073667 
L 681.540994 56.116093 
L 686.121478 57.293099 
L 695.282446 59.492253 
L 699.86293 58.269941 
L 704.443415 59.386564 
L 709.023899 60.016023 
L 713.604383 60.343519 
L 722.765351 62.523974 
L 727.345836 63.357618 
L 731.92632 62.141745 
L 736.506804 62.709002 
L 741.087288 63.506406 
L 745.667772 64.480459 
L 759.409225 67.024406 
L 763.989709 65.839817 
L 768.570193 66.710007 
L 773.150677 65.99944 
L 777.731162 66.983232 
L 782.311646 67.454399 
L 786.89213 62.496822 
L 791.472614 60.707216 
L 796.053098 59.548238 
L 800.633583 60.489 
L 805.214067 59.218627 
L 809.794551 58.287078 
L 814.375035 55.918214 
L 818.955519 54.614876 
L 823.536004 54.57226 
L 828.116488 53.418333 
L 832.696972 54.359754 
L 837.277456 46.79904 
L 841.85794 45.78365 
L 846.438425 45.48082 
L 851.018909 45.850731 
L 855.599393 46.394648 
L 860.179877 45.273319 
L 864.760361 46.170941 
L 869.340845 46.323024 
L 878.501814 43.361907 
L 883.082298 43.961447 
L 887.662782 43.808576 
L 892.243266 42.685535 
L 896.823751 43.348763 
L 901.404235 42.693388 
L 905.984719 41.306303 
L 910.565203 41.741345 
L 915.145687 41.26349 
L 919.726172 41.02263 
L 924.306656 39.909857 
L 928.88714 40.709056 
L 933.467624 35.124992 
L 938.048108 34.720946 
L 942.628593 35.254312 
L 947.209077 31.47392 
L 947.209077 31.47392 
" clip-path="url(#p03e0a8beda)" style="fill: none; stroke: #ff7f0e; stroke-opacity: 0.35; stroke-width: 1.2; stroke-linecap: round"/>
   </g>
   <g id="line2d_18">
    <path d="M 104.399986 149.910585 
L 131.882891 149.910585 
L 136.463375 168.22806 
L 141.043859 174.051693 
L 145.624344 177.828737 
L 150.204828 187.369075 
L 154.785312 192.691971 
L 159.365796 196.307911 
L 163.94628 196.771632 
L 168.526764 202.34434 
L 177.687733 211.965772 
L 182.268217 216.375398 
L 186.848701 217.436653 
L 191.429185 217.089185 
L 196.00967 219.340941 
L 200.590154 222.457698 
L 205.170638 225.16483 
L 209.751122 198.06496 
L 214.331606 201.299657 
L 223.492575 204.037423 
L 228.073059 203.002083 
L 232.653543 188.523681 
L 237.234027 191.345839 
L 241.814511 192.925024 
L 246.394996 194.195258 
L 250.97548 195.011413 
L 255.555964 196.143538 
L 260.136448 196.811142 
L 269.297417 201.038845 
L 273.877901 202.67119 
L 278.458385 204.687994 
L 283.038869 205.153411 
L 287.619353 206.525428 
L 292.199838 207.432602 
L 296.780322 202.485358 
L 301.360806 201.367645 
L 305.94129 202.968035 
L 310.521774 204.014299 
L 315.102259 204.095851 
L 319.682743 201.911653 
L 333.424195 206.096458 
L 338.004679 194.122015 
L 342.585164 195.583018 
L 347.165648 195.600971 
L 351.746132 197.088972 
L 356.326616 198.428371 
L 360.9071 199.403031 
L 365.487585 198.334288 
L 370.068069 160.73367 
L 374.648553 162.388802 
L 383.809521 163.075101 
L 388.390006 164.598246 
L 392.97049 163.226545 
L 397.550974 164.656144 
L 402.131458 156.929098 
L 406.711942 158.36385 
L 411.292427 158.723643 
L 415.872911 158.667852 
L 420.453395 159.516435 
L 425.033879 159.87389 
L 429.614363 155.619994 
L 434.194847 157.008463 
L 438.775332 158.155529 
L 443.355816 158.544415 
L 452.516784 160.821567 
L 457.097268 160.35499 
L 461.677753 159.530769 
L 466.258237 160.086304 
L 470.838721 161.077451 
L 479.999689 161.877627 
L 484.580174 161.131906 
L 489.160658 162.275701 
L 493.741142 154.010511 
L 498.321626 155.153669 
L 502.90211 150.172155 
L 507.482594 150.688271 
L 512.063079 151.63577 
L 521.224047 151.994687 
L 525.804531 152.980463 
L 530.385015 153.437976 
L 534.9655 154.4401 
L 539.545984 154.949133 
L 544.126468 153.589398 
L 548.706952 154.517563 
L 553.287436 155.225675 
L 557.867921 155.331739 
L 567.028889 157.257414 
L 571.609373 157.705579 
L 576.189857 158.471491 
L 580.770342 157.287692 
L 585.350826 141.995879 
L 589.93131 142.869384 
L 594.511794 143.343665 
L 599.092278 144.138855 
L 603.672762 144.611419 
L 608.253247 145.512375 
L 617.414215 145.205667 
L 626.575183 146.597383 
L 631.155668 147.385132 
L 635.736152 147.852728 
L 640.316636 147.63817 
L 649.477604 149.383939 
L 654.058089 149.655278 
L 658.638573 150.431034 
L 663.219057 142.333783 
L 667.799541 142.786584 
L 672.380025 142.29046 
L 676.96051 143.116958 
L 681.540994 139.852594 
L 686.121478 139.360017 
L 690.701962 138.654299 
L 699.86293 139.71546 
L 713.604383 142.074934 
L 727.345836 143.194558 
L 731.92632 143.665226 
L 736.506804 144.008936 
L 741.087288 144.656565 
L 745.667772 145.181721 
L 759.409225 147.350494 
L 763.989709 147.786597 
L 768.570193 148.107775 
L 773.150677 147.989835 
L 777.731162 147.635429 
L 782.311646 148.334417 
L 786.89213 146.421926 
L 791.472614 144.778767 
L 796.053098 145.18456 
L 805.214067 146.522503 
L 818.955519 148.155454 
L 823.536004 148.201253 
L 828.116488 148.568741 
L 832.696972 149.215425 
L 837.277456 145.15673 
L 851.018909 147.080947 
L 860.179877 147.721667 
L 869.340845 148.726404 
L 878.501814 148.660286 
L 883.082298 149.144429 
L 887.662782 148.456149 
L 892.243266 148.76289 
L 896.823751 149.205213 
L 901.404235 149.277227 
L 905.984719 149.57091 
L 910.565203 150.140295 
L 915.145687 150.137985 
L 924.306656 150.724533 
L 928.88714 150.818113 
L 933.467624 150.282052 
L 938.048108 150.072117 
L 942.628593 148.847832 
L 947.209077 149.028144 
L 947.209077 149.028144 
" clip-path="url(#p03e0a8beda)" style="fill: none; stroke: #2ca02c; stroke-opacity: 0.35; stroke-width: 1.2; stroke-linecap: round"/>
   </g>
   <g id="line2d_19">
    <path d="M 131.882891 33.203182 
L 136.463375 41.256068 
L 141.043859 51.960676 
L 145.624344 63.461522 
L 150.204828 76.836789 
L 154.785312 87.146205 
L 159.365796 99.090128 
L 163.94628 111.807781 
L 168.526764 117.610547 
L 173.107249 121.912712 
L 177.687733 126.374155 
L 182.268217 129.811924 
L 186.848701 134.271778 
L 196.00967 139.672267 
L 200.590154 141.904243 
L 205.170638 143.646273 
L 209.751122 140.935368 
L 214.331606 137.824451 
L 223.492575 133.512912 
L 228.073059 130.447465 
L 237.234027 117.959787 
L 241.814511 115.311315 
L 246.394996 112.794813 
L 255.555964 108.381493 
L 260.136448 106.788579 
L 278.458385 112.364715 
L 283.038869 113.892807 
L 287.619353 115.819536 
L 292.199838 117.602358 
L 296.780322 118.270539 
L 305.94129 118.550301 
L 319.682743 118.758538 
L 324.263227 118.743359 
L 328.843711 119.699955 
L 333.424195 120.974273 
L 360.9071 117.576319 
L 365.487585 116.620285 
L 392.97049 92.117037 
L 397.550974 88.198977 
L 415.872911 86.251267 
L 425.033879 85.111817 
L 429.614363 83.648722 
L 447.9363 83.516607 
L 457.097268 83.728771 
L 479.999689 86.474097 
L 484.580174 86.447186 
L 498.321626 85.859351 
L 507.482594 84.306116 
L 512.063079 83.630188 
L 516.643563 83.428597 
L 521.224047 83.374601 
L 530.385015 84.024696 
L 539.545984 85.926045 
L 548.706952 87.355085 
L 557.867921 87.843852 
L 571.609373 88.074971 
L 580.770342 88.627674 
L 585.350826 85.557234 
L 589.93131 82.33147 
L 612.833731 64.313454 
L 621.994699 64.479337 
L 640.316636 66.42722 
L 644.89712 66.724498 
L 649.477604 66.716307 
L 654.058089 66.434281 
L 658.638573 66.010106 
L 676.96051 59.138379 
L 681.540994 57.797776 
L 686.121478 56.788389 
L 690.701962 56.037153 
L 704.443415 57.710575 
L 713.604383 59.020544 
L 731.92632 61.315182 
L 741.087288 62.288442 
L 750.248257 63.430416 
L 763.989709 64.984144 
L 768.570193 65.555716 
L 782.311646 66.578073 
L 786.89213 66.072589 
L 805.214067 62.413933 
L 809.794551 61.171626 
L 814.375035 59.523599 
L 818.955519 58.397607 
L 832.696972 55.769877 
L 841.85794 52.209447 
L 846.438425 50.71839 
L 855.599393 48.298139 
L 864.760361 45.964736 
L 873.92133 45.76201 
L 892.243266 44.450288 
L 896.823751 44.04712 
L 905.984719 43.023703 
L 910.565203 42.792194 
L 928.88714 41.235153 
L 933.467624 40.153953 
L 942.628593 38.286469 
L 947.209077 36.887959 
L 947.209077 36.887959 
" clip-path="url(#p03e0a8beda)" style="fill: none; stroke: #ff7f0e; stroke-width: 2; stroke-linecap: round"/>
   </g>
   <g id="line2d_20">
    <path d="M 131.882891 149.910585 
L 136.463375 152.527367 
L 141.043859 155.976097 
L 145.624344 159.964404 
L 150.204828 165.315617 
L 154.785312 171.427244 
L 163.94628 184.749868 
L 177.687733 199.240094 
L 182.268217 203.383854 
L 186.848701 206.918809 
L 191.429185 209.887562 
L 196.00967 213.111749 
L 200.590154 215.985086 
L 205.170638 218.547211 
L 209.751122 216.561381 
L 218.912091 212.302733 
L 223.492575 210.438196 
L 228.073059 208.104073 
L 237.234027 198.425072 
L 241.814511 197.690796 
L 250.97548 195.577246 
L 255.555964 194.449548 
L 260.136448 193.565128 
L 269.297417 196.441086 
L 278.458385 199.332358 
L 292.199838 203.781693 
L 296.780322 204.284975 
L 305.94129 204.374353 
L 315.102259 204.127031 
L 324.263227 202.875373 
L 328.843711 203.177053 
L 333.424195 203.852598 
L 347.165648 200.170858 
L 360.9071 198.046119 
L 365.487585 196.937238 
L 388.390006 173.031808 
L 392.97049 167.863739 
L 397.550974 163.052575 
L 411.292427 161.367518 
L 425.033879 159.532987 
L 429.614363 158.242109 
L 447.9363 158.344588 
L 452.516784 158.531036 
L 457.097268 158.599764 
L 461.677753 159.158446 
L 475.419205 160.430763 
L 479.999689 160.742797 
L 484.580174 160.787131 
L 489.160658 161.061518 
L 498.321626 159.568248 
L 512.063079 155.009712 
L 516.643563 153.671067 
L 521.224047 152.202351 
L 530.385015 151.810102 
L 539.545984 153.028503 
L 544.126468 153.307593 
L 571.609373 155.707869 
L 576.189857 156.405311 
L 580.770342 156.801043 
L 589.93131 153.130736 
L 608.253247 145.679896 
L 612.833731 143.982317 
L 635.736152 146.264323 
L 640.316636 146.568008 
L 644.89712 147.012566 
L 658.638573 148.694691 
L 676.96051 145.714005 
L 686.121478 142.881633 
L 690.701962 141.199242 
L 699.86293 140.314051 
L 709.023899 139.797377 
L 713.604383 140.114854 
L 718.184867 140.552622 
L 736.506804 142.764792 
L 754.828741 144.750465 
L 768.570193 146.518486 
L 773.150677 146.994667 
L 782.311646 147.690215 
L 786.89213 147.660925 
L 800.633583 146.600392 
L 805.214067 146.390773 
L 814.375035 146.188775 
L 818.955519 146.436422 
L 832.696972 147.888463 
L 851.018909 147.211364 
L 864.760361 146.834544 
L 873.92133 147.764229 
L 883.082298 148.374781 
L 901.404235 148.89298 
L 910.565203 149.222444 
L 915.145687 149.364381 
L 928.88714 150.158166 
L 938.048108 150.373314 
L 947.209077 150.030128 
L 947.209077 150.030128 
" clip-path="url(#p03e0a8beda)" style="fill: none; stroke: #2ca02c; stroke-width: 2; stroke-linecap: round"/>
   </g>
   <g id="patch_3">
    <path d="M 62.259531 234.849375 
L 62.259531 21.789375 
" style="fill: none; stroke: #cccccc; stroke-width: 1.25; stroke-linejoin: miter; stroke-linecap: square"/>
   </g>
   <g id="patch_4">
    <path d="M 989.349531 234.849375 
L 989.349531 21.789375 
" style="fill: none; stroke: #cccccc; stroke-width: 1.25; stroke-linejoin: miter; stroke-linecap: square"/>
   </g>
   <g id="patch_5">
    <path d="M 62.259531 234.849375 
L 989.349531 234.849375 
" style="fill: none; stroke: #cccccc; stroke-width: 1.25; stroke-linejoin: miter; stroke-linecap: square"/>
   </g>
   <g id="patch_6">
    <path d="M 62.259531 21.789375 
L 989.349531 21.789375 
" style="fill: none; stroke: #cccccc; stroke-width: 1.25; stroke-linejoin: miter; stroke-linecap: square"/>
   </g>
   <g id="text_19">
    <!-- Cluster 0: 95% Prediction Interval Width Over Time -->
    <g style="fill: #262626" transform="translate(381.266406 15.789375) scale(0.12 -0.12)">
     <defs>
      <path id="Arial-BoldMT-43" d="M 3397 1684 
L 4294 1400 
Q 4088 650 3608 286 
Q 3128 -78 2391 -78 
Q 1478 -78 890 545 
Q 303 1169 303 2250 
Q 303 3394 893 4026 
Q 1484 4659 2447 4659 
Q 3288 4659 3813 4163 
Q 4125 3869 4281 3319 
L 3366 3100 
Q 3284 3456 3026 3662 
Q 2769 3869 2400 3869 
Q 1891 3869 1573 3503 
Q 1256 3138 1256 2319 
Q 1256 1450 1568 1081 
Q 1881 713 2381 713 
Q 2750 713 3015 947 
Q 3281 1181 3397 1684 
z
" transform="scale(0.015625)"/>
      <path id="Arial-BoldMT-6c" d="M 459 0 
L 459 4581 
L 1338 4581 
L 1338 0 
L 459 0 
z
" transform="scale(0.015625)"/>
      <path id="Arial-BoldMT-75" d="M 2644 0 
L 2644 497 
Q 2463 231 2167 78 
Q 1872 -75 1544 -75 
Q 1209 -75 943 72 
Q 678 219 559 484 
Q 441 750 441 1219 
L 441 3319 
L 1319 3319 
L 1319 1794 
Q 1319 1094 1367 936 
Q 1416 778 1544 686 
Q 1672 594 1869 594 
Q 2094 594 2272 717 
Q 2450 841 2515 1023 
Q 2581 1206 2581 1919 
L 2581 3319 
L 3459 3319 
L 3459 0 
L 2644 0 
z
" transform="scale(0.015625)"/>
      <path id="Arial-BoldMT-73" d="M 150 947 
L 1031 1081 
Q 1088 825 1259 692 
Q 1431 559 1741 559 
Q 2081 559 2253 684 
Q 2369 772 2369 919 
Q 2369 1019 2306 1084 
Q 2241 1147 2013 1200 
Q 950 1434 666 1628 
Q 272 1897 272 2375 
Q 272 2806 612 3100 
Q 953 3394 1669 3394 
Q 2350 3394 2681 3172 
Q 3013 2950 3138 2516 
L 2309 2363 
Q 2256 2556 2107 2659 
Q 1959 2763 1684 2763 
Q 1338 2763 1188 2666 
Q 1088 2597 1088 2488 
Q 1088 2394 1175 2328 
Q 1294 2241 1995 2081 
Q 2697 1922 2975 1691 
Q 3250 1456 3250 1038 
Q 3250 581 2869 253 
Q 2488 -75 1741 -75 
Q 1063 -75 667 200 
Q 272 475 150 947 
z
" transform="scale(0.015625)"/>
      <path id="Arial-BoldMT-74" d="M 1981 3319 
L 1981 2619 
L 1381 2619 
L 1381 1281 
Q 1381 875 1398 808 
Q 1416 741 1477 697 
Q 1538 653 1625 653 
Q 1747 653 1978 738 
L 2053 56 
Q 1747 -75 1359 -75 
Q 1122 -75 931 4 
Q 741 84 652 211 
Q 563 338 528 553 
Q 500 706 500 1172 
L 500 2619 
L 97 2619 
L 97 3319 
L 500 3319 
L 500 3978 
L 1381 4491 
L 1381 3319 
L 1981 3319 
z
" transform="scale(0.015625)"/>
      <path id="Arial-BoldMT-65" d="M 2381 1056 
L 3256 909 
Q 3088 428 2723 176 
Q 2359 -75 1813 -75 
Q 947 -75 531 491 
Q 203 944 203 1634 
Q 203 2459 634 2926 
Q 1066 3394 1725 3394 
Q 2466 3394 2894 2905 
Q 3322 2416 3303 1406 
L 1103 1406 
Q 1113 1016 1316 798 
Q 1519 581 1822 581 
Q 2028 581 2168 693 
Q 2309 806 2381 1056 
z
M 2431 1944 
Q 2422 2325 2234 2523 
Q 2047 2722 1778 2722 
Q 1491 2722 1303 2513 
Q 1116 2303 1119 1944 
L 2431 1944 
z
" transform="scale(0.015625)"/>
      <path id="Arial-BoldMT-72" d="M 1300 0 
L 422 0 
L 422 3319 
L 1238 3319 
L 1238 2847 
Q 1447 3181 1614 3287 
Q 1781 3394 1994 3394 
Q 2294 3394 2572 3228 
L 2300 2463 
Q 2078 2606 1888 2606 
Q 1703 2606 1575 2504 
Q 1447 2403 1373 2137 
Q 1300 1872 1300 1025 
L 1300 0 
z
" transform="scale(0.015625)"/>
      <path id="Arial-BoldMT-20" transform="scale(0.015625)"/>
      <path id="Arial-BoldMT-30" d="M 1756 4600 
Q 2422 4600 2797 4125 
Q 3244 3563 3244 2259 
Q 3244 959 2794 391 
Q 2422 -78 1756 -78 
Q 1088 -78 678 436 
Q 269 950 269 2269 
Q 269 3563 719 4131 
Q 1091 4600 1756 4600 
z
M 1756 3872 
Q 1597 3872 1472 3770 
Q 1347 3669 1278 3406 
Q 1188 3066 1188 2259 
Q 1188 1453 1269 1151 
Q 1350 850 1473 750 
Q 1597 650 1756 650 
Q 1916 650 2041 751 
Q 2166 853 2234 1116 
Q 2325 1453 2325 2259 
Q 2325 3066 2244 3367 
Q 2163 3669 2039 3770 
Q 1916 3872 1756 3872 
z
" transform="scale(0.015625)"/>
      <path id="Arial-BoldMT-3a" d="M 628 2441 
L 628 3319 
L 1506 3319 
L 1506 2441 
L 628 2441 
z
M 628 0 
L 628 878 
L 1506 878 
L 1506 0 
L 628 0 
z
" transform="scale(0.015625)"/>
      <path id="Arial-BoldMT-39" d="M 291 1059 
L 1141 1153 
Q 1172 894 1303 769 
Q 1434 644 1650 644 
Q 1922 644 2112 894 
Q 2303 1144 2356 1931 
Q 2025 1547 1528 1547 
Q 988 1547 595 1964 
Q 203 2381 203 3050 
Q 203 3747 617 4173 
Q 1031 4600 1672 4600 
Q 2369 4600 2816 4061 
Q 3263 3522 3263 2288 
Q 3263 1031 2797 475 
Q 2331 -81 1584 -81 
Q 1047 -81 715 205 
Q 384 491 291 1059 
z
M 2278 2978 
Q 2278 3403 2083 3637 
Q 1888 3872 1631 3872 
Q 1388 3872 1227 3680 
Q 1066 3488 1066 3050 
Q 1066 2606 1241 2398 
Q 1416 2191 1678 2191 
Q 1931 2191 2104 2391 
Q 2278 2591 2278 2978 
z
" transform="scale(0.015625)"/>
      <path id="Arial-BoldMT-35" d="M 284 1178 
L 1159 1269 
Q 1197 972 1381 798 
Q 1566 625 1806 625 
Q 2081 625 2272 848 
Q 2463 1072 2463 1522 
Q 2463 1944 2273 2155 
Q 2084 2366 1781 2366 
Q 1403 2366 1103 2031 
L 391 2134 
L 841 4519 
L 3163 4519 
L 3163 3697 
L 1506 3697 
L 1369 2919 
Q 1663 3066 1969 3066 
Q 2553 3066 2959 2641 
Q 3366 2216 3366 1538 
Q 3366 972 3038 528 
Q 2591 -78 1797 -78 
Q 1163 -78 763 262 
Q 363 603 284 1178 
z
" transform="scale(0.015625)"/>
      <path id="Arial-BoldMT-25" d="M 278 3450 
Q 278 4066 548 4362 
Q 819 4659 1281 4659 
Q 1759 4659 2029 4364 
Q 2300 4069 2300 3450 
Q 2300 2834 2029 2537 
Q 1759 2241 1297 2241 
Q 819 2241 548 2536 
Q 278 2831 278 3450 
z
M 963 3456 
Q 963 3009 1066 2856 
Q 1144 2744 1281 2744 
Q 1422 2744 1500 2856 
Q 1600 3009 1600 3456 
Q 1600 3903 1500 4053 
Q 1422 4169 1281 4169 
Q 1144 4169 1066 4056 
Q 963 3903 963 3456 
z
M 1950 -175 
L 1300 -175 
L 3741 4659 
L 4372 4659 
L 1950 -175 
z
M 3369 1028 
Q 3369 1644 3639 1941 
Q 3909 2238 4378 2238 
Q 4850 2238 5120 1941 
Q 5391 1644 5391 1028 
Q 5391 409 5120 112 
Q 4850 -184 4388 -184 
Q 3909 -184 3639 112 
Q 3369 409 3369 1028 
z
M 4053 1031 
Q 4053 584 4156 434 
Q 4234 319 4372 319 
Q 4513 319 4588 431 
Q 4691 584 4691 1031 
Q 4691 1478 4591 1631 
Q 4513 1744 4372 1744 
Q 4231 1744 4156 1631 
Q 4053 1478 4053 1031 
z
" transform="scale(0.015625)"/>
      <path id="Arial-BoldMT-50" d="M 466 0 
L 466 4581 
L 1950 4581 
Q 2794 4581 3050 4513 
Q 3444 4409 3709 4064 
Q 3975 3719 3975 3172 
Q 3975 2750 3822 2462 
Q 3669 2175 3433 2011 
Q 3197 1847 2953 1794 
Q 2622 1728 1994 1728 
L 1391 1728 
L 1391 0 
L 466 0 
z
M 1391 3806 
L 1391 2506 
L 1897 2506 
Q 2444 2506 2628 2578 
Q 2813 2650 2917 2803 
Q 3022 2956 3022 3159 
Q 3022 3409 2875 3571 
Q 2728 3734 2503 3775 
Q 2338 3806 1838 3806 
L 1391 3806 
z
" transform="scale(0.015625)"/>
      <path id="Arial-BoldMT-64" d="M 3503 0 
L 2688 0 
L 2688 488 
Q 2484 203 2207 64 
Q 1931 -75 1650 -75 
Q 1078 -75 670 386 
Q 263 847 263 1672 
Q 263 2516 659 2955 
Q 1056 3394 1663 3394 
Q 2219 3394 2625 2931 
L 2625 4581 
L 3503 4581 
L 3503 0 
z
M 1159 1731 
Q 1159 1200 1306 963 
Q 1519 619 1900 619 
Q 2203 619 2415 876 
Q 2628 1134 2628 1647 
Q 2628 2219 2422 2470 
Q 2216 2722 1894 2722 
Q 1581 2722 1370 2473 
Q 1159 2225 1159 1731 
z
" transform="scale(0.015625)"/>
      <path id="Arial-BoldMT-69" d="M 459 3769 
L 459 4581 
L 1338 4581 
L 1338 3769 
L 459 3769 
z
M 459 0 
L 459 3319 
L 1338 3319 
L 1338 0 
L 459 0 
z
" transform="scale(0.015625)"/>
      <path id="Arial-BoldMT-63" d="M 3353 2338 
L 2488 2181 
Q 2444 2441 2289 2572 
Q 2134 2703 1888 2703 
Q 1559 2703 1364 2476 
Q 1169 2250 1169 1719 
Q 1169 1128 1367 884 
Q 1566 641 1900 641 
Q 2150 641 2309 783 
Q 2469 925 2534 1272 
L 3397 1125 
Q 3263 531 2881 228 
Q 2500 -75 1859 -75 
Q 1131 -75 698 384 
Q 266 844 266 1656 
Q 266 2478 700 2936 
Q 1134 3394 1875 3394 
Q 2481 3394 2839 3133 
Q 3197 2872 3353 2338 
z
" transform="scale(0.015625)"/>
      <path id="Arial-BoldMT-6f" d="M 256 1706 
Q 256 2144 472 2553 
Q 688 2963 1083 3178 
Q 1478 3394 1966 3394 
Q 2719 3394 3200 2905 
Q 3681 2416 3681 1669 
Q 3681 916 3195 420 
Q 2709 -75 1972 -75 
Q 1516 -75 1102 131 
Q 688 338 472 736 
Q 256 1134 256 1706 
z
M 1156 1659 
Q 1156 1166 1390 903 
Q 1625 641 1969 641 
Q 2313 641 2545 903 
Q 2778 1166 2778 1666 
Q 2778 2153 2545 2415 
Q 2313 2678 1969 2678 
Q 1625 2678 1390 2415 
Q 1156 2153 1156 1659 
z
" transform="scale(0.015625)"/>
      <path id="Arial-BoldMT-6e" d="M 3478 0 
L 2600 0 
L 2600 1694 
Q 2600 2231 2544 2389 
Q 2488 2547 2361 2634 
Q 2234 2722 2056 2722 
Q 1828 2722 1647 2597 
Q 1466 2472 1398 2265 
Q 1331 2059 1331 1503 
L 1331 0 
L 453 0 
L 453 3319 
L 1269 3319 
L 1269 2831 
Q 1703 3394 2363 3394 
Q 2653 3394 2893 3289 
Q 3134 3184 3257 3021 
Q 3381 2859 3429 2653 
Q 3478 2447 3478 2063 
L 3478 0 
z
" transform="scale(0.015625)"/>
      <path id="Arial-BoldMT-49" d="M 438 0 
L 438 4581 
L 1363 4581 
L 1363 0 
L 438 0 
z
" transform="scale(0.015625)"/>
      <path id="Arial-BoldMT-76" d="M 1372 0 
L 34 3319 
L 956 3319 
L 1581 1625 
L 1763 1059 
Q 1834 1275 1853 1344 
Q 1897 1484 1947 1625 
L 2578 3319 
L 3481 3319 
L 2163 0 
L 1372 0 
z
" transform="scale(0.015625)"/>
      <path id="Arial-BoldMT-61" d="M 1116 2306 
L 319 2450 
Q 453 2931 781 3162 
Q 1109 3394 1756 3394 
Q 2344 3394 2631 3255 
Q 2919 3116 3036 2902 
Q 3153 2688 3153 2116 
L 3144 1091 
Q 3144 653 3186 445 
Q 3228 238 3344 0 
L 2475 0 
Q 2441 88 2391 259 
Q 2369 338 2359 363 
Q 2134 144 1878 34 
Q 1622 -75 1331 -75 
Q 819 -75 523 203 
Q 228 481 228 906 
Q 228 1188 362 1408 
Q 497 1628 739 1745 
Q 981 1863 1438 1950 
Q 2053 2066 2291 2166 
L 2291 2253 
Q 2291 2506 2166 2614 
Q 2041 2722 1694 2722 
Q 1459 2722 1328 2630 
Q 1197 2538 1116 2306 
z
M 2291 1594 
Q 2122 1538 1756 1459 
Q 1391 1381 1278 1306 
Q 1106 1184 1106 997 
Q 1106 813 1243 678 
Q 1381 544 1594 544 
Q 1831 544 2047 700 
Q 2206 819 2256 991 
Q 2291 1103 2291 1419 
L 2291 1594 
z
" transform="scale(0.015625)"/>
      <path id="Arial-BoldMT-57" d="M 1116 0 
L 22 4581 
L 969 4581 
L 1659 1434 
L 2497 4581 
L 3597 4581 
L 4400 1381 
L 5103 4581 
L 6034 4581 
L 4922 0 
L 3941 0 
L 3028 3425 
L 2119 0 
L 1116 0 
z
" transform="scale(0.015625)"/>
      <path id="Arial-BoldMT-68" d="M 1334 4581 
L 1334 2897 
Q 1759 3394 2350 3394 
Q 2653 3394 2897 3281 
Q 3141 3169 3264 2994 
Q 3388 2819 3433 2606 
Q 3478 2394 3478 1947 
L 3478 0 
L 2600 0 
L 2600 1753 
Q 2600 2275 2550 2415 
Q 2500 2556 2373 2639 
Q 2247 2722 2056 2722 
Q 1838 2722 1666 2615 
Q 1494 2509 1414 2295 
Q 1334 2081 1334 1663 
L 1334 0 
L 456 0 
L 456 4581 
L 1334 4581 
z
" transform="scale(0.015625)"/>
      <path id="Arial-BoldMT-4f" d="M 278 2263 
Q 278 2963 488 3438 
Q 644 3788 914 4066 
Q 1184 4344 1506 4478 
Q 1934 4659 2494 4659 
Q 3506 4659 4114 4031 
Q 4722 3403 4722 2284 
Q 4722 1175 4119 548 
Q 3516 -78 2506 -78 
Q 1484 -78 881 545 
Q 278 1169 278 2263 
z
M 1231 2294 
Q 1231 1516 1590 1114 
Q 1950 713 2503 713 
Q 3056 713 3411 1111 
Q 3766 1509 3766 2306 
Q 3766 3094 3420 3481 
Q 3075 3869 2503 3869 
Q 1931 3869 1581 3476 
Q 1231 3084 1231 2294 
z
" transform="scale(0.015625)"/>
      <path id="Arial-BoldMT-54" d="M 1497 0 
L 1497 3806 
L 138 3806 
L 138 4581 
L 3778 4581 
L 3778 3806 
L 2422 3806 
L 2422 0 
L 1497 0 
z
" transform="scale(0.015625)"/>
      <path id="Arial-BoldMT-6d" d="M 394 3319 
L 1203 3319 
L 1203 2866 
Q 1638 3394 2238 3394 
Q 2556 3394 2790 3262 
Q 3025 3131 3175 2866 
Q 3394 3131 3647 3262 
Q 3900 3394 4188 3394 
Q 4553 3394 4806 3245 
Q 5059 3097 5184 2809 
Q 5275 2597 5275 2122 
L 5275 0 
L 4397 0 
L 4397 1897 
Q 4397 2391 4306 2534 
Q 4184 2722 3931 2722 
Q 3747 2722 3584 2609 
Q 3422 2497 3350 2280 
Q 3278 2063 3278 1594 
L 3278 0 
L 2400 0 
L 2400 1819 
Q 2400 2303 2353 2443 
Q 2306 2584 2207 2653 
Q 2109 2722 1941 2722 
Q 1738 2722 1575 2612 
Q 1413 2503 1342 2297 
Q 1272 2091 1272 1613 
L 1272 0 
L 394 0 
L 394 3319 
z
" transform="scale(0.015625)"/>
     </defs>
     <use xlink:href="#Arial-BoldMT-43"/>
     <use xlink:href="#Arial-BoldMT-6c" x="72.216797"/>
     <use xlink:href="#Arial-BoldMT-75" x="100"/>
     <use xlink:href="#Arial-BoldMT-73" x="161.083984"/>
     <use xlink:href="#Arial-BoldMT-74" x="216.699219"/>
     <use xlink:href="#Arial-BoldMT-65" x="250"/>
     <use xlink:href="#Arial-BoldMT-72" x="305.615234"/>
     <use xlink:href="#Arial-BoldMT-20" x="344.53125"/>
     <use xlink:href="#Arial-BoldMT-30" x="372.314453"/>
     <use xlink:href="#Arial-BoldMT-3a" x="427.929688"/>
     <use xlink:href="#Arial-BoldMT-20" x="461.230469"/>
     <use xlink:href="#Arial-BoldMT-39" x="489.013672"/>
     <use xlink:href="#Arial-BoldMT-35" x="544.628906"/>
     <use xlink:href="#Arial-BoldMT-25" x="600.244141"/>
     <use xlink:href="#Arial-BoldMT-20" x="689.160156"/>
     <use xlink:href="#Arial-BoldMT-50" x="716.943359"/>
     <use xlink:href="#Arial-BoldMT-72" x="783.642578"/>
     <use xlink:href="#Arial-BoldMT-65" x="822.558594"/>
     <use xlink:href="#Arial-BoldMT-64" x="878.173828"/>
     <use xlink:href="#Arial-BoldMT-69" x="939.257812"/>
     <use xlink:href="#Arial-BoldMT-63" x="967.041016"/>
     <use xlink:href="#Arial-BoldMT-74" x="1022.65625"/>
     <use xlink:href="#Arial-BoldMT-69" x="1055.957031"/>
     <use xlink:href="#Arial-BoldMT-6f" x="1083.740234"/>
     <use xlink:href="#Arial-BoldMT-6e" x="1144.824219"/>
     <use xlink:href="#Arial-BoldMT-20" x="1205.908203"/>
     <use xlink:href="#Arial-BoldMT-49" x="1233.691406"/>
     <use xlink:href="#Arial-BoldMT-6e" x="1261.474609"/>
     <use xlink:href="#Arial-BoldMT-74" x="1322.558594"/>
     <use xlink:href="#Arial-BoldMT-65" x="1355.859375"/>
     <use xlink:href="#Arial-BoldMT-72" x="1411.474609"/>
     <use xlink:href="#Arial-BoldMT-76" x="1450.390625"/>
     <use xlink:href="#Arial-BoldMT-61" x="1506.005859"/>
     <use xlink:href="#Arial-BoldMT-6c" x="1561.621094"/>
     <use xlink:href="#Arial-BoldMT-20" x="1589.404297"/>
     <use xlink:href="#Arial-BoldMT-57" x="1617.1875"/>
     <use xlink:href="#Arial-BoldMT-69" x="1710.697266"/>
     <use xlink:href="#Arial-BoldMT-64" x="1738.480469"/>
     <use xlink:href="#Arial-BoldMT-74" x="1799.564453"/>
     <use xlink:href="#Arial-BoldMT-68" x="1832.865234"/>
     <use xlink:href="#Arial-BoldMT-20" x="1893.949219"/>
     <use xlink:href="#Arial-BoldMT-4f" x="1921.732422"/>
     <use xlink:href="#Arial-BoldMT-76" x="1999.515625"/>
     <use xlink:href="#Arial-BoldMT-65" x="2055.130859"/>
     <use xlink:href="#Arial-BoldMT-72" x="2110.746094"/>
     <use xlink:href="#Arial-BoldMT-20" x="2149.662109"/>
     <use xlink:href="#Arial-BoldMT-54" x="2177.445312"/>
     <use xlink:href="#Arial-BoldMT-69" x="2236.779297"/>
     <use xlink:href="#Arial-BoldMT-6d" x="2264.5625"/>
     <use xlink:href="#Arial-BoldMT-65" x="2353.478516"/>
    </g>
   </g>
   <g id="legend_1">
    <g id="line2d_21">
     <path d="M 576.333281 211.658125 
L 584.333281 211.658125 
L 592.333281 211.658125 
" style="fill: none; stroke: #ff7f0e; stroke-opacity: 0.35; stroke-width: 1.2; stroke-linecap: round"/>
    </g>
    <g id="text_20">
     <!-- Model 1 (TSB) 95% interval width -->
     <g style="fill: #262626" transform="translate(598.733281 214.458125) scale(0.08 -0.08)">
      <defs>
       <path id="ArialMT-4d" d="M 475 0 
L 475 4581 
L 1388 4581 
L 2472 1338 
Q 2622 884 2691 659 
Q 2769 909 2934 1394 
L 4031 4581 
L 4847 4581 
L 4847 0 
L 4263 0 
L 4263 3834 
L 2931 0 
L 2384 0 
L 1059 3900 
L 1059 0 
L 475 0 
z
" transform="scale(0.015625)"/>
       <path id="ArialMT-6f" d="M 213 1659 
Q 213 2581 725 3025 
Q 1153 3394 1769 3394 
Q 2453 3394 2887 2945 
Q 3322 2497 3322 1706 
Q 3322 1066 3130 698 
Q 2938 331 2570 128 
Q 2203 -75 1769 -75 
Q 1072 -75 642 372 
Q 213 819 213 1659 
z
M 791 1659 
Q 791 1022 1069 705 
Q 1347 388 1769 388 
Q 2188 388 2466 706 
Q 2744 1025 2744 1678 
Q 2744 2294 2464 2611 
Q 2184 2928 1769 2928 
Q 1347 2928 1069 2612 
Q 791 2297 791 1659 
z
" transform="scale(0.015625)"/>
       <path id="ArialMT-28" d="M 1497 -1347 
Q 1031 -759 709 28 
Q 388 816 388 1659 
Q 388 2403 628 3084 
Q 909 3875 1497 4659 
L 1900 4659 
Q 1522 4009 1400 3731 
Q 1209 3300 1100 2831 
Q 966 2247 966 1656 
Q 966 153 1900 -1347 
L 1497 -1347 
z
" transform="scale(0.015625)"/>
       <path id="ArialMT-54" d="M 1659 0 
L 1659 4041 
L 150 4041 
L 150 4581 
L 3781 4581 
L 3781 4041 
L 2266 4041 
L 2266 0 
L 1659 0 
z
" transform="scale(0.015625)"/>
       <path id="ArialMT-53" d="M 288 1472 
L 859 1522 
Q 900 1178 1048 958 
Q 1197 738 1509 602 
Q 1822 466 2213 466 
Q 2559 466 2825 569 
Q 3091 672 3220 851 
Q 3350 1031 3350 1244 
Q 3350 1459 3225 1620 
Q 3100 1781 2813 1891 
Q 2628 1963 1997 2114 
Q 1366 2266 1113 2400 
Q 784 2572 623 2826 
Q 463 3081 463 3397 
Q 463 3744 659 4045 
Q 856 4347 1234 4503 
Q 1613 4659 2075 4659 
Q 2584 4659 2973 4495 
Q 3363 4331 3572 4012 
Q 3781 3694 3797 3291 
L 3216 3247 
Q 3169 3681 2898 3903 
Q 2628 4125 2100 4125 
Q 1550 4125 1298 3923 
Q 1047 3722 1047 3438 
Q 1047 3191 1225 3031 
Q 1400 2872 2139 2705 
Q 2878 2538 3153 2413 
Q 3553 2228 3743 1945 
Q 3934 1663 3934 1294 
Q 3934 928 3725 604 
Q 3516 281 3123 101 
Q 2731 -78 2241 -78 
Q 1619 -78 1198 103 
Q 778 284 539 648 
Q 300 1013 288 1472 
z
" transform="scale(0.015625)"/>
       <path id="ArialMT-42" d="M 469 0 
L 469 4581 
L 2188 4581 
Q 2713 4581 3030 4442 
Q 3347 4303 3526 4014 
Q 3706 3725 3706 3409 
Q 3706 3116 3547 2856 
Q 3388 2597 3066 2438 
Q 3481 2316 3704 2022 
Q 3928 1728 3928 1328 
Q 3928 1006 3792 729 
Q 3656 453 3456 303 
Q 3256 153 2954 76 
Q 2653 0 2216 0 
L 469 0 
z
M 1075 2656 
L 2066 2656 
Q 2469 2656 2644 2709 
Q 2875 2778 2992 2937 
Q 3109 3097 3109 3338 
Q 3109 3566 3000 3739 
Q 2891 3913 2687 3977 
Q 2484 4041 1991 4041 
L 1075 4041 
L 1075 2656 
z
M 1075 541 
L 2216 541 
Q 2509 541 2628 563 
Q 2838 600 2978 687 
Q 3119 775 3209 942 
Q 3300 1109 3300 1328 
Q 3300 1584 3169 1773 
Q 3038 1963 2805 2039 
Q 2572 2116 2134 2116 
L 1075 2116 
L 1075 541 
z
" transform="scale(0.015625)"/>
       <path id="ArialMT-29" d="M 791 -1347 
L 388 -1347 
Q 1322 153 1322 1656 
Q 1322 2244 1188 2822 
Q 1081 3291 891 3722 
Q 769 4003 388 4659 
L 791 4659 
Q 1378 3875 1659 3084 
Q 1900 2403 1900 1659 
Q 1900 816 1576 28 
Q 1253 -759 791 -1347 
z
" transform="scale(0.015625)"/>
       <path id="ArialMT-35" d="M 266 1200 
L 856 1250 
Q 922 819 1161 601 
Q 1400 384 1738 384 
Q 2144 384 2425 690 
Q 2706 997 2706 1503 
Q 2706 1984 2436 2262 
Q 2166 2541 1728 2541 
Q 1456 2541 1237 2417 
Q 1019 2294 894 2097 
L 366 2166 
L 809 4519 
L 3088 4519 
L 3088 3981 
L 1259 3981 
L 1013 2750 
Q 1425 3038 1878 3038 
Q 2478 3038 2890 2622 
Q 3303 2206 3303 1553 
Q 3303 931 2941 478 
Q 2500 -78 1738 -78 
Q 1113 -78 717 272 
Q 322 622 266 1200 
z
" transform="scale(0.015625)"/>
       <path id="ArialMT-25" d="M 372 3481 
Q 372 3972 619 4315 
Q 866 4659 1334 4659 
Q 1766 4659 2048 4351 
Q 2331 4044 2331 3447 
Q 2331 2866 2045 2552 
Q 1759 2238 1341 2238 
Q 925 2238 648 2547 
Q 372 2856 372 3481 
z
M 1350 4272 
Q 1141 4272 1002 4090 
Q 863 3909 863 3425 
Q 863 2984 1003 2804 
Q 1144 2625 1350 2625 
Q 1563 2625 1702 2806 
Q 1841 2988 1841 3469 
Q 1841 3913 1700 4092 
Q 1559 4272 1350 4272 
z
M 1353 -169 
L 3859 4659 
L 4316 4659 
L 1819 -169 
L 1353 -169 
z
M 3334 1075 
Q 3334 1569 3581 1911 
Q 3828 2253 4300 2253 
Q 4731 2253 5014 1945 
Q 5297 1638 5297 1041 
Q 5297 459 5011 145 
Q 4725 -169 4303 -169 
Q 3888 -169 3611 142 
Q 3334 453 3334 1075 
z
M 4316 1866 
Q 4103 1866 3964 1684 
Q 3825 1503 3825 1019 
Q 3825 581 3965 400 
Q 4106 219 4313 219 
Q 4528 219 4667 400 
Q 4806 581 4806 1063 
Q 4806 1506 4665 1686 
Q 4525 1866 4316 1866 
z
" transform="scale(0.015625)"/>
      </defs>
      <use xlink:href="#ArialMT-4d"/>
      <use xlink:href="#ArialMT-6f" x="83.300781"/>
      <use xlink:href="#ArialMT-64" x="138.916016"/>
      <use xlink:href="#ArialMT-65" x="194.53125"/>
      <use xlink:href="#ArialMT-6c" x="250.146484"/>
      <use xlink:href="#ArialMT-20" x="272.363281"/>
      <use xlink:href="#ArialMT-31" x="300.146484"/>
      <use xlink:href="#ArialMT-20" x="355.761719"/>
      <use xlink:href="#ArialMT-28" x="383.544922"/>
      <use xlink:href="#ArialMT-54" x="416.845703"/>
      <use xlink:href="#ArialMT-53" x="477.929688"/>
      <use xlink:href="#ArialMT-42" x="544.628906"/>
      <use xlink:href="#ArialMT-29" x="611.328125"/>
      <use xlink:href="#ArialMT-20" x="644.628906"/>
      <use xlink:href="#ArialMT-39" x="672.412109"/>
      <use xlink:href="#ArialMT-35" x="728.027344"/>
      <use xlink:href="#ArialMT-25" x="783.642578"/>
      <use xlink:href="#ArialMT-20" x="872.558594"/>
      <use xlink:href="#ArialMT-69" x="900.341797"/>
      <use xlink:href="#ArialMT-6e" x="922.558594"/>
      <use xlink:href="#ArialMT-74" x="978.173828"/>
      <use xlink:href="#ArialMT-65" x="1005.957031"/>
      <use xlink:href="#ArialMT-72" x="1061.572266"/>
      <use xlink:href="#ArialMT-76" x="1094.873047"/>
      <use xlink:href="#ArialMT-61" x="1144.873047"/>
      <use xlink:href="#ArialMT-6c" x="1200.488281"/>
      <use xlink:href="#ArialMT-20" x="1222.705078"/>
      <use xlink:href="#ArialMT-77" x="1250.488281"/>
      <use xlink:href="#ArialMT-69" x="1322.705078"/>
      <use xlink:href="#ArialMT-64" x="1344.921875"/>
      <use xlink:href="#ArialMT-74" x="1400.537109"/>
      <use xlink:href="#ArialMT-68" x="1428.320312"/>
     </g>
    </g>
    <g id="line2d_22">
     <path d="M 576.333281 223.165625 
L 584.333281 223.165625 
L 592.333281 223.165625 
" style="fill: none; stroke: #2ca02c; stroke-opacity: 0.35; stroke-width: 1.2; stroke-linecap: round"/>
    </g>
    <g id="text_21">
     <!-- Model 2 (Two-stage LGBM) 95% interval width -->
     <g style="fill: #262626" transform="translate(598.733281 225.965625) scale(0.08 -0.08)">
      <defs>
       <path id="ArialMT-73" d="M 197 991 
L 753 1078 
Q 800 744 1014 566 
Q 1228 388 1613 388 
Q 2000 388 2187 545 
Q 2375 703 2375 916 
Q 2375 1106 2209 1216 
Q 2094 1291 1634 1406 
Q 1016 1563 777 1677 
Q 538 1791 414 1992 
Q 291 2194 291 2438 
Q 291 2659 392 2848 
Q 494 3038 669 3163 
Q 800 3259 1026 3326 
Q 1253 3394 1513 3394 
Q 1903 3394 2198 3281 
Q 2494 3169 2634 2976 
Q 2775 2784 2828 2463 
L 2278 2388 
Q 2241 2644 2061 2787 
Q 1881 2931 1553 2931 
Q 1166 2931 1000 2803 
Q 834 2675 834 2503 
Q 834 2394 903 2306 
Q 972 2216 1119 2156 
Q 1203 2125 1616 2013 
Q 2213 1853 2448 1751 
Q 2684 1650 2818 1456 
Q 2953 1263 2953 975 
Q 2953 694 2789 445 
Q 2625 197 2315 61 
Q 2006 -75 1616 -75 
Q 969 -75 630 194 
Q 291 463 197 991 
z
" transform="scale(0.015625)"/>
       <path id="ArialMT-67" d="M 319 -275 
L 866 -356 
Q 900 -609 1056 -725 
Q 1266 -881 1628 -881 
Q 2019 -881 2231 -725 
Q 2444 -569 2519 -288 
Q 2563 -116 2559 434 
Q 2191 0 1641 0 
Q 956 0 581 494 
Q 206 988 206 1678 
Q 206 2153 378 2554 
Q 550 2956 876 3175 
Q 1203 3394 1644 3394 
Q 2231 3394 2613 2919 
L 2613 3319 
L 3131 3319 
L 3131 450 
Q 3131 -325 2973 -648 
Q 2816 -972 2473 -1159 
Q 2131 -1347 1631 -1347 
Q 1038 -1347 672 -1080 
Q 306 -813 319 -275 
z
M 784 1719 
Q 784 1066 1043 766 
Q 1303 466 1694 466 
Q 2081 466 2343 764 
Q 2606 1063 2606 1700 
Q 2606 2309 2336 2618 
Q 2066 2928 1684 2928 
Q 1309 2928 1046 2623 
Q 784 2319 784 1719 
z
" transform="scale(0.015625)"/>
       <path id="ArialMT-4c" d="M 469 0 
L 469 4581 
L 1075 4581 
L 1075 541 
L 3331 541 
L 3331 0 
L 469 0 
z
" transform="scale(0.015625)"/>
       <path id="ArialMT-47" d="M 2638 1797 
L 2638 2334 
L 4578 2338 
L 4578 638 
Q 4131 281 3656 101 
Q 3181 -78 2681 -78 
Q 2006 -78 1454 211 
Q 903 500 622 1047 
Q 341 1594 341 2269 
Q 341 2938 620 3517 
Q 900 4097 1425 4378 
Q 1950 4659 2634 4659 
Q 3131 4659 3532 4498 
Q 3934 4338 4162 4050 
Q 4391 3763 4509 3300 
L 3963 3150 
Q 3859 3500 3706 3700 
Q 3553 3900 3268 4020 
Q 2984 4141 2638 4141 
Q 2222 4141 1919 4014 
Q 1616 3888 1430 3681 
Q 1244 3475 1141 3228 
Q 966 2803 966 2306 
Q 966 1694 1177 1281 
Q 1388 869 1791 669 
Q 2194 469 2647 469 
Q 3041 469 3416 620 
Q 3791 772 3984 944 
L 3984 1797 
L 2638 1797 
z
" transform="scale(0.015625)"/>
      </defs>
      <use xlink:href="#ArialMT-4d"/>
      <use xlink:href="#ArialMT-6f" x="83.300781"/>
      <use xlink:href="#ArialMT-64" x="138.916016"/>
      <use xlink:href="#ArialMT-65" x="194.53125"/>
      <use xlink:href="#ArialMT-6c" x="250.146484"/>
      <use xlink:href="#ArialMT-20" x="272.363281"/>
      <use xlink:href="#ArialMT-32" x="300.146484"/>
      <use xlink:href="#ArialMT-20" x="355.761719"/>
      <use xlink:href="#ArialMT-28" x="383.544922"/>
      <use xlink:href="#ArialMT-54" x="416.845703"/>
      <use xlink:href="#ArialMT-77" x="472.429688"/>
      <use xlink:href="#ArialMT-6f" x="544.646484"/>
      <use xlink:href="#ArialMT-2d" x="600.261719"/>
      <use xlink:href="#ArialMT-73" x="633.5625"/>
      <use xlink:href="#ArialMT-74" x="683.5625"/>
      <use xlink:href="#ArialMT-61" x="711.345703"/>
      <use xlink:href="#ArialMT-67" x="766.960938"/>
      <use xlink:href="#ArialMT-65" x="822.576172"/>
      <use xlink:href="#ArialMT-20" x="878.191406"/>
      <use xlink:href="#ArialMT-4c" x="905.974609"/>
      <use xlink:href="#ArialMT-47" x="961.589844"/>
      <use xlink:href="#ArialMT-42" x="1039.373047"/>
      <use xlink:href="#ArialMT-4d" x="1106.072266"/>
      <use xlink:href="#ArialMT-29" x="1189.373047"/>
      <use xlink:href="#ArialMT-20" x="1222.673828"/>
      <use xlink:href="#ArialMT-39" x="1250.457031"/>
      <use xlink:href="#ArialMT-35" x="1306.072266"/>
      <use xlink:href="#ArialMT-25" x="1361.6875"/>
      <use xlink:href="#ArialMT-20" x="1450.603516"/>
      <use xlink:href="#ArialMT-69" x="1478.386719"/>
      <use xlink:href="#ArialMT-6e" x="1500.603516"/>
      <use xlink:href="#ArialMT-74" x="1556.21875"/>
      <use xlink:href="#ArialMT-65" x="1584.001953"/>
      <use xlink:href="#ArialMT-72" x="1639.617188"/>
      <use xlink:href="#ArialMT-76" x="1672.917969"/>
      <use xlink:href="#ArialMT-61" x="1722.917969"/>
      <use xlink:href="#ArialMT-6c" x="1778.533203"/>
      <use xlink:href="#ArialMT-20" x="1800.75"/>
      <use xlink:href="#ArialMT-77" x="1828.533203"/>
      <use xlink:href="#ArialMT-69" x="1900.75"/>
      <use xlink:href="#ArialMT-64" x="1922.966797"/>
      <use xlink:href="#ArialMT-74" x="1978.582031"/>
      <use xlink:href="#ArialMT-68" x="2006.365234"/>
     </g>
    </g>
    <g id="line2d_23">
     <path d="M 779.682031 211.658125 
L 787.682031 211.658125 
L 795.682031 211.658125 
" style="fill: none; stroke: #ff7f0e; stroke-width: 2; stroke-linecap: round"/>
    </g>
    <g id="text_22">
     <!-- Model 1 (TSB) interval width 7d mean -->
     <g style="fill: #262626" transform="translate(802.082031 214.458125) scale(0.08 -0.08)">
      <defs>
       <path id="ArialMT-6d" d="M 422 0 
L 422 3319 
L 925 3319 
L 925 2853 
Q 1081 3097 1340 3245 
Q 1600 3394 1931 3394 
Q 2300 3394 2536 3241 
Q 2772 3088 2869 2813 
Q 3263 3394 3894 3394 
Q 4388 3394 4653 3120 
Q 4919 2847 4919 2278 
L 4919 0 
L 4359 0 
L 4359 2091 
Q 4359 2428 4304 2576 
Q 4250 2725 4106 2815 
Q 3963 2906 3769 2906 
Q 3419 2906 3187 2673 
Q 2956 2441 2956 1928 
L 2956 0 
L 2394 0 
L 2394 2156 
Q 2394 2531 2256 2718 
Q 2119 2906 1806 2906 
Q 1569 2906 1367 2781 
Q 1166 2656 1075 2415 
Q 984 2175 984 1722 
L 984 0 
L 422 0 
z
" transform="scale(0.015625)"/>
      </defs>
      <use xlink:href="#ArialMT-4d"/>
      <use xlink:href="#ArialMT-6f" x="83.300781"/>
      <use xlink:href="#ArialMT-64" x="138.916016"/>
      <use xlink:href="#ArialMT-65" x="194.53125"/>
      <use xlink:href="#ArialMT-6c" x="250.146484"/>
      <use xlink:href="#ArialMT-20" x="272.363281"/>
      <use xlink:href="#ArialMT-31" x="300.146484"/>
      <use xlink:href="#ArialMT-20" x="355.761719"/>
      <use xlink:href="#ArialMT-28" x="383.544922"/>
      <use xlink:href="#ArialMT-54" x="416.845703"/>
      <use xlink:href="#ArialMT-53" x="477.929688"/>
      <use xlink:href="#ArialMT-42" x="544.628906"/>
      <use xlink:href="#ArialMT-29" x="611.328125"/>
      <use xlink:href="#ArialMT-20" x="644.628906"/>
      <use xlink:href="#ArialMT-69" x="672.412109"/>
      <use xlink:href="#ArialMT-6e" x="694.628906"/>
      <use xlink:href="#ArialMT-74" x="750.244141"/>
      <use xlink:href="#ArialMT-65" x="778.027344"/>
      <use xlink:href="#ArialMT-72" x="833.642578"/>
      <use xlink:href="#ArialMT-76" x="866.943359"/>
      <use xlink:href="#ArialMT-61" x="916.943359"/>
      <use xlink:href="#ArialMT-6c" x="972.558594"/>
      <use xlink:href="#ArialMT-20" x="994.775391"/>
      <use xlink:href="#ArialMT-77" x="1022.558594"/>
      <use xlink:href="#ArialMT-69" x="1094.775391"/>
      <use xlink:href="#ArialMT-64" x="1116.992188"/>
      <use xlink:href="#ArialMT-74" x="1172.607422"/>
      <use xlink:href="#ArialMT-68" x="1200.390625"/>
      <use xlink:href="#ArialMT-20" x="1256.005859"/>
      <use xlink:href="#ArialMT-37" x="1283.789062"/>
      <use xlink:href="#ArialMT-64" x="1339.404297"/>
      <use xlink:href="#ArialMT-20" x="1395.019531"/>
      <use xlink:href="#ArialMT-6d" x="1422.802734"/>
      <use xlink:href="#ArialMT-65" x="1506.103516"/>
      <use xlink:href="#ArialMT-61" x="1561.71875"/>
      <use xlink:href="#ArialMT-6e" x="1617.333984"/>
     </g>
    </g>
    <g id="line2d_24">
     <path d="M 779.682031 223.165625 
L 787.682031 223.165625 
L 795.682031 223.165625 
" style="fill: none; stroke: #2ca02c; stroke-width: 2; stroke-linecap: round"/>
    </g>
    <g id="text_23">
     <!-- Model 2 (Two-stage LGBM) interval width 7d mean -->
     <g style="fill: #262626" transform="translate(802.082031 225.965625) scale(0.08 -0.08)">
      <use xlink:href="#ArialMT-4d"/>
      <use xlink:href="#ArialMT-6f" x="83.300781"/>
      <use xlink:href="#ArialMT-64" x="138.916016"/>
      <use xlink:href="#ArialMT-65" x="194.53125"/>
      <use xlink:href="#ArialMT-6c" x="250.146484"/>
      <use xlink:href="#ArialMT-20" x="272.363281"/>
      <use xlink:href="#ArialMT-32" x="300.146484"/>
      <use xlink:href="#ArialMT-20" x="355.761719"/>
      <use xlink:href="#ArialMT-28" x="383.544922"/>
      <use xlink:href="#ArialMT-54" x="416.845703"/>
      <use xlink:href="#ArialMT-77" x="472.429688"/>
      <use xlink:href="#ArialMT-6f" x="544.646484"/>
      <use xlink:href="#ArialMT-2d" x="600.261719"/>
      <use xlink:href="#ArialMT-73" x="633.5625"/>
      <use xlink:href="#ArialMT-74" x="683.5625"/>
      <use xlink:href="#ArialMT-61" x="711.345703"/>
      <use xlink:href="#ArialMT-67" x="766.960938"/>
      <use xlink:href="#ArialMT-65" x="822.576172"/>
      <use xlink:href="#ArialMT-20" x="878.191406"/>
      <use xlink:href="#ArialMT-4c" x="905.974609"/>
      <use xlink:href="#ArialMT-47" x="961.589844"/>
      <use xlink:href="#ArialMT-42" x="1039.373047"/>
      <use xlink:href="#ArialMT-4d" x="1106.072266"/>
      <use xlink:href="#ArialMT-29" x="1189.373047"/>
      <use xlink:href="#ArialMT-20" x="1222.673828"/>
      <use xlink:href="#ArialMT-69" x="1250.457031"/>
      <use xlink:href="#ArialMT-6e" x="1272.673828"/>
      <use xlink:href="#ArialMT-74" x="1328.289062"/>
      <use xlink:href="#ArialMT-65" x="1356.072266"/>
      <use xlink:href="#ArialMT-72" x="1411.6875"/>
      <use xlink:href="#ArialMT-76" x="1444.988281"/>
      <use xlink:href="#ArialMT-61" x="1494.988281"/>
      <use xlink:href="#ArialMT-6c" x="1550.603516"/>
      <use xlink:href="#ArialMT-20" x="1572.820312"/>
      <use xlink:href="#ArialMT-77" x="1600.603516"/>
      <use xlink:href="#ArialMT-69" x="1672.820312"/>
      <use xlink:href="#ArialMT-64" x="1695.037109"/>
      <use xlink:href="#ArialMT-74" x="1750.652344"/>
      <use xlink:href="#ArialMT-68" x="1778.435547"/>
      <use xlink:href="#ArialMT-20" x="1834.050781"/>
      <use xlink:href="#ArialMT-37" x="1861.833984"/>
      <use xlink:href="#ArialMT-64" x="1917.449219"/>
      <use xlink:href="#ArialMT-20" x="1973.064453"/>
      <use xlink:href="#ArialMT-6d" x="2000.847656"/>
      <use xlink:href="#ArialMT-65" x="2084.148438"/>
      <use xlink:href="#ArialMT-61" x="2139.763672"/>
      <use xlink:href="#ArialMT-6e" x="2195.378906"/>
     </g>
    </g>
   </g>
  </g>
 </g>
 <defs>
  <clipPath id="p03e0a8beda">
   <rect x="62.259531" y="21.789375" width="927.09" height="213.06"/>
  </clipPath>
 </defs>
</svg>
