<?xml version="1.0" encoding="utf-8" standalone="no"?>
<!DOCTYPE svg PUBLIC "-//W3C//DTD SVG 1.1//EN"
  "http://www.w3.org/Graphics/SVG/1.1/DTD/svg11.dtd">
<svg xmlns:xlink="http://www.w3.org/1999/xlink" width="996.674219pt" height="291.051094pt" viewBox="0 0 996.674219 291.051094" xmlns="http://www.w3.org/2000/svg" version="1.1">
 <metadata>
  <rdf:RDF xmlns:dc="http://purl.org/dc/elements/1.1/" xmlns:cc="http://creativecommons.org/ns#" xmlns:rdf="http://www.w3.org/1999/02/22-rdf-syntax-ns#">
   <cc:Work>
    <dc:type rdf:resource="http://purl.org/dc/dcmitype/StillImage"/>
    <dc:date>2026-03-25T00:46:24.142866</dc:date>
    <dc:format>image/svg+xml</dc:format>
    <dc:creator>
     <cc:Agent>
      <dc:title>Matplotlib v3.9.4, https://matplotlib.org/</dc:title>
     </cc:Agent>
    </dc:creator>
   </cc:Work>
  </rdf:RDF>
 </metadata>
 <defs>
  <style type="text/css">*{stroke-linejoin: round; stroke-linecap: butt}</style>
 </defs>
 <g id="figure_1">
  <g id="patch_1">
   <path d="M 0 291.051094 
L 996.674219 291.051094 
L 996.674219 0 
L 0 0 
z
" style="fill: #ffffff"/>
  </g>
  <g id="axes_1">
   <g id="patch_2">
    <path d="M 68.684219 249.316875 
L 989.474219 249.316875 
L 989.474219 21.935625 
L 68.684219 21.935625 
z
" style="fill: #ffffff"/>
   </g>
   <g id="matplotlib.axis_1">
    <g id="xtick_1">
     <g id="line2d_1">
      <path d="M 78.692806 249.316875 
L 78.692806 21.935625 
" clip-path="url(#p1c30b05f4c)" style="fill: none; stroke: #cccccc; stroke-linecap: round"/>
     </g>
     <g id="text_1">
      <!-- 2011-06 -->
      <g style="fill: #262626" transform="translate(58.916009 266.690469) scale(0.11 -0.11)">
       <defs>
        <path id="ArialMT-32" d="M 3222 541 
L 3222 0 
L 194 0 
Q 188 203 259 391 
Q 375 700 629 1000 
Q 884 1300 1366 1694 
Q 2113 2306 2375 2664 
Q 2638 3022 2638 3341 
Q 2638 3675 2398 3904 
Q 2159 4134 1775 4134 
Q 1369 4134 1125 3890 
Q 881 3647 878 3216 
L 300 3275 
Q 359 3922 746 4261 
Q 1134 4600 1788 4600 
Q 2447 4600 2831 4234 
Q 3216 3869 3216 3328 
Q 3216 3053 3103 2787 
Q 2991 2522 2730 2228 
Q 2469 1934 1863 1422 
Q 1356 997 1212 845 
Q 1069 694 975 541 
L 3222 541 
z
" transform="scale(0.015625)"/>
        <path id="ArialMT-30" d="M 266 2259 
Q 266 3072 433 3567 
Q 600 4063 929 4331 
Q 1259 4600 1759 4600 
Q 2128 4600 2406 4451 
Q 2684 4303 2865 4023 
Q 3047 3744 3150 3342 
Q 3253 2941 3253 2259 
Q 3253 1453 3087 958 
Q 2922 463 2592 192 
Q 2263 -78 1759 -78 
Q 1097 -78 719 397 
Q 266 969 266 2259 
z
M 844 2259 
Q 844 1131 1108 757 
Q 1372 384 1759 384 
Q 2147 384 2411 759 
Q 2675 1134 2675 2259 
Q 2675 3391 2411 3762 
Q 2147 4134 1753 4134 
Q 1366 4134 1134 3806 
Q 844 3388 844 2259 
z
" transform="scale(0.015625)"/>
        <path id="ArialMT-31" d="M 2384 0 
L 1822 0 
L 1822 3584 
Q 1619 3391 1289 3197 
Q 959 3003 697 2906 
L 697 3450 
Q 1169 3672 1522 3987 
Q 1875 4303 2022 4600 
L 2384 4600 
L 2384 0 
z
" transform="scale(0.015625)"/>
        <path id="ArialMT-2d" d="M 203 1375 
L 203 1941 
L 1931 1941 
L 1931 1375 
L 203 1375 
z
" transform="scale(0.015625)"/>
        <path id="ArialMT-36" d="M 3184 3459 
L 2625 3416 
Q 2550 3747 2413 3897 
Q 2184 4138 1850 4138 
Q 1581 4138 1378 3988 
Q 1113 3794 959 3422 
Q 806 3050 800 2363 
Q 1003 2672 1297 2822 
Q 1591 2972 1913 2972 
Q 2475 2972 2870 2558 
Q 3266 2144 3266 1488 
Q 3266 1056 3080 686 
Q 2894 316 2569 119 
Q 2244 -78 1831 -78 
Q 1128 -78 684 439 
Q 241 956 241 2144 
Q 241 3472 731 4075 
Q 1159 4600 1884 4600 
Q 2425 4600 2770 4297 
Q 3116 3994 3184 3459 
z
M 888 1484 
Q 888 1194 1011 928 
Q 1134 663 1356 523 
Q 1578 384 1822 384 
Q 2178 384 2434 671 
Q 2691 959 2691 1453 
Q 2691 1928 2437 2201 
Q 2184 2475 1800 2475 
Q 1419 2475 1153 2201 
Q 888 1928 888 1484 
z
" transform="scale(0.015625)"/>
       </defs>
       <use xlink:href="#ArialMT-32"/>
       <use xlink:href="#ArialMT-30" x="55.615234"/>
       <use xlink:href="#ArialMT-31" x="111.230469"/>
       <use xlink:href="#ArialMT-31" x="159.470703"/>
       <use xlink:href="#ArialMT-2d" x="215.085938"/>
       <use xlink:href="#ArialMT-30" x="248.386719"/>
       <use xlink:href="#ArialMT-36" x="304.001953"/>
      </g>
     </g>
    </g>
    <g id="xtick_2">
     <g id="line2d_2">
      <path d="M 215.173537 249.316875 
L 215.173537 21.935625 
" clip-path="url(#p1c30b05f4c)" style="fill: none; stroke: #cccccc; stroke-linecap: round"/>
     </g>
     <g id="text_2">
      <!-- 2011-07 -->
      <g style="fill: #262626" transform="translate(195.39674 266.690469) scale(0.11 -0.11)">
       <defs>
        <path id="ArialMT-37" d="M 303 3981 
L 303 4522 
L 3269 4522 
L 3269 4084 
Q 2831 3619 2401 2847 
Q 1972 2075 1738 1259 
Q 1569 684 1522 0 
L 944 0 
Q 953 541 1156 1306 
Q 1359 2072 1739 2783 
Q 2119 3494 2547 3981 
L 303 3981 
z
" transform="scale(0.015625)"/>
       </defs>
       <use xlink:href="#ArialMT-32"/>
       <use xlink:href="#ArialMT-30" x="55.615234"/>
       <use xlink:href="#ArialMT-31" x="111.230469"/>
       <use xlink:href="#ArialMT-31" x="159.470703"/>
       <use xlink:href="#ArialMT-2d" x="215.085938"/>
       <use xlink:href="#ArialMT-30" x="248.386719"/>
       <use xlink:href="#ArialMT-37" x="304.001953"/>
      </g>
     </g>
    </g>
    <g id="xtick_3">
     <g id="line2d_3">
      <path d="M 356.203626 249.316875 
L 356.203626 21.935625 
" clip-path="url(#p1c30b05f4c)" style="fill: none; stroke: #cccccc; stroke-linecap: round"/>
     </g>
     <g id="text_3">
      <!-- 2011-08 -->
      <g style="fill: #262626" transform="translate(336.426829 266.690469) scale(0.11 -0.11)">
       <defs>
        <path id="ArialMT-38" d="M 1131 2484 
Q 781 2613 612 2850 
Q 444 3088 444 3419 
Q 444 3919 803 4259 
Q 1163 4600 1759 4600 
Q 2359 4600 2725 4251 
Q 3091 3903 3091 3403 
Q 3091 3084 2923 2848 
Q 2756 2613 2416 2484 
Q 2838 2347 3058 2040 
Q 3278 1734 3278 1309 
Q 3278 722 2862 322 
Q 2447 -78 1769 -78 
Q 1091 -78 675 323 
Q 259 725 259 1325 
Q 259 1772 486 2073 
Q 713 2375 1131 2484 
z
M 1019 3438 
Q 1019 3113 1228 2906 
Q 1438 2700 1772 2700 
Q 2097 2700 2305 2904 
Q 2513 3109 2513 3406 
Q 2513 3716 2298 3927 
Q 2084 4138 1766 4138 
Q 1444 4138 1231 3931 
Q 1019 3725 1019 3438 
z
M 838 1322 
Q 838 1081 952 856 
Q 1066 631 1291 507 
Q 1516 384 1775 384 
Q 2178 384 2440 643 
Q 2703 903 2703 1303 
Q 2703 1709 2433 1975 
Q 2163 2241 1756 2241 
Q 1359 2241 1098 1978 
Q 838 1716 838 1322 
z
" transform="scale(0.015625)"/>
       </defs>
       <use xlink:href="#ArialMT-32"/>
       <use xlink:href="#ArialMT-30" x="55.615234"/>
       <use xlink:href="#ArialMT-31" x="111.230469"/>
       <use xlink:href="#ArialMT-31" x="159.470703"/>
       <use xlink:href="#ArialMT-2d" x="215.085938"/>
       <use xlink:href="#ArialMT-30" x="248.386719"/>
       <use xlink:href="#ArialMT-38" x="304.001953"/>
      </g>
     </g>
    </g>
    <g id="xtick_4">
     <g id="line2d_4">
      <path d="M 497.233715 249.316875 
L 497.233715 21.935625 
" clip-path="url(#p1c30b05f4c)" style="fill: none; stroke: #cccccc; stroke-linecap: round"/>
     </g>
     <g id="text_4">
      <!-- 2011-09 -->
      <g style="fill: #262626" transform="translate(477.456918 266.690469) scale(0.11 -0.11)">
       <defs>
        <path id="ArialMT-39" d="M 350 1059 
L 891 1109 
Q 959 728 1153 556 
Q 1347 384 1650 384 
Q 1909 384 2104 503 
Q 2300 622 2425 820 
Q 2550 1019 2634 1356 
Q 2719 1694 2719 2044 
Q 2719 2081 2716 2156 
Q 2547 1888 2255 1720 
Q 1963 1553 1622 1553 
Q 1053 1553 659 1965 
Q 266 2378 266 3053 
Q 266 3750 677 4175 
Q 1088 4600 1706 4600 
Q 2153 4600 2523 4359 
Q 2894 4119 3086 3673 
Q 3278 3228 3278 2384 
Q 3278 1506 3087 986 
Q 2897 466 2520 194 
Q 2144 -78 1638 -78 
Q 1100 -78 759 220 
Q 419 519 350 1059 
z
M 2653 3081 
Q 2653 3566 2395 3850 
Q 2138 4134 1775 4134 
Q 1400 4134 1122 3828 
Q 844 3522 844 3034 
Q 844 2597 1108 2323 
Q 1372 2050 1759 2050 
Q 2150 2050 2401 2323 
Q 2653 2597 2653 3081 
z
" transform="scale(0.015625)"/>
       </defs>
       <use xlink:href="#ArialMT-32"/>
       <use xlink:href="#ArialMT-30" x="55.615234"/>
       <use xlink:href="#ArialMT-31" x="111.230469"/>
       <use xlink:href="#ArialMT-31" x="159.470703"/>
       <use xlink:href="#ArialMT-2d" x="215.085938"/>
       <use xlink:href="#ArialMT-30" x="248.386719"/>
       <use xlink:href="#ArialMT-39" x="304.001953"/>
      </g>
     </g>
    </g>
    <g id="xtick_5">
     <g id="line2d_5">
      <path d="M 633.714446 249.316875 
L 633.714446 21.935625 
" clip-path="url(#p1c30b05f4c)" style="fill: none; stroke: #cccccc; stroke-linecap: round"/>
     </g>
     <g id="text_5">
      <!-- 2011-10 -->
      <g style="fill: #262626" transform="translate(613.937649 266.690469) scale(0.11 -0.11)">
       <use xlink:href="#ArialMT-32"/>
       <use xlink:href="#ArialMT-30" x="55.615234"/>
       <use xlink:href="#ArialMT-31" x="111.230469"/>
       <use xlink:href="#ArialMT-31" x="159.470703"/>
       <use xlink:href="#ArialMT-2d" x="215.085938"/>
       <use xlink:href="#ArialMT-31" x="248.386719"/>
       <use xlink:href="#ArialMT-30" x="304.001953"/>
      </g>
     </g>
    </g>
    <g id="xtick_6">
     <g id="line2d_6">
      <path d="M 774.744535 249.316875 
L 774.744535 21.935625 
" clip-path="url(#p1c30b05f4c)" style="fill: none; stroke: #cccccc; stroke-linecap: round"/>
     </g>
     <g id="text_6">
      <!-- 2011-11 -->
      <g style="fill: #262626" transform="translate(755.373363 266.690469) scale(0.11 -0.11)">
       <use xlink:href="#ArialMT-32"/>
       <use xlink:href="#ArialMT-30" x="55.615234"/>
       <use xlink:href="#ArialMT-31" x="111.230469"/>
       <use xlink:href="#ArialMT-31" x="159.470703"/>
       <use xlink:href="#ArialMT-2d" x="215.085938"/>
       <use xlink:href="#ArialMT-31" x="248.386719"/>
       <use xlink:href="#ArialMT-31" x="296.626953"/>
      </g>
     </g>
    </g>
    <g id="xtick_7">
     <g id="line2d_7">
      <path d="M 911.225266 249.316875 
L 911.225266 21.935625 
" clip-path="url(#p1c30b05f4c)" style="fill: none; stroke: #cccccc; stroke-linecap: round"/>
     </g>
     <g id="text_7">
      <!-- 2011-12 -->
      <g style="fill: #262626" transform="translate(891.448469 266.690469) scale(0.11 -0.11)">
       <use xlink:href="#ArialMT-32"/>
       <use xlink:href="#ArialMT-30" x="55.615234"/>
       <use xlink:href="#ArialMT-31" x="111.230469"/>
       <use xlink:href="#ArialMT-31" x="159.470703"/>
       <use xlink:href="#ArialMT-2d" x="215.085938"/>
       <use xlink:href="#ArialMT-31" x="248.386719"/>
       <use xlink:href="#ArialMT-32" x="304.001953"/>
      </g>
     </g>
    </g>
    <g id="text_8">
     <!-- Date -->
     <g style="fill: #262626" transform="translate(516.406094 281.466094) scale(0.12 -0.12)">
      <defs>
       <path id="ArialMT-44" d="M 494 0 
L 494 4581 
L 2072 4581 
Q 2606 4581 2888 4516 
Q 3281 4425 3559 4188 
Q 3922 3881 4101 3404 
Q 4281 2928 4281 2316 
Q 4281 1794 4159 1391 
Q 4038 988 3847 723 
Q 3656 459 3429 307 
Q 3203 156 2883 78 
Q 2563 0 2147 0 
L 494 0 
z
M 1100 541 
L 2078 541 
Q 2531 541 2789 625 
Q 3047 709 3200 863 
Q 3416 1078 3536 1442 
Q 3656 1806 3656 2325 
Q 3656 3044 3420 3430 
Q 3184 3816 2847 3947 
Q 2603 4041 2063 4041 
L 1100 4041 
L 1100 541 
z
" transform="scale(0.015625)"/>
       <path id="ArialMT-61" d="M 2588 409 
Q 2275 144 1986 34 
Q 1697 -75 1366 -75 
Q 819 -75 525 192 
Q 231 459 231 875 
Q 231 1119 342 1320 
Q 453 1522 633 1644 
Q 813 1766 1038 1828 
Q 1203 1872 1538 1913 
Q 2219 1994 2541 2106 
Q 2544 2222 2544 2253 
Q 2544 2597 2384 2738 
Q 2169 2928 1744 2928 
Q 1347 2928 1158 2789 
Q 969 2650 878 2297 
L 328 2372 
Q 403 2725 575 2942 
Q 747 3159 1072 3276 
Q 1397 3394 1825 3394 
Q 2250 3394 2515 3294 
Q 2781 3194 2906 3042 
Q 3031 2891 3081 2659 
Q 3109 2516 3109 2141 
L 3109 1391 
Q 3109 606 3145 398 
Q 3181 191 3288 0 
L 2700 0 
Q 2613 175 2588 409 
z
M 2541 1666 
Q 2234 1541 1622 1453 
Q 1275 1403 1131 1340 
Q 988 1278 909 1158 
Q 831 1038 831 891 
Q 831 666 1001 516 
Q 1172 366 1500 366 
Q 1825 366 2078 508 
Q 2331 650 2450 897 
Q 2541 1088 2541 1459 
L 2541 1666 
z
" transform="scale(0.015625)"/>
       <path id="ArialMT-74" d="M 1650 503 
L 1731 6 
Q 1494 -44 1306 -44 
Q 1000 -44 831 53 
Q 663 150 594 308 
Q 525 466 525 972 
L 525 2881 
L 113 2881 
L 113 3319 
L 525 3319 
L 525 4141 
L 1084 4478 
L 1084 3319 
L 1650 3319 
L 1650 2881 
L 1084 2881 
L 1084 941 
Q 1084 700 1114 631 
Q 1144 563 1211 522 
Q 1278 481 1403 481 
Q 1497 481 1650 503 
z
" transform="scale(0.015625)"/>
       <path id="ArialMT-65" d="M 2694 1069 
L 3275 997 
Q 3138 488 2766 206 
Q 2394 -75 1816 -75 
Q 1088 -75 661 373 
Q 234 822 234 1631 
Q 234 2469 665 2931 
Q 1097 3394 1784 3394 
Q 2450 3394 2872 2941 
Q 3294 2488 3294 1666 
Q 3294 1616 3291 1516 
L 816 1516 
Q 847 969 1125 678 
Q 1403 388 1819 388 
Q 2128 388 2347 550 
Q 2566 713 2694 1069 
z
M 847 1978 
L 2700 1978 
Q 2663 2397 2488 2606 
Q 2219 2931 1791 2931 
Q 1403 2931 1139 2672 
Q 875 2413 847 1978 
z
" transform="scale(0.015625)"/>
      </defs>
      <use xlink:href="#ArialMT-44"/>
      <use xlink:href="#ArialMT-61" x="72.216797"/>
      <use xlink:href="#ArialMT-74" x="127.832031"/>
      <use xlink:href="#ArialMT-65" x="155.615234"/>
     </g>
    </g>
   </g>
   <g id="matplotlib.axis_2">
    <g id="ytick_1">
     <g id="line2d_8">
      <path d="M 68.684219 247.431224 
L 989.474219 247.431224 
" clip-path="url(#p1c30b05f4c)" style="fill: none; stroke: #cccccc; stroke-linecap: round"/>
     </g>
     <g id="text_9">
      <!-- −10000 -->
      <g style="fill: #262626" transform="translate(22.174375 251.368021) scale(0.11 -0.11)">
       <defs>
        <path id="ArialMT-2212" d="M 3381 1997 
L 356 1997 
L 356 2522 
L 3381 2522 
L 3381 1997 
z
" transform="scale(0.015625)"/>
       </defs>
       <use xlink:href="#ArialMT-2212"/>
       <use xlink:href="#ArialMT-31" x="58.398438"/>
       <use xlink:href="#ArialMT-30" x="114.013672"/>
       <use xlink:href="#ArialMT-30" x="169.628906"/>
       <use xlink:href="#ArialMT-30" x="225.244141"/>
       <use xlink:href="#ArialMT-30" x="280.859375"/>
      </g>
     </g>
    </g>
    <g id="ytick_2">
     <g id="line2d_9">
      <path d="M 68.684219 216.908975 
L 989.474219 216.908975 
" clip-path="url(#p1c30b05f4c)" style="fill: none; stroke: #cccccc; stroke-linecap: round"/>
     </g>
     <g id="text_10">
      <!-- −5000 -->
      <g style="fill: #262626" transform="translate(28.291406 220.845771) scale(0.11 -0.11)">
       <defs>
        <path id="ArialMT-35" d="M 266 1200 
L 856 1250 
Q 922 819 1161 601 
Q 1400 384 1738 384 
Q 2144 384 2425 690 
Q 2706 997 2706 1503 
Q 2706 1984 2436 2262 
Q 2166 2541 1728 2541 
Q 1456 2541 1237 2417 
Q 1019 2294 894 2097 
L 366 2166 
L 809 4519 
L 3088 4519 
L 3088 3981 
L 1259 3981 
L 1013 2750 
Q 1425 3038 1878 3038 
Q 2478 3038 2890 2622 
Q 3303 2206 3303 1553 
Q 3303 931 2941 478 
Q 2500 -78 1738 -78 
Q 1113 -78 717 272 
Q 322 622 266 1200 
z
" transform="scale(0.015625)"/>
       </defs>
       <use xlink:href="#ArialMT-2212"/>
       <use xlink:href="#ArialMT-35" x="58.398438"/>
       <use xlink:href="#ArialMT-30" x="114.013672"/>
       <use xlink:href="#ArialMT-30" x="169.628906"/>
       <use xlink:href="#ArialMT-30" x="225.244141"/>
      </g>
     </g>
    </g>
    <g id="ytick_3">
     <g id="line2d_10">
      <path d="M 68.684219 186.386725 
L 989.474219 186.386725 
" clip-path="url(#p1c30b05f4c)" style="fill: none; stroke: #cccccc; stroke-linecap: round"/>
     </g>
     <g id="text_11">
      <!-- 0 -->
      <g style="fill: #262626" transform="translate(53.067188 190.323522) scale(0.11 -0.11)">
       <use xlink:href="#ArialMT-30"/>
      </g>
     </g>
    </g>
    <g id="ytick_4">
     <g id="line2d_11">
      <path d="M 68.684219 155.864475 
L 989.474219 155.864475 
" clip-path="url(#p1c30b05f4c)" style="fill: none; stroke: #cccccc; stroke-linecap: round"/>
     </g>
     <g id="text_12">
      <!-- 5000 -->
      <g style="fill: #262626" transform="translate(34.716094 159.801272) scale(0.11 -0.11)">
       <use xlink:href="#ArialMT-35"/>
       <use xlink:href="#ArialMT-30" x="55.615234"/>
       <use xlink:href="#ArialMT-30" x="111.230469"/>
       <use xlink:href="#ArialMT-30" x="166.845703"/>
      </g>
     </g>
    </g>
    <g id="ytick_5">
     <g id="line2d_12">
      <path d="M 68.684219 125.342225 
L 989.474219 125.342225 
" clip-path="url(#p1c30b05f4c)" style="fill: none; stroke: #cccccc; stroke-linecap: round"/>
     </g>
     <g id="text_13">
      <!-- 10000 -->
      <g style="fill: #262626" transform="translate(28.599062 129.279022) scale(0.11 -0.11)">
       <use xlink:href="#ArialMT-31"/>
       <use xlink:href="#ArialMT-30" x="55.615234"/>
       <use xlink:href="#ArialMT-30" x="111.230469"/>
       <use xlink:href="#ArialMT-30" x="166.845703"/>
       <use xlink:href="#ArialMT-30" x="222.460938"/>
      </g>
     </g>
    </g>
    <g id="ytick_6">
     <g id="line2d_13">
      <path d="M 68.684219 94.819976 
L 989.474219 94.819976 
" clip-path="url(#p1c30b05f4c)" style="fill: none; stroke: #cccccc; stroke-linecap: round"/>
     </g>
     <g id="text_14">
      <!-- 15000 -->
      <g style="fill: #262626" transform="translate(28.599062 98.756772) scale(0.11 -0.11)">
       <use xlink:href="#ArialMT-31"/>
       <use xlink:href="#ArialMT-35" x="55.615234"/>
       <use xlink:href="#ArialMT-30" x="111.230469"/>
       <use xlink:href="#ArialMT-30" x="166.845703"/>
       <use xlink:href="#ArialMT-30" x="222.460938"/>
      </g>
     </g>
    </g>
    <g id="ytick_7">
     <g id="line2d_14">
      <path d="M 68.684219 64.297726 
L 989.474219 64.297726 
" clip-path="url(#p1c30b05f4c)" style="fill: none; stroke: #cccccc; stroke-linecap: round"/>
     </g>
     <g id="text_15">
      <!-- 20000 -->
      <g style="fill: #262626" transform="translate(28.599062 68.234523) scale(0.11 -0.11)">
       <use xlink:href="#ArialMT-32"/>
       <use xlink:href="#ArialMT-30" x="55.615234"/>
       <use xlink:href="#ArialMT-30" x="111.230469"/>
       <use xlink:href="#ArialMT-30" x="166.845703"/>
       <use xlink:href="#ArialMT-30" x="222.460938"/>
      </g>
     </g>
    </g>
    <g id="ytick_8">
     <g id="line2d_15">
      <path d="M 68.684219 33.775476 
L 989.474219 33.775476 
" clip-path="url(#p1c30b05f4c)" style="fill: none; stroke: #cccccc; stroke-linecap: round"/>
     </g>
     <g id="text_16">
      <!-- 25000 -->
      <g style="fill: #262626" transform="translate(28.599062 37.712273) scale(0.11 -0.11)">
       <use xlink:href="#ArialMT-32"/>
       <use xlink:href="#ArialMT-35" x="55.615234"/>
       <use xlink:href="#ArialMT-30" x="111.230469"/>
       <use xlink:href="#ArialMT-30" x="166.845703"/>
       <use xlink:href="#ArialMT-30" x="222.460938"/>
      </g>
     </g>
    </g>
    <g id="text_17">
     <!-- Residual -->
     <g style="fill: #262626" transform="translate(15.789375 158.971875) rotate(-90) scale(0.12 -0.12)">
      <defs>
       <path id="ArialMT-52" d="M 503 0 
L 503 4581 
L 2534 4581 
Q 3147 4581 3465 4457 
Q 3784 4334 3975 4021 
Q 4166 3709 4166 3331 
Q 4166 2844 3850 2509 
Q 3534 2175 2875 2084 
Q 3116 1969 3241 1856 
Q 3506 1613 3744 1247 
L 4541 0 
L 3778 0 
L 3172 953 
Q 2906 1366 2734 1584 
Q 2563 1803 2427 1890 
Q 2291 1978 2150 2013 
Q 2047 2034 1813 2034 
L 1109 2034 
L 1109 0 
L 503 0 
z
M 1109 2559 
L 2413 2559 
Q 2828 2559 3062 2645 
Q 3297 2731 3419 2920 
Q 3541 3109 3541 3331 
Q 3541 3656 3305 3865 
Q 3069 4075 2559 4075 
L 1109 4075 
L 1109 2559 
z
" transform="scale(0.015625)"/>
       <path id="ArialMT-73" d="M 197 991 
L 753 1078 
Q 800 744 1014 566 
Q 1228 388 1613 388 
Q 2000 388 2187 545 
Q 2375 703 2375 916 
Q 2375 1106 2209 1216 
Q 2094 1291 1634 1406 
Q 1016 1563 777 1677 
Q 538 1791 414 1992 
Q 291 2194 291 2438 
Q 291 2659 392 2848 
Q 494 3038 669 3163 
Q 800 3259 1026 3326 
Q 1253 3394 1513 3394 
Q 1903 3394 2198 3281 
Q 2494 3169 2634 2976 
Q 2775 2784 2828 2463 
L 2278 2388 
Q 2241 2644 2061 2787 
Q 1881 2931 1553 2931 
Q 1166 2931 1000 2803 
Q 834 2675 834 2503 
Q 834 2394 903 2306 
Q 972 2216 1119 2156 
Q 1203 2125 1616 2013 
Q 2213 1853 2448 1751 
Q 2684 1650 2818 1456 
Q 2953 1263 2953 975 
Q 2953 694 2789 445 
Q 2625 197 2315 61 
Q 2006 -75 1616 -75 
Q 969 -75 630 194 
Q 291 463 197 991 
z
" transform="scale(0.015625)"/>
       <path id="ArialMT-69" d="M 425 3934 
L 425 4581 
L 988 4581 
L 988 3934 
L 425 3934 
z
M 425 0 
L 425 3319 
L 988 3319 
L 988 0 
L 425 0 
z
" transform="scale(0.015625)"/>
       <path id="ArialMT-64" d="M 2575 0 
L 2575 419 
Q 2259 -75 1647 -75 
Q 1250 -75 917 144 
Q 584 363 401 755 
Q 219 1147 219 1656 
Q 219 2153 384 2558 
Q 550 2963 881 3178 
Q 1213 3394 1622 3394 
Q 1922 3394 2156 3267 
Q 2391 3141 2538 2938 
L 2538 4581 
L 3097 4581 
L 3097 0 
L 2575 0 
z
M 797 1656 
Q 797 1019 1065 703 
Q 1334 388 1700 388 
Q 2069 388 2326 689 
Q 2584 991 2584 1609 
Q 2584 2291 2321 2609 
Q 2059 2928 1675 2928 
Q 1300 2928 1048 2622 
Q 797 2316 797 1656 
z
" transform="scale(0.015625)"/>
       <path id="ArialMT-75" d="M 2597 0 
L 2597 488 
Q 2209 -75 1544 -75 
Q 1250 -75 995 37 
Q 741 150 617 320 
Q 494 491 444 738 
Q 409 903 409 1263 
L 409 3319 
L 972 3319 
L 972 1478 
Q 972 1038 1006 884 
Q 1059 663 1231 536 
Q 1403 409 1656 409 
Q 1909 409 2131 539 
Q 2353 669 2445 892 
Q 2538 1116 2538 1541 
L 2538 3319 
L 3100 3319 
L 3100 0 
L 2597 0 
z
" transform="scale(0.015625)"/>
       <path id="ArialMT-6c" d="M 409 0 
L 409 4581 
L 972 4581 
L 972 0 
L 409 0 
z
" transform="scale(0.015625)"/>
      </defs>
      <use xlink:href="#ArialMT-52"/>
      <use xlink:href="#ArialMT-65" x="72.216797"/>
      <use xlink:href="#ArialMT-73" x="127.832031"/>
      <use xlink:href="#ArialMT-69" x="177.832031"/>
      <use xlink:href="#ArialMT-64" x="200.048828"/>
      <use xlink:href="#ArialMT-75" x="255.664062"/>
      <use xlink:href="#ArialMT-61" x="311.279297"/>
      <use xlink:href="#ArialMT-6c" x="366.894531"/>
     </g>
    </g>
   </g>
   <g id="line2d_16">
    <path d="M 68.684219 186.386725 
L 989.474219 186.386725 
" clip-path="url(#p1c30b05f4c)" style="fill: none; stroke-dasharray: 4.44,1.92; stroke-dashoffset: 0; stroke: #000000; stroke-opacity: 0.8; stroke-width: 1.2"/>
   </g>
   <g id="line2d_17">
    <path d="M 110.53831 172.779275 
L 115.087667 173.338931 
L 119.637025 199.42233 
L 124.186383 238.981364 
L 128.73574 209.400115 
L 133.285098 190.730814 
L 137.834456 132.384177 
L 142.383814 195.955857 
L 146.933171 162.708337 
L 151.482529 192.543409 
L 156.031887 238.981364 
L 160.581244 194.148086 
L 165.130602 170.68258 
L 169.67996 179.732061 
L 174.229318 191.436184 
L 178.778675 181.607897 
L 183.328033 197.513469 
L 187.877391 238.981364 
L 192.426748 222.970124 
L 196.976106 192.862488 
L 201.525464 182.916691 
L 206.074822 186.136605 
L 210.624179 125.123483 
L 215.173537 207.865639 
L 219.722895 238.981364 
L 224.272252 223.704489 
L 228.82161 160.714196 
L 233.370968 123.895023 
L 237.920325 179.297912 
L 242.469683 161.968722 
L 247.019041 185.618887 
L 251.568399 238.981364 
L 256.117756 221.459761 
L 260.667114 177.652519 
L 265.216472 182.593949 
L 269.765829 191.490696 
L 274.315187 177.514802 
L 278.864545 201.480507 
L 283.413903 238.981364 
L 287.96326 195.7234 
L 292.512618 175.639821 
L 297.061976 143.590726 
L 306.160691 176.189404 
L 310.710049 186.859555 
L 315.259406 238.981364 
L 319.808764 174.760291 
L 324.358122 178.26156 
L 328.90748 185.018087 
L 333.456837 183.108615 
L 338.006195 119.619467 
L 342.555553 193.283573 
L 347.10491 238.981364 
L 351.654268 205.599484 
L 356.203626 185.295351 
L 360.752984 189.140605 
L 365.302341 157.240459 
L 369.851699 61.911537 
L 374.401057 192.619348 
L 378.950414 238.981364 
L 383.499772 217.613347 
L 388.04913 184.10364 
L 392.598488 205.117904 
L 397.147845 170.623794 
L 401.697203 112.435567 
L 406.246561 197.801049 
L 410.795918 238.981364 
L 415.345276 222.239299 
L 419.894634 202.112012 
L 424.443991 195.369281 
L 428.993349 123.996113 
L 433.542707 173.118988 
L 438.092065 204.081002 
L 442.641422 238.981364 
L 447.19078 206.955588 
L 451.740138 183.450098 
L 456.289495 199.216244 
L 460.838853 142.122606 
L 465.388211 188.100285 
L 469.937569 208.136127 
L 474.486926 238.981364 
L 479.036284 214.867565 
L 483.585642 238.981364 
L 488.134999 160.226207 
L 492.684357 234.290399 
L 497.233715 168.877494 
L 501.783073 132.713329 
L 506.33243 238.981364 
L 510.881788 205.531908 
L 515.431146 192.856018 
L 519.980503 182.562206 
L 524.529861 179.093291 
L 529.079219 183.938698 
L 533.628576 182.230368 
L 538.177934 238.981364 
L 542.727292 154.934137 
L 547.27665 168.633927 
L 551.826007 140.189815 
L 556.375365 189.409934 
L 560.924723 159.155791 
L 565.47408 181.20012 
L 570.023438 238.981364 
L 574.572796 202.519545 
L 579.122154 190.942273 
L 583.671511 32.271136 
L 588.220869 155.009283 
L 592.770227 126.584339 
L 597.319584 169.980141 
L 601.868942 238.981364 
L 606.4183 180.011645 
L 610.967657 168.098566 
L 615.517015 157.305288 
L 620.066373 163.728452 
L 624.615731 153.619666 
L 629.165088 181.873136 
L 633.714446 238.981364 
L 638.263804 211.204529 
L 642.813161 151.169278 
L 647.362519 130.079014 
L 651.911877 134.948412 
L 656.461235 138.680673 
L 661.010592 83.608889 
L 665.55995 238.981364 
L 670.109308 214.572721 
L 674.658665 147.7387 
L 679.208023 198.437927 
L 683.757381 186.811697 
L 688.306739 173.126191 
L 692.856096 186.732949 
L 697.405454 238.981364 
L 701.954812 190.158461 
L 706.504169 160.593756 
L 711.053527 153.82563 
L 715.602885 181.777051 
L 720.152242 183.368176 
L 724.7016 167.342103 
L 729.250958 238.981364 
L 733.800316 210.562646 
L 738.349673 167.16544 
L 742.899031 175.817948 
L 747.448389 168.279807 
L 751.997746 165.879843 
L 756.547104 190.38457 
L 761.096462 238.981364 
L 765.64582 172.25649 
L 770.195177 137.339464 
L 774.744535 185.198779 
L 779.293893 158.735805 
L 783.84325 94.12649 
L 788.392608 121.65646 
L 792.941966 238.981364 
L 797.491323 177.342169 
L 802.040681 127.163285 
L 806.590039 131.044982 
L 811.139397 113.125675 
L 815.688754 124.616569 
L 820.238112 143.614045 
L 824.78747 238.981364 
L 829.336827 179.253167 
L 833.886185 67.302072 
L 838.435543 125.772813 
L 842.984901 136.551257 
L 847.534258 150.620488 
L 852.083616 155.600804 
L 856.632974 238.981364 
L 861.182331 173.610396 
L 870.281047 117.695466 
L 874.830405 117.041069 
L 879.379762 157.038829 
L 883.92912 137.51515 
L 888.478478 238.981364 
L 893.027835 200.602748 
L 897.577193 128.332592 
L 902.126551 116.707339 
L 906.675908 151.244058 
L 911.225266 130.228756 
L 915.774624 134.361286 
L 920.323982 238.981364 
L 924.873339 191.082248 
L 929.422697 70.308452 
L 933.972055 129.782887 
L 938.521412 153.160306 
L 943.07077 84.346978 
L 947.620128 182.731543 
L 947.620128 182.731543 
" clip-path="url(#p1c30b05f4c)" style="fill: none; stroke: #ff7f0e; stroke-opacity: 0.35; stroke-width: 1.2; stroke-linecap: round"/>
   </g>
   <g id="line2d_18">
    <path d="M 110.53831 170.64455 
L 115.087667 174.401202 
L 119.637025 189.345763 
L 124.186383 186.386725 
L 128.73574 189.984167 
L 133.285098 179.838739 
L 137.834456 122.773353 
L 142.383814 192.219466 
L 146.933171 156.01497 
L 151.482529 168.519378 
L 156.031887 186.386725 
L 160.581244 159.048286 
L 165.130602 152.982808 
L 174.229318 177.427309 
L 178.778675 167.601616 
L 183.328033 169.021664 
L 187.877391 186.386725 
L 192.426748 190.406356 
L 196.976106 183.726202 
L 201.525464 178.241179 
L 206.074822 179.92799 
L 210.624179 118.01695 
L 215.173537 175.928992 
L 219.722895 186.386725 
L 224.272252 186.817663 
L 228.82161 150.30973 
L 233.370968 122.610495 
L 237.920325 174.809371 
L 242.469683 156.604543 
L 247.019041 154.947048 
L 251.568399 186.386725 
L 256.117756 185.001527 
L 260.667114 153.272752 
L 265.216472 164.656245 
L 269.765829 174.704237 
L 274.315187 160.534011 
L 278.864545 171.828921 
L 283.413903 186.386725 
L 287.96326 160.105996 
L 292.512618 156.499164 
L 297.061976 132.884268 
L 301.611333 144.006594 
L 306.160691 162.087352 
L 310.710049 155.979782 
L 315.259406 186.386725 
L 319.808764 138.727792 
L 324.358122 160.023391 
L 328.90748 175.058399 
L 333.456837 169.714189 
L 338.006195 109.435797 
L 342.555553 161.203019 
L 347.10491 186.386725 
L 351.654268 165.955369 
L 356.203626 161.196865 
L 360.752984 177.56776 
L 365.302341 140.466596 
L 369.851699 53.897244 
L 374.401057 162.694174 
L 378.950414 186.386725 
L 383.499772 185.932493 
L 388.04913 168.860819 
L 392.598488 198.461994 
L 397.147845 160.030008 
L 401.697203 104.674235 
L 406.246561 170.304918 
L 410.795918 186.386725 
L 415.345276 190.391178 
L 419.894634 181.278763 
L 424.443991 187.021218 
L 428.993349 115.738014 
L 433.542707 166.738186 
L 438.092065 175.252326 
L 442.641422 186.386725 
L 447.19078 174.550011 
L 451.740138 157.005017 
L 456.289495 194.463007 
L 460.838853 134.279693 
L 465.388211 184.039873 
L 469.937569 176.619292 
L 474.486926 186.386725 
L 479.036284 185.851495 
L 483.585642 197.827029 
L 488.134999 169.597684 
L 492.684357 237.80435 
L 497.233715 163.70944 
L 501.783073 108.957877 
L 506.33243 186.386725 
L 510.881788 178.120634 
L 515.431146 191.639357 
L 519.980503 190.52134 
L 524.529861 176.358236 
L 529.079219 187.438154 
L 533.628576 161.568452 
L 538.177934 186.386725 
L 542.727292 129.833549 
L 547.27665 176.263718 
L 551.826007 153.908977 
L 556.375365 191.759371 
L 560.924723 169.649975 
L 565.47408 162.172884 
L 570.023438 186.386725 
L 574.572796 179.406478 
L 579.122154 205.690233 
L 583.671511 62.895626 
L 588.220869 157.91099 
L 592.770227 148.210347 
L 597.319584 155.770839 
L 601.868942 186.386725 
L 606.4183 161.041308 
L 610.967657 195.401586 
L 615.517015 196.880632 
L 620.066373 181.476641 
L 624.615731 180.774361 
L 629.165088 177.694528 
L 633.714446 186.386725 
L 638.263804 197.615256 
L 642.813161 168.258312 
L 647.362519 168.555741 
L 651.911877 147.171864 
L 656.461235 176.052669 
L 661.010592 83.239785 
L 665.55995 186.386725 
L 670.109308 201.743427 
L 674.658665 163.746631 
L 679.208023 227.672315 
L 683.757381 202.938692 
L 688.306739 205.973121 
L 692.856096 185.16805 
L 697.405454 186.386725 
L 701.954812 173.598694 
L 706.504169 162.358815 
L 711.053527 168.819244 
L 715.602885 189.613031 
L 720.152242 191.011032 
L 724.7016 153.212925 
L 729.250958 186.386725 
L 733.800316 189.602783 
L 738.349673 159.771773 
L 742.899031 184.409011 
L 747.448389 167.745835 
L 751.997746 164.86843 
L 756.547104 171.781087 
L 761.096462 186.386725 
L 765.64582 150.637308 
L 770.195177 141.664203 
L 774.744535 201.809329 
L 779.293893 169.918467 
L 783.84325 119.153487 
L 788.392608 121.121848 
L 792.941966 186.386725 
L 797.491323 165.429184 
L 802.040681 165.171274 
L 806.590039 182.403872 
L 811.139397 155.96851 
L 815.688754 163.523299 
L 820.238112 144.08766 
L 824.78747 186.386725 
L 829.336827 168.440826 
L 833.886185 98.508931 
L 838.435543 168.553909 
L 842.984901 168.103051 
L 847.534258 171.500834 
L 852.083616 149.759907 
L 856.632974 186.386725 
L 861.182331 158.383949 
L 865.731689 156.470623 
L 870.281047 142.997347 
L 874.830405 140.703873 
L 879.379762 179.972163 
L 883.92912 130.279551 
L 888.478478 186.386725 
L 893.027835 181.442485 
L 897.577193 144.020847 
L 902.126551 149.891031 
L 911.225266 194.061362 
L 915.774624 150.44081 
L 920.323982 186.386725 
L 924.873339 191.847243 
L 929.422697 132.361277 
L 933.972055 198.535358 
L 938.521412 214.707941 
L 943.07077 147.232558 
L 947.620128 184.99499 
L 947.620128 184.99499 
" clip-path="url(#p1c30b05f4c)" style="fill: none; stroke: #2ca02c; stroke-opacity: 0.35; stroke-width: 1.2; stroke-linecap: round"/>
   </g>
   <g id="line2d_19">
    <path d="M 137.834456 188.148144 
L 142.383814 191.459084 
L 146.933171 189.940428 
L 151.482529 188.957725 
L 156.031887 188.957725 
L 160.581244 186.778863 
L 165.130602 183.91483 
L 169.67996 190.678813 
L 174.229318 190.033146 
L 178.778675 192.733083 
L 183.328033 193.443091 
L 187.877391 193.443091 
L 192.426748 197.560525 
L 196.976106 200.729084 
L 201.525464 201.184031 
L 206.074822 200.426948 
L 210.624179 192.357746 
L 215.173537 193.836628 
L 224.272252 193.941537 
L 228.82161 189.348924 
L 233.370968 180.917257 
L 237.920325 179.940301 
L 242.469683 185.203907 
L 247.019041 182.025799 
L 251.568399 182.025799 
L 256.117756 181.705124 
L 260.667114 184.124884 
L 265.216472 192.510445 
L 269.765829 194.252271 
L 278.864545 198.739085 
L 283.413903 198.739085 
L 287.96326 195.062462 
L 292.512618 194.774934 
L 297.061976 189.203045 
L 301.611333 184.716126 
L 306.160691 184.526784 
L 310.710049 182.438076 
L 315.259406 182.438076 
L 319.808764 179.443346 
L 324.358122 179.817881 
L 328.90748 185.736075 
L 333.456837 189.025554 
L 338.006195 180.944134 
L 342.555553 181.861851 
L 347.10491 181.861851 
L 351.654268 186.26745 
L 356.203626 187.272277 
L 360.752984 187.861209 
L 365.302341 184.165758 
L 369.851699 175.921768 
L 378.950414 175.826878 
L 383.499772 177.543145 
L 388.04913 177.3729 
L 392.598488 179.655371 
L 397.147845 181.567276 
L 401.697203 188.784995 
L 406.246561 189.525238 
L 410.795918 189.525238 
L 415.345276 190.186088 
L 419.894634 192.758713 
L 424.443991 191.366052 
L 428.993349 184.704955 
L 433.542707 193.374015 
L 438.092065 194.271151 
L 442.641422 194.271151 
L 447.19078 192.087764 
L 451.740138 189.421776 
L 456.289495 189.971342 
L 460.838853 192.560841 
L 465.388211 194.701027 
L 469.937569 195.28033 
L 474.486926 195.28033 
L 479.036284 196.410613 
L 483.585642 204.343651 
L 488.134999 198.773645 
L 492.684357 211.940473 
L 497.233715 209.19436 
L 501.783073 198.419674 
L 506.33243 198.419674 
L 510.881788 197.086009 
L 515.431146 190.496674 
L 519.980503 193.687531 
L 524.529861 185.80223 
L 529.079219 187.95383 
L 533.628576 195.027693 
L 538.177934 195.027693 
L 542.727292 187.79944 
L 547.27665 184.339141 
L 551.826007 178.285943 
L 556.375365 179.759749 
L 560.924723 176.219334 
L 565.47408 176.072155 
L 570.023438 176.072155 
L 574.572796 182.870071 
L 579.122154 186.056977 
L 583.671511 170.640023 
L 588.220869 165.725645 
L 592.770227 161.07258 
L 597.319584 159.469726 
L 601.868942 159.469726 
L 610.967657 152.990925 
L 615.517015 170.852946 
L 620.066373 172.098542 
L 624.615731 175.960732 
L 629.165088 177.659731 
L 633.714446 177.659731 
L 638.263804 182.115857 
L 642.813161 179.697387 
L 647.362519 175.80792 
L 651.911877 171.696485 
L 656.461235 169.562344 
L 661.010592 155.524594 
L 665.55995 155.524594 
L 670.109308 156.005764 
L 674.658665 155.515682 
L 679.208023 165.281241 
L 683.757381 172.690281 
L 688.306739 177.61107 
L 692.856096 192.343078 
L 697.405454 192.343078 
L 701.954812 188.855327 
L 706.504169 190.691763 
L 711.053527 184.318578 
L 715.602885 183.599343 
L 720.152242 185.062484 
L 724.7016 182.292363 
L 729.250958 182.292363 
L 733.800316 185.207247 
L 738.349673 186.146059 
L 742.899031 189.287818 
L 747.448389 187.359641 
L 751.997746 184.861307 
L 756.547104 188.153088 
L 761.096462 188.153088 
L 765.64582 182.68078 
L 770.195177 178.419927 
L 774.744535 179.760045 
L 779.293893 178.396616 
L 783.84325 168.146137 
L 788.392608 158.327836 
L 792.941966 158.327836 
L 797.491323 159.054362 
L 802.040681 157.600622 
L 806.590039 149.864365 
L 811.139397 143.348632 
L 815.688754 147.704358 
L 820.238112 150.841155 
L 824.78747 150.841155 
L 829.336827 151.114155 
L 833.886185 142.562553 
L 838.435543 141.809386 
L 842.984901 145.155898 
L 847.534258 148.870744 
L 852.083616 150.583138 
L 856.632974 150.583138 
L 861.182331 149.777028 
L 865.731689 160.941727 
L 870.281047 159.78782 
L 874.830405 157.00065 
L 879.379762 157.917556 
L 883.92912 155.333891 
L 888.478478 155.333891 
L 893.027835 159.189941 
L 897.577193 156.743888 
L 902.126551 156.602727 
L 906.675908 161.488868 
L 911.225266 157.658858 
L 915.774624 157.208306 
L 920.323982 157.208306 
L 924.873339 155.848235 
L 929.422697 147.559072 
L 933.972055 149.427007 
L 938.521412 149.700757 
L 943.07077 143.146217 
L 947.620128 150.056254 
L 947.620128 150.056254 
" clip-path="url(#p1c30b05f4c)" style="fill: none; stroke: #ff7f0e; stroke-width: 2; stroke-linecap: round"/>
   </g>
   <g id="line2d_20">
    <path d="M 137.834456 173.339214 
L 142.383814 176.421345 
L 146.933171 173.79474 
L 151.482529 170.819543 
L 156.031887 170.819543 
L 160.581244 166.400131 
L 165.130602 162.563569 
L 169.67996 168.641229 
L 174.229318 166.528063 
L 178.778675 168.183299 
L 187.877391 168.255054 
L 196.976106 177.126691 
L 201.525464 178.973007 
L 206.074822 179.330247 
L 210.624179 172.246724 
L 215.173537 173.233485 
L 219.722895 173.233485 
L 224.272252 172.720814 
L 228.82161 167.947033 
L 233.370968 159.999792 
L 237.920325 159.268561 
L 242.469683 164.781074 
L 247.019041 161.783653 
L 251.568399 161.783653 
L 256.117756 161.524205 
L 260.667114 161.947494 
L 265.216472 167.95403 
L 269.765829 167.939011 
L 274.315187 168.500364 
L 278.864545 170.91206 
L 283.413903 170.91206 
L 287.96326 167.355555 
L 292.512618 167.816471 
L 301.611333 158.89224 
L 306.160691 159.114146 
L 310.710049 156.849983 
L 315.259406 156.849983 
L 319.808764 153.795954 
L 324.358122 154.299415 
L 328.90748 160.324291 
L 333.456837 163.996804 
L 338.006195 156.475154 
L 342.555553 157.22133 
L 347.10491 157.22133 
L 351.654268 161.110984 
L 356.203626 161.278623 
L 360.752984 161.637103 
L 365.302341 157.458876 
L 369.851699 149.524797 
L 374.401057 149.737819 
L 378.950414 149.737819 
L 383.499772 152.591694 
L 388.04913 153.686545 
L 392.598488 156.671435 
L 397.147845 159.466208 
L 401.697203 166.720064 
L 406.246561 167.807313 
L 410.795918 167.807313 
L 415.345276 168.444268 
L 419.894634 170.21826 
L 424.443991 168.583864 
L 428.993349 162.256436 
L 433.542707 171.122714 
L 438.092065 171.829487 
L 442.641422 171.829487 
L 447.19078 169.566463 
L 451.740138 166.098785 
L 456.289495 167.161898 
L 460.838853 169.810709 
L 465.388211 172.282379 
L 469.937569 172.47766 
L 474.486926 172.47766 
L 479.036284 174.092157 
L 483.585642 179.923873 
L 488.134999 176.371684 
L 492.684357 191.160921 
L 497.233715 188.256574 
L 501.783073 178.590657 
L 506.33243 178.590657 
L 510.881788 177.486248 
L 515.431146 176.602295 
L 519.980503 179.591389 
L 524.529861 170.813373 
L 529.079219 174.203189 
L 533.628576 181.718985 
L 538.177934 181.718985 
L 542.727292 174.82083 
L 547.27665 172.624311 
L 551.826007 167.393973 
L 556.375365 169.594135 
L 560.924723 167.052967 
L 570.023438 167.139314 
L 574.572796 174.221161 
L 579.122154 178.424949 
L 583.671511 165.423042 
L 588.220869 160.587559 
L 592.770227 157.524755 
L 597.319584 156.610177 
L 601.868942 156.610177 
L 606.4183 153.986581 
L 610.967657 152.516774 
L 615.517015 171.657489 
L 620.066373 175.024011 
L 624.615731 179.676013 
L 629.165088 182.807969 
L 633.714446 182.807969 
L 638.263804 188.032819 
L 642.813161 184.155208 
L 647.362519 180.108795 
L 651.911877 175.208113 
L 656.461235 174.533585 
L 661.010592 161.04005 
L 665.55995 161.04005 
L 670.109308 161.629789 
L 674.658665 160.985263 
L 679.208023 169.430488 
L 683.757381 177.397178 
L 688.306739 181.671528 
L 692.856096 196.232709 
L 697.405454 196.232709 
L 701.954812 192.212033 
L 706.504169 192.013773 
L 711.053527 183.606192 
L 715.602885 181.702526 
L 720.152242 179.565085 
L 724.7016 175.000067 
L 729.250958 175.000067 
L 733.800316 177.286365 
L 738.349673 176.916788 
L 742.899031 179.143897 
L 747.448389 176.020012 
L 751.997746 172.285355 
L 756.547104 174.937949 
L 761.096462 174.937949 
L 765.64582 169.371453 
L 770.195177 166.784657 
L 774.744535 169.270417 
L 779.293893 169.580793 
L 783.84325 163.050087 
L 788.392608 155.813052 
L 792.941966 155.813052 
L 797.491323 157.926178 
L 802.040681 161.28433 
L 806.590039 158.512122 
L 811.139397 156.519271 
L 815.688754 162.857816 
L 820.238112 166.138646 
L 824.78747 166.138646 
L 829.336827 166.568881 
L 833.886185 157.045689 
L 838.435543 155.067123 
L 842.984901 156.800629 
L 847.534258 157.940277 
L 852.083616 158.750597 
L 856.632974 158.750597 
L 861.182331 157.313901 
L 865.731689 165.594142 
L 870.281047 161.943205 
L 874.830405 158.029037 
L 879.379762 159.239227 
L 883.92912 156.456319 
L 888.478478 156.456319 
L 893.027835 159.750395 
L 897.577193 157.971856 
L 902.126551 158.956668 
L 906.675908 163.406939 
L 911.225266 165.419682 
L 915.774624 168.299862 
L 920.323982 168.299862 
L 924.873339 169.786256 
L 929.422697 168.120603 
L 933.972055 175.069792 
L 938.521412 181.191531 
L 943.07077 174.501702 
L 947.620128 179.438013 
L 947.620128 179.438013 
" clip-path="url(#p1c30b05f4c)" style="fill: none; stroke: #2ca02c; stroke-width: 2; stroke-linecap: round"/>
   </g>
   <g id="patch_3">
    <path d="M 68.684219 249.316875 
L 68.684219 21.935625 
" style="fill: none; stroke: #cccccc; stroke-width: 1.25; stroke-linejoin: miter; stroke-linecap: square"/>
   </g>
   <g id="patch_4">
    <path d="M 989.474219 249.316875 
L 989.474219 21.935625 
" style="fill: none; stroke: #cccccc; stroke-width: 1.25; stroke-linejoin: miter; stroke-linecap: square"/>
   </g>
   <g id="patch_5">
    <path d="M 68.684219 249.316875 
L 989.474219 249.316875 
" style="fill: none; stroke: #cccccc; stroke-width: 1.25; stroke-linejoin: miter; stroke-linecap: square"/>
   </g>
   <g id="patch_6">
    <path d="M 68.684219 21.935625 
L 989.474219 21.935625 
" style="fill: none; stroke: #cccccc; stroke-width: 1.25; stroke-linejoin: miter; stroke-linecap: square"/>
   </g>
   <g id="text_18">
    <!-- Cluster 0: Residual Trend (Actual Minus Forecast) -->
    <g style="fill: #262626" transform="translate(387.060156 15.935625) scale(0.12 -0.12)">
     <defs>
      <path id="Arial-BoldMT-43" d="M 3397 1684 
L 4294 1400 
Q 4088 650 3608 286 
Q 3128 -78 2391 -78 
Q 1478 -78 890 545 
Q 303 1169 303 2250 
Q 303 3394 893 4026 
Q 1484 4659 2447 4659 
Q 3288 4659 3813 4163 
Q 4125 3869 4281 3319 
L 3366 3100 
Q 3284 3456 3026 3662 
Q 2769 3869 2400 3869 
Q 1891 3869 1573 3503 
Q 1256 3138 1256 2319 
Q 1256 1450 1568 1081 
Q 1881 713 2381 713 
Q 2750 713 3015 947 
Q 3281 1181 3397 1684 
z
" transform="scale(0.015625)"/>
      <path id="Arial-BoldMT-6c" d="M 459 0 
L 459 4581 
L 1338 4581 
L 1338 0 
L 459 0 
z
" transform="scale(0.015625)"/>
      <path id="Arial-BoldMT-75" d="M 2644 0 
L 2644 497 
Q 2463 231 2167 78 
Q 1872 -75 1544 -75 
Q 1209 -75 943 72 
Q 678 219 559 484 
Q 441 750 441 1219 
L 441 3319 
L 1319 3319 
L 1319 1794 
Q 1319 1094 1367 936 
Q 1416 778 1544 686 
Q 1672 594 1869 594 
Q 2094 594 2272 717 
Q 2450 841 2515 1023 
Q 2581 1206 2581 1919 
L 2581 3319 
L 3459 3319 
L 3459 0 
L 2644 0 
z
" transform="scale(0.015625)"/>
      <path id="Arial-BoldMT-73" d="M 150 947 
L 1031 1081 
Q 1088 825 1259 692 
Q 1431 559 1741 559 
Q 2081 559 2253 684 
Q 2369 772 2369 919 
Q 2369 1019 2306 1084 
Q 2241 1147 2013 1200 
Q 950 1434 666 1628 
Q 272 1897 272 2375 
Q 272 2806 612 3100 
Q 953 3394 1669 3394 
Q 2350 3394 2681 3172 
Q 3013 2950 3138 2516 
L 2309 2363 
Q 2256 2556 2107 2659 
Q 1959 2763 1684 2763 
Q 1338 2763 1188 2666 
Q 1088 2597 1088 2488 
Q 1088 2394 1175 2328 
Q 1294 2241 1995 2081 
Q 2697 1922 2975 1691 
Q 3250 1456 3250 1038 
Q 3250 581 2869 253 
Q 2488 -75 1741 -75 
Q 1063 -75 667 200 
Q 272 475 150 947 
z
" transform="scale(0.015625)"/>
      <path id="Arial-BoldMT-74" d="M 1981 3319 
L 1981 2619 
L 1381 2619 
L 1381 1281 
Q 1381 875 1398 808 
Q 1416 741 1477 697 
Q 1538 653 1625 653 
Q 1747 653 1978 738 
L 2053 56 
Q 1747 -75 1359 -75 
Q 1122 -75 931 4 
Q 741 84 652 211 
Q 563 338 528 553 
Q 500 706 500 1172 
L 500 2619 
L 97 2619 
L 97 3319 
L 500 3319 
L 500 3978 
L 1381 4491 
L 1381 3319 
L 1981 3319 
z
" transform="scale(0.015625)"/>
      <path id="Arial-BoldMT-65" d="M 2381 1056 
L 3256 909 
Q 3088 428 2723 176 
Q 2359 -75 1813 -75 
Q 947 -75 531 491 
Q 203 944 203 1634 
Q 203 2459 634 2926 
Q 1066 3394 1725 3394 
Q 2466 3394 2894 2905 
Q 3322 2416 3303 1406 
L 1103 1406 
Q 1113 1016 1316 798 
Q 1519 581 1822 581 
Q 2028 581 2168 693 
Q 2309 806 2381 1056 
z
M 2431 1944 
Q 2422 2325 2234 2523 
Q 2047 2722 1778 2722 
Q 1491 2722 1303 2513 
Q 1116 2303 1119 1944 
L 2431 1944 
z
" transform="scale(0.015625)"/>
      <path id="Arial-BoldMT-72" d="M 1300 0 
L 422 0 
L 422 3319 
L 1238 3319 
L 1238 2847 
Q 1447 3181 1614 3287 
Q 1781 3394 1994 3394 
Q 2294 3394 2572 3228 
L 2300 2463 
Q 2078 2606 1888 2606 
Q 1703 2606 1575 2504 
Q 1447 2403 1373 2137 
Q 1300 1872 1300 1025 
L 1300 0 
z
" transform="scale(0.015625)"/>
      <path id="Arial-BoldMT-20" transform="scale(0.015625)"/>
      <path id="Arial-BoldMT-30" d="M 1756 4600 
Q 2422 4600 2797 4125 
Q 3244 3563 3244 2259 
Q 3244 959 2794 391 
Q 2422 -78 1756 -78 
Q 1088 -78 678 436 
Q 269 950 269 2269 
Q 269 3563 719 4131 
Q 1091 4600 1756 4600 
z
M 1756 3872 
Q 1597 3872 1472 3770 
Q 1347 3669 1278 3406 
Q 1188 3066 1188 2259 
Q 1188 1453 1269 1151 
Q 1350 850 1473 750 
Q 1597 650 1756 650 
Q 1916 650 2041 751 
Q 2166 853 2234 1116 
Q 2325 1453 2325 2259 
Q 2325 3066 2244 3367 
Q 2163 3669 2039 3770 
Q 1916 3872 1756 3872 
z
" transform="scale(0.015625)"/>
      <path id="Arial-BoldMT-3a" d="M 628 2441 
L 628 3319 
L 1506 3319 
L 1506 2441 
L 628 2441 
z
M 628 0 
L 628 878 
L 1506 878 
L 1506 0 
L 628 0 
z
" transform="scale(0.015625)"/>
      <path id="Arial-BoldMT-52" d="M 469 0 
L 469 4581 
L 2416 4581 
Q 3150 4581 3483 4457 
Q 3816 4334 4016 4018 
Q 4216 3703 4216 3297 
Q 4216 2781 3912 2445 
Q 3609 2109 3006 2022 
Q 3306 1847 3501 1637 
Q 3697 1428 4028 894 
L 4588 0 
L 3481 0 
L 2813 997 
Q 2456 1531 2325 1670 
Q 2194 1809 2047 1861 
Q 1900 1913 1581 1913 
L 1394 1913 
L 1394 0 
L 469 0 
z
M 1394 2644 
L 2078 2644 
Q 2744 2644 2909 2700 
Q 3075 2756 3169 2893 
Q 3263 3031 3263 3238 
Q 3263 3469 3139 3611 
Q 3016 3753 2791 3791 
Q 2678 3806 2116 3806 
L 1394 3806 
L 1394 2644 
z
" transform="scale(0.015625)"/>
      <path id="Arial-BoldMT-69" d="M 459 3769 
L 459 4581 
L 1338 4581 
L 1338 3769 
L 459 3769 
z
M 459 0 
L 459 3319 
L 1338 3319 
L 1338 0 
L 459 0 
z
" transform="scale(0.015625)"/>
      <path id="Arial-BoldMT-64" d="M 3503 0 
L 2688 0 
L 2688 488 
Q 2484 203 2207 64 
Q 1931 -75 1650 -75 
Q 1078 -75 670 386 
Q 263 847 263 1672 
Q 263 2516 659 2955 
Q 1056 3394 1663 3394 
Q 2219 3394 2625 2931 
L 2625 4581 
L 3503 4581 
L 3503 0 
z
M 1159 1731 
Q 1159 1200 1306 963 
Q 1519 619 1900 619 
Q 2203 619 2415 876 
Q 2628 1134 2628 1647 
Q 2628 2219 2422 2470 
Q 2216 2722 1894 2722 
Q 1581 2722 1370 2473 
Q 1159 2225 1159 1731 
z
" transform="scale(0.015625)"/>
      <path id="Arial-BoldMT-61" d="M 1116 2306 
L 319 2450 
Q 453 2931 781 3162 
Q 1109 3394 1756 3394 
Q 2344 3394 2631 3255 
Q 2919 3116 3036 2902 
Q 3153 2688 3153 2116 
L 3144 1091 
Q 3144 653 3186 445 
Q 3228 238 3344 0 
L 2475 0 
Q 2441 88 2391 259 
Q 2369 338 2359 363 
Q 2134 144 1878 34 
Q 1622 -75 1331 -75 
Q 819 -75 523 203 
Q 228 481 228 906 
Q 228 1188 362 1408 
Q 497 1628 739 1745 
Q 981 1863 1438 1950 
Q 2053 2066 2291 2166 
L 2291 2253 
Q 2291 2506 2166 2614 
Q 2041 2722 1694 2722 
Q 1459 2722 1328 2630 
Q 1197 2538 1116 2306 
z
M 2291 1594 
Q 2122 1538 1756 1459 
Q 1391 1381 1278 1306 
Q 1106 1184 1106 997 
Q 1106 813 1243 678 
Q 1381 544 1594 544 
Q 1831 544 2047 700 
Q 2206 819 2256 991 
Q 2291 1103 2291 1419 
L 2291 1594 
z
" transform="scale(0.015625)"/>
      <path id="Arial-BoldMT-54" d="M 1497 0 
L 1497 3806 
L 138 3806 
L 138 4581 
L 3778 4581 
L 3778 3806 
L 2422 3806 
L 2422 0 
L 1497 0 
z
" transform="scale(0.015625)"/>
      <path id="Arial-BoldMT-6e" d="M 3478 0 
L 2600 0 
L 2600 1694 
Q 2600 2231 2544 2389 
Q 2488 2547 2361 2634 
Q 2234 2722 2056 2722 
Q 1828 2722 1647 2597 
Q 1466 2472 1398 2265 
Q 1331 2059 1331 1503 
L 1331 0 
L 453 0 
L 453 3319 
L 1269 3319 
L 1269 2831 
Q 1703 3394 2363 3394 
Q 2653 3394 2893 3289 
Q 3134 3184 3257 3021 
Q 3381 2859 3429 2653 
Q 3478 2447 3478 2063 
L 3478 0 
z
" transform="scale(0.015625)"/>
      <path id="Arial-BoldMT-28" d="M 1916 -1347 
L 1313 -1347 
Q 834 -625 584 153 
Q 334 931 334 1659 
Q 334 2563 644 3369 
Q 913 4069 1325 4659 
L 1925 4659 
Q 1497 3713 1336 3048 
Q 1175 2384 1175 1641 
Q 1175 1128 1270 590 
Q 1366 53 1531 -431 
Q 1641 -750 1916 -1347 
z
" transform="scale(0.015625)"/>
      <path id="Arial-BoldMT-41" d="M 4597 0 
L 3591 0 
L 3191 1041 
L 1359 1041 
L 981 0 
L 0 0 
L 1784 4581 
L 2763 4581 
L 4597 0 
z
M 2894 1813 
L 2263 3513 
L 1644 1813 
L 2894 1813 
z
" transform="scale(0.015625)"/>
      <path id="Arial-BoldMT-63" d="M 3353 2338 
L 2488 2181 
Q 2444 2441 2289 2572 
Q 2134 2703 1888 2703 
Q 1559 2703 1364 2476 
Q 1169 2250 1169 1719 
Q 1169 1128 1367 884 
Q 1566 641 1900 641 
Q 2150 641 2309 783 
Q 2469 925 2534 1272 
L 3397 1125 
Q 3263 531 2881 228 
Q 2500 -75 1859 -75 
Q 1131 -75 698 384 
Q 266 844 266 1656 
Q 266 2478 700 2936 
Q 1134 3394 1875 3394 
Q 2481 3394 2839 3133 
Q 3197 2872 3353 2338 
z
" transform="scale(0.015625)"/>
      <path id="Arial-BoldMT-4d" d="M 453 0 
L 453 4581 
L 1838 4581 
L 2669 1456 
L 3491 4581 
L 4878 4581 
L 4878 0 
L 4019 0 
L 4019 3606 
L 3109 0 
L 2219 0 
L 1313 3606 
L 1313 0 
L 453 0 
z
" transform="scale(0.015625)"/>
      <path id="Arial-BoldMT-46" d="M 472 0 
L 472 4581 
L 3613 4581 
L 3613 3806 
L 1397 3806 
L 1397 2722 
L 3309 2722 
L 3309 1947 
L 1397 1947 
L 1397 0 
L 472 0 
z
" transform="scale(0.015625)"/>
      <path id="Arial-BoldMT-6f" d="M 256 1706 
Q 256 2144 472 2553 
Q 688 2963 1083 3178 
Q 1478 3394 1966 3394 
Q 2719 3394 3200 2905 
Q 3681 2416 3681 1669 
Q 3681 916 3195 420 
Q 2709 -75 1972 -75 
Q 1516 -75 1102 131 
Q 688 338 472 736 
Q 256 1134 256 1706 
z
M 1156 1659 
Q 1156 1166 1390 903 
Q 1625 641 1969 641 
Q 2313 641 2545 903 
Q 2778 1166 2778 1666 
Q 2778 2153 2545 2415 
Q 2313 2678 1969 2678 
Q 1625 2678 1390 2415 
Q 1156 2153 1156 1659 
z
" transform="scale(0.015625)"/>
      <path id="Arial-BoldMT-29" d="M 216 -1347 
Q 475 -791 581 -494 
Q 688 -197 778 190 
Q 869 578 912 926 
Q 956 1275 956 1641 
Q 956 2384 797 3048 
Q 638 3713 209 4659 
L 806 4659 
Q 1278 3988 1539 3234 
Q 1800 2481 1800 1706 
Q 1800 1053 1594 306 
Q 1359 -531 822 -1347 
L 216 -1347 
z
" transform="scale(0.015625)"/>
     </defs>
     <use xlink:href="#Arial-BoldMT-43"/>
     <use xlink:href="#Arial-BoldMT-6c" x="72.216797"/>
     <use xlink:href="#Arial-BoldMT-75" x="100"/>
     <use xlink:href="#Arial-BoldMT-73" x="161.083984"/>
     <use xlink:href="#Arial-BoldMT-74" x="216.699219"/>
     <use xlink:href="#Arial-BoldMT-65" x="250"/>
     <use xlink:href="#Arial-BoldMT-72" x="305.615234"/>
     <use xlink:href="#Arial-BoldMT-20" x="344.53125"/>
     <use xlink:href="#Arial-BoldMT-30" x="372.314453"/>
     <use xlink:href="#Arial-BoldMT-3a" x="427.929688"/>
     <use xlink:href="#Arial-BoldMT-20" x="461.230469"/>
     <use xlink:href="#Arial-BoldMT-52" x="489.013672"/>
     <use xlink:href="#Arial-BoldMT-65" x="561.230469"/>
     <use xlink:href="#Arial-BoldMT-73" x="616.845703"/>
     <use xlink:href="#Arial-BoldMT-69" x="672.460938"/>
     <use xlink:href="#Arial-BoldMT-64" x="700.244141"/>
     <use xlink:href="#Arial-BoldMT-75" x="761.328125"/>
     <use xlink:href="#Arial-BoldMT-61" x="822.412109"/>
     <use xlink:href="#Arial-BoldMT-6c" x="878.027344"/>
     <use xlink:href="#Arial-BoldMT-20" x="905.810547"/>
     <use xlink:href="#Arial-BoldMT-54" x="933.59375"/>
     <use xlink:href="#Arial-BoldMT-72" x="989.177734"/>
     <use xlink:href="#Arial-BoldMT-65" x="1028.09375"/>
     <use xlink:href="#Arial-BoldMT-6e" x="1083.708984"/>
     <use xlink:href="#Arial-BoldMT-64" x="1144.792969"/>
     <use xlink:href="#Arial-BoldMT-20" x="1205.876953"/>
     <use xlink:href="#Arial-BoldMT-28" x="1233.660156"/>
     <use xlink:href="#Arial-BoldMT-41" x="1266.960938"/>
     <use xlink:href="#Arial-BoldMT-63" x="1339.177734"/>
     <use xlink:href="#Arial-BoldMT-74" x="1394.792969"/>
     <use xlink:href="#Arial-BoldMT-75" x="1428.09375"/>
     <use xlink:href="#Arial-BoldMT-61" x="1489.177734"/>
     <use xlink:href="#Arial-BoldMT-6c" x="1544.792969"/>
     <use xlink:href="#Arial-BoldMT-20" x="1572.576172"/>
     <use xlink:href="#Arial-BoldMT-4d" x="1600.359375"/>
     <use xlink:href="#Arial-BoldMT-69" x="1683.660156"/>
     <use xlink:href="#Arial-BoldMT-6e" x="1711.443359"/>
     <use xlink:href="#Arial-BoldMT-75" x="1772.527344"/>
     <use xlink:href="#Arial-BoldMT-73" x="1833.611328"/>
     <use xlink:href="#Arial-BoldMT-20" x="1889.226562"/>
     <use xlink:href="#Arial-BoldMT-46" x="1917.009766"/>
     <use xlink:href="#Arial-BoldMT-6f" x="1978.09375"/>
     <use xlink:href="#Arial-BoldMT-72" x="2039.177734"/>
     <use xlink:href="#Arial-BoldMT-65" x="2078.09375"/>
     <use xlink:href="#Arial-BoldMT-63" x="2133.708984"/>
     <use xlink:href="#Arial-BoldMT-61" x="2189.324219"/>
     <use xlink:href="#Arial-BoldMT-73" x="2244.939453"/>
     <use xlink:href="#Arial-BoldMT-74" x="2300.554688"/>
     <use xlink:href="#Arial-BoldMT-29" x="2333.855469"/>
    </g>
   </g>
   <g id="legend_1">
    <g id="line2d_21">
     <path d="M 699.155469 32.159375 
L 707.155469 32.159375 
L 715.155469 32.159375 
" style="fill: none; stroke: #ff7f0e; stroke-opacity: 0.35; stroke-width: 1.2; stroke-linecap: round"/>
    </g>
    <g id="text_19">
     <!-- Model 1 (TSB) residual -->
     <g style="fill: #262626" transform="translate(721.555469 34.959375) scale(0.08 -0.08)">
      <defs>
       <path id="ArialMT-4d" d="M 475 0 
L 475 4581 
L 1388 4581 
L 2472 1338 
Q 2622 884 2691 659 
Q 2769 909 2934 1394 
L 4031 4581 
L 4847 4581 
L 4847 0 
L 4263 0 
L 4263 3834 
L 2931 0 
L 2384 0 
L 1059 3900 
L 1059 0 
L 475 0 
z
" transform="scale(0.015625)"/>
       <path id="ArialMT-6f" d="M 213 1659 
Q 213 2581 725 3025 
Q 1153 3394 1769 3394 
Q 2453 3394 2887 2945 
Q 3322 2497 3322 1706 
Q 3322 1066 3130 698 
Q 2938 331 2570 128 
Q 2203 -75 1769 -75 
Q 1072 -75 642 372 
Q 213 819 213 1659 
z
M 791 1659 
Q 791 1022 1069 705 
Q 1347 388 1769 388 
Q 2188 388 2466 706 
Q 2744 1025 2744 1678 
Q 2744 2294 2464 2611 
Q 2184 2928 1769 2928 
Q 1347 2928 1069 2612 
Q 791 2297 791 1659 
z
" transform="scale(0.015625)"/>
       <path id="ArialMT-20" transform="scale(0.015625)"/>
       <path id="ArialMT-28" d="M 1497 -1347 
Q 1031 -759 709 28 
Q 388 816 388 1659 
Q 388 2403 628 3084 
Q 909 3875 1497 4659 
L 1900 4659 
Q 1522 4009 1400 3731 
Q 1209 3300 1100 2831 
Q 966 2247 966 1656 
Q 966 153 1900 -1347 
L 1497 -1347 
z
" transform="scale(0.015625)"/>
       <path id="ArialMT-54" d="M 1659 0 
L 1659 4041 
L 150 4041 
L 150 4581 
L 3781 4581 
L 3781 4041 
L 2266 4041 
L 2266 0 
L 1659 0 
z
" transform="scale(0.015625)"/>
       <path id="ArialMT-53" d="M 288 1472 
L 859 1522 
Q 900 1178 1048 958 
Q 1197 738 1509 602 
Q 1822 466 2213 466 
Q 2559 466 2825 569 
Q 3091 672 3220 851 
Q 3350 1031 3350 1244 
Q 3350 1459 3225 1620 
Q 3100 1781 2813 1891 
Q 2628 1963 1997 2114 
Q 1366 2266 1113 2400 
Q 784 2572 623 2826 
Q 463 3081 463 3397 
Q 463 3744 659 4045 
Q 856 4347 1234 4503 
Q 1613 4659 2075 4659 
Q 2584 4659 2973 4495 
Q 3363 4331 3572 4012 
Q 3781 3694 3797 3291 
L 3216 3247 
Q 3169 3681 2898 3903 
Q 2628 4125 2100 4125 
Q 1550 4125 1298 3923 
Q 1047 3722 1047 3438 
Q 1047 3191 1225 3031 
Q 1400 2872 2139 2705 
Q 2878 2538 3153 2413 
Q 3553 2228 3743 1945 
Q 3934 1663 3934 1294 
Q 3934 928 3725 604 
Q 3516 281 3123 101 
Q 2731 -78 2241 -78 
Q 1619 -78 1198 103 
Q 778 284 539 648 
Q 300 1013 288 1472 
z
" transform="scale(0.015625)"/>
       <path id="ArialMT-42" d="M 469 0 
L 469 4581 
L 2188 4581 
Q 2713 4581 3030 4442 
Q 3347 4303 3526 4014 
Q 3706 3725 3706 3409 
Q 3706 3116 3547 2856 
Q 3388 2597 3066 2438 
Q 3481 2316 3704 2022 
Q 3928 1728 3928 1328 
Q 3928 1006 3792 729 
Q 3656 453 3456 303 
Q 3256 153 2954 76 
Q 2653 0 2216 0 
L 469 0 
z
M 1075 2656 
L 2066 2656 
Q 2469 2656 2644 2709 
Q 2875 2778 2992 2937 
Q 3109 3097 3109 3338 
Q 3109 3566 3000 3739 
Q 2891 3913 2687 3977 
Q 2484 4041 1991 4041 
L 1075 4041 
L 1075 2656 
z
M 1075 541 
L 2216 541 
Q 2509 541 2628 563 
Q 2838 600 2978 687 
Q 3119 775 3209 942 
Q 3300 1109 3300 1328 
Q 3300 1584 3169 1773 
Q 3038 1963 2805 2039 
Q 2572 2116 2134 2116 
L 1075 2116 
L 1075 541 
z
" transform="scale(0.015625)"/>
       <path id="ArialMT-29" d="M 791 -1347 
L 388 -1347 
Q 1322 153 1322 1656 
Q 1322 2244 1188 2822 
Q 1081 3291 891 3722 
Q 769 4003 388 4659 
L 791 4659 
Q 1378 3875 1659 3084 
Q 1900 2403 1900 1659 
Q 1900 816 1576 28 
Q 1253 -759 791 -1347 
z
" transform="scale(0.015625)"/>
       <path id="ArialMT-72" d="M 416 0 
L 416 3319 
L 922 3319 
L 922 2816 
Q 1116 3169 1280 3281 
Q 1444 3394 1641 3394 
Q 1925 3394 2219 3213 
L 2025 2691 
Q 1819 2813 1613 2813 
Q 1428 2813 1281 2702 
Q 1134 2591 1072 2394 
Q 978 2094 978 1738 
L 978 0 
L 416 0 
z
" transform="scale(0.015625)"/>
      </defs>
      <use xlink:href="#ArialMT-4d"/>
      <use xlink:href="#ArialMT-6f" x="83.300781"/>
      <use xlink:href="#ArialMT-64" x="138.916016"/>
      <use xlink:href="#ArialMT-65" x="194.53125"/>
      <use xlink:href="#ArialMT-6c" x="250.146484"/>
      <use xlink:href="#ArialMT-20" x="272.363281"/>
      <use xlink:href="#ArialMT-31" x="300.146484"/>
      <use xlink:href="#ArialMT-20" x="355.761719"/>
      <use xlink:href="#ArialMT-28" x="383.544922"/>
      <use xlink:href="#ArialMT-54" x="416.845703"/>
      <use xlink:href="#ArialMT-53" x="477.929688"/>
      <use xlink:href="#ArialMT-42" x="544.628906"/>
      <use xlink:href="#ArialMT-29" x="611.328125"/>
      <use xlink:href="#ArialMT-20" x="644.628906"/>
      <use xlink:href="#ArialMT-72" x="672.412109"/>
      <use xlink:href="#ArialMT-65" x="705.712891"/>
      <use xlink:href="#ArialMT-73" x="761.328125"/>
      <use xlink:href="#ArialMT-69" x="811.328125"/>
      <use xlink:href="#ArialMT-64" x="833.544922"/>
      <use xlink:href="#ArialMT-75" x="889.160156"/>
      <use xlink:href="#ArialMT-61" x="944.775391"/>
      <use xlink:href="#ArialMT-6c" x="1000.390625"/>
     </g>
    </g>
    <g id="line2d_22">
     <path d="M 699.155469 43.666875 
L 707.155469 43.666875 
L 715.155469 43.666875 
" style="fill: none; stroke: #2ca02c; stroke-opacity: 0.35; stroke-width: 1.2; stroke-linecap: round"/>
    </g>
    <g id="text_20">
     <!-- Model 2 (Two-stage LGBM) residual -->
     <g style="fill: #262626" transform="translate(721.555469 46.466875) scale(0.08 -0.08)">
      <defs>
       <path id="ArialMT-77" d="M 1034 0 
L 19 3319 
L 600 3319 
L 1128 1403 
L 1325 691 
Q 1338 744 1497 1375 
L 2025 3319 
L 2603 3319 
L 3100 1394 
L 3266 759 
L 3456 1400 
L 4025 3319 
L 4572 3319 
L 3534 0 
L 2950 0 
L 2422 1988 
L 2294 2553 
L 1622 0 
L 1034 0 
z
" transform="scale(0.015625)"/>
       <path id="ArialMT-67" d="M 319 -275 
L 866 -356 
Q 900 -609 1056 -725 
Q 1266 -881 1628 -881 
Q 2019 -881 2231 -725 
Q 2444 -569 2519 -288 
Q 2563 -116 2559 434 
Q 2191 0 1641 0 
Q 956 0 581 494 
Q 206 988 206 1678 
Q 206 2153 378 2554 
Q 550 2956 876 3175 
Q 1203 3394 1644 3394 
Q 2231 3394 2613 2919 
L 2613 3319 
L 3131 3319 
L 3131 450 
Q 3131 -325 2973 -648 
Q 2816 -972 2473 -1159 
Q 2131 -1347 1631 -1347 
Q 1038 -1347 672 -1080 
Q 306 -813 319 -275 
z
M 784 1719 
Q 784 1066 1043 766 
Q 1303 466 1694 466 
Q 2081 466 2343 764 
Q 2606 1063 2606 1700 
Q 2606 2309 2336 2618 
Q 2066 2928 1684 2928 
Q 1309 2928 1046 2623 
Q 784 2319 784 1719 
z
" transform="scale(0.015625)"/>
       <path id="ArialMT-4c" d="M 469 0 
L 469 4581 
L 1075 4581 
L 1075 541 
L 3331 541 
L 3331 0 
L 469 0 
z
" transform="scale(0.015625)"/>
       <path id="ArialMT-47" d="M 2638 1797 
L 2638 2334 
L 4578 2338 
L 4578 638 
Q 4131 281 3656 101 
Q 3181 -78 2681 -78 
Q 2006 -78 1454 211 
Q 903 500 622 1047 
Q 341 1594 341 2269 
Q 341 2938 620 3517 
Q 900 4097 1425 4378 
Q 1950 4659 2634 4659 
Q 3131 4659 3532 4498 
Q 3934 4338 4162 4050 
Q 4391 3763 4509 3300 
L 3963 3150 
Q 3859 3500 3706 3700 
Q 3553 3900 3268 4020 
Q 2984 4141 2638 4141 
Q 2222 4141 1919 4014 
Q 1616 3888 1430 3681 
Q 1244 3475 1141 3228 
Q 966 2803 966 2306 
Q 966 1694 1177 1281 
Q 1388 869 1791 669 
Q 2194 469 2647 469 
Q 3041 469 3416 620 
Q 3791 772 3984 944 
L 3984 1797 
L 2638 1797 
z
" transform="scale(0.015625)"/>
      </defs>
      <use xlink:href="#ArialMT-4d"/>
      <use xlink:href="#ArialMT-6f" x="83.300781"/>
      <use xlink:href="#ArialMT-64" x="138.916016"/>
      <use xlink:href="#ArialMT-65" x="194.53125"/>
      <use xlink:href="#ArialMT-6c" x="250.146484"/>
      <use xlink:href="#ArialMT-20" x="272.363281"/>
      <use xlink:href="#ArialMT-32" x="300.146484"/>
      <use xlink:href="#ArialMT-20" x="355.761719"/>
      <use xlink:href="#ArialMT-28" x="383.544922"/>
      <use xlink:href="#ArialMT-54" x="416.845703"/>
      <use xlink:href="#ArialMT-77" x="472.429688"/>
      <use xlink:href="#ArialMT-6f" x="544.646484"/>
      <use xlink:href="#ArialMT-2d" x="600.261719"/>
      <use xlink:href="#ArialMT-73" x="633.5625"/>
      <use xlink:href="#ArialMT-74" x="683.5625"/>
      <use xlink:href="#ArialMT-61" x="711.345703"/>
      <use xlink:href="#ArialMT-67" x="766.960938"/>
      <use xlink:href="#ArialMT-65" x="822.576172"/>
      <use xlink:href="#ArialMT-20" x="878.191406"/>
      <use xlink:href="#ArialMT-4c" x="905.974609"/>
      <use xlink:href="#ArialMT-47" x="961.589844"/>
      <use xlink:href="#ArialMT-42" x="1039.373047"/>
      <use xlink:href="#ArialMT-4d" x="1106.072266"/>
      <use xlink:href="#ArialMT-29" x="1189.373047"/>
      <use xlink:href="#ArialMT-20" x="1222.673828"/>
      <use xlink:href="#ArialMT-72" x="1250.457031"/>
      <use xlink:href="#ArialMT-65" x="1283.757812"/>
      <use xlink:href="#ArialMT-73" x="1339.373047"/>
      <use xlink:href="#ArialMT-69" x="1389.373047"/>
      <use xlink:href="#ArialMT-64" x="1411.589844"/>
      <use xlink:href="#ArialMT-75" x="1467.205078"/>
      <use xlink:href="#ArialMT-61" x="1522.820312"/>
      <use xlink:href="#ArialMT-6c" x="1578.435547"/>
     </g>
    </g>
    <g id="line2d_23">
     <path d="M 865.599219 32.159375 
L 873.599219 32.159375 
L 881.599219 32.159375 
" style="fill: none; stroke: #ff7f0e; stroke-width: 2; stroke-linecap: round"/>
    </g>
    <g id="text_21">
     <!-- Baseline residual 7d mean -->
     <g style="fill: #262626" transform="translate(887.999219 34.959375) scale(0.08 -0.08)">
      <defs>
       <path id="ArialMT-6e" d="M 422 0 
L 422 3319 
L 928 3319 
L 928 2847 
Q 1294 3394 1984 3394 
Q 2284 3394 2536 3286 
Q 2788 3178 2913 3003 
Q 3038 2828 3088 2588 
Q 3119 2431 3119 2041 
L 3119 0 
L 2556 0 
L 2556 2019 
Q 2556 2363 2490 2533 
Q 2425 2703 2258 2804 
Q 2091 2906 1866 2906 
Q 1506 2906 1245 2678 
Q 984 2450 984 1813 
L 984 0 
L 422 0 
z
" transform="scale(0.015625)"/>
       <path id="ArialMT-6d" d="M 422 0 
L 422 3319 
L 925 3319 
L 925 2853 
Q 1081 3097 1340 3245 
Q 1600 3394 1931 3394 
Q 2300 3394 2536 3241 
Q 2772 3088 2869 2813 
Q 3263 3394 3894 3394 
Q 4388 3394 4653 3120 
Q 4919 2847 4919 2278 
L 4919 0 
L 4359 0 
L 4359 2091 
Q 4359 2428 4304 2576 
Q 4250 2725 4106 2815 
Q 3963 2906 3769 2906 
Q 3419 2906 3187 2673 
Q 2956 2441 2956 1928 
L 2956 0 
L 2394 0 
L 2394 2156 
Q 2394 2531 2256 2718 
Q 2119 2906 1806 2906 
Q 1569 2906 1367 2781 
Q 1166 2656 1075 2415 
Q 984 2175 984 1722 
L 984 0 
L 422 0 
z
" transform="scale(0.015625)"/>
      </defs>
      <use xlink:href="#ArialMT-42"/>
      <use xlink:href="#ArialMT-61" x="66.699219"/>
      <use xlink:href="#ArialMT-73" x="122.314453"/>
      <use xlink:href="#ArialMT-65" x="172.314453"/>
      <use xlink:href="#ArialMT-6c" x="227.929688"/>
      <use xlink:href="#ArialMT-69" x="250.146484"/>
      <use xlink:href="#ArialMT-6e" x="272.363281"/>
      <use xlink:href="#ArialMT-65" x="327.978516"/>
      <use xlink:href="#ArialMT-20" x="383.59375"/>
      <use xlink:href="#ArialMT-72" x="411.376953"/>
      <use xlink:href="#ArialMT-65" x="444.677734"/>
      <use xlink:href="#ArialMT-73" x="500.292969"/>
      <use xlink:href="#ArialMT-69" x="550.292969"/>
      <use xlink:href="#ArialMT-64" x="572.509766"/>
      <use xlink:href="#ArialMT-75" x="628.125"/>
      <use xlink:href="#ArialMT-61" x="683.740234"/>
      <use xlink:href="#ArialMT-6c" x="739.355469"/>
      <use xlink:href="#ArialMT-20" x="761.572266"/>
      <use xlink:href="#ArialMT-37" x="789.355469"/>
      <use xlink:href="#ArialMT-64" x="844.970703"/>
      <use xlink:href="#ArialMT-20" x="900.585938"/>
      <use xlink:href="#ArialMT-6d" x="928.369141"/>
      <use xlink:href="#ArialMT-65" x="1011.669922"/>
      <use xlink:href="#ArialMT-61" x="1067.285156"/>
      <use xlink:href="#ArialMT-6e" x="1122.900391"/>
     </g>
    </g>
    <g id="line2d_24">
     <path d="M 865.599219 43.475625 
L 873.599219 43.475625 
L 881.599219 43.475625 
" style="fill: none; stroke: #2ca02c; stroke-width: 2; stroke-linecap: round"/>
    </g>
    <g id="text_22">
     <!-- Model residual 7d mean -->
     <g style="fill: #262626" transform="translate(887.999219 46.275625) scale(0.08 -0.08)">
      <use xlink:href="#ArialMT-4d"/>
      <use xlink:href="#ArialMT-6f" x="83.300781"/>
      <use xlink:href="#ArialMT-64" x="138.916016"/>
      <use xlink:href="#ArialMT-65" x="194.53125"/>
      <use xlink:href="#ArialMT-6c" x="250.146484"/>
      <use xlink:href="#ArialMT-20" x="272.363281"/>
      <use xlink:href="#ArialMT-72" x="300.146484"/>
      <use xlink:href="#ArialMT-65" x="333.447266"/>
      <use xlink:href="#ArialMT-73" x="389.0625"/>
      <use xlink:href="#ArialMT-69" x="439.0625"/>
      <use xlink:href="#ArialMT-64" x="461.279297"/>
      <use xlink:href="#ArialMT-75" x="516.894531"/>
      <use xlink:href="#ArialMT-61" x="572.509766"/>
      <use xlink:href="#ArialMT-6c" x="628.125"/>
      <use xlink:href="#ArialMT-20" x="650.341797"/>
      <use xlink:href="#ArialMT-37" x="678.125"/>
      <use xlink:href="#ArialMT-64" x="733.740234"/>
      <use xlink:href="#ArialMT-20" x="789.355469"/>
      <use xlink:href="#ArialMT-6d" x="817.138672"/>
      <use xlink:href="#ArialMT-65" x="900.439453"/>
      <use xlink:href="#ArialMT-61" x="956.054688"/>
      <use xlink:href="#ArialMT-6e" x="1011.669922"/>
     </g>
    </g>
   </g>
  </g>
 </g>
 <defs>
  <clipPath id="p1c30b05f4c">
   <rect x="68.684219" y="21.935625" width="920.79" height="227.38125"/>
  </clipPath>
 </defs>
</svg>
